<?xml version="1.0" encoding="UTF-8"?>
<svg width="233pt" version="1.1" xmlns="http://www.w3.org/2000/svg" height="264pt" viewBox="0 0 233 264" xmlns:xlink="http://www.w3.org/1999/xlink">
 <defs>
  <clipPath id="Clip0">
   <path d="M0 0 L233.333 0 L233.333 264 L0 264 L0 0 Z" transform="translate(0, 0)"/>
  </clipPath>
  <clipPath id="Clip1">
   <path d="M0 0 L233.333 0 L233.333 264 L0 264 L0 0 Z" transform="translate(0, 0)"/>
  </clipPath>
  <clipPath id="Clip2">
   <path d="M0 0 L233.333 0 L233.333 264 L0 264 L0 0 Z" transform="translate(0, 0)"/>
  </clipPath>
  <clipPath id="Clip3">
   <path d="M0 0 L233.333 0 L233.333 264 L0 264 L0 0 Z" transform="translate(0, 0)"/>
  </clipPath>
  <clipPath id="Clip4">
   <path d="M0 0 L233.333 0 L233.333 264 L0 264 L0 0 Z" transform="translate(0, 0)"/>
  </clipPath>
 </defs>
 <g id="Background">
  <g id="svg5026" clip-path="url(#Clip0)">
   <g id="switch7668" clip-path="url(#Clip1)">
    <g id="g7672" clip-path="url(#Clip2)">
     <g id="Layer_1" clip-path="url(#Clip3)">
      <g id="g7675" clip-path="url(#Clip4)">
       <path style="fill:#ffffff; fill-rule:evenodd;stroke:none;" id=" polygon7677" d="M0 0 L9.60035 0 L9.60035 8.51146 L0 8.51146 L0 0 Z" transform="translate(205.814, 125.649)"/>
       <path style="fill:#ffffff; fill-rule:evenodd;stroke:none;" id=" polygon7679" d="M0 0 L9.60035 0 L9.60035 8.511 L0 8.511 L0 0 Z" transform="translate(208.609, 119.13)"/>
       <path style="fill:#ffffff; fill-rule:evenodd;stroke:none;" id=" polygon7681" d="M0 0 L9.60082 0 L9.60082 8.51146 L0 8.51146 L0 0 Z" transform="translate(210.783, 111.368)"/>
       <path style="fill:#ffffff; fill-rule:evenodd;stroke:none;" id=" polygon7683" d="M0 0 L9.60082 0 L9.60082 8.51146 L0 8.51146 L0 0 Z" transform="translate(213.578, 95.8463)"/>
       <path style="fill:#ffffff; fill-rule:evenodd;stroke:none;" id=" polygon7685" d="M0 0 L9.60082 0 L9.60082 8.51146 L0 8.51146 L0 0 Z" transform="translate(216.683, 80.0137)"/>
       <path style="fill:#ffffff; fill-rule:evenodd;stroke:none;" id=" polygon7687" d="M0 0 L9.60035 0 L9.60035 8.51146 L0 8.51146 L0 0 Z" transform="translate(214.82, 87.4643)"/>
       <path style="fill:#ffffff; fill-rule:evenodd;stroke:none;" id=" polygon7689" d="M0 0 L9.60082 0 L9.60082 8.51146 L0 8.51146 L0 0 Z" transform="translate(216.062, 74.1151)"/>
       <path style="fill:#ffffff; fill-rule:evenodd;stroke:none;" id=" polygon7691" d="M0 0 L9.60035 0 L9.60035 8.511 L0 8.511 L0 0 Z" transform="translate(212.335, 103.608)"/>
       <path style="fill:#ffffff; fill-rule:evenodd;stroke:none;" id=" polygon7693" d="M0 0 L9.60035 0 L9.60035 8.51146 L0 8.51146 L0 0 Z" transform="translate(201.778, 138.687)"/>
       <path style="fill:#ffffff; fill-rule:evenodd;stroke:none;" id=" polygon7695" d="M0 0 L9.60082 0 L9.60082 8.51146 L0 8.51146 L0 0 Z" transform="translate(203.951, 133.1)"/>
       <path style="fill:#ffffff; fill-rule:evenodd;stroke:none;" id=" polygon7697" d="M0 0 L9.60082 0 L9.60082 8.51146 L0 8.51146 L0 0 Z" transform="translate(197.43, 151.416)"/>
       <path style="fill:#ffffff; fill-rule:evenodd;stroke:none;" id=" polygon7699" d="M0 0 L9.60082 0 L9.60082 8.51146 L0 8.51146 L0 0 Z" transform="translate(185.63, 174.699)"/>
       <path style="fill:#ffffff; fill-rule:evenodd;stroke:none;" id=" polygon7701" d="M0 0 L9.60082 0 L9.60082 8.51146 L0 8.51146 L0 0 Z" transform="translate(192.151, 164.144)"/>
       <path style="fill:#ffffff; fill-rule:evenodd;stroke:none;" id=" polygon7703" d="M0 0 L9.60035 0 L9.60035 8.51146 L0 8.51146 L0 0 Z" transform="translate(188.736, 169.732)"/>
       <path style="fill:#ffffff; fill-rule:evenodd;stroke:none;" id=" polygon7705" d="M0 0 L9.60035 0 L9.60035 8.51146 L0 8.51146 L0 0 Z" transform="translate(194.635, 157.004)"/>
       <path style="fill:#ffffff; fill-rule:evenodd;stroke:none;" id=" polygon7707" d="M0 0 L9.60082 0 L9.60082 8.51146 L0 8.51146 L0 0 Z" transform="translate(182.836, 178.735)"/>
       <path style="fill:#ffffff; fill-rule:evenodd;stroke:none;" id=" polygon7709" d="M0 0 L9.60035 0 L9.60035 8.51146 L0 8.51146 L0 0 Z" transform="translate(177.557, 188.048)"/>
       <path style="fill:#ffffff; fill-rule:evenodd;stroke:none;" id=" polygon7711" d="M0 0 L9.60082 0 L9.60082 8.51146 L0 8.51146 L0 0 Z" transform="translate(166.998, 199.534)"/>
       <path style="fill:#ffffff; fill-rule:evenodd;stroke:none;" id=" polygon7713" d="M0 0 L9.60082 0 L9.60082 8.51146 L0 8.51146 L0 0 Z" transform="translate(173.83, 192.705)"/>
       <path style="fill:#ffffff; fill-rule:evenodd;stroke:none;" id=" polygon7715" d="M0 0 L9.60035 0 L9.60035 8.51146 L0 8.51146 L0 0 Z" transform="translate(180.352, 183.392)"/>
       <path style="fill:#ffffff; fill-rule:evenodd;stroke:none;" id=" polygon7717" d="M0 0 L9.60082 0 L9.60082 8.51146 L0 8.51146 L0 0 Z" transform="translate(170.725, 196.74)"/>
       <path style="fill:#ffffff; fill-rule:evenodd;stroke:none;" id=" polygon7719" d="M0 0 L9.60082 0 L9.60082 8.51146 L0 8.51146 L0 0 Z" transform="translate(124.146, 242.065)"/>
       <path style="fill:#ffffff; fill-rule:evenodd;stroke:none;" id=" polygon7721" d="M0 0 L9.60035 0 L9.60035 8.51146 L0 8.51146 L0 0 Z" transform="translate(134.523, 233.373)"/>
       <path style="fill:#ffffff; fill-rule:evenodd;stroke:none;" id=" polygon7723" d="M0 0 L9.60082 0 L9.60082 8.51146 L0 8.51146 L0 0 Z" transform="translate(127.872, 238.65)"/>
       <path style="fill:#ffffff; fill-rule:evenodd;stroke:none;" id=" polygon7725" d="M0 0 L9.60082 0 L9.60082 8.51146 L0 8.51146 L0 0 Z" transform="translate(140.914, 228.095)"/>
       <path style="fill:#ffffff; fill-rule:evenodd;stroke:none;" id=" polygon7727" d="M0 0 L9.60082 0 L9.60082 8.51146 L0 8.51146 L0 0 Z" transform="translate(130.668, 235.856)"/>
       <path style="fill:#ffffff; fill-rule:evenodd;stroke:none;" id=" polygon7729" d="M0 0 L9.60082 0 L9.60082 8.51146 L0 8.51146 L0 0 Z" transform="translate(138.12, 230.579)"/>
       <path style="fill:#ffffff; fill-rule:evenodd;stroke:none;" id=" polygon7731" d="M0 0 L9.60035 0 L9.60035 8.51146 L0 8.51146 L0 0 Z" transform="translate(144.331, 224.991)"/>
       <path style="fill:#ffffff; fill-rule:evenodd;stroke:none;" id=" polygon7733" d="M0 0 L9.60082 0 L9.60082 8.51146 L0 8.51146 L0 0 Z" transform="translate(150.541, 219.403)"/>
       <path style="fill:#ffffff; fill-rule:evenodd;stroke:none;" id=" polygon7735" d="M0 0 L9.60082 0 L9.60082 8.51146 L0 8.51146 L0 0 Z" transform="translate(147.435, 222.197)"/>
       <path style="fill:#ffffff; fill-rule:evenodd;stroke:none;" id=" polygon7737" d="M0 0 L9.60082 0 L9.60082 8.51146 L0 8.51146 L0 0 Z" transform="translate(153.336, 215.988)"/>
       <path style="fill:#ffffff; fill-rule:evenodd;stroke:none;" id=" polygon7739" d="M0 0 L9.60035 0 L9.60035 8.51146 L0 8.51146 L0 0 Z" transform="translate(157.062, 212.263)"/>
       <path style="fill:#ffffff; fill-rule:evenodd;stroke:none;" id=" polygon7741" d="M0 0 L9.60082 0 L9.60082 8.51146 L0 8.51146 L0 0 Z" transform="translate(160.477, 207.916)"/>
       <path style="fill:#ffffff; fill-rule:evenodd;stroke:none;" id=" polygon7743" d="M0 0 L9.60035 0 L9.60035 8.51146 L0 8.51146 L0 0 Z" transform="translate(163.894, 204.502)"/>
       <path style="fill:#ffffff; fill-rule:evenodd;stroke:none;" id=" polygon7745" d="M0 0 L9.60082 0 L9.60082 8.51146 L0 8.51146 L0 0 Z" transform="translate(120.42, 244.549)"/>
       <path style="fill:#ffffff; fill-rule:evenodd;stroke:none;" id=" polygon7747" d="M0 0 L9.60082 0 L9.60082 8.51146 L0 8.51146 L0 0 Z" transform="translate(116.383, 247.032)"/>
       <path style="fill:#ffffff; fill-rule:evenodd;stroke:none;" id=" polygon7749" d="M0 0 L9.60082 0 L9.60082 8.511 L0 8.511 L0 0 Z" transform="translate(106.576, 247.162)"/>
       <path style="fill:#ffffff; fill-rule:evenodd;stroke:none;" id=" polygon7751" d="M0 0 L9.60082 0 L9.60082 8.51146 L0 8.51146 L0 0 Z" transform="translate(111.415, 252)"/>
       <path style="fill:#ffffff; fill-rule:evenodd;stroke:none;" id=" polygon7753" d="M0 0 L9.60082 0 L9.60082 8.51146 L0 8.51146 L0 0 Z" transform="translate(101.167, 243.928)"/>
       <path style="fill:#ffffff; fill-rule:evenodd;stroke:none;" id=" polygon7755" d="M0 0 L9.60082 0 L9.60082 8.511 L0 8.511 L0 0 Z" transform="translate(95.7075, 239.401)"/>
       <path style="fill:#ffffff; fill-rule:evenodd;stroke:none;" id=" polygon7757" d="M0 0 L9.60082 0 L9.60082 8.51146 L0 8.51146 L0 0 Z" transform="translate(86.2623, 231.51)"/>
       <path style="fill:#ffffff; fill-rule:evenodd;stroke:none;" id=" polygon7759" d="M0 0 L9.60082 0 L9.60082 8.51146 L0 8.51146 L0 0 Z" transform="translate(90.2988, 235.546)"/>
       <path style="fill:#ffffff; fill-rule:evenodd;stroke:none;" id=" polygon7761" d="M0 0 L9.60082 0 L9.60082 8.51146 L0 8.51146 L0 0 Z" transform="translate(82.8467, 228.096)"/>
       <path style="fill:#ffffff; fill-rule:evenodd;stroke:none;" id=" polygon7763" d="M0 0 L9.60082 0 L9.60082 8.51146 L0 8.51146 L0 0 Z" transform="translate(79.1199, 225.301)"/>
       <path style="fill:#ffffff; fill-rule:evenodd;stroke:none;" id=" polygon7765" d="M0 0 L9.60082 0 L9.60082 8.51146 L0 8.51146 L0 0 Z" transform="translate(75.0834, 221.266)"/>
       <path style="fill:#ffffff; fill-rule:evenodd;stroke:none;" id=" polygon7767" d="M0 0 L9.60082 0 L9.60082 8.51146 L0 8.51146 L0 0 Z" transform="translate(70.7362, 217.54)"/>
       <path style="fill:#ffffff; fill-rule:evenodd;stroke:none;" id=" polygon7769" d="M0 0 L9.60082 0 L9.60082 8.51146 L0 8.51146 L0 0 Z" transform="translate(67.941, 214.126)"/>
       <path style="fill:#ffffff; fill-rule:evenodd;stroke:none;" id=" polygon7771" d="M0 0 L9.60082 0 L9.60082 8.511 L0 8.511 L0 0 Z" transform="translate(64.3447, 210.53)"/>
       <path style="fill:#ffffff; fill-rule:evenodd;stroke:none;" id=" polygon7773" d="M0 0 L9.60082 0 L9.60082 8.51146 L0 8.51146 L0 0 Z" transform="translate(60.4889, 206.054)"/>
       <path style="fill:#ffffff; fill-rule:evenodd;stroke:none;" id=" polygon7775" d="M0 0 L9.60082 0 L9.60082 8.51146 L0 8.51146 L0 0 Z" transform="translate(56.4519, 201.708)"/>
       <path style="fill:#ffffff; fill-rule:evenodd;stroke:none;" id=" polygon7777" d="M0 0 L9.60082 0 L9.60082 8.51146 L0 8.51146 L0 0 Z" transform="translate(53.0363, 197.672)"/>
       <path style="fill:#ffffff; fill-rule:evenodd;stroke:none;" id=" polygon7779" d="M0 0 L9.60082 0 L9.60082 8.51146 L0 8.51146 L0 0 Z" transform="translate(49.9309, 192.084)"/>
       <path style="fill:#ffffff; fill-rule:evenodd;stroke:none;" id=" polygon7781" d="M0 0 L9.60082 0 L9.60082 8.51146 L0 8.51146 L0 0 Z" transform="translate(45.894, 187.738)"/>
       <path style="fill:#ffffff; fill-rule:evenodd;stroke:none;" id=" polygon7783" d="M0 0 L9.60082 0 L9.60082 8.51146 L0 8.51146 L0 0 Z" transform="translate(43.0992, 183.392)"/>
       <path style="fill:#ffffff; fill-rule:evenodd;stroke:none;" id=" polygon7785" d="M0 0 L9.60082 0 L9.60082 8.51146 L0 8.51146 L0 0 Z" transform="translate(39.8387, 178.89)"/>
       <path style="fill:#ffffff; fill-rule:evenodd;stroke:none;" id=" polygon7787" d="M0 0 L44.3792 0 L44.3792 8.51146 L0 8.51146 L0 0 Z" transform="translate(36.1129, 173.612)"/>
       <path style="fill:#ffffff; fill-rule:evenodd;stroke:none;" id=" polygon7789" d="M0 0 L44.3797 0 L44.3797 8.51146 L0 8.51146 L0 0 Z" transform="translate(33.3177, 167.714)"/>
       <path style="fill:#ffffff; fill-rule:evenodd;stroke:none;" id=" polygon7791" d="M0 0 L44.3792 0 L44.3792 8.51146 L0 8.51146 L0 0 Z" transform="translate(29.5919, 162.126)"/>
       <path style="fill:#ffffff; fill-rule:evenodd;stroke:none;" id=" polygon7793" d="M0 0 L44.3792 0 L44.3792 8.51146 L0 8.51146 L0 0 Z" transform="translate(27.4181, 155.762)"/>
       <path style="fill:#ffffff; fill-rule:evenodd;stroke:none;" id=" polygon7795" d="M0 0 L14.5689 0 L14.5689 42.3496 L0 42.3496 L0 0 Z" transform="translate(21.1816, 75.6671)"/>
       <path style="fill:#ffffff; fill-rule:evenodd;stroke:none;" id=" polygon7797" d="M0 0 L54.2401 0 L54.2401 10.6838 L0 10.6838 L0 0 Z" transform="translate(24.9336, 148.622)"/>
       <path style="fill:#ffffff; fill-rule:evenodd;stroke:none;" id=" polygon7799" d="M0 0 L14.5693 0 L14.5693 29.9316 L0 29.9316 L0 0 Z" transform="translate(22.1388, 123.166)"/>
       <path style="fill:#ffffff; fill-rule:evenodd;stroke:none;" id=" polygon7801" d="M0 0 L14.5689 0 L14.5689 29.9316 L0 29.9316 L0 0 Z" transform="translate(20.2762, 117.578)"/>
       <path style="fill:#ffffff; fill-rule:evenodd;stroke:none;" id=" polygon7803" d="M0 0 L14.5689 0 L14.5689 11.9262 L0 11.9262 L0 0 Z" transform="translate(18.1023, 128.132)"/>
       <path style="fill:#ffffff; fill-rule:evenodd;stroke:none;" id=" polygon7805" d="M0 0 L14.5689 0 L14.5689 29.9316 L0 29.9316 L0 0 Z" transform="translate(15.6183, 104.228)"/>
       <path style="fill:#ffffff; fill-rule:evenodd;stroke:none;" id=" polygon7807" d="M0 0 L14.5689 0 L14.5689 29.9312 L0 29.9312 L0 0 Z" transform="translate(13.1338, 93.9837)"/>
       <path style="fill:#ffffff; fill-rule:evenodd;stroke:none;" id=" polygon7809" d="M0 0 L14.5689 0 L14.5689 29.9312 L0 29.9312 L0 0 Z" transform="translate(10.6497, 85.9123)"/>
       <path style="fill:#ffffff; fill-rule:evenodd;stroke:none;" id=" polygon7811" d="M0 0 L14.5693 0 L14.5693 29.9312 L0 29.9312 L0 0 Z" transform="translate(9.40749, 75.6676)"/>
       <path style="fill:#ffffff; fill-rule:evenodd;stroke:none;" id=" polygon7813" d="M0 0 L14.5689 0 L14.5689 29.9312 L0 29.9312 L0 0 Z" transform="translate(7.38924, 65.8886)"/>
       <path style="fill:#ffffff; fill-rule:evenodd;stroke:none;" id=" polygon7815" d="M0 0 L177.594 0 L177.594 88.6058 L0 88.6058 L0 0 Z" transform="translate(31.6101, 64.181)"/>
       <path style="fill:#ffffff; fill-rule:evenodd;stroke:none;" id=" polygon7817" d="M0 0 L217.186 0 L217.186 57.8719 L0 57.8719 L0 0 Z" transform="translate(7.38924, 2.24731)"/>
       <path style="fill:#ffffff; fill-rule:evenodd;stroke:none;" id=" polygon7819" d="M0 0 L221.378 0 L221.378 57.8719 L0 57.8719 L0 0 Z" transform="translate(5.52609, 19.9426)"/>
       <path style="fill:#161413; fill-rule:evenodd;stroke:none;" id=" path7821" d="M110.124 261.108 C90.7409 247.127 72.3768 231.699 56.6337 213.655 C35.1226 189.001 20.3516 161.481 11.6041 129.944 C0.55056 90.0873 0 47.256 3.85206 6.32422 L4.44733 0 L223.958 0 L224.559 6.31724 C231.331 77.4814 224.101 148.35 178.417 206.13 C161.403 227.65 140.655 245.56 118.194 261.177 L114.135 264 L110.124 261.108 L110.124 261.108 Z M112.166 258.278 C93.0022 244.456 74.8301 229.202 59.2632 211.361 C38.0953 187.1 23.5753 160.047 14.9676 129.012 C4.03092 89.5789 3.51623 47.1452 7.32635 6.65159 L7.62448 3.48924 L220.783 3.48924 L221.084 6.64833 C227.767 76.8724 220.774 146.931 175.679 203.968 C158.881 225.214 138.377 242.894 116.202 258.313 L114.172 259.724 L112.166 258.278 L112.166 258.278 Z" transform="translate(2.00195, 0)"/>
       <path style="fill:#161413; fill-rule:evenodd;stroke:none;" id=" path7823" d="M12.8035 0 L219.612 0 C231.988 130.067 189.85 197.269 116.211 248.47 C46.4063 198.122 0 136.049 12.8035 0 L12.8035 0 Z M212.401 3.48971 L15.9904 3.48971 C12.5814 42.1554 13.2791 82.611 23.6955 120.17 C29.0185 139.36 36.6648 156.957 46.8373 173.284 L212.401 3.48971 L212.401 3.48971 Z" transform="translate(0, 6.97802)"/>
       <path style="fill:#161413; fill-rule:evenodd;stroke:none;" d="M12.9024 23.813 L0 23.813 L0 21.3902 L4.7984 21.3902 L4.7984 5.48305 L0 5.48305 L0 3.31533 C1.81273 3.31533 3.14858 3.08421 4.00756 2.62198 C4.86653 2.15974 5.34931 1.28575 5.45597 0 L8.21061 0 L8.21061 21.3902 L12.9024 21.3902 L12.9024 23.813 Z" transform="translate(118.689, 14.5249)"/>
       <path style="fill:#161413; fill-rule:nonzero;stroke:none;" id=" path7830" d="M8.8816 20.7795 L4.15994 20.7795 L7.38367 14.4245 C2.00894 14.4869 0 10.2461 0 7.14984 C0 3.38307 3.07698 0 7.28675 0.05588 C11.1579 0.106638 14.1921 3.57446 14.118 7.26675 C14.0761 9.38178 13.2139 11.6049 12.5772 12.9525 L8.8816 20.7795 L8.8816 20.7795 Z M7.04687 3.87202 C4.72585 3.85246 3.62289 5.73699 3.62289 7.31192 C3.62289 8.88679 4.86979 10.6521 7.00265 10.6521 C9.13546 10.6521 10.4923 9.08793 10.4392 7.30772 C10.3866 5.52747 9.36788 3.89158 7.04687 3.87202 L7.04687 3.87202 Z" transform="translate(128.998, 17.5598)"/>
       <path style="fill:#161413; fill-rule:nonzero;stroke:none;" id=" path7832" d="M8.8816 20.7799 L4.16041 20.7799 L7.38413 14.425 C2.0094 14.4869 0 10.2461 0 7.14984 C0 3.38307 3.07745 0 7.28675 0.05588 C11.1579 0.106638 14.1921 3.57446 14.1185 7.26675 C14.0761 9.38131 13.2139 11.6044 12.5772 12.9525 L8.8816 20.7799 L8.8816 20.7799 Z M7.04687 3.87248 C4.72632 3.85293 3.62336 5.73746 3.62336 7.31238 C3.62336 8.88726 4.86979 10.6526 7.00311 10.6526 C9.13592 10.6526 10.4928 9.0884 10.4397 7.30819 C10.3866 5.52794 9.36788 3.89204 7.04687 3.87248 L7.04687 3.87248 Z" transform="translate(158.882, 17.5584)"/>
       <path style="fill:#161413; fill-rule:evenodd;stroke:none;" d="M12.9024 23.813 L0 23.813 L0 21.3902 L4.7984 21.3902 L4.7984 5.48305 L0 5.48305 L0 3.31533 C1.81273 3.31533 3.14858 3.08421 4.00756 2.62198 C4.86653 2.15974 5.34931 1.28575 5.45597 0 L8.21061 0 L8.21061 21.3902 L12.9024 21.3902 L12.9024 23.813 Z" transform="translate(148.449, 14.5249)"/>
       <path style="fill:#161413; fill-rule:evenodd;stroke:none;" id=" path7839" d="M38.1968 0 C59.2893 0 76.3939 17.1002 76.3939 38.187 C76.3939 59.2738 59.2893 76.3742 38.1968 76.3742 C28.8983 76.3742 20.3772 73.047 13.7519 67.523 L13.7314 67.5272 L13.7263 67.5011 C5.33883 60.4956 0 49.9649 0 38.1866 C0 17.1002 17.1046 0 38.1968 0 L38.1968 0 Z M43.6065 66.989 C40.3618 69.7444 35.9899 71.8578 31.6343 73.0326 C33.7625 73.4311 35.9531 73.6439 38.1968 73.6439 C41.2291 73.6439 44.1701 73.2607 46.978 72.5441 C46.002 70.7245 44.866 68.8546 43.6065 66.989 L43.6065 66.989 Z M27.1721 71.8918 C32.4439 71.232 38.4549 68.8118 42.4616 65.3444 C40.5807 62.7184 38.467 60.1315 36.2042 57.7261 C30.6157 61.8403 23.9675 65.0073 17.1931 66.752 C20.1928 68.9613 23.5543 70.7096 27.1721 71.8918 L27.1721 71.8918 Z M15.2093 65.1787 C22.1565 63.6179 29.0553 60.4621 34.8026 56.2781 C31.462 52.9341 27.8536 50.0361 24.2377 48.0205 C18.7782 50.9986 12.519 52.9723 6.31931 53.7326 C8.47314 58.1387 11.5147 62.0307 15.2093 65.1787 L15.2093 65.1787 Z M10.3111 51.0386 C10.0172 31.3245 14.8526 15.9184 29.6352 3.7719 C14.1888 7.60385 2.73137 21.5618 2.73137 38.1875 C2.73137 43.0216 3.7016 47.6276 5.45481 51.8264 C7.0711 51.6495 8.69671 51.3832 10.3111 51.0386 L10.3111 51.0386 Z M33.9139 2.98679 C17.338 15.0187 12.076 30.3913 12.3 50.5688 C16.1572 49.5757 19.9142 48.115 23.3396 46.2402 L23.4174 46.1974 C25.8433 27.8036 34.7104 14.5153 50.0422 4.75866 C46.3364 3.44594 42.3521 2.73113 38.1968 2.73113 C36.7459 2.73067 35.3183 2.81729 33.9139 2.98679 L33.9139 2.98679 Z M40.952 14.377 C55.8416 19.5478 67.0569 32.7112 72.4798 47.2783 C73.2496 44.3762 73.6624 41.3316 73.6624 38.1875 C73.6624 23.6405 64.8911 11.1374 52.3515 5.66995 C48.046 8.29537 44.246 11.1834 40.952 14.377 L40.952 14.377 Z M71.4728 50.4594 C66.6007 35.332 55.2177 21.2237 39.8075 16.0925 L39.3906 15.9537 C35.8619 19.6642 32.9749 23.7709 30.7224 28.3246 L30.7382 28.3326 C46.5623 36.0468 57.1552 47.0739 62.5212 63.976 C66.466 60.2577 69.5582 55.6421 71.4728 50.4594 L71.4728 50.4594 Z M60.8847 65.4282 C55.7731 48.5672 45.4636 37.7316 29.8728 30.1291 C27.6859 35.026 26.1944 40.4264 25.4012 46.3897 C34.7398 51.6723 43.9237 62.4651 48.9374 71.9821 C53.3589 70.5788 57.4035 68.3299 60.8847 65.4282 L60.8847 65.4282 Z" transform="translate(35.0453, 24.4731)"/>
       <path style="fill:#ffffff; fill-rule:nonzero;stroke:none;" id=" path7841" d="M33.0811 33.4139 C25.5899 41.1217 14.7231 41.8714 7.14938 33.569 C0 25.7323 1.40435 12.7723 8.95243 4.99053 C11.1025 2.77398 14.4426 0.88663 19.7563 0.163449 C20.9604 0 21.2799 0.623063 22.3419 1.35882 C24.1105 2.58492 26.0552 4.35724 26.2708 4.72374 C26.8703 5.74817 26.119 6.87555 24.7608 6.77218 C23.6969 6.6921 21.8845 6.09509 20.7736 5.90326 C18.4051 5.49395 16.1758 5.17868 13.4403 7.71751 C8.91003 11.922 11.1262 19.8346 13.7337 23.0445 C16.0459 25.8925 19.5178 28.958 22.6848 29.8325 C25.7413 30.6777 28.7069 30.7107 31.6329 27.5339 C36.0826 22.7045 33.8515 18.2295 35.8907 16.2755 C36.8312 15.3749 38.1666 15.4462 38.4405 17.443 C39.3129 23.7867 37.0999 29.2793 33.0811 33.4139 L33.0811 33.4139 Z" transform="translate(72.2552, 168.223)"/>
       <path style="fill:#ffffff; fill-rule:nonzero;stroke:none;" id=" path7843" d="M25.4021 26.4699 C26.3365 27.5358 28.0827 29.4543 29.3967 30.6101 C31.3134 32.2959 32.0969 32.3713 33.0546 32.4332 C33.7994 32.4812 34.7892 32.3555 35.2293 32.8206 C35.7808 33.4023 35.8306 34.4766 34.6145 35.6896 C31.4378 38.8534 29.7852 40.7594 26.6602 43.9748 C25.438 45.2321 24.1128 45.3369 23.6499 44.6728 C22.94 43.6548 23.7393 42.8595 22.9027 40.7076 C22.7061 40.2038 21.8594 38.7947 19.9981 36.9073 L6.8424 23.5632 C4.35045 21.0351 2.65545 22.3245 1.57855 21.0668 C0 19.2218 1.91019 17.9598 3.28566 16.5409 L13.0606 6.45226 C16.5196 2.88201 19.3292 0.67801 22.3019 0.339005 C25.2782 0 28.0036 0.893149 30.6246 3.76864 C33.2674 6.66882 34.1426 10.1827 33.8338 13.6822 C33.5259 17.1822 31.4951 20.6458 28.1526 23.8417 L25.4021 26.4699 L25.4021 26.4699 Z M23.3308 21.6605 C26.371 18.5741 24.941 15.6352 22.6517 13.3767 C21.3149 12.057 20.0987 10.8505 18.9379 10.464 C16.2145 9.5555 14.3136 11.1592 13.199 12.4528 C12.8501 12.8575 12.8762 13.6319 13.2302 13.9947 L20.8104 21.7713 C21.8263 22.8121 22.1505 22.8591 23.3308 21.6605 L23.3308 21.6605 Z" transform="translate(93.8625, 140.974)"/>
       <path style="fill:#ffffff; fill-rule:nonzero;stroke:none;" id=" path7845" d="M26.2601 46.4056 C25.6797 46.9985 25.2279 47.615 24.5921 47.628 C23.9563 47.6415 23.4575 47.4809 22.9954 46.843 C22.572 46.257 22.791 44.8149 22.5371 43.9673 C22.3228 43.2493 20.959 40.94 19.3767 39.2306 L7.25697 26.1365 C3.58097 22.1648 2.80729 23.8892 1.54595 22.9471 C0 21.7914 1.36988 20.5871 2.33219 19.5953 L18.0739 3.37236 C21.346 0 23.1622 0.131783 24.5148 1.97024 C25.7878 3.70019 26.8349 6.72236 25.8316 7.75476 C24.1147 9.52104 22.5646 7.32076 20.298 8.29211 C19.2672 8.73356 18.1796 9.52756 17.059 10.6805 L16.2834 11.4782 C14.8041 13.0005 14.1129 14.1134 14.2098 14.8222 C14.3048 15.5221 16.3472 17.7927 18.3478 19.9888 C19.3148 21.0491 19.9823 21.5958 20.3568 21.6321 C20.7382 21.6633 21.3111 21.2917 22.0797 20.5005 C22.6778 19.8849 25.0262 17.4271 25.2778 17.0686 C26.52 15.2911 26.0221 13.5952 27.1544 12.4296 C28.4386 11.1085 30.3455 12.4813 31.2985 13.5229 C33.3652 15.7819 33.7253 17.7098 33.089 19.3019 C32.2702 21.3475 29.9384 20.1615 28.7791 20.453 C28.3906 20.5508 27.664 21.5743 27.0771 22.1783 C26.4134 22.8614 24.0989 25.2149 24.1673 25.7001 C24.2344 26.184 25.5316 27.5786 26.5321 28.6762 L26.9816 29.1698 C28.8685 31.2407 30.5514 33.569 31.2389 33.5876 C31.9143 33.6044 33.1365 32.7108 34.8926 30.904 C36.1963 29.5624 38.3925 26.9532 38.9477 25.716 C40.2002 22.9267 38.9877 21.4319 40.1247 20.2621 C42.4965 17.822 45.9983 22.8493 46.241 24.3702 C46.5488 26.3009 45.7999 26.4378 44.6391 27.6233 L26.2601 46.4056 L26.2601 46.4056 Z" transform="translate(119.07, 112.911)"/>
       <path style="fill:#ffffff; fill-rule:nonzero;stroke:none;" id=" path7847" d="M22.0541 57.592 C20.374 55.6346 23.7286 55.7282 19.3376 50.9073 L5.5871 35.806 C3.23116 33.2183 2.38576 35.4703 0.787647 33.7297 C0 32.8709 0.735012 31.2579 1.75276 30.2176 L7.76189 24.088 C8.60076 23.2307 9.37953 22.9714 9.75775 22.8927 C10.3312 22.773 11.9721 22.4512 14.8018 23.823 C18.5104 25.6196 21.6726 27.6517 25.0775 29.3375 C26.5778 30.0802 26.8065 29.9205 26.2447 28.3237 L21.6814 15.3446 C20.9693 13.3181 20.4178 11.0843 21.4574 9.98949 L26.8535 4.30695 C27.7362 3.37795 29.8513 0 31.5496 1.85754 C32.5515 2.95233 31.3819 4.49974 34.5586 7.8097 C38.6929 12.1176 43.2185 16.2611 47.6043 20.3245 C48.7725 21.4077 50.0096 22.6123 50.7957 23.254 C52.2537 24.4433 53.3217 22.7869 54.673 24.143 C55.1427 24.6128 55.0686 25.7434 54.5006 26.7805 C53.2336 29.0958 50.4117 31.6001 49.5837 32.4518 C48.9523 33.1019 47.8676 34.6977 45.7999 36.0403 C44.4752 36.9008 43.5949 37.3232 42.5864 36.5851 C41.9991 36.1553 41.9478 35.4056 42.0419 34.7522 C42.2417 33.3669 41.4713 32.7899 40.8649 32.117 C40.1396 31.3138 35.1273 26.0638 33.2842 24.048 C32.7853 23.5041 32.4919 22.9071 32.1845 22.6542 C31.4942 22.0861 31.0866 22.5634 31.3744 23.5278 C33.1528 29.4944 35.7589 35.9011 37.2997 41.971 C37.8182 44.0092 36.8921 44.7748 35.1017 44.2607 C31.4616 43.2111 22.2278 40.0795 19.7126 39.0923 C17.3282 38.1563 15.7468 37.4624 15.3249 37.8974 C15.0249 38.2056 15.3821 38.4007 15.8014 39.0876 C16.2215 39.7763 21.7779 45.6721 23.8268 47.8436 C27.0538 51.2616 27.4847 48.5024 29.3366 50.4631 C30.816 52.0294 28.4284 54.2946 27.3691 55.3841 C26.1805 56.6073 23.9321 59.7799 22.0541 57.592 L22.0541 57.592 Z" transform="translate(144.976, 76.1817)"/>
       <path style="fill:#161413; fill-rule:nonzero;stroke:none;" id=" path7849" d="M0 6.70746 L6.51777 0 L6.87362 0.345059 C6.16657 1.09944 5.79766 1.66197 5.77763 2.0359 C5.75386 2.41262 6.03195 2.92392 6.61744 3.57632 C8.04366 2.10994 9.29803 1.15672 10.3777 0.719919 C11.4597 0.286385 12.6065 0.123867 13.8199 0.242612 C15.0314 0.359029 16.1274 0.891752 17.1046 1.84078 C18.3301 3.03009 18.9701 4.53327 19.0283 6.3489 C19.0842 8.16733 18.0064 10.2111 15.7934 12.4883 C16.2471 12.9297 16.6318 13.2012 16.942 13.2999 C17.2565 13.4005 17.5527 13.3837 17.8275 13.258 C18.1093 13.1313 18.5457 12.7993 19.1429 12.2629 L19.496 12.6056 L12.9773 19.3126 L12.6252 18.9708 C13.3727 18.1605 13.7319 17.5435 13.7062 17.1193 C13.6732 16.6946 13.3644 16.1894 12.763 15.6059 C11.3 17.1123 9.94502 18.0884 8.69577 18.5308 C7.44653 18.9745 6.25552 19.0751 5.12178 18.8367 C3.99505 18.5997 2.9978 18.0623 2.14542 17.2338 C1.23107 16.3458 0.661417 15.266 0.429921 13.9882 C0.202617 12.7132 0.34049 11.5197 0.843073 10.4081 C1.34473 9.29564 2.26093 8.05931 3.58842 6.69443 C3.00619 6.12908 2.5036 5.86974 2.07881 5.90792 C1.65401 5.95308 1.08063 6.33493 0.355861 7.05346 L0 6.70746 L0 6.70746 Z M15.0882 11.8028 C15.7003 11.1718 16.1074 10.5576 16.3077 9.95969 C16.5121 9.36362 16.4372 8.63066 16.0794 7.76314 C15.7254 6.89887 15.0062 5.94098 13.9284 4.89322 C13.0686 4.05875 12.2204 3.47527 11.3876 3.14232 C10.558 2.81356 9.84582 2.74278 9.25283 2.92811 C8.66362 3.11717 8.0185 3.56515 7.32635 4.26365 L15.0882 11.8028 L15.0882 11.8028 Z M4.29549 7.38269 C3.50551 8.24183 3.07186 8.98736 2.99128 9.6137 C2.90744 10.2428 3.05509 10.9399 3.43098 11.7176 C3.80874 12.4911 4.44594 13.3195 5.35327 14.2005 C6.39247 15.2096 7.31284 15.8495 8.10563 16.1246 C8.89931 16.3998 9.60217 16.4222 10.2133 16.1908 C10.8286 15.9635 11.4411 15.5416 12.0573 14.9218 L4.29549 7.38269 L4.29549 7.38269 Z" transform="translate(39.4861, 140.028)"/>
       <path style="fill:#161413; fill-rule:nonzero;stroke:none;" id=" path7851" d="M0 12.4631 L6.56245 5.70906 L6.91738 6.05505 L6.70499 6.27347 C6.08549 6.91051 5.78462 7.44974 5.81346 7.89071 C5.83536 8.33123 6.17542 8.86444 6.82563 9.49543 L10.7028 13.2617 C11.5692 12.3695 12.1049 11.7604 12.3033 11.4317 C12.505 11.1076 12.5697 10.6875 12.5008 10.1767 C12.4351 9.66212 12.089 8.90122 11.4658 7.88233 C10.7378 6.6921 10.2431 5.74305 9.98505 5.04226 C9.72467 4.33722 9.65715 3.64245 9.77173 2.95558 C9.88818 2.2678 10.2426 1.61493 10.8458 0.994665 C11.4392 0.383709 12.0946 0.0628651 12.7993 0.0298027 C13.5064 0 14.1166 0.230039 14.6261 0.724575 C15.0211 1.10829 15.2135 1.53716 15.2014 2.00749 C15.1926 2.48107 15.0048 2.90157 14.6462 3.27038 C13.9391 3.99915 13.1375 3.98098 12.2371 3.22242 C11.7905 2.8387 11.4383 2.78283 11.178 3.05012 C10.9017 3.33511 10.8207 3.73884 10.9506 4.25852 C11.0773 4.78101 11.4453 5.56472 12.0615 6.61807 C12.6587 7.64953 13.0858 8.44535 13.335 9.01157 C13.5851 9.57785 13.703 10.1487 13.6848 10.729 C14.1823 10.4188 14.621 10.2344 15.0039 10.1753 C15.3831 10.118 15.793 10.1278 16.2317 10.206 C16.6705 10.2833 17.7125 10.5515 19.3576 11.014 L22.9982 11.9779 C23.5478 12.1185 24.0434 12.1241 24.4901 12.0049 C24.9359 11.8861 25.3537 11.6263 25.7436 11.2244 L26.0966 11.5672 L21.8752 15.9095 L14.3048 13.7493 C13.4487 13.5076 12.8897 13.4033 12.6317 13.4317 C12.3713 13.4578 12.0206 13.6822 11.5757 14.1078 L15.9662 18.3715 C16.5936 18.9806 17.1149 19.2395 17.536 19.1468 C17.9635 19.0532 18.5155 18.6625 19.1885 17.9701 L19.5402 18.3128 L12.9778 25.0659 L12.6247 24.7241 C13.3387 23.9623 13.6997 23.369 13.7225 22.9332 C13.7389 22.4987 13.4095 21.9497 12.7262 21.2865 L4.04769 12.8575 C3.28566 12.1167 2.6848 11.7181 2.24509 11.6468 C1.80306 11.5783 1.26275 11.8722 0.62462 12.5292 L0.355395 12.8067 L0 12.4631 L0 12.4631 Z" transform="translate(51.3115, 122.104)"/>
      </g>
     </g>
    </g>
   </g>
  </g>
 </g>
</svg>
