<?xml version="1.0" encoding="utf-8"?>
<!-- Generator: Adobe Illustrator 12.0.0, SVG Export Plug-In . SVG Version: 6.00 Build 51448)  -->
<!DOCTYPE svg PUBLIC "-//W3C//DTD SVG 1.1//EN" "http://www.w3.org/Graphics/SVG/1.1/DTD/svg11.dtd" [
	<!ENTITY ns_svg "http://www.w3.org/2000/svg">
	<!ENTITY ns_xlink "http://www.w3.org/1999/xlink">
]>
<svg  version="1.1" id="Layer_1" xmlns="&ns_svg;" xmlns:xlink="&ns_xlink;" width="196.929" height="196.93"
	 viewBox="0 0 196.929 196.93" overflow="visible" enable-background="new 0 0 196.929 196.93" xml:space="preserve">
<g>
	<path fill-rule="evenodd" clip-rule="evenodd" fill="#C7A939" d="M98.464,0c54.371,0,98.465,44.094,98.465,98.465
		c0,54.372-44.094,98.465-98.465,98.465S0,152.837,0,98.465C0,44.094,44.093,0,98.464,0L98.464,0z M98.464,2.702
		c52.88,0,95.764,42.884,95.764,95.763c0,52.88-42.884,95.764-95.764,95.764c-52.879,0-95.763-42.884-95.763-95.764
		C2.701,45.586,45.585,2.702,98.464,2.702L98.464,2.702z"/>
	<path fill-rule="evenodd" clip-rule="evenodd" d="M22.765,47.397l22.37,27.271c14.354-25.391,34.19-34.609,56.777-33.875
		L75.92,9.155C55.784,15.497,36.648,25.711,22.765,47.397L22.765,47.397z"/>
	<path fill-rule="evenodd" clip-rule="evenodd" d="M133.764,183.111l-7.989-9.8l18.088,0.498c3.379,0.354,3.883-2.914,2.79-4.689
		c7.004-0.847,5.702-3.183,5.678-6.052l6.956-0.236c5.546-3.054,3.957-6.321-0.293-6.606c-0.05-2.258-1.521-3.717-6.114-3.418
		c1.677-3.751,1.225-5.657-1.356-5.717l-28.792,5.74l-0.259-1.678c8.312-2.873,16.758-9.807,25.354-21.198
		c4.974,0.758,6.944,0.955,10.208-2.04c1.135-1.04,1.15-2.647,0.444-4.031l12.57,1.917l10.013,12.037
		C169.521,160.6,153.258,175.122,133.764,183.111L133.764,183.111z"/>
	<path fill-rule="evenodd" clip-rule="evenodd" fill="#C7A939" d="M98.237,39.394c2.437,0,4.836,0.15,7.195,0.436l0.034-0.032
		l0.039,0.041c29.316,3.585,52.03,28.57,52.03,58.854c0,5.031-0.629,9.916-1.809,14.58c8.304,1.05,16.607,2.055,24.91,3.003
		c1.291,0.148,3.444,0.681,3.581,2.838c0.172,2.723-2.032,6.733-3.986,8.243c-0.599,0.463-1.173,0.546-1.649,0.471l-18.994-3.018
		c0.504,0.986,0.222,2.323-0.587,3.109c-0.992,0.964-2.322,2.359-4.025,2.912c-1.614,0.523-2.653,0.304-5.452-0.271
		c-0.495,0.122-1.007,0.242-1.513,0.364c-5.652,8.708-13.526,15.84-22.82,20.593l24.454-4.896c3.222-0.646,5.169,0.564,5.366,1.931
		c0.13,0.9-0.418,2.326-1.176,3.341c2.701,0.415,5.482,0.988,5.792,3.676c7.332,0.476,3.335,7.847-0.827,8.007l-5.684,0.221
		c0.181,3.159-0.134,4.946-5.193,5.513c0.509,3.093-0.905,5.374-3.702,5.249l-28.01-1.256c-0.065,3.063-1.283,3.44-2.777,3.179
		c-1.022-0.18-2.373-0.698-3.174-0.981c0.716,1.914-0.422,3.288-1.822,2.999c-3.223-0.662-7.444-1.882-10.28-1.881
		c0.3,0.788,1.392,1.772,1.944,2.472c1.616,2.043,0.005,3.764-1.683,3.707c-2.78-0.092-8.275-0.751-9.781-1.004
		c-1.343-0.225-1.85-0.869-2.455-1.557l-0.302-0.109c-1.26,0.254-2.15,0.487-2.868,0.518c-1.095,0.046-1.877-0.198-3.702-0.067
		c-2.316,0.165-4.973,0.82-6.635,0.53c-1.399-0.244-3.1-1.354-1.963-3.475c-2.084,0.098-6.999,0.127-10.42-1.055
		c-1.691,1.856-1.732,1.969-2.874,1.754c-1.668-0.314-3.518-2.879-3.854-3.383c-0.732-1.102-0.985-2.101,0.217-3.204
		c-6.084-3.404-11.465-8.349-16.059-14.55c-4.988-6.735-7.498-14.12-10.182-20.773l-3.712,5.788c-0.349-1.61,0.295-3.6-0.024-6.483
		c-0.655-1.548-0.283-2.415-0.372-3.517c-0.208-2.571-5.305-1.279-6.71-4.729c-0.398,0.296-0.678,0.83-0.797,1.166
		c-2.596-2.605-3.108-5.56-2.742-6.975c0.699-2.701,2.903-4.778,7.894-4.009c2.351-3.114,6.999-3.039,10.986-1.781
		c4.663,1.472,8.045,4.672,12.384,7.792c-3.533-7.593-5.51-16.056-5.51-24.981C38.939,65.947,65.493,39.394,98.237,39.394
		L98.237,39.394z M153.303,112.963c1.18-4.561,1.811-9.342,1.811-14.271c0-28.065-20.339-51.388-47.078-56.032
		c1.076,1.319,2.059,2.701,2.984,4.158c0.673,1.059,1.168,2.42,1.202,3.744c4.292,0.408,8.401,1.731,12.069,4.021
		c4.552,2.843,8.042,6.93,10.421,11.719c2.729,5.495,3.887,11.656,3.945,17.761c0.004,0.464,0.002,0.625,0.014,0.951
		c0.839,0.771,1.618,1.604,2.315,2.507c2.169,2.811,3.284,5.989,3.799,9.479c0.704,4.772,0.302,10.012-0.306,14.775l-0.009,0.046
		C147.414,112.207,150.358,112.588,153.303,112.963L153.303,112.963z M142.255,111.529l0.007-0.037
		c0.58-4.547,0.983-9.61,0.312-14.167c-0.458-3.105-1.426-5.936-3.357-8.439c-0.688-0.892-1.467-1.703-2.307-2.45
		c-2.034,2.094-4.42,4.015-6.692,5.709c-3.546,2.645-7.309,5.061-11.118,7.306c-4.309,2.539-8.789,4.928-13.343,7.033
		C117.922,108.229,130.089,109.923,142.255,111.529L142.255,111.529z M101.478,105.87l0.714-0.233l1.021-0.454
		c5.038-2.243,10.001-4.86,14.751-7.659c3.74-2.204,7.436-4.575,10.917-7.172c2.599-1.938,5.394-4.206,7.535-6.683
		c-0.103-5.628-1.19-11.309-3.706-16.373c-2.194-4.417-5.403-8.193-9.604-10.816c-3.445-2.15-7.31-3.367-11.347-3.715
		c-0.094,0.184-0.202,0.36-0.327,0.531c-3.691,5.019-8.891,8.13-14.881,9.619c-3.573,0.889-7.585,1.226-11.284,0.925
		c-0.354,1.433-1.057,2.802-1.795,4.052c-4.807,8.135-16.888,12.454-25.835,14.502c-0.054,0.698-0.188,1.4-0.38,2.098
		c-1.666,6.066-1.955,12.192-0.197,18.271c1.46,5.047,4.16,9.48,7.478,13.511c1.363-2.164,2.708-4.368,4.022-6.581
		c0.937-1.577,1.975-2.793,3.464-3.648c0.926-0.532,2.155-0.702,3.411-0.683c5.887,0.093,11.623-0.131,17.951-0.124
		C96.145,105.239,98.774,105.498,101.478,105.87L101.478,105.87z M63.276,118.254l-0.328-0.396
		c-3.576-4.313-6.469-9.062-8.035-14.476c-1.874-6.478-1.588-13.018,0.188-19.483c0.381-1.389,0.534-2.858-0.14-4.18
		c-1.583-3.104-4.47-5.123-7.548-6.574c-8.404,16.681-7.995,36.843,1.099,53.172c2.034,1.17,4.326,2.242,7.02,3.102
		C58.125,126,60.729,122.213,63.276,118.254L63.276,118.254z M99.552,155.675c-1.23,0-2.48-0.068-3.802-0.247
		c-3.6-0.486-6.865-1.188-9.589-2.089c-1.981-0.655-3.495-1.355-5.196-1.84c-1.501-0.427-3.624-0.258-4.504-0.516
		c-0.813-0.239,0.581-1.611,1.829-1.719c3.396,1.788,7.031,0.985,8.354-1.612c1.572,1.467,4.146,1.59,5.904,0.242
		c0.778-0.598,1.802-1.838,1.94-3.001l0.093-0.04c3.21,1.975,5.676,0.926,7.366-0.135c1.043-0.653,1.936-1.44,2.369-2.295
		l0.176-0.048c3.737,2.2,5.227,1.396,6.587,0.431c1.46-1.037,2.264-1.638,3.941-3.526c2.371,0.79,4.247,0.144,5.949-1.521
		c0.954-0.933,2.369-2.436,2.281-3.941l11.604,3.393c1.745,0.51,3.638,0.416,5.303-0.095c-10.124,11.041-24.55,18.074-40.621,18.436
		L99.552,155.675L99.552,155.675z M74.196,157.305c0.356,0.078,0.505,0.23,0.449,0.483c-0.057,0.255-0.272,0.397-0.628,0.318
		c-0.355-0.078-0.576-0.324-0.52-0.578C73.554,157.274,73.841,157.226,74.196,157.305L74.196,157.305z M114.684,163.086
		l-0.037,1.757c-0.022,1.051-2.025,2.319-3.515,2.515c-0.576,0.075-0.673-0.807-0.16-0.878c1.036-0.146,2.313-0.851,2.323-1.489
		l0.031-1.904H114.684L114.684,163.086z M29.578,123.313c-0.051,0.315,0.109,1.028,0.627,1.185c0.59,0.178,0.876,0.539,0.391,0.729
		c-0.216,0.084-1.013,0.3-1.439-0.192c-0.348-0.401-0.587-0.71-1.036-1.202c-0.482-0.527-1.14-0.258-1.113,0.479
		c0.061,1.673,1.639,2.754,3.289,3.029c1.465,0.246,4.271-0.796,4.187-2.751c-0.015-0.338-0.256-0.654-0.587-0.558
		c-0.199,0.059-0.38,0.393-0.707,0.604c-0.253,0.162-0.6-0.106-0.761-0.644c-0.155-0.515,0.12-1.024-0.256-1.535
		C31.562,121.624,29.796,121.965,29.578,123.313L29.578,123.313z M61.651,146.621c2.146-0.996,3.923-2.284,5.642-4.065
		c6.605-6.842,11.335-13.317,17.942-20.121c3.67-3.78,7.412-8.027,11.804-11.44c0.176-0.138-0.133,0.078,0.482-0.229
		c0.109-0.054,0.386-0.051,0.273,0.332c-0.164,0.56-0.404,1.261-0.196,1.335l0.879,0.313l59.188,10.241l0.009-0.025l20.684,3.282
		c0.338,0.028,1.172,0.149,1.827-0.428c0.792-0.799,1.393-1.821,1.867-2.839c1.205-2.584,0.885-5.071-1.66-5.551
		c-26.178-2.991-52.17-6.567-78.246-10.332c-2.913-0.421-5.813-0.657-8.761-0.66c-6.373-0.007-12.026,0.158-18.4,0.216
		c-0.58,0.004-1.346,0.029-1.934,0.322c-1.504,0.747-2.735,2.357-3.289,3.291c-0.936,1.574-1.798,2.826-2.75,4.391
		c-3.248,5.335-7.193,11.488-10.583,16.013l0.015,0.007c-1.488,2.032-2.771,3.802-4.078,5.115c-0.837,0.842-1.244,1.407-2.309,1.591
		c-0.877,0.15-1.675,0.234-2.269-0.633c-0.838-0.106-2.564-0.055-3.683,0.055c-0.816,0.08-1.313,0.19-1.673,0.22
		c0.623,2.313-0.247,2.938-1.518,3.033c-1.914,0.144-3.465-1.459-5.155-2.44c-0.304-0.176-0.537-0.375-0.479,0.149
		c0.162,1.432-0.197,1.995-0.992,1.892c-1.992-0.261-3.588-2.905-5.116-2.867c1.285,3.225,2.458,6.464,3.911,9.622
		c1.64,3.563,3.52,6.963,5.858,10.12c4.244,5.73,8.938,10.938,15.586,14.239c0.716,0.354,1.512,0.66,2.287,0.851
		c0.881,0.217,2.241,0.103,3.522,0.266c1.202,0.154,2.279,0.566,1.938,1.053c-0.164,0.234-0.731,0.646-1.112,0.862
		c-0.297,0.168-0.401,0.211-0.625,0.01c-0.293-0.263-0.551-0.805-0.912-0.854c-1.322-0.18-2.53,0.026-3.859-0.098
		c-0.528-0.05-1.101,0.051-1.214,0.335c-0.148,0.373-0.18,0.509,0.145,0.996c0.573,0.861,1.843,2.459,2.85,2.704
		c0.168,0.04,0.471,0.001,0.833-0.349c0.388-0.375,0.852-1.009,1.208-1.409c0.139-0.157,0.393-0.347,0.695-0.175
		c2.965,1.692,8.694,1.235,12.013,1.355c0.346,0.012,0.536,0.529,0.399,0.847c-0.338,0.786-0.783,1.062-0.867,1.529
		c-0.108,0.602,0.433,0.982,1.639,1.192c0.742,0.13,1.003,0.01,1.753-0.044c1.329-0.095,2.622-0.357,3.954-0.466
		s2.703,0.137,4.031,0.023c0.44-0.038,1.175-0.12,1.837-0.361c1.127-0.762,1.239-1.213,0.342-1.385
		c-1.428-0.273-4.694-0.821-5.759-1.436c-0.709-0.409-0.018-0.881,0.331-0.903c3.37-0.225,7.187,0.643,10.698,0.663
		c0.811,0.004,1.718-0.058,2.471-0.438c0.203-0.103,0.336-0.544,0.111-0.577c-2.246-0.325-5.55-1.05-8.014-1.94
		c-1.051-0.38-0.586-1.387-0.166-1.315c0.797,0.138,1.371,0.35,2.036,0.213c0.941-0.193,2.061-0.369,2.782-0.662
		c1.178-0.476,0.855-0.974,0.136-1.269c-1.162-0.476-2.189-0.698-3.375-0.985c-0.96-0.233-2.296,0.059-3.686,0.205
		c-1.678,0.177-3.491,0.53-5.052,0.486c-1.39-0.04-3.12-0.106-4.713-0.878c-1.139-0.552-1.466-1.294-0.79-1.225
		c0.758,0.078,2.127,0.528,3.145,0.577c1.874,0.089,8.744,0.321,9.638-0.778c0.471-0.578,0.088-0.567-0.577-0.908
		c-0.998-0.511-2.717-0.946-4.784-1.23c-1.291-0.178-2.228-1.493-0.642-1.543c1.38-0.044,3.12,0.747,4.425,1.289
		c1.779,0.738,3.479,1.054,5.212,1.311c1.015,0.15,1.082,1.097,0.081,1.361c-0.667,0.176-1.267-0.052-1.16,0.8
		c0.054,0.433,2.376,0.892,3.376,0.742c3.252-0.485,8.028-1.01,12.213-1.655c4.167-0.643,8.274-1.834,8.695-2.962
		c0.389-1.043-0.196-1.168-2.604-1.161c-3.175,0.009-13.3,0.298-17.179-0.068c-1.895-0.18-1.403-1.578,0.092-1.565
		c6.017,0.051,9.458,0.044,14.371-0.668c2.48-0.359,4.302-3.095,7.023-4.092c1.064-0.39,4.166,0.955,6.804,0.686
		c9.529-1.429,19.06-3.001,28.589-4.751c0.785-0.144,1.517-0.236,2.256-0.46c1.169-0.657,2.215-2.077,2.019-3.842
		c-0.063-0.577-2.497-0.603-3.921-0.317l-29.797,5.407l-6.84,2.461c-3.37-0.208-5.115,0.092-6.229,0.05
		c-1.59-0.061-2.559,1.48-4.042,1.546c-1.906,0.083-8.846,0.622-10.865,0.353c-2.017-0.16-1.81-1.457-1.088-1.567
		c0.772-0.12,3.716,0.416,4.584,0.29c0.765-0.112,0.191-0.843-0.396-1.024c-0.844-0.261-2.761-0.495-4.675-0.613
		c-1.31-0.081-2.672-0.041-3.949-0.298c-1.753-0.473-3.492-1.729-5.23-2.224c-0.52-0.148-1.383-0.373-1.919-0.422
		c-0.434-0.04-1.334-0.067-1.969-0.002c-0.145,0.117-0.037,0.375,0.268,0.577c1.461,0.969,3.967,2.12,5.64,3.23
		c0.604,0.401,1.032,0.723,1.348,1.053c0.449,0.473,0.409,0.928-0.525,0.952c-1.604,0.041-4.518,0.219-7.133,0.274
		c-1.016,0.021-1.212,0.528,0.073,0.948c0.972,0.318,3.228,1.173,4.335,1.775c1.43,0.778,0.754,2.179-0.909,1.396
		c-4.789-2.254-9.75-4.799-13.144-6.631c-1.057-0.571-0.866-1.465,0.401-1.205c1.916,0.393,5.686,1.054,8.789,1.615
		c1.352,0.244,3.254,0.446,4.278,0.479c0.829,0.027,1.293-0.265,0.671-0.729c-0.429-0.319-2.714-1.479-4.152-2.2
		c-2.21-1.11-4.679-2.883-6.594-3.717c-1.478-0.644-3.77,0.235-5.39-0.075c-0.242-0.046-0.462-0.563-0.325-0.98
		c0.274-0.838,0.88-1.262,1.243-1.375c0.642-0.201,1.738,0.813,2.236,0.359c2.412-2.194,4.004-3.956,6.036-5.884
		c3.287-3.119,6.454-6.044,9.688-9.175c2.766-2.678,5.414-5.237,8.324-8.148c0.22-0.221,1.142-1.52,0.464-1.879
		c-0.468-0.247-1.302-0.114-2.085-0.313c-0.808-0.205-1.176-0.427-1.968-0.567c-1.396-0.247-2.513,0.62-3.518,1.646
		c-2.12,2.164-4.032,4.419-5.808,6.483c-3.769,4.381-7.067,8.462-11.441,12.922c-1.362,1.389-3.014,2.995-4.727,4.159
		C61.41,148.468,60.271,147.261,61.651,146.621L61.651,146.621z M157.313,124.926c-19.837-3.922-39.557-7.531-59.395-11.456
		c-2.104,0.081-6.604,4.078-3.196,4.754l57.835,11.463l-0.036,0.015c0.737,0.114,1.164,0.042,1.951-0.214
		c1.409-0.457,2.52-1.768,3.551-2.77C158.433,126.319,158.58,125.354,157.313,124.926L157.313,124.926z M144.485,131.481
		c0.561-0.981-2.609-1.697-4.82-2.197c-16.059-3.634-34.06-7.994-48.018-11.021c-1.072-0.233-3.683,2.776-2.197,3.233
		c2.396,0.738,4.94,1.39,7.576,2.243c7.357,2.381,15.428,5.253,22.987,7.65c4.873,1.547,9.933,2.875,14.821,4.301
		c1.585,0.462,2.915,0.652,4.187,0.291c0.99-0.28,1.945-0.942,2.959-1.763C142.869,133.502,143.983,132.357,144.485,131.481
		L144.485,131.481z M120.812,133.434c-8.523-2.904-16.915-6.827-25.052-8.94c-0.832-0.216-1.984,0.542-2.744,1.255
		c-0.671,0.63-1.037,1.18-0.611,1.622c1.146,1.189,3.26,1.594,5.612,2.621c2.498,1.091,5.068,2.238,7.479,3.373
		c0.788,0.37,9.668,4.573,10.263,4.801c1.321,0.505,2.67-0.111,3.951-1.363c0.342-0.334,0.96-1.006,1.508-1.637
		C122.234,133.996,121.531,133.68,120.812,133.434L120.812,133.434z M112.269,138.229c-6.973-3.342-13.38-6.726-20.144-9.463
		c-1.561-0.632-5.784,2.899-4.233,3.554c2.749,1.159,6.625,2.768,10.474,4.984c2.545,1.466,4.33,2.547,7.916,4.46
		c0.814,0.435,1.765,0.728,2.522,0.699c0.728-0.027,0.934-0.199,1.509-0.608c0.438-0.311,0.677-0.623,1.098-0.956
		c0.356-0.283,0.914-0.733,1.217-1.035C113.373,139.116,113.601,138.868,112.269,138.229L112.269,138.229z M102.355,141.281
		c-1.979-1.085-3.864-2.121-5.726-3.164c-2.904-1.627-5.712-3.315-8.619-4.798c-0.408-0.208-1.008-0.377-1.627-0.093
		c-2.479,1.137-4.205,2.864-3.205,3.447c1.645,0.958,3.371,1.671,5.113,2.718c1.719,1.033,3.461,2.328,5.774,3.749
		c0.908,0.558,1.889,1.104,2.925,1.367c1.445,0.364,2.803,0.019,4.323-0.936c0.292-0.183,0.605-0.428,0.899-0.706
		C102.827,142.281,103.301,141.799,102.355,141.281L102.355,141.281z M92.786,144.203c-0.568-0.715-1.845-1.498-3.224-2.489
		c-2.105-1.514-4.457-3.205-6.642-3.781c-0.8-0.21-1.851,0.454-2.812,1.075c-1.403,0.908-2.098,1.915-0.965,2.34
		c1.397,0.524,4.525,2.351,7.336,4.351l0.037-0.041l1.488,1.138c1.198,1.119,2.331,1.004,3.624,0.013
		C92.358,146.248,93.524,145.134,92.786,144.203L92.786,144.203z M85.238,147.105c0.414-0.991-1.016-1.436-2.613-2.5
		c-1.59-1.06-3.125-2.094-4.618-2.418c-0.813-0.178-2.049,0.192-2.93,0.795c-0.686,0.468-1.202,1.203-0.766,1.681
		c1.289,1.406,2.39,1.875,3.539,2.623c1.08,0.703,1.446,1.085,2.464,1.385c1.108,0.326,1.959,0.163,2.747,0.003
		C84.008,148.48,84.864,148.001,85.238,147.105L85.238,147.105z M76.516,148.8c0.232-0.43-0.091-0.841-0.401-1.261
		c-0.648-0.875-1.969-1.329-2.601-1.477c-0.457-0.107-1.873,0.412-2.65,1.038c-0.407,0.329-0.634,0.601-0.385,0.958
		c0.279,0.402,1.135,0.692,1.744,0.923C73.563,149.489,75.983,149.781,76.516,148.8L76.516,148.8z M154.455,153.279l-36.279,5.346
		l-4.162,0.577c-0.797,0.11-1.602,0.873-2.432,1.536c-0.684,0.548-0.941,0.939-0.21,1.028c0.243,0.029,0.739-0.027,1.177-0.053
		c14.838-0.848,30.098-2.672,45.154-5.73c0.197-0.642,0.022-1.165-0.241-1.461C156.857,153.844,155.602,153.495,154.455,153.279
		L154.455,153.279z M159.591,157.15c-0.446-0.095-0.964-0.1-1.307-0.056c-7.359,0.951-14.72,2.094-22.081,3.072
		c-6.099,0.811-12.383,1.257-18.295,2.25c-0.868,0.146-1.515,0.881-1.938,1.533c-0.423,0.651-0.461,1.168,0.62,1.123
		c12.115-0.506,23.415-1.853,35.18-2.593c2.454-0.154,4.869-0.325,7.376-0.445c0.701-0.153,1.378-0.467,2.012-1.182
		c0.561-0.632,1.199-1.641,0.949-2.597c-0.141-0.351-0.322-0.557-0.542-0.568c-0.282-0.015-0.771,0.273-1.26,0.021
		C159.903,157.501,159.816,157.309,159.591,157.15L159.591,157.15z M151.594,163.917c-10.108,0.849-23.588,1.455-32.479,2.303
		c-1.999,0.19-2.183,0.026-3.393,0.576c-0.402,0.182-0.863,0.269-1.511,0.595c-0.802,0.402-0.232,0.749,1.526,0.702
		c1.505-0.04,3.859-0.234,6.667-0.108c4.289,0.193,9.423,0.084,14.488,0.357c3.893,0.211,8.021-0.036,11.11-0.472l-0.038,0.083
		c1.154-0.13,2.843-0.373,3.396-1.378C151.692,165.976,151.646,164.772,151.594,163.917L151.594,163.917z M145.728,169.758
		c-6.281-0.131-12.441-0.233-18.643-0.236c-2.919-0.001-5.847-0.173-8.801,0.01c-1.751,0.108-3.119,0.824-4.761,1.382
		c-2.517,0.855-5.13,1.63-7.553,2.071c-2.716,0.496-7.506,1.485-9.743,1.241c-1.547-0.17-0.283-1.395,0.919-1.564
		c2.121-0.3,5.431,0.07,7.96-0.419c3.904-0.754,7.445-1.949,8.836-2.781c0.39-0.233,0.721-0.585,0.71-0.712
		c-0.078-0.919-8.536,0.017-15.528,1.058c-1.613,0.241-3.108,0.403-4.484,0.862c-0.364,0.121-2.009,1.238-2.63,2.113
		c-0.372,0.525-0.051,0.917,0.193,0.967c0.599,0.12,1.731,0.17,2.483,0.39c0.586,0.172,0.94,0.415,0.635,1.081
		c-0.593,1.288-3.155,2.635-5.331,2.992c-1.666,0.272-2.559,0.528-2.479,1.576c0.384,0.494,0.831,0.622,1.551,0.742
		c3.15,0.529,5.961,0.963,9.155,1.068c0.35,0.012,1.04-0.03,1.246-0.336c0.275-0.408-0.108-1.006-0.357-1.321
		c-0.618-0.781-1.193-1.399-1.7-2.16c-0.442-0.665-1.292-2.167-0.214-2.571c0.239-0.09,0.568,0.006,1.006-0.029
		c2.025-0.163,4.19,0.423,6.173,0.871c1.403,0.317,2.684,0.822,4.093,1.113c0.872,0.179,0.754-0.54,0.51-1.075
		c-0.515-1.13-1.389-1.665-1.494-1.956c-0.284-0.782,0.45-0.78,1.664-0.478c1.729,0.431,2.428,0.859,4.245,1.444
		c0.233,0.074,0.724,0.213,0.958,0.112c0.512-0.22,0.329-1.673,0.349-2.175c0.026-0.682,0.405-1.179,1.726-1.12l27.851,1.243
		c1.396,0.063,2.271-0.703,2.233-1.755C146.48,170.735,146.203,170.114,145.728,169.758L145.728,169.758z M28.081,134.199
		c0.438-0.152,1.579,1.096,2.786,2.214c1.138,1.056,2.381,1.919,2.703,1.884c0.628-0.068,0.161-2.023-0.193-3.752
		c-0.285-1.388-0.302-2.695,0.034-2.834c0.405-0.167,1.174,0.402,1.528,0.928c0.641,0.953,1.136,1.983,1.867,2.914
		c0.396,0.502,0.794,0.932,1.18,1.209c1.693,1.214,3.045,1.229,3.089,1.176c0.069-0.084-0.113-0.247-0.313-0.524
		c-0.306-0.422-0.885-0.942-1.374-1.58c-0.764-0.994-1.213-2.227-0.768-2.546c0.537-0.387,1.413,0.199,2.025,1.015
		c0.368,0.489,0.619,0.911,0.988,1.4c1.883,0.174,4.045,0.146,5.987,0.12c-0.053-0.16-0.053-0.319,0-0.479
		c-0.718-0.385-2.138-0.883-3.187-1.503c-0.925-0.548-1.603-1.363-1.384-1.81c0.213-0.433,1.682-0.069,2.837,0.605
		c0.74,0.433,1.229,0.755,1.854,1.191c0.762,0.03,2.605,0.044,3.723,0.023c0.483-0.441,0.807-0.749,1.308-1.301
		c-0.938-0.517-2.246-0.887-3.252-1.192c-1.006-0.307-2.51-0.911-3.52-1.02c-2.599-0.281-5.576,0.206-8.277-0.344
		c-3.01-0.613-3.656-2.159-2.356-1.995c3.127,0.395,6.268,0.851,9.541,0.878c0-0.605-0.129-0.588-0.699-0.79
		c-2.698-0.956-5.468-1.656-8.123-3.241c-1.185,1.184-3.135,4.061-5.708,3.712c-1.355-0.185-2.414-1.152-3.307-2.127
		c-0.603-0.658-1.132-1.379-1.439-2.012c-0.308-0.632-0.489-1.157-0.603-1.609c-1.259-0.984-2.105-1.184-3.271-1.387
		c-0.973-0.17-1.993-0.188-2.977-0.29c-0.598-0.063-0.697-1.054,0.141-1.078c1.044-0.031,1.251-0.032,2.314-0.04
		c0.328-0.002,0.801-0.71,0.124-1.024c-2.251-0.311-5.192-0.432-6.545,1.72c-1.274,2.028-0.441,3.99,0.668,5.571
		c1.339-3.274,3.314-3.225,3.888-3.229c1.499-0.014,3.115,0.932,4.198,1.968c0.439,0.421,0.403,1.918-0.392,1.634
		c-1.081-0.388-2.09-0.841-3.248-0.861c-0.475-0.008-0.879,0.093-1.233,0.305c-0.83,0.492-0.589,1.114-0.315,1.622
		c0.219,0.406,1.186,0.793,1.601,0.962c1.841,0.75,4.721,0.683,4.928,3.238c0.109,1.357-0.283,2.773,0.229,3.683
		c0.146,0.954,0.104,1.32,0.092,1.725l2.82-3.201L28.081,134.199L28.081,134.199z M22.994,117.817
		c-0.504,0.664-0.523,1.287-0.393,1.742c0.155,0.54,0.584,0.883,0.909,1.015c1.879,0.758,5.211-0.481,7.152,0.097
		c2.739,0.817,6.066,3.409,9.12,4.751c3.57,1.57,6.371,1.253,6.401,3.256c0.639,0,0.759-0.04,1.397-0.04
		c1.297,0.232,0.6,1.197,1.351,1.486c1.007,0.389,3.201,0.373,3.719,0.469c0.252,0.047,0.359-0.291,0.373-0.704
		c-3.43-1.299-6.454-2.974-9.508-5.191c-2.765-2.007-5.72-4.516-8.715-6.157c-1.06-0.581-1.92-0.99-3.072-1.354
		C29.004,116.327,25.292,115.808,22.994,117.817L22.994,117.817z M104.64,42.176c-2.102-0.235-4.237-0.36-6.402-0.36
		c-9.131,0-17.759,2.155-25.405,5.982c4.622,2.471,9.527,6.235,12.015,10.765c0.537,0.977,0.699,1.997,0.687,3.056
		c3.435,0.27,7.169-0.05,10.479-0.873c5.481-1.362,10.238-4.179,13.619-8.774c0.783-1.065,0.139-2.949-0.499-3.954
		C107.8,45.919,106.346,43.984,104.64,42.176L104.64,42.176z M70.42,49.078c-9.211,5.177-16.836,12.844-21.96,22.089
		c3.508,1.669,6.687,3.994,8.493,7.537c0.239,0.469,0.411,0.947,0.525,1.432c8.252-1.929,19.703-5.991,24.068-13.381
		c0.752-1.272,1.551-2.808,1.698-4.291c0.095-0.953,0.117-1.96-0.358-2.825c-2.476-4.508-7.767-8.255-12.286-10.473L70.42,49.078
		L70.42,49.078z"/>
	<path fill-rule="evenodd" clip-rule="evenodd" fill="#C7A939" d="M98.464,5.403c51.388,0,93.062,41.674,93.062,93.062
		s-41.674,93.062-93.062,93.062S5.402,149.853,5.402,98.465S47.076,5.403,98.464,5.403L98.464,5.403z M98.464,8.105
		c49.896,0,90.36,40.464,90.36,90.359c0,49.896-40.465,90.36-90.36,90.36S8.104,148.361,8.104,98.465
		C8.104,48.569,48.568,8.105,98.464,8.105L98.464,8.105z"/>
	<path fill-rule="evenodd" clip-rule="evenodd" fill="#C7A939" d="M12.301,87.852l5.667-24.394c1.176-0.286,5.001,0.534,6.772,1.737
		l-4.09,17.163c0.189,0.065,0.636,0.177,0.888,0.197l3.89-16.257c1.103-3.334,4.379-6.852,11.444-4.787
		c3.808,1.113,6.856,4.025,5.721,8.913l-5.333,22.07L12.301,87.852L12.301,87.852z M28.512,84.086
		c0.956,0.299,2.112,0.44,3.325,0.513l3.276-14.278c0.202-0.881-0.422-1.778-1.417-1.99c-0.799-0.171-1.42,0.113-1.632,0.992
		L28.512,84.086L28.512,84.086z"/>
	<path fill-rule="evenodd" clip-rule="evenodd" fill="#FFFFFF" d="M14.556,86.376l21.309,3.965l4.915-20.345
		c0.82-3.543-1.15-5.737-4.43-6.696c-2.07-0.604-4.558-0.904-6.521,0.204c-1.278,0.721-2.141,1.939-2.609,3.31l-4.242,17.733
		c-1.649-0.139-2.95-0.433-4.532-0.975l4.146-17.397c-1.001-0.402-2.082-0.68-3.146-0.844L14.556,86.376L14.556,86.376z
		 M26.311,85.265l3.942-16.378c0.441-1.833,2.011-2.768,3.833-2.379c1.938,0.414,3.31,2.271,2.84,4.244l-3.877,15.767
		C31.167,86.482,28.37,86.012,26.311,85.265L26.311,85.265z"/>
	<path fill-rule="evenodd" clip-rule="evenodd" fill="#C7A939" d="M57.498,19.588l-4.172,32.313
		c-0.061,0.47,0.389,0.829,0.866,0.521l7.174-4.646c0.264-0.172,0.845-0.87,0.861-1.607l0.112-4.975
		c0.012-0.482,0.189-1.039,0.79-1.191c5.612-1.418,9.813-3.226,13.528-5.963c0.465-0.343,1.691-0.088,2.149,0.272l4.091,3.219
		c0.33,0.261,0.985,0.206,1.486,0.034c2.544-0.873,4.829-1.665,7.124-3.037c0.403-0.241,0.772-0.757,0.214-1.132L65.386,15.712
		c-0.526-0.353-0.538-0.371-1.126-0.182c-1.646,0.532-5.12,2.172-6.161,3.113C57.822,18.894,57.546,19.219,57.498,19.588
		L57.498,19.588z M64.138,25.106c-0.223,1.956-0.5,4.496-0.583,6.768c-0.007,0.177,0.238,0.305,0.366,0.27
		c2.194-0.604,4.218-1.629,6.188-2.919c0.223-0.146,0.08-0.491-0.063-0.603c-2.109-1.64-4.214-3.215-5.233-3.83
		C64.6,24.664,64.165,24.859,64.138,25.106L64.138,25.106z"/>
	<path fill-rule="evenodd" clip-rule="evenodd" fill="#FFFFFF" d="M59.279,20.359l-3.394,26.977
		c-0.061,0.478,0.101,1.331,1.023,0.805c0.955-0.545,1.891-1.175,2.636-1.983c0.372-0.403,0.613-0.875,0.651-1.422l0.346-4.906
		c0.067-0.971,0.176-1.784,1.234-2.052c2.239-0.495,5.358-1.108,7.987-2.2c2.549-1.06,4.686-2.616,6.604-4.03
		c1.183-0.871,1.902-0.059,3.019,0.82l3.995,2.69c0.27,0.182,0.642,0.286,1.369,0.088c0.899-0.245,1.863-0.591,2.532-1.071
		c0.52-0.373,0.918-0.888,0.597-1.104L64.946,17.513c-0.233-0.155-0.563-0.181-0.826-0.081c-1.376,0.524-3.612,1.7-4.587,2.441
		C59.311,20.043,59.313,20.087,59.279,20.359L59.279,20.359z M62.521,22.922c0.097-1.09,1.218-1.311,1.938-0.824
		c1.942,1.31,6.001,4.155,8.36,5.802c0.858,0.698,1.029,1.024-1.451,2.642c-2.089,1.362-5.223,2.875-7.634,3.539
		c-3.101,0.706-2.191-0.597-2.21-1.973C61.813,29.711,62.148,25.308,62.521,22.922L62.521,22.922z"/>
	<path fill-rule="evenodd" clip-rule="evenodd" fill="#C7A939" d="M137.227,18.25l-19.415-0.058
		c-2.892-0.009-5.16,4.398-3.703,6.612l14.009,21.28c0.208,0.374,1.879-0.571,3.429-1.84s2.979-2.861,2.751-3.213l-9.476-14.652
		l13.22,0.09c1.929,0.014,3.458-2.05,3.393-4.305C141.358,19.55,138.884,18.255,137.227,18.25L137.227,18.25z"/>
	<path fill-rule="evenodd" clip-rule="evenodd" fill="#FFFFFF" d="M128.585,43.219c0.286,0.439,3.647-2.052,3.453-2.354
		l-10.606-16.492l16.1-0.007c1.394-0.045,1.994-1.479,2.035-2.192c0.092-1.586-1.316-2.139-2.034-2.176l-19.771-0.025
		c-1.725-0.086-2.685,2.716-1.595,4.11C119.951,30.665,124.446,36.84,128.585,43.219L128.585,43.219z"/>
	<polygon fill-rule="evenodd" clip-rule="evenodd" points="156.321,107.586 162.178,114.721 155.044,113.868 156.321,107.586 	"/>
	<path fill-rule="evenodd" clip-rule="evenodd" fill="#C7A939" d="M174.765,57.328c-8.19,3.264-16.787,6.731-24.978,9.994
		c0.539,1.221,1.079,2.44,1.618,3.661c0.419,0.949,0.829,1.897,1.259,2.847c0.336,0.744,0.861,0.426,1.179,0.294l6.95-2.9
		l3.553,2.676c0.483,0.364,0.4,0.886,0.117,1.252l-7.48,9.662c-0.324,3.011,1.03,6.818,2.029,8.63l8.893-10.853
		c0.844-1.03,1.616-1.97,2.459-2.999c0.313-0.381,0.459-0.506,0.84-0.194l7.377,6.05c1.573,1.291,3.548,0.54,4.533-0.731
		c1.309-1.688,1.725-4.231-0.301-5.864l-13.405-10.809c2.514-1.551,4.915-2.165,8.095-3.412c0.411-0.161,0.493-0.492,0.434-0.93
		C177.706,62.01,176.201,59.331,174.765,57.328L174.765,57.328z"/>
	<path fill-rule="evenodd" clip-rule="evenodd" fill="#FFFFFF" d="M173.911,59.427c-7.281,2.904-14.45,5.732-21.729,8.638
		c0.297,0.717,0.945,2.396,1.415,3.044c0.424,0.585,0.859,0.698,1.327,0.523c1.901-0.707,3.326-1.626,5.712-2.598
		c0.341-0.14,0.771-0.047,1.063,0.18l3.971,3.095c1.702,1.424,1.159,2.569,0.206,3.801l-7.035,8.812
		c-0.028,0.886,0.011,1.848,0.228,3.03c0.294,1.609,1.015,1.175,1.269,0.867c2.955-3.572,6.253-7.717,9.171-11.279
		c0.948-1.158,1.478-1.121,2.674-0.087l7.581,6.555c0.628,0.516,1.441,0.132,1.879-0.433c0.754-0.973,1.105-2.584,0-3.476
		l-16.01-12.813c2.987-1.526,6.23-2.644,9.566-3.884c0.341-0.127,0.49-0.135,0.33-0.646
		C175.327,62.113,174.631,60.265,173.911,59.427L173.911,59.427z"/>
	<path fill-rule="evenodd" clip-rule="evenodd" fill="#CBA831" d="M98.744,17.372c2.561,0,4.638,2.076,4.638,4.638
		s-2.077,4.638-4.638,4.638c-2.562,0-4.639-2.076-4.639-4.638S96.183,17.372,98.744,17.372L98.744,17.372z"/>
	<path fill-rule="evenodd" clip-rule="evenodd" fill="#FFFFFF" d="M98.744,19.22c1.54,0,2.789,1.25,2.789,2.79
		s-1.249,2.79-2.789,2.79c-1.541,0-2.79-1.25-2.79-2.79S97.203,19.22,98.744,19.22L98.744,19.22z"/>
	<path fill-rule="evenodd" clip-rule="evenodd" fill="#C7A939" d="M98.744,17.372c2.561,0,4.638,2.076,4.638,4.638
		s-2.077,4.638-4.638,4.638c-2.562,0-4.639-2.076-4.639-4.638S96.183,17.372,98.744,17.372L98.744,17.372z"/>
	<path fill-rule="evenodd" clip-rule="evenodd" fill="#FFFFFF" d="M98.744,19.22c1.54,0,2.789,1.25,2.789,2.79
		s-1.249,2.79-2.789,2.79c-1.541,0-2.79-1.25-2.79-2.79S97.203,19.22,98.744,19.22L98.744,19.22z"/>
	<path fill-rule="evenodd" clip-rule="evenodd" fill="#C7A939" d="M43.008,42.811c2.561,0,4.638,2.077,4.638,4.638
		c0,2.562-2.077,4.639-4.638,4.639c-2.562,0-4.639-2.077-4.639-4.639C38.369,44.888,40.446,42.811,43.008,42.811L43.008,42.811z"/>
	<path fill-rule="evenodd" clip-rule="evenodd" fill="#FFFFFF" d="M43.008,44.659c1.54,0,2.79,1.249,2.79,2.789
		c0,1.541-1.25,2.79-2.79,2.79s-2.79-1.249-2.79-2.79C40.218,45.908,41.468,44.659,43.008,44.659L43.008,44.659z"/>
	<path fill-rule="evenodd" clip-rule="evenodd" fill="#C7A939" d="M151.009,42.044c2.561,0,4.638,2.077,4.638,4.638
		c0,2.562-2.077,4.639-4.638,4.639c-2.562,0-4.639-2.077-4.639-4.639C146.37,44.121,148.447,42.044,151.009,42.044L151.009,42.044z"
		/>
	<path fill-rule="evenodd" clip-rule="evenodd" fill="#FFFFFF" d="M151.009,43.893c1.54,0,2.789,1.249,2.789,2.789
		c0,1.541-1.249,2.79-2.789,2.79c-1.541,0-2.79-1.249-2.79-2.79C148.219,45.142,149.468,43.893,151.009,43.893L151.009,43.893z"/>
	<polygon fill="#C7A939" points="27.716,110.275 25.297,110.275 25.297,99.208 27.716,99.208 27.716,103.829 32.259,99.208 
		35.712,99.208 30.464,103.979 35.705,110.275 32.51,110.275 28.963,105.46 27.716,106.529 27.716,110.275 	"/>
	<path fill-rule="evenodd" clip-rule="evenodd" fill="#C7A939" d="M15.889,110.271v-1.504c-2.596,0-5.061-1.626-4.982-4.274
		c0.077-2.647,2.532-4.113,4.982-4.113v-1.188l2.451,0.002v1.218c2.45,0,4.906,1.465,4.983,4.033s-2.388,4.354-4.983,4.354v1.475
		L15.889,110.271L15.889,110.271z M18.34,107.327v-5.405c1.582,0,2.742,1.142,2.755,2.685
		C21.107,106.15,19.929,107.327,18.34,107.327L18.34,107.327z M15.889,107.295v-5.405c-1.581,0-2.741,1.142-2.754,2.686
		C13.122,106.118,14.3,107.295,15.889,107.295L15.889,107.295z"/>
	<path fill-rule="evenodd" clip-rule="evenodd" fill="#C7A939" d="M69.719,87.635c1.72-1.146,3.711-1.82,5.973-2.025l5.719,16.859
		c-1.786,1.28-3.854,1.729-6.05,1.799L69.719,87.635L69.719,87.635z"/>
	<path fill-rule="evenodd" clip-rule="evenodd" fill="#FFFFFF" d="M71.292,88.211l4.983,14.694c1.252-0.117,2.688-0.606,3.466-1.297
		l-4.942-14.571C73.568,87.242,72.391,87.621,71.292,88.211L71.292,88.211z"/>
	<path fill-rule="evenodd" clip-rule="evenodd" fill="#C7A939" d="M88.25,80.38c-2.294,3.097-4.588,6.193-6.882,9.289l6.667,5.115
		l-1.354,1.851c0.831,0.997,3.229,2.643,5.548,3.683l7.516-11.148c0.127-0.188,1.56-0.082,2.084,0.178l8.821,4.386
		c2.144-3.706,5.092-9.215,5.772-11.442l-11.645-5.871l-5.121,10.377c-0.231,0.468-0.774,1.216-1.232,0.967
		C94.643,85.7,91.697,82.261,88.25,80.38L88.25,80.38z"/>
	<path fill-rule="evenodd" clip-rule="evenodd" fill="#FFFFFF" d="M88.762,82.343c-1.894,1.765-4.032,4.792-5.582,7.072
		c2.209,2.044,4.238,3.308,6.547,5.023l-1.275,1.826c0.855,0.84,2.39,1.837,3.339,2.262l6.546-9.399
		C96.251,87.725,90.296,83.331,88.762,82.343L88.762,82.343z M100.775,87.423c1.271,1.114,6.236,3.459,9.378,4.417
		c1.672-2.969,3-5.864,4.324-9.004l-8.859-4.536C103.943,79.848,102.08,83.941,100.775,87.423L100.775,87.423z"/>
	<path fill-rule="evenodd" clip-rule="evenodd" fill="#C7A939" d="M111.585,72.129l0.126,0.474c0.055,0.202,0.119,0.4,0.185,0.598
		c0.559,1.685,1.386,3.197,2.175,4.451c0.724-0.256,0.835-0.517,1.318-0.797c0.033-0.02,0.516-0.302,0.428,0.349l-0.414,3.073
		c-0.04,0.298,2.099,1.68,3.051,2.413c0.148,0.114,0.181,0.296-0.107,0.424l-1.978,0.882c0.395,1.496,1.338,3.782,2.407,5.232
		c2.713-1.032,5.088-2.327,7.626-3.366c1.877-0.768,2.022-2.39,0.774-3.804c-1.698-1.927-3.526-2.944-5.159-4.152
		c-0.755-0.558-0.002-3.024,0.596-5.767c0.561-2.572-1.815-3.335-2.912-2.931C116.897,70.242,114.323,71.088,111.585,72.129
		L111.585,72.129z"/>
	<path fill-rule="evenodd" clip-rule="evenodd" fill="#FFFFFF" d="M114.686,75.851l0.823-0.476c0.35-0.202,0.683-0.363,0.892-0.444
		c1.795-0.694,1.123,1.019,0.957,2.312c-0.11,0.867-0.712,2.186-0.396,2.664c0.215,0.325,0.919,0.754,1.548,1.208
		c0.669,0.482,1.268,0.989,1.613,1.256c0.969,0.745-0.229,1.313-1.282,1.854l-0.865,0.375c0.34,0.964,0.778,2.156,1.384,2.998
		c2.135-1.041,4.308-2.024,6.549-2.942c0.933-0.381,0.67-1.189,0.084-1.771c-1.402-1.62-3.041-2.729-4.75-3.929
		c-0.983-0.727-0.896-2.141-0.739-3.213c0.09-0.615,0.321-2.039,0.607-3.401c0.224-1.068,0.091-1.973-1.044-1.836
		c-2.309,0.852-4.357,1.476-6.661,2.341C113.753,73.864,114.155,74.909,114.686,75.851L114.686,75.851z"/>
</g>
</svg>
