<svg xmlns="http://www.w3.org/2000/svg" xmlns:xlink="http://www.w3.org/1999/xlink" width="388" height="568" fill-rule="evenodd"><rect id="backgroundrect" width="100%" height="100%" x="0" y="0" fill="none" stroke="none" class=""/>

<g class="currentLayer"><title>Layer 1</title><g id="svg_1" class="">
<path style="stroke:none; fill:#1f211d" d="M136.65600000000015,156.38399237060412 C137.66400000000016,149.32799237060414 139.53600000000017,142.0559923706041 142.34400000000016,134.42399237060408 C143.13600000000017,132.40799237060412 145.87200000000016,131.7599923706041 147.45600000000016,133.2719923706041 L156.81600000000014,142.0559923706041 L168.4800000000002,126.21599237060411 C169.48800000000017,124.77599237060411 171.86400000000015,124.5599923706041 173.16000000000014,125.7839923706041 L178.9200000000002,131.25599237060413 L184.75200000000018,115.70399237060411 C185.47200000000015,113.8319923706041 187.9200000000002,113.03999237060407 189.50400000000013,114.26399237060411 C190.44000000000017,114.91199237060414 189.4320000000002,114.19199237060411 190.29600000000016,114.83999237060414 C191.37600000000015,115.63199237060411 192.52800000000013,116.49599237060409 193.82400000000018,117.21599237060411 C195.12000000000018,116.49599237060409 196.27200000000016,115.63199237060411 197.35200000000015,114.83999237060414 C198.21600000000018,114.19199237060411 197.20800000000014,114.91199237060414 198.14400000000018,114.26399237060411 C199.72800000000018,113.03999237060407 202.17600000000016,113.8319923706041 202.89600000000019,115.70399237060411 L208.72800000000018,131.25599237060413 L214.48800000000017,125.7839923706041 C215.78400000000016,124.5599923706041 218.16000000000014,124.77599237060411 219.16800000000018,126.21599237060411 L230.83200000000016,142.0559923706041 L240.19200000000018,133.2719923706041 C241.77600000000018,131.7599923706041 244.51200000000017,132.40799237060412 245.30400000000014,134.42399237060408 C248.11200000000014,142.0559923706041 249.98400000000015,149.32799237060414 250.9920000000002,156.38399237060412 C329.97600000000017,180.86399237060408 387.64800000000014,254.6639923706041 387.64800000000014,341.4959923706041 C387.64800000000014,431.9999923706041 325.00800000000015,508.31999237060415 240.91200000000015,529.4879923706042 L196.27200000000016,566.4959923706041 C195.04800000000017,567.5039923706041 192.60000000000014,567.5039923706041 191.37600000000015,566.4959923706041 L146.73600000000016,529.4879923706042 C62.64000000000016,508.31999237060415 1.7053025658242404e-13,431.9999923706041 1.7053025658242404e-13,341.4959923706041 C1.7053025658242404e-13,254.6639923706041 57.67200000000017,180.86399237060408 136.65600000000015,156.38399237060412 z" id="svg_2"/>
<path style="stroke:none; fill:#ffffff" d="M222.84000000000015,221.9759923706041 C233.49600000000015,209.8799923706041 240.69600000000014,197.27999237060413 243.86400000000015,183.59999237060413 C246.81600000000014,170.6399923706041 246.09600000000017,156.59999237060413 240.98400000000015,141.1199923706041 L232.56000000000017,149.03999237060412 C231.33600000000018,150.26399237060411 228.96000000000015,150.0479923706041 227.88000000000017,148.6799923706041 L216.21600000000018,132.76799237060413 L209.59200000000016,139.0319923706041 C208.00800000000015,140.5439923706041 205.27200000000016,139.89599237060412 204.4800000000002,137.8799923706041 L198.4320000000002,121.67999237060411 C197.42400000000015,122.32799237060414 196.34400000000016,122.9759923706041 195.04800000000017,123.55199237060413 C194.54400000000015,123.76799237060413 193.10400000000016,123.76799237060413 192.60000000000014,123.55199237060413 C191.30400000000014,122.9759923706041 190.22400000000016,122.32799237060414 189.21600000000018,121.67999237060411 L183.16800000000018,137.8799923706041 C182.37600000000015,139.89599237060412 179.64000000000016,140.5439923706041 178.05600000000015,139.0319923706041 L171.4320000000002,132.76799237060413 L159.76800000000014,148.6799923706041 C158.68800000000016,150.0479923706041 156.31200000000018,150.26399237060411 155.08800000000014,149.03999237060412 L146.66400000000016,141.1199923706041 C141.55200000000016,156.59999237060413 140.83200000000016,170.6399923706041 143.78400000000016,183.59999237060413 C146.95200000000017,197.27999237060413 154.15200000000016,209.8799923706041 164.80800000000016,221.9759923706041 C174.16800000000018,219.67199237060413 183.88800000000015,218.5199923706041 193.82400000000018,218.5199923706041 C203.76000000000016,218.5199923706041 213.4800000000002,219.67199237060413 222.84000000000015,221.9759923706041 z" id="svg_3"/>
<path style="stroke:none; fill:#ffffff" d="M135.93600000000015,173.01599237060412 C135.79200000000017,170.35199237060408 135.79200000000017,167.6159923706041 135.86400000000017,164.8079923706041 C61.63200000000015,189.28799237060412 7.848000000000155,259.3439923706041 7.848000000000155,341.4959923706041 C7.848000000000155,428.3279923706041 67.89600000000016,501.6239923706041 148.60800000000017,521.9279923706041 C149.76000000000016,522.2159923706041 150.48000000000016,522.4319923706041 151.41600000000017,523.2239923706042 L193.82400000000018,558.4319923706041 L236.23200000000014,523.2239923706042 C237.16800000000018,522.4319923706041 237.88800000000015,522.2159923706041 239.04000000000013,521.9279923706041 C319.7520000000002,501.6239923706041 379.8000000000002,428.3279923706041 379.8000000000002,341.4959923706041 C379.8000000000002,259.3439923706041 326.01600000000013,189.28799237060412 251.78400000000016,164.8079923706041 C251.85600000000017,167.6159923706041 251.85600000000017,170.35199237060408 251.71200000000016,173.01599237060412 C321.55200000000013,197.13599237060413 372.02400000000017,263.6639923706041 372.02400000000017,341.4959923706041 C372.02400000000017,428.3279923706041 309.3120000000002,501.0479923706041 226.80000000000018,516.5999923706041 L226.80000000000018,520.9919923706041 L218.44800000000015,527.9039923706041 L218.44800000000015,462.0239923706041 C217.36800000000017,462.2399923706041 216.36000000000018,462.4559923706041 215.28000000000014,462.67199237060413 L215.28000000000014,530.4959923706041 L206.85600000000017,537.4079923706041 L206.85600000000017,463.82399237060406 C205.84800000000018,463.96799237060407 204.84000000000015,464.03999237060407 203.76000000000016,464.11199237060407 L203.76000000000016,539.9999923706041 L195.33600000000018,546.9839923706041 L195.33600000000018,464.5439923706041 C194.83200000000016,464.5439923706041 194.32800000000015,464.5439923706041 193.82400000000018,464.5439923706041 C193.32000000000016,464.5439923706041 192.81600000000014,464.5439923706041 192.31200000000018,464.5439923706041 L192.31200000000018,546.9839923706041 L183.88800000000015,539.9999923706041 L183.88800000000015,464.11199237060407 C182.80800000000016,464.03999237060407 181.80000000000018,463.96799237060407 180.79200000000014,463.82399237060406 L180.79200000000014,537.4079923706041 L172.36800000000017,530.4959923706041 L172.36800000000017,462.67199237060413 C171.28800000000018,462.4559923706041 170.28000000000014,462.2399923706041 169.20000000000016,462.0239923706041 L169.20000000000016,527.9039923706041 L160.84800000000018,520.9919923706041 L160.84800000000018,516.5999923706041 C78.33600000000015,501.0479923706041 15.624000000000166,428.3279923706041 15.624000000000166,341.4959923706041 C15.624000000000166,263.6639923706041 66.09600000000017,197.13599237060413 135.93600000000015,173.01599237060412 z" id="svg_4"/>
<path style="stroke:none; fill:#ffffff" d="M136.87200000000016,181.0079923706041 C70.92000000000016,204.47999237060412 23.47200000000015,267.69599237060413 23.47200000000015,341.4959923706041 C23.47200000000015,424.00799237060414 82.65600000000015,493.19999237060415 160.84800000000018,508.60799237060405 L160.84800000000018,460.00799237060414 C109.00800000000015,445.53599237060416 70.77600000000015,397.79999237060406 70.77600000000015,341.4959923706041 C70.77600000000015,286.1279923706041 107.71200000000016,239.18399237060413 158.18400000000014,223.77599237060411 C147.88800000000015,211.6079923706041 140.90400000000017,198.86399237060408 137.73600000000016,184.96799237060412 C137.37600000000015,183.67199237060413 137.16000000000017,182.30399237060413 136.87200000000016,181.0079923706041 z" id="svg_5"/>
<path style="stroke:none; fill:#ffffff" d="M229.46400000000017,223.77599237060411 C279.93600000000015,239.18399237060413 316.8720000000002,286.1279923706041 316.8720000000002,341.4959923706041 C316.8720000000002,397.79999237060406 278.64000000000016,445.53599237060416 226.80000000000018,460.00799237060414 L226.80000000000018,508.60799237060405 C304.9920000000002,493.19999237060415 364.17600000000016,424.00799237060414 364.17600000000016,341.4959923706041 C364.17600000000016,267.69599237060413 316.7280000000002,204.47999237060412 250.77600000000018,181.0079923706041 C250.48800000000017,182.30399237060413 250.27200000000016,183.67199237060413 249.91200000000015,184.96799237060412 C246.74400000000014,198.86399237060408 239.76000000000016,211.6079923706041 229.46400000000017,223.77599237060411 z" id="svg_6"/>
<path style="stroke:none; fill:#ffffff" d="M193.82400000000018,456.69599237060413 C257.25600000000014,456.69599237060413 309.02400000000017,404.9279923706041 309.02400000000017,341.4959923706041 C309.02400000000017,278.0639923706041 257.25600000000014,226.2959923706041 193.82400000000018,226.2959923706041 C130.39200000000017,226.2959923706041 78.62400000000017,278.0639923706041 78.62400000000017,341.4959923706041 C78.62400000000017,404.9279923706041 130.39200000000017,456.69599237060413 193.82400000000018,456.69599237060413 z" id="svg_7"/>
<path style="stroke:none; fill:#1f211d" d="M193.82400000000018,448.91999237060406 C252.93600000000015,448.91999237060406 301.24800000000016,400.67999237060405 301.24800000000016,341.4959923706041 C301.24800000000016,282.3839923706041 252.93600000000015,234.1439923706041 193.82400000000018,234.1439923706041 C134.71200000000016,234.1439923706041 86.40000000000015,282.3839923706041 86.40000000000015,341.4959923706041 C86.40000000000015,400.67999237060405 134.71200000000016,448.91999237060406 193.82400000000018,448.91999237060406 z" id="svg_8"/>
<path style="stroke:none; fill:#ffffff" d="M193.82400000000018,406.15199237060415 C229.39200000000017,406.15199237060415 258.4800000000002,377.1359923706041 258.4800000000002,341.4959923706041 C258.4800000000002,305.8559923706041 229.39200000000017,276.83999237060414 193.82400000000018,276.83999237060414 C158.25600000000014,276.83999237060414 129.16800000000015,305.8559923706041 129.16800000000015,341.4959923706041 C129.16800000000015,377.1359923706041 158.25600000000014,406.15199237060415 193.82400000000018,406.15199237060415 z" id="svg_9"/>
<path style="stroke:none; fill:#ca222c" d="M193.82400000000018,276.9119923706041 L179.28000000000014,320.9039923706041 L132.69600000000017,320.9039923706041 L169.84800000000018,348.1919923706041 L154.72800000000018,392.8319923706041 L193.82400000000018,365.6159923706041 L232.9200000000002,392.8319923706041 L217.80000000000018,348.1919923706041 L254.95200000000017,320.9039923706041 L208.36800000000017,320.9039923706041 L193.82400000000018,276.9119923706041 z" id="svg_10"/>
<path style="stroke:none; fill:#ffffff" d="M116.85600000000017,342.0719923706041 L98.13600000000017,340.4159923706041 L99.21600000000015,327.5999923706041 L102.38400000000016,327.81599237060414 L101.59200000000016,336.8879923706041 L106.05600000000015,337.3199923706041 L106.77600000000015,329.4719923706041 L109.94400000000016,329.7599923706041 L109.22400000000016,337.6079923706041 L117.21600000000015,338.25599237060413 L116.85600000000017,342.0719923706041 z" id="svg_11"/>
<path style="stroke:none; fill:#ffffff" d="M104.76000000000016,305.8559923706041 L106.56000000000017,302.5439923706041 L115.56000000000017,307.2959923706041 C117.00000000000017,308.0879923706041 117.93600000000015,308.5199923706041 118.44000000000017,308.6639923706041 C119.16000000000017,308.8799923706041 119.88000000000017,308.8079923706041 120.60000000000016,308.5199923706041 C121.32000000000016,308.15999237060413 121.89600000000016,307.5839923706041 122.40000000000015,306.64799237060413 C122.90400000000017,305.6399923706041 123.12000000000018,304.8479923706041 122.97600000000017,304.1279923706041 C122.83200000000016,303.4799923706041 122.47200000000015,302.9039923706041 121.96800000000016,302.5439923706041 C121.46400000000017,302.1119923706041 120.52800000000016,301.5359923706041 119.23200000000017,300.8879923706041 L110.01600000000016,295.9919923706041 L111.81600000000017,292.6079923706041 L120.60000000000016,297.2879923706041 C122.54400000000015,298.2959923706041 123.91200000000015,299.15999237060413 124.63200000000015,299.8079923706041 C125.35200000000017,300.3839923706041 125.92800000000017,301.1039923706041 126.21600000000015,301.8959923706041 C126.50400000000016,302.6879923706041 126.64800000000017,303.5519923706041 126.50400000000016,304.5599923706041 C126.43200000000016,305.5679923706041 126.00000000000017,306.71999237060413 125.35200000000017,308.0159923706041 C124.48800000000017,309.5999923706041 123.62400000000017,310.7519923706041 122.83200000000016,311.32799237060414 C122.04000000000016,311.9759923706041 121.24800000000016,312.4079923706041 120.38400000000016,312.5519923706041 C119.52000000000015,312.69599237060413 118.80000000000015,312.69599237060413 118.08000000000015,312.4799923706041 C117.00000000000017,312.1919923706041 115.48800000000017,311.6159923706041 113.68800000000016,310.6079923706041 L104.76000000000016,305.8559923706041 z" id="svg_12"/>
<path style="stroke:none; fill:#ffffff" d="M125.56800000000015,274.2479923706041 L130.89600000000016,269.7839923706041 C132.12000000000018,268.7759923706041 133.05600000000015,268.1279923706041 133.84800000000016,267.76799237060413 C134.92800000000017,267.2639923706041 136.00800000000015,267.1199923706041 137.16000000000017,267.2639923706041 C138.31200000000015,267.4079923706041 139.39200000000017,267.76799237060413 140.47200000000015,268.4159923706041 C141.55200000000016,269.0639923706041 142.70400000000015,270.0719923706041 143.85600000000017,271.4399923706041 C144.79200000000017,272.6639923706041 145.51200000000017,273.81599237060414 145.94400000000016,274.8959923706041 C146.44800000000015,276.2639923706041 146.66400000000016,277.5599923706041 146.52000000000015,278.7119923706041 C146.44800000000015,279.64799237060413 146.08800000000016,280.5839923706041 145.51200000000017,281.5919923706041 C145.00800000000015,282.3839923706041 144.21600000000015,283.17599237060415 143.13600000000017,283.9679923706041 L137.66400000000016,288.5759923706041 L125.56800000000015,274.2479923706041 L125.56800000000015,274.2479923706041 zM130.53600000000017,274.2479923706041 L138.52800000000016,283.8239923706041 L140.68800000000016,281.9519923706041 C141.55200000000016,281.30399237060413 142.05600000000015,280.7279923706041 142.34400000000016,280.3679923706041 C142.70400000000015,279.8639923706041 142.99200000000016,279.2879923706041 143.06400000000016,278.7839923706041 C143.13600000000017,278.20799237060413 142.99200000000016,277.5599923706041 142.63200000000015,276.76799237060413 C142.27200000000016,275.9039923706041 141.62400000000017,274.9679923706041 140.68800000000016,273.81599237060414 C139.75200000000015,272.7359923706041 138.96000000000015,271.9439923706041 138.24000000000015,271.5119923706041 C137.59200000000016,271.0799923706041 136.87200000000016,270.8639923706041 136.29600000000016,270.79199237060413 C135.64800000000017,270.79199237060413 135.00000000000017,270.9359923706041 134.35200000000017,271.2959923706041 C133.84800000000016,271.5119923706041 133.05600000000015,272.15999237060413 131.83200000000016,273.1679923706041 L130.53600000000017,274.2479923706041 z" id="svg_13"/>
<path style="stroke:none; fill:#ffffff" d="M157.10400000000016,253.2239923706041 L164.30400000000014,250.91999237060412 C165.67200000000014,250.4879923706041 166.75200000000018,250.1999923706041 167.54400000000015,250.0559923706041 C168.26400000000018,249.98399237060408 168.98400000000015,249.98399237060408 169.63200000000018,250.1999923706041 C170.28000000000014,250.4159923706041 170.92800000000017,250.77599237060411 171.50400000000013,251.27999237060413 C172.08000000000015,251.7839923706041 172.44000000000017,252.35999237060412 172.72800000000018,253.1519923706041 C173.01600000000013,254.01599237060412 173.01600000000013,254.8799923706041 172.80000000000018,255.67199237060413 C172.58400000000017,256.5359923706041 172.15200000000016,257.25599237060413 171.4320000000002,257.8319923706041 C172.65600000000018,257.8319923706041 173.66400000000016,258.1199923706041 174.52800000000013,258.69599237060413 C175.32000000000016,259.2719923706041 175.89600000000019,260.0639923706041 176.25600000000014,261.0719923706041 C176.54400000000015,261.8639923706041 176.61600000000016,262.7279923706041 176.47200000000015,263.6639923706041 C176.32800000000015,264.5279923706041 176.04000000000013,265.3199923706041 175.53600000000017,265.9679923706041 C175.03200000000015,266.6879923706041 174.31200000000018,267.1919923706041 173.37600000000015,267.6239923706041 C172.80000000000018,267.9119923706041 171.36000000000018,268.4159923706041 169.05600000000015,269.13599237060413 L162.93600000000015,271.1519923706041 L157.10400000000016,253.2239923706041 L157.10400000000016,253.2239923706041 zM161.71200000000016,255.0239923706041 L163.08000000000015,259.1999923706041 L165.4560000000002,258.4079923706041 C166.82400000000018,257.9759923706041 167.68800000000016,257.6879923706041 168.04800000000017,257.4719923706041 C168.62400000000014,257.25599237060413 169.05600000000015,256.8959923706041 169.27200000000016,256.3919923706041 C169.56000000000017,255.88799237060408 169.56000000000017,255.38399237060412 169.34400000000016,254.8079923706041 C169.20000000000016,254.23199237060413 168.91200000000015,253.87199237060412 168.4800000000002,253.5839923706041 C168.04800000000017,253.3679923706041 167.54400000000015,253.2959923706041 166.89600000000019,253.4399923706041 C166.53600000000017,253.5119923706041 165.52800000000013,253.79999237060412 163.80000000000018,254.37599237060408 L161.71200000000016,255.0239923706041 L161.71200000000016,255.0239923706041 zM164.01600000000013,262.1519923706041 L165.60000000000014,266.9759923706041 L168.91200000000015,265.8959923706041 C170.20800000000014,265.4639923706041 171.07200000000017,265.17599237060415 171.36000000000018,264.9599923706041 C171.86400000000015,264.67199237060413 172.22400000000016,264.3119923706041 172.44000000000017,263.8079923706041 C172.65600000000018,263.30399237060413 172.65600000000018,262.7279923706041 172.44000000000017,262.1519923706041 C172.29600000000016,261.5759923706041 172.00800000000015,261.2159923706041 171.64800000000014,260.8559923706041 C171.21600000000018,260.5679923706041 170.78400000000016,260.4239923706041 170.20800000000014,260.4239923706041 C169.70400000000018,260.4239923706041 168.62400000000014,260.7119923706041 166.9680000000002,261.2159923706041 L164.01600000000013,262.1519923706041 z" id="svg_14"/>
<path style="stroke:none; fill:#ffffff" d="M209.52000000000015,265.9679923706041 L205.41600000000017,265.6799923706041 L204.04800000000017,261.2879923706041 L196.56000000000017,260.7839923706041 L194.68800000000016,264.9599923706041 L190.72800000000018,264.67199237060413 L199.29600000000016,246.38399237060412 L203.32800000000015,246.67199237060413 L209.52000000000015,265.9679923706041 L209.52000000000015,265.9679923706041 zM203.04000000000013,258.0479923706041 L200.95200000000017,250.91999237060412 L197.92800000000017,257.6879923706041 L203.04000000000013,258.0479923706041 z" id="svg_15"/>
<path style="stroke:none; fill:#ffffff" d="M222.91200000000015,270.5759923706041 L231.4080000000002,253.94399237060412 L234.79200000000014,255.67199237060413 L227.73600000000016,269.4239923706041 L236.16000000000014,273.74399237060413 L234.72000000000014,276.5519923706041 L222.91200000000015,270.5759923706041 z" id="svg_16"/>
<path style="stroke:none; fill:#ffffff" d="M250.12800000000016,280.5119923706041 L252.86400000000015,283.1039923706041 C252.07200000000017,284.0399923706041 251.71200000000016,284.9759923706041 251.71200000000016,285.83999237060414 C251.71200000000016,286.7039923706041 252.07200000000017,287.6399923706041 252.86400000000015,288.5039923706041 C253.65600000000018,289.4399923706041 254.44800000000015,289.9439923706041 255.24000000000018,290.0879923706041 C256.03200000000015,290.23199237060413 256.6800000000002,290.0159923706041 257.18400000000014,289.5839923706041 C257.54400000000015,289.2959923706041 257.76000000000016,288.9359923706041 257.83200000000016,288.5759923706041 C257.90400000000017,288.1439923706041 257.76000000000016,287.6399923706041 257.54400000000015,286.9919923706041 C257.40000000000015,286.5599923706041 256.8960000000002,285.6239923706041 256.17600000000016,284.1119923706041 C255.24000000000018,282.3119923706041 254.73600000000016,280.8719923706041 254.73600000000016,279.71999237060413 C254.80800000000016,278.20799237060413 255.38400000000019,276.9119923706041 256.46400000000017,275.9759923706041 C257.18400000000014,275.32799237060414 258.0480000000002,274.9679923706041 259.05600000000015,274.8239923706041 C259.9920000000002,274.6799923706041 261.00000000000017,274.8239923706041 262.00800000000015,275.32799237060414 C263.01600000000013,275.8319923706041 264.02400000000017,276.6239923706041 264.96000000000015,277.7039923706041 C266.47200000000015,279.5039923706041 267.2640000000002,281.15999237060413 267.2640000000002,282.74399237060413 C267.2640000000002,284.25599237060413 266.61600000000016,285.6239923706041 265.39200000000017,286.8479923706041 L262.7280000000002,284.0399923706041 C263.37600000000015,283.3919923706041 263.66400000000016,282.67199237060413 263.66400000000016,281.9519923706041 C263.59200000000016,281.30399237060413 263.23200000000014,280.5119923706041 262.51200000000017,279.71999237060413 C261.79200000000014,278.9279923706041 261.0720000000002,278.4239923706041 260.35200000000015,278.20799237060413 C259.8480000000002,278.13599237060413 259.41600000000017,278.20799237060413 259.05600000000015,278.4959923706041 C258.69600000000014,278.8559923706041 258.55200000000013,279.2159923706041 258.55200000000013,279.71999237060413 C258.55200000000013,280.3679923706041 258.98400000000015,281.5199923706041 259.9200000000002,283.17599237060415 C260.78400000000016,284.7599923706041 261.3600000000002,286.1279923706041 261.57600000000014,287.0639923706041 C261.79200000000014,288.0719923706041 261.79200000000014,289.0079923706041 261.50400000000013,289.9439923706041 C261.2160000000002,290.8079923706041 260.64000000000016,291.67199237060413 259.7040000000002,292.4639923706041 C258.91200000000015,293.18399237060413 257.97600000000017,293.6159923706041 256.8240000000002,293.7599923706041 C255.74400000000014,293.9039923706041 254.66400000000016,293.7599923706041 253.58400000000017,293.18399237060413 C252.50400000000013,292.6799923706041 251.42400000000015,291.81599237060414 250.41600000000017,290.5919923706041 C248.83200000000016,288.79199237060413 248.04000000000013,287.0639923706041 248.04000000000013,285.3359923706041 C248.04000000000013,283.7519923706041 248.76000000000016,282.0959923706041 250.12800000000016,280.5119923706041 z" id="svg_17"/>
<path style="stroke:none; fill:#ffffff" d="M263.44800000000015,308.8079923706041 L281.30400000000014,302.6159923706041 L282.52800000000013,306.2159923706041 L274.6080000000002,308.9519923706041 L285.0480000000002,313.4879923706041 L286.7040000000002,318.3119923706041 L277.41600000000017,313.9919923706041 L268.9920000000002,324.79199237060413 L267.4080000000002,320.18399237060413 L274.10400000000016,312.4079923706041 L270.0720000000002,310.5359923706041 L264.74400000000014,312.3359923706041 L263.44800000000015,308.8079923706041 z" id="svg_18"/>
<path style="stroke:none; fill:#ffffff" d="M270.2160000000002,338.3999923706041 L289.00800000000015,337.7519923706041 L289.15200000000016,341.5679923706041 L270.2880000000002,342.2159923706041 L270.2160000000002,338.3999923706041 z" id="svg_19"/>
<path style="stroke:none; fill:#ffffff" d="M143.35200000000017,422.6399923706041 L152.20800000000017,406.00799237060414 L155.59200000000016,407.8079923706041 L151.63200000000015,415.22399237060415 L162.36000000000018,411.4079923706041 L166.89600000000019,413.8559923706041 L157.17600000000016,416.9519923706041 L158.40000000000015,430.63199237060405 L154.00800000000015,428.3279923706041 L153.57600000000014,418.10399237060415 L149.40000000000015,419.3999923706041 L146.73600000000016,424.43999237060416 L143.35200000000017,422.6399923706041 z" id="svg_20"/>
<path style="stroke:none; fill:#ffffff" d="M172.44000000000017,434.5199923706041 L175.9680000000002,416.1599923706041 L179.71200000000016,416.8799923706041 L176.76000000000016,432.0719923706041 L186.04800000000017,433.87199237060406 L185.40000000000015,437.03999237060407 L172.44000000000017,434.5199923706041 z" id="svg_21"/>
<path style="stroke:none; fill:#ffffff" d="M197.85600000000017,418.31999237060415 L201.60000000000014,417.81599237060414 L203.04000000000013,427.89599237060406 C203.25600000000014,429.5519923706041 203.47200000000015,430.55999237060416 203.61600000000016,430.99199237060407 C203.83200000000016,431.7839923706041 204.33600000000018,432.2879923706041 204.98400000000015,432.71999237060413 C205.70400000000018,433.07899237060406 206.56800000000015,433.15199237060415 207.57600000000014,433.00799237060414 C208.65600000000018,432.86399237060414 209.44800000000015,432.5759923706041 209.95200000000017,432.0719923706041 C210.38400000000019,431.5679923706041 210.67200000000014,430.91999237060406 210.67200000000014,430.27199237060415 C210.67200000000014,429.6239923706041 210.60000000000014,428.6159923706041 210.38400000000019,427.10399237060415 L208.9440000000002,416.8079923706041 L212.68800000000016,416.2319923706041 L214.05600000000015,426.0239923706041 C214.41600000000017,428.3279923706041 214.48800000000017,429.91199237060414 214.41600000000017,430.84799237060406 C214.34400000000016,431.7839923706041 214.12800000000016,432.64799237060413 213.62400000000014,433.36799237060416 C213.19200000000018,434.08799237060407 212.54400000000015,434.6639923706041 211.68000000000018,435.1679923706041 C210.81600000000014,435.67199237060413 209.66400000000016,436.03199237060414 208.15200000000016,436.24799237060415 C206.35200000000015,436.46399237060416 204.98400000000015,436.46399237060416 204.04800000000017,436.17599237060415 C203.04000000000013,435.88799237060414 202.24800000000016,435.4559923706041 201.60000000000014,434.8799923706041 C201.02400000000017,434.3039923706041 200.52000000000015,433.65599237060405 200.30400000000014,433.00799237060414 C199.87200000000018,431.9279923706041 199.51200000000017,430.41599237060416 199.22400000000016,428.3279923706041 L197.85600000000017,418.31999237060415 z" id="svg_22"/>
<path style="stroke:none; fill:#ffffff" d="M222.04800000000017,413.1359923706041 L228.74400000000014,409.60799237060405 C230.04000000000013,408.95999237060414 231.04800000000017,408.4559923706041 231.76800000000014,408.2399923706041 C232.48800000000017,408.0239923706041 233.13600000000014,407.8799923706041 233.85600000000017,408.0239923706041 C234.57600000000014,408.0959923706041 235.22400000000016,408.3119923706041 235.87200000000018,408.67199237060413 C236.52000000000015,409.10399237060415 237.02400000000017,409.67999237060405 237.38400000000019,410.3999923706041 C237.81600000000014,411.1199923706041 237.96000000000015,411.98399237060414 237.88800000000015,412.84799237060406 C237.81600000000014,413.7119923706041 237.52800000000013,414.5039923706041 237.02400000000017,415.22399237060415 C238.17600000000016,415.00799237060414 239.18400000000014,415.07899237060406 240.12000000000018,415.51199237060416 C241.05600000000015,415.87199237060406 241.77600000000018,416.5919923706041 242.28000000000014,417.5279923706041 C242.71200000000016,418.31999237060415 242.92800000000017,419.11199237060407 242.92800000000017,420.0479923706041 C242.92800000000017,420.91199237060414 242.78400000000016,421.77599237060406 242.42400000000015,422.4959923706041 C241.9920000000002,423.2879923706041 241.41600000000017,423.93599237060414 240.55200000000013,424.51199237060416 C240.04800000000017,424.87199237060406 238.68000000000018,425.5919923706041 236.59200000000016,426.74399237060413 L230.90400000000017,429.76799237060413 L222.04800000000017,413.1359923706041 L222.04800000000017,413.1359923706041 zM226.87200000000018,414.1439923706041 L228.96000000000015,417.95999237060414 L231.12000000000018,416.8079923706041 C232.48800000000017,416.08799237060407 233.28000000000014,415.65599237060405 233.56800000000015,415.43999237060416 C234.07200000000017,415.07899237060406 234.4320000000002,414.64799237060413 234.57600000000014,414.1439923706041 C234.72000000000014,413.6399923706041 234.64800000000014,413.1359923706041 234.36000000000018,412.55999237060416 C234.14400000000018,412.05599237060414 233.78400000000016,411.69599237060413 233.28000000000014,411.5519923706041 C232.84800000000018,411.4079923706041 232.34400000000016,411.4079923706041 231.76800000000014,411.6239923706041 C231.4080000000002,411.76799237060413 230.40000000000015,412.27199237060415 228.81600000000014,413.1359923706041 L226.87200000000018,414.1439923706041 L226.87200000000018,414.1439923706041 zM230.40000000000015,420.76799237060413 L232.77600000000018,425.1599923706041 L235.87200000000018,423.5759923706041 C237.09600000000017,422.9279923706041 237.81600000000014,422.4959923706041 238.10400000000016,422.2079923706041 C238.60800000000017,421.84799237060406 238.89600000000019,421.41599237060416 239.04000000000013,420.91199237060414 C239.11200000000014,420.4079923706041 239.04000000000013,419.8319923706041 238.75200000000018,419.2559923706041 C238.46400000000017,418.75199237060406 238.10400000000016,418.39199237060416 237.67200000000014,418.17599237060415 C237.24000000000018,417.95999237060414 236.80800000000016,417.88799237060414 236.23200000000014,417.95999237060414 C235.65600000000018,418.03199237060414 234.64800000000014,418.46399237060416 233.13600000000014,419.3279923706041 L230.40000000000015,420.76799237060413 z" id="svg_23"/>
<path style="stroke:none; fill:#1f211d" d="M274.39200000000017,484.84799237060406 L263.37600000000015,465.76799237060413 L272.37600000000015,460.15199237060415 L285.1920000000002,478.36799237060416 L296.85600000000017,470.4479923706041 L273.0960000000002,440.7839923706041 L264.52800000000013,446.9039923706041 L268.7760000000002,453.3839923706041 L259.9920000000002,458.9999923706041 L256.17600000000016,452.01599237060407 L246.31200000000018,457.84799237060406 L261.79200000000014,492.0479923706041 L274.39200000000017,484.84799237060406 z" id="svg_24"/>
<path style="stroke:none; fill:#1f211d" d="M302.04000000000013,407.8079923706041 L296.64000000000016,414.2879923706041 L300.02400000000017,419.4719923706041 L291.74400000000014,429.3359923706041 L285.62400000000014,427.82399237060406 L276.91200000000015,437.9039923706041 L315.2880000000002,452.08799237060407 L322.7040000000002,443.7359923706041 L302.04000000000013,407.8079923706041 L302.04000000000013,407.8079923706041 zM299.37600000000015,431.4239923706041 L299.37600000000015,431.4239923706041 L303.62400000000014,425.8079923706041 L307.6560000000002,434.08799237060407 L299.37600000000015,431.4239923706041 z" id="svg_25"/>
<path style="stroke:none; fill:#1f211d" d="M350.13600000000014,395.2079923706041 L342.93600000000015,391.17599237060415 L335.52000000000015,406.22399237060415 L329.47200000000015,396.1439923706041 L322.7040000000002,399.0239923706041 L324.72000000000014,403.55999237060416 C324.72000000000014,403.55999237060416 314.42400000000015,405.79199237060413 314.42400000000015,396.79199237060413 C314.42400000000015,389.3759923706041 327.02400000000017,388.29599237060415 327.02400000000017,388.29599237060415 L326.52000000000015,385.55999237060416 C326.52000000000015,385.55999237060416 306.3600000000002,383.11199237060407 305.64000000000016,400.82399237060406 C304.9920000000002,418.39199237060416 325.6560000000002,416.3759923706041 325.6560000000002,416.3759923706041 L332.85600000000017,429.4079923706041 L350.13600000000014,395.2079923706041 z" id="svg_26"/>
<path style="stroke:none; fill:#1f211d" d="M357.76800000000014,364.0319923706041 L334.22400000000016,362.23199237060413 L342.50400000000013,373.2479923706041 L355.32000000000016,376.77599237060406 L352.8000000000002,388.29599237060415 L315.79200000000014,376.12799237060415 L317.08800000000014,368.0639923706041 L325.8720000000002,368.7119923706041 L319.6080000000002,360.2159923706041 L320.25600000000014,349.6319923706041 L358.48800000000017,350.0639923706041 L357.76800000000014,364.0319923706041 z" id="svg_27"/>
<path style="stroke:none; fill:#1f211d" d="M320.76000000000016,324.4319923706041 L348.3360000000002,321.3359923706041 L347.68800000000016,311.3999923706041 L357.3360000000002,310.7519923706041 L359.56800000000015,344.23199237060413 L350.35200000000015,344.23199237060413 L349.7040000000002,333.64799237060413 L320.97600000000017,333.8639923706041 L320.76000000000016,324.4319923706041 z" id="svg_28"/>
<path style="stroke:none; fill:#1f211d" d="M254.73600000000016,228.59999237060413 L272.95200000000017,195.55199237060413 L306.64800000000014,219.1679923706041 L281.44800000000015,248.11199237060413 L272.66400000000016,241.1279923706041 L290.88000000000017,216.86399237060408 L280.5840000000002,209.44799237060408 L263.44800000000015,234.43199237060412 L254.73600000000016,228.59999237060413 z" id="svg_29"/>
<path style="stroke:none; fill:#1f211d" d="M322.9920000000002,237.59999237060413 L283.6800000000002,250.6319923706041 L288.64800000000014,256.2479923706041 L294.0480000000002,254.6639923706041 L302.76000000000016,265.17599237060415 L299.88000000000017,270.5759923706041 L307.51200000000017,281.3759923706041 L330.4080000000002,245.8799923706041 L322.9920000000002,237.59999237060413 L322.9920000000002,237.59999237060413 zM306.1440000000002,258.2639923706041 L306.1440000000002,258.2639923706041 L301.6800000000002,252.64799237060413 L309.96000000000015,250.1279923706041 L306.1440000000002,258.2639923706041 z" id="svg_30"/>
<path style="stroke:none; fill:#1f211d" d="M352.00800000000015,286.4879923706041 L342.0720000000002,265.2479923706041 L308.59200000000016,283.8239923706041 L312.91200000000015,293.18399237060413 L318.74400000000014,290.5199923706041 C318.74400000000014,290.5199923706041 325.00800000000015,301.3199923706041 326.80800000000016,304.4879923706041 C328.8240000000002,307.7999923706041 334.6560000000002,313.4159923706041 345.67200000000014,308.30399237060413 C359.85600000000017,301.5359923706041 352.00800000000015,286.4879923706041 352.00800000000015,286.4879923706041 L352.00800000000015,286.4879923706041 zM338.25600000000014,295.7039923706041 L338.25600000000014,295.7039923706041 C329.25600000000014,299.30399237060413 326.59200000000016,289.6559923706041 326.59200000000016,289.6559923706041 L340.27200000000016,283.8239923706041 C340.27200000000016,283.8239923706041 345.88800000000015,292.5359923706041 338.25600000000014,295.7039923706041 z" id="svg_31"/>
<path style="stroke:none; fill:#1f211d" d="M57.38400000000016,247.5359923706041 L51.26400000000015,256.8959923706041 L76.46400000000017,289.6559923706041 L80.92800000000017,282.5999923706041 L76.89600000000016,277.8479923706041 L83.73600000000016,266.9759923706041 L90.00000000000017,267.76799237060413 L97.63200000000015,256.6799923706041 L57.38400000000016,247.5359923706041 L57.38400000000016,247.5359923706041 zM72.43200000000016,272.23199237060413 L72.43200000000016,272.23199237060413 L67.46400000000017,264.5279923706041 L76.17600000000016,266.1119923706041 L72.43200000000016,272.23199237060413 z" id="svg_32"/>
<path style="stroke:none; fill:#1f211d" d="M67.39200000000017,363.8879923706041 L40.17600000000016,369.0719923706041 L41.54400000000015,378.93599237060414 L31.824000000000154,380.5199923706041 L27.144000000000148,347.25599237060413 L36.14400000000015,346.3919923706041 L37.94400000000016,357.1199923706041 L66.45600000000016,354.4559923706041 L67.39200000000017,363.8879923706041 z" id="svg_33"/>
<path style="stroke:none; fill:#1f211d" d="M107.20800000000017,434.4479923706041 L101.95200000000017,436.39199237060416 L92.30400000000017,426.5279923706041 L95.11200000000017,421.19999237060415 L86.54400000000015,410.9039923706041 L66.45600000000016,448.27199237060415 L74.37600000000015,455.8319923706041 L112.68000000000015,439.77599237060406 L107.20800000000017,434.4479923706041 L107.20800000000017,434.4479923706041 zM86.32800000000017,442.15199237060415 L86.32800000000017,442.15199237060415 L89.71200000000016,433.87199237060406 L94.53600000000017,439.19999237060415 L86.32800000000017,442.15199237060415 z" id="svg_34"/>
<path style="stroke:none; fill:#1f211d" d="M130.46400000000017,451.51199237060416 L127.08000000000015,457.19999237060415 C127.08000000000015,457.19999237060415 115.63200000000015,452.2319923706041 112.46400000000017,450.86399237060414 C108.86400000000017,449.2799923706041 100.80000000000015,448.41599237060416 95.18400000000017,459.1439923706041 C87.76800000000017,472.89599237060406 103.24800000000016,480.3119923706041 103.24800000000016,480.3119923706041 L123.69600000000017,491.3279923706041 L139.46400000000017,456.4799923706041 L130.46400000000017,451.51199237060416 L130.46400000000017,451.51199237060416 zM113.83200000000016,475.34399237060416 L113.83200000000016,475.34399237060416 C113.83200000000016,475.34399237060416 104.18400000000017,471.74399237060413 108.43200000000016,464.7599923706041 C113.40000000000015,456.4799923706041 121.46400000000017,462.5279923706041 121.46400000000017,462.5279923706041 L113.83200000000016,475.34399237060416 z" id="svg_35"/>
<path style="stroke:none; fill:#1f211d" d="M79.27200000000016,396.5039923706041 L73.22400000000016,399.1679923706041 C73.22400000000016,399.1679923706041 72.28800000000015,397.36799237060416 70.92000000000016,395.1359923706041 L75.67200000000017,388.36799237060416 L70.99200000000016,374.4719923706041 L63.28800000000015,382.75199237060406 C60.40800000000016,379.87199237060406 55.00800000000015,377.3519923706041 46.44000000000017,381.3839923706041 C32.32800000000017,388.15199237060415 40.17600000000016,403.19999237060415 40.17600000000016,403.19999237060415 L50.04000000000016,424.58399237060416 L83.52000000000015,405.93599237060414 L79.27200000000016,396.5039923706041 L79.27200000000016,396.5039923706041 zM51.840000000000174,405.93599237060414 L51.840000000000174,405.93599237060414 C51.840000000000174,405.93599237060414 46.22400000000016,397.15199237060415 53.856000000000165,393.98399237060414 C62.856000000000165,390.3839923706041 65.59200000000016,400.10399237060415 65.59200000000016,400.10399237060415 L51.840000000000174,405.93599237060414 z" id="svg_36"/>
<path style="stroke:none; fill:#1f211d" d="M65.59200000000016,326.5919923706041 L27.864000000000175,323.9279923706041 L27.144000000000148,337.6079923706041 L65.37600000000015,337.6079923706041 L65.59200000000016,326.5919923706041 z" id="svg_37"/>
<path style="stroke:none; fill:#1f211d" d="M37.29600000000016,317.15999237060413 L42.19200000000015,299.3759923706041 L67.60800000000017,321.4079923706041 L75.67200000000017,292.6799923706041 L67.60800000000017,288.8639923706041 L64.44000000000017,299.6639923706041 L39.096000000000174,277.4879923706041 L28.51200000000017,315.1439923706041 L37.29600000000016,317.15999237060413 z" id="svg_38"/>
<path style="stroke:none; fill:#1f211d" d="M96.76800000000017,206.13599237060413 L109.08000000000015,198.71999237060413 L128.66400000000016,231.0479923706041 L122.61600000000016,236.23199237060413 L100.15200000000016,235.2959923706041 L108.00000000000017,246.52799237060412 L100.58400000000017,253.5119923706041 L72.28800000000015,228.31199237060412 L81.72000000000017,218.8799923706041 L108.64800000000017,223.6319923706041 L96.76800000000017,206.13599237060413 z" id="svg_39"/>
<path style="stroke:none; fill:#929a77" d="M118.44000000000017,1.5839923706041077 C117.93600000000015,-0.000007629395895492053 117.07200000000017,-0.000007629395895492053 116.56800000000015,1.5839923706041077 L105.04800000000017,37.00799237060414 C104.54400000000015,38.59199237060409 102.81600000000017,39.88799237060414 101.16000000000017,39.88799237060414 L63.864000000000175,39.88799237060414 C62.20800000000017,39.88799237060414 61.99200000000016,40.67999237060411 63.28800000000015,41.61599237060409 L93.45600000000016,63.575992370604126 C94.82400000000015,64.5119923706041 95.47200000000015,66.59999237060413 94.96800000000016,68.18399237060407 L83.44800000000015,103.60799237060411 C82.94400000000016,105.19199237060411 83.59200000000016,105.69599237060413 84.96000000000015,104.68799237060409 L115.12800000000016,82.79999237060412 C116.42400000000015,81.79199237060413 118.58400000000017,81.79199237060413 119.95200000000017,82.79999237060412 L150.12000000000018,104.68799237060409 C151.41600000000017,105.69599237060413 152.13600000000017,105.19199237060411 151.63200000000015,103.60799237060411 L140.11200000000017,68.18399237060407 C139.60800000000017,66.59999237060413 140.25600000000017,64.5119923706041 141.55200000000016,63.575992370604126 L171.72000000000014,41.61599237060409 C173.08800000000014,40.67999237060411 172.80000000000018,39.88799237060414 171.14400000000018,39.88799237060414 L133.92000000000016,39.88799237060414 C132.26400000000015,39.88799237060414 130.46400000000017,38.59199237060409 129.96000000000015,37.00799237060414 L118.44000000000017,1.5839923706041077 z" id="svg_40"/>
<path style="stroke:none; fill:#929a77" d="M269.20800000000014,1.5839923706041077 C269.71200000000016,-0.000007629395895492053 270.57600000000014,-0.000007629395895492053 271.08000000000015,1.5839923706041077 L282.60000000000014,37.00799237060414 C283.10400000000016,38.59199237060409 284.83200000000016,39.88799237060414 286.48800000000017,39.88799237060414 L323.78400000000016,39.88799237060414 C325.44000000000017,39.88799237060414 325.6560000000002,40.67999237060411 324.3600000000002,41.61599237060409 L294.1920000000002,63.575992370604126 C292.8240000000002,64.5119923706041 292.17600000000016,66.59999237060413 292.6800000000002,68.18399237060407 L304.20000000000016,103.60799237060411 C304.7040000000002,105.19199237060411 304.05600000000015,105.69599237060413 302.68800000000016,104.68799237060409 L272.52000000000015,82.79999237060412 C271.22400000000016,81.79199237060413 269.06400000000014,81.79199237060413 267.69600000000014,82.79999237060412 L237.52800000000013,104.68799237060409 C236.23200000000014,105.69599237060413 235.51200000000017,105.19199237060411 236.01600000000013,103.60799237060411 L247.53600000000017,68.18399237060407 C248.04000000000013,66.59999237060413 247.39200000000017,64.5119923706041 246.09600000000017,63.575992370604126 L215.92800000000017,41.61599237060409 C214.56000000000017,40.67999237060411 214.84800000000018,39.88799237060414 216.50400000000013,39.88799237060414 L253.72800000000018,39.88799237060414 C255.38400000000019,39.88799237060414 257.18400000000014,38.59199237060409 257.68800000000016,37.00799237060414 L269.20800000000014,1.5839923706041077 z" id="svg_41"/>
<path style="stroke:none; fill:#ca222c" d="M167.11200000000014,214.0559923706041 C158.76000000000016,203.8319923706041 153.07200000000017,193.2479923706041 150.48000000000016,182.08799237060413 C148.53600000000017,173.37599237060408 148.39200000000017,164.08799237060413 150.33600000000015,154.0789923706041 L150.33600000000015,154.0789923706041 L160.63200000000018,164.44799237060408 C160.20000000000016,181.6559923706041 162.64800000000014,197.9999923706041 169.84800000000018,213.47999237060412 C168.91200000000015,213.69599237060413 168.04800000000017,213.83999237060414 167.11200000000014,214.0559923706041 z" id="svg_42"/>
<path style="stroke:none; fill:#ca222c" d="M173.66400000000016,212.8319923706041 C162.72000000000014,190.2239923706041 162.21600000000018,167.18399237060413 170.20800000000014,142.5599923706041 L180.50400000000013,152.13599237060413 C176.32800000000015,172.5839923706041 177.33600000000018,191.8799923706041 182.30400000000014,211.7519923706041 C179.42400000000015,212.03999237060412 176.54400000000015,212.39999237060408 173.66400000000016,212.8319923706041 z" id="svg_43"/>
<path style="stroke:none; fill:#ca222c" d="M186.12000000000018,211.4639923706041 C179.06400000000014,184.1039923706041 180.21600000000018,162.1439923706041 190.87200000000018,135.79199237060413 C190.9440000000002,161.13599237060413 191.30400000000014,186.26399237060411 191.95200000000017,211.2479923706041 C190.00800000000015,211.3199923706041 188.06400000000014,211.3919923706041 186.12000000000018,211.4639923706041 z" id="svg_44"/>
<path style="stroke:none; fill:#ca222c" d="M220.53600000000017,214.0559923706041 C228.88800000000015,203.8319923706041 234.57600000000014,193.2479923706041 237.16800000000018,182.08799237060413 C239.11200000000014,173.37599237060408 239.25600000000014,164.08799237060413 237.31200000000018,154.0789923706041 L237.31200000000018,154.0789923706041 L227.01600000000013,164.44799237060408 C227.44800000000015,181.6559923706041 225.00000000000017,197.9999923706041 217.80000000000018,213.47999237060412 C218.73600000000016,213.69599237060413 219.60000000000014,213.83999237060414 220.53600000000017,214.0559923706041 z" id="svg_45"/>
<path style="stroke:none; fill:#ca222c" d="M213.98400000000015,212.8319923706041 C224.92800000000017,190.2239923706041 225.4320000000002,167.18399237060413 217.44000000000017,142.5599923706041 L207.14400000000018,152.13599237060413 C211.32000000000016,172.5839923706041 210.31200000000018,191.8799923706041 205.34400000000016,211.7519923706041 C208.22400000000016,212.03999237060412 211.10400000000016,212.39999237060408 213.98400000000015,212.8319923706041 z" id="svg_46"/>
<path style="stroke:none; fill:#ca222c" d="M201.52800000000013,211.4639923706041 C208.58400000000017,184.1039923706041 207.4320000000002,162.1439923706041 196.77600000000018,135.79199237060413 C196.70400000000018,161.13599237060413 196.34400000000016,186.26399237060411 195.69600000000014,211.2479923706041 C197.64000000000016,211.3199923706041 199.58400000000017,211.3919923706041 201.52800000000013,211.4639923706041 z" id="svg_47"/>
</g></g></svg>