<?xml version="1.0" encoding="UTF-8"?>
<!DOCTYPE svg PUBLIC "-//W3C//DTD SVG 1.1//EN" "http://www.w3.org/Graphics/SVG/1.1/DTD/svg11.dtd">
<!-- Creator: CorelDRAW X5 -->
<svg xmlns="http://www.w3.org/2000/svg" xml:space="preserve" width="106px" height="152px" style="shape-rendering:geometricPrecision; text-rendering:geometricPrecision; image-rendering:optimizeQuality; fill-rule:evenodd; clip-rule:evenodd"
viewBox="0 0 106.924 153.81"
 xmlns:xlink="http://www.w3.org/1999/xlink">
 <defs>
  <style type="text/css">
   <![CDATA[
    .fil2 {fill:#009DDD}
    .fil0 {fill:#42649A}
    .fil1 {fill:white}
    .fil3 {fill:white;fill-rule:nonzero}
   ]]>
  </style>
 </defs>
 <g id="Layer_x0020_1">
  <metadata id="CorelCorpID_0Corel-Layer"/>
  <polygon id="polygon2321" class="fil0" points="104.61,18.2829 104.61,100.652 104.54,103.29 104.331,105.858 104.009,108.38 103.568,110.88 102.99,113.334 102.319,115.74 101.508,118.101 100.606,120.415 99.5872,122.661 98.4766,124.858 97.2498,126.987 95.9306,129.049 94.496,131.039 92.9911,132.958 91.395,134.81 89.7287,136.568 87.9693,138.258 86.1176,139.855 84.1968,141.384 82.23,142.795 80.1702,144.114 78.0409,145.341 75.8656,146.474 73.62,147.494 71.3292,148.419 68.9689,149.206 66.5851,149.901 64.131,150.479 61.6552,150.919 59.1335,151.241 56.564,151.451 53.9492,151.497 52.9529,151.497 50.3385,151.451 47.7921,151.241 45.2696,150.919 42.7703,150.479 40.3406,149.901 37.9335,149.206 35.5957,148.419 33.2814,147.494 31.0365,146.474 28.8612,145.341 26.7543,144.114 24.6956,142.795 22.7053,141.384 20.7845,139.855 18.9556,138.258 17.197,136.568 15.5071,134.81 13.9103,132.958 12.4061,131.039 10.9943,129.049 9.67512,126.987 8.44903,124.858 7.31485,122.661 6.29613,120.415 5.39403,118.101 4.60702,115.74 3.9123,113.334 3.3342,110.88 2.89474,108.38 2.56997,105.858 2.38499,103.29 2.31548,100.652 2.31548,18.2829 2.31548,18.2829 2.31548,2.33749 12.9618,2.33749 12.9618,18.2829 93.9179,18.2829 93.9179,2.31432 104.563,2.31432 104.563,18.2829 "/>
  <path id="path2323" class="fil1" d="M76.8607 0.764232l8.3548 0 0 15.9913 7.17389 0 0 -15.9913 13.7237 0 0 15.9913 0.0227841 0 0 83.9176c0,17.056 -8.23857,32.285 -20.9216,41.8682l0 0c-0.0691246,0.0459543 -0.138635,0.115465 -0.208146,0.161419 -0.254487,0.185748 -0.508973,0.368793 -0.764232,0.554541 -0.0919086,0.0695107 -0.161419,0.14018 -0.254487,0.186134 -0.254487,0.186134 -0.508973,0.368793 -0.76346,0.532143 -0.092681,0.0675799 -0.185748,0.138249 -0.300055,0.20776 -0.233247,0.161419 -0.487734,0.322839 -0.718278,0.487347 -0.115465,0.0671937 -0.20776,0.137863 -0.323225,0.183817 -0.2541,0.161419 -0.509745,0.32477 -0.764232,0.487347 -0.115465,0.0695107 -0.207374,0.137863 -0.322839,0.186134 -0.231702,0.161419 -0.487347,0.299282 -0.741834,0.462633 -0.115465,0.0675799 -0.231702,0.137863 -0.347167,0.207374 -0.23093,0.115465 -0.463019,0.255645 -0.694721,0.393508 -0.161419,0.0695107 -0.300441,0.161419 -0.439462,0.231702 -0.232089,0.115465 -0.440235,0.232089 -0.671165,0.347554 -0.161419,0.0919086 -0.300441,0.161419 -0.46186,0.232089 -0.186134,0.115465 -0.394666,0.207374 -0.578484,0.301213l0 -1.73584c0.346395,-0.186134 0.717505,-0.37111 1.08707,-0.554927l0.139021 -0.0938395 0.0459543 -0.0216256c0.648767,-0.370724 1.29676,-0.740675 1.96793,-1.13496l0.139021 -0.0919086c0.647608,-0.393508 1.2732,-0.810572 1.92081,-1.22725l0.115465 -0.0919086c0.463019,-0.322839 0.925651,-0.648767 1.38751,-0.99632l0 -61.1667 -6.80278 2.49814 0 -1.642 8.3548 -3.07739 0 62.209 0.902095 -0.718278 1.85246 -1.5972 1.75939 -1.68988 1.66671 -1.75824 1.59682 -1.85246 1.50529 -1.92004 1.43424 -1.98917 1.31916 -2.06177 1.22609 -2.12935 1.11179 -2.19693 1.01756 -2.24481 0.903253 -2.31509 0.810186 -2.36143 0.670392 -2.40623 0.578098 -2.45218 0.440621 -2.50007 0.322839 -2.52285 0.208146 -2.56842 0.0695107 -2.63832 -0.0467267 -98.3376 -10.6456 0 0 15.9689 -8.70236 0 0 23.12 -8.3548 3.07739 0 -1.64316 6.80278 -2.52247 0 -22.0341 -6.80278 0 0 -1.52731 6.80278 0 0 -14.4412 -6.80278 0 0 -1.55009 0 0zm-23.4213 0.0223979l8.0532 0 0 15.9689 7.01247 0 0 -15.9913 5.97097 0 2.3846 0 0 1.55009 -2.3846 0 -4.42011 0 0 14.4412 6.80471 0 0 1.52731 -6.80471 0 0 27.0775 6.80471 -2.52285 0 1.64316 -8.35558 3.07817 0 -29.276 -7.01247 0 0 31.8684 -8.0532 2.98549 0 -1.64277 6.50234 -2.40623 0 -30.8048 -6.50234 0 0 -1.52731 6.50234 0 0 -14.4181 -6.50234 0 0 -1.55086 0 0 0 0zm23.4213 146.916c-0.0235564,0.0212394 -0.0471128,0.0212394 -0.0695107,0.0459543 -0.185748,0.0695107 -0.347167,0.161419 -0.508587,0.232089 -0.208532,0.0919086 -0.417064,0.207374 -0.602812,0.301213 -0.184976,0.0695107 -0.369952,0.161419 -0.554927,0.253328 -0.186134,0.0695107 -0.393508,0.163736 -0.578484,0.232089 -0.208146,0.115465 -0.440235,0.209305 -0.671165,0.301213 -0.161419,0.0695107 -0.322839,0.14018 -0.486189,0.207374 -0.207374,0.0695107 -0.440621,0.163736 -0.647994,0.255645 -0.185748,0.0695107 -0.347167,0.139794 -0.532143,0.185748 -0.254487,0.0922948 -0.486575,0.186134 -0.741062,0.276884 -0.161419,0.0695107 -0.323611,0.115465 -0.486189,0.186134 -0.208532,0.0675799 -0.440235,0.137863 -0.671165,0.232089 -0.161419,0.0459543 -0.322839,0.0919086 -0.486575,0.161419 -0.231702,0.0695107 -0.486189,0.137863 -0.717119,0.207374 -0.184976,0.0695107 -0.393508,0.115465 -0.601654,0.185748l0 0c-2.29076,0.670392 -4.62864,1.1813 -7.01247,1.52653 -0.161419,0.0235564 -0.322839,0.0482713 -0.486189,0.0695107 -0.254487,0.0459543 -0.532529,0.0695107 -0.810186,0.115465 -0.207374,0.0235564 -0.393508,0.0459543 -0.60204,0.0695107 -0.184976,0.0235564 -0.393122,0.0459543 -0.601654,0.0459543 -0.254487,0.0459543 -0.532529,0.0695107 -0.809414,0.0938395 -0.139794,0 -0.255259,0 -0.370724,0.0216256 -0.347554,0.0235564 -0.693949,0.0459543 -1.04112,0.0695107 -0.0930671,0 -0.162578,0 -0.232089,0 -0.39428,0.0235564 -0.787788,0.0459543 -1.18014,0.0459543 -0.0467267,0 -0.0695107,0 -0.0930671,0 -0.439076,0.0235564 -0.85614,0.0235564 -1.29638,0.0235564l-0.530212 0 0 -1.55125 0.508587 0 2.59236 -0.0459543 0.0459543 -0.0231702 2.45334 -0.186134 0.18459 -0.0216256 0.717505 -0.0938395 0 -61.7939 -6.50234 2.40816 0 -1.64393 8.0532 -2.98549 0 63.829 0.161419 -0.0212394 2.4769 -0.439462 2.45296 -0.578098 1.9212 -0.556858 0 -64.8245 8.35558 -3.07739 0 1.64161 -6.80471 2.52285 0 63.2521 1.13418 -0.395439 0.161419 -0.0675799 0.0930671 -0.0459543c0.694721,-0.255259 1.36473,-0.532143 2.08223,-0.810186l0.231702 -0.0938395c0.649153,-0.301599 1.32032,-0.624438 1.99032,-0.925651l0.232089 -0.0922948c0.276884,-0.161419 0.578484,-0.322839 0.879697,-0.462633l0 1.737 0 0zm-39.0202 -146.916l0 15.9689 6.96613 0 0 -15.9689 8.63285 0 0 1.55086 -7.08276 0 0 14.4181 7.08276 0 0 1.52731 -7.08276 0 0 35.8254 7.08276 -2.61553 0 1.64277 -8.63285 3.19402 0 -38.0467 -6.96613 0 0 40.6167 -8.3548 3.07817 0 -1.64277 6.80356 -2.4993 0 -39.5516 -6.80356 0 0 -1.52769 6.80356 0 0 -14.4188 -6.80356 0 0 -1.55086 8.3548 0 0 0 0 0zm15.599 152.261l-0.510132 0c-0.440235,0 -0.879697,0 -1.31877,-0.0235564 0,0 -0.0235564,0 -0.0459543,0 -0.417064,0 -0.810572,-0.0216256 -1.22725,-0.0459543 -0.0459543,0 -0.0930671,0 -0.139021,0 -0.393508,-0.0235564 -0.787788,-0.0459543 -1.15774,-0.0695107 -0.0695107,0 -0.115465,-0.0216256 -0.18459,-0.0216256 -0.346395,-0.0231702 -0.717505,-0.0478852 -1.06467,-0.0938395 -0.115465,-0.0216256 -0.232089,-0.0216256 -0.369952,-0.0459543 -0.276884,-0.0235564 -0.578484,-0.0459543 -0.879697,-0.0919086 -0.161419,-0.0235564 -0.300441,-0.0482713 -0.463019,-0.0695107 -0.278043,-0.0235564 -0.532143,-0.0695107 -0.810186,-0.115465 -0.162578,-0.0235564 -0.300441,-0.0459543 -0.463019,-0.0695107l0 0c-2.38345,-0.370724 -4.72132,-0.902095 -6.96613,-1.59682l-0.0223979 0c-0.255645,-0.0942257 -0.509745,-0.161419 -0.764232,-0.255645 -0.139021,-0.0459543 -0.278043,-0.0919086 -0.417064,-0.137863 -0.2541,-0.0938395 -0.532143,-0.186134 -0.78663,-0.255645 -0.116624,-0.0459543 -0.255259,-0.0919086 -0.369952,-0.137863 -0.301213,-0.115465 -0.62521,-0.231702 -0.925651,-0.347167 -0.0695107,-0.0235564 -0.139021,-0.0482713 -0.208532,-0.0942257 -0.323611,-0.115465 -0.624052,-0.231702 -0.925651,-0.368793 -0.0930671,-0.0235564 -0.162192,-0.0478852 -0.231702,-0.0695107 -0.323997,-0.139794 -0.625597,-0.276884 -0.949208,-0.416678l0 0c-0.0930671,-0.0459543 -0.184976,-0.0695107 -0.278043,-0.115465 -0.323997,-0.14018 -0.647608,-0.301599 -0.971606,-0.463019 -0.0459543,0 -0.0695107,-0.0212394 -0.115465,-0.0459543 -0.323997,-0.161419 -0.671165,-0.322839 -0.995162,-0.487347 -0.0459543,-0.0212394 -0.0919086,-0.0459543 -0.139021,-0.0675799 -0.0930671,-0.0459543 -0.184976,-0.0938395 -0.254487,-0.115465l0 -1.76017c0.439462,0.255259 0.925651,0.487347 1.41107,0.740675l0.300441 0.139794c0.601654,0.276884 1.22725,0.554927 1.92081,0.879697l0.276884 0.115465 0.0235564 0.0216256c0.717119,0.276884 1.34272,0.532143 2.01388,0.787788l0.0919086 0.0459543 0.208532 0.0675799 0.5557 0.185748 -6.80356 -3.00711 0 -0.0478852 6.80356 3.055 0 -50.5679 -6.80356 2.50007 0 -1.64393 8.35442 -3.07739 0 53.3225 0.0930671 0.0235564 2.40623 0.694721 2.42979 0.578484 2.03628 0.345237 0 -57.5333 8.63285 -3.19518 0 1.64431 -7.08276 2.61438 0 56.7007 1.36511 0.186134 0 0 0.115465 0 2.49891 0.185748 0.0235564 0.0235564 2.59236 0.0459543 0.486189 0 0 1.55009 0.00424788 0zm-23.953 -5.6238c-0.231702,-0.115465 -0.440235,-0.231702 -0.671165,-0.347167 -0.0459543,-0.0235564 -0.0919086,-0.0459543 -0.139021,-0.0695107 -0.740675,-0.393508 -1.48135,-0.810186 -2.19886,-1.24965 0,0 -0.0223979,0 -0.0223979,-0.0235564 -1.78179,-1.04227 -3.4709,-2.19886 -5.09127,-3.4485 -0.0930671,-0.0695107 -0.162578,-0.115465 -0.232089,-0.185748l0 0c-12.3578,-9.60445 -20.3663,-24.6242 -20.3663,-41.4268l0 -83.9176 0.0223979 0 0 -15.9689 13.7241 0 0 15.9689 6.61897 0 0 -15.9689 8.3548 0 0 1.55086 -6.8275 0 0 14.4181 6.8275 0 0 1.52731 -6.8275 0 0 44.5745 6.8275 -2.52247 0 1.64277 -8.3548 3.07855 0 -46.7734 -8.16983 0 0 -15.9454 -10.6456 0 0 15.9454 0 0 0 82.3679 0.0695107 2.63832 0.184976 2.56842 0.323611 2.52285 0.439462 2.50007 0.578484 2.45218 0.694721 2.40623 0.78663 2.36143 0.902095 2.31509 1.01872 2.24481 1.13418 2.19693 1.22725 2.12935 1.31916 2.06177 1.41184 1.98917 1.50413 1.92004 1.59682 1.85246 1.68911 1.75824 1.75939 1.68988 1.82775 1.5972 0.347554 0.278815 0 -38.0957 8.3548 -3.10095 0 1.64393 -6.8275 2.52285 0 38.2336 0.184976 0.137863 1.68911 1.20369 0.300441 0.209305 1.75939 1.13341 0.161419 0.115465 0.139021 0.0691246 1.8513 1.0639 0.740675 0.322839 0 0.0478852 -0.462633 -0.209305c0.162192,0.0695107 0.300055,0.161419 0.462633,0.231702l0 1.76055 0.00193085 0z"/>
  <path id="path2325" class="fil2" d="M36.2904 2.33749l0 55.4981 -13.6322 5.02176 0 -60.5199 13.6322 0 0 0 0 0zm-3.42572 144.971l-0.532529 -0.231702 -0.532143 -0.232089 -0.508973 -0.255259 -0.509745 -0.253714 -0.508973 -0.255259 -0.532143 -0.255645 -0.486575 -0.276884 -0.508587 -0.276884 -0.508973 -0.276884 -0.486189 -0.276884 -0.510132 -0.301213 -0.486189 -0.276884 -0.486575 -0.301599 -0.486189 -0.322839 -0.463019 -0.301213 -0.486189 -0.322839 -0.463019 -0.325156 -0.462633 -0.322839 -0.463019 -0.322839 -0.462633 -0.349484 -0.323997 -0.229772 0 -38.2336 13.6311 -5.02292 0 50.5679 -0.208532 -0.0691246 -0.554541 -0.184203 -0.532529 -0.209305 -0.532143 -0.207374 -0.532529 -0.232089 -0.532143 -0.207374 -0.530212 -0.234019 0 0z"/>
  <path id="path2327" class="fil2" d="M46.3575 2.33749l13.5851 0 0 46.7502 -13.5851 5.02176 0 -51.772 0 0 0 0zm10.3915 149.09l-0.232089 0.0231702 -0.23093 0 -0.232089 0.0216256 -0.231702 0 -0.232089 0 -0.231702 0.0235564 -0.232089 0 -0.232089 0 -0.23093 0 -0.231702 0 -0.232089 0 -0.231702 0 -1.01872 0 -0.254487 0 -0.254487 0 -0.255259 0 -0.254487 0 -0.254487 0 -0.254487 -0.0235564 -0.231702 0 -0.254487 0 -0.254487 -0.0216256 -0.255259 0 -0.23093 -0.0231702 -0.249466 0 -0.255259 -0.0235564 -0.254487 -0.0216256 -0.232089 -0.0235564 -0.254487 0 -0.231702 -0.0212394 -0.254487 -0.0235564 -0.254487 -0.0235564 -0.232089 -0.0216256 -0.2541 -0.0231702 -0.254487 -0.0216256 -0.232089 -0.0478852 -0.255259 -0.0216256 -0.23093 -0.0235564 -0.255645 -0.0212394 -0.138635 -0.0235564 0 -56.7254 13.5851 -5.02254 0 61.8174 -0.0227841 0 -0.231702 0.0212394 -0.207374 0.0235564 -0.233247 0.0235564 -0.23093 0.0216256 -0.232861 0.0231702 -0.207374 0.0216256 -0.232089 0.0235564 -0.231702 0.0235564 -0.232089 0.0212394 -0.231702 0.0235564 -0.232089 0 -0.232089 0.0216256 -0.208146 0.0235564 -0.224751 0 0 0z"/>
  <path id="path2329" class="fil2" d="M74.4761 2.31432l9.18739 0 0 38.0015 -13.6075 5.04532 0 -43.0468 4.42011 0 0 0 0 0zm7.0368 140.967l-0.487347 0.299668 -0.486575 0.301213 -0.486189 0.301599 -0.486575 0.301213 -0.486189 0.276884 -0.486575 0.276884 -0.508587 0.276884 -0.486575 0.276884 -0.509745 0.255645 -0.508587 0.255259 -0.508973 0.253328 -0.508973 0.255645 -0.509745 0.253328 -0.532143 0.232089 -0.510132 0.231702 -0.532143 0.232089 -0.532529 0.209305 -0.532143 0.207374 -0.532529 0.207374 -0.532143 0.209691 -0.5557 0.207374 -0.532529 0.185748 -0.208532 0.0695107 0 -63.2521 13.6079 -5.02061 0 61.1911 -0.300441 0.207374 -0.463019 0.32477 -0.462633 0.323225 -0.463019 0.322839 -0.457612 0.3267 0 0z"/>
  <path id="path2331" class="fil0" d="M82.7162 145.249l-0.092681 0.0675799 -0.0459543 0.0235564 -0.0471128 0.0212394 -0.0223979 0.0235564 -0.0459543 0.0235564 -0.115465 0.0675799 -0.0471128 0.0231702 -0.0930671 0.0695107 -0.0919086 0.0695107 -0.115465 0.0675799 -0.0930671 0.0478852 -0.092681 0.0726001 -0.0930671 0.0478852 -0.0919086 0.0675799 -0.115465 0.0695107 -0.0235564 0.0235564 -0.0459543 0.0212394 -0.0471128 0.0235564 -0.0223979 0.0235564 -0.0459543 0.0216256 -0.115465 0.0695107 -0.0930671 0.0459543 -0.0930671 0.0695107 -0.0919086 0.0459543 -0.0930671 0.0695107 -0.115465 0.0459543 -0.092681 0.0695107 -0.0930671 0.0459543 -0.0930671 0.0459543 -0.0459543 0.0478852 -0.0459543 0.0216256 -0.0471128 0.0231702 -0.0459543 0.0216256 -0.139021 0.0695107 -0.0459543 0.0459543 -0.162192 0.0938395 -0.0930671 0.0459543 -0.0919086 0.0463405 -0.0930671 0.0459543 -0.0930671 0.0691246 -0.0683522 0.0463405 -0.0930671 0.0459543 -0.0695107 0.0231702 -0.0459543 0.0235564 -0.0459543 0.0459543 -0.0695107 0.0216256 -0.0471128 0.0235564 -0.0683522 0.0459543 -0.0471128 0.0235564 -0.0683522 0.0235564 -0.0695107 0.0459543 -0.0930671 0.0459543 -0.0683522 0.0459543 -0.0930671 0.0459543 -0.092681 0.0459543 -0.0687384 0.0478852 -0.092681 0.0459543 -0.0930671 0.0459543 -0.0459543 0.0235564 -0.0695107 0.0216256 -0.0459543 0.0459543 -0.0695107 0.0235564 -0.0459543 0.0235564 -0.0471128 0.0212394 -0.0683522 0.0459543 -0.0471128 0.0235564 -0.0919086 0.0459543 -0.0930671 0.0459543 -0.0695107 0.0482713 -0.092681 0.0212394 -0.0922948 0.0459543 -0.0691246 0.0478852 -0.0930671 0.0463405 -0.0919086 0.0459543 -0.0471128 0.0212394 -0.0683522 0.0235564 -0.0695107 0.0459543 -0.0687384 0.0235564 -0.0467267 0.0216256 -0.0695107 0.0478852 -0.0683522 0.0212394 -0.0695107 0.0235564 -0.0687384 0.0459543 -0.0695107 0.0459543 -0.092681 0.0235564 -0.0687384 0.0459543 -0.0695107 0.0235564 -0.0919086 0.0459543 -0.0695107 0.0216256 -0.0691246 0.0478852 -0.0687384 0.0216256 -0.0695107 0.0459543 -0.0695107 0.0235564 -0.0919086 0.0231702 -0.0695107 0.0463405 -0.0683522 0.0212394 -0.0695107 0.0478852 -0.0695107 0.0216256 -0.0683522 0.0235564 -0.0695107 0.0459543 -0.0683522 0.0235564 -0.0695107 0.0212394 -0.0683522 0.0459543 -0.0695107 0.0235564 -0.0695107 0.0459543 -0.0683522 0.0235564 -0.0930671 0.0216256 -0.0930671 0.0478852 -0.0683522 0.0459543 -0.0930671 0.0216256 -0.0930671 0.0478852 -0.0695107 0.0216256 -0.0919086 0.0459543 -0.0930671 0.0235564 -0.0695107 0.0459543 -0.0459543 0.0231702 -0.0683522 0.0216256 -0.0695107 0.0235564 -0.0471128 0.0235564 -0.0683522 0.0212394 -0.0695107 0.0235564 -0.0683522 0.0216256 -0.0695107 0.0478852 -0.0930671 0.0216256 -0.0683522 0.0459543 -0.0930671 0.0235564 -0.0695107 0.0231702 -0.0919086 0.0459543 -0.0695107 0.0216256 -0.092681 0.0459543 -0.0695107 0.0235564 -0.0687384 0.0235564 -0.0695107 0.0212394 -0.0683522 0.0235564 -0.0471128 0.0216256 -0.0683522 0.0235564 -0.0695107 0.0235564 -0.0683522 0.0459543 -0.0930671 0.0231702 -0.0930671 0.0459543 -0.092681 0.0216256 -0.0919086 0.0459543 -0.0930671 0.0235564 -0.115465 0.0459543 -0.0930671 0.0235564 -0.0930671 0.0459543 -0.0459543 0 -0.0695107 0.0235564 -0.0459543 0.0212394 -0.0695107 0.0235564 -0.115465 0.0459543 -0.0683522 0.0235564 -0.0695107 0.0216256 -0.0683522 0.0235564 -0.0930671 0.0459543 -0.0930671 0.0231702 -0.092681 0.0216256 -0.0687384 0.0235564 -0.092681 0.0459543 -0.0930671 0.0235564 -0.0930671 0.0212394 -0.0459543 0.0235564 -0.0695107 0.0216256 -0.0683522 0.0235564 -0.0471128 0.0231702 -0.0683522 0.0216256 -0.0695107 0.0235564 -0.0459543 0 -0.0695107 0.0212394 -0.0930671 0.0235564 -0.0930671 0.0459543 -0.0919086 0.0235564 -0.0695107 0.0216256 -0.092681 0.0235564 -0.0922948 0.0459543 -0.092681 0.0235564 -0.0930671 0.0212394 -0.0683522 0.0235564 -0.0930671 0.0235564 -0.0695107 0.0212394 -0.0683522 0.0235564 -0.0930671 0.0216256 -0.0695107 0.0235564 -0.0683522 0.0235564 -0.0930671 0.0212394 -0.208532 0.0695107 -0.231702 0.0459543 -0.20776 0.0695107 -0.208146 0.0695107 -0.232089 0.0459543 -0.208532 0.0695107 -0.231702 0.0459543 -0.208532 0.0695107 -0.232089 0.0459543 -0.207374 0.0695107 -0.231702 0.0459543 -0.208532 0.0459543 -0.232089 0.0459543 -0.208146 0.0695107 -0.23093 0.0459543 -0.233247 0.0459543 -0.207374 0.0478852 -0.231702 0.0459543 -0.208532 0.0463405 -0.232089 0.0459543 -0.231702 0.0459543 -0.208532 0.0478852 -0.23093 0.0459543 -0.232089 0.0216256 -0.231702 0.0478852 -0.208532 0.0459543 -0.232089 0.0459543 -0.231702 0.0235564 -0.232089 0.0459543 -0.208532 0.0216256 -0.231702 0.0459543 -0.232089 0.0235564 -0.0683522 0.0231702 -0.0471128 0 -0.0683522 0 -0.0695107 0.0216256 -0.161419 0.0235564 -0.0818682 0 -0.115465 0.0235564 -0.0919086 0 -0.116237 0.0212394 -0.0919086 0.0235564 -0.115465 0 -0.0930671 0.0216256 -0.0930671 0 -0.115465 0.0231702 -0.0695107 0 -0.0919086 0.0235564 -0.139021 0 -0.0695107 0.0216256 -0.0930671 0 -0.0683522 0.0235564 -0.0695107 0 -0.0695107 0 -0.0919086 0.0212394 -0.0695107 0 -0.0683522 0 -0.0930671 0.0235564 -0.0695107 0 -0.0683522 0 -0.0695107 0.0216256 -0.115465 0 -0.0930671 0 -0.115465 0.0235564 -0.0919086 0 -0.115465 0.0231702 -0.115465 0 -0.092681 0 -0.115465 0.0216256 -0.0459543 0 -0.0695107 0 -0.0695107 0.0235564 -0.0459543 0 -0.0278043 0 -0.0467267 0 -0.0463405 0 -0.138635 0.0212394 -0.139021 0 -0.14018 0 -0.139021 0.0235564 -0.115465 0 -0.138635 0 -0.139021 0.0235564 -0.139021 0 -0.0223979 0 -0.0471128 0 -0.0223979 0 -0.0459543 0 -0.0471128 0.0216256 -0.0223979 0 -0.161419 0 -0.139021 0 -0.162578 0 -0.139021 0.0235564 -0.161419 0 -0.138635 0 -0.162578 0 -0.161419 0.0212394 0 0 -0.0223979 0 0 0 0 0 -0.0235564 0 0 0 -0.0223979 0 -0.161419 0 -0.162578 0 -0.161419 0 -0.184976 0 -0.162578 0 -0.161419 0 -0.162192 0 -0.161806 0 -0.534074 0 0 -0.762301 0.532143 0c0.440621,0 0.85614,0 1.29676,-0.0235564 0.0223979,0 0.0459543,0 0.0930671,0 0.393122,0 0.78663,-0.0212394 1.17975,-0.0459543 0.0687384,0 0.139021,0 0.232089,0 0.347554,-0.0231702 0.693949,-0.0459543 1.04112,-0.0695107 0.115465,-0.0212394 0.232089,-0.0212394 0.37111,-0.0212394 0.276884,-0.0235564 0.554541,-0.0478852 0.809028,-0.0938395 0.208532,0 0.417064,-0.0216256 0.60204,-0.0463405 0.208146,-0.0231702 0.39428,-0.0459543 0.601654,-0.0691246 0.278043,-0.0463405 0.5557,-0.0695107 0.810186,-0.115465 0.162578,-0.0216256 0.323997,-0.0463405 0.486189,-0.0695107 2.38383,-0.345623 4.72171,-0.856527 7.01247,-1.52653l0 0c0.208532,-0.0695107 0.416678,-0.115465 0.601654,-0.186134 0.232089,-0.0695107 0.486575,-0.137863 0.717505,-0.207374 0.162192,-0.0695107 0.323611,-0.115465 0.486189,-0.161419 0.232089,-0.0938395 0.463019,-0.16335 0.671165,-0.232089 0.161419,-0.0691246 0.323997,-0.115465 0.486575,-0.185748 0.254487,-0.0919086 0.486189,-0.186134 0.740675,-0.276884 0.186134,-0.0459543 0.347554,-0.115465 0.532143,-0.186134 0.20776,-0.0919086 0.440621,-0.185748 0.647994,-0.255259 0.162578,-0.0675799 0.323997,-0.137863 0.486189,-0.207374 0.232089,-0.0919086 0.463019,-0.186134 0.671551,-0.301599 0.185748,-0.0671937 0.393122,-0.161419 0.578098,-0.231702 0.184976,-0.0919086 0.369952,-0.184203 0.554927,-0.253328 0.185748,-0.0942257 0.39428,-0.209691 0.602812,-0.301599 0.161419,-0.0695107 0.322839,-0.161419 0.508973,-0.232089 0.208146,-0.115465 0.439076,-0.231702 0.648767,-0.347167 0.161419,-0.0695107 0.300441,-0.14018 0.46186,-0.232089 0.231702,-0.115465 0.440235,-0.231702 0.671165,-0.347167 0.139021,-0.0695107 0.276884,-0.161419 0.439462,-0.232089 0.231702,-0.137863 0.463791,-0.276884 0.694721,-0.393508 0.115465,-0.0695107 0.231702,-0.139794 0.347167,-0.207374 0.254487,-0.16335 0.510132,-0.301213 0.741834,-0.462633 0.115465,-0.0482713 0.207374,-0.115465 0.322839,-0.186134 0.254487,-0.161419 0.510132,-0.32477 0.764232,-0.487347 0.115465,-0.0459543 0.207374,-0.115465 0.322839,-0.183817 0.232089,-0.16335 0.486575,-0.325156 0.718278,-0.487347 0.114693,-0.0695107 0.20776,-0.14018 0.300441,-0.207374 0.254487,-0.163736 0.508973,-0.347554 0.76346,-0.532529 0.0930671,-0.0459543 0.162192,-0.115465 0.254487,-0.185748 0.255259,-0.186134 0.509745,-0.368793 0.764232,-0.554927 0.0695107,-0.0459543 0.139021,-0.115465 0.208146,-0.161419l0 0c12.6822,-9.58283 20.9216,-24.8111 20.9216,-41.8679l-0.0227841 -99.9093 -13.7261 0 0 15.9913 -7.17467 0 0 -15.933 -16.7096 0 0 15.9913 -7.01209 0 0 -15.9689 -8.05436 0 0 -0.764232 8.81744 0 0 15.9454 5.46238 0 0 -15.9678 18.2597 0 0 15.9689 5.62342 0 0 -15.9689 15.275 0 0.0463405 100.673 -0.0227841 1.62076 -0.092681 1.59682 -0.115465 1.5972 -0.161419 1.57442 -0.208532 1.57442 -0.254487 1.55086 -0.323997 1.55125 -0.347167 1.52653 -0.369952 1.50491 -0.440621 1.48058 -0.48503 1.45895 -0.510132 1.45702 -0.5557 1.43462 -0.601654 1.413 -0.624438 1.38867 -0.694721 1.36473 -0.694721 1.34272 -0.76346 1.34156 -0.78663 1.29753 -0.810186 1.2732 -0.857299 1.24965 -0.902095 1.22493 -0.925651 1.20562 -0.949208 1.15581 -0.995162 1.15735 -1.01872 1.11179 -1.04112 1.08707 -1.08823 1.04227 -1.11063 1.01756 -1.13418 0.99632 -1.15658 0.971606 -1.15774 0.879697 0 0.0216256 -0.0930671 0.0695107 -0.0223979 0 -0.0223979 0.0212394 -0.0223979 0.0235564 -0.0471128 0.0235564 -0.0223979 0.0216256 -0.0223979 0 -0.0930671 0.0938395 -0.0930671 0.0695107 -0.0930671 0.0671937 -0.114307 0.0695107 -0.0930671 0.0695107 -0.0930671 0.0695107 -0.115465 0.0675799 -0.092681 0.0938395 -0.0227841 0.0216256 -0.092681 0.0478852 -0.0459543 0.0216256 -0.0471128 0.0459543 -0.0459543 0.0235564 -0.0930671 0.0695107 -0.0930671 0.0695107 -0.0919086 0.0671937 -0.0930671 0.0695107 -0.115465 0.0695107 -0.092681 0.0695107 -0.0930671 0.0695107 -0.0930671 0.0671937 -0.0459543 0.0235564 -0.0223979 0.0235564 -0.0459543 0.0216256 -0.0471128 0.0235564 -0.0223979 0.0212394 -0.0459543 0.0235564 -0.0235564 0.0235564 -0.0459543 0.0212394 -0.0930671 0.0695107 -0.0919086 0.0695107 -0.0930671 0.0459543 -0.0930671 0.0695107 -0.092681 0.0695107 -0.0930671 0.0459543 -0.0911363 0.0807097 0 0zm-29.2768 8.5614l-0.510132 0 -0.162192 0 -0.162578 0 -0.161419 0 -0.186134 0 -0.161419 0 -0.162192 0 -0.162578 0 -0.184976 0 0 0 -0.0223979 0 -0.162578 -0.0216256 -0.162192 0 -0.159489 0 -0.162578 0 -0.162578 -0.0235564 -0.138635 0 -0.162578 0 -0.162578 0 -0.0919086 -0.0212394 -0.0459543 0 -0.162578 0 -0.138635 -0.0235564 -0.139021 0 -0.161419 0 -0.139021 -0.0235564 -0.137863 0 -0.162578 -0.0216256 -0.139021 0 -0.0223979 0 -0.0223979 0 -0.0235564 0 -0.0223979 0 -0.0235564 0 -0.0223979 0 -0.0235564 -0.0231702 0 0 -0.139021 0 -0.139021 -0.0216256 -0.139021 0 -0.139021 -0.0235564 -0.138635 0 -0.139021 -0.0235564 -0.139021 0 -0.139021 -0.0212394 -0.0459543 0 -0.0223979 0 -0.0471128 0 -0.0459543 -0.0235564 -0.0459543 0 -0.139021 0 -0.115465 -0.0216256 -0.115465 -0.0235564 -0.231702 -0.0212394 -0.115465 0 -0.0930671 -0.0235564 -0.115465 0 -0.115465 -0.0235564 -0.0695107 0 -0.162578 -0.0212394 -0.0695107 -0.0235564 -0.0467267 0 -0.0695107 0 -0.0459543 -0.0216256 -0.115465 0 -0.0930671 -0.0235564 -0.115465 0 -0.0919086 -0.0235564 -0.115465 -0.0212394 -0.0919086 0 -0.0930671 -0.0235564 -0.115465 -0.0235564 -0.162578 -0.0212394 -0.0695107 0 -0.0695107 -0.0235564 -0.0459543 0 -0.0695107 0 -0.0459543 -0.0216256 0 0 -0.23093 -0.0235564 -0.231702 -0.0459543 -0.23093 -0.0459543 -0.208532 -0.0235564 -0.231702 -0.0459543 -0.232089 -0.0459543 -0.208532 -0.0459543 -0.231702 -0.0478852 -0.232089 -0.0216256 -0.208532 -0.0459543 -0.231702 -0.0478852 -0.232089 -0.0459543 -0.208532 -0.0695107 -0.231702 -0.0459543 -0.232089 -0.0459543 -0.208532 -0.0459543 -0.231702 -0.0459543 -0.208532 -0.0482713 -0.232089 -0.0671937 -0.208146 -0.0459543 -0.232089 -0.0695107 -0.208532 -0.0459543 -0.231702 -0.0482713 -0.208532 -0.0695107 -0.232089 -0.0671937 -0.208146 -0.0459543 -0.208532 -0.0695107 -0.232089 -0.0482713 -0.208532 -0.0671937 -0.208146 -0.0695107 -0.23093 -0.0695107 -0.232089 -0.0695107 0 0 -0.0930671 -0.0216256 -0.0919086 -0.0231702 -0.0930671 -0.0459543 -0.0919086 -0.0235564 -0.092681 -0.0216256 -0.0930671 -0.0235564 -0.115465 -0.0459543 -0.0930671 -0.0235564 -0.0459543 -0.0212394 -0.0459543 -0.0235564 -0.0695107 0 -0.0459543 -0.0216256 -0.161419 -0.0478852 -0.0459543 -0.0216256 -0.115465 -0.0459543 -0.0919086 -0.0231702 -0.0930671 -0.0463405 -0.115465 -0.0231702 -0.0930671 -0.0459543 -0.0919086 -0.0235564 -0.115465 -0.0459543 -0.0930671 -0.0216256 -0.0459543 -0.0235564 -0.139021 -0.0459543 -0.0459543 -0.0235564 -0.0459543 0 -0.0459543 -0.0212394 -0.0459543 -0.0235564 -0.139021 -0.0459543 -0.115465 -0.0459543 -0.115465 -0.0235564 -0.115465 -0.0459543 -0.115465 -0.0459543 -0.115465 -0.0459543 -0.115465 -0.0482713 -0.115465 -0.0459543 -0.0223979 0 -0.0223979 -0.0235564 -0.0235564 0 -0.0459543 -0.0212394 -0.0223979 0 -0.0235564 -0.0235564 -0.0223979 0 -0.0223979 0 -0.139021 -0.0695107 -0.116624 -0.0459543 -0.115465 -0.0459543 -0.116237 -0.0459543 -0.115465 -0.0459543 -0.115465 -0.0459543 -0.115465 -0.0482713 -0.115465 -0.0459543 -0.0247149 0 -0.0223979 -0.0212394 -0.0459543 0 -0.0223979 -0.0235564 -0.0227841 0 -0.0231702 -0.0235564 -0.0227841 0 -0.0459543 -0.0212394 -0.115465 -0.0463405 -0.115465 -0.0478852 -0.115465 -0.0459543 -0.115465 -0.0459543 -0.138635 -0.0695107 -0.115465 -0.0459543 -0.115465 -0.0459543 -0.139021 -0.0695107 0 0 -0.0235564 0 -0.0223979 -0.0235564 -0.0459543 0 -0.0235564 -0.0212394 -0.0459543 -0.0235564 -0.0223979 0 -0.0459543 -0.0216256 -0.0235564 -0.0235564 -0.139021 -0.0459543 -0.115465 -0.0459543 -0.115465 -0.0695107 -0.139021 -0.0459543 -0.116624 -0.0695107 -0.138635 -0.0459543 -0.115465 -0.0695107 -0.139021 -0.0459543 0 -0.0235564 -0.0223979 0 0 0 -0.0235564 -0.0231702 -0.0227841 0 0 0 0 0 -0.0223979 -0.0216256 -0.139021 -0.0459543 -0.115465 -0.0695107 -0.138635 -0.0459543 -0.115465 -0.0695107 -0.115465 -0.0695107 -0.139021 -0.0459543 -0.116624 -0.0695107 -0.137863 -0.0695107 -0.0235564 0 -0.0223979 -0.0212394 -0.0235564 0 -0.0223979 -0.0235564 -0.0235564 -0.0216256 -0.0223979 0 -0.115465 -0.0695107 -0.116624 -0.0459543 -0.115465 -0.0695107 -0.115465 -0.0459543 -0.115465 -0.0695107 -0.115465 -0.0459543 -0.116237 -0.0695107 -0.139021 -0.0691246 0 0 -0.0223979 -0.0235564 -0.0235564 0 -0.0223979 0 0 -0.0216256 -0.0227841 0 -0.0231702 -0.0235564 0 0 -0.161806 -0.0695107 -0.138635 -0.0919086 -0.139021 -0.0695107 -0.139021 -0.0695107 -0.139021 -0.0671937 -0.139021 -0.0942257 -0.139021 -0.0695107 -0.138635 -0.0919086 -0.139021 -0.0695107 -0.139021 -0.0671937 -0.139021 -0.0942257 -0.147903 -0.109286 -0.139021 -0.0919086 -0.139021 -0.0695107 -0.139021 -0.0919086 -0.139021 -0.0695107 -0.0223979 -0.0235564 0 0 -0.184976 -0.0919086 -0.162578 -0.115465 -0.162192 -0.0919086 -0.161419 -0.115465 -0.162578 -0.0938395 -0.184976 -0.115465 -0.162578 -0.0919086 -0.161419 -0.115465 -0.162192 -0.0942257 -0.162578 -0.115465 -0.161419 -0.0919086 -0.162578 -0.115465 -0.162192 -0.115465 -0.162578 -0.0919086 -0.162578 -0.115465 -0.161419 -0.115465 -0.162578 -0.0938395 -0.162192 -0.115465 -0.161419 -0.115465 -0.162578 -0.115465 -0.162578 -0.115465 -0.162192 -0.115465 -0.162578 -0.115465 -0.161419 -0.0919086 -0.139021 -0.115465 -0.162578 -0.115465 -0.162192 -0.115465 -0.162578 -0.115465 -0.161419 -0.115465 -0.139021 -0.137863 -0.162578 -0.115465 -0.161419 -0.115465 -0.0223979 -0.0235564 -0.0235564 -0.0235564 -0.0223979 -0.0216256 -0.0459543 -0.0235564 -0.0235564 -0.0212394 -0.0223979 -0.0235564 -0.0459543 -0.0235564 -0.323997 -0.231702 0 -0.0216256 -0.85614 -0.694721 -1.13418 -0.950366 -1.11063 -0.994003 -1.08707 -1.01988 -1.04227 -1.06351 -1.01872 -1.06351 -0.995162 -1.11179 -0.971606 -1.13302 -0.925651 -1.1813 -0.902095 -1.17898 -0.856527 -1.20369 -0.832584 -1.25158 -0.810186 -1.2732 -0.764232 -1.27089 -0.717119 -1.31916 -0.693949 -1.31916 -0.671165 -1.36704 -0.60204 -1.36511 -0.578098 -1.38828 -0.556086 -1.41107 -0.486189 -1.43462 -0.463019 -1.45895 -0.439076 -1.45934 -0.37111 -1.50298 -0.346395 -1.48251 -0.277657 -1.52653 -0.254487 -1.52615 -0.208532 -1.55125 -0.161419 -1.55086 -0.115465 -1.57442 -0.0695107 -1.5748 -0.0235564 -1.59682 0 -84.7116 0 0 0 -15.9454 15.2754 0 0 15.9454 5.06772 0 0 -15.9454 18.2605 0 0 15.9454 5.43883 0 0 -15.9454 9.39708 0 0 0.764232 -8.63285 0 0 15.9685 -6.96613 0 0 -15.9697 -16.7096 0 0 15.9689 -6.61897 0 0 -15.9689 -13.7241 0 0 15.9689 -0.0223979 0 0 83.9176c0,16.8027 8.00725,31.8224 20.3663,41.4268l0 0 0.232089 0.185748c1.71228,1.31916 3.23997,2.33672 5.09127,3.4485l0.0459543 0.0235564c0.694721,0.439462 1.38867,0.831812 2.1753,1.24965l0.139021 0.0695107 0.925651 0.462633 0.139021 0.0675799 0.995162 0.487347 0.115465 0.0459543 0.971606 0.462633 0.278043 0.115465 0 0 0.949208 0.417064 0.232089 0.0695107c0.300055,0.137863 0.601654,0.253328 0.925651,0.368793 0.0695107,0.0459543 0.139021,0.0695107 0.208146,0.0938395 0.300441,0.115465 0.624438,0.232089 0.926037,0.347554 0.115465,0.0459543 0.2541,0.0919086 0.369565,0.137863 0.254487,0.0695107 0.532529,0.161419 0.787016,0.255645 0.138635,0.0459543 0.277657,0.0919086 0.416678,0.137863 0.254487,0.0938395 0.508973,0.161419 0.764232,0.255259l0.0223979 0c2.24481,0.694721 4.58269,1.22532 6.96652,1.5972l0 0c0.162192,0.0235564 0.300441,0.0459543 0.462633,0.0695107 0.276884,0.0459543 0.532529,0.0919086 0.810186,0.115465 0.161419,0.0212394 0.300441,0.0459543 0.463019,0.0695107 0.300441,0.0459543 0.601654,0.0671937 0.879697,0.0919086 0.139021,0.0235564 0.255645,0.0235564 0.369952,0.0459543 0.347167,0.0459543 0.718278,0.0695107 1.06467,0.0938395 0.0695107,0 0.115465,0.0216256 0.184976,0.0216256 0.369565,0.0235564 0.764232,0.0459543 1.15735,0.0695107 0.0459543,0 0.0922948,0 0.139021,0 0.417064,0.0231702 0.810186,0.0459543 1.22725,0.0459543 0.0223979,0 0.0459543,0 0.0459543,0 0.439462,0.0235564 0.878538,0.0235564 1.31916,0.0235564l0.509745 0 0 0.764232 -0.00193085 0z"/>
  <path class="fil3" d="M15.0078 71.5914l15.212 -5.53653 0 0.807097c-1.68139,0.641816 -2.75533,1.23999 -3.21449,1.80728 -0.466494,0.569216 -0.748013,1.57558 -0.844169,3.03221 3.32532,-1.21026 5.85821,-1.74704 7.59096,-1.61458 1.73313,0.139021 3.22182,0.752647 4.45873,1.85014 1.23652,1.09788 1.85864,2.75262 1.85864,4.96693 0,2.77695 -1.02914,5.60295 -3.08087,8.47529 -2.05868,2.87543 -5.66551,5.2469 -10.8275,7.12562 0,1.02953 0.118554,1.74163 0.355663,2.12935 0.236723,0.395439 0.592386,0.592 1.05154,0.602426 0.466494,0.0150607 1.34774,-0.171846 2.65145,-0.557631l0 0.79976 -15.212 5.53653 0 -0.79976c1.79222,-0.696652 2.91791,-1.3879 3.3844,-2.06833 0.459157,-0.685839 0.696266,-1.70533 0.696266,-3.06813 -3.41414,1.2427 -6.0876,1.74202 -8.02077,1.49023 -1.93278,-0.251783 -3.39907,-0.992073 -4.40659,-2.21778 -0.999796,-1.22069 -1.50336,-2.80785 -1.50336,-4.74063 0,-2.07374 0.614784,-4.18609 1.84397,-6.35174 1.22957,-2.15831 2.77734,-3.91384 4.6437,-5.26737 1.86636,-1.35314 4.34751,-2.58927 7.44305,-3.71612 0,-1.31839 -0.266458,-2.1027 -0.792422,-2.36298 -0.533302,-0.249852 -1.62925,-0.0880469 -3.28824,0.485803l0 -0.807097zm11.1534 19.3139c1.42922,-0.520172 2.60704,-1.17126 3.53269,-1.95209 0.925651,-0.774272 1.69606,-1.97295 2.30312,-3.5937 0.607447,-1.61342 0.910977,-3.64931 0.910977,-6.09339 0,-1.94785 -0.281518,-3.49678 -0.836832,-4.64254 -0.555313,-1.13843 -1.28131,-1.78488 -2.16989,-1.94321 -0.888965,-0.15022 -2.14054,0.061015 -3.74006,0.6283l0 17.5966zm-7.07272 -15.0224c-1.8961,0.741834 -3.25851,1.57828 -4.08067,2.49235 -0.829495,0.916769 -1.47401,2.11428 -1.95518,3.60722 -0.473831,1.49101 -0.718278,3.26121 -0.718278,5.31989 0,2.35526 0.296193,4.04707 0.873904,5.07351 0.577711,1.02644 1.34774,1.59064 2.31046,1.69181 0.962724,0.1089 2.14788,-0.0857299 3.56976,-0.588138l0 -17.5966zm23.5139 -14.335l15.3155 -5.57437 0 0.807097 -0.496229 0.180728c-1.44428,0.525578 -2.41434,1.13766 -2.89589,1.84628 -0.488506,0.703989 -0.725615,1.7899 -0.725615,3.26353l0 8.79118c2.02199,-0.736041 3.33999,-1.28247 3.94744,-1.64393 0.60706,-0.354891 1.1701,-0.959248 1.68834,-1.80728 0.525965,-0.850348 1.02219,-2.29733 1.50375,-4.35407 0.562651,-2.40391 1.11063,-4.25522 1.63659,-5.54232 0.525965,-1.29522 1.25892,-2.42863 2.19229,-3.41259 0.932988,-0.983963 2.09575,-1.73313 3.50295,-2.2452 1.38481,-0.503953 2.50316,-0.51129 3.33999,-0.0305075 0.836832,0.487734 1.25892,1.3041 1.25892,2.45952 0,0.896302 -0.281132,1.70958 -0.844169,2.43288 -0.562651,0.730635 -1.26625,1.24579 -2.10309,1.55048 -1.65165,0.601268 -2.54062,-0.0305075 -2.67385,-1.89301 -0.0590841,-0.933761 -0.392349,-1.28633 -0.999796,-1.06545 -0.644133,0.234792 -1.20717,0.802077 -1.66633,1.70996 -0.466494,0.910591 -0.962724,2.40932 -1.49603,4.51434 -0.525578,2.05752 -0.970061,3.61881 -1.34774,4.68966 -0.377675,1.07047 -0.910977,2.04979 -1.60724,2.93992 0.925651,-0.106969 1.63698,-0.0625597 2.14054,0.13207 0.496229,0.196947 0.947663,0.52133 1.35507,0.972764 0.40741,0.45182 1.27398,1.65474 2.5997,3.6161l2.99939 4.24788c0.459157,0.632934 1.01447,1.01602 1.65899,1.16662 0.644133,0.150607 1.42188,0.0598565 2.33286,-0.271478l0 0.79976 -9.85006 3.58521 -6.05825 -9.07424c-0.688542,-1.02335 -1.19945,-1.60763 -1.52537,-1.75592 -0.325928,-0.154854 -0.985121,-0.0706692 -1.98492,0.256031l0 9.95355c0,1.42227 0.288856,2.22048 0.873904,2.39271 0.592386,0.176866 1.67366,-0.0166053 3.24383,-0.588138l0 0.79976 -15.3155 5.57437 0 -0.79976c1.69606,-0.646836 2.79935,-1.30024 3.33265,-1.96097 0.525965,-0.665758 0.792422,-1.76982 0.792422,-3.31759l0 -19.6777c0,-1.72541 -0.214711,-2.80244 -0.629458,-3.24383 -0.422085,-0.439462 -1.37747,-0.387715 -2.86616,0.154082l-0.629458 0.228999 0 -0.807097zm59.8696 -22.4574l0 10.1907 -0.844169 0.307392c-0.637182,-2.4267 -1.82195,-4.03239 -3.56242,-4.82057 -1.73313,-0.783927 -3.70299,-0.777748 -5.90262,0.0227841 -1.83663,0.668462 -3.51763,1.80573 -5.05073,3.42302 -1.5331,1.6169 -2.65879,3.40409 -3.36239,5.37086 -0.910977,2.51667 -1.37013,5.1129 -1.37013,7.78675 0,2.62905 0.333265,4.90707 0.999796,6.82673 0.666531,1.92004 1.7034,3.17973 3.12528,3.76555 1.41454,0.596248 3.25117,0.475762 5.51027,-0.346781 1.8513,-0.673868 3.54736,-1.69104 5.0878,-3.0662 1.54043,-1.3682 3.16235,-3.3508 4.87309,-5.95823l0 2.54023c-1.65165,2.31973 -3.36973,4.19652 -5.15461,5.61608 -1.79222,1.43038 -3.87329,2.57267 -6.26562,3.44348 -3.13262,1.13998 -5.92463,1.52692 -8.36098,1.15465 -2.43674,-0.371882 -4.31777,-1.49448 -5.6435,-3.36702 -1.31839,-1.88258 -1.98492,-4.15095 -1.98492,-6.80973 0,-2.80669 0.733338,-5.73232 2.20697,-8.78654 1.46629,-3.05191 3.44387,-5.72691 5.93969,-8.01999 2.49582,-2.30119 5.14727,-3.95477 7.95396,-4.9762 2.0664,-0.752261 4.25097,-1.10329 6.55448,-1.04536 1.33306,0.0332107 2.17723,-0.00733724 2.54023,-0.139408 0.459157,-0.167212 0.858844,-0.482713 1.19983,-0.947663 0.340603,-0.46495 0.562651,-1.0863 0.666531,-1.85709l0.844169 -0.307392z"/>
 </g>
</svg>
