<?xml version="1.0" encoding="utf-8"?>
<!DOCTYPE svg PUBLIC "-//W3C//DTD SVG 1.1//EN" "http://www.w3.org/Graphics/SVG/1.1/DTD/svg11.dtd" [
<!ENTITY ns_svg "http://www.w3.org/2000/svg">
<!ENTITY ns_xlink "http://www.w3.org/1999/xlink">
]>
<svg  version="1.1" id="Layer_1" xmlns="&ns_svg;" xmlns:xlink="&ns_xlink;" width="119.643" height="140.93"
viewBox="0 0 119.643 140.93" overflow="visible" enable-background="new 0 0 119.643 140.93" xml:space="preserve">
<g id="XMLID_1_">
<g>
<path fill="#FFFFFF" d="M24.511,8.165c1.39,0.04,2.07,0.94,2.07,2.69c-0.01,0.85-0.22,1.47-0.64,1.85
c-0.39,0.39-0.85,0.59-1.37,0.59c-0.52,0.02-0.97-0.15-1.37-0.53c-0.2-0.2-0.35-0.48-0.45-0.83c-0.14-0.33-0.21-0.78-0.21-1.31
c0-0.54,0.08-0.96,0.22-1.28c0.15-0.33,0.32-0.58,0.52-0.75c0.2-0.18,0.41-0.3,0.64-0.36C24.141,8.185,24.342,8.165,24.511,8.165z
"/>
<path fill="#FFFFFF" d="M44.552,54.085v6.9h-3.92c0.44-0.71,0.73-1.47,0.87-2.27c0.13-0.8,0.2-1.85,0.2-3.17v-1.46H44.552z"/>
<polygon fill="#FFFFFF" points="30.962,54.615 32.252,58.835 29.601,58.835 30.931,54.615 		"/>
<path fill="#FFFFFF" d="M23.281,56.534c-0.1,0.18-0.26,0.33-0.48,0.46c-0.22,0.13-0.53,0.2-0.95,0.2h-2.03v-3.14h1.73
c1.3-0.01,1.94,0.48,1.92,1.47c0,0.12,0,0.27-0.01,0.46C23.442,56.165,23.382,56.344,23.281,56.534z"/>
<path fill="#FFFFFF" d="M56.511,42.905c0.15,0.32,0.23,0.73,0.23,1.24c0,0.48-0.08,0.88-0.23,1.2c-0.17,0.32-0.38,0.57-0.64,0.74
c-0.11,0.09-0.24,0.16-0.38,0.23c-0.15,0.06-0.29,0.1-0.44,0.14c-0.3,0.08-0.6,0.11-0.88,0.11v-4.88c0.28,0,0.58,0.03,0.88,0.09
c0.15,0.02,0.29,0.07,0.44,0.13c0.14,0.07,0.27,0.15,0.38,0.23C56.132,42.315,56.342,42.574,56.511,42.905z"/>
<path fill="#FFFFFF" d="M51.982,41.685v4.88c-0.27,0-0.55-0.03-0.85-0.11c-0.31-0.06-0.59-0.19-0.85-0.37
c-0.25-0.18-0.46-0.42-0.62-0.74c-0.17-0.32-0.26-0.72-0.26-1.2c0-0.51,0.09-0.92,0.26-1.25c0.16-0.33,0.37-0.58,0.62-0.76
c0.26-0.18,0.54-0.3,0.85-0.37C51.431,41.715,51.721,41.685,51.982,41.685z"/>
<path fill="#FFFFFF" d="M53.052,127.774v-10.649h-2.18v4.04h-4.06v-4.04h-2.19v10.649h2.19v-4.729h4.06v4.729H53.052z
M58.391,52.215h-2.18v4.04h-4.06v-4.04h-2.18v10.66h2.18v-4.74h4.06v4.74h2.18V52.215z M58.451,42.195
c-0.3-0.55-0.7-0.98-1.2-1.3c-0.49-0.32-1-0.55-1.54-0.68c-0.55-0.13-1.06-0.19-1.54-0.19v-1.1h-2.19v1.1
c-0.46,0-0.97,0.06-1.51,0.19c-0.55,0.13-1.06,0.36-1.56,0.68c-0.49,0.32-0.88,0.75-1.19,1.3c-0.34,0.54-0.5,1.22-0.5,2.05
c0,0.8,0.16,1.46,0.5,1.99c0.31,0.55,0.7,0.99,1.19,1.31c0.5,0.33,1.01,0.56,1.56,0.69c0.27,0.06,0.53,0.11,0.8,0.14
c0.26,0.05,0.5,0.08,0.71,0.08v1.14h2.19v-1.14c0.23,0,0.48-0.03,0.75-0.08c0.25-0.03,0.52-0.08,0.79-0.14
c0.54-0.13,1.05-0.36,1.54-0.69c0.5-0.32,0.9-0.76,1.21-1.31c0.3-0.53,0.45-1.19,0.46-1.99
C58.911,43.415,58.761,42.735,58.451,42.195z M47.741,65.105v-4.12h-1.01v-8.78h-7.08v3.16c0.04,2.47-0.36,4.34-1.19,5.62h-0.94
v4.12h2.04v-2.23h6.14v2.23H47.741z M48.721,11.054c-0.16,0.28-0.36,0.48-0.61,0.61c-0.24,0.1-0.49,0.18-0.74,0.22
c-0.27,0.04-0.51,0.06-0.74,0.06h-0.42v2.04c0.34,0,0.68,0.01,1.04,0.03c0.36,0.04,0.69,0.13,0.99,0.27c0.34,0.1,0.6,0.3,0.8,0.59
c0.19,0.28,0.28,0.69,0.28,1.19c-0.01,0.8-0.21,1.4-0.6,1.79c-0.4,0.41-0.88,0.62-1.45,0.62c-0.45,0-0.81-0.1-1.08-0.31
c-0.28-0.18-0.48-0.4-0.61-0.68c-0.14-0.28-0.22-0.56-0.26-0.86c-0.06-0.28-0.08-0.51-0.08-0.7l0.02-0.02h-2.69
c0.02,1.12,0.22,2,0.61,2.64c0.37,0.67,0.82,1.17,1.35,1.48c0.53,0.31,1.06,0.52,1.59,0.62c0.53,0.08,0.96,0.12,1.29,0.12
c1.42-0.01,2.56-0.46,3.42-1.33c0.85-0.85,1.28-1.97,1.29-3.37c-0.01-0.62-0.09-1.16-0.23-1.58c-0.16-0.42-0.37-0.76-0.63-1
c-0.23-0.26-0.46-0.46-0.7-0.6c-0.25-0.12-0.44-0.19-0.58-0.21v-0.04c0.44-0.19,0.83-0.52,1.18-0.98c0.33-0.45,0.51-1.05,0.53-1.8
c-0.03-1.51-0.51-2.58-1.43-3.19c-0.9-0.59-1.85-0.88-2.85-0.87c-1.55,0.02-2.7,0.45-3.46,1.3c-0.76,0.86-1.14,1.99-1.14,3.39
h2.55c0-0.16,0.01-0.37,0.04-0.63c0.01-0.24,0.08-0.5,0.2-0.77c0.12-0.28,0.31-0.52,0.57-0.71c0.25-0.19,0.61-0.29,1.06-0.29
c0.37,0,0.68,0.07,0.92,0.21c0.24,0.12,0.41,0.29,0.51,0.51c0.12,0.21,0.21,0.42,0.26,0.62c0.02,0.21,0.04,0.39,0.04,0.54
C48.962,10.435,48.882,10.795,48.721,11.054z M25.661,55.675c-0.05-2.23-1.13-3.36-3.24-3.41h-4.78v10.61h2.18v-3.8h2.51
c0.71,0,1.28-0.14,1.72-0.42c0.45-0.25,0.79-0.56,1.01-0.93c0.24-0.39,0.4-0.77,0.47-1.13
C25.612,56.224,25.661,55.925,25.661,55.675z M29.701,52.215l-3.71,10.66h2.29l0.73-2.16h3.85l0.68,2.16h2.36l-3.68-10.66H29.701z
M36.632,77.984h-5.31l-1.29,3.301h-8.06l-4.4,21.26h15.95L36.632,77.984z M34.362,14.585c-1.43,1.14-2.33,2.16-2.68,3.1
c-0.2,0.46-0.33,0.91-0.38,1.35c-0.06,0.45-0.12,0.9-0.16,1.34h9.46v-2.55h-6c0.16-0.33,0.49-0.69,0.99-1.11
c0.49-0.39,1.2-0.92,2.11-1.57c0.34-0.25,0.69-0.53,1.04-0.82c0.33-0.29,0.64-0.62,0.91-0.99c0.61-0.72,0.92-1.71,0.94-2.93
c-0.02-1.5-0.47-2.63-1.37-3.41c-0.89-0.8-2.02-1.2-3.39-1.2c-0.31,0-0.72,0.04-1.21,0.12c-0.49,0.1-1,0.32-1.52,0.67
c-0.49,0.34-0.91,0.85-1.25,1.53c-0.37,0.71-0.56,1.66-0.56,2.84h2.67c0.02-0.14,0.04-0.29,0.06-0.46c0-0.13,0-0.28,0.02-0.45
c0.04-0.31,0.12-0.61,0.22-0.88c0.13-0.27,0.33-0.5,0.59-0.68c0.26-0.18,0.62-0.26,1.1-0.26c0.64,0.01,1.13,0.23,1.46,0.65
c0.3,0.43,0.45,0.9,0.45,1.42c0,0.78-0.26,1.45-0.79,2.03C36.511,12.915,35.612,13.665,34.362,14.585z M38.982,70.474l-4.95,40.5
h18.08v-19.43c0-4.23,3.46-7.7,7.69-7.7h0.02v36.561l-2.31,4.14h-0.02v-7.44h-2.18v10.67h2.33l2.18-3.869v12.739
c29.81,0,55.54-19.989,55.54-51.13V4.284h-55.54v64.68h-6.14l-1.19,6.05l-6.31-0.02l-0.02-4.49L38.982,70.474z M59.822,138.785
c-30.89,0-57.68-21.12-57.68-53.271V2.145h115.36v83.37C117.501,117.825,90.852,138.785,59.822,138.785z M20.902,14.215
c0.73,0.9,1.77,1.36,3.1,1.37c0.48,0.01,0.97-0.07,1.45-0.25c0.48-0.17,0.87-0.5,1.17-0.98l0.04,0.04
c-0.02,1.49-0.26,2.55-0.7,3.17c-0.45,0.62-0.97,0.93-1.56,0.91c-0.88,0.02-1.42-0.47-1.62-1.45v-0.02h-2.71
c0.37,2.45,1.81,3.7,4.3,3.76c1.3,0.01,2.45-0.53,3.47-1.64c0.49-0.57,0.87-1.34,1.15-2.29c0.26-0.96,0.41-2.14,0.42-3.54
c0-0.54-0.03-1.22-0.08-2.05c-0.07-0.83-0.26-1.66-0.56-2.48c-0.29-0.83-0.77-1.53-1.43-2.1c-0.67-0.57-1.61-0.85-2.81-0.87
c-1.38,0-2.5,0.43-3.36,1.28c-0.91,0.86-1.36,2.18-1.38,3.95C19.792,12.275,20.161,13.335,20.902,14.215z M15.371,20.375V5.795
h-2.22c0.01,0.58-0.23,1.14-0.72,1.67c-0.25,0.25-0.6,0.45-1.04,0.6c-0.42,0.18-0.97,0.27-1.65,0.27h-0.38v2h3.28v10.04H15.371z"
/>
<polygon fill="#FFFFFF" points="97.671,81.285 102.072,102.545 86.121,102.545 83.012,77.984 88.322,77.984 89.602,81.285 		"/>
<polygon fill="#FFFFFF" points="102.001,52.205 102.001,62.875 99.812,62.875 99.812,55.275 99.802,55.275 95.531,62.875 
93.201,62.875 93.201,52.205 95.381,52.205 95.381,59.635 95.392,59.635 99.552,52.205 		"/>
<path fill="#FFFFFF" d="M80.612,70.494l4.96,40.48h-18.07v-19.43c0-4.23-3.449-7.69-7.68-7.7v-14.88h6.09l1.141,6.02h6.399
l-0.01-4.5L80.612,70.494z"/>
<polygon fill="#FFFFFF" points="84.911,59.264 84.911,62.875 82.732,62.875 82.732,52.215 84.911,52.215 84.911,56.554 
88.902,52.215 91.722,52.215 87.472,56.585 91.982,62.875 89.161,62.875 85.942,58.195 		"/>
<path fill="#FFFFFF" d="M75.932,56.755c0.71,0,1.42-0.05,2.149-0.16v-4.39h2.181v10.67h-2.181v-4.45
c-0.91,0.12-1.819,0.18-2.75,0.17c-0.41,0-0.81-0.06-1.189-0.19c-0.181-0.06-0.36-0.14-0.53-0.24c-0.18-0.09-0.34-0.2-0.49-0.32
c-0.64-0.51-0.97-1.36-0.979-2.55v-3.09h2.18v3.13c0.01,0.5,0.18,0.86,0.49,1.08C75.112,56.645,75.482,56.755,75.932,56.755z"/>
<polygon fill="#FFFFFF" points="76.142,125.894 76.142,117.104 78.322,117.104 78.322,127.774 66.341,127.774 66.341,117.104 
68.522,117.104 68.522,125.894 71.251,125.894 71.251,117.104 73.432,117.104 73.432,125.894 		"/>
<polygon fill="#FFFFFF" points="70.192,52.205 70.192,62.875 68.012,62.875 68.012,55.275 68.001,55.275 63.732,62.875 
61.392,62.875 61.392,52.205 63.581,52.205 63.581,59.635 63.591,59.635 67.741,52.205 		"/>
<polygon fill="#FFFFFF" points="66.131,43.304 70.631,49.594 67.822,49.594 64.602,44.925 63.572,45.985 63.572,49.594 
61.392,49.594 61.392,38.945 63.572,38.945 63.572,43.275 67.562,38.945 70.381,38.945 		"/>
<polygon fill="#FFFFFF" points="64.112,117.104 64.112,127.774 61.932,127.774 61.932,120.175 61.911,120.175 59.822,123.905 
59.822,120.405 61.661,117.104 		"/>
<path fill="#F1110D" d="M93.201,52.205v10.67h2.33l4.271-7.6h0.01v7.6h2.189v-10.67h-2.449l-4.16,7.43h-0.011v-7.43H93.201z
M67.822,49.594h2.81l-4.5-6.29l4.25-4.36h-2.819l-3.99,4.33v-4.33h-2.18v10.65h2.18v-3.61l1.03-1.06L67.822,49.594z
M70.192,62.875v-10.67h-2.45l-4.15,7.43h-0.01v-7.43h-2.189v10.67h2.34l4.27-7.6h0.011v7.6H70.192z M76.142,117.104v8.79h-2.71
v-8.79h-2.181v8.79h-2.729v-8.79h-2.181v10.67h11.98v-10.67H76.142z M80.262,62.875v-10.67h-2.181v4.39
c-0.729,0.11-1.439,0.16-2.149,0.16c-0.45,0-0.82-0.11-1.12-0.34c-0.311-0.22-0.48-0.58-0.49-1.08v-3.13h-2.18v3.09
c0.01,1.19,0.34,2.04,0.979,2.55c0.15,0.12,0.311,0.23,0.49,0.32c0.17,0.1,0.35,0.18,0.53,0.24c0.38,0.13,0.779,0.19,1.189,0.19
c0.931,0.01,1.84-0.05,2.75-0.17v4.45H80.262z M85.572,110.974l-4.96-40.48l-7.17-0.01l0.01,4.5h-6.399l-1.141-6.02h-6.09V4.284
h55.54v81.23c0,31.141-25.73,51.13-55.54,51.13v-12.739l2.09-3.73h0.021v7.6h2.18v-10.67h-2.45l-1.84,3.301V83.844
c4.23,0.01,7.68,3.47,7.68,7.7v19.43H85.572z M82.732,52.215v10.66h2.18v-3.61l1.03-1.07l3.22,4.68h2.82l-4.51-6.29l4.25-4.37
h-2.82l-3.99,4.34v-4.34H82.732z M83.012,77.984l3.109,24.561h15.95l-4.4-21.26h-8.069l-1.28-3.301H83.012z"/>
<path fill="#F1110D" d="M59.822,68.965v14.88h-0.02c-4.23,0-7.69,3.47-7.69,7.7v19.43h-18.08l4.95-40.5l7.18,0.03l0.02,4.49
l6.31,0.02l1.19-6.05H59.822z"/>
<polygon fill="#F1110D" points="59.822,123.905 57.641,127.774 55.312,127.774 55.312,117.104 57.491,117.104 57.491,124.545 
57.511,124.545 59.822,120.405 		"/>
<polygon fill="#F1110D" points="56.212,56.255 56.212,52.215 58.391,52.215 58.391,62.875 56.212,62.875 56.212,58.135 
52.152,58.135 52.152,62.875 49.971,62.875 49.971,52.215 52.152,52.215 52.152,56.255 		"/>
<path fill="#F1110D" d="M51.982,46.565v-4.88c-0.26,0-0.55,0.03-0.85,0.08c-0.31,0.07-0.59,0.19-0.85,0.37
c-0.25,0.18-0.46,0.43-0.62,0.76c-0.17,0.33-0.26,0.74-0.26,1.25c0,0.48,0.09,0.88,0.26,1.2c0.16,0.32,0.37,0.56,0.62,0.74
c0.26,0.18,0.54,0.31,0.85,0.37C51.431,46.534,51.712,46.565,51.982,46.565z M56.741,44.145c0-0.51-0.08-0.92-0.23-1.24
c-0.17-0.33-0.38-0.59-0.64-0.77c-0.11-0.08-0.24-0.16-0.38-0.23c-0.15-0.06-0.29-0.11-0.44-0.13c-0.3-0.06-0.6-0.09-0.88-0.09
v4.88c0.28,0,0.58-0.03,0.88-0.11c0.15-0.04,0.29-0.08,0.44-0.14c0.14-0.07,0.27-0.14,0.38-0.23c0.26-0.17,0.47-0.42,0.64-0.74
C56.661,45.025,56.741,44.625,56.741,44.145z M47.721,42.195c0.31-0.55,0.7-0.98,1.19-1.3c0.5-0.32,1.01-0.55,1.56-0.68
c0.54-0.13,1.05-0.19,1.51-0.19v-1.1h2.19v1.1c0.48,0,0.99,0.06,1.54,0.19c0.54,0.13,1.05,0.36,1.54,0.68
c0.5,0.32,0.9,0.75,1.2,1.3c0.31,0.54,0.46,1.22,0.47,2.05c-0.01,0.8-0.16,1.46-0.46,1.99c-0.31,0.55-0.71,0.99-1.21,1.31
c-0.49,0.33-1,0.56-1.54,0.69c-0.27,0.06-0.54,0.11-0.79,0.14c-0.27,0.05-0.52,0.08-0.75,0.08v1.14h-2.19v-1.14
c-0.21,0-0.45-0.03-0.71-0.08c-0.27-0.03-0.53-0.08-0.8-0.14c-0.55-0.13-1.06-0.36-1.56-0.69c-0.49-0.32-0.88-0.76-1.19-1.31
c-0.34-0.53-0.5-1.19-0.5-1.99C47.221,43.415,47.382,42.735,47.721,42.195z"/>
<polygon fill="#F1110D" points="46.812,123.045 46.812,127.774 44.621,127.774 44.621,117.125 46.812,117.125 46.812,121.165 
50.871,121.165 50.871,117.125 53.052,117.125 53.052,127.774 50.871,127.774 50.871,123.045 		"/>
<path fill="#F1110D" d="M48.112,11.665c0.25-0.13,0.45-0.33,0.61-0.61c0.16-0.26,0.24-0.62,0.24-1.09c0-0.15-0.02-0.33-0.04-0.54
c-0.05-0.2-0.14-0.41-0.26-0.62c-0.1-0.22-0.27-0.39-0.51-0.51c-0.24-0.14-0.55-0.21-0.92-0.21c-0.45,0-0.81,0.1-1.06,0.29
c-0.26,0.19-0.45,0.43-0.57,0.71c-0.12,0.27-0.19,0.53-0.2,0.77c-0.03,0.26-0.04,0.47-0.04,0.63h-2.55c0-1.4,0.38-2.53,1.14-3.39
c0.76-0.85,1.91-1.28,3.46-1.3c1-0.01,1.95,0.28,2.85,0.87c0.92,0.61,1.4,1.68,1.43,3.19c-0.02,0.75-0.2,1.35-0.53,1.8
c-0.35,0.46-0.74,0.79-1.18,0.98v0.04c0.14,0.02,0.33,0.09,0.58,0.21c0.24,0.14,0.47,0.34,0.7,0.6c0.26,0.24,0.47,0.58,0.63,1
c0.14,0.42,0.22,0.96,0.23,1.58c-0.01,1.4-0.44,2.52-1.29,3.37c-0.86,0.87-2,1.32-3.42,1.33c-0.33,0-0.76-0.04-1.29-0.12
c-0.53-0.1-1.06-0.31-1.59-0.62c-0.53-0.31-0.98-0.81-1.35-1.48c-0.39-0.64-0.59-1.52-0.61-2.64h2.69l-0.02,0.02
c0,0.19,0.02,0.42,0.08,0.7c0.04,0.3,0.12,0.58,0.26,0.86c0.13,0.28,0.33,0.5,0.61,0.68c0.27,0.21,0.63,0.31,1.08,0.31
c0.57,0,1.05-0.21,1.45-0.62c0.39-0.39,0.59-0.99,0.6-1.79c0-0.5-0.09-0.91-0.28-1.19c-0.2-0.29-0.46-0.49-0.8-0.59
c-0.3-0.14-0.63-0.23-0.99-0.27c-0.36-0.02-0.7-0.03-1.04-0.03v-2.04h0.42c0.23,0,0.47-0.02,0.74-0.06
C47.621,11.844,47.871,11.764,48.112,11.665z"/>
<path fill="#F1110D" d="M44.552,60.985v-6.9h-2.85v1.46c0,1.32-0.07,2.37-0.2,3.17c-0.14,0.8-0.43,1.56-0.87,2.27H44.552z
M47.741,60.985v4.12h-2.04v-2.23h-6.14v2.23h-2.04v-4.12h0.94c0.83-1.28,1.23-3.15,1.19-5.62v-3.16h7.08v8.78H47.741z"/>
<polygon fill="#F1110D" points="36.632,77.984 33.522,102.545 17.572,102.545 21.971,81.285 30.031,81.285 31.322,77.984 		"/>
<path fill="#F1110D" d="M34.261,9.165c-0.1,0.27-0.18,0.57-0.22,0.88c-0.02,0.17-0.02,0.32-0.02,0.45
c-0.02,0.17-0.04,0.32-0.06,0.46h-2.67c0-1.18,0.19-2.13,0.56-2.84c0.34-0.68,0.76-1.19,1.25-1.53c0.52-0.35,1.03-0.57,1.52-0.67
c0.49-0.08,0.9-0.12,1.21-0.12c1.37,0,2.5,0.4,3.39,1.2c0.9,0.78,1.35,1.91,1.37,3.41c-0.02,1.22-0.33,2.21-0.94,2.93
c-0.27,0.37-0.58,0.7-0.91,0.99c-0.35,0.29-0.7,0.57-1.04,0.82c-0.91,0.65-1.62,1.18-2.11,1.57c-0.5,0.42-0.83,0.78-0.99,1.11h6
v2.55h-9.46c0.04-0.44,0.1-0.89,0.16-1.34c0.05-0.44,0.18-0.89,0.38-1.35c0.35-0.94,1.25-1.96,2.68-3.1
c1.25-0.92,2.15-1.67,2.71-2.26c0.53-0.58,0.79-1.25,0.79-2.03c0-0.52-0.15-0.99-0.45-1.42c-0.33-0.42-0.82-0.64-1.46-0.65
c-0.48,0-0.84,0.08-1.1,0.26C34.592,8.665,34.391,8.895,34.261,9.165z"/>
<path fill="#F1110D" d="M32.252,58.835l-1.29-4.22h-0.03l-1.33,4.22H32.252z M32.221,52.215l3.68,10.66h-2.36l-0.68-2.16h-3.85
l-0.73,2.16h-2.29l3.71-10.66H32.221z"/>
<path fill="#F1110D" d="M24.371,20.764c-2.49-0.06-3.93-1.31-4.3-3.76h2.71v0.02c0.2,0.98,0.74,1.47,1.62,1.45
c0.59,0.02,1.11-0.29,1.56-0.91c0.44-0.62,0.68-1.68,0.7-3.17l-0.04-0.04c-0.3,0.48-0.69,0.81-1.17,0.98
c-0.48,0.18-0.97,0.26-1.45,0.25c-1.33-0.01-2.37-0.47-3.1-1.37c-0.74-0.88-1.11-1.94-1.11-3.19c0.02-1.77,0.47-3.09,1.38-3.95
c0.86-0.85,1.98-1.28,3.36-1.28c1.2,0.02,2.14,0.3,2.81,0.87c0.66,0.57,1.14,1.27,1.43,2.1c0.3,0.82,0.49,1.65,0.56,2.48
c0.05,0.83,0.08,1.51,0.08,2.05c-0.01,1.4-0.16,2.58-0.42,3.54c-0.28,0.95-0.66,1.72-1.15,2.29
C26.822,20.235,25.672,20.775,24.371,20.764z M22.542,10.625c0,0.53,0.07,0.98,0.21,1.31c0.1,0.35,0.25,0.63,0.45,0.83
c0.4,0.38,0.85,0.55,1.37,0.53c0.52,0,0.98-0.2,1.37-0.59c0.42-0.38,0.63-1,0.64-1.85c0-1.75-0.68-2.65-2.07-2.69
c-0.17,0-0.37,0.02-0.59,0.07c-0.23,0.06-0.44,0.18-0.64,0.36c-0.2,0.17-0.37,0.42-0.52,0.75
C22.621,9.665,22.542,10.085,22.542,10.625z"/>
<path fill="#F1110D" d="M24.052,58.655c-0.44,0.28-1.01,0.42-1.72,0.42h-2.51v3.8h-2.18v-10.61h4.78
c2.11,0.05,3.19,1.18,3.24,3.41c0,0.25-0.05,0.55-0.13,0.92c-0.07,0.36-0.23,0.74-0.47,1.13
C24.842,58.094,24.502,58.405,24.052,58.655z M23.281,56.534c0.1-0.19,0.16-0.37,0.18-0.55c0.01-0.19,0.01-0.34,0.01-0.46
c0.02-0.99-0.62-1.48-1.92-1.47h-1.73v3.14h2.03c0.42,0,0.73-0.07,0.95-0.2C23.022,56.865,23.181,56.715,23.281,56.534z"/>
<path fill="#F1110D" d="M15.371,5.795v14.58h-2.73v-10.04h-3.28v-2h0.38c0.68,0,1.23-0.09,1.65-0.27c0.44-0.15,0.79-0.35,1.04-0.6
c0.49-0.53,0.73-1.09,0.72-1.67H15.371z"/>
<path fill="#F1110D" d="M59.822,140.925c-32.75,0-59.82-22.66-59.82-55.41V0.005h119.64v85.51
C119.642,118.415,92.722,140.925,59.822,140.925z M2.141,85.514c0,32.15,26.79,53.271,57.68,53.271
c31.03,0,57.68-20.96,57.68-53.271V2.145H2.141V85.514z"/>
</g>
<g>
</g>
</g>
</svg>
