<svg id="Layer_1" xmlns:rdf="http://www.w3.org/1999/02/22-rdf-syntax-ns#" xmlns="http://www.w3.org/2000/svg" xml:space="preserve" overflow="visible" height="585.62" viewBox="0 0 439.1875 585.625" width="439.19" version="1.1" enable-background="new 0 0 486 645" xmlns:cc="http://creativecommons.org/ns#" xmlns:dc="http://purl.org/dc/elements/1.1/"><metadata id="metadata99"><rdf:RDF><cc:Work rdf:about=""><dc:format>image/svg+xml</dc:format><dc:type rdf:resource="http://purl.org/dc/dcmitype/StillImage"/><dc:title/></cc:Work></rdf:RDF></metadata>
<g id="g3" transform="translate(-23.40625,-34.5)">
<polygon id="polygon5" stroke="#0065b3" points="27,37,459,37,243,613" stroke-width="5" fill="#FFF"/>
<polygon id="polygon7" stroke="#0065b3" points="43.909,48.545,442.09,48.545,243,579.46" stroke-width="5" fill="#FFF"/>
<polyline id="polyline9" points="242.88,48.545,44.409,48.545,242.88,577.79" fill="#0065b3"/>
<g id="g11">
<polygon id="polygon13" fill-rule="evenodd" stroke="#0065b3" points="291.54,92.782,254.1,92.782,242.57,57.607,231.04,92.782,193.74,92.782,223.92,114.37,212.39,149.4,242.57,127.82,242.57,127.82,272.75,149.4,261.22,114.37" clip-rule="evenodd" stroke-width="2" fill="#F10"/>
</g>
<path id="path15" fill="#FFF" d="m226.31,171v-22.188h15.219v3.75h-10.75v5.25h9.281v3.75h-9.281v9.44h-4.469z"/>
<path id="path17" fill="#0065b3" d="m245.24,171v-22.188h4.469v9.845l9.104-9.845h6.037l-8.387,8.62,8.824,13.568h-5.797l-6.145-10.423-3.636,3.718v6.69h-4.469z"/>
<path id="path19" fill="#FFF" d="m129.31,202.31,7.063-0.688c0.422,2.365,1.279,4.103,2.57,5.212s3.032,1.663,5.226,1.663c2.322,0,4.072-0.492,5.25-1.477s1.767-2.137,1.767-3.456c0-0.846-0.248-1.566-0.744-2.16s-1.362-1.111-2.598-1.551c-0.846-0.29-2.773-0.807-5.781-1.55-3.87-0.952-6.586-2.127-8.146-3.524-2.195-1.966-3.293-4.362-3.293-7.189,0-1.819,0.517-3.521,1.552-5.105s2.525-2.791,4.473-3.619,4.298-1.243,7.052-1.243c4.497,0,7.882,0.994,10.155,2.981s3.467,4.64,3.581,7.956l-7.25,0.25c-0.309-1.843-0.971-3.168-1.986-3.976s-2.539-1.212-4.57-1.212c-2.096,0-3.737,0.432-4.923,1.294-0.764,0.554-1.146,1.294-1.146,2.221,0,0.847,0.357,1.571,1.073,2.173,0.91,0.766,3.121,1.56,6.633,2.383s6.108,1.679,7.791,2.567,3,2.103,3.951,3.643,1.427,3.442,1.427,5.708c0,2.054-0.57,3.977-1.711,5.77s-2.753,3.125-4.838,3.997c-2.085,0.871-4.683,1.308-7.794,1.308-4.528,0-8.006-1.054-10.433-3.161-2.43-2.109-3.879-5.18-4.351-9.215z"/>
<path id="path21" fill="#FFF" d="m164.6,214v-35.813h11.579c4.387,0,7.247,0.18,8.58,0.538,2.048,0.537,3.763,1.706,5.144,3.507s2.072,4.126,2.072,6.977c0,2.2-0.397,4.05-1.192,5.548-0.795,1.499-1.806,2.676-3.03,3.531s-2.47,1.422-3.735,1.698c-1.72,0.343-4.21,0.514-7.471,0.514h-4.7v13.49h-7.251zm7.25-29.75v10.188h3.938c2.836,0,4.731-0.188,5.688-0.563,0.955-0.375,1.705-0.963,2.248-1.763s0.814-1.73,0.814-2.792c0-1.306-0.381-2.383-1.143-3.232s-1.727-1.379-2.893-1.592c-0.859-0.163-2.585-0.245-5.177-0.245h-3.475z"/>
<path id="path23" fill="#FFF" d="m226.55,214h-7.81l-3.102-8.125h-14.449l-2.971,8.12h-7.665l13.987-35.813h7.608l14.39,35.81zm-13.291-14.187-4.99-13.25-4.855,13.25h9.845z"/>
<path id="path25" fill="#0065b3" d="m274.45,214v-29.75h-10.563v-6.063h28.375v6.063h-10.557v29.75h-7.249z"/>
<path id="path27" fill="#0065b3" d="m325.6,214h-7.81l-3.102-8.125h-14.451l-2.979,8.12h-7.665l13.987-35.813h7.608l14.4,35.81zm-13.291-14.187-4.99-13.25-4.855,13.25h9.845z"/>
<path id="path29" fill="#0065b3" d="m329.39,214v-35.813h7.25v15.931l14.678-15.931h9.729l-13.54,13.96,14.23,21.85h-9.355l-9.896-16.796-5.842,5.983v10.82h-7.25z"/>
<path id="path31" fill="#FFF" d="m164.84,238.81,4.375-0.438c0.263,1.462,0.796,2.536,1.6,3.222s1.888,1.028,3.252,1.028c1.445,0,2.534-0.305,3.267-0.916s1.1-1.325,1.1-2.142c0-0.524-0.154-0.971-0.461-1.339s-0.844-0.689-1.611-0.961c-0.524-0.182-1.719-0.506-3.584-0.972-2.4-0.597-4.083-1.331-5.051-2.201-1.361-1.225-2.042-2.717-2.042-4.479,0-1.133,0.32-2.193,0.96-3.18s1.563-1.738,2.768-2.254,2.66-0.774,4.364-0.774c2.783,0,4.878,0.616,6.285,1.848s2.146,2.876,2.216,4.933l-4.469,0.156c-0.192-1.144-0.604-1.966-1.234-2.467s-1.577-0.751-2.839-0.751c-1.303,0-2.322,0.269-3.059,0.805-0.475,0.344-0.712,0.805-0.712,1.381,0,0.526,0.222,0.977,0.665,1.352,0.564,0.476,1.934,0.972,4.111,1.488,2.176,0.517,3.786,1.05,4.829,1.6s1.859,1.303,2.449,2.257c0.589,0.955,0.884,2.134,0.884,3.537,0,1.272-0.354,2.464-1.061,3.575s-1.707,1.937-3,2.477-2.904,0.81-4.834,0.81c-2.809,0-4.965-0.646-6.47-1.94-1.506-1.295-2.405-3.179-2.698-5.655z"/>
<path id="path33" fill="#FFF" d="m186.64,223.81h4.469v12.025c0,1.908,0.056,3.145,0.167,3.71,0.192,0.909,0.649,1.639,1.372,2.189s1.711,0.825,2.965,0.825c1.273,0,2.234-0.26,2.881-0.78s1.036-1.159,1.167-1.916,0.197-2.014,0.197-3.771v-12.283h4.469v11.668c0,2.667-0.121,4.551-0.363,5.652-0.242,1.102-0.688,2.031-1.339,2.789s-1.521,1.361-2.61,1.811-2.512,0.674-4.267,0.674c-2.118,0-3.725-0.245-4.819-0.735-1.095-0.49-1.959-1.126-2.595-1.909s-1.054-1.604-1.255-2.463c-0.293-1.272-0.439-3.151-0.439-5.637v-11.849z"/>
<path id="path35" fill="#FFF" d="m209.09,223.81h8.855c1.753,0,3.06,0.073,3.921,0.219s1.632,0.451,2.312,0.915,1.247,1.081,1.7,1.852,0.68,1.635,0.68,2.592c0,1.038-0.279,1.99-0.838,2.857s-1.315,1.517-2.271,1.95c1.351,0.394,2.389,1.066,3.114,2.015,0.726,0.95,1.088,2.066,1.088,3.349,0,1.01-0.234,1.993-0.703,2.947s-1.108,1.717-1.919,2.288c-0.812,0.571-1.812,0.922-3,1.053-0.746,0.081-2.545,0.131-5.396,0.151h-7.543v-22.188zm4.469,3.687v5.125h2.925c1.739,0,2.819-0.025,3.242-0.076,0.764-0.09,1.364-0.355,1.802-0.793s0.656-1.015,0.656-1.731c0-0.686-0.188-1.242-0.565-1.671-0.377-0.428-0.938-0.688-1.681-0.778-0.442-0.05-1.714-0.076-3.815-0.076h-2.564zm0,8.813v5.938h4.145c1.613,0,2.637-0.045,3.07-0.136,0.666-0.121,1.208-0.416,1.626-0.886s0.628-1.098,0.628-1.886c0-0.666-0.162-1.231-0.484-1.696-0.323-0.464-0.789-0.803-1.399-1.015s-1.934-0.318-3.97-0.318h-3.616z"/>
<path id="path37" fill="#0065b3" d="m260.59,246v-18.438h-6.594v-3.75h17.594v3.75h-6.531v18.44h-4.469z"/>
<path id="path39" fill="#0065b3" d="m274.37,246v-22.188h4.469v22.19h-4.469z"/>
<path id="path41" fill="#0065b3" d="m297.3,237.81,4.344,1.344c-0.666,2.442-1.771,4.255-3.32,5.441-1.547,1.186-3.511,1.778-5.89,1.778-2.944,0-5.364-1.007-7.259-3.022-1.896-2.015-2.844-4.77-2.844-8.265,0-3.696,0.953-6.567,2.857-8.613,1.906-2.045,4.41-3.068,7.516-3.068,2.713,0,4.915,0.803,6.609,2.409,1.008,0.95,1.764,2.313,2.268,4.091l-4.438,1.063c-0.262-1.148-0.808-2.056-1.638-2.721s-1.839-0.998-3.026-0.998c-1.64,0-2.971,0.59-3.992,1.771s-1.531,3.091-1.531,5.734c0,2.804,0.503,4.801,1.51,5.992s2.315,1.785,3.926,1.785c1.188,0,2.21-0.379,3.066-1.138,0.856-0.761,1.469-1.955,1.842-3.583z"/>
<path id="path43" fill="#0065b3" d="m325.49,246h-4.873l-1.9-5.031h-8.859l-1.82,5.03h-4.793l8.572-22.188h4.826l8.84,22.19zm-8.224-8.781-3.073-8.219-2.978,8.219h6.051z"/>
<path id="path45" fill="#FFF" d="m218.08,371h-4.813v-18.154c-1.75,1.647-3.813,2.865-6.188,3.654v-4.375c1.252-0.408,2.613-1.182,4.082-2.322s2.477-2.47,3.023-3.99h3.895v25.19z"/>
<path id="path47" fill="#FFF" d="m225.42,365.14,4.625-0.518c0.113,0.955,0.407,1.663,0.884,2.123s1.105,0.689,1.888,0.689c0.986,0,1.825-0.461,2.517-1.384s1.133-2.829,1.326-5.718c-1.204,1.401-2.709,2.102-4.515,2.102-1.966,0-3.661-0.757-5.087-2.271s-2.138-3.485-2.138-5.913c0-2.529,0.752-4.568,2.258-6.117s3.424-2.323,5.754-2.323c2.533,0,4.613,0.984,6.238,2.951s2.438,5.203,2.438,9.707c0,4.585-0.846,7.893-2.536,9.922-1.691,2.03-3.893,3.045-6.604,3.045-1.952,0-3.529-0.525-4.732-1.578-1.205-1.052-1.976-2.625-2.316-4.717zm10.812-10.48c0-1.537-0.356-2.73-1.067-3.578-0.712-0.848-1.534-1.272-2.467-1.272-0.889,0-1.626,0.348-2.212,1.043s-0.879,1.835-0.879,3.418c0,1.605,0.318,2.784,0.956,3.536,0.637,0.752,1.434,1.128,2.391,1.128,0.922,0,1.698-0.361,2.33-1.085s0.948-1.788,0.948-3.19z"/>
<path id="path49" fill="#0065b3" d="m254.14,371v-5.063h-10.25v-4.171l10.863-15.954h4.012v15.938h3.125v4.188h-3.125v5.05h-4.625zm0-9.25v-8.617l-5.791,8.617h5.791z"/>
<path id="path51" fill="#0065b3" d="m264.29,364.56,4.813-0.493c0.135,1.076,0.536,1.929,1.202,2.558s1.435,0.942,2.304,0.942c0.993,0,1.834-0.409,2.523-1.228,0.688-0.818,1.033-2.051,1.033-3.699,0-1.545-0.349-2.704-1.045-3.477-0.697-0.772-1.604-1.159-2.721-1.159-1.395,0-2.644,0.604-3.749,1.813l-3.86-0.559,2.438-13.004h12.75v4.5h-9.103l-0.785,4.215c1.08-0.518,2.183-0.777,3.309-0.777,2.148,0,3.97,0.777,5.464,2.332,1.493,1.555,2.24,3.572,2.24,6.053,0,2.069-0.597,3.916-1.79,5.539-1.626,2.218-3.883,3.326-6.77,3.326-2.309,0-4.189-0.622-5.645-1.866s-2.324-2.917-2.608-5.016z"/>
<g id="g53">
<path id="path55" fill="#0065b3" d="m258.56,207.07c-1.713-2.781-3.076-4.718-4.086-5.808-1.009-1.09-2.29-2.091-3.841-3.002,3.124-0.456,5.472-1.561,7.042-3.313s2.355-3.974,2.355-6.663c0-2.119-0.52-4.001-1.559-5.647s-2.422-2.791-4.15-3.436c-1.728-0.644-4.498-0.966-8.312-0.966h-3.179v6.063h0.865c2.909,0,4.655,0.041,5.237,0.123,1.163,0.196,2.064,0.666,2.703,1.41s0.958,1.722,0.958,2.932c0,1.079-0.243,1.979-0.728,2.698-0.485,0.72-1.156,1.227-2.013,1.521-0.857,0.295-3.007,0.441-6.449,0.441h-0.574v5.998c0.115,0.031,0.244,0.057,0.343,0.092,0.762,0.269,1.482,0.765,2.163,1.487s1.945,2.474,3.793,5.251l5.146,7.797h8.629l-4.343-6.978z"/>
<path id="path57" fill="#FFF" d="m242.78,193.42h-5.029v-9.125h5.029v-6.063h-12.279v35.813h7.25v-14.94h1.459c1.62,0,2.806,0.131,3.57,0.389v-6.076z"/>
</g>
<g id="g59">
<path id="path61" fill="#0065b3" d="m248.62,226.44c-1.531-1.586-3.465-2.544-5.792-2.894v3.981c0.947,0.299,1.762,0.825,2.439,1.586,1.115,1.253,1.673,3.154,1.673,5.701,0,2.577-0.573,4.51-1.718,5.799-0.683,0.769-1.483,1.302-2.394,1.612v4.016c2.341-0.341,4.284-1.299,5.815-2.893,1.948-2.028,2.922-4.837,2.922-8.428,0-3.621-0.981-6.447-2.945-8.48z"/>
<path id="path63" fill="#FFF" d="m242.83,242.23c-0.593,0.191-1.233,0.29-1.922,0.29-1.787,0-3.261-0.649-4.422-1.948s-1.741-3.206-1.741-5.724c0-2.557,0.565-4.469,1.696-5.738,1.131-1.268,2.62-1.902,4.468-1.902,0.692,0,1.333,0.088,1.922,0.264v-3.962c-0.631-0.09-1.286-0.146-1.975-0.146-1.807,0-3.402,0.293-4.785,0.88-1.04,0.435-1.997,1.103-2.87,2.003s-1.562,1.916-2.066,3.049c-0.677,1.538-1.015,3.439-1.015,5.705,0,3.54,0.974,6.319,2.922,8.337s4.573,3.026,7.874,3.026c0.668,0,1.301-0.054,1.915-0.139v-3.995z"/>
</g>
<rect id="rect65" height="645" width="486" y="0" x="0" fill="none"/>
</g>
<g id="g67" fill-rule="evenodd" clip-rule="evenodd" transform="translate(-23.40625,-34.5)">
<path id="path69" d="m216.56,303.41c2.308,1.487,4.616,1.553,6.924,1.391,2.138,2.523,6.719,5.046,12.217,2.651,0.882-0.354,1.765-0.97,2.579-1.391,1.222,0.777,1.969,1.197,3.699,1.229,6.211,0.064,8.349-6.113,8.179-11.028-0.17-4.398-3.631-8.216-8.416-8.15-1.561,0.031-1.9-0.228-2.443-1.649-0.441-1.197-0.713-2.588-1.019-3.85-0.475-2.005-1.018-3.946-1.73-5.886-2.681-7.116-10.316-11.644-18.123-11.353-12.251,0.42-25.045,7.729-36.109,12.419-1.968,0.809-3.937,1.585-5.938,2.296-5.973,2.168-12.285,3.59-18.563,3.979,1.968,2.587,4.445,4.527,8.145,5.11,1.833,2.134,4.276,3.654,6.618,4.01,3.292,4.916,11.2,6.89,17.376,4.787,3.869,2.037,8.314,2.943,13.372,2.458,1.693,1.166,4.035,4.918,13.232,2.977z" fill="#3F92D9"/>
<path id="path71" d="m217.24,289.27c-4.514,0.646-8.009-2.426-9.672-6.178,3.326,1.455,6.957,1.488,9.231,1.293,3.122-0.29,5.904-0.84,8.755-2.489-1.086,4.689-6.346,5.854-7.331,6.048,1.12,1.487,3.768,2.651,5.872,2.685,4.717,0.031,7.5-4.398,7.126-1.327-0.238,1.424-0.678,2.201-2.104,2.912,0.95,3.46,3.767,3.751,5.463,3.751h6.38c1.392,0,1.392,2.135,0,2.135h-4.377c-1.154,0-2.443,0.194-3.088,1.1-1.29,1.844-2.952,3.979-5.973,5.143,6.958,2.75,8.857-1.811,10.521-1.844,1.935-0.032,2.07,1.294,3.971,1.294,3.19,0.064,4.616-3.493,4.514-7.438-0.102-2.685-2.104-4.819-4.717-4.787-3.259,0.064-4.921-1.196-5.939-3.945-0.848-2.329-1.256-5.725-2.749-9.735-2.172-5.757-8.382-9.283-14.559-9.057-14.254,0.485-29.119,11.224-45.238,15.945,2.511,1.359,4.547,1.326,9.468,1.229-1.018,1.65-3.733,2.265-8.552,3.591,5.566,2.458,15.713,0.292,19.106-1.973-1.798,4.851-10.928,5.336-14.966,5.918,2.002,1.974,5.26,2.49,8.281,2.135,4.378-0.518,8.654-2.749,11.233-3.978-0.033,2.555-2.07,4.042-4.309,5.077,5.938,2.07,13.54,2.395,18.054-2.846-4.31,0.42-10.52-0.971-9.333-5.952,2.069,2.49,11.674,6.63,14.932,1.293zm7.228,3.785c-1.255,1.973-4.377,2.521-5.973,2.135-1.968-0.519-1.085-2.943,0-3.914,2.036,1.196,3.292,1.908,5.973,1.779zm2.749,1.454c-1.493,2.038-4.242,4.756-7.092,6.243,2.647,1.521,5.294,1.584,7.432,0.323,1.664-1.002,2.206-1.521,3.292-3.558-1.256,0.162-2.851-1.422-3.632-3.008zm-12.693,0.356c-2.341,2.361-3.631,3.429-6.617,4.463,2.647,1.488,6.686,1.554,8.823,0.323,1.323-0.743,2.647-1.616,3.156-2.327-2.578,0-4.377-1.617-5.362-2.459zm13.847-12.808c-0.984-0.031-4.242-4.624-7.772-5.466-3.428-0.84-7.602-0.483-11.912-0.646,2.036-1.941,4.955-2.944,8.755-3.364,2.274-0.259,6.007-0.129,8.146,1.844,1.052,1.002,2.172,2.394,2.307,3.655,0.17,1.487,1.392,1.52,1.493,2.328,0.103,0.841-0.168,1.585-1.017,1.649zm-22.568-2.845c-0.543,2.942-3.055,5.982-6.109,5.918-2.885-0.063-5.125-2.586-5.396-5.854,1.935,1.65,4.039,2.006,5.939,1.941,2.409-0.097,3.597-0.874,5.566-2.005z" fill="#FFF"/>
<path id="path73" d="m246.05,262.14c0.747,0,1.493,0.064,2.24,0.161v67.468c-0.747,0.097-1.493,0.161-2.24,0.161-0.815,0-1.595-0.064-2.375-0.193-6.448-1.067-11.166-6.112-14.084-11.385-3.767-6.695-5.328-14.78-5.328-22.317,0-7.535,1.561-15.621,5.328-22.348,3.258-5.856,8.959-11.547,16.459-11.547z" fill="#FFF"/>
<path id="path75" d="m252.33,276.21c-12.693-7.019-16.358,14.521-16.29,20.44,0.271,21.54,11.402,23.061,13.438,21.152l5.295-4.075c2.715-4.464,4.038-8.539,4.717-12.646l-1.73-17.626c-1.697-2.653-3.088-5.079-5.43-7.245z" fill="#3F92D9"/>
<path id="path77" d="m246.05,264.43c10.69,0,19.344,14.166,19.344,31.599,0,17.434-8.654,31.6-19.344,31.6s-19.378-14.166-19.378-31.6c0-17.433,8.688-31.599,19.378-31.599zm0,1.747c9.672,0,17.511,13.357,17.511,29.852,0,16.496-7.839,29.853-17.511,29.853-9.706,0-17.545-13.356-17.545-29.853,0-16.495,7.84-29.852,17.545-29.852z" fill="#3F92D9"/>
<path id="path79" d="m246.05,266.18c9.672,0,17.511,13.357,17.511,29.852,0,16.496-7.839,29.853-17.511,29.853-9.706,0-17.545-13.356-17.545-29.853,0-16.495,7.84-29.852,17.545-29.852zm-10.283,19.599,6.958,7.018c-0.306,1.197-0.476,2.491-0.476,3.882,0,0.582,0.034,1.197,0.102,1.746l-6.957,6.954c-0.645-2.781-1.018-5.822-1.018-9.023,0-3.785,0.509-7.376,1.391-10.577zm2.511,27.33,6.007-8.927c0.984,1.52,2.273,2.522,3.699,2.781l1.697,12.613c-0.713,0.194-1.425,0.292-2.172,0.292-3.596,0.001-6.855-2.587-9.231-6.759zm17.342,1.78-3.495-9.348c1.867-1.844,3.122-5.11,3.122-8.862,0-3.332-0.984-6.307-2.511-8.215l4.751-7.407c1.968,4.108,3.19,9.444,3.19,15.299,0.001,7.535-2.002,14.231-5.057,18.533zm-3.223-40.366-3.258,11.806c-0.102-0.032-0.238-0.032-0.374-0.032-1.425,0-2.715,0.711-3.767,1.908l-5.633-10.317c2.24-3.171,5.09-5.047,8.145-5.047,1.73,0,3.393,0.584,4.887,1.682zm-9.027,16.367c0.135-0.355,0.305-0.712,0.475-1.036l-5.566-10.22c-0.712,1.294-1.357,2.717-1.9,4.237l6.991,7.019zm8.042-3.687c-0.17-0.131-0.339-0.228-0.543-0.324l3.055-11.062c0.949,0.938,1.832,2.103,2.613,3.396l-5.125,7.99zm-0.815,19.405c-0.271,0.13-0.509,0.227-0.78,0.29l1.561,11.967c1.019-0.582,1.968-1.325,2.85-2.296l-3.631-9.961zm-7.262-4.237c-0.238-0.55-0.441-1.164-0.611-1.811l-6.821,6.791c0.407,1.391,0.916,2.717,1.459,3.914l5.973-8.894z" fill="#FFF"/>
<path id="path81" d="m247.51,271.1c1.9,0,3.698,0.581,5.362,1.682l-0.475,1.746c-1.494-1.099-3.157-1.683-4.887-1.683-3.055,0-5.905,1.876-8.145,5.047l-0.882-1.65c2.511-3.235,5.633-5.142,9.027-5.142zm-9.232,8.538c-0.712,1.294-1.357,2.717-1.9,4.237l-1.357-1.359c0.645-1.714,1.425-3.234,2.307-4.624l0.95,1.746zm-2.511,6.145c-0.882,3.201-1.391,6.792-1.391,10.576,0,3.201,0.374,6.242,1.018,9.023l-1.493,1.456c-0.849-3.203-1.324-6.728-1.324-10.479,0-4.334,0.645-8.442,1.799-11.999l1.391,1.423zm22.805-6.436c2.443,4.495,3.903,10.479,3.903,17.013,0,8.409-2.409,15.815-6.143,20.407l-0.713-1.874c3.055-4.302,5.058-10.998,5.058-18.533,0-5.854-1.223-11.19-3.19-15.299l1.085-1.714zm-2.035-0.129c-0.781-1.294-1.664-2.459-2.613-3.396l0.543-1.876,2.85,4.075-0.78,1.197zm-1.664,39.135c-1.018,0.971-2.103,1.746-3.257,2.329l-0.238-1.813c1.019-0.549,1.968-1.325,2.85-2.296l0.645,1.78zm-4.954,2.943c-0.781,0.227-1.596,0.323-2.41,0.323-3.971,0-7.602-2.651-10.283-6.922l1.051-1.584c2.375,4.172,5.634,6.76,9.231,6.76,0.747,0,1.459-0.098,2.172-0.292l0.239,1.715z" fill="#3F92D9"/>
<path id="path83" d="m235.02,282.42,8.349,8.475c0.135-0.355,0.305-0.712,0.475-1.036l-6.55-12.128-2.274,4.689z" fill="#3F92D9"/>
<path id="path85" d="m254.47,273.88-3.631,13.099c0.407,0.032,0.238,0.162,0.611,0.228l5.904-9.218-2.884-4.109z" fill="#3F92D9"/>
<path id="path87" d="m254.94,318.51-4.344-11.901c-0.271,0.13-0.509,0.227-0.78,0.29l1.867,14.265,3.257-2.654z" fill="#3F92D9"/>
<path id="path89" d="m234.34,308.68,1.901,4.14,7.364-10.058c-0.237-0.582-0.713-1.553-0.882-2.199l-8.383,8.117z" fill="#3F92D9"/>
<path id="path91" d="m278.6,303.15c-2.309,1.489-4.616,1.553-6.924,1.391-2.139,2.523-6.72,5.046-12.218,2.685-0.883-0.387-1.764-1.002-2.579-1.391-1.222,0.744-1.969,1.165-3.699,1.197-6.21,0.097-8.348-6.112-8.179-11.028,0.136-4.398,3.631-8.184,8.383-8.15,1.595,0.031,1.935-0.227,2.443-1.617,0.441-1.229,0.747-2.62,1.052-3.882,0.475-1.973,0.985-3.945,1.73-5.854,2.647-7.114,10.284-11.675,18.09-11.384,12.251,0.421,25.079,7.763,36.143,12.42,1.934,0.809,3.902,1.617,5.905,2.329,6.006,2.134,12.319,3.557,18.598,3.945-1.969,2.588-4.48,4.526-8.146,5.142-1.832,2.104-4.31,3.623-6.651,4.011-3.292,4.917-11.166,6.89-17.343,4.755-3.869,2.069-8.313,2.943-13.371,2.49-1.696,1.131-4.038,4.914-13.234,2.941z" fill="#3F92D9"/>
<path id="path93" d="m277.92,289.04c4.513,0.647,7.975-2.457,9.638-6.178-3.326,1.424-6.924,1.489-9.197,1.262-3.122-0.291-5.938-0.809-8.756-2.457,1.053,4.657,6.347,5.821,7.33,6.048-1.153,1.456-3.766,2.62-5.87,2.652-4.718,0.064-7.501-4.398-7.127-1.327,0.203,1.424,0.679,2.2,2.104,2.912-0.95,3.493-3.801,3.752-5.464,3.752h-6.38c-1.392,0-1.392,2.134,0,2.134l4.377,0.033c1.121,0,2.443,0.161,3.055,1.067,1.324,1.875,2.987,3.978,5.974,5.142-6.957,2.781-8.824-1.811-10.521-1.844-1.9-0.032-2.037,1.294-3.971,1.327-3.155,0.032-4.615-3.493-4.479-7.44,0.102-2.684,2.104-4.818,4.717-4.786,3.259,0.032,4.887-1.229,5.905-3.978,0.883-2.329,1.289-5.726,2.783-9.704,2.138-5.756,8.382-9.314,14.524-9.087,14.288,0.484,29.118,11.223,45.272,15.945-2.512,1.357-4.548,1.357-9.503,1.229,1.053,1.649,3.768,2.296,8.586,3.59-5.599,2.458-15.713,0.292-19.105-1.973,1.799,4.852,10.928,5.336,14.966,5.951-2.003,1.939-5.26,2.458-8.28,2.135-4.412-0.518-8.688-2.781-11.233-4.011,0.033,2.555,2.07,4.042,4.275,5.078-5.938,2.102-13.541,2.393-18.054-2.847,4.344,0.42,10.554-0.971,9.366-5.951-2.071,2.49-11.709,6.664-14.932,1.326zm-7.263,3.785c1.256,1.973,4.377,2.523,5.973,2.103,2.003-0.519,1.12-2.911,0-3.915-2.037,1.198-3.292,1.909-5.973,1.812zm-2.716,1.423c1.494,2.037,4.208,4.787,7.06,6.274-2.613,1.487-5.261,1.553-7.398,0.291-1.697-0.97-2.206-1.488-3.326-3.558,1.255,0.163,2.884-1.422,3.664-3.007zm12.659,0.356c2.343,2.361,3.665,3.428,6.651,4.495-2.646,1.487-6.686,1.52-8.856,0.291-1.29-0.744-2.613-1.616-3.122-2.328,2.579,0,4.377-1.586,5.327-2.458zm-13.85-12.8c1.018-0.031,4.276-4.592,7.771-5.466,3.462-0.84,7.603-0.484,11.946-0.646-2.036-1.939-4.989-2.943-8.79-3.363-2.273-0.227-6.007-0.097-8.111,1.876-1.052,0.97-2.172,2.361-2.308,3.654-0.203,1.488-1.392,1.488-1.492,2.297-0.102,0.839,0.135,1.585,0.984,1.648zm22.568-2.813c0.576,2.911,3.088,5.951,6.108,5.887,2.918-0.065,5.159-2.556,5.396-5.855-1.9,1.683-4.004,2.038-5.904,1.941-2.409-0.097-3.631-0.841-5.6-1.973z" fill="#FFF"/>
</g>
</svg>
