<?xml version="1.0" encoding="UTF-8" standalone="no"?>
<svg
   xmlns:dc="http://purl.org/dc/elements/1.1/"
   xmlns:cc="http://creativecommons.org/ns#"
   xmlns:rdf="http://www.w3.org/1999/02/22-rdf-syntax-ns#"
   xmlns:svg="http://www.w3.org/2000/svg"
   xmlns="http://www.w3.org/2000/svg"
   xmlns:sodipodi="http://sodipodi.sourceforge.net/DTD/sodipodi-0.dtd"
   xmlns:inkscape="http://www.inkscape.org/namespaces/inkscape"
   width="156.99858"
   version="1.1"
   height="211.12604"
   viewBox="0 0 125.59886 168.90083"
   id="svg2909"
   inkscape:version="0.47 r22583"
   sodipodi:docname="Alianza-Seite001.svg">
  <metadata
     id="metadata2998">
    <rdf:RDF>
      <cc:Work
         rdf:about="">
        <dc:format>image/svg+xml</dc:format>
        <dc:type
           rdf:resource="http://purl.org/dc/dcmitype/StillImage" />
        <dc:title></dc:title>
      </cc:Work>
    </rdf:RDF>
  </metadata>
  <sodipodi:namedview
     pagecolor="#ffffff"
     bordercolor="#666666"
     borderopacity="1"
     objecttolerance="10"
     gridtolerance="10"
     guidetolerance="10"
     inkscape:pageopacity="0"
     inkscape:pageshadow="2"
     inkscape:window-width="640"
     inkscape:window-height="481"
     id="namedview2996"
     showgrid="false"
     inkscape:zoom="0.97319588"
     inkscape:cx="76.896955"
     inkscape:cy="103.06329"
     inkscape:window-x="0"
     inkscape:window-y="0"
     inkscape:window-maximized="0"
     inkscape:current-layer="svg2909" />
  <defs
     id="defs2911">
    <inkscape:perspective
       sodipodi:type="inkscape:persp3d"
       inkscape:vp_x="0 : 121.25 : 1"
       inkscape:vp_y="0 : 1000 : 0"
       inkscape:vp_z="242.5 : 121.25 : 1"
       inkscape:persp3d-origin="121.25 : 80.833333 : 1"
       id="perspective3000" />
    <clipPath
       id="Clip0">
      <path
         d="m 0,0 192.756,0 0,192.756 L 0,192.756 0,0 z"
         transform="translate(0.259766,0.676758)"
         id="path2914" />
    </clipPath>
  </defs>
  <g
     id="Hintergrund"
     transform="matrix(0.97448823,0,0,0.97624331,-31.372966,-10.299172)">
    <g
       id="Gruppe1"
       clip-path="url(#Clip0)">
      <path
         style="fill:#ffffff;fill-rule:evenodd;stroke:none"
         d="m 0,0 0,155.594 c 0,7.695 6.2393,13.934 13.9356,13.934 l 97.5354,0 c 7.696,0 13.934,-6.239 13.934,-13.934 L 125.405,0 0,0 z"
         transform="translate(33.9355,12.291)"
         id="path2920" />
      <path
         style="fill:#004193;fill-rule:nonzero;stroke:none"
         d="m 3.4834,3.4834 0,153.8516 c 0,3.367 1.3653,6.415 3.5713,8.621 2.2061,2.206 5.2549,3.571 8.6221,3.571 l 97.5352,0 c 3.367,0 6.415,-1.365 8.621,-3.571 2.206,-2.206 3.571,-5.254 3.571,-8.621 l 0,-153.8516 -121.9206,0 z M 0,0 l 128.887,0 0,157.335 c 0,4.328 -1.754,8.247 -4.591,11.084 -2.837,2.837 -6.756,4.592 -11.084,4.592 l -97.5352,0 c -4.3291,0 -8.2481,-1.755 -11.085,-4.592 C 1.7549,165.582 0,161.663 0,157.335 L 0,0 z"
         transform="translate(32.1943,10.5498)"
         id="path2922" />
      <path
         style="fill:#ffffff;fill-rule:evenodd;stroke:none"
         d="M 80.5497,0 0,0 l 0,33.1094 80.5497,0 0,-33.1094 z"
         transform="translate(56.3633,36.9502)"
         id="path2924" />
      <path
         style="fill:#004193;fill-rule:evenodd;stroke:none"
         d="m 0,0 0,6.9668 10.4482,0 0,81.4416 10.8848,0 0,-81.4416 13.499,0 0,81.4416 10.8857,0 0,-81.4416 13.498,0 0,81.4416 10.886,0 0,-81.4416 10.448,0 L 80.5497,0 0,0 z"
         transform="translate(56.3633,70.0596)"
         id="path2926" />
      <path
         style="fill:#003580;fill-rule:evenodd;stroke:none"
         d="m 3.7627,9.4882 1.9638,-5.0781 2.1114,5.0781 -4.0752,0 z m 10.4502,4.4102 c -1.0039,0.042 -1.3379,-0.669 -2.2783,-2.9053 L 7.2734,0 6.6885,0 2.0488,11.4531 C 1.4219,13.0205 1.1289,13.7314 0,13.8984 l 0,0.5225 4.2431,0 0,-0.5225 C 3.5332,13.8564 2.5293,13.7939 2.5293,13 c 0,-0.334 0.334,-1.1915 0.9189,-2.6973 l 4.7031,0 c 0.293,0.6699 0.961,2.2168 0.961,2.7803 0,0.6904 -0.376,0.7109 -1.6719,0.8154 l 0,0.5225 6.7725,0 0,-0.5225 z"
         transform="translate(49.7383,17.6104)"
         id="path2928" />
      <path
         style="fill:#003580;fill-rule:evenodd;stroke:none"
         d="M 12.081,14.128 0,14.128 0,13.6055 c 1.1699,-0.1465 1.7969,-0.209 1.7969,-1.4844 l 0,-10.1152 C 1.7969,0.627 0.9404,0.585 0,0.5215 L 0,0 l 7.2949,0 0,0.5215 C 5.832,0.585 5.1836,0.6055 5.1836,2.4453 l 0,9.8643 c 0,1.0029 0.459,1.1709 1.8603,1.1709 3.1553,0 4.3262,-1.7354 5.2871,-4.0977 l 0.6065,0 -0.8565,4.7452 z"
         transform="translate(65.0254,17.9033)"
         id="path2930" />
      <path
         style="fill:#003580;fill-rule:evenodd;stroke:none"
         d="M 7.3144,14.128 0,14.128 0,13.6055 C 1.1289,13.501 1.9433,13.417 1.9433,12.1211 l 0,-10.1152 C 1.9433,0.627 0.9609,0.585 0,0.5215 L 0,0 l 7.3144,0 0,0.5215 C 6.332,0.5635 5.3291,0.585 5.3291,2.0059 l 0,10.1152 c 0,1.3379 0.8359,1.4004 1.9853,1.4844 l 0,0.5225 z"
         transform="translate(78.3721,17.9033)"
         id="path2932" />
      <path
         style="fill:#003580;fill-rule:evenodd;stroke:none"
         d="m 3.7618,9.4882 1.9648,-5.0781 2.1113,5.0781 -4.0761,0 z m 10.4491,4.4102 c -1.0019,0.042 -1.3359,-0.669 -2.2773,-2.9053 L 7.2735,0 6.6885,0 2.0479,11.4531 C 1.4209,13.0205 1.128,13.7314 0,13.8984 l 0,0.5225 4.2432,0 0,-0.5225 C 3.5323,13.8564 2.5284,13.7939 2.5284,13 c 0,-0.334 0.3349,-1.1915 0.9199,-2.6973 l 4.7021,0 c 0.293,0.6699 0.9619,2.2168 0.9619,2.7803 0,0.6904 -0.3759,0.7109 -1.6718,0.8154 l 0,0.5225 6.7704,0 0,-0.5225 z"
         transform="translate(86.4111,17.6104)"
         id="path2934" />
      <path
         style="fill:#003580;fill-rule:evenodd;stroke:none"
         d="m 0,13.6055 c 1.254,-0.1465 1.839,-0.293 1.839,-1.6719 l 0,-9.9072 C 0.669,0.585 0.334,0.5215 0.062,0.5215 l 0,-0.5215 4.41,0 7.253,8.9238 0.041,0 0,-6.333 c 0,-1.2539 -0.25,-1.9443 -1.943,-2.0693 l 0,-0.5215 4.493,0 0,0.5215 c -1.505,0.1885 -1.63,0.669 -1.63,1.6719 l 0,12.3105 -0.585,0 -9.3,-11.3281 -0.042,0 0,8.3604 c 0,1.5048 0.439,1.9023 1.985,2.0693 l 0,0.5225 -4.744,0 0,-0.5225 z"
         transform="translate(100.882,17.9033)"
         id="path2936" />
      <path
         style="fill:#003580;fill-rule:evenodd;stroke:none"
         d="M 12.122,14.128 0,14.128 0,13.794 7.985,0.7305 C 4.452,0.836 4.452,0.836 3.763,1.044 2.196,1.5254 1.611,3.2393 1.234,4.3047 l -0.585,0 L 1.087,0 l 10.952,0 0,0.334 -7.921,13.0625 c 4.661,0.0625 6.918,0.084 8.004,-4.3057 l 0.544,0 -0.544,5.0372 z"
         transform="translate(115.908,17.9033)"
         id="path2938" />
      <path
         style="fill:#003580;fill-rule:evenodd;stroke:none"
         d="m 3.761,9.4882 1.965,-5.0781 2.112,5.0781 -4.077,0 z m 10.452,4.4102 c -1.004,0.042 -1.337,-0.669 -2.279,-2.9053 L 7.273,0 6.688,0 2.048,11.4531 C 1.421,13.0205 1.129,13.7314 0,13.8984 l 0,0.5225 4.243,0 0,-0.5225 C 3.532,13.8564 2.529,13.7939 2.529,13 c 0,-0.334 0.334,-1.1915 0.919,-2.6973 l 4.702,0 c 0.293,0.6699 0.962,2.2168 0.962,2.7803 0,0.6904 -0.376,0.7109 -1.671,0.8154 l 0,0.5225 6.772,0 0,-0.5225 z"
         transform="translate(129.139,17.6104)"
         id="path2940" />
      <path
         style="fill:#003580;fill-rule:evenodd;stroke:none"
         d="m 14.8379,5.518 c 0,-0.022 0.002,-0.042 0.002,-0.063 0,-1.172 -0.2178,-1.991 -0.6074,-2.67 -0.2208,-0.58 -0.417,-1.022 -0.417,-1.259 0,-0.565 0.4394,-0.753 0.9609,-0.961 l 0,-0.565 -4.8897,0 0,0.523 c 1.8184,0.731 4.2627,2.487 4.2627,4.87 0,0.577 -0.1152,1.074 -0.3242,1.501 C 13.7139,7.088 13.585,7.287 13.4405,7.484 12.3057,8.84 9.9492,9.259 7.42,9.259 3.8877,9.259 0.6905,8.444 0.6905,5.393 0.6905,5.314 0.6944,5.235 0.6983,5.156 0.8526,2.894 3.1953,1.23 4.9532,0.523 l 0,-0.523 -4.8897,0 0,0.565 c 0.5215,0.208 0.96,0.396 0.96,0.961 0,0.207 -0.1475,0.568 -0.3321,1.039 C 0.2354,3.264 0,4.105 0,5.455 0,5.476 0.002,5.496 0.002,5.518 0.002,5.531 0,5.545 0,5.559 0,6.111 0.0518,6.64 0.1494,7.143 c 0.6983,3.788 3.7569,5.815 7.1866,5.815 0.0283,0 0.0556,-10e-4 0.084,-0.002 0.0273,0.001 0.0556,0.002 0.083,0.002 3.4296,0 6.4882,-2.027 7.1865,-5.815 0.0986,-0.503 0.1504,-1.032 0.1504,-1.584 0,-0.014 -0.002,-0.028 -0.002,-0.041 z"
         transform="translate(37.8779,111.743)"
         id="path2942" />
      <path
         style="fill:#003580;fill-rule:evenodd;stroke:none"
         d="m 14.1279,0.8574 0,12.0815 -0.5224,0 c -0.1465,-1.172 -0.209,-1.799 -1.4834,-1.799 l -10.1163,0 c -1.3798,0 -1.4209,0.857 -1.4843,1.799 l -0.5215,0 0,-7.295 0.5215,0 c 0.0634,1.463 0.084,2.111 1.9228,2.111 l 9.8653,0 c 1.0029,0 1.1709,-0.46 1.1709,-1.86 0,-3.1566 -1.7354,-4.3275 -4.0977,-5.2884 l 0,-0.6065 4.7451,0.8574 z"
         transform="translate(38.1924,97.1621)"
         id="path2944" />
      <path
         style="fill:#003580;fill-rule:evenodd;stroke:none"
         d="m 0.5215,0 c 0.167,1.1504 0.3974,1.6309 1.7763,1.6309 l 6.668,0 c 1.2334,0 3.0928,0.292 4.0332,1.1709 1.1289,1.0449 1.5264,2.8642 1.5264,4.1172 0,0.9189 -0.126,2.8847 -1.3174,4.2422 -0.794,0.8994 -1.5254,1.4433 -3.7832,1.4433 l -6.9805,0 c -1.7558,0 -1.7978,0.543 -1.9228,1.7139 l -0.5215,0 0,-7.0654 0.5215,0 c 0.0634,1.3798 0.084,2.0283 1.9228,2.0283 l 6.9805,0 c 1.1914,0 4.0762,0 4.0762,-3.0098 0,-3.6787 -3.1973,-3.7207 -4.5352,-3.7207 l -6.375,0 c -1.2754,0 -1.9853,0.251 -2.0693,2.0479 L 0,4.5987 0,0 0.5215,0 z"
         transform="translate(38.1924,82.6699)"
         id="path2946" />
      <path
         style="fill:#003580;fill-rule:evenodd;stroke:none"
         d="m 6.958,7.4199 0,-0.6269 c 0.0635,-1.3594 0.3769,-3.1983 3.3662,-3.1983 1.2744,0 3.1348,0.2715 3.1348,2.5713 0,0.8779 -0.334,1.2539 -1.2754,1.2539 l -5.2256,0 z m -5.3086,0 C 1.1699,7.3994 0.626,7.3779 0.626,6.3115 c 0,-1.6924 1.2334,-2.1523 2.6962,-2.1523 2.1319,0 3.0098,0.4599 3.0098,3.2607 l -4.6826,0 z m 12.4785,5.1826 0,-6.7295 C 14.0449,1.4629 11.9961,0 10.2402,0 7.8574,0 6.8125,2.1943 6.5195,3.9502 l -0.041,0 C 6.207,3.0723 5.6631,0.71 3.3437,0.71 0.083,0.71 0,4.9746 0,6.1445 l 0,6.458 0.5215,0 C 0.5849,11.6416 0.626,10.7646 2.0058,10.7646 l 10.1163,0 c 1.2744,0 1.3584,0.667 1.4834,1.8379 l 0.5224,0 z"
         transform="translate(38.1924,69.6084)"
         id="path2948" />
      <path
         style="fill:#003580;fill-rule:evenodd;stroke:none"
         d="M 0,12.081 0,0 0.523,0 c 0.146,1.1709 0.21,1.7978 1.484,1.7978 l 10.116,0 c 1.379,0 1.421,-0.8564 1.485,-1.7978 l 0.521,0 0,7.2949 -0.521,0 C 13.544,5.832 13.524,5.1836 11.684,5.1836 l -9.865,0 c -1.003,0 -1.17,0.4599 -1.17,1.8613 0,3.1553 1.734,4.3252 4.097,5.2861 l 0,0.6065 L 0,12.081 z"
         transform="translate(140.955,69.9629)"
         id="path2950" />
      <path
         style="fill:#003580;fill-rule:evenodd;stroke:none"
         d="M 0,7.3164 0,0 0.523,0 c 0.104,1.1298 0.188,1.9443 1.484,1.9443 l 10.116,0 c 1.379,0 1.421,-0.9824 1.485,-1.9443 l 0.521,0 0,7.3164 -0.521,0 C 13.566,6.333 13.544,5.33 12.123,5.33 l -10.116,0 c -1.338,0 -1.4,0.836 -1.484,1.9864 l -0.523,0 z"
         transform="translate(140.955,83.46)"
         id="path2952" />
      <path
         style="fill:#003580;fill-rule:evenodd;stroke:none"
         d="m 0,18.9573 0,-6.939 0.523,0 c 0.126,1.253 0.188,1.861 1.568,1.861 l 10.534,0 0,-0.042 L 0,8.6114 0,8.0469 12.311,2.8213 l 0,-0.041 -9.719,0 c -1.463,0 -1.965,0.375 -2.069,2.1094 L 0,4.8897 0,0 0.523,0 c 0.146,1.6299 0.46,1.9024 1.672,1.9024 l 9.928,0 c 1.087,0 1.379,-0.377 1.485,-1.8613 l 0.521,0 0,5.288 -9.864,4.1802 9.864,4.181 0,5.267 -0.521,0 c -0.084,-1.17 -0.126,-1.84 -1.924,-1.84 l -9.238,0 c -1.672,0 -1.735,0.46 -1.923,1.84 l -0.523,0 z"
         transform="translate(140.955,91.3027)"
         id="path2954" />
      <path
         style="fill:#003580;fill-rule:evenodd;stroke:none"
         d="m 4.934,3.762 5.079,1.965 -5.079,2.11 0,-4.075 z M 0.523,14.213 C 0.482,13.209 1.191,12.875 3.43,11.934 l 10.993,-4.66 0,-0.586 L 2.969,2.048 C 1.401,1.421 0.691,1.128 0.523,0 L 0,0 l 0,4.243 0.523,0 C 0.566,3.532 0.627,2.53 1.422,2.53 c 0.334,0 1.191,0.333 2.696,0.918 l 0,4.704 C 3.449,8.444 1.902,9.113 1.339,9.113 0.649,9.113 0.627,8.736 0.523,7.44 l -0.523,0 0,6.773 0.523,0 z"
         transform="translate(140.955,110.313)"
         id="path2956" />
      <path
         style="fill:#003580;fill-rule:evenodd;stroke:none"
         d="m 6.5673,11.983 -6.5322,0 0,-0.418 c 2.0205,0.017 2.0723,-0.661 2.0723,-1.742 l 0,-6.706 c 0,-0.434 0,-1.201 -0.6787,-1.201 C 1.1845,1.916 0.5927,2.124 0,2.352 L 0,1.899 4.3896,0 l 0.2959,0 0,9.927 c 0,1.167 0.1563,1.638 1.8818,1.638 l 0,0.418 z"
         transform="translate(81.1768,163.74)"
         id="path2958" />
      <path
         style="fill:#003580;fill-rule:evenodd;stroke:none"
         d="m 2.6474,2.944 c 0,-1.376 0,-2.473 1.0625,-2.473 1.0801,0 1.3408,1.079 1.3408,4.511 0,0.4 -0.1045,1.289 -0.1562,1.566 C 4.8759,6.688 4.4072,6.775 4.1279,6.775 2.9267,6.775 2.6474,5.451 2.6474,2.944 z M 0.0869,12.209 C 5.3125,11.687 7.7861,8.343 7.7861,5.173 7.7861,0.992 5.3652,0 3.7978,0 0.6621,0 0,2.96 0,3.902 0,6.898 1.9511,7.559 3.1533,7.559 3.4668,7.559 3.7275,7.542 3.9892,7.489 4.25,7.454 4.4941,7.367 4.7558,7.228 3.8671,10.52 1.8291,11.408 0.0869,11.757 l 0,0.452 z"
         transform="translate(88.6436,163.74)"
         id="path2960" />
      <path
         style="fill:#003580;fill-rule:evenodd;stroke:none"
         d="m 5.1205,8.116 c 0,1.15 -0.157,2.265 -0.244,2.63 -0.087,0.348 -0.279,0.976 -0.923,0.976 -0.906,0 -1.202,-1.115 -1.202,-3.606 l 0,-3.989 c 0,-1.444 0,-3.639 1.167,-3.639 0.836,0 1.202,1.01 1.202,3.639 l 0,3.989 z M 0,6.201 c 0,3.5 1.7061,6.008 3.9355,6.008 2.439,0 3.937,-2.874 3.937,-6.008 C 7.8725,2.02 5.7815,0 3.9535,0 2.1935,0 0,1.812 0,6.201 z"
         transform="translate(97.8945,163.74)"
         id="path2962" />
      <path
         style="fill:#003580;fill-rule:evenodd;stroke:none"
         d="m 6.566,11.983 -6.532,0 0,-0.418 c 2.021,0.017 2.073,-0.661 2.073,-1.742 l 0,-6.706 c 0,-0.434 0,-1.201 -0.679,-1.201 C 1.184,1.916 0.593,2.124 0,2.352 L 0,1.899 4.388,0 l 0.297,0 0,9.927 c 0,1.167 0.158,1.638 1.881,1.638 l 0,0.418 z"
         transform="translate(106.218,163.74)"
         id="path2964" />
      <path
         style="fill:#003580;fill-rule:evenodd;stroke:none"
         d="M 4.4199,2.3115 5.9239,0 l 1.5488,2.2822 2.6981,-0.5713 -0.519,2.71 2.311,1.5029 -2.282,1.5478 0.571,2.6983 L 7.543,9.6513 6.0391,11.9628 4.4912,9.6796 1.793,10.2509 2.3116,7.5429 0,6.038 2.2832,4.4902 1.711,1.7919 4.4199,2.3115 z"
         transform="translate(90.6572,40.5645)"
         id="path2966" />
      <path
         style="fill:#ffffff;fill-rule:evenodd;stroke:#003580;stroke-width:0.85432899;stroke-linecap:round;stroke-linejoin:round;stroke-dasharray:none"
         d="m 15.1718,4.9014 c -1.318,-0.6201 -1.102,-1.916 -1.102,-1.916 0,0 -1.502,1.5263 -3.1665,0.4511 C 10.0283,2.874 8.8955,0 8.8955,0 8.8955,0 7.7627,2.874 6.8896,3.4365 5.2236,4.5117 3.7207,2.9854 3.7207,2.9854 c 0,0 0.2168,1.2959 -1.1016,1.916 C 1.2988,5.5205 0,5.1817 0,5.1817 c 0,0 1.665,1.8574 1.665,3.1552 0,1.2969 0,1.4649 0,1.4649 l 14.4628,0 c 0,0 0,-0.168 0,-1.4649 0,-1.2978 1.663,-3.1552 1.663,-3.1552 0,0 -1.299,0.3388 -2.619,-0.2803 z"
         transform="translate(87.7432,56.5117)"
         id="path2968" />
      <path
         style="fill:#ffffff;fill-rule:evenodd;stroke:#003580;stroke-width:0.85432899;stroke-linecap:round;stroke-linejoin:round;stroke-dasharray:none"
         d="m 15.1718,4.9014 c -1.318,-0.6201 -1.102,-1.916 -1.102,-1.916 0,0 -1.502,1.5263 -3.1665,0.4511 C 10.0283,2.874 8.8955,0 8.8955,0 8.8955,0 7.7627,2.874 6.8896,3.4365 5.2236,4.5117 3.7207,2.9854 3.7207,2.9854 c 0,0 0.2168,1.2959 -1.1016,1.916 C 1.2988,5.5205 0,5.1817 0,5.1817 c 0,0 1.665,1.8574 1.665,3.1552 0,1.2969 0,1.4649 0,1.4649 l 14.4628,0 c 0,0 0,-0.168 0,-1.4649 0,-1.2978 1.663,-3.1552 1.663,-3.1552 0,0 -1.299,0.3388 -2.619,-0.2803 z"
         transform="translate(87.7432,56.5117)"
         id="path2970" />
      <path
         style="fill:#ffffff;fill-rule:evenodd;stroke:#003580;stroke-width:0.85432899;stroke-linecap:round;stroke-linejoin:round;stroke-dasharray:none"
         d="M 14.9677,2.1075 0,2.1075 0,0 l 14.9677,0 0,2.1075 z"
         transform="translate(89.1553,64.415)"
         id="path2972" />
      <path
         style="fill:#ffffff;fill-rule:evenodd;stroke:none"
         d="m 15.173,4.9013 c -1.319,-0.6201 -1.102,-1.915 -1.102,-1.915 0,0 -1.504,1.5244 -3.168,0.4502 C 10.029,2.874 8.896,0 8.896,0 8.896,0 7.763,2.874 6.89,3.4365 5.224,4.5107 3.721,2.9863 3.721,2.9863 c 0,0 0.216,1.2949 -1.102,1.915 C 1.299,5.5205 0,5.1816 0,5.1816 c 0,0 1.665,1.8574 1.665,3.1553 0,1.2959 0,1.4639 0,1.4639 l 14.463,0 c 0,0 0,-0.168 0,-1.4639 0,-1.2979 1.664,-3.1553 1.664,-3.1553 0,0 -1.299,0.3389 -2.619,-0.2803 z"
         transform="translate(113.219,44.2305)"
         id="path2974" />
      <path
         style="fill:none;stroke:#003580;stroke-width:0.85432899;stroke-linecap:round;stroke-linejoin:round;stroke-dasharray:none"
         d="m 15.173,4.9014 c -1.319,-0.62 -1.102,-1.915 -1.102,-1.915 0,0 -1.504,1.5244 -3.168,0.4503 C 10.029,2.8741 8.896,0 8.896,0 8.896,0 7.763,2.8741 6.89,3.4367 5.224,4.5108 3.721,2.9864 3.721,2.9864 c 0,0 0.216,1.295 -1.102,1.915 C 1.299,5.5206 0,5.1817 0,5.1817 c 0,0 1.665,1.8574 1.665,3.1553 0,1.2959 0,1.4638 0,1.4638 l 14.463,0 c 0,0 0,-0.1679 0,-1.4638 0,-1.2979 1.664,-3.1553 1.664,-3.1553 0,0 -1.299,0.3389 -2.619,-0.2803 z"
         transform="translate(113.219,44.2304)"
         id="path2976" />
      <path
         style="fill:#ffffff;fill-rule:evenodd;stroke:none"
         d="m 15.173,4.9013 c -1.319,-0.6201 -1.102,-1.915 -1.102,-1.915 0,0 -1.504,1.5244 -3.168,0.4502 C 10.029,2.874 8.896,0 8.896,0 8.896,0 7.763,2.874 6.89,3.4365 5.224,4.5107 3.721,2.9863 3.721,2.9863 c 0,0 0.216,1.2949 -1.102,1.915 C 1.299,5.5205 0,5.1816 0,5.1816 c 0,0 1.665,1.8574 1.665,3.1553 0,1.2959 0,1.4639 0,1.4639 l 14.463,0 c 0,0 0,-0.168 0,-1.4639 0,-1.2979 1.664,-3.1553 1.664,-3.1553 0,0 -1.299,0.3389 -2.619,-0.2803 z"
         transform="translate(113.219,44.2305)"
         id="path2978" />
      <path
         style="fill:none;stroke:#003580;stroke-width:0.85432899;stroke-linecap:round;stroke-linejoin:round;stroke-dasharray:none"
         d="m 15.173,4.9014 c -1.319,-0.62 -1.102,-1.915 -1.102,-1.915 0,0 -1.504,1.5244 -3.168,0.4503 C 10.029,2.8741 8.896,0 8.896,0 8.896,0 7.763,2.8741 6.89,3.4367 5.224,4.5108 3.721,2.9864 3.721,2.9864 c 0,0 0.216,1.295 -1.102,1.915 C 1.299,5.5206 0,5.1817 0,5.1817 c 0,0 1.665,1.8574 1.665,3.1553 0,1.2959 0,1.4638 0,1.4638 l 14.463,0 c 0,0 0,-0.1679 0,-1.4638 0,-1.2979 1.664,-3.1553 1.664,-3.1553 0,0 -1.299,0.3389 -2.619,-0.2803 z"
         transform="translate(113.219,44.2304)"
         id="path2980" />
      <path
         style="fill:#ffffff;fill-rule:evenodd;stroke:#003580;stroke-width:0.85432899;stroke-linecap:round;stroke-linejoin:round;stroke-dasharray:none"
         d="M 14.967,2.1084 0,2.1084 0,0 l 14.967,0 0,2.1084 z"
         transform="translate(114.632,52.1338)"
         id="path2982" />
      <path
         style="fill:#ffffff;fill-rule:evenodd;stroke:none"
         d="m 15.1719,4.9013 c -1.3174,-0.6201 -1.1016,-1.915 -1.1016,-1.915 0,0 -1.5029,1.5244 -3.167,0.4502 C 10.0283,2.874 8.8955,0 8.8955,0 8.8955,0 7.7637,2.874 6.8896,3.4365 5.2236,4.5107 3.7217,2.9863 3.7217,2.9863 c 0,0 0.2168,1.2949 -1.1026,1.915 C 1.2988,5.5205 0,5.1816 0,5.1816 c 0,0 1.665,1.8574 1.665,3.1553 0,1.2959 0,1.4639 0,1.4639 l 14.4639,0 c 0,0 0,-0.168 0,-1.4639 0,-1.2979 1.6631,-3.1553 1.6631,-3.1553 0,0 -1.2998,0.3389 -2.6201,-0.2803 z"
         transform="translate(62.2676,44.2305)"
         id="path2984" />
      <path
         style="fill:none;stroke:#003580;stroke-width:0.85432899;stroke-linecap:round;stroke-linejoin:round;stroke-dasharray:none"
         d="m 15.1719,4.9014 c -1.3174,-0.62 -1.1016,-1.915 -1.1016,-1.915 0,0 -1.5029,1.5244 -3.167,0.4503 C 10.0283,2.8741 8.8955,0 8.8955,0 8.8955,0 7.7637,2.8741 6.8896,3.4367 5.2236,4.5108 3.7217,2.9864 3.7217,2.9864 c 0,0 0.2168,1.295 -1.1026,1.915 C 1.2988,5.5206 0,5.1817 0,5.1817 c 0,0 1.665,1.8574 1.665,3.1553 0,1.2959 0,1.4638 0,1.4638 l 14.4639,0 c 0,0 0,-0.1679 0,-1.4638 0,-1.2979 1.6631,-3.1553 1.6631,-3.1553 0,0 -1.2998,0.3389 -2.6201,-0.2803 z"
         transform="translate(62.2676,44.2304)"
         id="path2986" />
      <path
         style="fill:#ffffff;fill-rule:evenodd;stroke:none"
         d="m 15.1719,4.9013 c -1.3174,-0.6201 -1.1016,-1.915 -1.1016,-1.915 0,0 -1.5029,1.5244 -3.167,0.4502 C 10.0283,2.874 8.8955,0 8.8955,0 8.8955,0 7.7637,2.874 6.8896,3.4365 5.2236,4.5107 3.7217,2.9863 3.7217,2.9863 c 0,0 0.2168,1.2949 -1.1026,1.915 C 1.2988,5.5205 0,5.1816 0,5.1816 c 0,0 1.665,1.8574 1.665,3.1553 0,1.2959 0,1.4639 0,1.4639 l 14.4639,0 c 0,0 0,-0.168 0,-1.4639 0,-1.2979 1.6631,-3.1553 1.6631,-3.1553 0,0 -1.2998,0.3389 -2.6201,-0.2803 z"
         transform="translate(62.2676,44.2305)"
         id="path2988" />
      <path
         style="fill:none;stroke:#003580;stroke-width:0.85432899;stroke-linecap:round;stroke-linejoin:round;stroke-dasharray:none"
         d="m 15.1719,4.9014 c -1.3174,-0.62 -1.1016,-1.915 -1.1016,-1.915 0,0 -1.5029,1.5244 -3.167,0.4503 C 10.0283,2.8741 8.8955,0 8.8955,0 8.8955,0 7.7637,2.8741 6.8896,3.4367 5.2236,4.5108 3.7217,2.9864 3.7217,2.9864 c 0,0 0.2168,1.295 -1.1026,1.915 C 1.2988,5.5206 0,5.1817 0,5.1817 c 0,0 1.665,1.8574 1.665,3.1553 0,1.2959 0,1.4638 0,1.4638 l 14.4639,0 c 0,0 0,-0.1679 0,-1.4638 0,-1.2979 1.6631,-3.1553 1.6631,-3.1553 0,0 -1.2998,0.3389 -2.6201,-0.2803 z"
         transform="translate(62.2676,44.2304)"
         id="path2990" />
      <path
         style="fill:#ffffff;fill-rule:evenodd;stroke:#003580;stroke-width:0.85432899;stroke-linecap:round;stroke-linejoin:round;stroke-dasharray:none"
         d="M 14.9678,2.1084 0,2.1084 0,0 l 14.9678,0 0,2.1084 z"
         transform="translate(63.6797,52.1338)"
         id="path2992" />
      <path
         style="fill:#004193;fill-rule:nonzero;stroke:none"
         d="m 73.3409,121.517 c 1.991,0 3.794,-0.807 5.098,-2.112 1.304,-1.303 2.111,-3.106 2.111,-5.096 l 0,-110.8266 -77.0665,0 0,110.8266 c 0,1.99 0.8076,3.793 2.1113,5.096 1.3057,1.305 3.1074,2.112 5.0987,2.112 l 62.6475,0 z m 0,3.482 -62.6475,0 c -2.9522,0 -5.625,-1.196 -7.5606,-3.131 C 1.1982,119.934 0,117.261 0,114.309 L 0,0 l 84.0339,0 0,1.7412 0,112.5678 c 0,2.952 -1.197,5.625 -3.133,7.559 -1.934,1.936 -4.607,3.131 -7.56,3.131 z"
         transform="translate(54.6211,35.209)"
         id="path2994" />
    </g>
  </g>
</svg>
