<?xml version="1.0" encoding="UTF-8" standalone="no"?>
<!-- Created with Inkscape (http://www.inkscape.org/) -->

<svg
   xmlns:dc="http://purl.org/dc/elements/1.1/"
   xmlns:cc="http://creativecommons.org/ns#"
   xmlns:rdf="http://www.w3.org/1999/02/22-rdf-syntax-ns#"
   xmlns:svg="http://www.w3.org/2000/svg"
   xmlns="http://www.w3.org/2000/svg"
   xmlns:sodipodi="http://sodipodi.sourceforge.net/DTD/sodipodi-0.dtd"
   xmlns:inkscape="http://www.inkscape.org/namespaces/inkscape"
   width="548.86963"
   height="527.5636"
   id="svg3357"
   version="1.1"
   inkscape:version="0.48.2 r9819"
   sodipodi:docname="Neues Dokument 3">
  <defs
     id="defs3359" />
  <sodipodi:namedview
     id="base"
     pagecolor="#ffffff"
     bordercolor="#666666"
     borderopacity="1.0"
     inkscape:pageopacity="0.0"
     inkscape:pageshadow="2"
     inkscape:zoom="0.35"
     inkscape:cx="-229.8509"
     inkscape:cy="269.49609"
     inkscape:document-units="px"
     inkscape:current-layer="layer1"
     showgrid="false"
     fit-margin-top="2"
     fit-margin-right="2"
     fit-margin-bottom="2"
     fit-margin-left="2"
     inkscape:window-width="505"
     inkscape:window-height="455"
     inkscape:window-x="75"
     inkscape:window-y="75"
     inkscape:window-maximized="0" />
  <metadata
     id="metadata3362">
    <rdf:RDF>
      <cc:Work
         rdf:about="">
        <dc:format>image/svg+xml</dc:format>
        <dc:type
           rdf:resource="http://purl.org/dc/dcmitype/StillImage" />
        <dc:title></dc:title>
      </cc:Work>
    </rdf:RDF>
  </metadata>
  <g
     inkscape:label="Ebene 1"
     inkscape:groupmode="layer"
     id="layer1"
     transform="translate(-579.8509,-274.29466)">
    <path
       style="fill:red;fill-opacity:1;fill-rule:evenodd;stroke:none"
       d="m 1126.7205,538.07646 c 0,144.5781 -121.9732,261.78181 -272.43479,261.78181 -150.46159,0 -272.43481,-117.20371 -272.43481,-261.78181 0,-144.57809 121.97322,-261.7818 272.43481,-261.7818 150.46159,0 272.43479,117.20371 272.43479,261.7818 z"
       id="path2996"
       inkscape:connector-curvature="0" />
    <path
       style="fill:none;stroke:white;stroke-width:16;stroke-opacity:1"
       d="m 1101.2735,537.66165 c 0,131.90999 -110.2873,238.84416 -246.33362,238.84416 -136.04631,0 -246.33364,-106.93417 -246.33364,-238.84416 0,-131.90999 110.28733,-238.84416 246.33364,-238.84416 136.04632,0 246.33362,106.93417 246.33362,238.84416 z"
       id="path2998"
       inkscape:connector-curvature="0" />
    <path
       style="color:black;fill:white;stroke:none;stroke-width:1px;marker:none;visibility:visible;display:inline;overflow:visible;enable-background:accumulate"
       d="m 630.02257,551.91917 c -0.0805,49.49283 27.90307,110.08869 76.84951,153.50754 27.01661,23.96559 67.22799,46.3168 134.72982,51.73031 l 0,-439.92144 c -54.54701,4.75828 -92.17514,20.68909 -119.27505,43.5723 l 0,85.24387 c 21.26334,-15.37928 32.53853,-30.66333 69.05471,-39.18468 l 0,274.98027 C 714.74031,659.93749 694.43544,608.51697 681.03283,552.09103 z"
       id="path3000"
       inkscape:connector-curvature="0"
       sodipodi:nodetypes="cccccccccc" />
    <path
       style="color:black;fill:white;stroke:none;stroke-width:1px;marker:none;visibility:visible;display:inline;overflow:visible;enable-background:accumulate"
       d="m 867.72343,318.01407 0,271.43809 50.18914,0 0,-26.24945 110.41753,0 c -14.9837,63.83315 -57.3723,118.64617 -160.47336,130.76117 l 0,62.70703 c 90.05711,-6.25264 188.94596,-59.70894 210.65196,-193.34669 6.4265,-92.0694 -27.0332,-137.20394 -62.2655,-179.14302 -36.91184,-32.79422 -84.75821,-60.71621 -148.51977,-66.16713 z"
       id="path3002"
       inkscape:connector-curvature="0"
       sodipodi:nodetypes="cccccccccc" />
    <path
       style="color:black;fill:red;stroke:none;stroke-width:1px;marker:none;visibility:visible;display:inline;overflow:visible;enable-background:accumulate"
       d="m 917.91257,381.15787 0,138.78184 110.17213,0 c 1.375,-57.67164 -44.51308,-113.33156 -110.17213,-138.78184 z"
       id="path3004"
       inkscape:connector-curvature="0"
       sodipodi:nodetypes="cccc" />
  </g>
</svg>
