<?xml version="1.0" encoding="utf-8"?>
<!-- Generator: Adobe Illustrator 12.0.0, SVG Export Plug-In  -->
<!DOCTYPE svg PUBLIC "-//W3C//DTD SVG 1.1//EN" "http://www.w3.org/Graphics/SVG/1.1/DTD/svg11.dtd" [
	<!ENTITY ns_flows "http://ns.adobe.com/Flows/1.0/">
	<!ENTITY ns_svg "http://www.w3.org/2000/svg">
	<!ENTITY ns_xlink "http://www.w3.org/1999/xlink">
]>
<svg  version="1.1" xmlns="&ns_svg;" xmlns:xlink="&ns_xlink;" xmlns:a="http://ns.adobe.com/AdobeSVGViewerExtensions/3.0/"
	 width="488" height="518" viewBox="0 0 488 518" enable-background="new 0 0 488 518" xml:space="preserve">
<defs>
</defs>
<path fill-rule="evenodd" clip-rule="evenodd" d="M243.468,517.922c16.542-24.814,30.327-41.945,53.957-41.945h68.926
	c42.733,0,92.557-48.053,92.557-90.98V53.761c0-8.271,0-15.164,11.028-15.755C492.188,36.432,496.718,0,458.907,0H28.026
	C-9.784,0-5.057,36.432,16.998,38.006c11.028,0.591,11.028,7.68,11.028,15.755v331.235c0,42.732,50.021,90.98,92.557,90.98h68.926
	C213.142,475.977,227.122,493.107,243.468,517.922L243.468,517.922z"/>
<path fill-rule="evenodd" clip-rule="evenodd" fill="#FFFF00" d="M433.503,384.996l-0.197-359.593H52.052v357.769
	c0,27.373,27.571,54.943,52.187,63.607c31.507,11.225,70.502,0.051,104.175,7.732c14.965,5.514,23.238,12.209,34.461,22.842
	c14.968-15.951,31.312-24.813,53.171-25.4h68.926C394.906,451.953,433.503,416.898,433.503,384.996L433.503,384.996z"/>
<path fill-rule="evenodd" clip-rule="evenodd" d="M85.136,419.012c4.728,3.746,10.241,8.078,15.951,11.227
	c36.63,16.938,80.347-1.326,118.158,13.441c8.272,4.137,16.149,8.861,23.238,14.77c14.177-12.207,29.539-18.51,48.444-20.482
	c25.404-0.982,52.776,1.973,77.788-0.588c24.418-3.744,48.639-28.359,51.003-53.172V38.992H65.64v343.786
	C66.428,397.35,75.488,408.379,85.136,419.012L85.136,419.012z"/>
<path fill-rule="evenodd" clip-rule="evenodd" fill="#FFFFFF" d="M144.806,425.365c9.453-0.197,18.906-0.785,28.556-1.18V203.033
	h-46.673v221.35C132.597,424.971,138.505,425.365,144.806,425.365L144.806,425.365z M220.426,203.033V429.5
	c8.47,2.563,17.134,6.502,22.057,11.422c8.466-5.514,16.936-9.252,25.403-11.814V203.033H220.426L220.426,203.033z M314.952,203.033
	v220.954c14.376,0.199,28.949,0.984,43.914,0.199c0.788-0.199,1.773-0.199,2.757-0.199V203.033H314.952L314.952,203.033z
	 M406.13,188.265L405.933,52.58H79.82v135.685H406.13L406.13,188.265z"/>
<polygon fill-rule="evenodd" clip-rule="evenodd" fill="#FF0000" points="405.933,188.265 405.933,52.58 79.82,52.58 79.82,188.265 
	405.933,188.265 "/>
<polygon fill-rule="evenodd" clip-rule="evenodd" points="254.494,66.167 257.844,66.562 260.992,67.546 263.946,68.729 
	266.508,70.303 268.872,72.075 271.038,74.044 273.007,76.407 274.777,78.771 276.158,81.332 277.339,84.088 278.324,87.042 
	279.11,89.8 279.505,92.949 279.898,95.903 279.898,98.857 279.703,102.009 279.308,104.963 278.718,107.916 277.93,110.87 
	276.943,113.628 275.565,116.384 274.188,118.945 272.417,121.307 270.445,123.671 268.279,125.64 265.918,127.413 263.356,128.988 
	260.402,130.17 257.448,131.154 254.299,131.746 250.949,131.942 224.761,131.942 224.761,169.949 230.667,169.949 230.667,172.904 
	224.761,172.904 203.884,172.904 198.371,172.904 198.371,169.949 203.884,169.949 203.884,70.697 194.431,65.971 203.884,65.971 
	250.949,65.971 254.494,66.167 "/>
<path fill-rule="evenodd" clip-rule="evenodd" d="M116.448,116.384h25.404v20.875h-25.404v32.69h5.909v2.955H90.061v-2.955h5.513
	V70.697l-9.453-4.923c27.963,0,56.124-0.198,84.089-0.198l10.436,33.084h-23.63l-4.333-12.21h-36.235V116.384L116.448,116.384z"/>
<path fill-rule="evenodd" clip-rule="evenodd" d="M330.115,116.384h25.404v20.875h-25.404v32.69h5.909v2.955h-32.299v-2.955h5.517
	V70.697l-9.453-4.923c28.16,0,56.123-0.198,84.284-0.198l10.24,33.084h-23.63l-4.333-12.21h-36.235V116.384L330.115,116.384z"/>
<polygon fill-rule="evenodd" clip-rule="evenodd" points="160.362,153.21 162.528,153.998 164.695,155.18 166.468,156.558 
	167.847,158.528 169.027,160.497 169.815,162.86 170.013,165.419 169.815,167.783 169.027,169.949 167.847,172.116 166.468,173.887 
	164.695,175.266 162.528,176.448 160.362,177.236 158.001,177.432 155.439,177.236 153.079,176.448 151.107,175.266 
	149.139,173.887 147.761,172.116 146.577,169.949 145.792,167.783 145.594,165.419 145.792,162.86 146.577,160.497 147.761,158.528 
	149.139,156.558 151.107,155.18 153.079,153.998 155.439,153.21 158.001,153.014 160.362,153.21 "/>
<polygon fill-rule="evenodd" clip-rule="evenodd" points="262.766,153.21 264.933,153.998 267.099,155.18 268.872,156.558 
	270.25,158.528 271.431,160.497 272.021,162.86 272.417,165.419 272.021,167.783 271.431,169.949 270.25,172.116 268.872,173.887 
	267.099,175.266 264.933,176.448 262.766,177.236 260.402,177.432 257.844,177.236 255.479,176.448 253.511,175.266 
	251.542,173.887 250.161,172.116 248.98,169.949 248.192,167.783 247.995,165.419 248.192,162.86 248.98,160.497 250.161,158.528 
	251.542,156.558 253.313,155.18 255.479,153.998 257.844,153.21 260.402,153.014 262.766,153.21 "/>
<polygon fill-rule="evenodd" clip-rule="evenodd" points="375.016,153.21 377.182,153.998 379.349,155.18 381.121,156.558 
	382.5,158.528 383.681,160.497 384.271,162.86 384.666,165.419 384.271,167.783 383.681,169.949 382.5,172.116 381.121,173.887 
	379.15,175.266 377.182,176.448 375.016,177.236 372.457,177.432 370.093,177.236 367.729,176.448 365.563,175.266 363.789,173.887 
	362.411,172.116 361.23,169.949 360.442,167.783 360.245,165.419 360.442,162.86 361.23,160.497 362.216,158.528 363.789,156.558 
	365.563,155.18 367.729,153.998 370.093,153.21 372.457,153.014 375.016,153.21 "/>
<path fill-rule="evenodd" clip-rule="evenodd" fill="#FFFF00" d="M250.755,68.137c37.02,0,34.658,61.443,0,61.443h-28.16
	c0,13.587,0,27.373,0,41.158h-16.347V68.137H250.755L250.755,68.137z"/>
<polygon fill-rule="evenodd" clip-rule="evenodd" fill="#FFFF00" points="114.084,84.284 154.062,84.284 158.591,96.495 
	177.497,96.495 168.634,67.94 114.084,67.94 99.514,67.94 97.74,67.94 97.74,170.54 114.084,170.54 114.084,135.092 
	139.686,135.092 139.686,118.551 114.084,118.551 114.084,84.284 "/>
<polygon fill-rule="evenodd" clip-rule="evenodd" fill="#FFFF00" points="327.949,84.284 367.927,84.284 372.259,96.495 
	391.165,96.495 382.302,67.94 327.949,67.94 313.179,67.94 311.605,67.94 311.605,170.54 327.949,170.54 327.949,135.092 
	353.354,135.092 353.354,118.551 327.949,118.551 327.949,84.284 "/>
<path fill-rule="evenodd" clip-rule="evenodd" fill="#FFFF00" d="M158.001,155.18c5.315,0,9.647,4.528,9.647,10.239
	c0,5.318-4.333,9.65-9.647,9.65c-5.711,0-10.241-4.332-10.241-9.65C147.761,159.708,152.291,155.18,158.001,155.18L158.001,155.18z"
	/>
<path fill-rule="evenodd" clip-rule="evenodd" fill="#FFFF00" d="M260.402,155.18c5.317,0,9.65,4.528,9.65,10.239
	c0,5.318-4.333,9.65-9.65,9.65c-5.711,0-10.241-4.332-10.241-9.65C250.161,159.708,254.691,155.18,260.402,155.18L260.402,155.18z"
	/>
<path fill-rule="evenodd" clip-rule="evenodd" fill="#FFFF00" d="M372.457,155.18c5.513,0,9.845,4.528,9.845,10.239
	c0,5.318-4.332,9.65-9.845,9.65c-5.516,0-10.046-4.332-10.046-9.65C362.411,159.708,366.941,155.18,372.457,155.18L372.457,155.18z"
	/>
<path fill-rule="evenodd" clip-rule="evenodd" d="M246.026,84.482c22.253,0,14.376,29.736,0.396,29.736H222.79V84.482H246.026
	L246.026,84.482z"/>
<polygon fill-rule="evenodd" clip-rule="evenodd" fill="#FF0000" points="224.956,86.648 224.956,112.052 246.225,112.052 
	248.391,111.658 250.359,110.87 252.133,109.688 253.708,108.114 255.087,106.144 256.268,103.978 257.056,101.614 257.646,99.055 
	257.646,96.691 257.448,94.329 256.857,92.359 255.677,90.586 254.102,89.012 252.133,87.83 249.376,87.042 245.829,86.648 
	224.956,86.648 "/>
</svg>
