<?xml version="1.0" encoding="utf-8"?>
<!-- Generator: Adobe Illustrator 12.0.0, SVG Export Plug-In  -->
<!DOCTYPE svg PUBLIC "-//W3C//DTD SVG 1.1//EN" "http://www.w3.org/Graphics/SVG/1.1/DTD/svg11.dtd" [
	<!ENTITY ns_flows "http://ns.adobe.com/Flows/1.0/">
	<!ENTITY ns_svg "http://www.w3.org/2000/svg">
	<!ENTITY ns_xlink "http://www.w3.org/1999/xlink">
]>
<svg  version="1.1" xmlns="&ns_svg;" xmlns:xlink="&ns_xlink;" xmlns:a="http://ns.adobe.com/AdobeSVGViewerExtensions/3.0/"
	 width="220" height="300" viewBox="-0.2182617 0 220 300" enable-background="new -0.2182617 0 220 300" xml:space="preserve">
<defs>
</defs>
<path fill="#E62186" d="M163.2788086,69.8867188L109.7822266,0L56.284668,69.8867188
	C15.9970703,122.5166016,0,146.3256836,0,181.6069336c0,30.1064453,7.7016602,44.6254883,35.8774414,64.9868164L109.7817383,300
	l73.9042969-53.40625c28.1762695-20.3613281,35.8779297-34.8803711,35.8779297-64.9868164
	C219.5639648,146.3256836,203.565918,122.5166016,163.2788086,69.8867188z M93.3950195,243.2299805l-0.484375,14.581543
	c-0.0615234,1.8505859-1.0600586,2.0244141-2.2836914,1.140625c-19.2016602-13.8759766-41.8339844-30.2314453-41.8339844-30.2314453
	c-23.4130859-16.9189453-24.7338867-35.1967773-24.7338867-47.5361328c0-8.5302734,1.2802734-17.487793,5.0537109-26.9746094
	c0.2543945-0.6396484,0.7871094-1.8271484,1.3164063-1.8271484c0.4116211,0,0.7514648,0.300293,1.0107422,0.6806641
	c8.2080078,12.0336914,21.3139648,31.340332,34.5048828,47.2407227
	C91.2792969,230.84375,93.8945313,228.1782227,93.3950195,243.2299805z M109.7817383,215.9516602
	c-0.277832,0-0.5410156-0.1230469-0.7192383-0.3354492l-51.7758789-61.4804688
	c-5.953125-7.0683594-9.0991211-14.8662109-9.0991211-22.5507813c0-5.1586914,1.9052734-10.4980469,5.5107422-15.4414063
	l55.3232422-75.8515625c0.1772461-0.2431641,0.4594727-0.3862305,0.7602539-0.3862305s0.5830078,0.1430664,0.7602539,0.3862305
	l55.3237305,75.8515625c3.6049805,4.9428711,5.5107422,10.2822266,5.5107422,15.4414063
	c0,7.6845703-3.1469727,15.4824219-9.1000977,22.5507813l-51.7749023,61.4804688
	C110.3222656,215.8286133,110.059082,215.9516602,109.7817383,215.9516602z M170.7709961,228.7207031
	c0,0-22.6323242,16.3554688-41.8334961,30.2314453c-1.2236328,0.8837891-2.2226563,0.7099609-2.2841797-1.140625
	l-0.484375-14.581543c-0.4995117-15.0517578,2.1157227-12.3862305,27.4506836-42.9257813
	c13.1904297-15.9003906,26.2963867-35.2070313,34.5043945-47.2407227c0.2592773-0.3803711,0.5996094-0.6806641,1.0107422-0.6806641
	c0.5292969,0,1.0625,1.1875,1.315918,1.8271484c3.7739258,9.4868164,5.0541992,18.4443359,5.0541992,26.9746094
	C195.5048828,193.5239258,194.184082,211.8017578,170.7709961,228.7207031z"/>
</svg>
