<?xml version="1.0" encoding="utf-8"?>
<!-- Generator: Adobe Illustrator 13.0.0, SVG Export Plug-In . SVG Version: 6.00 Build 14948)  -->
<!DOCTYPE svg PUBLIC "-//W3C//DTD SVG 1.1//EN" "http://www.w3.org/Graphics/SVG/1.1/DTD/svg11.dtd">
<svg version="1.1" id="Layer_1" xmlns="http://www.w3.org/2000/svg" xmlns:xlink="http://www.w3.org/1999/xlink" x="0px" y="0px"
	 width="129px" height="177.5px" viewBox="0 0 129 177.5" enable-background="new 0 0 129 177.5" xml:space="preserve">
<path fill="#2A3990" d="M64.5,8.5C24.75,8.5,0,0,0,0v105.25c0,49,44.75,72.25,64.5,72.25s64.5-23.25,64.5-72.25V0
	C129,0,104.25,8.5,64.5,8.5z"/>
<g>
	<path fill="#FBF8CD" d="M4.515,106.095c0,45.57,41.617,67.191,59.985,67.191c18.367,0,59.984-21.621,59.984-67.191V87.338H4.515
		V106.095z"/>
	<path fill="#FBF8CD" d="M64.5,12.117c-36.967,0-59.985-6.905-59.985-6.905v56.112h119.969V5.212
		C124.484,5.212,101.468,12.117,64.5,12.117z"/>
</g>
<g>
	<path fill="#666666" d="M23.988,18.91l-1.024,3.821h-1.36l0.724-2.7c-0.643,0-1.128,0.043-1.457,0.13
		c-0.619,0.164-0.991,0.483-1.118,0.957c-0.066,0.246-0.021,0.438,0.133,0.574c0.141,0.123,0.338,0.185,0.593,0.185
		s0.505-0.066,0.75-0.198l-0.07,0.745c-0.374,0.305-0.873,0.458-1.497,0.458c-0.515,0-0.903-0.162-1.165-0.485
		c-0.262-0.324-0.325-0.741-0.188-1.251c0.253-0.943,1.095-1.536,2.527-1.777c0.41-0.068,0.85-0.103,1.319-0.103
		c0.168,0,0.294,0,0.376,0l0.114-0.426c0.139-0.518-0.182-0.777-0.961-0.777c-0.625,0-1.068,0.253-1.331,0.759l-1.149-0.178
		c0.545-1.048,1.547-1.572,3.005-1.572c0.333,0,0.625,0.032,0.877,0.096c0.094,0.023,0.181,0.055,0.261,0.096
		c0.17-0.191,0.411-0.351,0.723-0.479c0.292-0.119,0.558-0.178,0.799-0.178c0.05,0,0.086,0.002,0.107,0.007l-0.183,1.066
		c-0.095-0.018-0.198-0.027-0.307-0.027c-0.246,0-0.42,0.048-0.524,0.144c0.043,0.096,0.071,0.185,0.086,0.267
		C24.092,18.318,24.071,18.6,23.988,18.91z"/>
	<path fill="#666666" d="M27.063,14.884H28.3v0.841h-0.772c-0.428,0-0.672,0.112-0.732,0.335c-0.025,0.096-0.01,0.283,0.048,0.561
		c0.005,0.1-0.008,0.209-0.04,0.328l-1.55,5.783h-1.347l1.55-5.783c0.049-0.182,0.063-0.344,0.041-0.485
		c-0.035-0.141-0.067-0.285-0.097-0.431c-0.015-0.082-0.009-0.171,0.017-0.267c0.083-0.31,0.313-0.542,0.692-0.697
		C26.4,14.945,26.717,14.884,27.063,14.884z"/>
	<path fill="#666666" d="M28.197,20.271c-0.095,0.355-0.07,0.686,0.077,0.991c0.157,0.333,0.406,0.499,0.748,0.499
		c0.538,0,0.908-0.378,1.11-1.135l0.914-3.411h1.36l-1.025,3.828c-0.323,1.203-1.102,1.805-2.336,1.805
		c-0.647,0-1.081-0.39-1.3-1.169l-0.282,1.053h-1.271l1.478-5.517h1.347L28.197,20.271z"/>
	<path fill="#666666" d="M37.729,18.91l-1.024,3.821h-1.36l0.724-2.7c-0.643,0-1.128,0.043-1.457,0.13
		c-0.619,0.164-0.991,0.483-1.118,0.957c-0.066,0.246-0.021,0.438,0.133,0.574c0.141,0.123,0.338,0.185,0.593,0.185
		c0.255,0,0.505-0.066,0.75-0.198l-0.07,0.745c-0.374,0.305-0.873,0.458-1.497,0.458c-0.515,0-0.903-0.162-1.165-0.485
		c-0.262-0.324-0.325-0.741-0.188-1.251c0.253-0.943,1.095-1.536,2.527-1.777c0.41-0.068,0.85-0.103,1.319-0.103
		c0.168,0,0.294,0,0.376,0l0.114-0.426c0.139-0.518-0.182-0.777-0.961-0.777c-0.625,0-1.068,0.253-1.331,0.759l-1.149-0.178
		c0.545-1.048,1.547-1.572,3.005-1.572c0.333,0,0.625,0.032,0.877,0.096c0.094,0.023,0.181,0.055,0.261,0.096
		c0.17-0.191,0.411-0.351,0.723-0.479c0.292-0.119,0.558-0.178,0.799-0.178c0.05,0,0.086,0.002,0.107,0.007l-0.183,1.066
		c-0.095-0.018-0.198-0.027-0.307-0.027c-0.246,0-0.42,0.048-0.524,0.144c0.043,0.096,0.071,0.185,0.086,0.267
		C37.833,18.318,37.812,18.6,37.729,18.91z"/>
	<path fill="#666666" d="M41.984,18.719c0.003-0.419-0.255-0.629-0.775-0.629c-0.625,0-0.987,0.189-1.088,0.567
		c-0.066,0.246,0.188,0.438,0.762,0.574c0.818,0.196,1.295,0.335,1.433,0.417c0.503,0.301,0.675,0.748,0.516,1.34
		c-0.171,0.638-0.546,1.128-1.125,1.47c-0.502,0.292-1.088,0.438-1.758,0.438c-1.23,0-1.933-0.365-2.106-1.094
		c-0.04-0.173-0.047-0.333-0.022-0.479l1.335-0.212c-0.052,0.501,0.313,0.752,1.097,0.752c0.643,0,1.017-0.196,1.122-0.589
		c0.074-0.278-0.158-0.481-0.698-0.609c-0.779-0.188-1.249-0.331-1.409-0.432c-0.482-0.31-0.651-0.732-0.508-1.267
		c0.172-0.643,0.519-1.129,1.04-1.458c0.465-0.292,1.031-0.438,1.696-0.438c0.515,0,0.936,0.114,1.262,0.342
		c0.358,0.26,0.534,0.625,0.527,1.094L41.984,18.719z"/>
	<path fill="#666666" d="M44.774,20.093c-0.27-0.168-0.448-0.328-0.535-0.479c-0.125-0.214-0.144-0.483-0.058-0.807
		c0.294-1.098,1.218-1.647,2.772-1.647c0.392,0,0.76,0.007,1.102,0.021l1.064,0.034l-0.502,1.032h-1.969
		c-0.556,0-0.871,0.139-0.946,0.417c-0.067,0.25,0.169,0.441,0.708,0.573c0.808,0.2,1.27,0.33,1.386,0.389
		c0.524,0.273,0.692,0.76,0.504,1.46c-0.019,0.068-0.053,0.173-0.105,0.314c-0.165,0.446-0.452,0.787-0.862,1.024
		c-0.365,0.205-0.782,0.307-1.251,0.307h-2.871l0.509-1.9H45l-0.214,0.8h1.189c0.269,0,0.46-0.023,0.572-0.068
		c0.169-0.068,0.281-0.208,0.337-0.417c0.098-0.264-0.126-0.465-0.673-0.602C45.417,20.348,44.937,20.198,44.774,20.093z"/>
	<path fill="#666666" d="M53.466,22.731h-1.203l0.221-1.053c-0.615,0.779-1.246,1.169-1.893,1.169c-0.556,0-0.963-0.164-1.222-0.492
		c-0.271-0.333-0.332-0.775-0.185-1.326l1.022-3.814h1.347l-0.914,3.411c-0.203,0.756-0.017,1.135,0.558,1.135
		c0.351,0,0.684-0.164,1-0.492c0.277-0.287,0.465-0.615,0.564-0.984l0.822-3.069h1.36L53.466,22.731z"/>
	<path fill="#666666" d="M55.711,18.302l-0.167-0.649c0.706-0.387,1.363-0.581,1.974-0.581c0.834,0,1.154,0.362,0.96,1.087
		l-1.226,4.573H55.9l1.039-3.876c0.014-0.05,0.027-0.1,0.041-0.15c0.125-0.465-0.011-0.697-0.406-0.697
		c-0.154,0-0.326,0.039-0.515,0.116C55.992,18.151,55.876,18.21,55.711,18.302z"/>
	<path fill="#666666" d="M60.271,20.018c0.383-0.374,0.841-0.561,1.374-0.561l-0.29,1.08c-0.074-0.014-0.147-0.021-0.22-0.021
		c-0.296,0-0.573,0.123-0.83,0.369c-0.238,0.223-0.397,0.488-0.479,0.793l-0.282,1.053h-1.347l0.98-3.657
		c0.199-0.743,0.56-1.274,1.083-1.593c0.452-0.273,1.071-0.41,1.86-0.41c1.554,0,2.152,0.667,1.794,2.003l-0.98,3.657h-1.36
		l0.997-3.719c0.174-0.652-0.066-0.978-0.723-0.978c-0.697,0-1.133,0.326-1.308,0.978L60.271,20.018z"/>
	<path fill="#666666" d="M65.18,18.302l-0.166-0.649c0.705-0.387,1.362-0.581,1.975-0.581c0.834,0,1.152,0.362,0.959,1.087
		l-1.227,4.573h-1.354l1.039-3.876c0.013-0.05,0.025-0.1,0.039-0.15c0.125-0.465-0.01-0.697-0.404-0.697
		c-0.154,0-0.326,0.039-0.516,0.116C65.46,18.151,65.344,18.21,65.18,18.302z"/>
	<path fill="#666666" d="M72,18.719c0.003-0.419-0.255-0.629-0.773-0.629c-0.625,0-0.988,0.189-1.09,0.567
		c-0.066,0.246,0.188,0.438,0.762,0.574c0.818,0.196,1.297,0.335,1.435,0.417c0.502,0.301,0.675,0.748,0.517,1.34
		c-0.172,0.638-0.547,1.128-1.125,1.47c-0.502,0.292-1.088,0.438-1.759,0.438c-1.229,0-1.933-0.365-2.106-1.094
		c-0.039-0.173-0.047-0.333-0.021-0.479l1.336-0.212c-0.053,0.501,0.313,0.752,1.098,0.752c0.643,0,1.017-0.196,1.121-0.589
		c0.074-0.278-0.158-0.481-0.697-0.609c-0.779-0.188-1.25-0.331-1.409-0.432c-0.481-0.31-0.651-0.732-0.509-1.267
		c0.173-0.643,0.521-1.129,1.041-1.458c0.466-0.292,1.031-0.438,1.695-0.438c0.516,0,0.937,0.114,1.262,0.342
		c0.359,0.26,0.535,0.625,0.527,1.094L72,18.719z"/>
	<path fill="#666666" d="M74.012,19.888c0.141-0.524,0.439-0.946,0.898-1.265c-0.051-0.023-0.107-0.041-0.172-0.055
		c-0.146-0.037-0.266-0.055-0.359-0.055l0.159-0.595c0.244-0.164,0.628-0.333,1.151-0.506c0.64-0.214,1.189-0.321,1.652-0.321
		c1.486,0,2.079,0.563,1.777,1.688l-1.059,3.951h-1.34l0.995-3.719c0.175-0.652-0.079-0.978-0.763-0.978
		c-0.314,0-0.596,0.086-0.844,0.26c-0.268,0.182-0.441,0.426-0.522,0.731l-0.993,3.705h-1.347L74.012,19.888z"/>
	<path fill="#666666" d="M84.889,18.91l-1.022,3.821h-1.36l0.725-2.7c-0.644,0-1.129,0.043-1.457,0.13
		c-0.619,0.164-0.99,0.483-1.117,0.957c-0.066,0.246-0.021,0.438,0.133,0.574c0.141,0.123,0.338,0.185,0.593,0.185
		s0.507-0.066,0.751-0.198l-0.07,0.745c-0.373,0.305-0.871,0.458-1.496,0.458c-0.514,0-0.902-0.162-1.166-0.485
		c-0.26-0.324-0.323-0.741-0.188-1.251c0.253-0.943,1.096-1.536,2.527-1.777c0.41-0.068,0.85-0.103,1.318-0.103
		c0.17,0,0.295,0,0.377,0l0.113-0.426c0.139-0.518-0.182-0.777-0.961-0.777c-0.624,0-1.066,0.253-1.331,0.759l-1.147-0.178
		c0.545-1.048,1.547-1.572,3.004-1.572c0.334,0,0.625,0.032,0.878,0.096c0.094,0.023,0.182,0.055,0.262,0.096
		c0.169-0.191,0.41-0.351,0.724-0.479c0.291-0.119,0.559-0.178,0.799-0.178c0.051,0,0.086,0.002,0.107,0.007l-0.184,1.066
		c-0.096-0.018-0.197-0.027-0.307-0.027c-0.246,0-0.422,0.048-0.524,0.144c0.043,0.096,0.071,0.185,0.086,0.267
		C84.993,18.318,84.973,18.6,84.889,18.91z"/>
	<path fill="#666666" d="M81.447,15.246h4.416l-0.223,0.834h-4.8L81.447,15.246z"/>
	<path fill="#666666" d="M85.57,19.888c0.141-0.524,0.439-0.946,0.898-1.265c-0.051-0.023-0.107-0.041-0.172-0.055
		c-0.146-0.037-0.266-0.055-0.359-0.055l0.16-0.595c0.243-0.164,0.627-0.333,1.15-0.506c0.641-0.214,1.189-0.321,1.652-0.321
		c1.486,0,2.08,0.563,1.777,1.688l-1.059,3.951h-1.34l0.996-3.719c0.175-0.652-0.08-0.978-0.764-0.978
		c-0.314,0-0.596,0.086-0.843,0.26c-0.269,0.182-0.442,0.426-0.522,0.731l-0.994,3.705h-1.346L85.57,19.888z"/>
	<path fill="#666666" d="M94.921,18.719c0.003-0.419-0.255-0.629-0.774-0.629c-0.623,0-0.986,0.189-1.088,0.567
		c-0.066,0.246,0.188,0.438,0.762,0.574c0.818,0.196,1.296,0.335,1.434,0.417c0.502,0.301,0.676,0.748,0.516,1.34
		c-0.17,0.638-0.545,1.128-1.125,1.47c-0.502,0.292-1.088,0.438-1.758,0.438c-1.23,0-1.933-0.365-2.105-1.094
		c-0.04-0.173-0.049-0.333-0.022-0.479l1.337-0.212c-0.054,0.501,0.313,0.752,1.096,0.752c0.644,0,1.018-0.196,1.123-0.589
		c0.074-0.278-0.158-0.481-0.698-0.609c-0.779-0.188-1.249-0.331-1.409-0.432c-0.482-0.31-0.65-0.732-0.508-1.267
		c0.172-0.643,0.52-1.129,1.039-1.458c0.467-0.292,1.031-0.438,1.697-0.438c0.515,0,0.936,0.114,1.262,0.342
		c0.359,0.26,0.535,0.625,0.527,1.094L94.921,18.719z"/>
	<path fill="#666666" d="M99.626,16.032c-0.147,0.178-0.253,0.308-0.315,0.39c-0.1,0.132-0.179,0.308-0.236,0.526l-1.551,5.783
		h-1.346l1.549-5.783c0.049-0.182,0.168-0.396,0.356-0.643c0.065-0.109,0.106-0.194,0.123-0.253c0.06-0.219-0.126-0.328-0.556-0.328
		h-0.785l0.457-0.841h1.25c0.355,0,0.643,0.062,0.861,0.185c0.284,0.16,0.385,0.399,0.299,0.718
		C99.711,15.868,99.676,15.95,99.626,16.032z"/>
	<path fill="#666666" d="M99.8,22.731h-1.347l1.479-5.517h1.271l-0.278,1.039c0.626-0.775,1.269-1.162,1.925-1.162
		c1.234,0,1.69,0.604,1.366,1.812l-1.024,3.828h-1.36l0.92-3.432c0.201-0.752,0.033-1.128-0.505-1.128
		c-0.348,0-0.688,0.167-1.021,0.499c-0.305,0.301-0.504,0.631-0.602,0.991L99.8,22.731z"/>
	<path fill="#666666" d="M108.157,17.386l-0.476,0.827c-0.215-0.119-0.412-0.178-0.595-0.178c-0.374,0-0.604,0.162-0.69,0.484
		c-0.018,0.045-0.027,0.08-0.033,0.103c-0.07,0.259,0.025,0.457,0.285,0.594c0.197,0.109,0.442,0.164,0.734,0.164l-0.199,0.744
		c-0.295,0-0.519,0.03-0.666,0.089c-0.244,0.096-0.427,0.282-0.547,0.56c-0.022,0.055-0.043,0.111-0.06,0.17
		c-0.162,0.605,0.131,0.908,0.878,0.908c0.62,0,1.029-0.373,1.229-1.12l0.942-3.515h1.36l-0.993,3.705
		c-0.351,1.308-1.293,1.962-2.829,1.962c-1.704,0-2.389-0.631-2.051-1.894c0.089-0.328,0.285-0.62,0.591-0.875
		c0.096-0.082,0.237-0.175,0.431-0.28c-0.459-0.173-0.59-0.629-0.393-1.367c0.111-0.415,0.331-0.745,0.658-0.991
		c0.328-0.246,0.699-0.369,1.115-0.369C107.432,17.105,107.865,17.199,108.157,17.386z"/>
</g>
<g>
	<path fill="#ED1C24" d="M124.484,98.89H4.515v7.205c0,2.055,0.087,4.061,0.251,6.02h119.468c0.162-1.959,0.25-3.965,0.25-6.02
		V98.89z"/>
	<rect x="4.515" y="36.548" fill="#ED1C24" width="119.969" height="13.224"/>
</g>
<g>
	<rect x="4.515" y="49.772" fill="#FFFFFF" width="119.969" height="12.034"/>
	<rect x="4.515" y="86.856" fill="#FFFFFF" width="119.969" height="12.033"/>
</g>
<g>
	<path fill="#ED1C24" d="M19.995,25.25v80.884c0,33.811,30.877,49.854,44.505,49.854s44.505-16.043,44.505-49.854V25.25H19.995z"/>
	<path fill="#FFFFFF" d="M23.11,28.825v76.223c0,31.443,28.716,48.363,41.39,48.363s41.391-16.92,41.391-48.363V28.825H23.11z"/>
</g>
<g>
	<path fill="#ED1C24" d="M93.305,59.49l-2.552-18.125c0,0-43.099,2.413-49.947,40.416l10.06,10.751
		C56.773,59.492,93.305,59.49,93.305,59.49z"/>
	<path fill="#662D91" d="M85.5,75C73.453,38.015,43.25,33.25,43.25,33.25l-0.389,1.598l0,0c0,0,28.155,5.029,39.433,35.12
		c10.371,27.672,0.671,44.442,0.671,44.442s7.922-22.074-2.818-46.456C67.708,39.722,42.483,36.417,42.479,36.417l-0.369,1.518
		c0.001,0,24.895,2.764,36.96,30.825c10.412,24.214,2.955,44.173,2.955,44.173s6.527-21.48-4.565-44.576
		C64.976,42.363,41.786,39.268,41.786,39.268l-0.269,1.106c0.001,0,25.527,7.108,35.137,29.191
		c10.15,23.325,4.297,42.161,4.297,42.161s5.545-18.105-5.639-41.758C64.28,46.636,41.21,41.638,41.209,41.638l-0.354,1.458
		l0.144,0.019c0,0,22.785,5.013,32.836,26.987c10.752,23.506,5.772,40.28,5.772,40.28s3.143-21.875-6.578-39.743
		C60.564,47.728,40.64,43.981,40.64,43.981l0,0l-0.315,1.295c0.004,0.001,21.931,7.055,31.094,25.497
		c10.38,20.891,6.915,38.333,6.915,38.333s0.882-19.297-8.123-37.796c-8.322-17.098-30.216-24.674-30.216-24.674l-0.431,1.771l0,0
		c0,0,19.736,5.775,28.633,21.694c10.246,18.335,8.324,37.594,8.324,37.594s0.847-17.91-9.533-36.923
		c-8.75-16.028-27.777-20.909-27.779-20.909L38.75,51.75c0,0,23.735,3.378,33.35,34.422C82.223,118.854,59,138.75,59,138.75
		l1.25,3.75C60.25,142.5,99.75,118.75,85.5,75z"/>
	<path fill="#ED1C24" d="M81.623,145.423l1.208-2.819c0,0-38.803-11.824-31.965-50.071l-10.06-10.751
		C31.028,136.042,81.623,145.423,81.623,145.423z"/>
	<polygon fill="#ED1C24" points="51.802,75.364 40.806,81.781 44.065,96.338 50.866,92.533 	"/>
</g>
<g>
	<path fill="#39B54A" d="M40.75,64.25V81.5c1.375,5.75,3.25,5.75,3.25,5.75l14.375,10.875c1.737,1.457,2.375,5,2.375,5v22.25h1.5
		v-37c0-4.75-2.75-6.5-2.75-6.5l-14.875-12C40.75,67.75,40.75,64.25,40.75,64.25z"/>
	<path fill="#39B54A" d="M85.126,64.25V81.5c-1.375,5.75-3.25,5.75-3.25,5.75L67.501,98.125c-1.737,1.457-2.375,5-2.375,5v22.25
		h-1.5v-37c0-4.75,2.75-6.5,2.75-6.5l14.875-12C85.126,67.75,85.126,64.25,85.126,64.25z"/>
	<path fill="#39B54A" d="M66.375,125.375V105.5c0-7.5,2.25-6.375,2.25-6.375L82.75,88c2.376-2.376,2.376-3.401,2.376-3.401v14.525
		c0,4.75-2.626,5.625-2.626,5.625l-12,9.875c-2.75,1.625-2.625,3.5-2.625,3.5v7.25H66.375z"/>
</g>
<g>
	<path fill="#666666" d="M18.544,125.769l1.953,4.777l-1.622,0.662l-0.644-1.574l-7.021,2.869l-0.682-1.668l7.021-2.871
		l-0.627-1.533L18.544,125.769z"/>
	<path fill="#666666" d="M20.806,130.946l0.804,1.521l-2.974,1.572c0.416,0.164,0.769,0.362,1.059,0.598
		c0.289,0.234,0.516,0.508,0.68,0.818c0.32,0.604,0.38,1.227,0.181,1.862c-0.175,0.548-0.615,1.007-1.318,1.379l-4.034,2.134
		l-0.798-1.511l2.677-1.416c0.707-0.372,1.168-0.659,1.383-0.858c0.215-0.201,0.341-0.414,0.379-0.644
		c0.036-0.228-0.008-0.461-0.134-0.7c-0.164-0.312-0.408-0.523-0.732-0.638c-0.323-0.112-0.685-0.119-1.085-0.019
		c-0.208,0.054-0.638,0.25-1.292,0.599l-2.453,1.297l-0.804-1.521L20.806,130.946z"/>
	<path fill="#666666" d="M24.714,141.701l1.111,1.327l-5.298,4.433l-1.112-1.33l0.56-0.469c-0.463-0.054-0.858-0.164-1.185-0.334
		s-0.618-0.408-0.873-0.713c-0.572-0.685-0.802-1.498-0.688-2.441c0.113-0.943,0.564-1.744,1.353-2.404
		c0.818-0.684,1.69-1.002,2.617-0.957c0.927,0.047,1.679,0.414,2.257,1.105c0.266,0.317,0.455,0.666,0.567,1.047
		c0.114,0.379,0.149,0.787,0.107,1.225L24.714,141.701z M22.454,141.214c-0.343-0.41-0.774-0.631-1.292-0.66
		c-0.518-0.027-1.003,0.148-1.458,0.527c-0.458,0.383-0.719,0.836-0.783,1.358c-0.065,0.522,0.072,0.987,0.411,1.394
		c0.349,0.418,0.784,0.643,1.305,0.674c0.521,0.033,1.016-0.148,1.486-0.541c0.461-0.387,0.72-0.836,0.775-1.35
		C22.953,142.102,22.806,141.634,22.454,141.214z"/>
	<path fill="#666666" d="M28.783,142.201c0.201,0.227,0.291,0.495,0.27,0.805c-0.021,0.307-0.149,0.565-0.384,0.772
		c-0.231,0.203-0.5,0.298-0.806,0.279c-0.306-0.017-0.558-0.138-0.756-0.361c-0.204-0.229-0.294-0.502-0.272-0.813
		c0.023-0.311,0.154-0.567,0.392-0.778c0.229-0.201,0.495-0.293,0.799-0.274C28.329,141.849,28.582,141.972,28.783,142.201z
		 M26.077,143.431l1.146,1.301l-5.179,4.568l-1.146-1.299L26.077,143.431z"/>
	<path fill="#666666" d="M31.514,145.783l3.665,2.836l-1.06,1.368l-2.27-1.756l-1.037,1.343l2.27,1.756l-1.044,1.35l-2.27-1.756
		l-2.571,3.324l-1.396-1.08L31.514,145.783z"/>
	<path fill="#666666" d="M38.376,153.753l1.485,0.893l-3.562,5.918l-1.485-0.895l0.376-0.625c-0.456,0.102-0.865,0.125-1.23,0.07
		c-0.365-0.056-0.717-0.185-1.058-0.39c-0.764-0.459-1.247-1.154-1.447-2.082c-0.201-0.931-0.036-1.834,0.494-2.715
		c0.55-0.914,1.271-1.5,2.162-1.759c0.891-0.26,1.722-0.155,2.493,0.308c0.355,0.215,0.648,0.481,0.878,0.806
		c0.231,0.319,0.398,0.694,0.501,1.123L38.376,153.753z M36.082,154.03c-0.459-0.274-0.938-0.344-1.437-0.2
		c-0.499,0.143-0.901,0.467-1.206,0.973c-0.308,0.514-0.407,1.025-0.296,1.541c0.11,0.518,0.391,0.91,0.842,1.184
		c0.466,0.279,0.951,0.35,1.454,0.211c0.502-0.141,0.912-0.473,1.228-0.998c0.31-0.516,0.408-1.025,0.292-1.527
		C36.844,154.708,36.552,154.313,36.082,154.03z"/>
	<path fill="#666666" d="M40.166,155.358l1.351,0.617l-0.362,0.791c0.289-0.244,0.591-0.394,0.908-0.442
		c0.317-0.051,0.619-0.011,0.908,0.12c0.204,0.095,0.393,0.246,0.567,0.455l-1.11,1.134c-0.143-0.179-0.273-0.293-0.393-0.349
		c-0.242-0.11-0.517-0.054-0.821,0.17c-0.305,0.226-0.657,0.772-1.058,1.649l-0.134,0.312l-1.161,2.539l-1.564-0.715L40.166,155.358
		z"/>
	<path fill="#666666" d="M43.748,156.824l1.532,0.809l-0.371,0.703c0.415-0.15,0.819-0.211,1.215-0.187
		c0.395,0.026,0.782,0.142,1.16,0.341c0.382,0.202,0.677,0.479,0.885,0.827s0.311,0.752,0.309,1.211
		c0.433-0.229,0.875-0.346,1.329-0.348c0.453,0,0.889,0.11,1.308,0.332c0.434,0.229,0.763,0.532,0.985,0.907
		c0.223,0.377,0.32,0.767,0.293,1.168c-0.028,0.402-0.236,0.97-0.623,1.703l-1.892,3.58l-1.543-0.813l1.637-3.101
		c0.366-0.69,0.527-1.205,0.484-1.541s-0.236-0.596-0.58-0.776c-0.262-0.14-0.537-0.188-0.823-0.147
		c-0.287,0.041-0.551,0.166-0.791,0.377c-0.241,0.209-0.515,0.606-0.823,1.19l-1.456,2.756L44.44,165l1.562-2.957
		c0.289-0.547,0.458-0.963,0.506-1.252c0.049-0.287,0.024-0.533-0.074-0.738s-0.262-0.369-0.49-0.488
		c-0.255-0.135-0.527-0.182-0.815-0.141c-0.288,0.043-0.556,0.172-0.804,0.391c-0.247,0.219-0.526,0.621-0.836,1.209l-1.435,2.717
		l-1.533-0.809L43.748,156.824z"/>
	<path fill="#666666" d="M58.853,167.285l-5.428-1.234c-0.03,0.498,0.092,0.926,0.368,1.287c0.277,0.358,0.679,0.598,1.207,0.719
		c0.631,0.143,1.225,0.045,1.778-0.291l1.271,0.99c-0.469,0.424-0.979,0.699-1.529,0.828s-1.165,0.115-1.846-0.039
		c-1.057-0.24-1.841-0.771-2.354-1.586c-0.513-0.818-0.656-1.728-0.428-2.73c0.233-1.027,0.759-1.805,1.575-2.334
		c0.816-0.527,1.725-0.68,2.723-0.451c1.061,0.24,1.846,0.775,2.356,1.605c0.51,0.83,0.639,1.801,0.386,2.916L58.853,167.285z
		 M57.465,165.569c-0.026-0.399-0.177-0.756-0.452-1.065c-0.275-0.31-0.629-0.514-1.063-0.613c-0.472-0.107-0.915-0.068-1.331,0.115
		c-0.261,0.115-0.533,0.356-0.818,0.731L57.465,165.569z"/>
	<path fill="#666666" d="M59.788,163.324l1.48,0.12l-0.071,0.867c0.188-0.33,0.422-0.569,0.703-0.728
		c0.28-0.153,0.579-0.221,0.895-0.192c0.223,0.019,0.453,0.096,0.688,0.233l-0.659,1.441c-0.194-0.117-0.356-0.182-0.487-0.191
		c-0.266-0.022-0.503,0.125-0.714,0.439c-0.21,0.313-0.354,0.949-0.433,1.912l-0.021,0.336l-0.228,2.783l-1.714-0.141
		L59.788,163.324z"/>
	<path fill="#666666" d="M67.626,164.746l-1.094,1.053c-0.427-0.441-0.819-0.666-1.175-0.672c-0.193-0.004-0.348,0.035-0.458,0.113
		c-0.111,0.081-0.169,0.184-0.172,0.305c-0.001,0.094,0.033,0.182,0.1,0.26c0.069,0.08,0.237,0.189,0.512,0.33l0.628,0.332
		c0.663,0.342,1.114,0.688,1.357,1.035c0.242,0.35,0.359,0.752,0.351,1.215c-0.013,0.611-0.249,1.119-0.707,1.521
		c-0.459,0.399-1.065,0.595-1.823,0.578c-1.007-0.021-1.805-0.431-2.389-1.228l1.089-1.143c0.199,0.242,0.433,0.439,0.703,0.59
		c0.271,0.15,0.511,0.229,0.722,0.232c0.229,0.006,0.414-0.045,0.557-0.152c0.142-0.107,0.213-0.234,0.217-0.377
		c0.005-0.266-0.24-0.533-0.74-0.797l-0.577-0.301c-1.106-0.586-1.651-1.303-1.634-2.148c0.012-0.545,0.231-1.008,0.66-1.387
		c0.428-0.379,0.97-0.561,1.626-0.549c0.448,0.008,0.869,0.115,1.261,0.32C67.027,164.083,67.357,164.373,67.626,164.746z"/>
	<path fill="#666666" d="M73.143,169.761l-2.852-8.893l1.398-0.447c0.811-0.26,1.42-0.398,1.83-0.414
		c0.576-0.029,1.084,0.096,1.521,0.379c0.438,0.281,0.738,0.682,0.906,1.203c0.107,0.338,0.135,0.668,0.08,0.99
		c-0.055,0.321-0.205,0.653-0.448,1c0.621,0.08,1.118,0.271,1.489,0.571c0.371,0.302,0.642,0.711,0.808,1.229
		c0.16,0.5,0.179,0.996,0.052,1.49s-0.359,0.908-0.703,1.242c-0.343,0.334-0.873,0.615-1.591,0.846L73.143,169.761z M72.501,161.94
		l0.601,1.873l0.371-0.119c0.412-0.133,0.69-0.315,0.836-0.555c0.146-0.238,0.17-0.505,0.073-0.804
		c-0.089-0.278-0.255-0.469-0.497-0.569c-0.242-0.103-0.559-0.093-0.945,0.032L72.501,161.94z M73.587,165.326l0.729,2.278
		l0.425-0.138c0.702-0.225,1.147-0.467,1.337-0.723c0.188-0.256,0.227-0.553,0.117-0.891c-0.123-0.383-0.362-0.639-0.721-0.77
		c-0.357-0.129-0.871-0.088-1.537,0.127L73.587,165.326z"/>
	<path fill="#666666" d="M81.439,158.744l1.543-0.791l3.148,6.146l-1.543,0.791l-0.333-0.649c-0.153,0.438-0.351,0.801-0.589,1.081
		c-0.236,0.281-0.534,0.515-0.887,0.693c-0.795,0.407-1.639,0.45-2.533,0.133s-1.576-0.938-2.046-1.853
		c-0.485-0.948-0.604-1.871-0.354-2.764c0.25-0.895,0.776-1.547,1.577-1.957c0.369-0.189,0.75-0.297,1.146-0.322
		c0.396-0.024,0.801,0.029,1.219,0.168L81.439,158.744z M80.467,160.839c-0.476,0.244-0.785,0.615-0.929,1.113
		c-0.144,0.5-0.078,1.012,0.19,1.539c0.272,0.53,0.656,0.885,1.153,1.063c0.496,0.178,0.979,0.146,1.448-0.095
		c0.484-0.248,0.8-0.623,0.945-1.123c0.146-0.5,0.08-1.022-0.2-1.567c-0.272-0.535-0.655-0.888-1.144-1.056
		C81.441,160.546,80.956,160.589,80.467,160.839z"/>
	<path fill="#666666" d="M83.736,157.569l1.5-0.87l0.355,0.612c0.174-0.483,0.364-0.86,0.575-1.136
		c0.211-0.27,0.461-0.491,0.75-0.659c0.592-0.343,1.215-0.429,1.868-0.254c0.551,0.149,1.025,0.567,1.426,1.258l2.291,3.944
		l-1.482,0.861l-1.519-2.615c-0.414-0.713-0.72-1.168-0.92-1.364c-0.2-0.195-0.415-0.31-0.646-0.341
		c-0.229-0.028-0.461,0.021-0.695,0.158c-0.303,0.176-0.504,0.428-0.604,0.756c-0.1,0.33-0.088,0.697,0.036,1.105
		c0.063,0.211,0.277,0.627,0.64,1.25l1.391,2.395l-1.499,0.871L83.736,157.569z"/>
	<path fill="#666666" d="M88.688,151.821l1.522-0.827l2.632,4.846l0.885-3.721l1.912-1.039l-1.035,4.328l4.644,1.571l-1.89,1.024
		l-4.098-1.396l1.52,2.797l-1.522,0.826L88.688,151.821z"/>
	<path fill="#666666" d="M102.146,141.164l0.078,1.717c-1.229,0.051-2.19,0.477-2.885,1.272c-0.586,0.675-0.848,1.44-0.789,2.302
		c0.061,0.862,0.428,1.586,1.102,2.172c0.471,0.41,0.976,0.67,1.518,0.783c0.542,0.112,1.079,0.071,1.612-0.121
		c0.532-0.191,0.995-0.517,1.394-0.974c0.338-0.39,0.574-0.81,0.709-1.256c0.137-0.449,0.18-1.033,0.131-1.754l1.739-0.084
		c0.056,0.963-0.021,1.76-0.226,2.396c-0.207,0.633-0.567,1.247-1.084,1.842c-0.952,1.096-2.079,1.688-3.381,1.783
		c-1.303,0.094-2.496-0.332-3.58-1.275c-0.703-0.611-1.188-1.313-1.459-2.105c-0.271-0.791-0.313-1.629-0.131-2.51
		c0.184-0.883,0.571-1.664,1.166-2.348c0.506-0.58,1.114-1.033,1.828-1.357C100.604,141.319,101.354,141.162,102.146,141.164z"/>
	<path fill="#666666" d="M100.372,139.953l0.948-1.449l8.013,5.235l-0.948,1.451L100.372,139.953z"/>
	<path fill="#666666" d="M104.391,139.405l1.021-1.424l2.701,1.938c0.527,0.377,0.918,0.603,1.175,0.679
		c0.257,0.071,0.499,0.069,0.729-0.009c0.228-0.077,0.426-0.235,0.594-0.469c0.168-0.236,0.256-0.475,0.262-0.719
		c0.005-0.244-0.072-0.482-0.23-0.717c-0.121-0.176-0.444-0.453-0.975-0.832l-2.749-1.973l1.011-1.408l2.377,1.707
		c0.979,0.703,1.596,1.262,1.846,1.674c0.305,0.506,0.443,1.025,0.414,1.563c-0.028,0.537-0.246,1.09-0.652,1.656
		c-0.441,0.617-0.938,1.016-1.484,1.197c-0.548,0.184-1.121,0.176-1.726-0.021c-0.42-0.137-1.078-0.522-1.976-1.168L104.391,139.405
		z"/>
	<path fill="#666666" d="M106.639,130.712l2.932,1.774c-0.104-0.43-0.129-0.842-0.074-1.231c0.054-0.394,0.189-0.769,0.404-1.121
		c0.468-0.771,1.154-1.25,2.064-1.436c0.909-0.187,1.819-0.003,2.73,0.551c0.881,0.533,1.447,1.258,1.701,2.174
		c0.254,0.914,0.148,1.754-0.314,2.52c-0.206,0.34-0.459,0.619-0.758,0.838c-0.299,0.221-0.674,0.393-1.123,0.516l0.623,0.377
		l-0.891,1.472l-8.187-4.963L106.639,130.712z M111.079,131.272c-0.282,0.468-0.358,0.951-0.228,1.451s0.455,0.905,0.969,1.219
		c0.525,0.315,1.043,0.42,1.554,0.31c0.511-0.109,0.907-0.4,1.19-0.867c0.273-0.451,0.34-0.932,0.197-1.441
		c-0.142-0.51-0.467-0.918-0.978-1.229c-0.507-0.307-1.015-0.406-1.522-0.299C111.755,130.522,111.359,130.808,111.079,131.272z"/>
</g>
</svg>
