<?xml version="1.0" encoding="utf-8"?>
<!-- Generator: Adobe Illustrator 14.0.0, SVG Export Plug-In . SVG Version: 6.00 Build 43363)  -->
<!DOCTYPE svg PUBLIC "-//W3C//DTD SVG 1.1//EN" "http://www.w3.org/Graphics/SVG/1.1/DTD/svg11.dtd">
<svg version="1.1" xmlns="http://www.w3.org/2000/svg" xmlns:xlink="http://www.w3.org/1999/xlink" x="0px" y="0px"
	 width="195.931px" height="201px" viewBox="0 0 195.931 201" enable-background="new 0 0 195.931 201" xml:space="preserve">
<g id="Ebene_2">
	<path d="M99.287,3.685c0,0,89.2,17.1,91.5,17.8c2.301,0.7,5.908,2.882,5,6.6c-2.164,8.86-9.308,34.036-16.399,54.8
		c-7.38,21.607-14.711,38.729-16.7,42.9c-5.9,12.3-28.459,37.4-40.567,50.355c-8.789,9.404-18.032,21.344-22.557,21.387
		c-4.276,0.039-14.201-11.242-23.576-21.143c-17.816-18.813-36.7-43.1-40.3-51.3c-1.559-3.551-8.725-19.753-15.4-38.6
		c-8.765-24.746-17.311-53.48-17.5-58.4c0-4.133,2.493-6.396,4.6-6.8C9.495,20.881,99.287,3.685,99.287,3.685z"/>
</g>
<g id="Ebene_4">
	<path fill="#FFFFFF" d="M99.287,14.313l88.729,13.771c0,0-21.715,72.914-35.144,97s-53.586,64.086-53.586,64.086
		s-42.128-43.029-54.128-64.086c-12-21.058-34.571-97-34.571-97L99.287,14.313z"/>
</g>
<g id="Ebene_5">
	<path fill="#EF1829" d="M99.287,16.885l85.101,13.8c0,0-19.927,69.131-34.8,94.4s-50.229,60-50.229,60s-36.86-36.967-50.572-60
		c-13.712-23.034-34.736-95.019-34.736-95.019L99.287,16.885z"/>
</g>
<g id="Ebene_11">
	<path fill="#FFFFFF" d="M99.387,18.085l83.4,13.8c0,0-21.172,68.895-33.533,91.267c-12.361,22.372-49.867,59.733-49.867,59.733
		s-38.753-39.642-49.799-59.2S15.921,31.418,15.921,31.418L99.387,18.085z"/>
</g>
<g id="Ebene_6">
	<path fill="#EF1829" d="M87.454,82.418L50.788,56.685v5.2c0,0-19.8-12.802-24.2-12.8c-3.733,0,9.333,36.8,9.333,36.8l2.466-13
		c51.4,48.2,52.3,77.6,47,74.4c-8.217-4.938-18.6-15.801-18.6-15.801l32.5,45.2c0,0,7.534-9.5,9.834-16.6
		c5.066-13.934-44.534-74.133-72.333-93.6l-1.6,6.8c0,0-3.729-14.458-1.733-15.267c2.467-1,20.667,13.333,20.667,13.333l0.066-5.867
		l26,21.4L87.454,82.418z"/>
</g>
<g id="Ebene_7">
	<path fill-rule="evenodd" clip-rule="evenodd" fill="#EF1829" d="M178.588,36.218c-22.711,13.573-57.353,30.875-79.882,43.867
		c-11.331,6.534-20.871,10.604-21.719,15.333c-1.447,7.549,5.984,13.441,14,20.934c8.975,8.387,18.894,18.298,22.134,25.2
		c3.333,7.066-0.934,17.866-0.934,17.866s13.467-16.267,13.2-20.934c-0.267-8.399-14.496-16.539-26.3-25.6
		c-9.663-7.416-18.234-9.733-17.3-15.6c0.379-3.11,11.672-7.06,25.867-12.933c22.921-9.485,53.958-21.856,62.934-27.867
		C174.454,53.952,176.721,49.085,178.588,36.218z"/>
	<polygon fill-rule="evenodd" clip-rule="evenodd" fill="#EF1829" points="101.921,112.418 125.088,111.785 138.188,121.984 
		108.987,117.185 	"/>
	<path fill-rule="evenodd" clip-rule="evenodd" fill="#EF1829" d="M94.887,107.585l57.9-10.6c0,0-7.3,7.7-10.199,9.2
		c-2.9,1.5-18.75,1.4-18.75,1.4s-0.851-0.101-1.051,0.7c-0.199,0.8,1.4,2.133,1.4,2.133l-23.5,0.867L94.887,107.585z"/>
	<path fill-rule="evenodd" clip-rule="evenodd" fill="#EF1829" d="M162.226,80.985c0,0-2.788,7.65-6.638,10.4
		c-4.036,2.883-40.601,8.4-40.601,8.4s-0.95,0.292-1,0.821s0.9,1.479,0.9,1.479l-21.4,4.6l-5.2-3.5L162.226,80.985z"/>
	<path fill-rule="evenodd" clip-rule="evenodd" fill="#EF1829" d="M121.388,82.235c23.403-9.332,49-19.95,49-19.95
		s-3.9,11.4-7.2,13.5s-57.6,19-57.6,19s-0.835,0.288-1.035,0.938s0.535,1.263,0.535,1.263l-18.25,5.2c0,0-4.557-1.642-2.7-4.7
		C84.897,96.233,102.473,89.777,121.388,82.235z"/>
</g>
<g id="Ebene_8">
	<g>
		<path stroke="#A5A5A5" stroke-width="0.5" d="M65.587,46.779h4.111v2.147h-2.441v1.745h2.085v2.018h-2.085v4.083h-1.67V46.779z"/>
		<path stroke="#A5A5A5" stroke-width="0.5" d="M70.384,51.783c0-1.631,0.245-2.902,0.734-3.811c0.489-0.909,1.17-1.364,2.044-1.364
			c0.896,0,1.586,0.447,2.07,1.34s0.727,2.144,0.727,3.753c0,1.168-0.106,2.125-0.317,2.873c-0.211,0.748-0.518,1.33-0.917,1.746
			c-0.4,0.416-0.899,0.624-1.496,0.624c-0.607,0-1.109-0.18-1.507-0.539s-0.72-0.927-0.967-1.704
			C70.508,53.923,70.384,52.951,70.384,51.783z M72.047,51.796c0,1.009,0.101,1.734,0.303,2.175
			c0.202,0.441,0.477,0.661,0.824,0.661c0.357,0,0.634-0.216,0.83-0.647c0.196-0.432,0.293-1.207,0.293-2.325
			c0-0.941-0.102-1.628-0.307-2.062c-0.204-0.434-0.481-0.651-0.831-0.651c-0.335,0-0.604,0.221-0.808,0.661
			C72.148,50.049,72.047,50.778,72.047,51.796z"/>
		<path stroke="#A5A5A5" stroke-width="0.5" d="M76.646,51.783c0-1.631,0.245-2.902,0.734-3.811
			c0.489-0.909,1.171-1.364,2.044-1.364c0.896,0,1.585,0.447,2.07,1.34s0.727,2.144,0.727,3.753c0,1.168-0.106,2.125-0.318,2.873
			c-0.211,0.748-0.517,1.33-0.917,1.746c-0.4,0.416-0.898,0.624-1.496,0.624c-0.607,0-1.109-0.18-1.506-0.539
			c-0.398-0.359-0.72-0.927-0.967-1.704C76.77,53.923,76.646,52.951,76.646,51.783z M78.309,51.796c0,1.009,0.101,1.734,0.303,2.175
			s0.477,0.661,0.824,0.661c0.357,0,0.634-0.216,0.83-0.647c0.196-0.432,0.293-1.207,0.293-2.325c0-0.941-0.102-1.628-0.306-2.062
			c-0.205-0.434-0.481-0.651-0.832-0.651c-0.335,0-0.604,0.221-0.807,0.661C78.41,50.049,78.309,50.778,78.309,51.796z"/>
		<path stroke="#A5A5A5" stroke-width="0.5" d="M82.544,46.779h5.054v2.468h-1.696v7.526H84.24v-7.526h-1.696V46.779z"/>
		<path stroke="#A5A5A5" stroke-width="0.5" d="M88.354,46.779h3.112c0.519,0,0.917,0.239,1.195,0.716
			c0.278,0.478,0.417,1.068,0.417,1.772c0,0.591-0.099,1.098-0.297,1.521c-0.132,0.282-0.326,0.504-0.58,0.668
			c0.386,0.173,0.671,0.469,0.853,0.89s0.273,0.949,0.273,1.585c0,0.518-0.065,0.984-0.194,1.397
			c-0.13,0.414-0.307,0.741-0.532,0.982c-0.14,0.15-0.35,0.259-0.631,0.327c-0.375,0.091-0.623,0.136-0.745,0.136h-2.87V46.779z
			 M90.031,50.699h0.723c0.259,0,0.44-0.083,0.542-0.249c0.101-0.166,0.152-0.406,0.152-0.719c0-0.291-0.051-0.518-0.152-0.682
			c-0.102-0.164-0.279-0.246-0.531-0.246h-0.734V50.699z M90.031,54.625h0.848c0.286,0,0.488-0.094,0.605-0.283
			c0.117-0.189,0.176-0.442,0.176-0.76c0-0.295-0.059-0.533-0.175-0.712s-0.32-0.269-0.611-0.269h-0.844V54.625z"/>
		<path stroke="#A5A5A5" stroke-width="0.5" d="M97.376,55.123h-1.888l-0.262,1.65h-1.698l2.022-9.994h1.813l2.022,9.994h-1.741
			L97.376,55.123z M97.032,52.962l-0.594-3.592l-0.587,3.592H97.032z"/>
		<path stroke="#A5A5A5" stroke-width="0.5" d="M99.915,46.779h1.663v7.533h2.595v2.461h-4.258V46.779z"/>
		<path stroke="#A5A5A5" stroke-width="0.5" d="M104.929,46.779h1.663v7.533h2.595v2.461h-4.258V46.779z"/>
		<path stroke="#A5A5A5" stroke-width="0.5" d="M116.031,52.683l1.457,0.818c-0.098,0.759-0.252,1.393-0.462,1.902
			c-0.211,0.509-0.472,0.893-0.784,1.152c-0.312,0.259-0.709,0.389-1.19,0.389c-0.585,0-1.063-0.158-1.434-0.474
			c-0.371-0.315-0.69-0.871-0.96-1.666c-0.269-0.795-0.403-1.812-0.403-3.052c0-1.653,0.236-2.923,0.71-3.812
			c0.474-0.888,1.144-1.332,2.01-1.332c0.678,0,1.21,0.255,1.598,0.764c0.389,0.509,0.677,1.291,0.865,2.345l-1.469,0.606
			c-0.051-0.304-0.104-0.527-0.161-0.668c-0.093-0.236-0.207-0.418-0.342-0.545c-0.134-0.127-0.284-0.191-0.451-0.191
			c-0.377,0-0.665,0.282-0.866,0.845c-0.151,0.417-0.228,1.073-0.228,1.967c0,1.108,0.091,1.867,0.271,2.278
			c0.182,0.411,0.436,0.616,0.764,0.616c0.318,0,0.559-0.166,0.722-0.498C115.84,53.796,115.958,53.314,116.031,52.683z"/>
		<path stroke="#A5A5A5" stroke-width="0.5" d="M118.296,46.779h1.663v7.533h2.595v2.461h-4.258V46.779z"/>
		<path stroke="#A5A5A5" stroke-width="0.5" d="M126.616,46.779h1.659v5.955c0,0.59-0.05,1.148-0.148,1.672
			c-0.1,0.524-0.255,0.983-0.467,1.376c-0.211,0.393-0.434,0.669-0.666,0.828c-0.322,0.223-0.71,0.334-1.163,0.334
			c-0.262,0-0.548-0.034-0.857-0.102c-0.309-0.068-0.568-0.203-0.776-0.406c-0.207-0.202-0.397-0.489-0.57-0.861
			c-0.172-0.373-0.291-0.756-0.354-1.151c-0.103-0.636-0.153-1.199-0.153-1.689v-5.955h1.658v6.096c0,0.545,0.082,0.971,0.244,1.277
			c0.163,0.307,0.389,0.459,0.678,0.459c0.286,0,0.511-0.151,0.673-0.453c0.163-0.302,0.244-0.73,0.244-1.284V46.779z"/>
		<path stroke="#A5A5A5" stroke-width="0.5" d="M129.38,46.779h3.112c0.52,0,0.917,0.239,1.195,0.716
			c0.277,0.478,0.416,1.068,0.416,1.772c0,0.591-0.099,1.098-0.297,1.521c-0.133,0.282-0.325,0.504-0.58,0.668
			c0.387,0.173,0.671,0.469,0.854,0.89c0.182,0.42,0.273,0.949,0.273,1.585c0,0.518-0.064,0.984-0.194,1.397
			s-0.308,0.741-0.532,0.982c-0.14,0.15-0.351,0.259-0.632,0.327c-0.374,0.091-0.622,0.136-0.745,0.136h-2.87V46.779z
			 M131.058,50.699h0.723c0.26,0,0.439-0.083,0.542-0.249c0.102-0.166,0.151-0.406,0.151-0.719c0-0.291-0.05-0.518-0.151-0.682
			c-0.103-0.164-0.279-0.246-0.531-0.246h-0.733V50.699z M131.058,54.625h0.848c0.286,0,0.488-0.094,0.605-0.283
			c0.117-0.189,0.177-0.442,0.177-0.76c0-0.295-0.059-0.533-0.175-0.712s-0.32-0.269-0.611-0.269h-0.844V54.625z"/>
	</g>
</g>
<g id="Ebene_9">
	<path stroke="#A5A5A5" stroke-width="0.75" d="M43.297,30.264l10.258-1.094l0.006,4.054l-3.442,0.367l0.019,12.363l-3.375,0.36
		l-0.02-12.363l-3.441,0.367L43.297,30.264z"/>
	<path stroke="#A5A5A5" stroke-width="0.75" d="M55.771,28.812l3.383-0.304l-0.127,5.887l3.697-0.333l0.127-5.887l3.398-0.305
		l-0.365,16.823l-3.398,0.305l0.147-6.805l-3.697,0.332l-0.147,6.805l-3.383,0.304L55.771,28.812z"/>
	<path stroke="#A5A5A5" stroke-width="0.75" d="M75.323,40.939l-3.836,0.422l-0.555,2.9l-3.45,0.38l4.242-17.665l3.686-0.406
		l3.978,16.76l-3.539,0.39L75.323,40.939z M74.65,37.295l-1.16-6.055l-1.241,6.319L74.65,37.295z"/>
	<path stroke="#A5A5A5" stroke-width="0.75" d="M80.81,25.814l3.384-0.417l0.018,17.485l-3.383,0.417L80.81,25.814z"/>
	<path stroke="#A5A5A5" stroke-width="0.75" d="M104.386,32.522c0.099-2.844,0.702-4.987,1.811-6.431s2.604-2.04,4.484-1.789
		c1.929,0.257,3.388,1.233,4.377,2.929c0.99,1.696,1.437,3.945,1.34,6.749c-0.07,2.036-0.355,3.675-0.856,4.917
		c-0.501,1.242-1.194,2.168-2.081,2.778c-0.887,0.609-1.973,0.829-3.259,0.657c-1.307-0.175-2.377-0.631-3.212-1.372
		c-0.835-0.74-1.494-1.823-1.98-3.248C104.523,36.288,104.316,34.558,104.386,32.522z M107.966,33.023
		c-0.061,1.758,0.113,3.05,0.521,3.877c0.408,0.826,0.986,1.289,1.735,1.389c0.769,0.103,1.377-0.194,1.824-0.891
		c0.448-0.696,0.705-2.019,0.772-3.967c0.057-1.64-0.122-2.867-0.536-3.682s-0.997-1.273-1.751-1.374
		c-0.722-0.096-1.315,0.211-1.778,0.92C108.289,30.007,108.027,31.249,107.966,33.023z"/>
	<path stroke="#A5A5A5" stroke-width="0.75" d="M118.056,26.045l3.368,0.288l4.456,9.8l-0.062-9.424l3.4,0.29l0.111,17.035
		l-3.4-0.291l-4.433-9.727l0.062,9.353l-3.392-0.289L118.056,26.045z"/>
	<path stroke="#A5A5A5" stroke-width="0.75" d="M131.347,27.404l5.267,0.534c1.038,0.105,1.874,0.395,2.51,0.87
		c0.635,0.476,1.157,1.118,1.566,1.927c0.409,0.81,0.703,1.733,0.88,2.77c0.178,1.037,0.261,2.125,0.248,3.265
		c-0.018,1.785-0.172,3.155-0.461,4.11c-0.29,0.956-0.686,1.74-1.188,2.354c-0.502,0.614-1.039,1.003-1.609,1.166
		c-0.781,0.225-1.487,0.305-2.118,0.241l-5.267-0.534L131.347,27.404z M134.852,31.546l-0.094,9.126l0.869,0.088
		c0.74,0.075,1.269,0.009,1.584-0.199s0.565-0.6,0.749-1.179c0.184-0.578,0.282-1.536,0.296-2.873
		c0.019-1.77-0.167-3.001-0.558-3.695c-0.39-0.693-1.044-1.086-1.962-1.18L134.852,31.546z"/>
	<path stroke="#A5A5A5" stroke-width="0.75" d="M149.634,43.317l-3.828-0.405l-0.543,2.678l-3.443-0.364l4.167-16.127l3.679,0.388
		l4.035,16.994l-3.531-0.373L149.634,43.317z M148.948,39.662l-1.182-6.08l-1.215,5.827L148.948,39.662z"/>
	<polygon stroke="#A5A5A5" stroke-width="0.75" points="92.054,24.585 92.054,42.018 95.572,41.488 95.654,34.623 99.387,34.208 
		99.387,41.181 103.116,41.704 103.116,24.377 99.387,23.818 99.387,29.919 95.654,30.373 95.621,24.062 	"/>
</g>
<g id="Ebene_10">
	<g>
		<path d="M72.34,146.151l0.578,0.671c-0.103,0.102-0.167,0.199-0.191,0.291c-0.039,0.15-0.005,0.296,0.102,0.438
			c0.081,0.105,0.167,0.168,0.26,0.188c0.093,0.02,0.172,0.004,0.237-0.045c0.062-0.048,0.097-0.117,0.105-0.209
			c0.008-0.091-0.042-0.253-0.149-0.484c-0.173-0.38-0.251-0.685-0.235-0.915c0.015-0.23,0.117-0.417,0.304-0.56
			c0.123-0.094,0.266-0.146,0.43-0.157s0.331,0.03,0.502,0.126s0.352,0.269,0.541,0.518c0.232,0.307,0.352,0.583,0.36,0.83
			c0.008,0.247-0.101,0.48-0.326,0.699l-0.57-0.667c0.094-0.101,0.143-0.199,0.146-0.295c0.004-0.098-0.033-0.197-0.113-0.303
			c-0.065-0.086-0.132-0.137-0.202-0.152c-0.069-0.017-0.13-0.004-0.183,0.035c-0.038,0.029-0.059,0.073-0.062,0.132
			c-0.005,0.06,0.028,0.164,0.1,0.315c0.175,0.377,0.281,0.662,0.315,0.856c0.035,0.193,0.023,0.362-0.034,0.507
			c-0.057,0.144-0.151,0.266-0.282,0.364c-0.153,0.116-0.327,0.182-0.521,0.194c-0.194,0.014-0.382-0.03-0.565-0.133
			c-0.183-0.102-0.362-0.269-0.538-0.5c-0.309-0.408-0.444-0.75-0.407-1.025C71.981,146.596,72.113,146.355,72.34,146.151z"/>
		<path d="M75.896,147.512l0.563,0.742l-2.396,1.816l-0.563-0.742L75.896,147.512z"/>
		<path d="M76.864,148.79l0.524,0.691l-0.642,1.906l1.326-1.005l0.529,0.698l-2.396,1.816l-0.529-0.698l0.635-1.895l-1.315,0.997
			l-0.528-0.696L76.864,148.79z"/>
		<path d="M78.768,154.241l0.296,0.797c-0.215,0.095-0.419,0.142-0.612,0.14c-0.193-0.001-0.373-0.047-0.541-0.14
			c-0.167-0.092-0.333-0.245-0.495-0.459c-0.197-0.261-0.321-0.502-0.37-0.725c-0.05-0.223-0.024-0.466,0.075-0.729
			c0.1-0.265,0.298-0.51,0.595-0.734c0.396-0.301,0.781-0.427,1.154-0.377c0.373,0.05,0.705,0.267,0.998,0.652
			c0.229,0.302,0.347,0.586,0.356,0.851c0.009,0.266-0.082,0.536-0.271,0.812l-0.641-0.544c0.056-0.078,0.091-0.143,0.106-0.193
			c0.025-0.084,0.03-0.168,0.015-0.251c-0.015-0.083-0.05-0.161-0.106-0.235c-0.127-0.168-0.292-0.245-0.495-0.232
			c-0.151,0.009-0.334,0.094-0.549,0.256c-0.265,0.202-0.417,0.38-0.454,0.535c-0.038,0.155-0.001,0.306,0.11,0.452
			c0.107,0.142,0.228,0.219,0.363,0.23C78.436,154.358,78.591,154.323,78.768,154.241z"/>
		<path d="M80.946,154.175l1.504,1.984l-0.512,0.388l-0.941-1.242l-0.381,0.288l0.874,1.152l-0.489,0.371l-0.874-1.152l-0.472,0.357
			l0.969,1.278l-0.542,0.411l-1.531-2.02L80.946,154.175z"/>
		<path d="M82.625,161.366l-1.514-1.997c0.215-0.127,0.453-0.198,0.714-0.214s0.632,0.047,1.11,0.187
			c0.293,0.086,0.498,0.127,0.614,0.124c0.117-0.002,0.208-0.029,0.276-0.08c0.073-0.056,0.115-0.13,0.125-0.223
			c0.011-0.094-0.015-0.181-0.077-0.263c-0.064-0.085-0.144-0.134-0.238-0.147s-0.216,0.021-0.365,0.105l-0.451-0.708
			c0.207-0.115,0.39-0.179,0.547-0.188c0.158-0.01,0.313,0.027,0.466,0.111c0.152,0.085,0.313,0.239,0.483,0.464
			c0.178,0.234,0.289,0.437,0.334,0.607c0.045,0.17,0.041,0.335-0.013,0.493c-0.054,0.159-0.149,0.29-0.287,0.395
			c-0.146,0.11-0.318,0.173-0.515,0.188c-0.198,0.015-0.462-0.029-0.792-0.135c-0.194-0.063-0.327-0.104-0.398-0.121
			c-0.071-0.018-0.16-0.034-0.266-0.05l0.788,1.04L82.625,161.366z"/>
		<path d="M84.048,160.735c0.455-0.346,0.836-0.505,1.142-0.479c0.307,0.026,0.587,0.207,0.841,0.543
			c0.122,0.161,0.203,0.309,0.241,0.442s0.051,0.257,0.037,0.371c-0.014,0.113-0.042,0.216-0.084,0.307
			c-0.042,0.091-0.101,0.184-0.177,0.277c-0.145,0.18-0.314,0.344-0.508,0.49c-0.435,0.33-0.809,0.497-1.122,0.503
			c-0.313,0.006-0.606-0.171-0.878-0.53c-0.153-0.202-0.244-0.389-0.274-0.563c-0.03-0.173-0.013-0.346,0.051-0.52
			c0.044-0.125,0.131-0.261,0.26-0.409C83.706,161.02,83.863,160.876,84.048,160.735z M84.547,161.396
			c-0.305,0.231-0.493,0.416-0.563,0.555c-0.071,0.139-0.068,0.26,0.01,0.361c0.051,0.068,0.12,0.108,0.205,0.122
			s0.188-0.007,0.308-0.061c0.12-0.055,0.289-0.164,0.505-0.328c0.318-0.241,0.512-0.43,0.581-0.567
			c0.068-0.137,0.062-0.259-0.02-0.367c-0.083-0.109-0.2-0.146-0.348-0.111C85.074,161.036,84.849,161.168,84.547,161.396z"/>
		<path d="M85.74,162.968c0.456-0.346,0.836-0.505,1.143-0.479c0.306,0.026,0.587,0.207,0.841,0.543
			c0.122,0.161,0.203,0.309,0.241,0.442s0.051,0.258,0.037,0.371s-0.042,0.216-0.084,0.307c-0.042,0.091-0.101,0.184-0.177,0.277
			c-0.145,0.18-0.314,0.344-0.508,0.49c-0.435,0.33-0.809,0.497-1.122,0.503s-0.605-0.171-0.878-0.53
			c-0.152-0.202-0.244-0.389-0.274-0.562c-0.03-0.174-0.013-0.347,0.051-0.521c0.044-0.124,0.131-0.261,0.26-0.409
			C85.398,163.252,85.555,163.108,85.74,162.968z M86.239,163.629c-0.305,0.231-0.493,0.416-0.564,0.555s-0.067,0.26,0.01,0.361
			c0.051,0.068,0.12,0.108,0.204,0.122c0.085,0.014,0.188-0.007,0.308-0.061c0.12-0.055,0.289-0.164,0.505-0.328
			c0.318-0.241,0.512-0.43,0.58-0.567c0.069-0.137,0.062-0.259-0.02-0.367c-0.083-0.109-0.2-0.146-0.349-0.111
			C86.766,163.269,86.541,163.4,86.239,163.629z"/>
		<path d="M87.433,165.2c0.456-0.346,0.836-0.505,1.143-0.479c0.306,0.025,0.586,0.206,0.841,0.542
			c0.123,0.161,0.203,0.309,0.241,0.442c0.039,0.134,0.051,0.258,0.037,0.371s-0.042,0.216-0.084,0.307
			c-0.042,0.091-0.101,0.184-0.177,0.277c-0.145,0.18-0.314,0.344-0.508,0.49c-0.435,0.33-0.809,0.497-1.122,0.503
			s-0.606-0.171-0.878-0.53c-0.153-0.202-0.244-0.389-0.274-0.562c-0.03-0.174-0.013-0.347,0.051-0.521
			c0.044-0.124,0.131-0.261,0.26-0.409C87.09,165.484,87.248,165.341,87.433,165.2z M87.932,165.861
			c-0.305,0.231-0.493,0.416-0.564,0.555s-0.067,0.26,0.01,0.362c0.051,0.067,0.119,0.107,0.204,0.121s0.188-0.007,0.308-0.061
			c0.12-0.055,0.289-0.163,0.505-0.328c0.318-0.241,0.511-0.43,0.58-0.567c0.068-0.137,0.062-0.259-0.02-0.367
			c-0.083-0.109-0.2-0.146-0.349-0.111C88.458,165.501,88.233,165.633,87.932,165.861z"/>
	</g>
</g>
</svg>
