<svg xmlns:dc="http://purl.org/dc/elements/1.1/" xmlns:cc="http://creativecommons.org/ns#" xmlns:rdf="http://www.w3.org/1999/02/22-rdf-syntax-ns#" xmlns:svg="http://www.w3.org/2000/svg" xmlns="http://www.w3.org/2000/svg" height="343" width="612" version="1.1"><rect id="backgroundrect" width="100%" height="100%" x="0" y="0" fill="none" stroke="none"/>
  <metadata id="metadata62">
    <rdf:RDF>
      <cc:Work rdf:about="">
        <dc:format>image/svg+xml</dc:format>
        <dc:type rdf:resource="http://purl.org/dc/dcmitype/StillImage"/>
      </cc:Work>
    </rdf:RDF>
  </metadata>
  <defs id="defs60"/>
  
<g class="currentLayer"><title>Layer 1</title><g id="Layer1000" class="">
    <g id="Layer1001">
      <path id="path2" style="fill:#b0ca25;fill-rule:evenodd" d="m169.91767719726562,53.97746611328125 a108.0055,199.5664 58.3681 0 1 226.5625,-12.705 a108.0055,199.5664 58.3681 1 1 -226.5625,12.705 z"/>
      <g id="Layer1002">
        <path id="path4" style="fill:#00509d;fill-rule:evenodd" d="m293.9618771972656,37.557766113281275 c-34.0838,10.763 -58.3479,26.3278 -73.532,46.4734 c-13.824300000000001,18.3417 -19.0474,39.2119 -15.3223,58.9722 c4.8958,25.9718 33.9805,72.7904 117.6239,55.9371 c-42.0177,22.0952 -89.3376,26.4354 -121.6331,7.702 c-15.7721,-9.1488 -28.3508,-23.6721 -34.2263,-44.5679 C154.72737719726564,118.88366611328127 181.46327719726563,46.41226611328125 293.9618771972656,37.557766113281275 z"/>
        <path id="path6" style="fill:#00509d;fill-rule:evenodd" d="m85.53777719726563,69.74906611328123 c42.8643,12.8276 65.2892,20.5469 80.7121,33.3746 c5.1083,-12.6006 13.3952,-23.8958 24.8606,-32.8638 c-32.2394,-6.6976 -71.4602,-6.867900000000001 -105.5727,-0.5108 z"/>
        <path id="path8" style="fill:#00509d;fill-rule:evenodd" d="m159.43867719726563,153.01526611328126 c3.4337,18.6739 8.9393,34.2827 17.1982,41.2074 c-1.779,1.5784 -4.6923,7.1329 -7.2205,10.5508 c-6.9904,9.451 -14.9454,18.1972 -24.1524,26.6458 c-20.8965,19.1739 -50.6153,38.0659 -100.4227,66.503 c26.4564,-24.0293 53.7417,-50.015 75.3325,-76.0624 c18.8648,-22.7581 33.5547,-44.6333 39.2649,-68.8446 z"/>
        <path id="path10" style="fill:#00509d;fill-rule:evenodd" d="M268.8731771972656,232.38356611328123 A20.3082,27.723300000000002 13.2747 0 1 282.27287719726564,264.0292661132812 A20.3082,27.723300000000002 13.2747 1 1 268.8731771972656,232.38356611328123 z"/>
        <path id="path12" style="fill:#00509d;fill-rule:evenodd" d="m212.08137719726562,7.979166113281224 a19.5784,26.727 24.051 0 1 6.9861,32.3858 a19.5784,26.727 24.051 1 1 -6.9861,-32.3858 z"/>
      </g>
    </g>
    <g id="Layer1003">
      <path id="path16" style="fill:#000200;fill-rule:evenodd" d="m260.71127719726564,144.02066611328127 l8.2767,-51.9044 h13.4097 l4.6602,27.875700000000002 l4.8665,-27.875700000000002 h12.1601 l-8.1431,51.9044 h-13.325 l-4.9516,-26.8805 l-4.587,26.8805 z"/>
      <path id="path18" style="fill:#000200;fill-rule:evenodd" d="m319.8728771972656,126.70286611328123 c0,1.9419 0.2548,3.3618 0.7767000000000001,4.2477 c0.522,0.8860000000000001 1.3592,1.3348 2.4879000000000002,1.3348 c0.9708,0 1.8447,-0.40040000000000003 2.6214,-1.1892 c0.7644000000000001,-0.8011 1.444,-2.0874 2.0387,-3.8957 c0.35200000000000004,-1.0192 0.7040000000000001,-2.2571 1.0316,-3.7255000000000003 c0.32760000000000006,-1.4686 0.6188000000000001,-2.9977 0.8495,-4.5873 c0.49760000000000004,-3.2766 0.7524000000000001,-6.3712 0.7524000000000001,-9.3082 c0,-1.9296000000000002 -0.2548,-3.3495 -0.7524000000000001,-4.2718 c-0.49760000000000004,-0.9224 -1.2623,-1.3835000000000002 -2.3058,-1.3835000000000002 c-1.0923,0 -2.0388,0.4007 -2.8399,1.2135 c-0.7403000000000001,0.7768 -1.3955000000000002,2.039 -1.9659,3.7986 c-0.7523000000000001,2.3179 -1.3955000000000002,5.1457 -1.9175,8.4587 c-0.5219,3.313 -0.7767000000000001,6.4197 -0.7767000000000001,9.3079 zm1.7355,18.3494 c-4.9029,0 -8.8471,-1.7719 -11.8322,-5.3277 c-2.9854,-3.5558 -4.4782,-8.2887 -4.4782,-14.1865 c0,-4.818 0.6068000000000001,-9.4902 1.8447,-14.0412 c0.6432000000000001,-2.3542 1.3712,-4.4417 2.1843,-6.274 c0.8132,-1.8447 1.784,-3.5679 2.9003,-5.1821 c2.0391,-2.9611 4.4418,-5.1818 7.1968,-6.6625 c2.7667,-1.4807000000000001 5.8977,-2.2207 9.405100000000001,-2.2207 c4.9513,0 8.9075,1.7596000000000003 11.8809,5.2669 c2.9611,3.5071 4.4418,8.252 4.4418,14.2473 c0,4.8665 -0.6192000000000001,9.5386 -1.8327,14.0288 c-1.2256,4.4902 -2.9247,8.3131 -5.109,11.4682 c-1.9662000000000002,2.9126000000000003 -4.3325000000000005,5.1213 -7.1239,6.6264 c-2.7791,1.5047000000000001 -5.9465,2.2571 -9.4779,2.2571 z"/>
      <path id="path20" style="fill:#000200;fill-rule:evenodd" d="m366.7827771972656,114.00916611328125 h18.5557 c0,5.1213 -0.5219,9.6355 -1.5775000000000001,13.5433 c-1.0559,3.9198 -2.5486,7.2087 -4.4661,9.890600000000001 c-3.653,5.0729 -9.0047,7.6092 -16.0676,7.6092 c-5.4733,0 -9.6602,-1.6991 -12.5485,-5.0849 c-2.9006,-3.3858 -4.3446,-8.2764 -4.3446,-14.6477 c0,-2.5366 0.1456,-4.9757 0.42480000000000007,-7.3179 c0.2912,-2.3543000000000003 0.7404000000000001,-4.6722 1.3592,-6.9780999999999995 c1.2015,-4.5265 2.8882000000000003,-8.3735 5.0485,-11.5533 c1.8203,-2.7427 4.1502,-4.8301 7.0024,-6.2497 c2.8395,-1.4199000000000002 6.0921,-2.1359 9.7327,-2.1359 c4.5509,0 8.2523,1.0556 11.0921,3.1795 c2.8519,2.1238 4.6602,5.1697 5.449,9.1259 l-13.3373,4.9273 c-0.35200000000000004,-1.6263 -0.8495,-2.7670000000000003 -1.4927000000000001,-3.3982 c-0.5947000000000001,-0.6672000000000001 -1.4199000000000002,-0.9951 -2.4879000000000002,-0.9951 c-1.092,0 -2.0507,0.3883000000000001 -2.8762,1.1771 c-0.8372,0.7768 -1.5532,1.9903 -2.1723,3.6166 c-0.7764,2.3058 -1.4927000000000001,5.2669 -2.1115,8.9075 c-0.6311000000000001,3.641 -0.9464,6.7356 -0.9464,9.2962 c0,1.99 0.26680000000000004,3.3979 0.8128000000000001,4.2231 c0.5948000000000001,0.8131 1.5415,1.2135 2.8519,1.2135 c1.6386000000000003,0 2.9370000000000003,-0.7036000000000001 3.9078,-2.0995 c0.5219,-0.7280000000000001 0.9467000000000001,-1.6019 1.2623,-2.597 c0.32760000000000006,-0.9952 0.4852,-2.1115 0.4852,-3.3735 h-4.939 z"/>
      <path id="path22" style="fill:#000200;fill-rule:evenodd" d="m402.2657771972656,126.70286611328123 c0,1.9419 0.2548,3.3618 0.7768,4.2477 c0.5219,0.8860000000000001 1.3591,1.3348 2.4878,1.3348 c0.9708,0 1.8447,-0.40040000000000003 2.6214,-1.1892 c0.7644000000000001,-0.8011 1.444,-2.0874 2.0388,-3.8957 c0.35190000000000005,-1.0192 0.7039000000000001,-2.2571 1.0315,-3.7255000000000003 c0.32760000000000006,-1.4686 0.6188000000000001,-2.9977 0.8495,-4.5873 c0.49760000000000004,-3.2766 0.7524000000000001,-6.3712 0.7524000000000001,-9.3082 c0,-1.9296000000000002 -0.2548,-3.3495 -0.7524000000000001,-4.2718 c-0.49750000000000005,-0.9224 -1.2622,-1.3835000000000002 -2.3058,-1.3835000000000002 c-1.0923,0 -2.0387,0.4007 -2.8398000000000003,1.2135 c-0.7404000000000001,0.7768 -1.3956,2.039 -1.9660000000000002,3.7986 c-0.7523000000000001,2.3179 -1.3955000000000002,5.1457 -1.9174,8.4587 c-0.522,3.313 -0.7768,6.4197 -0.7768,9.3079 zm1.7355,18.3494 c-4.9029,0 -8.8471,-1.7719 -11.8322,-5.3277 c-2.9854,-3.5558 -4.4781,-8.2887 -4.4781,-14.1865 c0,-4.818 0.6067000000000001,-9.4902 1.8446000000000002,-14.0412 c0.6432000000000001,-2.3542 1.3712,-4.4417 2.1844,-6.274 c0.8131,-1.8447 1.7839,-3.5679 2.9002,-5.1821 c2.0391,-2.9611 4.4418,-5.1818 7.1968,-6.6625 c2.7667,-1.4807000000000001 5.8977,-2.2207 9.405100000000001,-2.2207 c4.9513,0 8.9075,1.7596000000000003 11.8809,5.2669 c2.9611,3.5071 4.4418,8.252 4.4418,14.2473 c0,4.8665 -0.6191000000000001,9.5386 -1.8327,14.0288 c-1.2256,4.4902 -2.9246,8.3131 -5.109,11.4682 c-1.9662000000000002,2.9126000000000003 -4.3325000000000005,5.1213 -7.1239,6.6264 c-2.779,1.5047000000000001 -5.9465,2.2571 -9.4779,2.2571 z"/>
      <path id="path24" style="fill:#000200;fill-rule:evenodd" d="m445.5057771972656,105.51406611328127 l-7.33,38.5066 h-12.4757 l11.9417,-51.9044 h16.9655 l0.15800000000000003,27.3782 l8.7983,-27.3782 h16.8931 l-4.4418,51.9044 h-12.5241 l4.7330000000000005,-38.4338 l-12.3421,38.4218 l-9.7692,0.012000000000000002 z"/>
      <path id="path26" style="fill:#000200;fill-rule:evenodd" d="m480.2206771972656,144.02066611328127 l8.2523,-51.9044 h25.7035 l-1.9903,12.5846 h-11.2011 l-1.1043,6.614 h10.1331 l-1.8808000000000002,12.1601 h-10.1334 l-1.1772,7.1357 h11.2378 l-2.1362,13.41 z"/>
      <path id="path28" style="fill:#000200;fill-rule:evenodd" d="M532.7956771972656,144.02066611328127 H518.2208771972656 l6.1164,-38.7494 h-8.6163 l2.0751,-13.155 h31.8199 l-2.0995,13.155 h-8.6043 z"/>
      <path id="path30" style="fill:#000200;fill-rule:evenodd" d="m547.4538771972656,144.02066611328127 l8.2767,-51.9044 h13.4097 l4.6602,27.875700000000002 l4.8665,-27.875700000000002 h12.1601 l-8.1431,51.9044 h-13.325 l-4.9516,-26.8805 l-4.587,26.8805 z"/>
      <path id="path32" style="fill:#000200;fill-rule:evenodd" d="m589.0520771972656,144.02066611328127 l8.216,-51.9044 h14.5023 l-8.2403,51.9044 z"/>
      <path id="path34" style="fill:#000200;fill-rule:evenodd" d="m427.89427719726564,215.02716611328123 l8.2523,-51.9044 h14.4657 l-3.4102,21.6864 l11.4441,-21.6864 h14.757200000000001 l-14.3932,23.9559 l6.5412,27.9485 h-15.7159 l-3.6647000000000003,-23.6039 l-3.7744999999999997,23.6039 z"/>
      <path id="path36" style="fill:#000200;fill-rule:evenodd" d="m467.8692771972656,215.02716611328123 l8.2524,-51.9044 h14.5387 l-6.1892,39.0283 h10.630700000000001 l-2.0264,12.876100000000001 z"/>
      <path id="path38" style="fill:#000200;fill-rule:evenodd" d="m498.85687719726565,196.47176611328126 l5.2305,-33.349 h14.5749 l-5.5458,34.7322 l-0.10920000000000002,0.7767000000000001 l-0.0364,0.8252 c0,0.8255 0.2548,1.5291000000000001 0.7524000000000001,2.0874 c0.49760000000000004,0.49760000000000004 1.1892,0.7524000000000001 2.0995,0.7524000000000001 c1.1284,0 2.0143,-0.35200000000000004 2.6455,-1.0679 c0.6311000000000001,-0.7037000000000001 1.0799,-1.8324 1.3715000000000002,-3.3738 l5.5093,-34.7322 h14.5024 l-5.2913,33.3126 l-0.10920000000000002,0.5339 c-0.9951,6.2985 -2.5486,10.7035 -4.6601,13.1914 c-1.6383,1.9903 -3.7378,3.483 -6.2985,4.4781 c-2.5606,0.9952 -5.5825,1.4927000000000001 -9.0655,1.4927000000000001 c-5.4001,0 -9.4294,-1.1407 -12.087,-3.4102 c-2.6578,-2.2815 -3.9805,-5.7765 -3.9805,-10.485 l0.10920000000000002,-2.5002 c0,-0.4732 0,-0.7644000000000001 0.012000000000000002,-0.8980000000000001 c0.012300000000000002,-0.1336 0.1456,-0.9224 0.3763000000000001,-2.3663 z"/>
      <path id="path40" style="fill:#000200;fill-rule:evenodd" d="m537.5264771972656,215.02716611328123 l8.2524,-51.9044 h13.3977 c6.4684,0 11.1406,0.9344 13.9924,2.7911 c2.8522,1.8567 4.2841000000000005,4.9149 4.2841000000000005,9.1503 c0,3.3982 -0.9223,6.1408 -2.7670000000000003,8.2523 c-1.8567,2.1115 -4.6237,3.5802 -8.3251,4.4054 c2.7306,0.7644000000000001 4.8301,2.0994 6.3108,4.0169 c1.4803000000000002,1.9175 2.2207,4.2474 2.2207,6.9657 c0,2.4515000000000002 -0.5096,4.7453 -1.5171000000000001,6.9176 c-1.0072,2.1723 -2.4391,3.9926 -4.3082,5.4609 c-1.7111,1.3715000000000002 -3.7254,2.3787000000000003 -6.0436,2.9975 c-2.3299000000000003,0.6311000000000001 -5.4125,0.9467000000000001 -9.2472,0.9467000000000001 zm16.0312,-10.8494 l0.7527000000000001,0.10920000000000002 h0.9951 c1.6747,0 2.9731,-0.5704 3.8711,-1.7231 c0.8982000000000001,-1.1408 1.3471000000000002,-2.7671 1.3471000000000002,-4.8666 c0,-1.6262 -0.40040000000000003,-2.8518 -1.1892,-3.665 c-0.7888000000000001,-0.8131 -2.0146,-1.2255 -3.6773000000000002,-1.2255 h-0.42480000000000007 zm3.2038,-21.1161 l0.6071000000000001,0.0728 h0.9948 c1.6019,0 2.8763,-0.4611 3.8109,-1.3715000000000002 c0.9344,-0.9223 1.4076,-2.1479 1.4076,-3.677 c0,-1.3107 -0.37600000000000006,-2.3058 -1.1164,-2.9734 c-0.7523000000000001,-0.6672000000000001 -1.8446000000000002,-1.0072 -3.2889,-1.0072 h-0.49760000000000004 h-0.4612 z"/>
      <path id="path42" style="fill:#000200;fill-rule:evenodd" d="m339.75137719726564,229.73406611328124 h14.4292 l0.0728,33.9193 l10.7766,-33.9193 h14.4296 l-20.1213,51.9044 h-15.9219 z"/>
      <path id="path44" style="fill:#000200;fill-rule:evenodd" d="m374.54957719726565,281.6384661132812 l8.2159,-51.9044 H397.26787719726565 l-8.2403,51.9044 z"/>
      <path id="path46" style="fill:#000200;fill-rule:evenodd" d="m417.01087719726564,241.21426611328127 l-1.8206000000000002,11.4805 l0.6068000000000001,0.10920000000000002 h0.7891 c2.0507,0 3.6042,-0.6191000000000001 4.6357,-1.8447 c1.0316,-1.2379 1.5412,-3.0946000000000002 1.5412,-5.5824 c0,-1.3592 -0.42480000000000007,-2.3907 -1.2743,-3.0947 c-0.8616000000000001,-0.7159000000000001 -2.0995,-1.0679 -3.7378,-1.0679 zm-20.91,40.4242 l8.2524,-51.9044 h12.4389 c6.9417,0 11.9538,1.1527 15.0364,3.4463 c3.0823,2.3058 4.6237,5.9952 4.6237,11.0921 c0,6.4925 -1.8326000000000002,11.4682 -5.4976,14.9268 c-3.6527000000000003,3.471 -8.8832,5.1942 -15.691600000000001,5.1942 l-0.9951,-0.0364 l-0.9585,-0.0364 l-2.7065,17.3178 z"/>
      <path id="path48" style="fill:#000200;fill-rule:evenodd" d="m429.0544771972656,281.6384661132812 l19.5265,-51.9044 h17.0991 l3.6529000000000003,51.9044 h-14.6479 l0.0728,-7.6456 h-8.5676 l-2.2695,7.6456 zm20.194,-18.1307 h5.8009 l0.16960000000000003,-19.2353 z"/>
      <path id="path50" style="fill:#000200;fill-rule:evenodd" d="m474.4663771972656,229.73406611328124 h14.4292 l0.0728,33.9193 l10.7766,-33.9193 h14.4296 l-20.1212,51.9044 h-15.922 z"/>
      <path id="path52" style="fill:#000200;fill-rule:evenodd" d="m502.69407719726564,281.6384661132812 l19.5265,-51.9044 h17.0991 l3.653,51.9044 h-14.648 l0.0728,-7.6456 h-8.5676 l-2.2695,7.6456 zm20.194,-18.1307 h5.8009 l0.16970000000000005,-19.2353 z"/>
    </g>
  </g></g></svg>