<svg xmlns:dc="http://purl.org/dc/elements/1.1/" xmlns:cc="http://creativecommons.org/ns#" xmlns:rdf="http://www.w3.org/1999/02/22-rdf-syntax-ns#" xmlns:svg="http://www.w3.org/2000/svg" xmlns="http://www.w3.org/2000/svg" xmlns:xlink="http://www.w3.org/1999/xlink" height="567" width="490" version="1.1"><rect id="backgroundrect" width="100%" height="100%" x="0" y="0" fill="none" stroke="none"/>
  <metadata id="metadata81">
    <rdf:RDF>
      <cc:Work rdf:about="">
        <dc:format>image/svg+xml</dc:format>
        <dc:type rdf:resource="http://purl.org/dc/dcmitype/StillImage"/>
      </cc:Work>
    </rdf:RDF>
  </metadata>
  <defs id="defs79"/>
  
<g class="currentLayer"><title>Layer 1</title><g id="Layer1000" class="">
    <path id="path2" style="fill:#534b86;fill-rule:evenodd" d="m6.657100610351563,68.67688847656251 c73.3887,-41.6151 152.5908,-68.5543 237.6296,-68.6159 c83.5254,-0.06100000000000001 167.2838,27.0343 239.051,68.8574 c5.3261,3.1032 6.5443,3.4161 6.3869,10.1002 l-4.5123,191.6541 c-1.1908,50.5812 -25.2128,110.5116 -52.4521,152.6939 c-4.9211,7.6204 -10.1581,15.0389 -15.7294,22.1981 c-43.0114,55.2704 -101.6296,97.9994 -168.2195,120.1121 l-3.9536000000000002,1.3133000000000001 l-3.9706,-1.2645 C178.52520061035156,545.8674884765625 124.80180061035156,508.5317884765625 83.34480061035157,458.0127884765625 C58.28750061035156,427.47818847656254 37.86830061035157,392.5354884765625 23.428500610351563,355.7743884765625 C13.959700610351561,331.6687884765625 4.889300610351562,301.6263884765625 4.336000610351562,275.6510884765625 L0.14520061035156573,79.01178847656249 c-0.14520000000000002,-6.8639 0.9345,-7.1726 6.5119,-10.3349 z"/>
    <path id="path4" style="fill:#ffffff;fill-rule:evenodd" d="m8.161400610351564,71.3297884765625 c72.9659,-41.3747 151.5867,-68.1577 236.1278,-68.2187 c82.9702,-0.06040000000000001 166.2418,26.9087 237.513,68.4426 c4.5581,2.6561000000000003 4.9967,2.1467 4.8729000000000005,7.3929 L482.1628006103516,270.6006884765625 c-1.1768,49.9925 -25.1415,109.5727 -51.9647,151.1116 c-4.8723,7.5447 -10.0587,14.8912 -15.5745,21.979 c-42.6399,54.7934 -100.7493,97.1661 -166.7737,119.0909 l-3.0123,1.0004 l-3.0251,-0.9632000000000001 C179.98310061035156,543.1309884765625 126.78500061035157,506.13988847656253 85.70250061035156,456.07778847656255 C60.88010061035156,425.8292884765625 40.57430061035156,391.08188847656254 26.26750061035156,354.6592884765625 C17.08000061035156,331.2703884765625 7.924800610351561,300.9059884765625 7.3855006103515635,275.5857884765625 L3.1947006103515605,78.9471884765625 c-0.11530000000000001,-5.4475 0.2043,-4.9168 4.9667,-7.6174 z"/>
    <defs id="defs14" transform="translate(-52.70249938964844,-137.4193115234375) ">
      <linearGradient id="grad1">
        <stop id="stop6" stop-opacity="1.0000" stop-color="#a09abf" offset="201392128.0000%"/>
        <stop id="stop8" stop-opacity="1.0000" stop-color="#9f99be" offset="201392181.0000%"/>
        <stop id="stop10" stop-opacity="1.0000" stop-color="#6c6190" offset="100.0000%"/>
      </linearGradient>
      <linearGradient gradientUnits="objectBoundingBox" gradientTransform="rotate(-76,0.5,0.5)" y2="1" x2="0" y1="0" x1="0" id="grad2" xlink:href="#grad1"/>
    </defs>
    <path id="path16" style="fill:url(#grad2)" d="m12.975700610351566,79.82008847656249 c78.1871,-44.3351 154.4764,-66.8931 231.3208,-66.9486 c78.0352,-0.05680000000000001 159.6097,24.5844 232.5914,67.1152 l-4.483,190.3847 C471.3245006103516,316.2864884765625 447.66420061035154,385.34088847656255 406.92090061035157,437.69728847656245 C367.43120061035154,488.4424884765625 311.79350061035154,531.2641884765625 244.77410061035158,553.5189884765625 C178.72530061035155,532.4872884765625 128.78400061035157,493.18968847656254 93.24790061035156,449.88608847656246 C39.59460061035156,384.5045884765625 17.88030061035157,309.9830884765625 17.143400610351563,275.3777884765625 z"/>
    <defs id="defs30" transform="translate(-52.70249938964844,-137.4193115234375) ">
      <linearGradient id="grad3">
        <stop id="stop18" stop-opacity="1.0000" stop-color="#736b9c" offset="201392128.0000%"/>
        <stop id="stop20" stop-opacity="1.0000" stop-color="#71689b" offset="201392178.0000%"/>
        <stop id="stop22" stop-opacity="1.0000" stop-color="#5c538c" offset="201392200.0000%"/>
        <stop id="stop24" stop-opacity="1.0000" stop-color="#4d4683" offset="201392215.0000%"/>
        <stop id="stop26" stop-opacity="1.0000" stop-color="#46417f" offset="100.0000%"/>
      </linearGradient>
      <linearGradient gradientUnits="objectBoundingBox" gradientTransform="rotate(-65,0.5,0.5)" y2="1" x2="0" y1="0" x1="0" id="grad4" xlink:href="#grad3"/>
    </defs>
    <path id="path32" style="fill:url(#grad4)" d="m475.1420006103516,154.12558847656248 l-2.7371,116.2458 C471.3245006103516,316.2864884765625 447.66420061035154,385.34088847656255 406.92090061035157,437.69728847656245 C367.43120061035154,488.4424884765625 311.79350061035154,531.2641884765625 244.77410061035158,553.5189884765625 C178.72530061035155,532.4872884765625 128.78400061035157,493.18968847656254 93.24790061035156,449.88608847656246 C39.59460061035156,384.5045884765625 17.88030061035157,309.9830884765625 17.143400610351563,275.3777884765625 l-0.7491000000000001,-35.1458 c15.949,14.5063 35.4685,21.8144 60.921,23.4877 c43.8618,2.883 134.9734,-12.8629 211.2224,-36.2011 c68.5975,-20.997 136.0653,-48.1387 186.6043,-73.393 z"/>
    <g id="Layer1001">
      <path id="path34" style="fill:#ffffff;fill-rule:evenodd" d="m193.63540061035155,491.13388847656245 h-13.0294 v-47.5884 h-6.4052 v-8.6342 l11.361,-2.545 h8.0736 z"/>
      <path id="path36" style="fill:#ffffff;fill-rule:evenodd" d="m239.99340061035156,482.48808847656255 l-8.8892,8.6458 H216.35750061035156 l-9.34,-8.7678 v-10.862 h12.4572 v7.5624 h7.6838 v-11.3739 h-11.8844 l-7.7448,-6.673 v-20.7743 l8.134,-8.0126 h16.3297 l8.0004,8.0004 zm-12.5786,-26.5463 v-12.2139 h-7.5015 v12.2139 z"/>
      <path id="path38" style="fill:#ffffff;fill-rule:evenodd" d="m277.63360061035155,456.06318847656246 l-21.1519,19.1797 v4.067 h20.7742 v11.9461 h-32.9759 v-21.2861 l20.9695,-19.1181 v-7.3063 h-8.2078 v7.4277 h-11.8119 v-10.6669 l8.1957,-7.94 h15.6964 l8.5117,7.6838 z"/>
      <path id="path40" style="fill:#ffffff;fill-rule:evenodd" d="m314.45810061035155,482.7436884765625 l-9.462,8.5123 h-15.0023 l-8.5116,-8.767900000000001 v-15.8789 l7.3062000000000005,-5.9062 l-5.8452,-5.4676 v-14.9291 l8.9624,-8.0004 h13.0173 l8.6458,8.7672 v13.9799 l-6.2954,5.9056 l7.1848,5.9062 zM302.1955006103516,455.4909884765625 v-11.8119 h-8.0127 v11.8119 zm-0.31660000000000005,24.1355 v-12.7617 h-8.0127 v12.7617 z"/>
    </g>
    <g id="Layer1002">
      <path id="path43" style="fill:#ffffff;fill-rule:evenodd" d="m106.30720061035157,143.0353884765625 l-10.3777,4.4544 l-19.8946,-23.6835 l11.6794,27.2101 l-10.8333,4.6502 l-22.5336,-52.4967 l10.8992,-4.6782 l18.4739,21.6039 l-10.715,-24.934 l10.7681,-4.6222 z"/>
      <path id="path45" style="fill:#ffffff;fill-rule:evenodd" d="m144.10230061035156,129.46548847656248 l-12.8965,4.6045 l-16.1009,-19.2133 l7.9047,22.1395 l-11.9723,4.2745 l-19.1894,-53.745400000000004 l11.9722,-4.2744 l7.6741,21.4935 l0.13240000000000002,-24.2813 l12.4066,-4.4294 l-1.8844,28.837 z"/>
      <path id="path47" style="fill:#ffffff;fill-rule:evenodd" d="m155.04910061035156,57.8452884765625 l1.0773,-3.3685 l10.9591,4.1853 l8.5708,-7.9931 l2.276,2.7219 l-6.6731,10.3368 l-6.1148,1.1914 zm37.8238,53.3007 l-6.9677,10.1971 l-14.2964,2.739 l-10.2423,-6.8872 l-1.9380000000000002,-10.1153 l12.0674,-2.3126 l1.4256,7.4447 l7.5027,-1.4372 l-2.1577,-11.2653 l-9.756,1.8685 l-10.9749,-6.8195 l-3.4485,-18.0017 l7.1897,-8.7221 l13.0197,-2.4944 l10.0215,5.425 l2.2302,11.6367 l-11.4519,2.1943 l-1.5196,-7.9321 l-7.2013,1.3792 l2.1583,11.2653 l9.8146,-1.8801 l11.4031,7.4234 z"/>
      <path id="path49" style="fill:#ffffff;fill-rule:evenodd" d="m240.38020061035155,116.0754884765625 l-12.5049,0.6662000000000001 l-1.6348000000000003,-30.678 l-3.6675,30.961 l-5.3023,0.28250000000000003 l-6.6889,-30.409 l1.6349,30.678 l-11.9503,0.6369000000000001 l-3.0367,-56.9877 l15.5287,-0.8278000000000001 l5.4481,25.348300000000002 l0.6972000000000002,-0.025600000000000005 l3.1709,-25.8192 l15.2689,-0.8132 z"/>
      <path id="path51" style="fill:#ffffff;fill-rule:evenodd" d="m280.07970061035155,117.6749884765625 l-12.7561,-0.6259000000000001 l-0.7644000000000001,-10.7284 l-9.0594,-0.44470000000000004 l-1.8221,10.6022 l-12.4494,-0.6107000000000001 l11.5484,-56.5709 l19.4169,0.9522 zm-13.9573,-22.741600000000002 l-1.2926,-24.0855 l-1.1694,-0.05730000000000001 l-4.128,23.8195 z"/>
      <path id="path53" style="fill:#ffffff;fill-rule:evenodd" d="m314.39040061035155,122.7930884765625 l-12.378,-1.9771 l3.6394,-22.7825 l-7.3684,-1.1767 l-3.6394,22.7819 l-11.700800000000001,-1.8691 l9.0021,-56.3544 l22.0004,3.5149 l7.8772,8.5629 l-2.4828,15.5421 l-7.4606,4.4965 l6.0344,7.2031 zm-7.0543,-35.3044 l1.9454,-12.1791 l-7.1928,-1.1486 l-1.9454,12.179 z"/>
      <path id="path55" style="fill:#ffffff;fill-rule:evenodd" d="m354.41150061035154,84.2262884765625 l-7.8870000000000005,-1.741 l-9.9312,45.0001 l-12.1131,-2.6731000000000003 l9.9311,-45.0001 l-7.829,-1.7276000000000002 l2.3675,-10.7278 l27.8292,6.1417 z"/>
      <path id="path57" style="fill:#ffffff;fill-rule:evenodd" d="m378.5592006103516,141.37128847656248 l-10.7364,-3.504 l0.6869000000000002,-30.9226 l-9.1857,28.1495 l-11.2073,-3.6571000000000002 l17.7217,-54.3096 l11.2756,3.6796 l-0.38120000000000004,28.4228 l8.4079,-25.8039 l11.1408,3.6357 z"/>
      <path id="path59" style="fill:#ffffff;fill-rule:evenodd" d="m414.9634006103516,148.46648847656252 l-11.7545,4.0353 l-12.6305,-5.9032 l-4.2299,-11.5062 l17.4796,-37.3986 l11.2183,-2.7195 l12.1803,5.6933 l5.2163,10.4003 zm-9.8079,-7.5863 l14.7308,-31.5167 l-6.4174,-2.9995 l-14.7308,31.5168 z"/>
    </g>
    <path id="path62" style="fill:#71679d;fill-rule:evenodd" d="M242.15630061035154,166.5700884765625 A105.1601,105.2352 0 0 1 347.31640061035154,271.8052884765625 A105.1601,105.2352 0 1 1 242.15630061035154,166.5700884765625 z"/>
    <path id="path64" style="fill:#ffffff;fill-rule:evenodd" d="m258.1928006103516,170.95848847656248 c0.4408000000000001,0.05030000000000001 0.3948000000000001,0.48830000000000007 -0.022000000000000006,0.4592 c-8.6186,-0.6040000000000001 -16.8886,0.9551000000000001 -25.046,3.6363000000000003 c-4.4514,-0.31670000000000004 -9.1432,-0.4171 -13.7814,-0.2659 c-3.2736,0.10700000000000001 -6.4671,0.3404000000000001 -9.6355,0.7124 c-0.3793000000000001,0.05810000000000001 -0.4498000000000001,-0.3788000000000001 -0.11540000000000002,-0.49900000000000005 c8.6812,-2.887 18.310200000000002,-4.6509 27.6696,-5.1378 c7.2802,-0.37840000000000007 13.4521,0.23820000000000002 20.9307,1.0948 zm28.061,8.5918 c9.5962,4.1544 20.5898,12.3835 29.068,21.1931 c0.22020000000000003,0.22330000000000003 0.04910000000000001,0.30650000000000005 -0.17690000000000003,0.14200000000000002 c-3.3665000000000003,-1.8379 -7.0338,-3.2553 -11.5453,-4.6292 c-2.3206,-3.564 -6.5397,-8.364 -11.6447,-12.2117 c-1.8001,-1.3564 -3.8338,-2.6501 -6.0567,-4.0085 c-0.5566000000000001,-0.34010000000000007 -0.49250000000000005,-0.8526000000000001 0.3556,-0.4857 zm34.7627,27.5219 c6.6576,8.2187 12.6708,18.1931 16.5792,28.7782 c0.7798,5.4618 1.3395000000000001,11.7567 0.6226000000000002,23.2354 c-2.6259,5.7187 -10.172,10.6524 -16.0407,12.8964 c-13.4897,-12.7493 -23.4844,-20.8884 -28.6422,-23.0215 c-1.2884,-8.5869 -3.382,-16.5476 -6.101,-25.0194 c-1.1958,-3.7263 -2.7713,-8.1229 -4.3326,-11.7448 c6.9359,-4.9326 13.9054,-11.0244 20.2217,-14.3299 c3.3177,1.0714 6.5724,2.3282 9.7052,4.0069 c3.8257000000000003,2.0496 5.6204,3.2042 7.9878,5.1987 zm19.8243,37.0042 c1.9395,6.9212 2.8062,15.0027 3.2174,22.1358 c0.006000000000000002,0.09770000000000004 -0.1405,0.43270000000000003 -0.28730000000000006,0.08100000000000002 c-0.7420000000000001,-1.7789000000000001 -1.6801000000000001,-3.2157 -3.8333,-5.9396 c0.2013,-0.24810000000000001 0.2665,-0.6265000000000001 0.31670000000000004,-0.9395 c0.32710000000000006,-2.014 0.19160000000000002,-9.511800000000001 0.011300000000000003,-15.1949 c-0.021200000000000004,-0.6703000000000001 0.4651,-0.5357000000000001 0.5752,-0.1428 zm3.3535,26.3501 c0.006000000000000002,0.45980000000000004 0.017500000000000005,0.9179 0.017500000000000005,1.3787 c0,24.1143 -8.3606,46.2767 -22.3331,63.7498 l-7.9373000000000005,-2.1549 c-0.504,-3.971 -1.0857,-7.3045 -1.6149,-10.1847 c-0.3567,-1.9406 -0.6994000000000001,-3.461 -0.9181,-6.1603 c7.5525,-11.6218 12.2455,-29.8244 11.444,-43.441 c5.3898,-1.7437 11.4076,-5.0743 15.7613,-11.1863 c2.8709000000000002,2.9146 4.4398,5.7115 5.5806000000000004,7.9987 zm-23.6435,66.7575 c-2.5616000000000003,3.0724 -5.2984,5.9932 -8.1981,8.7442 c1.2376,-4.7176 1.5089000000000001,-8.1495 1.3167,-10.346400000000001 c2.1644,0.7058000000000001 3.9938000000000002,1.2167000000000001 6.8814,1.6022 zm-10.8242,11.0407 c-11.7271,10.3139 -26.1461,18.2153 -41.9379,22.2973 c-6.3263,-0.17420000000000002 -13.821,-1.2354 -21.0718,-3.4328000000000003 c-1.6395,-6.4358 -3.7167000000000003,-13.5218 -5.5036000000000005,-20.3197 c10.2719,-4.0108 21.084,-13.5198 29.5575,-23.6466 c17.1482,0.7199000000000001 32.0487,0.36290000000000006 38.2191,-3.4326 c1.6864000000000001,5.9876000000000005 2.355,11.4875 2.2396,16.7052 c-0.08560000000000002,3.8967 -0.5137,8.0571 -1.5029,11.8292 zm-49.3615,24.0313 c-4.3828000000000005,0.7059000000000001 -8.5666,1.2351 -12.7535,1.4380000000000002 c-4.187,0.2026 -8.5147,0.21670000000000003 -12.7764,-0.06550000000000002 c-0.1276,-0.008000000000000002 -0.42790000000000006,-0.1733 -0.04800000000000001,-0.3243000000000001 c3.6693000000000002,-1.458 7.7783,-2.9708 11.3178,-4.1624 c4.9444,1.3263 9.8214,2.4143 14.2844,2.6762 c0.39570000000000005,0.023100000000000006 0.42050000000000004,0.36630000000000007 -0.024300000000000006,0.43800000000000006 zm-78.1382,-17.7595 c-3.4658,-2.4063 -8.563,-6.6757 -9.3732,-7.7691 c-0.09290000000000002,-0.1253 -0.14790000000000003,-0.31750000000000006 0.09080000000000002,-0.30530000000000007 c1.6155,0.08270000000000002 3.7752,0.6373000000000001 5.8916,1.1396 c0.9224,1.4422000000000001 2.5715,4.2124 3.7899000000000003,6.684200000000001 c0.10950000000000001,0.22210000000000002 -0.11690000000000002,0.44670000000000004 -0.39910000000000007,0.2506 zm-11.9402,-10.193200000000001 c-15.2866,-15.1785 -25.8,-35.1623 -29.0869,-57.4979 c4.0263,-6.3841 9.6422,-12.1304 16.4799,-15.3019 c8.2807,8.5653 19.1227,18.3542 26.8832,23.5606 c-0.2303,7.7394 0.6506000000000002,14.6891 2.4806,21.3535 c1.8543,6.7516 4.1491,11.1327 7.5472,15.8344 c-5.0743,4.8575 -9.8985,9.0123 -14.8046,13.3643 c-3.1875,-0.6421000000000001 -6.3575,-1.0759 -9.4994,-1.3130000000000002 zm-29.5275,-60.907 c-0.42980000000000007,-3.8054 -0.6584000000000001,-7.6711 -0.6584000000000001,-11.5911 c0,-21.1739 6.4417,-40.8459 17.4727,-57.1564 l8.0541,1.0959 c0.6647000000000002,3.9854 1.9328,7.7408 3.5426,11.4355 c-7.4879,10.4511 -12.5729,27.2601 -12.6971,42.3954 c-6.3305,3.0041 -11.6534,8.0516 -15.7139,13.8207 zm18.5182,-71.1826 c6.1078,-8.4896 13.758000000000001,-16.0027 21.7373,-22.2617 c0.16230000000000003,-0.19560000000000002 0.6480000000000001,-0.11770000000000003 0.4081,0.24950000000000003 c-1.2918,1.7202000000000002 -2.9468,3.6648 -3.349,4.2549 c-4.0796,5.9834 -8.3879,12.3889 -12.4837,18.9528 zm26.2598,-25.3276 c5.5247,-3.9332000000000003 10.8443,-6.6808000000000005 15.9213,-8.6254 c5.7858,-1.2234 10.5846,-1.8048000000000002 16.5968,-1.8198 c5.5035,-0.013300000000000003 9.7661,0.05700000000000001 15.2205,0.5035 c1.2570999999999999,6.4513 2.9050000000000002,13.9655 3.3885,19.867 c-7.773,4.8922 -15.0331,10.4257 -21.864,16.6083 c-2.7814,2.5169 -5.6543,5.1916 -8.1916,8.0924 c-12.3011,1.3423 -23.9878,2.8749000000000002 -35.4682,4.5364 c-1.5766,-3.6527000000000003 -2.8046,-7.3742 -3.3902,-11.3385 c5.8882,-9.4376 11.6023,-18.5777 17.7869,-27.823900000000002 zm54.4611,158.4203 c-0.17440000000000003,-0.011000000000000003 -0.3612,-0.015000000000000003 -0.6006000000000001,-0.03330000000000001 c-7.2522,-0.5583 -15.8076,-1.6014 -22.5603,-3.6267 c-7.2875,-2.1859 -14.5869,-5.5131 -20.2513,-10.1948 c-8.6395,-12.7485 -10.8039,-24.7694 -10.1096,-37.381 c12.4222,-12.666 24.3993,-23.972 31.153200000000002,-27.5251 c7.8359000000000005,2.0474 16.3633,4.6493 23.9319,7.2012 c5.8405000000000005,1.9692 11.4262,3.8824 16.6966,6.6046000000000005 c3.6928,13.8571 7.5873,27.1903 10.7255,41.4211 c-6.862,8.631 -18.889,19.6937 -28.9854,23.534 zm-21.0007,-80.2846 c-3.7384,-11.4076 -9.2358,-30.9836 -9.8987,-42.6887 c2.2516,-2.5451 4.6303,-4.8984000000000005 7.2167,-7.2392 c6.5043,-5.8871 13.7967,-11.3213 21.039,-15.7701 c7.9785,0.14220000000000002 15.2229,0.6824000000000001 22.36,2.7168 c7.4145,2.1131 14.5827,5.5329 21.1988,9.9264 c2.5082,5.4745 5.0144,11.2913 6.6446000000000005,17.1237 c1.9437000000000002,6.9531 3.2073,12.4157 4.0063,20.3323 c-11.2772,10.3162 -22.8581,20.9096 -32.9324,28.9577 c-7.815,-3.7653 -17.3963,-7.362 -26.0484,-10.0497 c-4.4847,-1.3931 -9.0058,-2.5029 -13.5859,-3.3092 z"/>
    <path id="path66" style="fill:#ffffff;fill-rule:evenodd" d="m295.4442006103516,193.86318847656253 c-0.8411000000000001,-1.2961 -1.9914999999999998,-2.3564 -3.2559,-3.4182 c-2.6843000000000004,-2.2533 -5.2363,-3.9481 -7.8413,-5.5509 c-3.1435,-1.9344999999999999 -6.4194,-3.6832000000000003 -10.7979,-5.422 c-3.8457,-1.5269 -9.3462,-2.7907 -16.7057,-2.7642 c-3.0411,0.010700000000000003 -7.1665,0.1705 -10.3865,0.6627000000000002 c-0.6719000000000002,0.10270000000000001 -1.4097,0.20320000000000002 -1.9699,0.39110000000000006 c-0.7638000000000001,0.25630000000000003 -0.16680000000000003,0.5823 0.2441,0.6280000000000001 c2.5785,0.2882 5.442,0.37570000000000003 9.4212,0.30600000000000005 c3.4376,-0.06020000000000001 7.2509,-0.3334000000000001 11.1553,0.22520000000000004 c1.9062000000000001,0.2726 3.9654,0.8848000000000001 5.7993,1.5105 c4.1714,1.4233 8.2435,3.8395 11.9196,6.3068 c1.7602000000000002,1.1817 3.3289,2.3942 5.0604,3.5584 c2.213,1.4876 5.3181,3.9349 6.7728,4.3475 c0.5785,0.16400000000000003 0.9274,-0.2526 0.5845,-0.7809 z"/>
    <path id="path68" style="fill:#ffffff;fill-rule:evenodd" d="m203.51400061035156,230.4690884765625 c0.24640000000000004,2.3987 1.495,7.8356 2.7724,13.5483 c1.2845,5.7446 3.1435,13.0358 3.6595,17.0221 c0.11030000000000001,0.8532000000000001 -0.03900000000000001,1.3764 -0.6139000000000001,2.069 c-1.2291,1.4798 -2.7114000000000003,2.7893 -4.4455,4.2236 c-1.6804000000000001,1.3903 -3.3817,2.7247000000000003 -4.7494,3.6812 c-0.23170000000000002,0.16230000000000003 -1.7930000000000001,0.8165 -2.0645000000000002,0.512 c-0.3494000000000001,-0.39150000000000007 0.7462000000000001,-1.7482000000000002 1.0124,-1.9965 c2.5748,-2.4024 6.8865,-5.6543 8.5367,-8.0491 c0.6849000000000002,-0.9937 0.4055,-1.5870000000000002 0.19470000000000004,-2.7743 c-1.7202000000000002,-9.6817 -5.0974,-20.372700000000002 -6.1199,-27.0391 c-0.37200000000000005,-2.4252000000000002 0.29910000000000003,-3.5059 0.8992000000000001,-3.3972 c0.22550000000000003,0.040900000000000006 0.42750000000000005,0.27630000000000005 0.5777000000000001,0.5416000000000001 c0.2882,0.5094 0.28390000000000004,1.1044 0.34060000000000007,1.6584 z"/>
    <path id="path70" style="fill:#ffffff;fill-rule:evenodd" d="m284.1593006103516,269.7629884765625 c4.1661,-2.2257000000000002 8.0533,-5.5137 11.1683,-7.1309000000000005 c0.3460000000000001,-0.17950000000000002 0.5681,-0.19500000000000003 0.9161,-0.019500000000000003 c2.0665,1.042 6.0274,3.9146 8.7123,6.0531 c2.3055,1.8362 4.9715,3.8316 7.2139,5.6909 c2.1446,1.7781 3.9594,3.1562 6.2923,4.8426 c0.5558000000000001,0.4016 1.2218,-0.05000000000000001 0.9582,-1.0491 c-0.37420000000000003,-1.4188 -1.7284000000000002,-2.6626000000000003 -2.303,-3.1122 c-1.8650000000000002,-1.4583 -3.7543,-2.9253 -5.6639,-4.3842 c-2.5367,-1.9383 -5.1307,-4.0009 -7.736,-5.88 c-2.6053,-1.8791000000000002 -5.7488,-4.2002 -7.8833,-5.3263 c-0.5546000000000001,-0.2927 -1.0646,-0.13940000000000002 -1.6175000000000002,0.15630000000000002 c-2.1647,1.1578 -5.1304,3.9744 -7.8957,6.6427000000000005 c-0.9602,0.9266000000000001 -1.8619,1.7510000000000001 -2.6877000000000004,2.5985 c-0.9215,0.9452 -0.4423000000000001,1.4352 0.526,0.9181 z"/>
    <path id="path72" style="fill:#ffffff;fill-rule:evenodd" d="m221.59870061035156,349.1991884765625 c-0.6347000000000002,-0.15940000000000004 -1.2675,-0.4524 -1.3208000000000002,-0.6807000000000002 c-0.06860000000000002,-0.29350000000000004 0.6739000000000002,-0.48660000000000003 1.3792,-0.43270000000000003 c1.3562,0.1039 3.4337,0.44850000000000007 5.17,0.6881000000000002 c3.3151,0.45780000000000004 6.4733,0.8459000000000001 9.7988,1.4414 c0.27940000000000004,0.04990000000000001 0.4993000000000001,0.2746 0.6624000000000001,0.508 c0.6935000000000001,0.9929 2.6606,4.4254 3.0405,6.7011 c0.061800000000000015,0.37110000000000004 0.04380000000000001,1.2206000000000001 -0.2785,1.3677000000000001 c-0.2507,0.11400000000000002 -0.6314000000000001,-0.11490000000000002 -1.0271,-0.7034 c-1.1267,-1.6764000000000001 -2.1692,-4.9574 -3.216,-6.1349 c-0.09260000000000003,-0.10410000000000001 -0.07760000000000002,-0.15040000000000003 -0.21450000000000002,-0.17550000000000002 c-4.7114,-0.8730000000000001 -9.3476,-1.4112 -13.994,-2.5791 z"/>
  </g></g></svg>