<svg xmlns="http://www.w3.org/2000/svg" xmlns:xlink="http://www.w3.org/1999/xlink" xml:space="preserve" width="5912" height="8709" version="1.1" style="shape-rendering:geometricPrecision; text-rendering:geometricPrecision; image-rendering:optimizeQuality; fill-rule:evenodd; clip-rule:evenodd"><rect id="backgroundrect" width="100%" height="100%" x="0" y="0" fill="none" stroke="none"/>
 <defs>
  <style type="text/css">
   <![CDATA[
    .fil0 {fill:#373435;fill-rule:nonzero}
    .fil3 {fill:#83B2DF;fill-rule:nonzero}
    .fil4 {fill:#EF4F3B;fill-rule:nonzero}
    .fil2 {fill:#EFD133;fill-rule:nonzero}
    .fil1 {fill:#FEFEFE;fill-rule:nonzero}
   ]]>
  </style>
 </defs>
 
<g class="currentLayer"><title>Layer 1</title><g id="Ñëîé_x0020_1" class="">
  <metadata id="CorelCorpID_0Corel-Layer" transform="translate(-1176,-1755) "/>
  <g id="_150766856">
   <path class="fil0" d="M4,0 c-2,0 -4,2 -4,4 l0,2199 c0,1 0,1 0,2 l2953,6502 c1,1 2,2 3,2 c1,0 3,-1 3,-2 l2953,-6502 l0,-2201 c0,-2 -2,-4 -4,-4 l-5907,0 z" id="svg_1"/>
   <path class="fil1" d="M5788,126 c0,7 0,1981 0,1984 c-7,0 -5654,0 -5662,0 c0,0 0,-1977 0,-1984 c7,0 5654,0 5662,0 z" id="svg_2"/>
   <path class="fil2" d="M5907,7 c0,7 0,2196 0,2196 c0,0 -2943,6478 -2950,6493 c-7,-15 -2949,-6492 -2950,-6494 c0,-2 0,-2188 0,-2195 c7,0 5892,0 5899,0 zm-5784,111 l0,0 c-2,0 -4,2 -4,4 l0,1988 l0,4 c0,2 2,4 4,4 l5669,0 c2,0 4,-2 4,-4 l0,-1991 c0,-2 -2,-4 -4,-4 l-5669,0 zm25,2110 l0,0 c-1,0 -2,1 -3,2 c-1,1 -1,2 0,3 l1,2 c0,0 811,1784 811,1784 c1,1 2,2 3,2 l1437,0 c22,0 50,15 62,34 l331,515 l3,5 c1,1 3,2 4,1 c2,0 3,-2 3,-4 l0,-530 c0,-12 10,-22 22,-22 l73,0 c12,0 22,10 22,22 l0,53 c0,16 13,29 29,29 l83,0 c12,0 22,10 22,22 l0,531 c0,2 1,3 3,4 c2,0 3,0 4,-1 l2,-3 l399,-622 c12,-18 40,-34 62,-34 l1435,0 l2,0 c2,0 3,-1 4,-2 l810,-1783 l1,-3 c0,-1 0,-2 0,-3 c-1,-1 -2,-2 -3,-2 l-5618,0 zm869,1921 l0,0 c-1,1 -1,2 0,4 l1937,4265 c1,1 2,2 3,2 c1,0 3,-1 3,-2 l1937,-4265 c1,-1 0,-2 0,-3 c-1,-1 -2,-2 -3,-2 l-3,0 l-1300,0 c-24,0 -55,17 -68,37 l-68,109 l-1,2 c-1,1 -1,3 0,4 c1,1 2,2 3,2 l1192,0 c6,0 11,2 13,5 c2,3 1,9 -2,14 l-52,84 c-8,13 -27,23 -42,23 l-1192,0 c-1,0 -2,1 -3,2 l-1,2 l-88,141 l-3,5 c-1,1 -1,3 0,4 c1,1 2,2 3,2 l1066,0 c6,0 11,2 13,5 c2,3 1,9 -2,14 l-53,84 c-8,13 -27,23 -42,23 l-1066,0 c-1,0 -3,1 -3,2 l-1,2 l-140,223 l-4,7 c0,1 -1,1 -1,2 l0,399 c0,12 -10,22 -22,22 l-83,0 c-16,0 -29,13 -29,29 l0,63 c0,12 -10,22 -22,22 l-73,0 c-12,0 -22,-10 -22,-22 l0,-620 c0,-1 0,-1 -1,-2 l-4,-6 l-74,-118 l-1,-2 c-1,-1 -2,-2 -3,-2 l-1066,0 c-15,0 -34,-11 -42,-23 l-53,-84 c-3,-5 -4,-10 -2,-14 c2,-3 7,-5 13,-5 l1066,0 c1,0 3,-1 3,-2 c1,-1 1,-3 0,-4 l-3,-5 l-88,-141 l-1,-2 c-1,-1 -2,-2 -3,-2 l-1192,0 c-15,0 -34,-11 -42,-23 l-52,-84 c-3,-5 -4,-10 -2,-14 c2,-3 7,-5 13,-5 l1192,0 c1,0 3,-1 3,-2 c1,-1 1,-3 0,-4 l-1,-2 l-68,-109 c-13,-21 -43,-37 -68,-37 l-1298,0 l-5,0 c-1,0 -2,1 -3,2 z" id="svg_3"/>
   <path class="fil3" d="M1524,5252 c0,0 -493,-1086 -498,-1096 c3,0 1297,0 1297,0 c22,0 50,16 61,34 c0,0 62,99 66,106 c-13,0 -1185,0 -1185,0 c-9,0 -16,3 -19,9 c-1,2 -2,5 -2,8 c0,4 1,9 4,14 l52,84 c9,15 31,27 48,27 c0,0 1186,0 1190,0 c0,0 86,138 88,140 c-13,0 -1059,0 -1059,0 c-9,0 -16,3 -19,9 c-1,2 -2,5 -2,8 c0,4 2,9 4,14 l53,84 c9,15 31,27 48,27 c0,0 1059,0 1064,0 c0,0 74,118 74,118 c0,0 2,4 3,5 c0,2 0,619 0,619 c0,16 13,29 29,29 l73,0 c16,0 29,-13 29,-29 l0,-63 c0,-12 10,-22 22,-22 l83,0 c16,0 29,-13 29,-29 c0,0 0,-396 0,-398 c1,-1 4,-6 4,-6 c0,0 140,-223 140,-223 c4,0 1064,0 1064,0 c17,0 39,-12 48,-27 l53,-84 c3,-5 4,-9 4,-14 c0,-3 -1,-5 -2,-8 c-3,-6 -10,-9 -19,-9 c0,0 -1046,0 -1059,0 c1,-2 88,-140 88,-140 c4,0 1190,0 1190,0 c17,0 39,-12 48,-27 l52,-84 c3,-5 4,-9 4,-14 c0,-3 -1,-5 -2,-8 c-3,-6 -10,-9 -19,-9 c0,0 -1172,0 -1185,0 c4,-7 66,-106 66,-106 c12,-18 40,-34 61,-34 c0,0 1290,0 1297,0 c-5,10 -1925,4238 -1932,4252 c-7,-15 -1434,-3156 -1434,-3156 z" id="svg_4"/>
   <path class="fil3" d="M5761,2236 c-21,47 -786,1730 -808,1778 c0,0 -1435,0 -1435,0 c-24,0 -55,17 -68,37 c0,0 -385,600 -394,615 c0,-24 0,-519 0,-519 c0,-16 -13,-29 -29,-29 l-83,0 c-12,0 -22,-10 -22,-22 l0,-53 c0,-16 -13,-29 -29,-29 l-73,0 c-16,0 -29,13 -29,29 c0,0 0,493 0,517 c-7,-11 -327,-509 -327,-509 c-13,-20 -44,-37 -68,-37 c0,0 -1435,0 -1435,0 c-2,-4 -805,-1772 -808,-1778 c11,0 5596,0 5607,0 zm-2807,68 l0,0 c0,0 -188,578 -190,584 c-5,0 -613,0 -613,0 c-2,0 -3,1 -4,3 c0,0 0,1 0,1 c0,1 1,2 2,3 c0,0 492,357 496,361 c-2,5 -190,584 -190,584 c0,0 0,1 0,1 c0,1 1,2 2,3 c1,1 3,1 4,0 c0,0 492,-358 497,-361 c4,3 496,361 496,361 c1,1 3,1 4,0 c1,-1 2,-2 2,-3 c0,0 0,-1 0,-1 c0,0 -188,-579 -190,-584 c4,-3 496,-361 496,-361 c1,-1 2,-2 2,-3 c0,0 0,-1 0,-1 c-1,-2 -2,-3 -4,-3 c0,0 -608,0 -613,0 c-2,-5 -190,-584 -190,-584 c-1,-2 -2,-3 -4,-3 c-2,0 -3,1 -4,3 z" id="svg_5"/>
   <path class="fil2" d="M2767,2895 c2,0 3,-1 4,-3 c0,0 180,-554 187,-575 c7,21 187,575 187,575 c1,2 2,3 4,3 c0,0 583,0 605,0 c-18,13 -489,355 -489,355 c-1,1 -2,2 -2,3 c0,0 0,1 0,1 c0,0 180,554 187,575 c-18,-13 -489,-356 -489,-356 c-1,-1 -3,-1 -4,0 c0,0 -472,343 -489,356 c7,-21 187,-575 187,-575 c0,0 0,-1 0,-1 c0,-1 -1,-2 -2,-3 c0,0 -472,-342 -489,-355 c22,0 605,0 605,0 zm187,-366 l0,0 c0,0 -138,424 -140,430 c-4,0 -451,0 -451,0 c-2,0 -3,1 -4,3 c0,0 0,1 0,1 c0,1 1,2 2,3 c0,0 361,262 365,265 c-2,5 -140,429 -140,429 c0,0 0,1 0,1 c0,1 1,2 2,3 c1,1 3,1 4,0 c0,0 361,-262 365,-266 c4,3 365,266 365,266 c1,1 3,1 4,0 c1,-1 2,-2 2,-3 c0,0 0,-1 0,-1 c0,0 -138,-424 -140,-429 c4,-3 365,-265 365,-265 c1,-1 2,-2 2,-3 c0,0 0,-1 0,-1 c-1,-2 -2,-3 -4,-3 c0,0 -446,0 -451,0 c-2,-5 -140,-430 -140,-430 c-1,-2 -2,-3 -4,-3 c-2,0 -3,1 -4,3 z" id="svg_6"/>
   <path class="fil4" d="M2790,2966 l27,0 c2,0 3,-1 4,-3 c0,0 130,-401 137,-421 c7,21 137,421 137,421 c0,2 2,3 4,3 c0,0 421,0 442,0 c-18,13 -358,260 -358,260 c-1,1 -2,2 -2,3 c0,0 0,1 0,1 c0,0 130,400 137,421 c-18,-13 -358,-260 -358,-260 c-1,-1 -3,-1 -4,0 c0,0 -341,248 -358,260 c7,-21 137,-421 137,-421 c0,0 0,-1 0,-1 c0,-1 -1,-2 -2,-3 c0,0 -341,-247 -358,-260 c22,0 415,0 415,0 z" id="svg_7"/>
   <path class="fil0" d="M691,217 c-1,0 -2,0 -3,1 c0,0 -39,44 -44,50 c-5,-6 -44,-50 -44,-50 c-1,-1 -2,-1 -3,-1 l-84,0 c-1,0 -3,1 -3,2 c-1,1 -1,3 0,4 l79,108 c1,1 2,2 3,2 l101,0 c1,0 2,-1 3,-2 l79,-108 c1,-1 1,-3 0,-4 c-1,-1 -2,-2 -3,-2 l-84,0 z" id="svg_8"/>
   <path class="fil0" d="M4158,217 c-1,0 -2,0 -3,1 c0,0 -39,44 -44,50 c-5,-6 -44,-50 -44,-50 c-1,-1 -2,-1 -3,-1 l-84,0 c-1,0 -3,1 -3,2 c-1,1 -1,3 0,4 l79,108 c1,1 2,2 3,2 l101,0 c1,0 2,-1 3,-2 l79,-108 c1,-1 1,-3 0,-4 c-1,-1 -2,-2 -3,-2 l-84,0 z" id="svg_9"/>
   <path class="fil0" d="M778,1317 c-2,0 -4,2 -4,4 l0,669 c0,2 2,4 4,4 l325,0 c2,0 4,-2 4,-4 l0,-97 c0,-2 -2,-4 -4,-4 c0,0 -206,0 -214,0 c0,-7 0,-568 0,-568 c0,-2 -2,-4 -4,-4 l-108,0 z" id="svg_10"/>
   <path class="fil0" d="M1316,1317 c-2,0 -4,2 -4,4 l0,498 c0,25 -5,43 -14,53 c-10,11 -28,17 -56,17 l-25,0 c-2,0 -4,2 -4,4 l0,97 c0,2 2,4 4,4 l66,0 c29,0 53,-3 70,-10 c29,-10 50,-31 63,-62 c7,-16 11,-48 11,-96 l0,-506 c0,-2 -2,-4 -4,-4 l-108,0 z" id="svg_11"/>
   <path class="fil0" d="M1882,1317 c-2,0 -4,2 -4,4 l0,470 c0,37 -5,64 -15,80 c-12,19 -31,28 -59,28 c-28,0 -47,-9 -59,-28 c-10,-16 -15,-43 -15,-80 l0,-470 c0,-2 -2,-4 -4,-4 l-108,0 c-2,0 -4,2 -4,4 l0,453 c0,32 2,62 6,88 c5,29 16,56 35,79 c32,41 82,62 148,62 c88,0 147,-36 174,-107 c10,-26 15,-67 15,-121 l0,-453 c0,-2 -2,-4 -4,-4 l-108,0 z" id="svg_12"/>
   <path class="fil0" d="M2184,1317 c-2,0 -4,2 -4,4 l0,669 c0,2 2,4 4,4 l175,0 c65,0 116,-16 153,-49 c40,-36 60,-84 60,-144 c0,-54 -17,-97 -51,-125 c-17,-14 -42,-27 -75,-36 c29,-9 52,-22 68,-38 c27,-28 41,-64 41,-109 c0,-57 -21,-102 -61,-133 c-36,-27 -86,-41 -149,-41 l-161,0 zm149,104 l0,0 c36,0 62,7 78,20 c17,14 25,34 25,58 c0,26 -9,48 -28,64 c-19,17 -45,25 -78,25 c0,0 -30,0 -36,0 c0,-7 0,-160 0,-167 c6,0 38,0 38,0 zm-2,271 l0,0 c39,0 70,11 91,32 c20,20 31,45 31,75 c0,26 -9,48 -27,65 c-17,16 -44,25 -80,25 c0,0 -44,0 -51,0 c0,-7 0,-190 0,-197 c6,0 36,0 36,0 z" id="svg_13"/>
   <path class="fil0" d="M2751,1317 c-2,0 -4,2 -4,4 l0,669 c0,2 2,4 4,4 l325,0 c2,0 4,-2 4,-4 l0,-97 c0,-2 -2,-4 -4,-4 c0,0 -206,0 -214,0 c0,-7 0,-568 0,-568 c0,-2 -2,-4 -4,-4 l-108,0 z" id="svg_14"/>
   <path class="fil0" d="M3288,1317 c-2,0 -4,2 -4,4 l0,498 c0,25 -5,43 -14,53 c-10,11 -28,17 -56,17 l-25,0 c-2,0 -4,2 -4,4 l0,97 c0,2 2,4 4,4 l66,0 c29,0 53,-3 70,-10 c29,-10 50,-31 63,-62 c7,-16 11,-48 11,-96 l0,-506 c0,-2 -2,-4 -4,-4 l-108,0 z" id="svg_15"/>
   <path class="fil0" d="M3695,1317 c-2,0 -3,1 -4,3 l-135,669 c0,1 0,2 1,3 c1,1 2,1 3,1 l107,0 c2,0 3,-1 4,-3 c0,0 27,-136 28,-142 c6,0 138,0 144,0 c1,6 29,142 29,142 c0,2 2,3 4,3 l112,0 c1,0 2,-1 3,-1 c1,-1 1,-2 1,-3 l-142,-669 c0,-2 -2,-3 -4,-3 l-149,0 zm74,152 l0,0 c6,33 52,267 53,275 c-8,0 -97,0 -105,0 c2,-8 46,-242 52,-275 z" id="svg_16"/>
   <path class="fil0" d="M4436,1317 c-2,0 -4,2 -4,4 c0,0 0,365 0,398 c-13,-30 -173,-399 -173,-399 c-1,-1 -2,-2 -3,-2 l-108,0 c-2,0 -4,2 -4,4 l0,669 c0,2 2,4 4,4 l102,0 c2,0 4,-2 4,-4 c0,0 0,-394 0,-427 c13,31 184,428 184,428 c1,1 2,2 3,2 l97,0 c2,0 4,-2 4,-4 l0,-669 c0,-2 -2,-4 -4,-4 l-102,0 z" id="svg_17"/>
   <path class="fil0" d="M4845,1317 c-2,0 -3,1 -4,3 l-135,669 c0,1 0,2 1,3 c1,1 2,1 3,1 l107,0 c2,0 3,-1 4,-3 c0,0 27,-136 28,-142 c6,0 138,0 144,0 c1,6 29,142 29,142 c0,2 2,3 4,3 l112,0 c1,0 2,-1 3,-1 c1,-1 1,-2 1,-3 l-142,-669 c0,-2 -2,-3 -4,-3 l-149,0 zm74,152 l0,0 c6,33 52,267 53,275 c-8,0 -97,0 -105,0 c1,-8 46,-242 52,-275 z" id="svg_18"/>
   <path class="fil0" d="M425,347 c-2,0 -4,2 -4,4 l0,119 c0,2 2,4 4,4 c0,0 243,0 254,0 c-5,11 -286,577 -286,577 c0,1 0,1 0,2 l0,121 c0,2 2,4 4,4 l431,0 c2,0 4,-2 4,-4 l0,-119 c0,-2 -2,-4 -4,-4 c0,0 -273,0 -284,0 c5,-11 284,-580 284,-580 l0,-121 c0,-2 -2,-4 -4,-4 l-399,0 z" id="svg_19"/>
   <path class="fil0" d="M957,347 c-2,0 -4,2 -4,4 l0,823 c0,2 2,4 4,4 l372,0 c2,0 4,-2 4,-4 l0,-119 c0,-2 -2,-4 -4,-4 c0,0 -234,0 -241,0 c0,-7 0,-236 0,-243 c7,0 178,0 178,0 c2,0 4,-2 4,-4 l0,-119 c0,-2 -2,-4 -4,-4 c0,0 -171,0 -178,0 c0,-7 0,-201 0,-208 c7,0 241,0 241,0 c2,0 4,-2 4,-4 l0,-119 c0,-2 -2,-4 -4,-4 l-372,0 z" id="svg_20"/>
   <path class="fil0" d="M1458,347 c-2,0 -4,2 -4,4 l0,823 c0,2 2,4 4,4 l381,0 c2,0 4,-2 4,-4 l0,-119 c0,-2 -2,-4 -4,-4 c0,0 -244,0 -251,0 c0,-7 0,-700 0,-700 c0,-2 -2,-4 -4,-4 l-126,0 z" id="svg_21"/>
   <path class="fil0" d="M1958,347 c-2,0 -4,2 -4,4 l0,823 c0,2 2,4 4,4 l372,0 c2,0 4,-2 4,-4 l0,-119 c0,-2 -2,-4 -4,-4 c0,0 -234,0 -241,0 c0,-7 0,-236 0,-243 c7,0 178,0 178,0 c2,0 4,-2 4,-4 l0,-119 c0,-2 -2,-4 -4,-4 c0,0 -171,0 -178,0 c0,-7 0,-201 0,-208 c7,0 241,0 241,0 c2,0 4,-2 4,-4 l0,-119 c0,-2 -2,-4 -4,-4 l-372,0 z" id="svg_22"/>
   <path class="fil0" d="M2448,347 c-2,0 -4,2 -4,4 l0,119 c0,2 2,4 4,4 c0,0 243,0 254,0 c-5,11 -286,577 -286,577 c0,1 0,1 0,2 l0,121 c0,2 2,4 4,4 l431,0 c2,0 4,-2 4,-4 l0,-119 c0,-2 -2,-4 -4,-4 c0,0 -273,0 -284,0 c5,-11 284,-580 284,-580 l0,-121 c0,-2 -2,-4 -4,-4 l-399,0 z" id="svg_23"/>
   <path class="fil0" d="M3314,347 c-2,0 -4,2 -4,4 c0,0 0,457 0,493 c-13,-33 -200,-494 -200,-494 c-1,-1 -2,-2 -3,-2 l-127,0 c-2,0 -4,2 -4,4 l0,823 c0,2 2,4 4,4 l121,0 c2,0 4,-2 4,-4 c0,0 0,-492 0,-528 c13,33 213,530 213,530 c1,1 2,2 3,2 l114,0 c2,0 4,-2 4,-4 l0,-823 c0,-2 -2,-4 -4,-4 l-121,0 z" id="svg_24"/>
   <path class="fil0" d="M3602,347 c-2,0 -4,2 -4,4 l0,823 c0,2 2,4 4,4 l126,0 c2,0 4,-2 4,-4 l0,-823 c0,-2 -2,-4 -4,-4 l-126,0 z" id="svg_25"/>
   <path class="fil0" d="M3995,361 c-47,23 -80,63 -98,118 c-10,31 -15,86 -15,165 l0,230 c0,45 2,84 5,116 c4,39 16,75 35,107 c38,62 100,93 187,93 c81,0 142,-28 180,-83 c32,-47 49,-111 49,-191 l0,-31 c0,-1 0,-2 -1,-3 c-1,-1 -2,-1 -3,-1 l-127,0 c-1,0 -2,0 -3,1 c-1,1 -1,2 -1,3 l1,21 c0,106 -31,158 -95,158 c-40,0 -66,-17 -79,-51 c-9,-24 -14,-65 -14,-122 l0,-273 l2,-63 c2,-19 8,-36 17,-53 c15,-26 39,-38 73,-38 c63,0 94,46 94,139 l-2,16 c0,1 0,2 1,3 c1,1 2,1 3,1 l127,0 c2,0 4,-1 4,-3 l2,-27 c0,-81 -21,-145 -62,-190 c-39,-43 -95,-65 -166,-65 c-42,0 -80,8 -112,24 z" id="svg_26"/>
   <path class="fil0" d="M4606,347 c-2,0 -3,1 -4,3 l-158,823 c0,1 0,2 1,3 c1,1 2,1 3,1 l125,0 c2,0 3,-1 4,-3 c0,0 31,-169 33,-175 c6,0 163,0 169,0 c1,6 34,175 34,175 c0,2 2,3 4,3 l131,0 c1,0 2,-1 3,-1 c1,-1 1,-2 1,-3 l-166,-823 c0,-2 -2,-3 -4,-3 l-175,0 zm86,182 l0,0 c7,36 61,335 63,343 c-8,0 -116,0 -124,0 c1,-8 55,-308 61,-343 z" id="svg_27"/>
   <path class="fil0" d="M5075,347 c-2,0 -4,2 -4,4 l0,823 c0,2 2,4 4,4 l126,0 c2,0 4,-2 4,-4 c0,0 0,-325 0,-333 c6,0 65,0 69,0 c2,5 108,334 108,334 c0,2 2,3 4,3 l134,0 c1,0 2,-1 3,-2 c0,-1 1,-1 1,-2 c0,0 0,-1 0,-1 c0,0 -118,-364 -120,-369 c73,-39 110,-112 110,-216 c0,-82 -25,-146 -75,-189 c-38,-33 -94,-50 -165,-50 l-199,0 zm173,126 l0,0 c21,0 40,1 55,4 c16,3 31,10 42,22 c20,20 31,52 31,95 c0,59 -18,96 -54,112 c-14,6 -39,9 -74,9 c0,0 -36,0 -43,0 c0,-7 0,-234 0,-241 c6,0 43,0 43,0 z" id="svg_28"/>
   <path class="fil2" d="M882,1325 c0,7 0,568 0,568 c0,2 2,4 4,4 c0,0 206,0 214,0 c0,7 0,83 0,89 c-7,0 -310,0 -318,0 c0,-7 0,-654 0,-661 c7,0 94,0 100,0 z" id="svg_29"/>
   <path class="fil2" d="M1420,1325 c0,7 0,502 0,502 c0,46 -4,78 -10,93 c-12,29 -32,48 -59,58 c-17,6 -39,9 -67,9 c0,0 -56,0 -62,0 c0,-7 0,-83 0,-89 c5,0 21,0 21,0 c30,0 50,-7 61,-20 c10,-12 15,-31 16,-58 c0,0 0,-487 0,-494 c7,0 94,0 100,0 z" id="svg_30"/>
   <path class="fil2" d="M1986,1325 c0,7 0,449 0,449 c0,53 -5,93 -15,118 c-26,68 -82,103 -167,103 c-63,0 -111,-20 -142,-59 c-18,-23 -29,-48 -34,-76 c-4,-25 -6,-55 -6,-86 c0,0 0,-442 0,-449 c7,0 94,0 100,0 c0,7 0,466 0,466 c0,38 5,67 16,84 c13,21 35,32 65,32 c30,0 52,-11 65,-32 c11,-17 16,-45 16,-84 c0,0 0,-459 0,-466 c7,0 94,0 100,0 z" id="svg_31"/>
   <path class="fil2" d="M2345,1325 c61,0 109,13 144,39 c39,29 58,72 58,127 c0,43 -13,78 -39,104 c-17,17 -42,31 -74,40 c-2,0 -3,2 -3,4 c0,0 0,0 0,0 c0,2 1,3 3,4 c36,10 64,23 82,38 c32,27 48,68 48,120 c0,58 -19,105 -58,139 c-35,31 -85,47 -148,47 c0,0 -164,0 -172,0 c0,-7 0,-654 0,-661 c7,0 158,0 158,0 zm-54,89 l0,0 c-2,0 -4,2 -4,4 l0,175 c0,2 2,4 4,4 l40,0 c35,0 63,-9 83,-27 c20,-18 30,-41 30,-70 c0,-26 -9,-48 -28,-63 c-17,-14 -45,-22 -83,-22 l-42,0 zm0,271 l0,0 c-2,0 -4,2 -4,4 l0,204 c0,2 2,4 4,4 l55,0 c38,0 67,-9 85,-27 c19,-18 29,-42 29,-70 c0,-32 -11,-59 -33,-81 c-23,-23 -55,-34 -96,-34 l-40,0 z" id="svg_32"/>
   <path class="fil2" d="M2855,1325 c0,7 0,568 0,568 c0,2 2,4 4,4 c0,0 206,0 214,0 c0,7 0,83 0,89 c-7,0 -310,0 -318,0 c0,-7 0,-654 0,-661 c7,0 94,0 100,0 z" id="svg_33"/>
   <path class="fil2" d="M3392,1325 c0,7 0,502 0,502 c0,46 -4,78 -10,93 c-12,29 -32,48 -59,58 c-17,6 -39,9 -67,9 c0,0 -56,0 -62,0 c0,-7 0,-83 0,-89 c5,0 21,0 21,0 c30,0 50,-7 61,-20 c10,-12 15,-31 16,-58 c0,0 0,-487 0,-494 c7,0 94,0 100,0 z" id="svg_34"/>
   <path class="fil2" d="M3841,1325 c1,6 139,653 141,661 c-8,0 -99,0 -104,0 c-1,-6 -29,-142 -29,-142 c0,-2 -2,-3 -4,-3 l-150,0 c-2,0 -3,1 -4,3 c0,0 -27,136 -28,142 c-6,0 -91,0 -99,0 c2,-9 132,-655 134,-661 c6,0 138,0 143,0 zm-73,121 l0,0 c-2,0 -3,1 -4,3 l-56,299 c0,1 0,2 1,3 c1,1 2,1 3,1 l114,0 c1,0 2,0 3,-1 c1,-1 1,-2 1,-3 l-58,-299 c0,-2 -2,-3 -4,-3 z" id="svg_35"/>
   <path class="fil2" d="M4534,1325 c0,7 0,654 0,661 c-7,0 -86,0 -90,0 c-2,-4 -190,-443 -190,-443 c-1,-2 -2,-3 -4,-2 c-2,0 -3,2 -3,4 c0,0 0,434 0,441 c-7,0 -88,0 -95,0 c0,-7 0,-654 0,-661 c7,0 97,0 102,0 c2,4 179,414 179,414 c1,2 2,3 4,2 c2,0 3,-2 3,-4 c0,0 0,-405 0,-412 c7,0 88,0 95,0 z" id="svg_36"/>
   <path class="fil2" d="M4991,1325 c1,6 139,653 141,661 c-8,0 -99,0 -104,0 c-1,-6 -29,-142 -29,-142 c0,-2 -2,-3 -4,-3 l-150,0 c-2,0 -3,1 -4,3 c0,0 -27,136 -28,142 c-6,0 -91,0 -99,0 c2,-9 132,-655 134,-661 c6,0 138,0 143,0 zm-73,121 l0,0 c-2,0 -3,1 -4,3 l-56,299 c0,1 0,2 1,3 c1,1 2,1 3,1 l114,0 c1,0 2,0 3,-1 c1,-1 1,-2 1,-3 l-58,-299 c0,-2 -2,-3 -4,-3 z" id="svg_37"/>
   <path class="fil2" d="M767,225 c-8,10 -72,98 -74,100 c-4,0 -94,0 -97,0 c-2,-3 -66,-90 -74,-100 c12,0 72,0 75,0 c2,2 45,52 45,52 c1,1 2,1 3,1 c1,0 2,0 3,-1 c0,0 43,-49 45,-52 c3,0 63,0 75,0 z" id="svg_38"/>
   <path class="fil2" d="M821,355 c0,7 0,115 0,115 l-286,584 c0,1 0,1 0,2 c0,1 0,1 1,2 c1,1 2,2 3,2 c0,0 279,0 286,0 c0,7 0,105 0,111 c-7,0 -416,0 -424,0 c0,-7 0,-115 0,-117 c1,-2 288,-582 288,-582 c0,-1 0,-1 0,-2 c0,-1 0,-1 -1,-2 c-1,-1 -2,-2 -3,-2 c0,0 -250,0 -257,0 c0,-7 0,-105 0,-111 c7,0 385,0 392,0 z" id="svg_39"/>
   <path class="fil2" d="M1325,355 c0,7 0,105 0,111 c-7,0 -241,0 -241,0 c-2,0 -4,2 -4,4 l0,215 c0,2 2,4 4,4 c0,0 171,0 178,0 c0,7 0,105 0,111 c-7,0 -178,0 -178,0 c-2,0 -4,2 -4,4 l0,251 c0,2 2,4 4,4 c0,0 234,0 241,0 c0,7 0,105 0,111 c-7,0 -357,0 -364,0 c0,-7 0,-808 0,-816 c7,0 357,0 364,0 z" id="svg_40"/>
   <path class="fil2" d="M1581,355 c0,7 0,700 0,700 c0,2 2,4 4,4 c0,0 244,0 251,0 c0,7 0,105 0,111 c-7,0 -366,0 -373,0 c0,-7 0,-808 0,-816 c7,0 112,0 119,0 z" id="svg_41"/>
   <path class="fil2" d="M2326,355 c0,7 0,105 0,111 c-7,0 -241,0 -241,0 c-2,0 -4,2 -4,4 l0,215 c0,2 2,4 4,4 c0,0 171,0 178,0 c0,7 0,105 0,111 c-7,0 -178,0 -178,0 c-2,0 -4,2 -4,4 l0,251 c0,2 2,4 4,4 c0,0 234,0 241,0 c0,7 0,105 0,111 c-7,0 -357,0 -364,0 c0,-7 0,-808 0,-816 c7,0 357,0 364,0 z" id="svg_42"/>
   <path class="fil2" d="M2844,355 c0,7 0,115 0,115 l-286,584 c0,1 0,1 0,2 c0,1 0,1 1,2 c1,1 2,2 3,2 c0,0 279,0 286,0 c0,7 0,105 0,111 c-7,0 -416,0 -424,0 c0,-7 0,-115 0,-117 c1,-2 288,-582 288,-582 c0,-1 0,-1 0,-2 c0,-1 0,-1 -1,-2 c-1,-1 -2,-2 -3,-2 c0,0 -250,0 -257,0 c0,-7 0,-105 0,-111 c7,0 385,0 392,0 z" id="svg_43"/>
   <path class="fil2" d="M3431,355 c0,7 0,808 0,816 c-7,0 -103,0 -108,0 c-2,-5 -219,-545 -219,-545 c-1,-2 -2,-3 -4,-2 c-2,0 -3,2 -3,4 c0,0 0,536 0,544 c-7,0 -107,0 -113,0 c0,-7 0,-808 0,-816 c7,0 116,0 121,0 c2,5 206,510 206,510 c1,2 2,3 4,2 c2,0 3,-2 3,-4 c0,0 0,-501 0,-508 c7,0 107,0 113,0 z" id="svg_44"/>
   <path class="fil2" d="M3724,355 c0,7 0,808 0,816 c-7,0 -112,0 -119,0 c0,-7 0,-808 0,-816 c7,0 112,0 119,0 z" id="svg_45"/>
   <path class="fil2" d="M3928,1092 c-19,-31 -31,-66 -34,-104 c-3,-32 -5,-71 -5,-115 l0,-230 c0,-78 5,-132 15,-162 c17,-53 49,-92 94,-114 c31,-16 68,-24 109,-24 c68,0 122,21 160,63 c40,44 60,106 60,185 c0,0 -1,18 -1,23 c-6,0 -112,0 -119,0 c1,-5 2,-13 2,-13 c0,-97 -34,-147 -101,-147 c-37,0 -63,14 -79,42 c-10,17 -15,36 -18,56 c0,0 -2,64 -2,64 l0,273 c0,58 5,100 14,124 c14,37 43,55 86,55 c68,0 102,-56 102,-165 c0,0 0,-11 0,-17 c7,0 113,0 120,0 c0,6 0,27 0,27 c0,78 -16,141 -47,187 c-37,53 -95,80 -174,80 c-83,0 -144,-30 -180,-90 z" id="svg_46"/>
   <path class="fil2" d="M4778,355 c1,6 163,807 165,816 c-8,0 -117,0 -123,0 c-1,-6 -34,-175 -34,-175 c0,-2 -2,-3 -4,-3 l-175,0 c-2,0 -3,1 -4,3 c0,0 -31,169 -33,175 c-6,0 -109,0 -117,0 c2,-9 155,-810 156,-816 c6,0 163,0 169,0 zm-85,150 l0,0 c-2,0 -3,1 -4,3 l-66,368 c0,1 0,2 1,3 c1,1 2,1 3,1 l133,0 c1,0 2,0 3,-1 c1,-1 1,-2 1,-3 l-67,-368 c0,-2 -2,-3 -4,-3 z" id="svg_47"/>
   <path class="fil2" d="M5273,355 c69,0 123,16 160,49 c48,42 72,104 72,184 c0,103 -37,174 -109,211 c-1,1 -2,2 -2,3 c0,0 0,1 0,1 c0,0 116,358 119,367 c-9,0 -121,0 -126,0 c-2,-5 -108,-334 -108,-334 c0,-2 -2,-3 -4,-3 l-76,0 c-2,0 -4,2 -4,4 c0,0 0,325 0,333 c-7,0 -112,0 -119,0 c0,-7 0,-808 0,-816 c7,0 195,0 195,0 zm-72,111 l0,0 c-2,0 -4,2 -4,4 l0,249 c0,2 2,4 4,4 l46,0 c36,0 61,-3 77,-10 c39,-17 59,-56 59,-119 c0,-46 -11,-79 -33,-100 c-13,-13 -28,-21 -46,-24 c-16,-2 -35,-4 -57,-4 l-46,0 z" id="svg_48"/>
   <path class="fil2" d="M4234,225 c-8,10 -72,98 -74,100 c-4,0 -94,0 -97,0 c-2,-3 -66,-90 -74,-100 c12,0 72,0 75,0 c2,2 45,52 45,52 c1,1 2,1 3,1 c1,0 2,0 3,-1 c0,0 43,-49 45,-52 c3,0 63,0 75,0 z" id="svg_49"/>
  </g>
 </g></g></svg>