<?xml version="1.0" encoding="utf-8"?>
<!-- Generator: Adobe Illustrator 13.0.0, SVG Export Plug-In . SVG Version: 6.00 Build 14948)  -->
<!DOCTYPE svg PUBLIC "-//W3C//DTD SVG 1.0//EN" "http://www.w3.org/TR/2001/REC-SVG-20010904/DTD/svg10.dtd">
<svg version="1.0" id="Ebene_1" xmlns="http://www.w3.org/2000/svg" xmlns:xlink="http://www.w3.org/1999/xlink" x="0px" y="0px"
	 width="320.481px" height="320.481px" viewBox="0 0 320.481 320.481" enable-background="new 0 0 320.481 320.481"
	 xml:space="preserve">
<path fill-rule="evenodd" clip-rule="evenodd" fill="#006DB3" d="M160.241,0c88.186,0,160.24,72.054,160.24,160.241
	c0,88.186-72.055,160.24-160.24,160.24C72.055,320.481,0,248.427,0,160.241C0,72.054,72.055,0,160.241,0L160.241,0L160.241,0z"/>
<path fill-rule="evenodd" clip-rule="evenodd" fill="#FFFFFF" d="M27.726,139.729c0,0,3.824,2.39,20.673,1.673
	c15.11-0.643,23.659-2.51,41.942-3.942c9.054-0.711,17.684,0.118,31.546,3.942c13.861,3.824,18.641,8.842,27.723,17.925
	c9.082,9.082,8.125,9.561,12.428,6.691c4.302-2.867,16.249-22.465,32.022-28.2c21.791-7.925,54.49-4.302,65.482-5.258
	c10.996-0.956,49.471-2.271,49.471-2.271s-9.32,6.094-22.225,12.308c-10.664,5.134-23.9,12.905-36.326,18.163
	c-12.426,5.256-31.137,10.643-40.629,19.119c-13.383,11.949-24.375,10.992-21.986,11.471c2.391,0.479,7.408-2.869,14.816-3.584
	c7.277-0.705,16.271,0.111,24.617-4.064c4.779-2.389,11.762-0.32,16.012,4.779c2.389,2.869,0.479,7.17,0.479,7.17
	s7.646,3.826,6.213,11.473s-11.949,10.994-11.949,10.994s0.957,3.344-2.391,6.213c-3.346,2.867-7.17,2.867-9.559,1.434
	s-15.773-8.125-24.855-8.125s-12.426,1.912-12.426,1.912c-2.389,1.91-20.074,8.604-32.981,10.037
	c-12.906,1.434-22.464-3.346-32.023-6.213s-10.516-5.258-10.516-5.258s-1.4,1.189-7.17,1.91c-7.647,0.957-12.904-0.955-15.295-3.346
	c-5.736-5.734-10.933-3.48-17.446-1.672c-8.604,2.389-16.968,3.584-16.968,3.584s9.459-7.357,13.861-9.559
	c8.604-4.303,12.427-6.215,12.427-6.215s-0.053-6.408,8.126-11.471c5.019-3.107,8.213-4.996,16.729-6.213
	c10.036-1.436,21.03,0.955,21.03,0.955s-8.126-6.691-17.685-10.992c-9.56-4.303-22.465-9.082-31.546-10.516
	c-9.082-1.434-19.723-3.261-33.938-6.692c-13.86-3.347-17.207-16.729-17.207-16.729L27.726,139.729L27.726,139.729z"/>
<path fill-rule="evenodd" clip-rule="evenodd" fill="#006DB3" d="M91.296,200.911c0.656-2.623,5.735-1.434,5.735,0.955
	s-0.956,3.824-2.868,3.824C92.253,205.69,90.818,202.821,91.296,200.911L91.296,200.911z"/>
<path fill="#FFFFFF" d="M65.33,282.946c0.009-0.008,2.916-3.273,7.96-3.512h0.051l0.063-0.002h0.017
	c4.349-0.145,8.839,2.982,14.437,6.881c7.421,5.168,17.177,11.961,28.345,12.121c12.889,0.184,19.821-4.869,25.915-9.311
	c5.578-4.066,10.577-7.711,18.386-7.896c7.077-0.17,12.429,3.076,18.526,6.773c6.869,4.166,14.863,9.014,27.344,8.641
	c11.088-0.33,19.201-6.605,25.439-11.43c4.652-3.598,8.457-6.539,12.732-6.854c6.039-0.439,9.613,4.473,9.621,4.488l-6.99,4.973
	c0-0.002-0.719-0.986-2.027-0.891c-1.697,0.125-4.574,2.35-8.092,5.07c-7.193,5.564-16.549,12.797-30.449,13.213
	c-14.979,0.445-24.141-5.109-32.016-9.885c-4.951-3.004-9.299-5.639-13.888-5.529c-5.141,0.121-9.113,3.018-13.547,6.248
	c-7.176,5.23-15.34,11.182-31.056,10.959c-13.858-0.199-24.816-7.83-33.151-13.635c-4.301-2.994-7.754-5.398-9.243-5.367h-0.013
	v0.002c-1.443,0.068-2.077,0.787-2.078,0.789L65.33,282.946L65.33,282.946z"/>
<path fill="#FFFFFF" d="M51.798,271.437c0.02-0.025,6.682-9.055,19.37-8.492c8.602,0.381,14.293,4.199,20.465,8.34
	c6.198,4.158,12.97,8.701,24.003,9.227c9.049,0.43,16.515-4.682,23.485-9.455c6.928-4.742,13.441-9.203,21.481-9.203
	c9.027,0,15.502,4.1,22.322,8.42c6.482,4.105,13.332,8.445,22.846,8.445c9.723,0,15.867-4.658,21.619-9.018
	c5.514-4.18,10.729-8.133,18.486-8.891c11.832-1.154,22.922,11.414,22.955,11.449l-6.387,5.713
	c-0.023-0.025-8.275-9.355-15.762-8.625c-5.287,0.516-9.58,3.77-14.117,7.209c-6.844,5.189-14.156,10.73-26.795,10.73
	c-12.014,0-19.928-5.01-27.416-9.754c-5.732-3.631-11.174-7.076-17.752-7.076c-5.41,0-10.853,3.727-16.642,7.691
	c-8.11,5.553-16.797,11.5-28.729,10.932c-13.418-0.639-21.225-5.875-28.372-10.67c-5.134-3.443-9.868-6.619-16.063-6.895
	c-8.134-0.361-12.166,5.115-12.178,5.131L51.798,271.437L51.798,271.437z"/>
<path fill="#FFFFFF" d="M40.136,260.122c0.041-0.047,14.208-16.58,32.364-16.178c10.668,0.236,16.509,4.127,22.627,8.201
	c5.45,3.629,11.163,7.436,21.584,7.93c7.903,0.379,12.737-3.26,17.821-7.09c6.561-4.938,13.462-10.133,26.429-10.133
	c13.774,0,20.708,4.533,27.36,8.881c5.096,3.332,9.996,6.533,18.525,6.533c8.4,0,12.709-3.92,17.016-7.84
	c5.539-5.041,11.08-10.084,22.775-10.084c15.762,0,34.857,19.113,34.914,19.168l-6.018,6.117
	c-0.047-0.049-16.697-16.68-28.896-16.68c-8.389,0-12.691,3.916-16.996,7.832c-5.543,5.045-11.088,10.09-22.795,10.09
	c-11.074,0-17.033-3.893-23.23-7.943c-5.594-3.658-11.428-7.471-22.655-7.471c-10.147,0-15.857,4.301-21.285,8.387
	c-6.353,4.781-12.39,9.326-23.368,8.803c-12.808-0.609-19.519-5.078-25.92-9.342c-5.077-3.381-9.923-6.609-18.056-6.789
	c-14.106-0.314-25.676,13.18-25.709,13.219L40.136,260.122L40.136,260.122z"/>
<path fill-rule="evenodd" clip-rule="evenodd" fill="#FDE600" d="M23.305,87.631c0,0,40.508-80.318,135.505-80.658
	c100.018-0.358,136.939,80.3,136.939,80.3l-43.734,28.319c0,0-35.127-53.308-93.563-51.979
	c-63.092,1.434-90.337,51.979-90.337,51.979L23.305,87.631L23.305,87.631z"/>
<path fill="#006DB3" d="M69.25,96.537c-1.807,2.478-3.534,5.058-5.177,7.737c-9.764-5.983-19.527-11.967-29.291-17.95
	c2.653-4.735,4.73-7.844,5.975-9.581c2.392-3.322,4.977-5.328,7.572-6.07c2.602-0.743,4.966-0.109,7.112,1.76
	c2.07,1.805,2.729,4.325,2.164,7.551c3.865-2.418,7.533-1.865,10.957,1.228c2.317,2.088,3.432,4.537,3.488,7.307
	C72.105,91.296,71.176,93.898,69.25,96.537L69.25,96.537z M42.68,83.113c2.287,1.56,4.572,3.118,6.859,4.678
	c0.604-0.778,1.216-1.605,1.839-2.48c2.395-3.345,2.499-5.847,0.137-7.734c-2.077-1.652-4.367-0.959-6.711,2.29
	C44.188,80.724,43.476,81.801,42.68,83.113L42.68,83.113z M53.451,90.459c3.119,2.127,6.238,4.254,9.357,6.382
	c0.731-0.88,1.303-1.598,1.71-2.17c1.443-2.024,2.168-3.71,2.137-5.166c-0.033-1.451-0.858-2.858-2.517-4.211
	c-1.512-1.229-2.959-1.703-4.351-1.372c-1.388,0.33-2.96,1.624-4.624,3.952C54.816,88.362,54.239,89.216,53.451,90.459
	L53.451,90.459z"/>
<path fill="#006DB3" d="M91.509,73.713c-1.948-1.448-3.927-2.864-5.935-4.248c-2.654,2.108-5.236,4.348-7.734,6.718
	c1.086,2.185,2.206,4.346,3.359,6.483c-1.351,1.328-2.674,2.7-3.969,4.113C71.309,76.03,66.323,64.56,62.362,52.528
	c0.723-0.641,1.451-1.272,2.184-1.896c11.286,5.674,21.804,12.338,31.448,19.829C94.477,71.504,92.981,72.587,91.509,73.713
	L91.509,73.713z M70.307,59.522c1.725,4.127,3.56,8.186,5.501,12.174c1.837-1.699,3.717-3.33,5.635-4.895
	C77.817,64.277,74.104,61.85,70.307,59.522L70.307,59.522z"/>
<path fill="#006DB3" d="M114.635,60.664c-6.971-4.866-14.651-9.134-22.951-12.651c3.598,6.109,7.195,12.217,10.793,18.325
	c-1.356,0.798-2.7,1.626-4.027,2.486c-6.228-9.616-12.455-19.231-18.684-28.848c0.868-0.563,1.741-1.115,2.619-1.656
	c8.542,2.849,16.534,6.444,23.891,10.654c-2.916-6.264-5.832-12.526-8.747-18.789c1.851-0.856,3.719-1.672,5.599-2.446
	c4.452,10.715,8.903,21.429,13.356,32.143C115.865,60.138,115.248,60.398,114.635,60.664L114.635,60.664z"/>
<path fill="#006DB3" d="M135.824,21.369c-0.586,1.751-1.141,3.505-1.665,5.261c-0.814-0.519-2.014-0.961-3.609-1.298
	c-1.598-0.335-2.938-0.367-3.992-0.121c-3.306,0.773-5.605,2.61-6.786,5.351c-1.188,2.745-1.111,5.958,0.069,9.626
	c1.125,3.492,2.84,6.014,5.029,7.653c2.197,1.643,4.547,2.121,7.196,1.496c1.748-0.412,3.063-1.29,3.988-2.679
	c-0.438-2.203-0.877-4.406-1.316-6.609c-1.384,0.271-2.767,0.565-4.143,0.884c-0.396-1.688-0.792-3.374-1.188-5.063
	c3.266-0.755,6.558-1.384,9.864-1.887c0.78,5.051,1.562,10.102,2.342,15.152c-0.99,1.349-2.316,2.502-3.979,3.494
	c-1.662,0.993-3.342,1.699-5.082,2.121c-3.772,0.92-7.149,0.278-10.452-2.024c-3.288-2.303-5.984-5.836-7.84-10.803
	c-1.854-4.956-1.975-9.531,0-13.681c1.958-4.133,5.771-7.034,11.18-8.297C129.272,19.055,132.805,19.56,135.824,21.369
	L135.824,21.369z"/>
<path fill="#006DB3" d="M142.687,34.582c-0.628-4.84,0.08-9.113,2.42-12.743c2.327-3.622,5.961-5.607,10.617-5.716
	c5.126-0.115,9.037,1.578,11.471,4.774c2.451,3.206,3.309,7.603,2.834,13.103c-0.473,5.509-2.051,9.764-4.457,12.881
	c-2.422,3.122-5.459,4.632-9.388,4.731c-3.612,0.097-6.462-1.274-8.805-4.272C145.051,44.344,143.405,40.126,142.687,34.582
	L142.687,34.582z M148.477,33.981c0.335,4.008,1.195,7.058,2.486,9.181c1.297,2.125,2.958,3.132,5.081,3.075
	c2.489-0.064,4.383-1.118,5.783-3.248c1.393-2.129,2.229-5.229,2.395-9.344c0.375-8.028-2.414-12.26-8.371-12.146
	c-2.704,0.063-4.735,1.273-5.993,3.544C148.594,27.315,148.17,30.304,148.477,33.981L148.477,33.981z"/>
<path fill="#006DB3" d="M187.728,54.702c-1.133-5.177-2.578-10.354-4.34-15.505c-0.801-0.171-1.918-0.436-3.352-0.769
	c-0.793,4.71-1.586,9.419-2.379,14.129c-1.656-0.275-3.318-0.512-4.986-0.711c1.391-11.361,2.781-22.723,4.17-34.083
	c0.35,0.044,1.711,0.142,4.076,0.37c2.367,0.232,4.266,0.511,5.699,0.779c8.939,1.735,12.322,6.434,10.381,12.859
	c-0.566,1.955-1.637,3.573-3.156,4.895c-1.518,1.322-3.143,2.119-4.9,2.408c1.768,5.716,3.15,11.454,4.152,17.174
	C191.315,55.688,189.526,55.172,187.728,54.702L187.728,54.702z M182.472,23.969c-0.525,3.118-1.051,6.237-1.576,9.356
	c1.004,0.263,1.771,0.447,2.309,0.546c2.297,0.424,4.037,0.439,5.266-0.02c1.223-0.457,2.09-1.679,2.576-3.69
	c0.395-1.629,0.074-2.917-0.99-3.842c-1.063-0.921-2.918-1.667-5.557-2.145C183.862,24.06,183.185,23.99,182.472,23.969
	L182.472,23.969z"/>
<path fill="#006DB3" d="M223.606,37.566c-1.234,2.393-2.469,4.785-3.703,7.177c3.381,1.736,6.699,3.628,9.945,5.673
	c-0.924,1.468-1.85,2.935-2.775,4.402c-3.119-1.966-6.307-3.782-9.557-5.449c-2.4,4.651-4.799,9.304-7.199,13.955
	c-1.455-0.748-2.926-1.461-4.406-2.141c4.799-10.4,9.6-20.8,14.398-31.199c7.164,3.281,14.102,7.173,20.736,11.673
	c-1.006,1.486-2.014,2.972-3.02,4.457C233.366,42.953,228.548,40.104,223.606,37.566L223.606,37.566z"/>
<path fill="#006DB3" d="M223.979,67.913c0.658-0.963,1.504-1.59,2.547-1.859c1.041-0.27,1.982-0.104,2.799,0.496
	s1.262,1.449,1.324,2.527c0.061,1.079-0.279,2.077-0.998,2.997c-0.717,0.923-1.6,1.496-2.631,1.744
	c-1.029,0.247-1.916,0.097-2.674-0.46c-0.76-0.557-1.168-1.354-1.24-2.411C223.036,69.892,223.317,68.879,223.979,67.913
	L223.979,67.913z"/>
<path fill="#006DB3" d="M272.351,73.433c-1.893,0.308-3.771,0.647-5.635,1.02c0.162-2.002-0.816-4.29-2.971-6.694
	c-2.049-2.279-4.662-3.244-7.684-2.867c-3.029,0.374-5.775,1.973-8.313,4.639c-2.539,2.671-3.979,5.335-4.424,7.943
	c-0.445,2.614,0.148,4.77,1.82,6.618c1.91,2.116,4.223,3.086,7.09,2.935c-0.729,1.714-1.486,3.408-2.271,5.082
	c-3.438-0.149-6.373-1.73-9.092-4.719c-2.721-2.983-3.82-6.227-3.371-10.12c0.455-3.876,2.338-7.929,5.906-12.063
	c3.316-3.839,7.191-6.135,11.795-6.524c4.586-0.392,8.791,1.326,12.227,5.128C270.368,67.068,272.001,70.363,272.351,73.433
	L272.351,73.433z"/>
<path fill="#006DB3" d="M252.622,96.308c0.953-0.675,1.975-0.949,3.076-0.792c1.102,0.154,1.961,0.696,2.566,1.612
	c0.602,0.919,0.762,1.934,0.477,3.016c-0.287,1.084-0.938,1.924-1.932,2.532c-0.996,0.61-2.039,0.813-3.123,0.633
	c-1.082-0.18-1.895-0.688-2.455-1.54s-0.701-1.794-0.432-2.854C251.069,97.856,251.671,96.983,252.622,96.308L252.622,96.308z"/>
</svg>
