<?xml version="1.0" encoding="UTF-8" standalone="no"?>
<!-- Created with Inkscape (http://www.inkscape.org/) -->

<svg
   xmlns:dc="http://purl.org/dc/elements/1.1/"
   xmlns:cc="http://creativecommons.org/ns#"
   xmlns:rdf="http://www.w3.org/1999/02/22-rdf-syntax-ns#"
   xmlns:svg="http://www.w3.org/2000/svg"
   xmlns="http://www.w3.org/2000/svg"
   xmlns:sodipodi="http://sodipodi.sourceforge.net/DTD/sodipodi-0.dtd"
   xmlns:inkscape="http://www.inkscape.org/namespaces/inkscape"
   version="1.1"
   width="206.9496"
   height="284.85187"
   id="svg2"
   xml:space="preserve"
   inkscape:version="0.48.2 r9819"
   sodipodi:docname="Coleraine_FC.svg"><sodipodi:namedview
     pagecolor="#ffffff"
     bordercolor="#666666"
     borderopacity="1"
     objecttolerance="10"
     gridtolerance="10"
     guidetolerance="10"
     inkscape:pageopacity="0"
     inkscape:pageshadow="2"
     inkscape:window-width="1024"
     inkscape:window-height="718"
     id="namedview14"
     showgrid="false"
     fit-margin-top="0"
     fit-margin-left="0"
     fit-margin-right="0"
     fit-margin-bottom="0"
     inkscape:zoom="1.4096604"
     inkscape:cx="-42.252802"
     inkscape:cy="127.41487"
     inkscape:window-x="-8"
     inkscape:window-y="-8"
     inkscape:window-maximized="1"
     inkscape:current-layer="g12" /><metadata
     id="metadata8"><rdf:RDF><cc:Work
         rdf:about=""><dc:format>image/svg+xml</dc:format><dc:type
           rdf:resource="http://purl.org/dc/dcmitype/StillImage" /></cc:Work></rdf:RDF></metadata><defs
     id="defs6" /><g
     transform="matrix(0.5024476,0,0,-0.5024476,-169.40742,277.26784)"
     id="g10"><g
       transform="scale(0.1,0.1)"
       id="g12"><path
         d="m 4147.5988,1481.9634 1283.5,1289.86 1293.72,-1300.66 -258.02,-350.1799 -1036.09,1041.2299 -1025.19,-1030.2699 -257.92,350.0199"
         inkscape:connector-curvature="0"
         id="path16"
         style="fill:#eb1c2b;fill-opacity:1;fill-rule:evenodd;stroke:none" /><path
         d="m 3429.0769,4806.2534 c 591.9319,423.95 1263.0519,709.87 2000.4419,712.09 737.39,-2.22 1411.59,-288.14 2003.52,-712.09 61.08,-691.05 93.7,-1349.58 -7.69,-2040.47 -132.13,-900.44 -473.73,-1786.97994 -1987.75,-2910.62394 -2.4,-1.73 -5.21,-3.761 -8.53,-6.101 -2.82,2.086 -5.64,4.179 -8.46,6.265 -1513.87,1123.59 -1851.7199,2010.04994 -1983.8439,2910.45994 -101.387,690.89 -68.766,1349.42 -7.688,2040.47 z m 2000.4419,633.18 c 707.65,0 1354.74,-271.9 1928.09,-676.52 17.44,-200.07 32.38,-400.23 42.31,-600.81 5.19,-104.71 8.81,-209.38 10.48,-314.2 2.34,-146.37 1.32,-292.4 -4.88,-438.66 -10.2,-240.31 -32.25,-477.78 -71.09,-715.17 -47.15,-288.29 -117.16,-562.11 -231.37,-831.34 -120.92,-285.03 -276.09,-538.8899 -468.1,-781.5399 -346.26,-437.59604 -761.35,-797.74904 -1205.74,-1133.475041 -503.63,380.523001 -971.91,794.275001 -1336.73,1312.235041 -152.12,215.9799 -272.9599,440.2899 -368.3999,686.6799 -104.68,270.23 -166.8,544.37 -209.27,830.67 -34.21,230.68 -53.1,461.59 -60.523,694.65 -8.676,272.6 -1.215,544.22 14.723,816.43 9.28,158.37 21.71,316.49 35.48,474.53 572.8699,404.32 1217.7999,676.52 1925.0199,676.52"
         inkscape:connector-curvature="0"
         id="path18"
         style="fill:#2f4399;fill-opacity:1;fill-rule:evenodd;stroke:none" /><path
         d="m 5429.5188,5360.5234 c 682.32,0 1295.18,-259.23 1852.65,-641.05 22.8,-269.79 41.56,-539.99 48.08,-810.72 4.99,-207.13 2.73,-413.51 -9.86,-620.34 -15.28,-250.81 -43.75,-498.3 -93.27,-744.74 -57.5,-286.15 -142.31,-553.62 -272.49,-815.14 -161.16,-323.7799 -367.52,-603.5799 -612.45,-869.04994 -277.65,-300.918 -586.27,-566.062 -912.96,-812.871001 -391.02,295.426001 -756.84,617.426001 -1070.74,994.211041 -198.56,238.34 -362.35,487.9999 -491.5699,770.2699 -120.19,262.52 -195.87,530.14 -247.4,813.92 -36.21,199.4 -59.6,399.13 -73.72,601.27 -17.34,248.29 -19.79,495.97 -12.24,744.71 7.59,250.04 25.33,499.24 46.4,748.49 556.8499,381.59 1167.7999,641.04 1849.5699,641.04 z m -1368.49,-754.36 -91.86,-57.41 -38.45,61.54 c -11.18,17.89 -19.2,28.41 -23.93,31.66 -4.69,3.19 -10.41,2.73 -17.1099,-1.47 -7.6,-4.74 -10.69,-10.4 -9.43,-17.07 1.39,-6.7 7.61,-18.97 18.7799,-36.85 l 102.56,-164.13 c 10.75,-17.21 18.78,-27.73 24.05,-31.69 5.4,-3.99 11.57,-3.76 18.72,0.71 6.86,4.28 9.69,9.69 8.47,16.28 -1.17,6.52 -7.73,19.51 -19.84,38.88 l -27.65,44.26 91.86,57.4 8.57,-13.72 c 22.81,-36.5 36.4,-64.05 40.8,-82.54 4.41,-18.48 1.32,-39.06 -9.18,-61.57 -10.48,-22.51 -28.68,-41.96 -54.53,-58.11 -26.97,-16.86 -52.25,-25.81 -75.77,-26.95 -23.54,-1.13 -43.59,5.09 -60.01,18.76 -16.45,13.75 -35.49,37.91 -57.1399,72.55 l -64.47,103.19 c -15.93,25.48 -26.95,45.11 -33.2,58.92 -6.17,13.86 -8.71,29.36 -7.35,46.58 1.29,17.17 7.46,33.98 18.58,50.35 11.15,16.29 26.67,30.76 46.56,43.19 27.12,16.94 52.7799,25.62 76.8699,26.17 24.15,0.49 43.85,-5.34 59.21,-17.49 15.29,-12.2 33.27,-34.84 53.9,-67.85 l 20.99,-33.59 z m 323.35,97.08 c 18.37,-37.66 30.48,-64.7 36.37,-81.18 5.84,-16.6 7.29,-33.58 4.29,-51.08 -3,-17.49 -10.79,-33.6 -23.27,-48.29 -12.48,-14.69 -29.34,-27.21 -50.43,-37.5 -20.05,-9.78 -39.67,-15.24 -58.82,-16.47 -19.22,-1.26 -36.79,2.29 -52.89,10.66 -16.11,8.37 -28.84,19.85 -38.25,34.32 -9.36,14.59 -23.48,41.14 -42.27,79.67 l -31.24,64.04 c -18.37,37.66 -30.48,64.7 -36.33,81.29 -5.89,16.48 -7.33,33.47 -4.25,51 3,17.5 10.71,33.57 23.27,48.3 12.48,14.69 29.26,27.18 50.42,37.5 20.06,9.78 39.68,15.24 58.82,16.47 19.15,1.23 36.8,-2.29 52.9,-10.66 16.1,-8.37 28.84,-19.85 38.17,-34.36 9.44,-14.56 23.44,-41.06 42.27,-79.67 l 31.24,-64.04 z m -157.36,75.54 c -8.51,17.45 -14.89,28.12 -19.25,32.05 -4.25,3.9 -9.39,4.42 -15.39,1.49 -5.13,-2.5 -8.04,-6.36 -8.8,-11.62 -0.87,-5.22 3.44,-17.48 12.88,-36.83 l 85.26,-174.81 c 10.64,-21.8 18.13,-34.76 22.33,-38.97 4.24,-4.28 9.66,-4.77 16.13,-1.61 6.64,3.23 9.4,8.2 8.44,14.97 -1.07,6.8 -6.9,21.17 -17.68,43.27 l -83.92,172.06 z m 261.12,219.31 108.52,-315.14 62.3,21.44 27.14,-78.83 -164.8,-56.74 -135.66,393.98 102.5,35.29 z m 143.91,47.02 175.34,43.72 20.17,-80.89 -70.15,-17.49 19.1,-76.64 65.64,16.37 19.19,-76.98 -65.64,-16.36 22.17,-88.91 77.15,19.23 20.17,-80.89 -182.34,-45.46 -100.8,404.3 z m 285.33,69.93 76.12,9.35 c 50.75,6.23 85.34,8.53 103.79,6.81 18.44,-1.72 34.32,-9.95 47.62,-24.6 13.32,-14.74 22.14,-39.68 26.47,-74.99 3.96,-32.18 2.6,-54.29 -4.06,-66.35 -6.58,-12.05 -21.55,-20.62 -44.82,-25.69 21.93,-2.7 37.18,-8 45.6,-15.99 8.32,-7.92 13.94,-15.47 16.59,-22.66 2.74,-7.19 6.12,-27.49 10.22,-60.88 l 13.39,-109.09 -99.84,-12.25 -16.87,137.42 c -2.72,22.15 -6.23,35.61 -10.37,40.5 -4.14,4.8 -13.62,6.38 -28.36,4.58 l 22.9,-186.52 -107.6,-13.21 -50.78,413.57 z m 116.28,-57.5 11.3,-92 c 12.03,1.48 20.29,4.18 24.76,8.09 4.48,3.92 5.59,15.03 3.35,33.25 l -2.78,22.67 c -1.61,13.17 -5.02,21.42 -10.23,24.95 -5.21,3.52 -14.02,4.56 -26.4,3.04 z m 426.72,94.87 62.02,-416.68 -110.95,0 -5.36,74.94 -38.92,0 -6.41,-74.94 -112.19,0 55.08,416.68 156.73,0 z m -57.37,-267.95 c -5.53,47.18 -10.98,105.52 -16.51,174.83 -10.98,-79.68 -17.84,-137.93 -20.56,-174.83 l 37.07,0 z m 296.17,252.6 -29.07,-415.67 -108.14,7.56 29.07,415.67 108.14,-7.56 z m 357.71,-63.67 -79.51,-409.03 -93.23,18.12 -19.22,196.69 -36.14,-185.93 -88.91,17.28 79.5,409.03 88.92,-17.28 23.87,-195.81 35.8,184.2 88.92,-17.27 z m 91.74,-25.1 174.55,-46.78 -21.58,-80.53 -69.84,18.72 -20.44,-76.29 65.34,-17.51 -20.53,-76.63 -65.34,17.51 -23.71,-88.51 76.79,-20.57 -21.58,-80.54 -181.51,48.64 107.85,402.49 z m 402.84,-132.48 168.93,-71.7 -32.57,-76.75 -69.15,29.35 -30.86,-72.7 61.55,-26.12 -31,-73.03 -61.54,26.12 -68.38,-161.08 -99.79,42.36 162.81,383.55 z m 125.05,-419.55 -35.9,-76.99 -71.19,33.19 35.91,77 71.18,-33.2 z m 350.43,-19.31 -95.65,50.85 34.07,64.07 c 9.9,18.62 15,30.83 15.46,36.56 0.42,5.65 -2.85,10.37 -9.83,14.08 -7.91,4.2 -14.36,4.05 -19.5,-0.38 -5.11,-4.55 -12.62,-16.07 -22.52,-34.69 l -90.87,-170.88 c -9.52,-17.92 -14.62,-30.13 -15.41,-36.68 -0.76,-6.66 2.53,-11.89 9.98,-15.85 7.13,-3.79 13.23,-3.55 18.33,0.8 5.06,4.28 13.03,16.46 23.75,36.62 l 24.5,46.08 95.64,-50.85 -7.59,-14.27 c -20.21,-38.01 -37.27,-63.57 -51.08,-76.62 -13.81,-13.06 -33.18,-20.67 -57.91,-22.84 -24.74,-2.17 -50.69,3.87 -77.6,18.18 -28.08,14.92 -48.48,32.34 -61.22,52.15 -12.75,19.81 -17.39,40.29 -13.75,61.34 3.67,21.13 15.07,49.69 34.25,85.76 l 57.13,107.43 c 14.1,26.53 25.59,45.89 34.43,58.21 8.91,12.27 21.07,22.23 36.66,29.66 15.51,7.47 33.16,10.53 52.89,9.09 19.69,-1.52 39.97,-7.73 60.68,-18.73 28.24,-15.02 48.58,-32.9 61.11,-53.49 12.49,-20.67 17.3,-40.64 14.46,-60.03 -2.93,-19.33 -13.54,-46.23 -31.82,-80.59 l -18.59,-34.98 z m 42.2,-203.82 -43.75,-72.81 -67.32,40.45 43.75,72.81 67.32,-40.45 z m -376.07,-275.54 c -1.52,0.24 -3.04,0.47 -4.56,0.7 -1.92,0.3 -3.84,0.6 -5.77,0.88 -1.42,0.21 -2.85,0.4 -4.28,0.61 -1.98,0.28 -3.95,0.56 -5.93,0.82 -1.47,0.2 -2.95,0.38 -4.42,0.57 -2.01,0.26 -4.01,0.51 -6.03,0.76 -1.48,0.18 -2.97,0.34 -4.46,0.52 -1.88,0.21 -3.75,0.42 -5.63,0.62 -1.67,0.18 -3.34,0.35 -5.02,0.52 -1.84,0.18 -3.69,0.36 -5.54,0.53 -1.63,0.15 -3.26,0.3 -4.9,0.44 -1.88,0.17 -3.76,0.32 -5.65,0.47 -1.6,0.12 -3.2,0.25 -4.8,0.36 -2.02,0.15 -4.05,0.28 -6.07,0.41 -1.55,0.1 -3.09,0.2 -4.64,0.29 -1.92,0.11 -3.85,0.21 -5.78,0.3 -1.66,0.09 -3.32,0.18 -4.98,0.25 -2.03,0.09 -4.06,0.15 -6.1,0.22 -1.54,0.06 -3.09,0.12 -4.64,0.16 -2.34,0.07 -4.69,0.11 -7.04,0.16 -1.26,0.02 -2.51,0.05 -3.76,0.07 -3.63,0.05 -7.28,0.07 -10.95,0.06 -217.88,-0.44 -423.93,-163.72 -656.29,-155.13 29.73,-36.78 55.75,-76.99 77.46,-119.98 192.6,3.48 388.11,152.22 580.67,153.18 3.15,0.01 6.3,0.01 9.44,-0.04 0.95,-0.01 1.89,-0.04 2.84,-0.06 2.22,-0.04 4.44,-0.09 6.65,-0.15 1.13,-0.04 2.26,-0.09 3.39,-0.14 1.96,-0.07 3.92,-0.14 5.88,-0.24 1.46,-0.07 2.94,-0.16 4.4,-0.24 1.66,-0.1 3.33,-0.19 4.99,-0.3 1.44,-0.09 2.87,-0.2 4.3,-0.3 1.7,-0.13 3.39,-0.25 5.09,-0.39 1.45,-0.12 2.91,-0.25 4.36,-0.38 1.69,-0.15 3.38,-0.31 5.07,-0.47 1.42,-0.14 2.85,-0.29 4.27,-0.44 1.65,-0.18 3.3,-0.36 4.95,-0.54 1.55,-0.18 3.1,-0.37 4.65,-0.55 1.59,-0.2 3.2,-0.39 4.79,-0.6 l 4.22,-0.56 c 1.72,-0.23 3.44,-0.47 5.15,-0.72 1.48,-0.21 2.97,-0.42 4.44,-0.65 1.58,-0.24 3.16,-0.48 4.74,-0.73 1.51,-0.24 3.04,-0.48 4.55,-0.73 1.56,-0.26 3.11,-0.52 4.67,-0.79 1.58,-0.26 3.17,-0.54 4.75,-0.82 1.62,-0.29 3.23,-0.58 4.84,-0.88 1.37,-0.25 2.74,-0.5 4.1,-0.76 1.93,-0.37 3.85,-0.75 5.78,-1.13 l 3.42,-0.67 c 2.12,-0.43 4.25,-0.88 6.37,-1.33 l 2.84,-0.59 c 2.16,-0.46 4.32,-0.94 6.48,-1.42 l 2.95,-0.65 c 144.36,-32.55 286.59,-101.79 438.57,-125.45 l 0.14,-0.03 c 0.18,-45.11 0,-90.22 -0.61,-135.34 -184.22,34.52 -362.24,149 -596.33,148.53 -174.45,-0.35 -341.3,-105.1 -520.14,-142.45 11.45,-39.63 19.5,-80.82 23.82,-123.18 165.76,33.39 333.04,142.87 498.15,143.7 198.64,0.99 386.19,-114.6 591.97,-144.08 -1.15,-38.45 -2.61,-76.89 -4.42,-115.34 -0.36,-7.15 -0.73,-14.3 -1.11,-21.45 -189.97,30.58 -371.47,151.78 -612.33,151.3 -158.03,-0.32 -309.82,-86.31 -469.95,-130.26 -2.83,-46.22 -10.1,-91.15 -21.37,-134.35 164.12,34.55 329.7,141.87 493.15,142.68 202.28,1.01 393.05,-118.87 603.28,-145.6 -3.24,-45.79 -6.97,-91.53 -11.23,-137.22 -187.64,32.23 -367.76,150.73 -605.91,150.25 -177.57,-0.36 -347.27,-108.88 -529.77,-144.38 -23.85,-47.62 -52.98,-91.83 -86.57,-131.79 l 32.53,0.97 c 194.21,0.97 391.43,152.3 585.64,153.27 198.7,0.99 386.29,-114.66 592.14,-144.1 -7.76,-68.48 -16.78,-136.84 -27.19,-205.04 -25.25,-160.64 -58,-319.36 -102.01,-475.96 -44.76,-154.59 -100.3,-304.2 -168.67,-449.93 -94.51,-196.65 -208.54,-380.51 -339.02,-555.2299 -114.33,-150.39 -238.55,-291.26 -369.97,-426.89004 -213.14,-216.912 -441.98,-416.455 -681.92,-603.166 l -1.53,1.188 c -257.63,201.695 -502.61,416.156 -728.7,652.918 -170.91,182.09004 -328.78,372.95004 -464.76,582.58994 -96,150.83 -179.12,307.78 -248.35,472.65 -94.4299,230.9 -157.1399,470.05 -200.2399,715.47 -16.6,96.73 -30.31,193.79 -41.49,291.19 206.4199,29.1 394.4199,145.3 593.5899,144.31 194.21,-0.97 391.43,-152.3 585.64,-153.27 l 32.53,-0.97 c -33.58,39.96 -62.72,84.17 -86.57,131.79 -182.5,35.5 -352.2,144.02 -529.77,144.38 -238.83,0.48 -419.3,-118.7 -607.5199,-150.53 l -1,10.57 c -3.77,42.23 -7.11,84.48 -10.03,126.75 210.7899,26.37 401.9599,146.8 604.6899,145.78 163.45,-0.81 329.03,-108.13 493.16,-142.68 -11.28,43.2 -18.55,88.13 -21.38,134.35 -160.12,43.95 -311.92,129.94 -469.95,130.26 -241.36,0.48 -423.12,-121.23 -613.5099,-151.5 -2.34,45.58 -4.2,91.18 -5.64,136.81 206.2899,29.17 394.1999,145.25 593.2599,144.26 165.11,-0.83 332.39,-110.31 498.15,-143.7 4.32,42.36 12.37,83.55 23.83,123.18 -178.85,37.35 -345.7,142.1 -520.14,142.45 -234.74,0.47 -413.0899,-114.64 -597.8399,-148.82 -0.2,13.17 -0.38,26.33 -0.51,39.49 -0.22,31.97 -0.25,63.95 -0.09,95.91 112.64,17.28 219.9099,59.75 326.6399,93.94 l 0.43,0.14 c 31.54,10.1 63.04,19.48 94.62,27.26 l 0.57,0.14 c 2.95,0.73 5.9,1.44 8.86,2.13 l 1.07,0.25 c 2.61,0.61 5.24,1.22 7.86,1.81 l 3.11,0.69 c 2.12,0.47 4.24,0.94 6.37,1.4 l 2.82,0.59 c 2.15,0.45 4.3,0.9 6.45,1.34 l 3.16,0.63 c 2.04,0.4 4.06,0.8 6.1,1.18 l 3.73,0.7 c 1.74,0.32 3.48,0.64 5.23,0.95 1.41,0.25 2.82,0.49 4.23,0.74 1.78,0.3 3.56,0.6 5.34,0.89 l 4.01,0.65 c 1.71,0.26 3.41,0.53 5.11,0.79 1.43,0.21 2.85,0.42 4.28,0.63 1.73,0.24 3.46,0.48 5.19,0.72 l 4.27,0.57 c 1.57,0.2 3.14,0.39 4.72,0.58 1.57,0.19 3.13,0.38 4.7,0.56 1.62,0.18 3.24,0.36 4.86,0.53 1.49,0.16 2.98,0.31 4.48,0.46 1.55,0.15 3.11,0.29 4.67,0.43 1.6,0.15 3.19,0.29 4.78,0.42 1.53,0.13 3.06,0.24 4.59,0.35 1.6,0.12 3.19,0.24 4.79,0.34 1.52,0.11 3.05,0.19 4.57,0.27 1.59,0.1 3.18,0.2 4.77,0.27 1.88,0.1 3.76,0.16 5.64,0.23 1.21,0.05 2.42,0.11 3.63,0.15 1.98,0.06 3.97,0.09 5.95,0.13 1.2,0.03 2.4,0.06 3.6,0.08 3.12,0.04 6.25,0.05 9.38,0.04 192.55,-0.96 388.06,-149.7 580.66,-153.18 21.72,42.99 47.73,83.2 77.46,119.98 -232.36,-8.59 -438.41,154.69 -656.29,155.13 -3.68,0.01 -7.35,-0.01 -11,-0.06 -1.14,-0.02 -2.26,-0.05 -3.39,-0.07 -2.49,-0.04 -4.97,-0.09 -7.44,-0.16 -1.41,-0.04 -2.82,-0.09 -4.23,-0.15 -2.2,-0.07 -4.41,-0.14 -6.6,-0.24 -1.55,-0.07 -3.09,-0.15 -4.63,-0.22 -2.03,-0.11 -4.05,-0.21 -6.07,-0.32 -1.52,-0.09 -3.03,-0.19 -4.55,-0.29 -2.06,-0.13 -4.12,-0.26 -6.18,-0.41 -1.55,-0.11 -3.09,-0.24 -4.64,-0.36 -1.97,-0.16 -3.94,-0.32 -5.91,-0.48 l -4.65,-0.42 c -1.93,-0.18 -3.85,-0.37 -5.77,-0.56 -1.65,-0.17 -3.3,-0.34 -4.94,-0.52 -1.87,-0.2 -3.73,-0.41 -5.59,-0.62 -1.52,-0.17 -3.04,-0.34 -4.56,-0.53 -1.99,-0.24 -3.98,-0.49 -5.96,-0.74 -1.48,-0.19 -2.95,-0.38 -4.43,-0.58 -2,-0.26 -4,-0.54 -5.99,-0.83 -1.42,-0.2 -2.85,-0.4 -4.27,-0.61 -1.94,-0.28 -3.88,-0.59 -5.83,-0.89 -1.49,-0.23 -2.98,-0.45 -4.46,-0.69 -2.24,-0.36 -4.47,-0.73 -6.7,-1.11 -1.05,-0.17 -2.1,-0.34 -3.15,-0.52 -2.69,-0.47 -5.37,-0.94 -8.04,-1.43 l -2.11,-0.38 c -6.77,-1.25 -13.49,-2.57 -20.17,-3.96 l -1.38,-0.29 c -2.95,-0.62 -5.9,-1.25 -8.84,-1.89 l -1.03,-0.24 c -2.87,-0.63 -5.72,-1.27 -8.58,-1.93 l -2.66,-0.62 c -2.47,-0.58 -4.94,-1.16 -7.4,-1.75 l -2.35,-0.57 c -2.43,-0.59 -4.86,-1.19 -7.28,-1.8 l -2.7,-0.68 c -2.48,-0.63 -4.96,-1.26 -7.43,-1.91 l -2,-0.53 c -2.61,-0.68 -5.23,-1.38 -7.83,-2.09 l -1.79,-0.48 c -2.83,-0.77 -5.66,-1.55 -8.48,-2.34 l -0.85,-0.24 c -3.11,-0.88 -6.21,-1.76 -9.3,-2.65 l -0.18,-0.05 c -119.41,-34.53 -227.2099,-84 -336.4499,-107.57 l -0.04,-0.01 c 619.6099,500.79 1258.6699,616.69 1715.8999,616.69 448.62,-0.01 1102.86,-112.87 1718.34,-616.23 -108.47,23.73 -215.61,72.76 -334.18,107.06 l -1,0.28 c -2.8,0.81 -5.61,1.61 -8.42,2.4 l -1.83,0.51 c -2.5,0.7 -4.99,1.39 -7.5,2.07 l -2.84,0.77 c -2.19,0.59 -4.39,1.18 -6.59,1.76 l -3.29,0.86 c -2.06,0.54 -4.11,1.06 -6.18,1.59 l -3.74,0.94 c -2.1,0.53 -4.2,1.05 -6.31,1.56 l -3.09,0.76 c -2.28,0.54 -4.56,1.08 -6.85,1.61 l -3.14,0.73 c -2.49,0.58 -5,1.14 -7.5,1.69 l -2.08,0.47 c -2.58,0.56 -5.17,1.11 -7.76,1.66 l -2.44,0.51 c -6.62,1.38 -13.28,2.69 -19.98,3.93 l -0.14,0.02 -0.4,0.07 c -3.24,0.6 -6.48,1.18 -9.74,1.74 l -2.65,0.44 c -2.37,0.4 -4.74,0.8 -7.13,1.18 z m -1261.94,-394.79 194.7,-141.46 -74.37,-228.89 -240.67,0 -74.37,228.89 194.71,141.46 z m -7.55,180.43 218.01,110.27 -62.83,97.54 c -47.08,13.49 -96.57,20.73 -147.67,20.73 -48.95,0 -96.44,-6.61 -141.74,-19.03 l -77.78,-99.24 212.01,-110.27 z m -345.5,-271.37 -34.47,221.21 -92.94,-4.97 c -53.8,-91.83 -84.92,-200.18 -84.92,-316.25 0,-6.73 0.15,-13.42 0.35,-20.1 l 83.25,-61.75 128.73,181.86 z m 708.43,9.02 28.45,233.24 87.92,-11.74 c 59.1,-94.79 93.55,-208.39 93.55,-330.53 0,-3.05 -0.06,-6.07 -0.1,-9.11 l -78.08,-45.67 -131.74,163.81 z m -148.66,-432.33 218.82,48.41 23.35,-89.67 c -70.18,-97.16 -167.71,-170.92 -280.39,-208.23 l -70.19,55.57 108.41,193.92 z m -389.47,-21.05 -212.8,66.45 -47.11,-95.25 c 75.84,-101.16 181.8,-175.73 303.49,-208.43 l 64.83,34.29 -108.41,202.94"
         inkscape:connector-curvature="0"
         id="path20"
         style="fill:#2f4399;fill-opacity:1;fill-rule:evenodd;stroke:none" /><path
         d="m 4706.5988,1115.1635 c 2.58,2.21 -3.05,9.43 -12.71,6.74 -20.24,-5.62 -41.73,-12.11 -62.79,-12.71 -9.76,-0.28 -10.24,1.49 -22.99,1.45 -29.67,-0.09 -28,45.34 -15.03,62.4 19.96,26.26 40.48,55.5 66.82,83.73 40.37,43.26 92.34,84.47 143.9,126.3 80.43,65.26 163.34,129.2499 255.38,168.8699 186.68,80.35 452.07,150.85 571.36,130.81 188.95,-37.11 215.51,-161.39 227.05,-245.0899 -70.67,-4 -161.73,-42.12 -234.58,-84.19 -112.51,-64.97 -202.13,-148.11 -317.24,-198.47 -167.96,-73.48 -209.54,-59.37 -306.61,-82.94 -33.71,-8.18 -44.98,-21.14 -90.33,-26.83 16.14,48.8 27.24,97.19 19.53,135.32 -1.69,8.4 -13.09,4.24 -12.77,-3.75 1.91,-49.17 -9.97,-99.1 -37.58,-128.56 -21.73,-23.17 -52.42,-28.28 -83.45,-30.08 -40.64,-2.35 -85.97,3.33 -123.29,19.55 -13.16,5.72 -24.28,30.25 -8.29,45.1 13.32,12.37 25.15,16.45 43.62,32.35 z m 276.17,-62.91 c -18.83,-18 0.53,-57.98004 28.55,-73.63004 33.62,-18.78 89.64,-32.23 106.69,-13.53 20.35,22.34 -12.17,59.96004 -37.57,78.14004 -26.55,19 -74.07,31.57 -97.67,9.02 z m 592.05,246.44 c 58.11,2.51 90.46,-24.14 139.76,-19.53 29.38,2.74 47.43,23.16 45.08,43.57 -3.55,30.79 -24.55,43.2 -48.09,43.58 -49.73,0.8 -96.68,-31.06 -136.75,-67.62 z m -272.07,500.9299 c -62.4,-66.56 -122.69,-135.18 -181.92,-205.58 88.71,34.08 181.93,62.14 275.15,87.21 -38.05,17.16 -82.15,67.77 -79.32,112.58 0.67,10.67 -5.27,15 -13.91,5.79 z m 364.97,-105.98 c 93.06,26.02 224.87,-32.57 288.18,-121.57 59.24,-83.28 59.42,-199.5999 86.09,-306.8599 20.74,-83.43 64.49,-180.81 103.03,-253 10.78,-20.19004 -5.91,-26.28004 -22.51,-15.00004 -66.12,44.92004 -99.05,116.90004 -171.11,132.08004 -107.53,22.66 -181.04,-31.46 -330.2,-22.52 -20.14,1.21 -15.85,13.25 -10.51,21.02 69.38,100.93 191.85,115.74 238.65,205.62 37.45,71.94 24.81,157.4399 -12.01,231.1499 -32.37,64.81 -97.56,99.06 -169.61,129.08 z m -800.34,-361.6899 c 19.22,-11.43 38.91,-22.08 58.15,-33.48 9,-5.33 18.93,-11.2 32.51,3.86 66.13,73.35 141.07,119.98 221.99,163.6999 112.92,61 248.42,106.28 403.16,154.31 19.71,6.12 22.08,6.71 8.26,6.78 -135.93,0.63 -507.97,-97.44 -720.82,-262.0299 -13.83,-10.69 -19.48,-23.48 -3.25,-33.14 z m -94.99,-76.84 c 12.45,0 22.54,-10.09 22.54,-22.54 0,-12.45 -10.09,-22.54 -22.54,-22.54 -12.45,0 -22.54,10.09 -22.54,22.54 0,12.45 10.09,22.54 22.54,22.54"
         inkscape:connector-curvature="0"
         id="path22"
         style="fill:#2f4399;fill-opacity:1;fill-rule:evenodd;stroke:none" /><path
         d="m 4141.1288,2496.1834 c 3.89,-105.35 -114.27,-187.57 -118.79,-353.35 -0.46,-17.06 8.57,-45.01 39.09,-46.6 77.59,-4.04 154.91,9.45 229.5,-0.51 84.79,-11.31 164.9,-22.21 242.62,-7.76 21.95,4.08 15.68,27.54 5.27,29.31 -64.2,10.91 -106.78,65.89 -189.46,81.96 -74.14,14.4 -139.07,-20.95 -203.72,-21.81 -13.06,-0.17 -22.86,5.24 -20.3,18.05 7.48,37.42 53.74,80.09 56.38,111.26 3.39,39.99 -12.09,73.35 -4.51,112.77 1.6,8.34 8.47,20.21 18.96,27.78 15.19,10.95 36.1,12.81 58.97,14.78 29.41,2.53 61.57,3.31 83.78,3.18 45.46,-0.26 89.04,0.99 129.98,0.87 39.44,-0.12 3.11,38.38 -10.53,41.34 -25.48,5.54 -57.53,3.32 -82.75,3.39 -36.85,0.1 -71.31,-1.41 -108.2,0.37 -16.02,0.78 -25.1,14.83 -25.55,24.06 -0.69,13.93 9.77,25.13 9.77,39.09 0,14.91 -9.23,21.96 -4.52,36.09 6.95,20.85 38.26,26.9 37.6,48.87 -0.7,23.38 -62.42,48.04 -60.87,75.89 0.47,8.51 4.88,16.81 16.38,23.42 14.79,8.51 37.74,14.25 60.2,15.71 24.44,1.59 12.48,0.29 45.2,1.21 26.24,0.74 49.12,0.13 49.6,-15.48 0.34,-11.12 -11.7,-16.59 -13.48,-25.32 -3.03,-14.79 -10.87,-27.87 -18.09,-36.11 -8.19,-9.34 -15.58,-13.55 -14.29,-26.52 1.83,-18.32 21.26,-8.61 22.56,-25.59 0.81,-10.58 -16.73,-14.35 -31.63,-22.23 -14.28,-7.54 -32.32,-15.47 -42.8,-22.86 -8.44,-5.96 -13.53,-14.57 -12.47,-21.99 1.07,-7.43 8.3,-13.66 15.49,-14.86 29.72,-4.96 66.91,-2.48 97.35,-2.23 24.5,0.19 44.16,-15.16 70.76,-12.75 15.13,1.37 24.92,10.38 39.37,20.23 4.57,2.6 18.88,-3.86 31.98,-4.66 9.97,-0.62 20.99,0.66 26.54,6.55 5.54,5.9 5.62,16.4 -4.79,26.7 -7.13,7.05 -5.02,16.76 -13.98,28.53 -7.91,10.39 -15.45,20.47 -15.7,29.32 -0.59,21.06 31.54,26.99 36.82,47.38 6.13,23.67 -36.49,24.21 -56.37,37.59 -4.07,2.73 -9.54,10.68 -10.82,16.45 -5.33,23.87 46.02,39.98 57.43,54.97 2.51,3.29 3.03,19.38 -6.75,21.79 -38.88,9.54 -72.55,-6.93 -78.2,0.75 -7.61,10.36 2.74,23.98 2.14,36.08 -1.13,23.11 -13.48,41.81 -14.92,69.18 -0.43,7.96 -11.68,14.15 -20.28,8.28 -9.01,-6.15 -16.54,-14.46 -29.57,-20.07 -13.03,-5.62 -25.5,-5.66 -32.19,-7.61 -14.27,-4.15 -26.37,-18.43 -38.23,-18.18 -18.64,0.39 -29.76,22.9 -33.83,51.11 -2.25,15.55 -17.12,7.77 -21.04,4.51 -40.6,-33.74 -54.13,-66.53 -69.18,-67.66 -11.64,-0.87 -29.25,32.2 -44.34,39.85 -4.81,2.44 -10.38,1.06 -12.79,-3.76 -10.34,-20.7 -2.87,-63.63 -22.17,-78.91 -15.11,-11.96 -55.06,9.31 -64.27,1.48 -4.88,-4.16 -1.16,-16.89 0.73,-21.04 5.56,-12.16 10.64,-20.02 7.9,-33.1 -1.62,-7.67 -10.61,-11.53 -28.65,-20.59 -10.38,-5.21 -21.87,-10.07 -30.87,-14.32 -16.07,-7.57 -20.8,-15.21 -14.24,-21.01 5.78,-5.13 20.64,-6.56 22.62,-16.21 1.68,-8.2 -15.49,-16.45 -5.64,-27.81 13.83,-15.96 40.2,-18.79 42.47,-47.38 1.72,-21.51 -35.61,-45.28 -28.93,-64.27 2.89,-8.21 14.86,-6.96 28.45,-14.49 6.55,-3.62 11.46,-13.69 18.65,-18.15 12.86,-7.96 29.43,-8.94 39.89,-17.68 10.45,-8.74 14.81,-25.25 15.26,-37.28"
         inkscape:connector-curvature="0"
         id="path24"
         style="fill:#2f4399;fill-opacity:1;fill-rule:evenodd;stroke:none" /><path
         d="m 6427.5888,2493.1734 c 3.89,-105.36 -114.27,-187.57 -118.79,-353.35 -0.46,-17.06 8.58,-45.02 39.09,-46.61 77.59,-4.03 154.92,9.45 229.5,-0.5 84.79,-11.32 164.9,-22.21 242.62,-7.77 21.96,4.08 15.68,27.55 5.27,29.32 -64.2,10.91 -106.78,65.89 -189.46,81.95 -74.14,14.4 -139.07,-20.95 -203.71,-21.8 -13.07,-0.17 -22.87,5.23 -20.31,18.04 7.48,37.43 53.74,80.1 56.38,111.26 3.39,40 -12.08,73.35 -4.51,112.77 1.61,8.35 8.48,20.22 18.97,27.79 15.18,10.95 36.09,12.8 58.96,14.77 29.41,2.54 61.57,3.32 83.79,3.19 45.45,-0.27 89.04,0.98 129.97,0.86 39.44,-0.11 3.11,38.39 -10.53,41.35 -25.47,5.53 -57.53,3.32 -82.74,3.39 -36.86,0.1 -71.32,-1.42 -108.21,0.37 -16.02,0.77 -25.09,14.83 -25.55,24.05 -0.69,13.94 9.78,25.14 9.78,39.1 0,14.9 -9.23,21.96 -4.53,36.09 6.95,20.85 38.26,26.9 37.6,48.86 -0.7,23.39 -62.42,48.05 -60.87,75.89 0.48,8.51 4.89,16.81 16.39,23.42 14.78,8.51 37.73,14.26 60.19,15.72 24.45,1.59 12.49,0.29 45.2,1.21 26.24,0.74 49.12,0.13 49.6,-15.48 0.35,-11.12 -11.7,-16.59 -13.48,-25.33 -3.03,-14.78 -10.87,-27.86 -18.09,-36.1 -8.18,-9.34 -15.58,-13.56 -14.28,-26.52 1.82,-18.33 21.25,-8.61 22.55,-25.6 0.81,-10.57 -16.72,-14.34 -31.63,-22.22 -14.27,-7.55 -32.32,-15.47 -42.79,-22.86 -8.45,-5.96 -13.54,-14.57 -12.47,-21.99 1.06,-7.43 8.3,-13.66 15.49,-14.86 29.72,-4.97 66.9,-2.49 97.35,-2.24 24.49,0.2 44.15,-15.15 70.76,-12.74 15.12,1.37 24.92,10.38 39.36,20.23 4.58,2.6 18.88,-3.86 31.99,-4.67 9.96,-0.61 20.99,0.67 26.53,6.56 5.55,5.89 5.62,16.4 -4.78,26.69 -7.14,7.06 -5.03,16.77 -13.99,28.54 -7.91,10.38 -15.44,20.46 -15.69,29.32 -0.6,21.06 31.54,26.98 36.82,47.37 6.13,23.68 -36.49,24.22 -56.38,37.6 -4.07,2.73 -9.54,10.68 -10.82,16.44 -5.33,23.87 46.02,39.99 57.44,54.98 2.5,3.28 3.03,19.38 -6.76,21.79 -38.87,9.53 -72.55,-6.94 -78.2,0.75 -7.61,10.36 2.74,23.98 2.15,36.08 -1.13,23.11 -13.48,41.8 -14.93,69.18 -0.42,7.96 -11.68,14.15 -20.28,8.28 -9.01,-6.15 -16.54,-14.46 -29.56,-20.08 -13.03,-5.62 -25.51,-5.66 -32.2,-7.61 -14.26,-4.14 -26.37,-18.43 -38.23,-18.18 -18.64,0.4 -29.75,22.91 -33.83,51.11 -2.25,15.56 -17.11,7.77 -21.04,4.51 -40.59,-33.74 -54.13,-66.52 -69.18,-67.65 -11.64,-0.88 -29.24,32.2 -44.34,39.85 -4.81,2.44 -10.37,1.06 -12.78,-3.76 -10.34,-20.7 -2.88,-63.64 -22.18,-78.91 -15.11,-11.97 -55.06,9.3 -64.26,1.48 -4.89,-4.16 -1.17,-16.89 0.72,-21.05 5.56,-12.15 10.65,-20.01 7.9,-33.09 -1.61,-7.67 -10.6,-11.53 -28.64,-20.59 -10.38,-5.22 -21.88,-10.07 -30.88,-14.32 -16.07,-7.58 -20.79,-15.21 -14.24,-21.02 5.78,-5.12 20.64,-6.56 22.62,-16.21 1.69,-8.19 -15.48,-16.44 -5.64,-27.8 13.83,-15.96 40.2,-18.79 42.48,-47.38 1.72,-21.51 -35.61,-45.29 -28.94,-64.27 2.89,-8.22 14.86,-6.97 28.46,-14.49 6.54,-3.62 11.45,-13.69 18.65,-18.15 12.85,-7.97 29.42,-8.94 39.88,-17.68 10.46,-8.75 14.81,-25.26 15.26,-37.28"
         inkscape:connector-curvature="0"
         id="path26"
         style="fill:#2f4399;fill-opacity:1;fill-rule:evenodd;stroke:none" /><path
         style="color:#000000;fill:#ffffff;fill-opacity:1;fill-rule:nonzero;stroke:#ffffff;stroke-width:8.67450047px;stroke-linecap:butt;stroke-linejoin:miter;stroke-miterlimit:4;stroke-opacity:1;stroke-dasharray:none;stroke-dashoffset:0;marker:none;visibility:visible;display:inline;overflow:visible;enable-background:accumulate"
         d="m 4183.7753,1597.6601 c -44.3358,70.4323 -170.1637,323.1818 -204.7018,411.1828 -95.7969,244.0846 -172.7475,546.9209 -208.2957,819.7402 -7.4598,57.2518 -15.6221,114.5025 -18.1385,127.2239 -4.3731,22.1087 -2.3495,23.5795 45.8333,33.3149 27.7246,5.6017 108.9612,29.0181 180.5259,52.0364 231.2088,74.3672 224.8928,73.0315 346.98,73.3705 111.4044,0.3085 114.0277,-0.1393 216.8625,-37.1014 217.4725,-78.1654 286.7891,-98.7014 349.1487,-103.44 34.5895,-2.6286 62.8901,-2.3563 62.8901,0.605 0,2.9613 -17.5659,31.5758 -39.0352,63.5879 -21.4694,32.0121 -39.0353,60.9917 -39.0353,64.3988 0,3.4071 -20.3419,11.0748 -45.2041,17.0392 -24.8623,5.9644 -111.7157,33.9528 -193.0077,62.1965 -175.9378,61.1272 -210.0291,68.5588 -313.4897,68.3377 -102.9312,-0.2209 -185.245,-17.7704 -354.7838,-75.6445 -76.3356,-26.0581 -161.2373,-52.7245 -188.6704,-59.2589 l -49.8784,-11.8809 -0.1194,44.7718 c -0.066,24.6245 -2.3503,53.0888 -5.0782,63.2538 -4.5316,16.8869 0.9064,19.7852 63.0086,33.58 37.3826,8.304 133.6012,36.1379 213.8192,61.8532 174.5982,55.9707 282.7454,76.5503 359.2324,68.3594 29.9423,-3.2067 115.8752,-27.3447 191.045,-53.6637 153.9285,-53.8944 265.3678,-89.107 269.5423,-85.1699 1.5404,1.4529 -1.3654,17.646 -6.4576,35.9847 -5.0921,18.3386 -9.34,45.0534 -9.4397,59.3664 -0.099,14.3129 -3.3395,31.0002 -7.1998,37.0828 -12.03,18.9558 -333.158,123.2967 -411.8888,133.8307 -111.2661,14.8873 -226.6613,-4.9918 -436.8279,-75.2522 -93.4184,-31.2305 -185.1386,-59.2273 -203.8226,-62.2149 l -33.9709,-5.4322 2.5723,63.6994 2.5724,63.6996 52.5457,10.6081 c 28.9001,5.8344 119.7678,32.4086 201.9282,59.0539 82.1605,26.6452 187.0461,54.809 233.0792,62.5863 110.3097,18.6367 183.4482,7.7721 340.8617,-50.6347 120.5185,-44.717 195.5025,-70.0767 235.2649,-79.5666 21.3286,-5.0905 23.0431,-3.1466 27.6289,31.3248 2.689,20.2136 7.6051,51.3902 10.9247,69.2813 5.1173,27.5804 3.7066,32.5294 -9.2719,32.5294 -8.419,0 -96.3006,27.4379 -195.2922,60.9732 -226.4905,76.7279 -287.1056,86.2261 -424.087,66.4529 -69.7647,-10.0705 -145.2806,-30.0995 -263.9654,-70.0112 -91.4344,-30.7479 -179.1089,-58.5459 -194.8321,-61.7735 l -28.5879,-5.8682 2.5643,62.4059 2.5644,62.4059 78.0705,19.7142 c 42.9387,10.8427 138.8363,39.3924 213.1056,63.4436 225.1556,72.914 320.3901,76.8617 480.584,19.9213 232.0587,-82.4845 274.9069,-96.132 328.8359,-104.7368 32.8108,-5.2353 60.4964,-8.3886 61.5235,-7.0074 1.0272,1.3813 19.9697,30.8119 42.0945,65.4015 l 40.2269,62.8901 -38.4333,0 c -61.9883,0 -119.5867,14.7011 -311.2828,79.4503 -295.2359,99.7216 -371.0424,99.4708 -679.8011,-2.2492 -87.9574,-28.9774 -161.921,-50.6876 -164.3637,-48.2449 -2.4427,2.4427 26.1215,27.0434 63.4758,54.6683 247.0185,182.6788 571.3915,345.1367 848.8338,425.1272 757.5816,218.4214 1561.6892,100.7758 2220.6721,-324.8971 102.8368,-66.4279 214.9446,-149.6289 209.2662,-155.3073 -2.2179,-2.2178 -75.9974,19.6764 -163.9548,48.6538 -308.9293,101.7762 -384.7585,102.0088 -679.801,2.0855 -170.8376,-57.8583 -243.1573,-76.4633 -316.6749,-81.4681 l -31.6675,-2.1557 40.3419,-62.8861 40.3421,-62.886 34.6979,4.7353 c 70.6446,9.6411 124.4869,25.0132 247.2232,70.5826 179.6892,66.7146 216.1569,75.3058 316.6193,74.5902 92.3999,-0.6582 107.0253,-4.0233 359.992,-82.8291 69.1789,-21.5511 142.3701,-41.9017 162.6468,-45.2235 l 36.8665,-6.0396 0,-64.4616 0,-64.4615 -23.8548,5.4804 c -13.1202,3.0143 -99.4924,30.6569 -191.9382,61.4281 -117.3249,39.0522 -197.0385,60.1272 -263.9655,69.788 -134.9273,19.4767 -196.5566,9.7389 -422.248,-66.7183 -98.9914,-33.5353 -186.3623,-60.9732 -194.1571,-60.9732 -7.7949,0 -14.1725,-4.4293 -14.1725,-9.843 0,-10.2629 19.3173,-123.0037 21.7197,-126.7614 2.6648,-4.168 140.1418,40.5768 255.8645,83.2765 157.5918,58.1486 230.8526,68.9797 340.8616,50.3937 46.0333,-7.7773 150.9189,-35.9411 233.0793,-62.5863 82.1604,-26.6453 173.028,-53.2316 201.9281,-59.081 l 52.5458,-10.6351 0,-60.3307 0,-60.3305 -30.3608,1.6977 c -16.6985,0.9334 -107.544,27.5219 -201.879,59.0834 -211.3961,70.7266 -332.3292,91.4632 -441.0145,75.6222 -58.2825,-8.4948 -353.4651,-100.5426 -400.2153,-124.8005 -9.5898,-4.9762 -15.2583,-18.1466 -15.3924,-35.7639 -0.1195,-15.3377 -4.1555,-44.992 -8.9753,-65.8984 -4.8198,-20.9063 -7.6521,-39.0511 -6.2938,-40.3216 3.8744,-3.6249 119.9405,33.2374 269.2108,85.501 75.1698,26.319 161.1025,50.457 191.045,53.6637 75.5539,8.091 188.9803,-13.0507 348.203,-64.9027 115.5534,-37.6306 171.4734,-53.4595 258.8057,-73.259 22.4101,-5.0807 23.8549,-8.2446 23.8549,-52.2432 0,-58.8073 -5.8942,-74.2774 -28.2993,-74.2774 -9.7726,0 -92.385,25.0299 -183.5829,55.6221 -198.5533,66.6042 -276.6249,83.8018 -381.4504,84.0259 -103.4607,0.2209 -137.552,-7.2105 -313.4898,-68.3375 -81.292,-28.2437 -167.5675,-56.0936 -191.7234,-61.8886 -38.2132,-9.1672 -46.5259,-15.2542 -63.9761,-46.8457 -11.0306,-19.9703 -31.9402,-51.5612 -46.4653,-70.2024 l -26.4095,-33.8929 69.036,4.8193 c 69.6127,4.8594 127.43,21.722 355.2948,103.6227 102.7641,36.9364 105.5346,37.4113 216.8626,37.1704 121.9064,-0.2627 113.0912,1.638 359.9918,-77.6445 64.4081,-20.6821 139.4042,-42.1166 166.6578,-47.6324 47.1004,-9.5323 49.3605,-11.1817 45.6835,-33.3362 -2.1278,-12.8191 -8.0269,-54.5356 -13.1094,-92.7036 -53.6004,-402.5274 -173.4221,-809.2195 -318.1876,-1079.9753 -51.4975,-96.3161 -124.5985,-225.537 -127.5876,-225.537 -1.2937,0 -276.1067,274.2227 -610.694,609.3838 l -608.3404,609.3835 -610.9259,-610.6963 -610.9258,-610.6963 -26.7634,42.5167 z m 349.8265,489.0385 c 12.238,4.653 22.251,12.1334 22.251,16.6232 0,11.1106 -153.7065,84.6385 -202.7471,96.9871 -32.2137,8.1115 -55.6681,7.1203 -126.6835,-5.354 -47.9328,-8.4196 -90.0029,-12.4561 -93.4891,-8.9699 -3.4863,3.4863 6.3187,29.1873 21.7888,57.1136 25.2435,45.5693 28.1273,57.9983 28.1273,121.2276 l 0,70.4525 30.0822,12.5691 c 21.4191,8.9494 65.1355,12.569 151.8037,12.569 111.4304,0 121.7217,1.3196 121.7217,15.6142 0,30.7053 -17.8893,36.4329 -113.794,36.4329 -51.1363,0 -99.1497,2.3694 -106.6963,5.2654 -21.615,8.2944 -18.9181,91.4366 3.6277,111.8403 24.6487,22.3068 21.6362,40.1512 -12.3373,73.0797 -34.9771,33.901 -32.2279,49.1416 11.0318,61.1574 35.4903,9.8575 108.1832,11.8916 116.8066,3.2682 3.0932,-3.0933 -4.832,-24.8352 -17.6116,-48.3155 -19.2622,-35.3912 -21.4648,-45.5269 -12.8805,-59.2727 9.1551,-14.6596 6.5214,-18.5368 -22.7269,-33.4582 -42.6941,-21.7809 -59.6799,-41.5661 -46.769,-54.4771 13.8543,-13.8542 188.5953,-27.1833 209.5245,-15.9824 9.1894,4.918 30.6269,8.9419 47.6389,8.9419 37.1316,0 39.5869,12.5975 12.0166,61.6522 l -18.9144,33.6538 18.9144,20.1335 c 26.1323,27.8164 23.7739,39.5563 -10.8531,54.0245 -42.5791,17.7905 -43.7174,25.416 -8.1683,54.7186 41.5644,34.2608 35.4511,53.4013 -17.0557,53.4013 l -38.187,0 -5.9402,52.5046 c -6.6661,58.9202 -17.4164,68.5588 -54.4045,48.778 -13.3672,-7.1484 -37.5139,-17.9377 -53.6593,-23.9762 -26.1287,-9.7719 -30.6576,-9.1976 -41.2039,5.2252 -6.5167,8.9122 -11.8486,21.3131 -11.8486,27.5577 0,21.2225 -31.1934,11.4583 -60.7215,-19.0069 -34.5888,-35.6867 -39.9766,-36.5752 -67.1251,-11.0704 -17.4112,16.3569 -21.7631,17.3463 -28.6184,6.5059 -4.4466,-7.0316 -8.2044,-22.5434 -8.3505,-34.4708 -0.4203,-34.3131 -11.9587,-45.2314 -44.3647,-41.9809 -28.3087,2.8393 -29.3685,1.8569 -29.3685,-27.2146 0,-26.5047 -4.4685,-32.6289 -36.8666,-50.5283 -37.0705,-20.4807 -44.2359,-30.8388 -28.1922,-40.7545 4.771,-2.9485 8.6745,-11.7483 8.6745,-19.5548 0,-7.8066 10.6873,-25.349 23.7496,-38.983 23.4421,-24.4684 23.5544,-25.1292 8.6745,-51.0561 -8.2913,-14.4467 -15.0711,-30.8299 -15.0663,-36.407 0,-5.5771 19.4985,-21.0863 43.319,-34.4652 23.8207,-13.379 47.3839,-31.9369 52.3628,-41.2402 12.8015,-23.9197 -2.0086,-72.7301 -52.745,-173.8342 -48.1438,-95.9376 -69.5583,-184.4429 -53.2746,-220.1818 9.9354,-21.8058 10.2273,-21.8554 133.7547,-22.7114 68.0887,-0.4717 145.267,-3.8257 171.5074,-7.4531 71.3416,-9.8619 178.0691,-10.1657 203.286,-0.5772 l 0,-4e-4 z m 2299.3073,11.0445 c 0,10.6875 -26.8999,28.1405 -91.0821,59.095 l -91.0823,43.9277 -69.3959,-4.6793 c -38.168,-2.5738 -91.8962,-7.2091 -119.396,-10.3007 -57.2031,-6.4312 -57.0927,-7.0718 -11.8121,68.5448 23.087,38.5543 24.5084,45.9461 19.1988,99.8313 -4.2414,43.0443 -2.6387,62.428 6.157,74.4569 15.6226,21.3649 72.371,30.1381 199.103,30.781 107.2645,0.5433 121.012,6.5786 86.3835,37.917 -12.132,10.9792 -38.3011,14.6049 -119.2743,16.5249 l -103.7324,2.4595 2.892,47.7097 c 1.9843,32.7411 8.3414,53.5765 20.2609,66.4089 19.7919,21.3081 14.955,36.8267 -22.3566,71.7265 -28.523,26.6796 -28.4796,42.1785 0.1393,53.0628 27.5571,10.4771 122.0852,13.9575 131.2117,4.831 3.6213,-3.6215 -4.5457,-26.519 -18.1489,-50.8837 -22.5676,-40.4206 -23.4765,-45.2183 -10.379,-54.7954 12.6248,-9.2314 9.9546,-12.955 -22.1623,-30.9055 -41.4583,-23.1712 -59.536,-45.9101 -46.5731,-58.5811 7.2141,-7.0516 155.0524,-13.2897 243.8667,-10.2902 43.5472,1.4708 50.3602,18.2688 25.3025,62.3838 l -21.4976,37.8472 22.3122,23.289 c 25.8051,26.9347 21.6415,38.7968 -19.6771,56.0609 -35.0142,14.63 -37.3955,30.7706 -6.944,47.0678 12.2968,6.581 26.0089,18.7873 30.4711,27.125 10.5139,19.6455 -14.9238,34.3029 -54.0713,31.1565 -24.53,-1.9723 -28.2149,0.4837 -29.1653,19.4295 -2.7855,55.5354 -5.092,67.1766 -16.3635,82.5909 -9.2503,12.6509 -14.8276,14.2321 -23.8548,6.7633 -6.4799,-5.3611 -31.9812,-17.4135 -56.6696,-26.7831 -47.5142,-18.0319 -63.5437,-13.6157 -63.5437,17.5065 0,31.3834 -26.2744,27.3826 -64.1243,-9.7644 -36.6878,-36.0065 -36.8691,-36.0702 -52.7482,-18.5239 -25.9808,28.7083 -43.5731,22.2891 -52.783,-19.2599 -7.9205,-35.7321 -9.3156,-36.9491 -45.3353,-39.5486 -37.1398,-2.6801 -37.1599,-2.7002 -31.6785,-31.919 5.1565,-27.4858 3.3557,-30.3233 -30.0639,-47.3727 -32.0013,-16.3259 -48.8602,-43.8065 -26.8744,-43.8065 4.771,0 8.6745,-9.8815 8.6745,-21.9585 0,-12.0773 5.9636,-24.2471 13.2527,-27.0441 24.0764,-9.2389 32.2828,-36.0588 17.494,-57.1727 -22.1989,-31.6934 -16.1195,-47.6621 27.8061,-73.0384 22.6623,-13.0924 44.0719,-27.8951 47.5771,-32.8952 14.8682,-21.2094 4.1493,-67.4815 -33.3981,-144.1753 -54.3235,-110.9606 -72.7318,-167.0526 -72.7318,-221.6231 0,-61.9577 11.5927,-67.7123 125.3044,-62.2001 47.9714,2.3254 112.5937,1.4569 143.6051,-1.9325 31.0114,-3.388 101.2748,-5.7214 156.141,-5.1854 88.8184,0.8677 99.7567,2.6375 99.7567,16.1413 z M 5317.471,2836.9402 c 12.8833,6.9819 28.3375,16.0162 34.3428,20.0764 8.1825,5.5319 -3.0011,33.3145 -44.6276,110.8652 l -55.5463,103.4835 -102.8389,32.4394 c -56.5614,17.8414 -105.7104,32.5033 -109.2199,32.5813 -3.5096,0.08 -17.6911,-22.3032 -31.5146,-49.7363 l -25.1335,-49.8785 35.8518,-39.6157 c 65.3887,-72.2533 145.0031,-126.0443 235.3653,-159.0235 19.0839,-6.9651 35.8677,-12.9387 37.2974,-13.2748 1.4296,-0.3364 13.1402,5.1012 26.0235,12.083 l 0,0 z m 357.3924,28.6203 c 33.5462,12.9968 113.2968,74.4842 159.1822,122.729 43.0001,45.2113 49.891,56.7853 45.1217,75.7878 -3.0958,12.3353 -7.9702,34.1342 -10.8318,48.4421 -4.9806,24.9023 -6.7241,25.8035 -40.7845,21.081 -19.57,-2.7133 -71.0723,-13.1311 -114.4496,-23.1505 l -78.8677,-18.2172 -53.4183,-94.8136 c -29.3802,-52.1476 -53.4185,-97.9468 -53.4185,-101.7762 0,-3.8295 16.1179,-19.3505 35.8176,-34.4912 35.2477,-27.0904 36.3175,-27.3145 67.2274,-14.0805 17.2754,7.3964 37.2649,15.7167 44.4215,18.4893 l 0,0 z m -85.2367,470.4809 c 18.3645,54.8663 35.3941,106.066 37.8435,113.7773 3.2071,10.0969 -21.3258,32.7158 -87.6665,80.8266 -50.6661,36.7434 -96.859,68.6246 -102.6511,70.8472 -5.792,2.2226 -54.3581,-27.7013 -107.9243,-66.4975 -83.3657,-60.3789 -96.622,-73.227 -92.0388,-89.2048 2.9449,-10.2666 19.5822,-62.6804 36.9717,-116.4752 l 31.6172,-97.8088 125.2293,2.3893 125.229,2.3893 33.39,99.7566 0,0 z m -570.3229,84.0548 c 36.3967,51.2789 64.1007,98.7786 61.9772,106.2626 -2.112,7.4434 -10.412,57.4481 -18.4444,111.1216 l -14.6045,97.5881 -49.7293,0 -49.7291,0 -26.9584,-58.5529 c -32.1161,-69.7555 -50.4507,-140.4079 -58.1695,-224.1564 l -5.669,-61.5097 41.9456,-31.4779 c 23.0701,-17.3128 44.5598,-31.5963 47.7549,-31.7412 3.1951,-0.1393 35.4269,41.4648 71.6265,92.4658 l 0,0 z m 941.7363,-43.3717 41.5102,23.3342 -4.2347,52.5676 c -6.5592,81.4247 -25.7823,156.2126 -58.1692,226.3098 -30.7334,66.5184 -29.5561,65.5951 -98.1933,77.0092 -33.2819,5.5347 -31.5064,10.5151 -48.2395,-135.3205 l -11.6382,-101.4319 65.6683,-82.865 c 36.1176,-45.5755 67.0448,-82.8811 68.7272,-82.9012 1.6818,-0.017 21.7386,10.464 44.5692,23.2978 l 0,0 z m -425.1599,458.0049 112.3295,56.2884 -32.2143,51.9166 c -30.6836,49.4496 -34.4767,52.3891 -79.8265,61.8623 -48.6207,10.1564 -208.2757,6.7611 -236.5257,-5.0301 -20.5055,-8.5587 -94.2501,-102.3644 -86.4106,-109.9172 5.7241,-5.5147 202.8273,-110.937 208.0255,-111.2641 1.2598,-0.08 52.8409,25.1855 114.6221,56.1441 z"
         id="path2989"
         inkscape:connector-curvature="0" /><path
         style="color:#000000;fill:#ffffff;fill-opacity:1;fill-rule:nonzero;stroke:#ffffff;stroke-width:8.67450047px;stroke-linecap:butt;stroke-linejoin:miter;stroke-miterlimit:4;stroke-opacity:1;stroke-dasharray:none;stroke-dashoffset:0;marker:none;visibility:visible;display:inline;overflow:visible;enable-background:accumulate"
         d="m 5318.5511,363.09127 c -313.276,254.66319 -546.9129,477.65959 -769.9967,734.92903 l -78.9793,91.0823 481.1912,481.4151 481.1912,481.4152 477.1074,-477.0484 c 262.4093,-262.3765 477.1075,-479.9254 477.1075,-483.4417 0,-3.5166 -36.1033,-48.4204 -80.2295,-99.7864 C 6191.9412,958.95046 5900.888,669.45956 5752.9338,541.61596 5643.0985,446.70976 5433.4064,273.51197 5429.1439,274.17752 c -0.826,0.11941 -50.5938,40.1403 -110.5928,88.91375 l 0,0 z m -195.794,606.41549 c 21.2257,33.90904 -40.3159,93.00394 -98.4813,94.56614 -17.7779,0.4776 10.9828,9.271 69.396,21.2177 154.7805,31.656 259.2326,78.4701 408.8397,183.2362 64.1985,44.9567 83.2843,54.9769 72.9903,38.3208 -2.7314,-4.4193 17.5318,-12.7295 45.0292,-18.467 102.3874,-21.3638 141.0774,-11.7166 141.0774,35.1768 0,31.4143 -13.7915,41.5938 -60.8918,44.9446 l -38.8649,2.7651 60.682,24.6706 c 33.375,13.569 76.2937,27.336 95.3745,30.5933 29.2834,4.9991 35.6578,9.9437 40.8828,31.7134 3.7131,15.4699 5.0859,0.9533 3.4308,-36.2741 -3.8374,-86.3077 -21.2117,-110.8486 -131.746,-186.0883 -82.9362,-56.4538 -125.0085,-96.502 -125.0085,-118.9939 0,-18.5008 53.5409,-19.0085 169.9471,-1.6121 124.2611,18.5709 174.1033,17.2207 210.1984,-5.6949 11.0846,-7.0374 47.4997,-37.8903 80.9225,-68.5626 90.3242,-82.89044 107.782,-73.86684 56.1547,29.0255 -45.3771,90.4351 -71.1011,170.1376 -95.9165,297.1837 -14.5213,74.3444 -32.3106,136.3836 -48.935,170.6587 -40.5051,83.5102 -115.7315,138.9328 -217.5706,160.2937 -46.0227,9.6533 -98.8777,4.4876 -90.6299,-8.8577 2.2874,-3.7008 -29.7571,-5.1131 -71.2098,-3.1384 -47.5745,2.2665 -102.809,-1.5564 -149.7778,-10.3657 -82.6897,-15.5094 -100.0258,-16.7199 -70.6846,-4.936 19.488,7.8267 19.322,8.3203 -13.9921,41.6344 -21.2841,21.284 -35.8958,45.3452 -39.6323,65.2627 -3.2553,17.3521 -8.9935,31.5492 -12.7517,31.5492 -3.7581,0 -49.0102,-47.2551 -100.5601,-105.0114 -61.1328,-68.4927 -90.196,-107.1936 -83.573,-111.2868 5.9256,-3.6623 -15.8328,-16.4714 -52.2474,-30.7582 -98.7789,-38.7545 -265.035,-156.9218 -391.3241,-278.1354 -73.5226,-70.5677 -104.2181,-115.9255 -100.4897,-148.4903 2.7685,-24.1822 3.762,-24.601 56.4718,-23.8089 l 53.6536,0.8061 -21.1243,-16.6165 c -22.9762,-18.0731 -27.4278,-42.7127 -10.2811,-56.9066 17.3143,-14.3326 116.3058,-29.168 151.8345,-22.7548 45.2592,8.1698 61.0785,17.812 81.5023,49.6776 l 17.7146,27.6385 -4.8085,-27.4838 c -4.7819,-27.3322 -4.6554,-27.4399 22.9679,-19.5177 38.8863,11.1522 40.9026,10.5231 40.9026,-12.7593 0,-29.2711 24.5951,-55.92074 65.0588,-70.49324 42.7043,-15.3795 73.4048,-13.1966 85.4695,6.0773 z"
         id="path2991"
         inkscape:connector-curvature="0" /><path
         style="color:#000000;fill:#ffffff;fill-opacity:1;fill-rule:nonzero;stroke:#ffffff;stroke-width:8.67450047px;stroke-linecap:butt;stroke-linejoin:miter;stroke-miterlimit:4;stroke-opacity:1;stroke-dasharray:none;stroke-dashoffset:0;marker:none;visibility:visible;display:inline;overflow:visible;enable-background:accumulate"
         d="m 4896.3507,1320.4254 c -20.2636,12.218 -34.6597,25.7469 -31.9914,30.0644 11.5922,18.7566 118.1764,83.2463 206.8308,125.1445 109.4769,51.7391 250.8467,100.2721 365.1244,125.349 134.0164,29.4082 126.8628,18.3916 -21.6862,-33.3973 -203.8872,-71.0817 -307.9707,-126.3058 -416.3121,-220.8857 -30.9763,-27.0416 -58.3009,-49.014 -60.7216,-48.8279 -2.4205,0.1791 -20.9803,10.335 -41.2439,22.553 l 0,0 z"
         id="path2993"
         inkscape:connector-curvature="0" /><path
         style="color:#000000;fill:#ffffff;fill-opacity:1;fill-rule:nonzero;stroke:#ffffff;stroke-width:8.67450047px;stroke-linecap:butt;stroke-linejoin:miter;stroke-miterlimit:4;stroke-opacity:1;stroke-dasharray:none;stroke-dashoffset:0;marker:none;visibility:visible;display:inline;overflow:visible;enable-background:accumulate"
         d="m 4968.0971,4742.5297 c -12.662,87.3864 -45.8293,367.6435 -43.7771,369.9084 1.2266,1.3538 41.9016,4.8782 90.389,7.8322 121.2878,7.3892 139.1699,-3.8158 152.9717,-95.8526 5.6197,-37.4747 4.1805,-41.824 -21.9026,-66.1892 -23.6601,-22.1018 -25.3369,-26.0789 -10.9956,-26.0789 30.6002,0 45.2442,-28.7114 57.8852,-113.4909 6.6989,-44.9269 11.5622,-82.2199 10.8075,-82.8732 -0.7547,-0.6532 -21.4567,-3.8909 -46.0045,-7.1948 l -44.6324,-6.0071 -5.7272,46.2301 c -13.28,107.196 -22.3153,137.3124 -41.1953,137.3124 -16.2324,0 -17.387,-3.7372 -12.7301,-41.2039 18.6463,-150.0152 18.6591,-149.6351 -5.0189,-149.6351 -11.9473,0 -33.6176,-2.3791 -48.1563,-5.2868 -25.6679,-5.1336 -26.5927,-4.1909 -31.9134,32.5294 l 0,0 z m 108.2257,259.3182 c 0,44.1751 -7.2461,60.4192 -26.9516,60.4192 -17.6697,0 -21.375,-25.1077 -11.2076,-75.945 4.0524,-20.2616 8.8818,-25.1073 21.6863,-21.7588 12.5367,3.2784 16.4729,12.1876 16.4729,37.2846 z"
         id="path2995"
         inkscape:connector-curvature="0" /><path
         style="color:#000000;fill:#ffffff;fill-opacity:1;fill-rule:nonzero;stroke:#ffffff;stroke-width:8.67450047px;stroke-linecap:butt;stroke-linejoin:miter;stroke-miterlimit:4;stroke-opacity:1;stroke-dasharray:none;stroke-dashoffset:0;marker:none;visibility:visible;display:inline;overflow:visible;enable-background:accumulate"
         d="m 3970.1412,4319.6831 c -31.0563,13.5317 -52.5236,40.8384 -124.0975,157.8536 -59.0914,96.6078 -65.4556,127.0309 -36.5059,174.5104 32.8727,53.9133 123.2703,81.291 169.1511,51.2288 20.041,-13.1314 78.9824,-90.7028 72.7103,-95.6924 -15.0654,-11.9848 -73.2321,-48.4374 -77.2907,-48.4374 -2.86,0 -17.8469,19.5176 -33.3044,43.3725 -30.5819,47.196 -61.596,59.2217 -61.5211,23.8549 0.066,-31.0726 136.4974,-240.7174 156.6528,-240.7174 22.3561,0 22.0937,30.8632 -0.5531,65.0587 -9.4791,14.3129 -17.2604,29.9555 -17.2918,34.7612 -0.032,4.8057 17.3201,19.2339 38.559,32.0627 l 38.6162,23.325 18.9135,-30.6026 c 45.9075,-74.28 24.6518,-144.2464 -55.1024,-181.3779 -52.201,-24.3035 -53.8751,-24.4767 -88.936,-9.2001 l 0,0 z"
         id="path2997"
         inkscape:connector-curvature="0" /><path
         style="color:#000000;fill:#ffffff;fill-opacity:1;fill-rule:nonzero;stroke:#ffffff;stroke-width:8.67450047px;stroke-linecap:butt;stroke-linejoin:miter;stroke-miterlimit:4;stroke-opacity:1;stroke-dasharray:none;stroke-dashoffset:0;marker:none;visibility:visible;display:inline;overflow:visible;enable-background:accumulate"
         d="m 4236.4821,4490.0094 c -22.9537,13.9944 -40.4145,41.5187 -86.3113,136.0561 -62.1163,127.9464 -68.6689,160.5788 -40.1133,199.7663 20.5418,28.1899 84.5578,62.9589 115.8336,62.9129 50.0707,-0.074 75.4459,-28.4868 135.6058,-151.8401 77.6783,-159.2733 75.389,-199.3055 -14.0094,-244.9859 -47.1531,-24.094 -73.8643,-24.5535 -111.0054,-1.9092 l 0,0 z m 91.5105,74.1534 c 2.9997,24.8259 -112.1488,250.881 -127.7944,250.881 -26.1247,0 -16.9328,-37.5119 35.1373,-143.3936 29.2566,-59.4918 57.3263,-113.1763 62.3772,-119.2989 12.2648,-14.8672 27.7881,-8.812 30.2799,11.8115 z"
         id="path2999"
         inkscape:connector-curvature="0" /><path
         style="color:#000000;fill:#ffffff;fill-opacity:1;fill-rule:nonzero;stroke:#ffffff;stroke-width:8.67450047px;stroke-linecap:butt;stroke-linejoin:miter;stroke-miterlimit:4;stroke-opacity:1;stroke-dasharray:none;stroke-dashoffset:0;marker:none;visibility:visible;display:inline;overflow:visible;enable-background:accumulate"
         d="m 4462.1131,4756.0755 c -33.9423,99.2262 -62.8439,185.7357 -64.2259,192.2431 -1.5713,7.3994 14.2995,17.6784 42.3655,27.4386 l 44.8782,15.6067 54.0794,-155.984 c 58.2295,-167.9545 53.3745,-161.4349 105.362,-141.4854 8.3884,3.2189 15.4245,-5.6038 22.2782,-27.9353 5.5097,-17.952 7.1862,-35.1836 3.7255,-38.2923 -3.4606,-3.1087 -33.6166,-14.5135 -67.0135,-25.344 -33.3968,-10.8306 -64.9998,-21.2594 -70.2288,-23.1753 -5.6081,-2.0548 -34.818,70.5092 -71.2206,176.9279 l 0,0 z"
         id="path3001"
         inkscape:connector-curvature="0" /><path
         style="color:#000000;fill:#ffffff;fill-opacity:1;fill-rule:nonzero;stroke:#ffffff;stroke-width:8.67450047px;stroke-linecap:butt;stroke-linejoin:miter;stroke-miterlimit:4;stroke-opacity:1;stroke-dasharray:none;stroke-dashoffset:0;marker:none;visibility:visible;display:inline;overflow:visible;enable-background:accumulate"
         d="m 4733.9126,4656.1361 c -2.2106,6.2927 -25.0023,95.7217 -50.6483,198.7311 l -46.6292,187.2899 81.5639,19.6632 c 44.8602,10.8148 82.877,18.2671 84.4818,16.5609 1.605,-1.7063 6.8841,-17.6285 11.7317,-35.3827 8.8041,-32.2447 8.7803,-32.2867 -21.4715,-37.9619 -36.7033,-6.8856 -41.5488,-17.2394 -29.3204,-62.6521 9.2267,-34.2652 9.9657,-34.7975 37.3886,-26.9328 39.0764,11.207 38.0396,11.7748 47.6514,-26.0929 l 8.6597,-34.1163 -33.628,-5.6814 c -18.4954,-3.1248 -33.5527,-8.266 -33.4607,-11.4248 0.6236,-21.4068 24.8229,-92.2263 31.1232,-91.0826 4.2596,0.7732 21.8245,4.0305 39.033,7.2385 30.8182,5.7449 31.4231,5.3014 40.2611,-29.5176 l 8.9728,-35.35 -31.5866,-8.1711 c -17.3726,-4.494 -49.1524,-12.5697 -70.6218,-17.9458 -21.4694,-5.3761 -45.8857,-11.7633 -54.2584,-14.1938 -8.3727,-2.4305 -17.0317,0.7294 -19.2423,7.0222 l 0,0 z"
         id="path3003"
         inkscape:connector-curvature="0" /><path
         style="color:#000000;fill:#ffffff;fill-opacity:1;fill-rule:nonzero;stroke:#ffffff;stroke-width:8.67450047px;stroke-linecap:butt;stroke-linejoin:miter;stroke-miterlimit:4;stroke-opacity:1;stroke-dasharray:none;stroke-dashoffset:0;marker:none;visibility:visible;display:inline;overflow:visible;enable-background:accumulate"
         d="m 5259.1151,4769.5027 c 0.3453,15.5057 11.1885,106.2627 24.096,201.6822 l 23.4683,173.49 75.6608,2.5063 c 41.6133,1.3785 75.6606,-0.9382 75.6606,-5.1482 0,-8.1803 48.857,-336.8792 56.0168,-376.8675 4.2681,-23.8385 4.2352,-23.8549 -47.559,-23.8549 l -51.8303,0 0,34.698 c 0,32.7703 -1.4449,34.698 -26.0234,34.698 -21.7408,0 -26.0236,-3.4522 -26.0236,-20.9768 0,-41.9836 -7.6175,-48.4192 -57.3123,-48.4192 l -46.7817,0 0.6278,28.1921 z m 141.7199,186.5018 c -8.9912,113.2931 -16.427,120.0685 -28.0423,25.552 -13.1421,-106.9396 -13.787,-101.4539 11.9274,-101.4539 l 22.1388,0 -6.0239,75.9019 z"
         id="path3005"
         inkscape:connector-curvature="0" /><path
         style="color:#000000;fill:#ffffff;fill-opacity:1;fill-rule:nonzero;stroke:#ffffff;stroke-width:8.67450047px;stroke-linecap:butt;stroke-linejoin:miter;stroke-miterlimit:4;stroke-opacity:1;stroke-dasharray:none;stroke-dashoffset:0;marker:none;visibility:visible;display:inline;overflow:visible;enable-background:accumulate"
         d="m 5603.2987,4730.2807 -32.5293,3.4027 0.3244,40.6802 c 0.2368,29.652 21.3883,335.3138 25.2591,365.0137 0.6011,4.6088 88.4682,-6.1057 93.8005,-11.438 3.8999,-3.8998 -8.2212,-203.7967 -20.9455,-345.4248 -4.2162,-46.9296 -8.0514,-58.2634 -19.32,-57.0947 -7.7328,0.8021 -28.6978,2.9894 -46.589,4.8609 z"
         id="path3007"
         inkscape:connector-curvature="0" /><path
         style="color:#000000;fill:#ffffff;fill-opacity:1;fill-rule:nonzero;stroke:#ffffff;stroke-width:8.67450047px;stroke-linecap:butt;stroke-linejoin:miter;stroke-miterlimit:4;stroke-opacity:1;stroke-dasharray:none;stroke-dashoffset:0;marker:none;visibility:visible;display:inline;overflow:visible;enable-background:accumulate"
         d="m 5922.1149,4678.3343 c -14.2974,2.1011 -28.557,7.9652 -31.6881,13.0314 -3.1311,5.0661 -8.4465,47.6839 -11.812,94.7062 -3.3657,47.0223 -8.9747,87.2598 -12.4644,89.4166 -3.4899,2.1569 -13.5148,-35.1536 -22.2775,-82.912 -8.7629,-47.7585 -18.3862,-88.3501 -21.3851,-90.2036 -5.4941,-3.3955 -68.5972,8.8794 -73.6386,14.3243 -2.3087,2.4936 34.0886,198.3119 65.5396,352.6058 9.3297,45.7699 9.5708,46.0351 36.8582,40.5563 56.6873,-11.3817 55.2806,-9.6447 61.5612,-76.0205 14.3078,-151.2134 19.4064,-154.3556 43.6541,-26.9025 l 15.0531,79.1239 35.7596,-8.0346 c 19.6677,-4.4191 37.2773,-9.5523 39.1322,-11.4073 1.8549,-1.8549 -13.4907,-91.4222 -34.1016,-199.0382 -30.0107,-156.6956 -40.1354,-195.4067 -50.835,-194.3658 -7.3482,0.7149 -25.0583,3.0188 -39.3557,5.12 l 0,0 z"
         id="path3009"
         inkscape:connector-curvature="0" /><path
         style="color:#000000;fill:#ffffff;fill-opacity:1;fill-rule:nonzero;stroke:#ffffff;stroke-width:8.67450047px;stroke-linecap:butt;stroke-linejoin:miter;stroke-miterlimit:4;stroke-opacity:1;stroke-dasharray:none;stroke-dashoffset:0;marker:none;visibility:visible;display:inline;overflow:visible;enable-background:accumulate"
         d="m 6130.2747,4625.9013 c -42.9388,12.007 -79.2564,22.9278 -80.7059,24.2686 -1.449,1.3408 16.7468,74.1176 40.436,161.7263 23.6894,87.6088 47.3632,175.4778 52.6083,195.2645 l 9.5369,35.9759 80.1445,-21.7692 c 44.0796,-11.973 81.3911,-22.9027 82.9145,-24.2882 1.5225,-1.3854 -1.9087,-18.1343 -7.6267,-37.2196 -10.0116,-33.4155 -11.3227,-34.3777 -35.4076,-25.9816 -35.2322,12.282 -47.0147,4.9404 -57.3372,-35.7264 -9.9113,-39.0479 -9.6338,-39.5004 29.335,-47.8506 26.9254,-5.7696 27.0787,-6.1102 18.3012,-40.6904 -9.1689,-36.1225 -14.6086,-37.8838 -61.4677,-19.9024 -9.7976,3.7597 -15.5568,-3.6358 -21.9252,-28.1551 -16.8581,-64.9059 -16.5293,-66.3124 17.7996,-76.1539 17.5493,-5.031 32.805,-11.0991 33.9017,-13.4846 4.0203,-8.7459 -10.4019,-69.3718 -16.3241,-68.6201 -3.3622,0.4267 -41.2445,10.5998 -84.1833,22.6068 z"
         id="path3011"
         inkscape:connector-curvature="0" /><path
         style="color:#000000;fill:#ffffff;fill-opacity:1;fill-rule:nonzero;stroke:#ffffff;stroke-width:8.67450047px;stroke-linecap:butt;stroke-linejoin:miter;stroke-miterlimit:4;stroke-opacity:1;stroke-dasharray:none;stroke-dashoffset:0;marker:none;visibility:visible;display:inline;overflow:visible;enable-background:accumulate"
         d="m 6436.4925,4518.0538 -40.7623,19.406 76.9792,180.7921 c 42.3387,99.4356 78.7033,182.5159 80.8102,184.6228 2.1069,2.1069 39.2549,-10.6326 82.5509,-28.31 l 78.7205,-32.1407 -12.7829,-30.5935 c -16.7223,-40.0223 -14.1608,-38.8717 -51.6577,-23.2045 -17.9465,7.4986 -33.5725,12.6067 -34.724,11.3513 -4.4849,-4.8894 -29.9404,-69.8469 -29.9404,-76.4023 0,-3.8184 13.2949,-11.3302 29.5443,-16.693 l 29.5444,-9.7505 -14.1145,-33.0502 c -14.0894,-32.9917 -14.1643,-33.0294 -42.2775,-21.283 -15.4897,6.472 -29.8468,11.7673 -31.905,11.7673 -2.0581,0 -18.6182,-35.1317 -36.8002,-78.0705 -18.1822,-42.9388 -35.1653,-78.0203 -37.7407,-77.9589 -2.5752,0.062 -23.0251,8.8443 -45.4443,19.5176 l 0,0 z"
         id="path3013"
         inkscape:connector-curvature="0" /><path
         style="color:#000000;fill:#ffffff;fill-opacity:1;fill-rule:nonzero;stroke:#ffffff;stroke-width:8.67450047px;stroke-linecap:butt;stroke-linejoin:miter;stroke-miterlimit:4;stroke-opacity:1;stroke-dasharray:none;stroke-dashoffset:0;marker:none;visibility:visible;display:inline;overflow:visible;enable-background:accumulate"
         d="m 6803.7182,4326.7998 c -43.5464,21.1025 -70.4865,59.3806 -70.5333,100.2179 -0.02,17.7501 19.2004,65.3566 51.4074,127.3273 67.3547,129.6 74.3269,139.5518 109.4488,156.2182 67.6556,32.1046 177.4169,-35.1427 177.4169,-108.6977 0,-10.3751 -10.2393,-41.6801 -22.7542,-69.5667 l -22.754,-50.7029 -40.136,22.9698 c -22.0749,12.6335 -41.3744,23.8388 -42.8878,24.9008 -1.5146,1.062 7.5353,22.2319 20.1086,47.0442 24.4178,48.1861 23.5618,69.3804 -2.8021,69.3804 -12.1177,0 -32.5646,-30.3175 -78.979,-117.1049 -62.221,-116.3429 -70.1968,-144.6919 -42.2241,-150.079 9.8508,-1.8971 22.5986,11.2023 39.2146,40.2958 l 24.6193,43.1067 34.4189,-20.8307 c 18.9305,-11.4568 38.1353,-22.0906 42.6777,-23.6306 14.2033,-4.8156 -38.0089,-83.2781 -64.5494,-97.0028 -34.033,-17.5991 -66.3502,-15.8184 -111.6923,6.1542 l 0,0 z"
         id="path3015"
         inkscape:connector-curvature="0" /><path
         style="color:#000000;fill:#ffffff;fill-opacity:1;fill-rule:nonzero;stroke:#ffffff;stroke-width:8.67450047px;stroke-linecap:butt;stroke-linejoin:miter;stroke-miterlimit:4;stroke-opacity:1;stroke-dasharray:none;stroke-dashoffset:0;marker:none;visibility:visible;display:inline;overflow:visible;enable-background:accumulate"
         d="m 6601.5354,4442.3141 c -22.9634,12.4702 -23.059,12.9147 -9.9408,46.3102 l 13.2454,33.7191 33.3832,-13.1133 33.3832,-13.1132 -17.1131,-33.5442 c -19.1039,-37.4465 -20.3963,-37.941 -52.9579,-20.2586 z"
         id="path3017"
         inkscape:connector-curvature="0" /><path
         style="color:#000000;fill:#ffffff;fill-opacity:1;fill-rule:nonzero;stroke:#ffffff;stroke-width:8.67450047px;stroke-linecap:butt;stroke-linejoin:miter;stroke-miterlimit:4;stroke-opacity:1;stroke-dasharray:none;stroke-dashoffset:0;marker:none;visibility:visible;display:inline;overflow:visible;enable-background:accumulate"
         d="m 6999.8276,4220.6453 c -34.8561,21.543 -34.7871,21.2892 -14.9595,54.8942 l 18.209,30.862 29.9837,-17.6907 29.9834,-17.6908 -18.9857,-31.5956 c -10.4423,-17.3776 -19.2838,-32.0383 -19.648,-32.5795 -0.3642,-0.5411 -11.4265,5.6691 -24.5829,13.8004 z"
         id="path3019"
         inkscape:connector-curvature="0" /><path
         style="color:#000000;fill:#ffffff;fill-opacity:1;fill-rule:nonzero;stroke:#ffffff;stroke-width:8.67450047px;stroke-linecap:butt;stroke-linejoin:miter;stroke-miterlimit:4;stroke-opacity:1;stroke-dasharray:none;stroke-dashoffset:0;marker:none;visibility:visible;display:inline;overflow:visible;enable-background:accumulate"
         d="m 4755.3663,1232.4751 c 0,7.2288 7.7107,13.0117 17.349,13.0117 9.6383,0 17.349,-5.7829 17.349,-13.0117 0,-7.2288 -7.7107,-13.0117 -17.349,-13.0117 -9.6383,0 -17.349,5.7829 -17.349,13.0117 z"
         id="path3021"
         inkscape:connector-curvature="0" /></g></g></svg>