<?xml version="1.0" encoding="UTF-8" standalone="no"?>
<!-- Created with Inkscape (http://www.inkscape.org/) -->

<svg
   xmlns:dc="http://purl.org/dc/elements/1.1/"
   xmlns:cc="http://creativecommons.org/ns#"
   xmlns:rdf="http://www.w3.org/1999/02/22-rdf-syntax-ns#"
   xmlns:svg="http://www.w3.org/2000/svg"
   xmlns="http://www.w3.org/2000/svg"
   xmlns:sodipodi="http://sodipodi.sourceforge.net/DTD/sodipodi-0.dtd"
   xmlns:inkscape="http://www.inkscape.org/namespaces/inkscape"
   width="241.27849"
   height="91.729935"
   viewBox="0 0 241.27849 91.729938"
   id="svg6434"
   version="1.1"
   inkscape:version="0.91 r13725"
   sodipodi:docname="NIFL Premiership.svg">
  <defs
     id="defs6436">
    <linearGradient
       x1="0"
       y1="0"
       x2="1"
       y2="0"
       gradientUnits="userSpaceOnUse"
       gradientTransform="matrix(16.776993,-29.409013,-29.409013,-16.776993,499.33433,91.958804)"
       spreadMethod="pad"
       id="linearGradient1646">
      <stop
         style="stop-opacity:1;stop-color:#00aae7"
         offset="0"
         id="stop1648" />
      <stop
         style="stop-opacity:1;stop-color:#001641"
         offset="0.982123"
         id="stop1650" />
      <stop
         style="stop-opacity:1;stop-color:#001641"
         offset="1"
         id="stop1652" />
    </linearGradient>
    <linearGradient
       x1="0"
       y1="0"
       x2="1"
       y2="0"
       gradientUnits="userSpaceOnUse"
       gradientTransform="matrix(16.776973,-29.409013,-29.409013,-16.776973,475.28502,78.239301)"
       spreadMethod="pad"
       id="linearGradient1624">
      <stop
         style="stop-opacity:1;stop-color:#00aae7"
         offset="0"
         id="stop1626" />
      <stop
         style="stop-opacity:1;stop-color:#001641"
         offset="0.982123"
         id="stop1628" />
      <stop
         style="stop-opacity:1;stop-color:#001641"
         offset="1"
         id="stop1630" />
    </linearGradient>
    <linearGradient
       x1="0"
       y1="0"
       x2="1"
       y2="0"
       gradientUnits="userSpaceOnUse"
       gradientTransform="matrix(16.777032,-29.409013,-29.409013,-16.777032,477.69863,79.616192)"
       spreadMethod="pad"
       id="linearGradient1602">
      <stop
         style="stop-opacity:1;stop-color:#00aae7"
         offset="0"
         id="stop1604" />
      <stop
         style="stop-opacity:1;stop-color:#001641"
         offset="0.982123"
         id="stop1606" />
      <stop
         style="stop-opacity:1;stop-color:#001641"
         offset="1"
         id="stop1608" />
    </linearGradient>
    <linearGradient
       x1="0"
       y1="0"
       x2="1"
       y2="0"
       gradientUnits="userSpaceOnUse"
       gradientTransform="matrix(51.51255,-15.09845,-15.09845,-51.51255,496.71041,77.082837)"
       spreadMethod="pad"
       id="linearGradient1580">
      <stop
         style="stop-opacity:1;stop-color:#00aae7"
         offset="0"
         id="stop1582" />
      <stop
         style="stop-opacity:1;stop-color:#001641"
         offset="0.982123"
         id="stop1584" />
      <stop
         style="stop-opacity:1;stop-color:#001641"
         offset="1"
         id="stop1586" />
    </linearGradient>
    <linearGradient
       x1="0"
       y1="0"
       x2="1"
       y2="0"
       gradientUnits="userSpaceOnUse"
       gradientTransform="matrix(51.51255,-15.098489,-15.098489,-51.51255,496.45284,76.203862)"
       spreadMethod="pad"
       id="linearGradient1558">
      <stop
         style="stop-opacity:1;stop-color:#00aae7"
         offset="0"
         id="stop1560" />
      <stop
         style="stop-opacity:1;stop-color:#001641"
         offset="0.982123"
         id="stop1562" />
      <stop
         style="stop-opacity:1;stop-color:#001641"
         offset="1"
         id="stop1564" />
    </linearGradient>
    <linearGradient
       x1="0"
       y1="0"
       x2="1"
       y2="0"
       gradientUnits="userSpaceOnUse"
       gradientTransform="matrix(51.51255,-15.098469,-15.098469,-51.51255,496.09815,74.994482)"
       spreadMethod="pad"
       id="linearGradient1536">
      <stop
         style="stop-opacity:1;stop-color:#00aae7"
         offset="0"
         id="stop1538" />
      <stop
         style="stop-opacity:1;stop-color:#001641"
         offset="0.982123"
         id="stop1540" />
      <stop
         style="stop-opacity:1;stop-color:#001641"
         offset="1"
         id="stop1542" />
    </linearGradient>
    <linearGradient
       x1="0"
       y1="0"
       x2="1"
       y2="0"
       gradientUnits="userSpaceOnUse"
       gradientTransform="matrix(51.51255,-15.09845,-15.09845,-51.51255,495.64103,73.43466)"
       spreadMethod="pad"
       id="linearGradient1514">
      <stop
         style="stop-opacity:1;stop-color:#00aae7"
         offset="0"
         id="stop1516" />
      <stop
         style="stop-opacity:1;stop-color:#001641"
         offset="0.982123"
         id="stop1518" />
      <stop
         style="stop-opacity:1;stop-color:#001641"
         offset="1"
         id="stop1520" />
    </linearGradient>
    <linearGradient
       x1="0"
       y1="0"
       x2="1"
       y2="0"
       gradientUnits="userSpaceOnUse"
       gradientTransform="matrix(51.51255,-15.09845,-15.09845,-51.51255,495.12627,71.678449)"
       spreadMethod="pad"
       id="linearGradient1492">
      <stop
         style="stop-opacity:1;stop-color:#00aae7"
         offset="0"
         id="stop1494" />
      <stop
         style="stop-opacity:1;stop-color:#001641"
         offset="0.982123"
         id="stop1496" />
      <stop
         style="stop-opacity:1;stop-color:#001641"
         offset="1"
         id="stop1498" />
    </linearGradient>
    <linearGradient
       x1="0"
       y1="0"
       x2="1"
       y2="0"
       gradientUnits="userSpaceOnUse"
       gradientTransform="matrix(51.51255,-15.098469,-15.098469,-51.51255,494.7931,70.541423)"
       spreadMethod="pad"
       id="linearGradient1470">
      <stop
         style="stop-opacity:1;stop-color:#00aae7"
         offset="0"
         id="stop1472" />
      <stop
         style="stop-opacity:1;stop-color:#001641"
         offset="0.982123"
         id="stop1474" />
      <stop
         style="stop-opacity:1;stop-color:#001641"
         offset="1"
         id="stop1476" />
    </linearGradient>
    <linearGradient
       x1="0"
       y1="0"
       x2="1"
       y2="0"
       gradientUnits="userSpaceOnUse"
       gradientTransform="matrix(51.51255,-15.098489,-15.098489,-51.51255,494.50769,69.56806)"
       spreadMethod="pad"
       id="linearGradient1448">
      <stop
         style="stop-opacity:1;stop-color:#00aae7"
         offset="0"
         id="stop1450" />
      <stop
         style="stop-opacity:1;stop-color:#001641"
         offset="0.982123"
         id="stop1452" />
      <stop
         style="stop-opacity:1;stop-color:#001641"
         offset="1"
         id="stop1454" />
    </linearGradient>
    <linearGradient
       x1="0"
       y1="0"
       x2="1"
       y2="0"
       gradientUnits="userSpaceOnUse"
       gradientTransform="matrix(51.51255,-15.09845,-15.09845,-51.51255,494.09459,68.158389)"
       spreadMethod="pad"
       id="linearGradient1426">
      <stop
         style="stop-opacity:1;stop-color:#00aae7"
         offset="0"
         id="stop1428" />
      <stop
         style="stop-opacity:1;stop-color:#001641"
         offset="0.982123"
         id="stop1430" />
      <stop
         style="stop-opacity:1;stop-color:#001641"
         offset="1"
         id="stop1432" />
    </linearGradient>
    <linearGradient
       x1="0"
       y1="0"
       x2="1"
       y2="0"
       gradientUnits="userSpaceOnUse"
       gradientTransform="matrix(51.51255,-15.098469,-15.098469,-51.51255,493.6049,66.487404)"
       spreadMethod="pad"
       id="linearGradient1404">
      <stop
         style="stop-opacity:1;stop-color:#00aae7"
         offset="0"
         id="stop1406" />
      <stop
         style="stop-opacity:1;stop-color:#001641"
         offset="0.982123"
         id="stop1408" />
      <stop
         style="stop-opacity:1;stop-color:#001641"
         offset="1"
         id="stop1410" />
    </linearGradient>
    <linearGradient
       x1="0"
       y1="0"
       x2="1"
       y2="0"
       gradientUnits="userSpaceOnUse"
       gradientTransform="matrix(51.51255,-15.09845,-15.09845,-51.51255,493.10613,64.786025)"
       spreadMethod="pad"
       id="linearGradient1382">
      <stop
         style="stop-opacity:1;stop-color:#00aae7"
         offset="0"
         id="stop1384" />
      <stop
         style="stop-opacity:1;stop-color:#001641"
         offset="0.982123"
         id="stop1386" />
      <stop
         style="stop-opacity:1;stop-color:#001641"
         offset="1"
         id="stop1388" />
    </linearGradient>
    <linearGradient
       x1="0"
       y1="0"
       x2="1"
       y2="0"
       gradientUnits="userSpaceOnUse"
       gradientTransform="matrix(51.51255,-15.09845,-15.09845,-51.51255,492.65868,63.259909)"
       spreadMethod="pad"
       id="linearGradient1360">
      <stop
         style="stop-opacity:1;stop-color:#00aae7"
         offset="0"
         id="stop1362" />
      <stop
         style="stop-opacity:1;stop-color:#001641"
         offset="0.982123"
         id="stop1364" />
      <stop
         style="stop-opacity:1;stop-color:#001641"
         offset="1"
         id="stop1366" />
    </linearGradient>
    <clipPath
       clipPathUnits="userSpaceOnUse"
       id="clipPath1312">
      <path
         d="m 462.089,57.637 93.869,0 0,30.622 -93.869,0 0,-30.622 z"
         id="path1314"
         inkscape:connector-curvature="0" />
    </clipPath>
    <clipPath
       clipPathUnits="userSpaceOnUse"
       id="clipPath1298">
      <path
         d="m 468.751,57.637 80.545,0 0,30.622 -80.545,0 0,-30.622 z"
         id="path1300"
         inkscape:connector-curvature="0" />
    </clipPath>
  </defs>
  <sodipodi:namedview
     id="base"
     pagecolor="#ffffff"
     bordercolor="#666666"
     borderopacity="1.0"
     inkscape:pageopacity="0.0"
     inkscape:pageshadow="2"
     inkscape:zoom="2.8"
     inkscape:cx="143.71558"
     inkscape:cy="34.612596"
     inkscape:document-units="px"
     inkscape:current-layer="layer1"
     showgrid="false"
     fit-margin-top="0"
     fit-margin-left="0"
     fit-margin-right="0"
     fit-margin-bottom="0"
     units="px"
     inkscape:window-width="1366"
     inkscape:window-height="705"
     inkscape:window-x="-8"
     inkscape:window-y="-8"
     inkscape:window-maximized="1" />
  <metadata
     id="metadata6439">
    <rdf:RDF>
      <cc:Work
         rdf:about="">
        <dc:format>image/svg+xml</dc:format>
        <dc:type
           rdf:resource="http://purl.org/dc/dcmitype/StillImage" />
        <dc:title></dc:title>
      </cc:Work>
    </rdf:RDF>
  </metadata>
  <g
     inkscape:label="Layer 1"
     inkscape:groupmode="layer"
     id="layer1"
     transform="translate(-148.49249,134.15861)">
    <g
       transform="matrix(2.9955763,0,0,-2.9955763,-1255.6869,130.22796)"
       id="g1294">
      <g
         id="g1296"
         clip-path="url(#clipPath1298)">
        <g
           id="g1302"
           transform="translate(548.5567,79.4982)">
          <path
             d="m 0,0 c -0.634,0.769 -1.567,1.193 -2.627,1.193 l -62.591,0 c -0.004,0.071 -0.006,0.138 -10e-4,0.198 0.006,0.061 0.012,0.12 0.018,0.179 0.017,0.156 0.034,0.318 0.034,0.492 0.001,0.289 -0.027,0.532 -0.086,0.743 -0.11,0.392 -0.324,0.737 -0.622,1.01 0.095,0.095 0.17,0.209 0.218,0.338 0.076,0.203 0.058,0.383 0.046,0.485 0,0.023 0,0.045 0.001,0.067 l 0,0.006 c 0.109,0.098 0.237,0.251 0.315,0.485 0.009,0.027 0.016,0.052 0.022,0.076 0.055,0.025 0.112,0.056 0.171,0.095 0.094,0.063 0.172,0.143 0.229,0.234 0.066,0.07 0.12,0.152 0.159,0.247 0.051,0.123 0.068,0.253 0.055,0.379 0.031,0.15 0.02,0.304 -0.034,0.452 -0.064,0.17 -0.18,0.311 -0.33,0.407 -0.025,0.069 -0.057,0.134 -0.09,0.195 -0.021,0.084 -0.057,0.166 -0.106,0.242 -0.072,0.109 -0.138,0.193 -0.198,0.261 -0.119,0.172 -0.288,0.313 -0.463,0.426 -0.055,0.058 -0.12,0.108 -0.193,0.149 -0.088,0.048 -0.247,0.13 -0.439,0.2 -0.21,0.126 -0.469,0.188 -0.722,0.189 -0.066,0.012 -0.135,0.017 -0.206,0.011 -0.06,-0.004 -0.14,-0.01 -0.23,-0.03 -0.18,0.015 -0.357,-0.014 -0.505,-0.066 C -68.229,8.644 -68.28,8.619 -68.328,8.589 -68.376,8.57 -68.425,8.548 -68.475,8.523 -68.511,8.504 -68.545,8.483 -68.577,8.46 -68.659,8.422 -68.74,8.377 -68.815,8.323 -68.897,8.265 -68.963,8.195 -69.016,8.117 -69.081,8.06 -69.151,7.991 -69.227,7.909 -69.31,7.819 -69.368,7.714 -69.401,7.603 -69.52,7.399 -69.605,7.166 -69.65,6.922 -69.68,6.762 -69.677,6.611 -69.675,6.501 l 10e-4,-0.032 c 0.001,-0.034 0.003,-0.068 0.005,-0.102 -0.006,-0.052 -0.01,-0.102 -0.013,-0.151 -0.004,-0.043 -0.006,-0.088 -0.009,-0.134 -0.003,-0.066 -0.007,-0.138 -0.015,-0.192 -0.028,-0.059 -0.049,-0.121 -0.062,-0.186 -0.016,-0.033 -0.042,-0.079 -0.068,-0.122 -0.08,-0.061 -0.257,-0.163 -0.407,-0.233 -0.103,-0.015 -0.205,-0.028 -0.271,-0.035 -0.017,0 -0.033,0 -0.049,-0.001 -0.458,0.093 -1.021,0.004 -1.09,-0.008 -0.456,-0.076 -0.8,-0.268 -1.207,-0.552 -0.068,-0.047 -0.133,-0.096 -0.199,-0.146 -0.082,-0.062 -0.16,-0.12 -0.227,-0.161 -0.15,-0.09 -0.297,-0.173 -0.476,-0.267 C -73.803,4.161 -73.88,4.128 -73.964,4.07 -74.079,3.992 -74.178,3.905 -74.259,3.809 -74.289,3.802 -74.318,3.794 -74.349,3.785 -74.43,3.768 -74.51,3.753 -74.59,3.738 -74.783,3.701 -75.001,3.66 -75.223,3.591 -75.492,3.508 -75.748,3.4 -75.995,3.296 c -0.13,-0.054 -0.261,-0.109 -0.393,-0.16 -0.495,-0.19 -0.903,-0.323 -1.284,-0.419 -0.051,-0.013 -0.101,-0.028 -0.151,-0.043 -0.028,-0.009 -0.057,-0.019 -0.086,-0.025 -0.037,-0.008 -0.084,-0.013 -0.132,-0.014 l -0.048,0 c -0.088,0 -0.222,0.001 -0.373,-0.035 -0.024,-0.005 -0.046,-0.012 -0.066,-0.018 -0.017,-0.002 -0.034,-0.004 -0.05,-0.007 -0.059,-0.01 -0.116,-0.021 -0.176,-0.036 L -78.793,2.53 c -0.162,-0.033 -0.542,-0.112 -0.782,-0.481 -0.136,-0.209 -0.18,-0.426 -0.204,-0.594 l -0.004,-0.029 c -0.015,-0.094 -0.041,-0.258 -0.006,-0.45 -0.012,-0.323 0.144,-0.542 0.25,-0.652 0.024,-0.026 0.049,-0.049 0.075,-0.07 0.059,-0.076 0.132,-0.143 0.216,-0.197 0.075,-0.05 0.159,-0.088 0.246,-0.115 0.046,-0.033 0.096,-0.059 0.147,-0.083 -0.501,-0.777 -0.593,-1.771 -0.241,-2.752 l 5.643,-15.748 c 0.658,-1.836 2.625,-3.22 4.575,-3.22 l 62.263,0 c 2.005,0 3.875,1.541 4.258,3.509 L 0.669,-2.807 C 0.871,-1.766 0.634,-0.77 0,0"
             style="fill:#ffffff;fill-opacity:1;fill-rule:nonzero;stroke:none"
             id="path1304"
             inkscape:connector-curvature="0" />
        </g>
      </g>
    </g>
    <path
       d="m 330.22509,-78.33305 -45.67056,0 0,-18.659445 45.67056,0 0,18.659445 z m -46.1858,0.515239 46.70105,0 0,-19.689923 -46.70105,0 0,19.689923 z"
       style="fill:#004968;fill-opacity:1;fill-rule:evenodd;stroke:none"
       id="path1306"
       inkscape:connector-curvature="0" />
    <g
       transform="matrix(2.9955763,0,0,-2.9955763,-1255.6869,130.22796)"
       id="g1308">
      <g
         id="g1310"
         clip-path="url(#clipPath1312)">
        <g
           id="g1316"
           transform="translate(510.6272,72.8584)">
          <path
             d="M 0,0 C -0.275,0 -0.482,-0.034 -0.585,-0.103 -0.723,-0.172 -0.757,-0.31 -0.792,-0.585 l 1.515,0 c 0,0.172 0,0.241 -0.035,0.31 C 0.619,-0.069 0.413,0 0,0"
             style="fill:#004968;fill-opacity:1;fill-rule:nonzero;stroke:none"
             id="path1318"
             inkscape:connector-curvature="0" />
        </g>
        <g
           id="g1320"
           transform="translate(497.343,71.9636)">
          <path
             d="m 0,0 c -0.069,-0.034 -0.138,-0.172 -0.138,-0.344 0,-0.138 0.035,-0.241 0.104,-0.275 0.103,-0.069 0.275,-0.069 0.585,-0.069 0.275,0 0.447,0 0.585,0.034 0.206,0.069 0.206,0.241 0.206,0.447 l 0,0.241 -0.757,0 C 0.206,0.034 0.103,0.034 0,0"
             style="fill:#004968;fill-opacity:1;fill-rule:nonzero;stroke:none"
             id="path1322"
             inkscape:connector-curvature="0" />
        </g>
        <g
           id="g1324"
           transform="translate(494.3145,73.7532)">
          <path
             d="m 0,0 -1.205,0 0,-2.409 1.239,0 c 0.792,0 1.136,0.31 1.136,0.964 l 0,0.481 C 1.17,-0.447 0.929,0 0,0"
             style="fill:#004968;fill-opacity:1;fill-rule:nonzero;stroke:none"
             id="path1326"
             inkscape:connector-curvature="0" />
        </g>
        <g
           id="g1328"
           transform="translate(511.7972,71.9636)">
          <path
             d="m 0,0 -1.962,0 0,-0.034 c 0,-0.276 0.035,-0.448 0.138,-0.517 0.103,-0.103 0.31,-0.172 0.688,-0.172 0.379,0 0.516,0.035 0.585,0.104 0.069,0.068 0.069,0.24 0.069,0.309 l 0.482,0 0,-0.241 c 0,-0.137 -0.069,-0.275 -0.344,-0.378 -0.276,-0.069 -0.516,-0.104 -0.86,-0.104 -0.379,0 -0.689,0.069 -0.861,0.173 -0.275,0.137 -0.379,0.447 -0.379,0.929 0,0.31 0.035,0.55 0.138,0.723 0.138,0.275 0.516,0.412 1.136,0.412 0.447,0 0.791,-0.068 0.964,-0.275 C -0.034,0.792 0,0.585 0,0.241 L 0,0 Z m -3.407,-0.998 -1.136,1.032 -0.172,0 0,-1.032 -0.447,0 0,3.132 0.447,0 0,-1.79 0.172,0 0.964,0.86 0.55,0 -1.101,-0.963 1.342,-1.239 -0.619,0 z m -2.891,0.138 c -0.207,-0.104 -0.551,-0.173 -1.033,-0.173 -0.309,0.035 -0.584,0.035 -0.791,0.104 -0.206,0.034 -0.31,0.137 -0.344,0.344 0,0.103 0,0.172 0.034,0.31 l 0.448,0 0,-0.172 c 0.034,-0.104 0.034,-0.172 0.137,-0.207 0.138,-0.034 0.31,-0.069 0.551,-0.069 0.31,0 0.516,0.035 0.654,0.104 0.103,0.034 0.137,0.137 0.137,0.275 0,0.172 -0.034,0.241 -0.206,0.275 l -0.172,0 c -0.034,0.035 -0.138,0.035 -0.31,0.035 l -0.275,0 C -7.915,0 -8.432,0 -8.432,0.551 c 0,0.516 0.31,0.688 1.136,0.688 0.206,0 0.482,-0.035 0.62,-0.035 0.206,-0.034 0.344,-0.068 0.447,-0.137 0.103,-0.035 0.138,-0.138 0.138,-0.31 l 0,-0.172 -0.482,0 0,0.103 C -6.608,0.792 -6.608,0.826 -6.642,0.826 -6.711,0.895 -6.917,0.929 -7.193,0.929 -7.502,0.929 -7.64,0.895 -7.778,0.86 -7.915,0.826 -7.95,0.723 -7.95,0.585 c 0,-0.103 0.035,-0.206 0.069,-0.241 0.138,-0.069 0.791,-0.069 0.998,-0.069 0.241,0 0.378,0 0.516,-0.069 0.241,-0.068 0.344,-0.24 0.344,-0.55 0,-0.241 -0.068,-0.413 -0.275,-0.516 m -2.994,-0.138 -0.482,0 0,1.204 c 0,0.413 -0.034,0.517 -0.103,0.586 -0.103,0.068 -0.31,0.103 -0.585,0.103 -0.241,0 -0.516,-0.035 -0.757,-0.103 l 0,-1.79 -0.482,0 0,2.202 0.447,0 0.035,-0.172 c 0.069,0.069 0.137,0.104 0.241,0.138 0.172,0.034 0.344,0.069 0.619,0.069 0.31,0 0.551,-0.069 0.723,-0.138 0.172,-0.069 0.275,-0.206 0.31,-0.378 0,-0.104 0.034,-0.207 0.034,-0.448 l 0,-1.273 z m -3.338,1.239 0,-1.239 -0.413,0 -0.035,0.172 c -0.172,-0.138 -0.447,-0.207 -0.86,-0.207 -0.826,0 -1.136,0.173 -1.136,0.689 0,0.206 0.035,0.31 0.103,0.447 0.173,0.241 0.517,0.241 0.792,0.241 l 1.067,0 0,0.207 c 0,0.103 0,0.206 -0.069,0.275 -0.103,0.069 -0.379,0.069 -0.723,0.069 -0.344,0 -0.447,-0.035 -0.482,-0.069 -0.068,-0.069 -0.068,-0.207 -0.068,-0.275 l -0.482,0 0,0.241 c 0,0.103 0,0.172 0.069,0.206 0.206,0.206 0.791,0.206 0.998,0.206 0.275,0 0.826,0 1.067,-0.172 0.103,-0.068 0.137,-0.172 0.172,-0.275 l 0,-0.516 z m -3.201,0.103 c 0,-0.585 -0.206,-1.342 -1.583,-1.342 l -1.755,0 0,3.132 1.617,0 c 0.689,0 1.721,-0.035 1.721,-1.377 l 0,-0.413 z m -9.911,-2.856 27.257,0 0,6.573 -27.257,0 0,-6.573 z"
             style="fill:#004968;fill-opacity:1;fill-rule:nonzero;stroke:none"
             id="path1330"
             inkscape:connector-curvature="0" />
        </g>
        <g
           id="g1332"
           transform="translate(518.1296,71.8259)">
          <path
             d="m 0,0 c 0,-0.447 -0.344,-0.482 -0.826,-0.482 l -1.273,0 0,1.067 1.342,0 C -0.172,0.585 0,0.379 0,0 m 0.482,0.034 c 0,0.379 -0.207,0.654 -0.757,0.758 0.413,0.103 0.654,0.309 0.654,0.653 0,0.551 -0.276,0.826 -1.033,0.826 l -1.962,0 0,-3.131 2.031,0 c 0.688,0 1.067,0.309 1.067,0.894 m -0.62,1.446 c 0,-0.448 -0.241,-0.551 -0.791,-0.551 l -1.17,0 0,0.998 1.239,0 c 0.481,0 0.722,-0.034 0.722,-0.447"
             style="fill:#004968;fill-opacity:1;fill-rule:evenodd;stroke:none"
             id="path1334"
             inkscape:connector-curvature="0" />
        </g>
        <g
           id="g1336"
           transform="translate(521.64,70.9655)">
          <path
             d="m 0,0 0,1.239 0,0.516 c -0.034,0.103 -0.069,0.207 -0.172,0.275 -0.241,0.173 -0.792,0.173 -1.067,0.173 -0.206,0 -0.757,0 -0.964,-0.207 C -2.271,1.962 -2.306,1.893 -2.306,1.79 l 0,-0.241 0.482,0 c 0,0.069 0,0.206 0.069,0.275 0.069,0.034 0.172,0.069 0.482,0.069 0.344,0 0.619,0 0.722,-0.069 0.104,-0.069 0.104,-0.172 0.104,-0.275 l 0,-0.207 -1.067,0 c -0.31,0 -0.62,0 -0.826,-0.241 -0.069,-0.137 -0.103,-0.241 -0.103,-0.447 0,-0.516 0.309,-0.688 1.135,-0.688 0.448,0 0.723,0.068 0.895,0.206 L -0.379,0 0,0 Z M -0.447,0.792 C -0.447,0.585 -0.482,0.413 -0.688,0.344 -0.792,0.31 -0.964,0.31 -1.273,0.31 c -0.276,0 -0.448,0 -0.551,0.069 -0.103,0.034 -0.103,0.137 -0.103,0.275 0,0.172 0.034,0.31 0.137,0.344 0.069,0.034 0.207,0.034 0.551,0.034 l 0.792,0 0,-0.24 z"
             style="fill:#004968;fill-opacity:1;fill-rule:evenodd;stroke:none"
             id="path1338"
             inkscape:connector-curvature="0" />
        </g>
        <g
           id="g1340"
           transform="translate(524.3932,70.9655)">
          <path
             d="m 0,0 0,1.205 c 0,0.413 -0.035,0.516 -0.138,0.585 -0.069,0.068 -0.275,0.103 -0.55,0.103 -0.276,0 -0.517,-0.035 -0.758,-0.103 l 0,-1.79 -0.481,0 0,2.203 0.413,0 0.034,-0.173 c 0.103,0.069 0.172,0.104 0.275,0.138 0.173,0.035 0.345,0.069 0.62,0.069 0.31,0 0.516,-0.069 0.723,-0.138 C 0.31,2.03 0.378,1.893 0.447,1.721 l 0,-0.448 L 0.447,0 0,0 Z"
             style="fill:#004968;fill-opacity:1;fill-rule:evenodd;stroke:none"
             id="path1342"
             inkscape:connector-curvature="0" />
        </g>
        <g
           id="g1344"
           transform="translate(527.4561,70.9655)">
          <path
             d="m 0,0 -1.136,1.032 -0.172,0 0,-1.032 -0.482,0 0,3.132 0.482,0 0,-1.79 0.172,0 0.93,0.861 0.55,0 L -0.757,1.239 0.62,0 0,0 Z"
             style="fill:#004968;fill-opacity:1;fill-rule:evenodd;stroke:none"
             id="path1346"
             inkscape:connector-curvature="0" />
        </g>
      </g>
    </g>
    <g
       transform="matrix(2.9955763,0,0,-2.9955763,-1255.6869,130.22796)"
       id="g1348">
      <g
         id="g1350">
        <g
           id="g1356">
          <g
             id="g1358">
            <path
               d="m 486.055,67.813 0,-6.218 2.202,0 0,1.768 0.809,0 c 1.43,0 2.292,1.163 2.292,2.185 l 0,0 c 0,1.617 -1.324,2.265 -2.292,2.265 l 0,0 -3.011,0 z m 2.202,-1.758 0.178,0 c 0.32,0 0.595,-0.143 0.595,-0.489 l 0,0 c 0,-0.329 -0.284,-0.462 -0.586,-0.462 l 0,0 -0.187,0 0,0.951 z"
               style="fill:url(#linearGradient1360);stroke:none"
               id="path1368"
               inkscape:connector-curvature="0" />
          </g>
        </g>
      </g>
    </g>
    <g
       transform="matrix(2.9955763,0,0,-2.9955763,-1255.6869,130.22796)"
       id="g1370">
      <g
         id="g1372">
        <g
           id="g1378">
          <g
             id="g1380">
            <path
               d="m 491.721,67.813 0,-6.218 2.176,0 0,1.981 0.134,0 0.95,-1.981 2.274,0 -1.163,2.426 c 0.559,0.408 0.87,1.047 0.87,1.634 l 0,0 c 0,1.545 -1.306,2.158 -2.265,2.158 l 0,0 -2.976,0 z m 2.176,-1.669 0.178,0 c 0.311,0 0.587,-0.143 0.587,-0.472 l 0,0 c 0,-0.31 -0.285,-0.435 -0.578,-0.435 l 0,0 -0.187,0 0,0.907 z"
               style="fill:url(#linearGradient1382);stroke:none"
               id="path1390"
               inkscape:connector-curvature="0" />
          </g>
        </g>
      </g>
    </g>
    <g
       transform="matrix(2.9955763,0,0,-2.9955763,-1255.6869,130.22796)"
       id="g1392">
      <g
         id="g1394">
        <g
           id="g1400">
          <g
             id="g1402">
            <path
               d="m 497.663,67.813 0,-6.218 4.139,0 0,1.804 -1.865,0 0,0.577 1.635,0 0,1.519 -1.635,0 0,0.515 1.777,0 0,1.803 -4.051,0 z"
               style="fill:url(#linearGradient1404);stroke:none"
               id="path1412"
               inkscape:connector-curvature="0" />
          </g>
        </g>
      </g>
    </g>
    <g
       transform="matrix(2.9955763,0,0,-2.9955763,-1255.6869,130.22796)"
       id="g1414">
      <g
         id="g1416">
        <g
           id="g1422">
          <g
             id="g1424">
            <path
               d="m 506.59,67.813 -0.711,-2.398 -0.711,2.398 -2.93,0 0,-6.218 2.273,0 0,2.63 0.782,-2.63 1.172,0 0.782,2.63 0,-2.63 2.274,0 0,6.218 -2.931,0 z"
               style="fill:url(#linearGradient1426);stroke:none"
               id="path1434"
               inkscape:connector-curvature="0" />
          </g>
        </g>
      </g>
    </g>
    <g
       transform="matrix(2.9955763,0,0,-2.9955763,-1255.6869,130.22796)"
       id="g1436">
      <g
         id="g1438">
        <g
           id="g1444">
          <g
             id="g1446">
            <path
               d="m 509.965,61.595 2.273,0 0,6.218 -2.273,0 0,-6.218 z"
               style="fill:url(#linearGradient1448);stroke:none"
               id="path1456"
               inkscape:connector-curvature="0" />
          </g>
        </g>
      </g>
    </g>
    <g
       transform="matrix(2.9955763,0,0,-2.9955763,-1255.6869,130.22796)"
       id="g1458">
      <g
         id="g1460">
        <g
           id="g1466">
          <g
             id="g1468">
            <path
               d="m 512.682,67.813 0,-6.218 4.139,0 0,1.804 -1.864,0 0,0.577 1.634,0 0,1.519 -1.634,0 0,0.515 1.776,0 0,1.803 -4.051,0 z"
               style="fill:url(#linearGradient1470);stroke:none"
               id="path1478"
               inkscape:connector-curvature="0" />
          </g>
        </g>
      </g>
    </g>
    <g
       transform="matrix(2.9955763,0,0,-2.9955763,-1255.6869,130.22796)"
       id="g1480">
      <g
         id="g1482">
        <g
           id="g1488">
          <g
             id="g1490">
            <path
               d="m 517.257,67.813 0,-6.218 2.176,0 0,1.981 0.133,0 0.951,-1.981 2.273,0 -1.164,2.426 c 0.56,0.408 0.872,1.047 0.872,1.634 l 0,0 c 0,1.545 -1.306,2.158 -2.266,2.158 l 0,0 -2.975,0 z m 2.176,-1.669 0.177,0 c 0.311,0 0.586,-0.143 0.586,-0.472 l 0,0 c 0,-0.31 -0.283,-0.435 -0.576,-0.435 l 0,0 -0.187,0 0,0.907 z"
               style="fill:url(#linearGradient1492);stroke:none"
               id="path1500"
               inkscape:connector-curvature="0" />
          </g>
        </g>
      </g>
    </g>
    <g
       transform="matrix(2.9955763,0,0,-2.9955763,-1255.6869,130.22796)"
       id="g1502">
      <g
         id="g1504">
        <g
           id="g1510">
          <g
             id="g1512">
            <path
               d="m 523.172,65.868 c 0,-2.15 2.336,-1.75 2.336,-2.327 l 0,0 c 0,-0.142 -0.107,-0.266 -0.516,-0.266 l 0,0 c -0.71,0 -1.403,0.532 -1.713,0.843 l 0,0 0,-2.016 c 0.586,-0.586 1.447,-0.649 1.945,-0.649 l 0,0 c 1.421,0 2.665,0.773 2.665,2.372 l 0,0 c 0,0.675 -0.374,1.226 -0.889,1.448 l 0,0 c -0.675,0.302 -1.439,0.257 -1.439,0.595 l 0,0 c 0,0.187 0.338,0.213 0.427,0.213 l 0,0 c 0.48,0 1.03,-0.116 1.678,-0.577 l 0,0 0,1.803 c -0.702,0.559 -1.395,0.639 -2.078,0.639 l 0,0 c -0.986,0 -2.416,-0.47 -2.416,-2.078"
               style="fill:url(#linearGradient1514);stroke:none"
               id="path1522"
               inkscape:connector-curvature="0" />
          </g>
        </g>
      </g>
    </g>
    <g
       transform="matrix(2.9955763,0,0,-2.9955763,-1255.6869,130.22796)"
       id="g1524">
      <g
         id="g1526">
        <g
           id="g1532">
          <g
             id="g1534">
            <path
               d="m 531.832,67.813 0,-2.291 -1.252,0 0,2.291 -2.275,0 0,-6.218 2.275,0 0,2.408 1.252,0 0,-2.408 2.274,0 0,6.218 -2.274,0 z"
               style="fill:url(#linearGradient1536);stroke:none"
               id="path1544"
               inkscape:connector-curvature="0" />
          </g>
        </g>
      </g>
    </g>
    <g
       transform="matrix(2.9955763,0,0,-2.9955763,-1255.6869,130.22796)"
       id="g1546">
      <g
         id="g1548">
        <g
           id="g1554">
          <g
             id="g1556">
            <path
               d="m 534.55,61.595 2.274,0 0,6.218 -2.274,0 0,-6.218 z"
               style="fill:url(#linearGradient1558);stroke:none"
               id="path1566"
               inkscape:connector-curvature="0" />
          </g>
        </g>
      </g>
    </g>
    <g
       transform="matrix(2.9955763,0,0,-2.9955763,-1255.6869,130.22796)"
       id="g1568">
      <g
         id="g1570">
        <g
           id="g1576">
          <g
             id="g1578">
            <path
               d="m 537.268,67.813 0,-6.218 2.202,0 0,1.768 0.809,0 c 1.43,0 2.291,1.163 2.291,2.185 l 0,0 c 0,1.617 -1.324,2.265 -2.291,2.265 l 0,0 -3.011,0 z m 2.202,-1.758 0.178,0 c 0.32,0 0.595,-0.143 0.595,-0.489 l 0,0 c 0,-0.329 -0.284,-0.462 -0.586,-0.462 l 0,0 -0.187,0 0,0.951 z"
               style="fill:url(#linearGradient1580);stroke:none"
               id="path1588"
               inkscape:connector-curvature="0" />
          </g>
        </g>
      </g>
    </g>
    <g
       transform="matrix(2.9955763,0,0,-2.9955763,-1255.6869,130.22796)"
       id="g1590">
      <g
         id="g1592">
        <g
           id="g1598">
          <g
             id="g1600">
            <path
               d="m 480.937,87.395 c -0.068,0.065 -0.203,0.054 -0.292,0.022 l 0,0 c 0.044,-0.004 0.076,-0.005 0.076,-0.021 l 0,0 c -0.091,-0.004 -0.173,-0.024 -0.281,-0.079 l 0,0 c 0.046,0.011 0.157,0.028 0.153,0.009 l 0,0 c -0.109,-0.012 -0.277,-0.065 -0.394,-0.148 l 0,0 c 0.034,0.017 0.092,0.014 0.107,0.008 l 0,0 c -0.043,-0.027 -0.163,-0.062 -0.395,-0.313 l 0,0 c 0.226,0.206 0.02,-0.027 -0.023,-0.09 l 0,0 c -0.103,-0.148 -0.172,-0.325 -0.205,-0.506 l 0,0 c -0.016,-0.088 -0.014,-0.19 -0.012,-0.283 l 0,0 c 0.002,-0.049 0.006,-0.098 0.009,-0.147 l 0,0 c -0.009,-0.066 -0.014,-0.132 -0.019,-0.195 l 0,0 c -0.013,-0.177 -0.007,-0.399 -0.089,-0.609 l 0,0 -0.009,0.006 -0.003,-0.038 c -0.048,-0.176 -0.227,-0.438 -0.227,-0.438 l 0,0 c -0.196,-0.221 -0.721,-0.458 -0.721,-0.458 l 0,0 c -0.026,-0.01 -0.05,-0.021 -0.072,-0.032 l 0,0 c -0.216,-0.035 -0.483,-0.064 -0.483,-0.064 l 0,0 c -0.018,0.006 -0.049,0.003 -0.08,10e-4 l 0,0 c -0.028,-0.003 -0.058,-0.005 -0.074,0 l 0,0 c -0.211,0.07 -0.638,0.044 -0.868,0.005 l 0,0 c -0.31,-0.052 -0.556,-0.191 -0.887,-0.421 l 0,0 c -0.159,-0.111 -0.306,-0.237 -0.47,-0.336 l 0,0 c -0.179,-0.108 -0.341,-0.198 -0.515,-0.29 l 0,0 c -0.045,-0.023 -0.088,-0.036 -0.126,-0.062 l 0,0 c -0.083,-0.056 -0.144,-0.115 -0.181,-0.179 l 0,0 c -0.016,-0.027 -0.031,-0.081 -0.054,-0.099 l 0,0 -0.003,-0.022 c -0.207,-0.047 -0.288,-0.07 -0.288,-0.07 l 0,0 c -0.047,-0.008 -0.093,-0.025 -0.137,-0.035 l 0,0 c -0.27,-0.057 -0.543,-0.094 -0.808,-0.176 l 0,0 c -0.367,-0.114 -0.736,-0.293 -1.115,-0.438 l 0,0 c -0.476,-0.182 -0.928,-0.335 -1.373,-0.447 l 0,0 c -0.092,-0.023 -0.179,-0.057 -0.272,-0.076 l 0,0 c -0.086,-0.018 -0.178,-0.028 -0.263,-0.03 l 0,0 c -0.027,-10e-4 -0.053,-10e-4 -0.079,-10e-4 l 0,0 c -0.064,10e-4 -0.128,10e-4 -0.185,-0.013 l 0,0 c -0.024,-0.005 -0.048,-0.02 -0.065,-0.024 l 0,0 c -0.032,-0.008 -0.072,-0.006 -0.108,-0.013 l 0,0 c -0.038,-0.005 -0.075,-0.013 -0.113,-0.022 l 0,0 c -0.121,-0.031 -0.275,-0.04 -0.349,-0.153 l 0,0 c -0.052,-0.081 -0.071,-0.181 -0.084,-0.274 l 0,0 c -0.011,-0.079 -0.033,-0.172 -0.012,-0.246 l 0,0 c 0.004,-0.014 0.017,-0.026 0.021,-0.041 l 0,0 c 0.011,-0.063 -0.048,-0.119 0.02,-0.19 l 0,0 c 0.029,-0.031 0.065,-0.033 0.098,-0.047 l 0,0 c -0.003,-0.133 0.171,-0.161 0.272,-0.115 l 0,0 c -0.013,-0.064 0.038,-0.131 0.106,-0.145 l 0,0 c 0.035,-0.007 0.099,0.01 0.151,0.027 l 0,0 c 0.056,0.02 0.121,0.032 0.158,0.061 l 0,0 c 0.034,0.027 0.047,0.083 0.065,0.118 l 0,0 c 0.023,0.046 0.054,0.083 0.062,0.121 l 0,0 c 0.134,0.032 0.246,0.056 0.381,0.137 l 0,0 c 0.064,0.039 0.116,0.085 0.155,0.13 l 0,0 c 0.034,0.042 0.062,0.113 0.106,0.142 l 0,0 c 0.024,0.016 0.084,0.029 0.132,0.039 l 0,0 c 0.139,0.031 0.274,0.048 0.394,0.056 l 0,0 c 0.176,0.012 0.349,0.019 0.513,0.022 l 0,0 c 0.351,0.006 0.692,0.027 1.031,0.059 l 0,0 c 0.344,0.033 0.706,0.096 1.059,0.215 l 0,0 c 0.094,0.032 0.185,0.06 0.271,0.099 l 0,0 c 0.117,0.061 0.205,0.131 0.285,0.166 l 0,0 c 0.07,0.038 0.15,0.063 0.231,0.083 l 0,0 c 0.145,-0.289 0.278,-0.116 0.278,-0.116 l 0,0 c 0.047,0.009 0.056,0.099 0.095,0.101 l 0,0 c 0.029,0.002 0.104,-0.067 0.13,-0.069 l 0,0 c 0.094,-0.005 0.154,0.016 0.254,0.044 l 0,0 c 0.028,0.005 0.101,-0.017 0.176,-0.04 l 0,0 c 0.081,-0.024 0.165,-0.048 0.196,-0.036 l 0,0 c 0.037,0.009 0.201,0.017 0.293,0.035 l 0,0 -0.026,-0.05 c 0.001,-0.118 -0.004,-0.235 0.001,-0.353 l 0,0 c 0.007,-0.167 0.013,-0.336 0.032,-0.502 l 0,0 c 0.018,-0.165 0.037,-0.333 0.04,-0.495 l 0,0 c 0.003,-0.173 0.013,-0.342 0.027,-0.506 l 0,0 c 0.016,-0.164 0.035,-0.325 0.05,-0.487 l 0,0 c 0.013,-0.165 -0.062,-0.327 -0.092,-0.495 l 0,0 c -0.054,-0.303 -0.076,-0.621 -0.009,-0.871 l 0,0 c 0.012,-0.041 0.029,-0.094 0.043,-0.147 l 0,0 c 0.011,-0.039 0.044,-0.133 0.03,-0.167 l 0,0 c -0.037,-0.085 -0.109,-0.192 -0.142,-0.299 l 0,0 C 476.423,77.044 476.402,77 476.401,76.969 l 0,0 c -0.004,-0.062 0.074,-0.114 0.091,-0.187 l 0,0 c 0.106,-0.07 0.23,-0.124 0.3,-0.223 l 0,0 c -0.034,-0.027 -0.076,-0.034 -0.098,-0.067 l 0,0 c -0.046,-0.068 -0.063,-0.213 -0.091,-0.312 l 0,0 c -0.088,-0.312 -0.14,-0.692 -0.183,-1.03 l 0,0 c -0.061,-0.489 -0.049,-0.974 0.033,-1.361 l 0,0 c 0.083,-0.392 0.24,-0.739 0.401,-1.066 l 0,0 c 0.06,-0.123 0.137,-0.242 0.192,-0.368 l 0,0 c 0.092,-0.213 0.152,-0.449 0.227,-0.683 l 0,0 c -0.116,-0.002 -0.233,0.02 -0.344,0.042 l 0,0 c -0.111,0.021 -0.227,0.035 -0.33,0.069 l 0,0 c -0.096,0.032 -0.189,0.074 -0.286,0.104 l 0,0 c -0.081,0.027 -0.191,0.096 -0.271,0.149 l 0,0 c 0.002,0.007 0.003,0.014 0.004,0.022 l 0,0 c 0.005,0.064 -0.034,0.12 -0.092,0.138 l 0,0 c -0.002,0.011 -0.003,0.022 -0.007,0.034 l 0,0 c -0.007,0.018 -0.004,0.041 -0.011,0.061 l 0,0 c -0.029,0.087 -0.097,0.161 -0.161,0.217 l 0,0 c -0.03,0.028 -0.062,0.052 -0.095,0.076 l 0,0 c -0.043,0.03 -0.087,0.058 -0.13,0.084 l 0,0 c -0.024,0.033 -0.041,0.094 -0.087,0.1 l 0,0 c -0.013,0.001 -0.026,0 -0.042,-0.003 l 0,0 c -0.044,-0.007 -0.098,-0.029 -0.139,-0.05 l 0,0 c -0.006,-0.002 -0.011,-0.006 -0.016,-0.009 l 0,0 -0.002,0 c -0.013,0.008 -0.032,-0.001 -0.044,-0.021 l 0,0 c -0.004,-0.005 -0.006,-0.011 -0.007,-0.016 l 0,0 -0.004,-0.003 c -0.015,-0.011 -0.03,-0.024 -0.043,-0.04 l 0,0 -0.039,0.021 c -0.001,10e-4 -0.002,10e-4 -0.003,10e-4 l 0,0 c -0.012,0.007 -0.031,-0.002 -0.044,-0.022 l 0,0 c -0.012,-0.019 -0.013,-0.041 -0.003,-0.051 l 0,0 10e-4,-0.001 0.028,-0.03 -0.125,-0.177 -0.002,10e-4 c -0.012,0.007 -0.031,-0.002 -0.044,-0.022 l 0,0 c -0.011,-0.017 -0.013,-0.039 -0.004,-0.049 l 0,0 -0.007,-0.011 -0.042,0.023 c -0.001,0.001 -0.002,0.001 -0.002,0.001 l 0,0 c -0.012,0.007 -0.032,-0.002 -0.044,-0.021 l 0,0 c -0.012,-0.02 -0.014,-0.042 -0.003,-0.051 l 0,0 10e-4,-0.002 0.03,-0.033 -0.039,-0.056 c -0.118,-0.167 -0.277,-0.302 -0.429,-0.441 l 0,0 -0.014,0.008 c -0.001,0.001 -0.002,0.001 -0.003,0.001 l 0,0 c -0.012,0.007 -0.031,-0.002 -0.044,-0.022 l 0,0 c -0.012,-0.018 -0.013,-0.039 -0.005,-0.049 l 0,0 -0.027,-0.026 c -0.054,-0.053 -0.096,-0.093 -0.133,-0.134 l 0,0 -0.022,0.013 c -0.001,0 -0.002,0.001 -0.003,0.001 l 0,0 c -0.012,0.007 -0.031,-0.003 -0.044,-0.022 l 0,0 c -0.012,-0.019 -0.013,-0.041 -0.003,-0.051 l 0,0 10e-4,-10e-4 0.012,-0.013 c -0.034,-0.047 -0.068,-0.101 -0.106,-0.176 l 0,0 -0.013,-0.024 c -0.012,0.004 -0.03,-0.006 -0.041,-0.023 l 0,0 c -0.013,-0.02 -0.014,-0.042 -0.004,-0.051 l 0,0 0.002,-0.002 0.004,-0.005 c -0.027,-0.063 -0.05,-0.128 -0.067,-0.195 l 0,0 c -0.006,-0.004 -0.013,-0.011 -0.019,-0.019 l 0,0 c -0.012,-0.019 -0.013,-0.041 -0.003,-0.051 l 0,0 0.001,-0.002 0.006,-0.005 c -0.019,-0.115 -0.015,-0.234 0.026,-0.351 l 0,0 c 0.024,-0.071 0.047,-0.112 0.085,-0.155 l 0,0 c 0.017,-0.016 0.045,-0.026 0.082,-0.019 l 0,0 c 0.144,-0.119 0.411,0.038 0.547,0.204 l 0,0 c 0.029,0.018 0.059,0.03 0.085,0.051 l 0,0 c 0.014,0.01 0.027,0.019 0.04,0.03 l 0,0 c 0.012,0.01 0.027,0.019 0.039,0.028 l 0,0 c 0.025,0.022 0.04,0.054 0.067,0.069 l 0,0 0.007,0.004 c 0.011,-0.002 0.025,0.001 0.037,0.011 l 0,0 c 0.012,0.009 0.019,0.022 0.02,0.033 l 0,0 0.045,0.038 c 0.01,-0.001 0.022,0.003 0.033,0.011 l 0,0 c 0.011,0.009 0.017,0.02 0.019,0.032 l 0,0 c 0.014,0.01 0.029,0.021 0.042,0.03 l 0,0 c 0.01,-0.004 0.022,-0.004 0.033,0.001 l 0,0 c 0.018,0.006 0.03,0.021 0.032,0.036 l 0,0 c 0.005,0.001 0.008,0.002 0.011,0.002 l 0,0 c 0.01,0.001 0.018,0.002 0.025,0.002 l 0,0 c 0.01,-0.003 0.022,-0.003 0.034,0 l 0,0 c 0.013,0.006 0.023,0.014 0.028,0.024 l 0,0 c 0.004,0.002 0.007,0.004 0.014,0.004 l 0,0 c 0.007,0.003 0.015,0.003 0.024,0.002 l 0,0 c -0.018,-0.026 -0.046,-0.065 -0.063,-0.107 l 0,0 c -0.006,-0.012 -0.01,-0.025 -0.013,-0.038 l 0,0 c -0.04,-0.028 -0.092,-0.054 -0.152,-0.068 l 0,0 c -0.019,-0.005 -0.007,-0.015 0.007,-0.012 l 0,0 c 0.054,0.013 0.101,0.029 0.141,0.048 l 0,0 c 0,-0.022 0.006,-0.041 0.02,-0.057 l 0,0 c 0.004,-0.004 0.009,-0.007 0.012,-0.01 l 0,0 c 0.013,-0.006 0.026,-0.007 0.042,-10e-4 l 0,0 0.003,10e-4 c 0.014,0.006 0.029,0.016 0.045,0.033 l 0,0 c 0.025,0.025 0.052,0.065 0.078,0.118 l 0,0 c 0.007,0.014 0.015,0.03 0.022,0.047 l 0,0 0.013,0.029 c 0.005,-0.012 0.008,-0.024 0.01,-0.038 l 0,0 c 0.013,-0.067 0.017,-0.169 -0.025,-0.277 l 0,0 c -0.008,-0.019 0.008,-0.014 0.014,0 l 0,0 c 0.044,0.114 0.059,0.21 0.046,0.285 l 0,0 c -0.004,0.021 -0.011,0.041 -0.019,0.059 l 0,0 c 0.028,-0.005 0.053,-0.013 0.074,-0.024 l 0,0 c 0.009,-0.005 0.019,-0.011 0.032,-0.018 l 0,0 c 0.034,-0.02 0.076,-0.044 0.091,-0.034 l 0,0 c 0.013,0.009 0.014,0.032 0.006,0.046 l 0,0 c -0.018,0.03 -0.039,0.044 -0.066,0.06 l 0,0 c 0.369,-0.137 0.946,-0.37 1.122,-0.498 l 0,0 c 0.068,-0.05 0.133,-0.105 0.201,-0.158 l 0,0 c 0.143,-0.108 0.306,-0.18 0.447,-0.282 l 0,0 c 0.14,-0.102 0.244,-0.232 0.391,-0.327 l 0,0 c 0.063,-0.12 0.133,-0.249 0.207,-0.365 l 0,0 c 0.048,-0.075 0.144,-0.15 0.217,-0.211 l 0,0 c 0.051,-0.041 0.081,-0.064 0.152,-0.089 l 0,0 c 0.025,-0.009 0.051,-0.022 0.071,-0.026 l 0,0 c 0.016,-0.004 0.035,-0.002 0.054,-0.001 l 0,0 c 0.025,0.002 0.05,0.004 0.077,-0.003 l 0,0 c 0.065,-0.019 0.104,-0.095 0.178,-0.104 l 0,0 c 0.003,-0.14 0.033,-0.273 0.04,-0.414 l 0,0 c 0.007,-0.148 -0.011,-0.297 0.01,-0.437 l 0,0 c 0.039,-0.269 0.086,-0.525 0.152,-0.765 l 0,0 c 0.067,-0.243 0.132,-0.481 0.221,-0.706 l 0,0 c 0.264,-0.663 0.604,-1.274 0.889,-1.927 l 0,0 c 0.071,-0.16 0.127,-0.324 0.178,-0.492 l 0,0 0.001,-0.002 0,-0.002 0,-0.004 10e-4,-0.002 0.002,-0.004 -0.001,0 0.001,-0.003 0.002,-0.002 0.004,-0.013 0,-0.003 0.001,-0.003 10e-4,-0.004 0.003,-0.009 0.001,-0.003 0.008,-0.029 0.001,-0.003 0.002,-0.005 0,-10e-4 0.002,-0.011 0.001,-0.002 10e-4,-0.003 0.005,-0.016 0,-0.001 0.001,-0.002 10e-4,-0.006 0,-0.003 10e-4,-0.001 0,-0.003 0.001,-0.003 10e-4,-0.003 0.001,-0.002 0,-0.002 10e-4,-0.002 10e-4,-0.004 0.001,-0.003 0,-10e-4 10e-4,-0.002 0,-0.004 0.001,-0.003 10e-4,-0.001 0,-0.002 0.001,-0.003 10e-4,-0.004 10e-4,-0.002 0.001,-0.004 10e-4,-0.003 0.001,-0.003 0,-0.002 10e-4,-0.002 10e-4,-0.002 0,-0.004 0.001,-0.003 c 0.062,-0.236 0.134,-0.477 0.192,-0.728 l 0,0 c -0.05,-0.007 -0.106,-0.061 -0.081,-0.164 l 0,0 c 10e-4,-0.04 0.025,-0.104 0.044,-0.226 l 0,0 c 0.016,-0.146 0.049,-0.205 0.015,-0.355 l 0,0 c -0.01,-0.045 -0.028,-0.09 -0.036,-0.14 l 0,0 c -0.009,-0.048 0.014,-0.078 -0.003,-0.12 l 0,0 c -0.039,-0.096 -0.059,-0.185 -0.041,-0.28 l 0,0 c 0.022,-0.11 0.052,-0.165 0.054,-0.266 l 0,0 c -0.03,-0.002 -0.046,-0.003 -0.046,-0.003 l 0,0 1.596,-0.214 0.013,0.002 c 0.013,0 0.026,0.009 0.027,0.021 l 0,0 0.003,0.08 0.002,0 0.028,-0.108 c 0.003,-0.012 0.018,-0.018 0.031,-0.017 l 0,0 0.076,0.006 c 0.01,10e-4 0.02,0.006 0.024,0.014 l 0,0 0.06,0.004 c 0.012,10e-4 0.026,0.01 0.027,0.023 l 0,0 0.004,0.097 0.049,0.004 10e-4,0 c 0.009,-10e-4 0.017,0 0.025,0.001 l 0,0 c 0.007,10e-4 0.013,0.003 0.017,0.007 l 0,0 c 0.02,0.011 0.034,0.03 0.036,0.054 l 0,0 c 0.002,0.027 -0.013,0.052 -0.035,0.066 l 0,0 c 0.092,0.272 -0.102,0.714 -0.211,0.941 l 0,0 c -0.012,0.023 -0.033,0.046 -0.054,0.069 l 0,0 c 0.016,0.007 0.029,0.013 0.042,0.02 l 0,0 c 0.078,-0.016 0.164,-0.047 0.249,-0.102 l 0,0 c 0.027,-0.017 0.025,0.009 0.005,0.023 l 0,0 c -0.076,0.048 -0.147,0.085 -0.213,0.111 l 0,0 c 0.023,0.022 0.037,0.05 0.038,0.084 l 0,0 c 0,0.008 -10e-4,0.016 -0.003,0.024 l 0,0 c -0.007,0.022 -0.024,0.04 -0.051,0.052 l 0,0 c -0.016,0.007 -0.036,0.012 -0.059,0.015 l 0,0 c -0.009,10e-4 -0.018,0.002 -0.027,0.002 l 0,0 c -0.015,10e-4 -0.03,0 -0.047,-0.001 l 0,0 c -0.009,0.058 -0.032,0.119 -0.056,0.181 l 0,0 c 0.036,0.023 0.077,0.045 0.121,0.063 l 0,0 c 0.029,0.012 0.007,0.026 -0.016,0.016 l 0,0 c -0.041,-0.017 -0.08,-0.035 -0.116,-0.053 l 0,0 c -0.024,0.06 -0.049,0.12 -0.064,0.183 l 0,0 c -0.022,0.095 -0.039,0.154 -0.132,0.135 l 0,0 c -0.03,0.118 -0.064,0.252 -0.1,0.369 l 0,0 -10e-4,0.003 0,0.002 -0.001,0.001 -10e-4,0.004 0,0 -10e-4,0.002 0,0.003 0,10e-4 -0.001,0.003 -10e-4,0.002 -0.001,0.004 -10e-4,10e-4 -10e-4,0.002 -0.001,0.003 -10e-4,0.003 -0.001,0.002 -10e-4,0.004 0,0.002 0,0.001 -0.002,0.003 -10e-4,0.003 -0.001,0.003 -10e-4,0.003 -0.001,0.002 -10e-4,0.001 -10e-4,0.003 0,0.002 -0.001,0.001 0,0.003 -0.002,0.004 -10e-4,0.002 0,0 -0.001,0.003 -10e-4,0.002 0,0.002 -0.002,0.002 0,10e-4 -10e-4,0.002 0,0.003 0,10e-4 -0.002,0.002 0,0.002 -10e-4,0.001 -0.001,0.004 -10e-4,10e-4 -0.001,0.001 -10e-4,0.003 -0.001,0.004 -10e-4,0.002 0,0 -10e-4,0.003 -0.001,0.002 0,0.002 -0.002,0.002 -10e-4,0.003 -10e-4,0.003 -0.001,0.001 -10e-4,0.002 -0.001,0.002 0,10e-4 -10e-4,0.004 -0.001,0.002 -0.002,0.003 -0.001,0.004 -10e-4,0.001 -0.001,0.001 -10e-4,0.003 0,10e-4 -10e-4,0.002 -0.001,0.003 -10e-4,0.003 -0.001,0.002 -10e-4,0.001 -0.001,0.003 -10e-4,10e-4 -10e-4,0.002 -0.001,0.003 0,10e-4 -10e-4,0.002 -0.001,0.002 0,0.001 -10e-4,0.003 -10e-4,0.002 -0.001,0.001 -10e-4,0.003 -0.001,10e-4 -10e-4,0.002 -0.001,0.002 -0.002,0.004 c -0.019,0.044 -0.04,0.088 -0.059,0.134 l 0,0 c -0.09,0.218 -0.188,0.444 -0.248,0.673 l 0,0 c -0.032,0.121 -0.057,0.247 -0.083,0.371 l 0,0 c -0.026,0.124 -0.056,0.246 -0.084,0.371 l 0,0 c -0.055,0.253 -0.076,0.522 -0.097,0.799 l 0,0 c -0.021,0.274 -0.041,0.55 -0.072,0.822 l 0,0 c -0.029,0.264 -0.078,0.526 -0.131,0.77 l 0,0 c -0.051,0.232 -0.153,0.459 -0.232,0.688 l 0,0 c -0.041,0.12 -0.06,0.253 -0.065,0.385 l 0,0 c -0.007,0.134 -0.022,0.234 -0.054,0.36 l 0,0 c -0.031,0.043 -0.034,0.045 -0.082,0.055 l 0,0 c 0.027,0.185 0.052,0.401 0.034,0.569 l 0,0 c 0.006,0.021 0.03,0.029 0.043,0.039 l 0,0 c 0.044,0.036 0.096,0.081 0.135,0.128 l 0,0 c 0.028,0.034 0.034,0.073 0.054,0.115 l 0,0 c 0.029,0.061 0.083,0.121 0.106,0.199 l 0,0 c 0.026,0.093 0.008,0.223 0.018,0.342 l 0,0 c 0.052,0.623 0.174,1.147 0.267,1.714 l 0,0 c 0.037,0.229 0.052,0.465 0.065,0.706 l 0,0 c 0.014,0.234 0.054,0.466 0.053,0.698 l 0,0 c 0,0.227 -0.012,0.453 0,0.671 l 0,0 c 0.014,0.248 0.05,0.481 0.054,0.707 l 0,0 c 0.002,0.109 -0.016,0.214 -0.024,0.321 l 0,0 c -0.007,0.105 -0.036,0.21 -0.032,0.311 l 0,0 c 0.002,0.067 -10e-4,0.124 -0.012,0.189 l 0,0 c -0.021,0.03 -0.071,0.042 -0.072,0.085 l 0,0 c -10e-4,0.048 0.103,0.103 0.137,0.144 l 0,0 c 0.079,0.097 0.121,0.219 0.163,0.354 l 0,0 c -0.051,0.15 -0.155,0.288 -0.157,0.493 l 0,0 c -0.002,0.152 0.021,0.311 0.03,0.473 l 0,0 c 0.008,0.153 0.019,0.312 0.021,0.473 l 0,0 c 0.006,0.326 0.015,0.653 0.126,0.892 l 0,0 c 0.045,-0.143 0.052,-0.285 0.088,-0.416 l 0,0 c 0.037,-0.134 0.073,-0.26 0.118,-0.385 l 0,0 c 0.088,-0.244 0.214,-0.462 0.361,-0.672 l 0,0 c 0.139,-0.2 0.288,-0.402 0.459,-0.587 l 0,0 c 0.079,-0.086 0.157,-0.183 0.243,-0.285 l 0,0 c 0.036,-0.043 0.079,-0.089 0.115,-0.145 l 0,0 c 0.03,-0.05 0.08,-0.132 0.08,-0.176 l 0,0 c 0,-0.036 -0.023,-0.075 -0.033,-0.109 l 0,0 c -0.036,-0.108 -0.041,-0.242 -0.003,-0.347 l 0,0 c 0.026,-0.071 0.075,-0.111 0.116,-0.182 l 0,0 c -0.018,-0.027 -0.046,-0.041 -0.063,-0.075 l 0,0 c -0.014,-0.029 -0.023,-0.072 -0.038,-0.112 l 0,0 c -0.036,-0.103 -0.032,-0.164 0.024,-0.238 l 0,0 c 0.014,-0.019 0.039,-0.032 0.058,-0.057 l 0,0 c 0.043,-0.054 0.072,-0.057 0.149,-0.084 l 0,0 c 0.027,-0.01 0.053,-0.03 0.08,-0.043 l 0,0 c 0.01,-0.006 0.02,-0.009 0.03,-0.014 l 0,0 c 0.021,-0.007 0.042,-0.013 0.059,-0.022 l 0,0 c 0.056,-0.03 0.091,-0.079 0.138,-0.105 l 0,0 c -0.037,-0.156 0.108,-0.36 0.215,-0.227 l 0,0 c 0.03,0.037 0.046,0.095 0.054,0.152 l 0,0 c 0.128,0.051 0.201,0.185 0.288,0.318 l 0,0 c 0.062,0.096 0.156,0.181 0.163,0.313 l 0,0 c 0.005,0.088 -0.048,0.189 -0.093,0.26 l 0,0 c -0.136,0.218 -0.305,0.424 -0.427,0.645 l 0,0 c -0.039,0.073 -0.065,0.166 -0.097,0.256 l 0,0 c -0.042,0.12 -0.086,0.246 -0.127,0.372 l 0,0 c -0.047,0.14 -0.091,0.28 -0.131,0.414 l 0,0 c -0.057,0.186 -0.089,0.382 -0.122,0.57 l 0,0 c -0.034,0.192 -0.08,0.381 -0.127,0.562 l 0,0 c -0.094,0.37 -0.278,0.67 -0.428,0.98 l 0,0 c 0.077,0.108 0.114,0.279 0.091,0.448 l 0,0 c -0.013,0.092 -0.012,0.186 -0.016,0.273 l 0,0 c -0.01,0.181 -0.032,0.364 -0.015,0.565 l 0,0 c 0.019,0.213 0.049,0.412 0.05,0.603 l 0,0 c 0,0.185 -0.014,0.37 -0.058,0.528 l 0,0 c -0.085,0.302 -0.264,0.553 -0.503,0.731 l 0,0 c -0.194,0.146 -0.33,0.202 -0.545,0.236 l 0,0 c -0.085,0.02 -0.366,0.032 -0.448,0.058 l 0,0 c -0.227,0.061 -0.316,0.276 -0.392,0.333 l 0,0 c 0.066,-0.041 0.324,-0.21 0.417,-0.238 l 0,0 c 0.092,-0.029 0.204,-0.054 0.289,-0.022 l 0,0 c 0.068,0.026 0.123,0.082 0.157,0.15 l 0,0 c 0,0 0.041,0.068 0.045,0.142 l 0,0 c 0.02,0.132 0.156,0.066 0.173,0.203 l 0,0 c 0.076,0.008 0.137,0.108 0.14,0.188 l 0,0 c 0.124,-0.065 0.245,-0.048 0.284,0.057 l 0,0 c 0.016,0.043 0,0.111 -0.002,0.162 l 0,0 c -0.003,0.057 -0.001,0.115 -0.001,0.166 l 0,0 c 0.002,0.359 -0.009,0.344 0.156,0.463 l 0,0 c 0.081,0.058 0.155,0.092 0.199,0.227 l 0,0 c 0.024,0.068 0.025,0.147 0.045,0.224 l 0,0 c 0.029,0.108 0.053,0.212 0.066,0.31 l 0,0 0,0.002 c 0.029,-0.013 0.131,-0.035 0.227,-0.044 l 0,0 c -0.04,0.005 -0.136,0.034 -0.042,0.032 l 0,0 c 0.093,-0.001 0.13,0 0.21,0.053 l 0,0 c -0.069,-0.013 -0.061,-0.016 -0.118,-0.01 l 0,0 c 0.098,0.016 0.128,0.063 0.117,0.056 l 0,0 c -0.048,-0.025 -0.082,-0.01 -0.082,0.007 l 0,0 c -10e-4,0.009 0.012,0.02 0.045,0.019 l 0,0 c 0.068,-0.002 0.127,0.037 0.133,0.051 l 0,0 c -0.016,-0.013 -0.119,-0.029 -0.151,0.048 l 0,0 c -0.002,0.003 0.001,10e-4 0.009,-0.001 l 0,0 c 0.02,-0.006 0.066,-0.012 0.118,0.068 l 0,0 c -0.093,-0.035 -0.076,0.023 -0.052,0.033 l 0,0 c 0.017,0.007 0.044,0.016 0.06,0.036 l 0,0 c 0.033,0.044 0.045,0.085 -0.009,0.097 l 0,0 c 0.014,-0.014 0,-0.042 -0.014,-0.047 l 0,0 c -0.07,-0.027 -0.146,0.032 -0.202,0.108 l 0,0 c -0.005,0.023 0.026,0.003 0.047,-0.019 l 0,0 c -0.056,0.065 -0.117,0.1 -0.127,0.193 l 0,0 c -0.004,0.038 0.023,0 0.045,-0.036 l 0,0 c 0.015,-0.023 0.027,-0.045 0.03,-0.051 l 0,0 c -0.034,0.102 -0.067,0.228 -0.127,0.318 l 0,0 c 0.016,-0.026 0.039,-0.049 0.051,-0.076 l 0,0 c -0.028,0.08 -0.13,0.223 -0.173,0.303 l 0,0 c -0.004,0.035 0.034,0.002 0.059,-0.032 l 0,0 c -0.156,0.239 -0.238,0.26 -0.254,0.286 l 0,0 c 0.02,0.015 0.059,-0.032 0.072,-0.049 l 0,0 c -0.086,0.137 -0.318,0.278 -0.549,0.377 l 0,0 c 0.032,0.033 0.106,-0.027 0.156,-0.036 l 0,0 c -0.215,0.119 -0.504,0.231 -0.715,0.236 l 0,0 c 0.088,0.026 0.167,0.003 0.271,-0.034 l 0,0 c -0.193,0.137 -0.532,0.085 -0.578,0.039 l 0,0 c -0.023,0.011 0.065,0.06 0.095,0.063 l 0,0 c -0.108,-0.008 -0.176,-0.014 -0.238,-0.075 m -5.723,-16.661 c 0,0.001 -10e-4,0.002 -0.002,0.002 l 0,0 c -0.012,0.013 -0.013,0.031 -0.009,0.051 l 0,0 c 0.018,0.011 0.034,0.022 0.047,0.035 l 0,0 c 0.008,0.006 0.016,0.013 0.022,0.021 l 0,0 c 0.031,0.035 0.05,0.074 0.057,0.119 l 0,0 c 10e-4,0.002 0.002,0.005 0.003,0.008 l 0,0 c 0.016,-0.002 0.032,-0.003 0.048,-0.003 l 0,0 c -0.008,-0.019 -0.016,-0.036 -0.023,-0.052 l 0,0 c -0.007,-0.016 -0.014,-0.031 -0.021,-0.046 l 0,0 c -0.024,-0.05 -0.05,-0.086 -0.072,-0.109 l 0,0 c -0.007,-0.007 -0.014,-0.013 -0.02,-0.017 l 0,0 c -0.005,-0.004 -0.01,-0.006 -0.013,-0.007 l 0,0 c -0.005,-0.002 -0.009,-0.003 -0.012,-0.003 l 0,0 c -0.002,0 -0.003,0 -0.005,10e-4 m 6.826,-7.909 c -0.018,0.004 -0.036,0.008 -0.054,0.009 l 0,0 c -0.005,0.017 -0.007,0.034 -0.005,0.053 l 0,0 c 0.001,0.009 0.002,0.02 0.002,0.03 l 0,0 c 0.015,0.002 0.028,0.002 0.041,0.002 l 0,0 c 0.008,-10e-4 0.016,-10e-4 0.024,-0.002 l 0,0 c 0.016,-0.002 0.031,-0.006 0.042,-0.011 l 0,0 c 0.01,-0.004 0.017,-0.01 0.019,-0.017 l 0,0 c 0,-0.002 0.001,-0.003 0.001,-0.005 l 0,0 c -0.001,-0.027 -0.019,-0.048 -0.046,-0.066 l 0,0 c -0.008,0.003 -0.016,0.005 -0.024,0.007 m 0.827,23.248 c 0,0 0,0.001 0,0.002 l 0,0 c 0,-0.001 0,-0.001 0,-0.002"
               style="fill:url(#linearGradient1602);stroke:none"
               id="path1610"
               inkscape:connector-curvature="0" />
          </g>
        </g>
      </g>
    </g>
    <g
       transform="matrix(2.9955763,0,0,-2.9955763,-1255.6869,130.22796)"
       id="g1612">
      <g
         id="g1614">
        <g
           id="g1620">
          <g
             id="g1622">
            <path
               d="m 482.368,63.045 c 0,-0.875 0.71,-1.585 1.584,-1.585 l 0,0 c 0.876,0 1.586,0.71 1.586,1.585 l 0,0 c 0,0.876 -0.71,1.585 -1.586,1.585 l 0,0 c -0.874,0 -1.584,-0.709 -1.584,-1.585"
               style="fill:url(#linearGradient1624);stroke:none"
               id="path1632"
               inkscape:connector-curvature="0" />
          </g>
        </g>
      </g>
    </g>
    <g
       transform="matrix(2.9955763,0,0,-2.9955763,-1255.6869,130.22796)"
       id="g1634">
      <g
         id="g1636">
        <g
           id="g1642">
          <g
             id="g1644">
            <path
               d="m 483.327,79.902 c 0.022,-0.164 10e-4,-0.336 10e-4,-0.336 l 0,0 c 0.074,-0.094 0.164,-0.409 0.225,-0.651 l 0,0 62.255,0 c 0.52,0 0.965,-0.194 1.256,-0.547 l 0,0 c 0.29,-0.352 0.395,-0.827 0.296,-1.337 l 0,0 -3.026,-15.546 c -0.218,-1.123 -1.369,-2.072 -2.513,-2.072 l 0,0 -62.142,0 c -1.177,0 -2.505,0.936 -2.902,2.043 l 0,0 -5.644,15.749 c -0.17,0.475 -0.142,0.909 0.078,1.223 l 0,0 c 0.222,0.314 0.621,0.487 1.126,0.487 l 0,0 3.774,0 c -0.066,0.244 -0.113,0.781 -0.129,0.987 l 0,0 -3.645,0 c -0.823,0 -1.527,-0.33 -1.932,-0.905 l 0,0 c -0.406,-0.576 -0.479,-1.35 -0.201,-2.125 l 0,0 5.643,-15.748 c 0.543,-1.513 2.226,-2.698 3.832,-2.698 l 0,0 62.142,0 c 1.612,0 3.174,1.288 3.483,2.871 l 0,0 3.025,15.546 c 0.156,0.805 -0.022,1.57 -0.503,2.154 l 0,0 c -0.482,0.583 -1.198,0.905 -2.018,0.905 l 0,0 -62.481,0 z"
               style="fill:url(#linearGradient1646);stroke:none"
               id="path1654"
               inkscape:connector-curvature="0" />
          </g>
        </g>
      </g>
    </g>
  </g>
</svg>
