<?xml version="1.0" encoding="utf-8"?>
<!-- Generator: Adobe Illustrator 13.0.2, SVG Export Plug-In . SVG Version: 6.00 Build 14948)  -->
<!DOCTYPE svg PUBLIC "-//W3C//DTD SVG 1.0//EN" "http://www.w3.org/TR/2001/REC-SVG-20010904/DTD/svg10.dtd">
<svg version="1.0" id="Ebene_1" xmlns="http://www.w3.org/2000/svg" xmlns:xlink="http://www.w3.org/1999/xlink" x="0px" y="0px"
	 width="316px" height="316px" viewBox="0 0 517.432 517.367" enable-background="new 0 0 517.432 517.367"
	 xml:space="preserve">
<path fill-rule="evenodd" clip-rule="evenodd" fill="#217346" d="M258.716,4.232c140.161,0,254.419,114.322,254.419,254.483
	c0,140.098-114.258,254.419-254.419,254.419S4.296,398.813,4.296,258.715C4.296,118.554,118.555,4.232,258.716,4.232L258.716,4.232z
	"/>
<path fill-rule="evenodd" clip-rule="evenodd" fill="#EE9F16" d="M258.716,0c71.235,0,135.93,29.045,182.801,75.916
	c46.87,46.871,75.915,111.501,75.915,182.8c0,71.235-29.045,135.93-75.915,182.737c-46.871,46.87-111.565,75.915-182.801,75.915
	c-71.235,0-135.93-29.045-182.799-75.915C29.046,394.646,0,329.95,0,258.715c0-71.298,29.046-135.929,75.917-182.8
	C122.786,29.045,187.481,0,258.716,0L258.716,0z M435.489,81.942C390.157,36.612,327.643,8.528,258.716,8.528
	c-68.862,0-131.441,28.084-176.709,73.415C36.676,127.274,8.592,189.79,8.592,258.715c0,68.863,28.083,131.377,73.415,176.709
	c45.268,45.331,107.847,73.414,176.709,73.414c68.927,0,131.441-28.083,176.773-73.414c45.267-45.332,73.414-107.847,73.414-176.709
	C508.903,189.79,480.756,127.274,435.489,81.942L435.489,81.942z"/>
<path fill-rule="evenodd" clip-rule="evenodd" fill="#217346" d="M258.716,78.031c99.511,0,180.685,81.173,180.685,180.684
	c0,99.447-81.174,180.621-180.685,180.621s-180.62-81.174-180.62-180.621C78.096,159.205,159.205,78.031,258.716,78.031
	L258.716,78.031z"/>
<path fill-rule="evenodd" clip-rule="evenodd" fill="#EE9F16" d="M258.716,73.736c50.91,0,97.139,20.774,130.672,54.307
	c33.471,33.469,54.244,79.698,54.244,130.672c0,50.91-20.773,97.139-54.244,130.608c-33.533,33.534-79.762,54.308-130.672,54.308
	s-97.139-20.773-130.673-54.308C94.575,355.854,73.8,309.625,73.8,258.715c0-50.974,20.774-97.203,54.243-130.672
	C161.577,94.51,207.806,73.736,258.716,73.736L258.716,73.736z M383.36,134.071c-31.994-31.931-76.043-51.744-124.645-51.744
	c-48.537,0-92.65,19.813-124.581,51.744c-31.995,31.931-51.807,76.044-51.807,124.645c0,48.538,19.812,92.651,51.807,124.582
	c31.93,31.93,76.044,51.743,124.581,51.743c48.602,0,92.65-19.813,124.645-51.743c31.931-31.931,51.744-76.044,51.744-124.582
	C435.104,210.115,415.291,166.001,383.36,134.071L383.36,134.071z"/>
<polygon fill-rule="evenodd" clip-rule="evenodd" fill="#EE9F16" points="242.558,378.68 280.003,378.68 280.003,275.515 
	383.169,275.515 383.169,238.005 280.003,238.005 280.003,133.622 242.558,133.622 242.558,238.005 139.392,238.005 
	139.392,275.515 242.558,275.515 242.558,378.68 "/>
<path fill="none" stroke="#EE9F16" stroke-width="17.098" stroke-miterlimit="2.6131" d="M261.281,179.786
	c42.061,0,76.3,34.304,76.3,76.365c0,41.998-34.239,76.3-76.3,76.3c-42.062,0-76.365-34.303-76.365-76.3
	C184.917,214.09,219.22,179.786,261.281,179.786L261.281,179.786z"/>
<path fill-rule="evenodd" clip-rule="evenodd" fill="#7DB245" d="M262.39,120.462c-0.37-1.269-0.099-4.23-0.099-4.23
	c0.102-0.709,0.001-1.604,0.838-1.572c0.899,0.029,2.271,2.35,2.87,2.906c1.067,1.049,2.321,1.963,3.69,2.489
	c2.342,0.872,5.688,1.128,7.61-0.613c1.053-1.002,1.829-2.508,1.839-3.92c0.105-2.25-1.883-3.905-0.943-6.188
	c0.767-1.762,2.642-3.053,2.627-5.105c-0.049-2.951-1.989-5.058-4.999-4.878c-1.728,0.13-2.977,1.013-4.352,1.964
	c-1.127,0.749-4.121,2.981-2.827-0.085c1.174-2.868,2.878-5.244,3.01-8.521c0.16-2.509-1.133-4.448-3.657-4.993
	c-2.265-0.491-3.14,1.789-5.11,2.25c-1.776,0.517-3.063-1.23-4.502-1.946c-1.373-0.653-2.659-0.732-4.046-0.101
	c-5.554,2.394-2.033,8.868-0.23,12.393c0.48,0.815,2.794,4.255,0.315,3.196c-1.175-0.531-2.186-1.776-3.299-2.376
	c-1.18-0.66-2.609-1.118-3.962-1.259c-1.483-0.2-2.757,0.042-3.805,1.172c-3.021,3.197,0.536,5.626,0.983,8.881
	c0.167,1.021-0.577,1.69-0.863,2.601c-0.223,0.907-0.177,2.06-0.079,2.954c0.433,4.604,5.44,6.336,9.065,3.824
	c1.624-1.154,2.442-3.238,4.066-4.392c1.126-0.748,2.917-0.881,2.795,0.919c0,0,0.317,3.261-0.21,4.564
	c-1.153,0.044-3.209-0.005-4.076,0.797c-1.181,1.008,0.808,0.996,1.708,1.026c1.35,0.076,2.26,0.362,3.137,1.484
	c0.609,0.81,1.389,2.77,2.669,2.657c1.406-0.119,0.992-2.541,1.895-2.447c0.451,0.047,0.426,1.074,1.254,0.914
	c0.7-0.155,0.615-0.664,0.658-1.243C266.583,121.071,264.443,120.512,262.39,120.462L262.39,120.462z"/>
<path fill-rule="evenodd" clip-rule="evenodd" fill="#7DB245" d="M107.897,272.242c-0.369-1.269-0.098-4.23-0.098-4.23
	c0.102-0.71,0.003-1.604,0.838-1.572c0.9,0.029,2.272,2.352,2.87,2.906c1.067,1.05,2.322,1.964,3.69,2.489
	c2.342,0.873,5.689,1.127,7.611-0.613c1.053-1.003,1.829-2.51,1.84-3.921c0.105-2.249-1.883-3.905-0.944-6.189
	c0.766-1.761,2.642-3.052,2.627-5.104c-0.049-2.949-1.991-5.056-5-4.876c-1.728,0.13-2.978,1.012-4.352,1.964
	c-1.126,0.749-4.12,2.981-2.826-0.084c1.173-2.868,2.879-5.243,3.01-8.521c0.16-2.509-1.134-4.448-3.657-4.993
	c-2.264-0.49-3.139,1.789-5.111,2.25c-1.776,0.517-3.062-1.23-4.501-1.945c-1.373-0.653-2.66-0.731-4.047-0.101
	c-5.554,2.394-2.033,8.869-0.23,12.393c0.481,0.815,2.795,4.256,0.316,3.196c-1.176-0.533-2.186-1.777-3.3-2.376
	c-1.181-0.661-2.61-1.119-3.962-1.26c-1.484-0.199-2.758,0.042-3.806,1.173c-3.021,3.196,0.537,5.626,0.983,8.881
	c0.167,1.019-0.578,1.689-0.862,2.6c-0.223,0.906-0.178,2.06-0.08,2.954c0.434,4.604,5.441,6.336,9.066,3.822
	c1.624-1.152,2.442-3.237,4.066-4.39c1.126-0.75,2.917-0.883,2.793,0.919c0,0,0.318,3.26-0.209,4.563
	c-1.153,0.045-3.208-0.005-4.075,0.798c-1.181,1.008,0.807,0.996,1.708,1.025c1.351,0.076,2.259,0.363,3.137,1.484
	c0.608,0.811,1.39,2.77,2.668,2.657c1.407-0.118,0.994-2.541,1.895-2.448c0.451,0.048,0.426,1.075,1.254,0.915
	c0.7-0.155,0.616-0.665,0.658-1.244C112.092,272.852,109.953,272.293,107.897,272.242L107.897,272.242z"/>
<path fill-rule="evenodd" clip-rule="evenodd" fill="#7DB245" d="M412.362,272.242c-0.369-1.269-0.098-4.23-0.098-4.23
	c0.101-0.71,0.002-1.604,0.838-1.572c0.898,0.029,2.271,2.352,2.869,2.906c1.068,1.05,2.321,1.964,3.689,2.489
	c2.344,0.873,5.69,1.127,7.612-0.613c1.052-1.003,1.829-2.51,1.839-3.921c0.105-2.249-1.883-3.905-0.943-6.189
	c0.768-1.761,2.642-3.052,2.627-5.104c-0.048-2.949-1.99-5.056-4.999-4.876c-1.728,0.13-2.978,1.012-4.353,1.964
	c-1.126,0.749-4.12,2.981-2.826-0.084c1.174-2.868,2.879-5.243,3.01-8.521c0.16-2.509-1.133-4.448-3.657-4.993
	c-2.264-0.49-3.139,1.789-5.11,2.25c-1.777,0.517-3.063-1.23-4.503-1.945c-1.372-0.653-2.658-0.731-4.046-0.101
	c-5.555,2.394-2.033,8.869-0.229,12.393c0.479,0.815,2.794,4.256,0.315,3.196c-1.176-0.533-2.187-1.777-3.3-2.376
	c-1.181-0.661-2.61-1.119-3.963-1.26c-1.483-0.199-2.758,0.042-3.805,1.173c-3.021,3.196,0.536,5.626,0.982,8.881
	c0.168,1.019-0.577,1.689-0.863,2.6c-0.221,0.906-0.178,2.06-0.079,2.954c0.434,4.604,5.441,6.336,9.066,3.822
	c1.624-1.152,2.442-3.237,4.066-4.39c1.126-0.75,2.918-0.883,2.794,0.919c0,0,0.316,3.26-0.21,4.563
	c-1.152,0.045-3.208-0.005-4.075,0.798c-1.181,1.008,0.808,0.996,1.707,1.025c1.351,0.076,2.26,0.363,3.137,1.484
	c0.608,0.811,1.391,2.77,2.67,2.657c1.406-0.118,0.992-2.541,1.895-2.448c0.45,0.048,0.426,1.075,1.254,0.915
	c0.7-0.155,0.616-0.665,0.658-1.244C416.557,272.852,414.416,272.293,412.362,272.242L412.362,272.242z"/>
<path fill-rule="evenodd" clip-rule="evenodd" fill="#7DB245" d="M262.388,425.83c-0.368-1.269-0.097-4.231-0.097-4.231
	c0.102-0.709,0.001-1.604,0.838-1.571c0.899,0.029,2.271,2.351,2.87,2.905c1.066,1.05,2.321,1.964,3.69,2.489
	c2.342,0.872,5.688,1.129,7.61-0.613c1.053-1.002,1.829-2.508,1.839-3.92c0.105-2.25-1.882-3.906-0.943-6.188
	c0.767-1.762,2.642-3.052,2.627-5.105c-0.049-2.949-1.989-5.057-4.999-4.877c-1.728,0.131-2.977,1.012-4.352,1.964
	c-1.127,0.749-4.121,2.981-2.827-0.084c1.174-2.869,2.878-5.243,3.01-8.521c0.16-2.508-1.133-4.448-3.657-4.993
	c-2.265-0.49-3.139,1.789-5.11,2.249c-1.776,0.518-3.063-1.229-4.502-1.943c-1.373-0.654-2.659-0.732-4.046-0.102
	c-5.554,2.395-2.033,8.869-0.23,12.392c0.48,0.816,2.794,4.257,0.315,3.197c-1.175-0.533-2.186-1.777-3.299-2.376
	c-1.18-0.661-2.609-1.119-3.962-1.26c-1.483-0.199-2.757,0.042-3.805,1.173c-3.021,3.197,0.536,5.626,0.982,8.881
	c0.167,1.021-0.577,1.69-0.863,2.599c-0.223,0.908-0.177,2.062-0.079,2.956c0.433,4.603,5.44,6.335,9.065,3.823
	c1.624-1.153,2.442-3.238,4.065-4.392c1.127-0.749,2.919-0.881,2.794,0.92c0,0,0.318,3.26-0.209,4.564
	c-1.154,0.044-3.209-0.006-4.076,0.797c-1.18,1.008,0.808,0.996,1.708,1.025c1.35,0.076,2.26,0.362,3.137,1.484
	c0.609,0.811,1.389,2.769,2.669,2.656c1.406-0.119,0.992-2.54,1.895-2.446c0.451,0.046,0.426,1.073,1.254,0.914
	c0.7-0.155,0.615-0.666,0.658-1.245C266.583,426.439,264.443,425.88,262.388,425.83L262.388,425.83z"/>
<path fill-rule="evenodd" clip-rule="evenodd" fill="#7DB245" d="M179.27,145.759c-0.369-1.269-0.098-4.231-0.098-4.231
	c0.102-0.711,0.002-1.604,0.838-1.573c0.899,0.03,2.272,2.351,2.871,2.906c1.066,1.05,2.321,1.964,3.688,2.489
	c2.344,0.873,5.69,1.13,7.613-0.613c1.052-1.004,1.828-2.509,1.838-3.921c0.107-2.25-1.882-3.906-0.942-6.188
	c0.766-1.762,2.642-3.053,2.627-5.105c-0.049-2.95-1.99-5.058-5-4.878c-1.727,0.131-2.976,1.012-4.352,1.963
	c-1.125,0.75-4.12,2.982-2.826-0.084c1.173-2.867,2.878-5.244,3.01-8.521c0.161-2.509-1.133-4.449-3.656-4.994
	c-2.265-0.49-3.14,1.789-5.111,2.25c-1.777,0.518-3.063-1.229-4.502-1.944c-1.373-0.653-2.659-0.732-4.046-0.102
	c-5.555,2.395-2.034,8.869-0.231,12.393c0.481,0.816,2.794,4.256,0.316,3.195c-1.176-0.532-2.187-1.776-3.3-2.375
	c-1.18-0.659-2.609-1.119-3.962-1.259c-1.483-0.2-2.757,0.042-3.805,1.172c-3.022,3.196,0.536,5.626,0.982,8.881
	c0.168,1.021-0.577,1.691-0.862,2.6c-0.223,0.907-0.179,2.061-0.08,2.955c0.434,4.604,5.441,6.335,9.066,3.823
	c1.625-1.153,2.442-3.238,4.066-4.392c1.127-0.75,2.918-0.882,2.794,0.92c0,0,0.318,3.26-0.209,4.563
	c-1.153,0.044-3.208-0.005-4.076,0.798c-1.181,1.008,0.808,0.995,1.708,1.025c1.351,0.077,2.261,0.362,3.137,1.484
	c0.608,0.811,1.389,2.77,2.668,2.657c1.407-0.118,0.994-2.541,1.896-2.447c0.451,0.048,0.425,1.075,1.253,0.915
	c0.7-0.155,0.617-0.665,0.659-1.244C183.465,146.368,181.326,145.809,179.27,145.759L179.27,145.759z"/>
<path fill-rule="evenodd" clip-rule="evenodd" fill="#7DB245" d="M127.773,200.87c-0.369-1.27-0.098-4.231-0.098-4.231
	c0.102-0.71,0.003-1.604,0.838-1.572c0.9,0.03,2.272,2.351,2.871,2.906c1.067,1.05,2.321,1.964,3.688,2.489
	c2.344,0.872,5.692,1.129,7.613-0.613c1.052-1.003,1.829-2.508,1.838-3.921c0.106-2.25-1.882-3.905-0.942-6.188
	c0.766-1.761,2.642-3.052,2.626-5.104c-0.049-2.95-1.991-5.058-5-4.877c-1.728,0.13-2.977,1.012-4.352,1.963
	c-1.126,0.75-4.12,2.981-2.826-0.083c1.173-2.869,2.878-5.245,3.008-8.521c0.161-2.509-1.133-4.448-3.656-4.992
	c-2.265-0.491-3.139,1.788-5.11,2.249c-1.777,0.517-3.063-1.23-4.502-1.945c-1.373-0.654-2.659-0.733-4.046-0.102
	c-5.555,2.395-2.034,8.869-0.23,12.393c0.481,0.815,2.794,4.256,0.314,3.195c-1.175-0.532-2.185-1.777-3.299-2.375
	c-1.181-0.66-2.61-1.119-3.963-1.26c-1.483-0.2-2.757,0.042-3.804,1.172c-3.021,3.196,0.537,5.626,0.982,8.882
	c0.167,1.02-0.577,1.689-0.863,2.6c-0.222,0.906-0.178,2.06-0.079,2.954c0.434,4.604,5.44,6.337,9.066,3.823
	c1.624-1.153,2.443-3.237,4.066-4.39c1.126-0.75,2.918-0.883,2.794,0.919c0,0,0.317,3.259-0.21,4.563
	c-1.153,0.044-3.209-0.005-4.076,0.799c-1.179,1.007,0.809,0.996,1.708,1.025c1.35,0.076,2.26,0.363,3.136,1.484
	c0.608,0.811,1.39,2.77,2.669,2.657c1.407-0.118,0.994-2.541,1.895-2.447c0.451,0.046,0.427,1.073,1.254,0.914
	c0.7-0.155,0.616-0.666,0.657-1.244C131.967,201.479,129.828,200.919,127.773,200.87L127.773,200.87z"/>
<path fill-rule="evenodd" clip-rule="evenodd" fill="#7DB245" d="M340.086,145.759c-0.369-1.269-0.099-4.231-0.099-4.231
	c0.102-0.711,0.003-1.604,0.838-1.573c0.899,0.03,2.273,2.351,2.871,2.906c1.066,1.05,2.32,1.964,3.688,2.489
	c2.344,0.873,5.689,1.13,7.613-0.613c1.051-1.004,1.828-2.509,1.839-3.921c0.105-2.25-1.883-3.906-0.944-6.188
	c0.767-1.762,2.642-3.053,2.628-5.105c-0.05-2.95-1.992-5.058-5.001-4.878c-1.727,0.131-2.978,1.012-4.352,1.963
	c-1.126,0.75-4.12,2.982-2.826-0.084c1.174-2.867,2.879-5.244,3.01-8.521c0.16-2.509-1.133-4.449-3.656-4.994
	c-2.265-0.49-3.14,1.789-5.11,2.25c-1.778,0.518-3.064-1.229-4.504-1.944c-1.371-0.653-2.658-0.732-4.046-0.102
	c-5.555,2.395-2.033,8.869-0.23,12.393c0.48,0.816,2.795,4.256,0.316,3.195c-1.177-0.532-2.187-1.776-3.301-2.375
	c-1.18-0.659-2.609-1.119-3.962-1.259c-1.483-0.2-2.758,0.042-3.805,1.172c-3.021,3.196,0.536,5.626,0.982,8.881
	c0.167,1.021-0.576,1.691-0.863,2.6c-0.222,0.907-0.178,2.061-0.079,2.955c0.434,4.604,5.441,6.335,9.065,3.823
	c1.624-1.153,2.443-3.238,4.067-4.392c1.126-0.75,2.918-0.882,2.795,0.92c0,0,0.316,3.26-0.211,4.563
	c-1.152,0.044-3.208-0.005-4.075,0.798c-1.181,1.008,0.808,0.995,1.707,1.025c1.35,0.077,2.26,0.362,3.137,1.484
	c0.608,0.811,1.39,2.77,2.669,2.657c1.407-0.118,0.993-2.541,1.895-2.447c0.451,0.048,0.427,1.075,1.255,0.915
	c0.7-0.155,0.616-0.665,0.657-1.244C344.28,146.368,342.141,145.809,340.086,145.759L340.086,145.759z"/>
<path fill-rule="evenodd" clip-rule="evenodd" fill="#7DB245" d="M390.656,200.87c-0.369-1.27-0.098-4.231-0.098-4.231
	c0.102-0.71,0.004-1.604,0.839-1.572c0.898,0.03,2.271,2.351,2.869,2.906c1.067,1.05,2.321,1.964,3.69,2.489
	c2.343,0.872,5.688,1.129,7.611-0.613c1.052-1.003,1.829-2.508,1.838-3.921c0.106-2.25-1.882-3.905-0.942-6.188
	c0.767-1.761,2.642-3.052,2.626-5.104c-0.047-2.95-1.99-5.058-4.998-4.877c-1.729,0.13-2.978,1.012-4.353,1.963
	c-1.127,0.75-4.12,2.981-2.826-0.083c1.174-2.869,2.879-5.245,3.009-8.521c0.161-2.509-1.133-4.448-3.656-4.992
	c-2.264-0.491-3.14,1.788-5.111,2.249c-1.776,0.517-3.063-1.23-4.502-1.945c-1.372-0.654-2.658-0.733-4.046-0.102
	c-5.555,2.395-2.034,8.869-0.23,12.393c0.48,0.815,2.794,4.256,0.315,3.195c-1.175-0.532-2.186-1.777-3.299-2.375
	c-1.182-0.66-2.61-1.119-3.963-1.26c-1.482-0.2-2.757,0.042-3.805,1.172c-3.021,3.196,0.537,5.626,0.982,8.882
	c0.167,1.02-0.577,1.689-0.862,2.6c-0.223,0.906-0.179,2.06-0.08,2.954c0.434,4.604,5.441,6.337,9.065,3.823
	c1.625-1.153,2.442-3.237,4.067-4.39c1.125-0.75,2.917-0.883,2.794,0.919c0,0,0.317,3.259-0.21,4.563
	c-1.153,0.044-3.208-0.005-4.076,0.799c-1.181,1.007,0.809,0.996,1.708,1.025c1.351,0.076,2.26,0.363,3.137,1.484
	c0.608,0.811,1.39,2.77,2.669,2.657c1.406-0.118,0.993-2.541,1.895-2.447c0.451,0.046,0.428,1.073,1.255,0.914
	c0.7-0.155,0.614-0.666,0.657-1.244C394.851,201.479,392.713,200.919,390.656,200.87L390.656,200.87z"/>
<path fill-rule="evenodd" clip-rule="evenodd" fill="#7DB245" d="M127.773,341.93c-0.369-1.27-0.098-4.231-0.098-4.231
	c0.102-0.71,0.003-1.604,0.838-1.572c0.9,0.03,2.272,2.351,2.871,2.905c1.067,1.051,2.321,1.965,3.688,2.49
	c2.344,0.872,5.692,1.128,7.613-0.613c1.052-1.004,1.829-2.509,1.838-3.921c0.106-2.25-1.882-3.906-0.942-6.188
	c0.766-1.761,2.642-3.052,2.626-5.104c-0.049-2.95-1.991-5.058-5-4.877c-1.728,0.13-2.977,1.012-4.352,1.963
	c-1.126,0.749-4.12,2.981-2.826-0.084c1.173-2.868,2.878-5.243,3.008-8.521c0.161-2.51-1.133-4.448-3.656-4.994
	c-2.265-0.49-3.139,1.789-5.11,2.25c-1.777,0.519-3.063-1.229-4.502-1.945c-1.373-0.652-2.659-0.731-4.046-0.101
	c-5.555,2.396-2.034,8.869-0.23,12.393c0.481,0.816,2.794,4.256,0.314,3.196c-1.175-0.533-2.185-1.776-3.299-2.376
	c-1.181-0.661-2.61-1.119-3.963-1.26c-1.483-0.199-2.757,0.042-3.804,1.172c-3.021,3.196,0.537,5.627,0.982,8.882
	c0.167,1.021-0.577,1.69-0.863,2.601c-0.222,0.906-0.178,2.06-0.079,2.953c0.434,4.604,5.44,6.337,9.066,3.824
	c1.624-1.153,2.443-3.238,4.066-4.391c1.126-0.75,2.918-0.883,2.794,0.919c0,0,0.317,3.26-0.21,4.563
	c-1.153,0.044-3.209-0.005-4.076,0.798c-1.179,1.008,0.809,0.996,1.708,1.025c1.35,0.076,2.26,0.362,3.136,1.483
	c0.608,0.812,1.39,2.771,2.669,2.657c1.407-0.118,0.994-2.541,1.895-2.447c0.451,0.047,0.427,1.074,1.254,0.914
	c0.7-0.155,0.616-0.665,0.657-1.243C131.967,342.538,129.828,341.977,127.773,341.93L127.773,341.93z"/>
<path fill-rule="evenodd" clip-rule="evenodd" fill="#7DB245" d="M390.656,341.93c-0.369-1.27-0.098-4.231-0.098-4.231
	c0.102-0.71,0.004-1.604,0.839-1.572c0.898,0.03,2.271,2.351,2.869,2.905c1.067,1.051,2.321,1.965,3.69,2.49
	c2.343,0.872,5.688,1.128,7.611-0.613c1.052-1.004,1.829-2.509,1.838-3.921c0.106-2.25-1.882-3.906-0.942-6.188
	c0.767-1.761,2.642-3.052,2.626-5.104c-0.047-2.95-1.99-5.058-4.998-4.877c-1.729,0.13-2.978,1.012-4.353,1.963
	c-1.127,0.749-4.12,2.981-2.826-0.084c1.174-2.868,2.879-5.243,3.009-8.521c0.161-2.51-1.133-4.448-3.656-4.994
	c-2.264-0.49-3.14,1.789-5.111,2.25c-1.776,0.519-3.063-1.229-4.502-1.945c-1.372-0.652-2.658-0.731-4.046-0.101
	c-5.555,2.396-2.034,8.869-0.23,12.393c0.48,0.816,2.794,4.256,0.315,3.196c-1.175-0.533-2.186-1.776-3.299-2.376
	c-1.182-0.661-2.61-1.119-3.963-1.26c-1.482-0.199-2.757,0.042-3.805,1.172c-3.021,3.196,0.537,5.627,0.982,8.882
	c0.167,1.021-0.577,1.69-0.862,2.601c-0.223,0.906-0.179,2.06-0.08,2.953c0.434,4.604,5.441,6.337,9.065,3.824
	c1.625-1.153,2.442-3.238,4.067-4.391c1.125-0.75,2.917-0.883,2.794,0.919c0,0,0.317,3.26-0.21,4.563
	c-1.153,0.044-3.208-0.005-4.076,0.798c-1.181,1.008,0.809,0.996,1.708,1.025c1.351,0.076,2.26,0.362,3.137,1.483
	c0.608,0.812,1.39,2.771,2.669,2.657c1.406-0.118,0.993-2.541,1.895-2.447c0.451,0.047,0.428,1.074,1.255,0.914
	c0.7-0.155,0.614-0.665,0.657-1.243C394.851,342.538,392.713,341.977,390.656,341.93L390.656,341.93z"/>
<path fill-rule="evenodd" clip-rule="evenodd" fill="#7DB245" d="M179.27,399.521c-0.369-1.27-0.098-4.231-0.098-4.231
	c0.102-0.709,0.002-1.604,0.838-1.572c0.899,0.03,2.272,2.352,2.871,2.906c1.066,1.049,2.321,1.964,3.688,2.488
	c2.344,0.872,5.69,1.129,7.613-0.612c1.052-1.003,1.828-2.509,1.838-3.921c0.107-2.25-1.882-3.906-0.942-6.188
	c0.766-1.761,2.642-3.053,2.627-5.105c-0.049-2.95-1.99-5.057-5-4.878c-1.727,0.131-2.976,1.013-4.352,1.964
	c-1.125,0.749-4.12,2.981-2.826-0.084c1.173-2.868,2.878-5.244,3.01-8.521c0.161-2.509-1.133-4.447-3.656-4.992
	c-2.265-0.491-3.14,1.788-5.111,2.249c-1.777,0.518-3.063-1.23-4.502-1.945c-1.373-0.652-2.659-0.731-4.046-0.101
	c-5.555,2.395-2.034,8.868-0.231,12.393c0.481,0.816,2.794,4.256,0.316,3.196c-1.176-0.532-2.187-1.777-3.3-2.376
	c-1.18-0.66-2.609-1.118-3.962-1.26c-1.483-0.199-2.757,0.042-3.805,1.172c-3.022,3.197,0.536,5.626,0.982,8.883
	c0.168,1.02-0.577,1.689-0.862,2.6c-0.223,0.906-0.179,2.06-0.08,2.953c0.434,4.604,5.441,6.337,9.066,3.824
	c1.625-1.154,2.442-3.238,4.066-4.391c1.127-0.749,2.918-0.882,2.794,0.919c0,0,0.318,3.26-0.209,4.563
	c-1.153,0.044-3.208-0.005-4.076,0.798c-1.181,1.008,0.808,0.996,1.708,1.026c1.351,0.076,2.261,0.362,3.137,1.483
	c0.608,0.811,1.389,2.77,2.668,2.656c1.407-0.118,0.994-2.54,1.896-2.446c0.451,0.046,0.425,1.074,1.253,0.914
	c0.7-0.156,0.617-0.666,0.659-1.245C183.465,400.128,181.326,399.569,179.27,399.521L179.27,399.521z"/>
<path fill-rule="evenodd" clip-rule="evenodd" fill="#7DB245" d="M339.565,399.521c-0.369-1.27-0.099-4.231-0.099-4.231
	c0.102-0.709,0.003-1.604,0.838-1.572c0.899,0.03,2.272,2.352,2.871,2.906c1.067,1.049,2.322,1.964,3.688,2.488
	c2.344,0.872,5.689,1.129,7.612-0.612c1.053-1.003,1.83-2.509,1.839-3.921c0.105-2.25-1.882-3.906-0.943-6.188
	c0.766-1.761,2.643-3.053,2.627-5.105c-0.049-2.95-1.99-5.057-4.999-4.878c-1.728,0.131-2.978,1.013-4.353,1.964
	c-1.127,0.749-4.12,2.981-2.826-0.084c1.173-2.868,2.879-5.244,3.01-8.521c0.16-2.509-1.134-4.447-3.657-4.992
	c-2.264-0.491-3.14,1.788-5.11,2.249c-1.777,0.518-3.063-1.23-4.503-1.945c-1.372-0.652-2.658-0.731-4.046-0.101
	c-5.554,2.395-2.033,8.868-0.23,12.393c0.481,0.816,2.796,4.256,0.316,3.196c-1.177-0.532-2.188-1.777-3.301-2.376
	c-1.18-0.66-2.608-1.118-3.962-1.26c-1.483-0.199-2.757,0.042-3.806,1.172c-3.021,3.197,0.537,5.626,0.983,8.883
	c0.167,1.02-0.577,1.689-0.862,2.6c-0.223,0.906-0.179,2.06-0.08,2.953c0.434,4.604,5.44,6.337,9.065,3.824
	c1.624-1.154,2.443-3.238,4.067-4.391c1.126-0.749,2.917-0.882,2.794,0.919c0,0,0.317,3.26-0.21,4.563
	c-1.152,0.044-3.208-0.005-4.075,0.798c-1.181,1.008,0.808,0.996,1.707,1.026c1.351,0.076,2.26,0.362,3.137,1.483
	c0.609,0.811,1.39,2.77,2.669,2.656c1.407-0.118,0.993-2.54,1.896-2.446c0.451,0.046,0.426,1.074,1.254,0.914
	c0.699-0.156,0.616-0.666,0.657-1.245C343.759,400.128,341.62,399.569,339.565,399.521L339.565,399.521z"/>
<path fill-rule="evenodd" clip-rule="evenodd" fill="#FFFFFF" d="M31.813,236.076l27.851,3.914l1.563-11.127
	c0.668-4.742,0-8.522-2.017-11.3c-2.017-2.792-5.33-4.502-9.925-5.156c-4.568-0.641-8.202,0.093-10.873,2.217
	c-2.685,2.111-4.354,5.557-5.036,10.326L31.813,236.076L31.813,236.076z M26.323,225.657c0.694-4.982,1.603-8.803,2.712-11.448
	c1.108-2.645,2.645-4.875,4.608-6.679c2.057-1.897,4.568-3.219,7.521-3.981c2.952-0.761,6.117-0.895,9.497-0.427
	c3.433,0.481,6.465,1.496,9.097,3.046c2.632,1.536,4.688,3.5,6.158,5.891c1.402,2.284,2.257,4.849,2.604,7.694
	c0.334,2.858,0.147,6.772-0.548,11.755l-2.898,20.584l-1.042-0.147c-0.093-0.855-0.267-1.43-0.521-1.71
	c-0.267-0.294-0.761-0.48-1.482-0.588l-34.997-4.916c-0.774-0.106-1.322-0.053-1.656,0.161c-0.334,0.213-0.654,0.708-0.948,1.482
	l-1.002-0.134L26.323,225.657L26.323,225.657z"/>
<path fill-rule="evenodd" clip-rule="evenodd" fill="#FFFFFF" d="M41.249,166.229c2.899-6.492,7.146-10.993,12.757-13.491
	c5.61-2.498,11.273-2.471,16.991,0.08c5.717,2.538,9.524,6.759,11.434,12.623c1.91,5.877,1.429,12.035-1.443,18.487
	c-2.818,6.358-7.066,10.78-12.729,13.277c-5.677,2.498-11.341,2.485-17.004-0.04c-5.704-2.538-9.511-6.719-11.421-12.542
	C37.923,178.785,38.39,172.654,41.249,166.229L41.249,166.229z M54.66,188.924c3.914,1.736,7.614,1.856,11.114,0.374
	c3.513-1.496,6.211-4.368,8.108-8.629c1.883-4.234,2.204-8.162,0.961-11.781c-1.242-3.62-3.807-6.292-7.694-8.015
	c-3.9-1.736-7.627-1.857-11.153-0.347c-3.527,1.509-6.238,4.395-8.135,8.656c-1.857,4.181-2.164,8.082-0.908,11.714
	C48.208,184.516,50.772,187.188,54.66,188.924L54.66,188.924z"/>
<path fill-rule="evenodd" clip-rule="evenodd" fill="#FFFFFF" d="M74.942,133.249l19.556,15.842
	c0.628,0.508,1.135,0.748,1.496,0.735c0.374-0.027,0.881-0.281,1.509-0.774l0.815,0.654l-7.561,9.337l-0.815-0.654
	c0.361-0.788,0.508-1.363,0.428-1.75c-0.08-0.374-0.401-0.802-0.962-1.256l-27.463-22.24c-0.614-0.494-1.108-0.735-1.509-0.721
	c-0.4,0.014-0.921,0.28-1.576,0.788l-0.788-0.642l9.484-11.701l0.788,0.642c-0.187,0.347-0.267,0.681-0.267,1.015
	c0,0.32,0.12,0.587,0.347,0.801c0.228,0.187,0.508,0.307,0.828,0.347c0.334,0.054,0.788,0.04,1.376-0.013l32.459-3.139
	l-18.674-15.121c-0.627-0.508-1.135-0.761-1.496-0.734c-0.374,0.013-0.895,0.293-1.59,0.801l-0.788-0.641l7.561-9.337l0.788,0.641
	c-0.347,0.761-0.468,1.335-0.374,1.723c0.093,0.374,0.427,0.788,0.988,1.255l27.463,22.241c0.614,0.494,1.108,0.734,1.496,0.734
	c0.388-0.014,0.895-0.267,1.509-0.774l0.815,0.654l-8.723,10.766l-0.814-0.654c0.213-0.375,0.307-0.722,0.293-1.042
	c-0.026-0.307-0.133-0.562-0.361-0.735c-0.227-0.187-0.507-0.307-0.841-0.36c-0.348-0.054-0.789-0.054-1.336,0L74.942,133.249
	L74.942,133.249z"/>
<path fill-rule="evenodd" clip-rule="evenodd" fill="#FFFFFF" d="M150.284,88.755c0.668-0.494,1.042-0.922,1.108-1.296
	c0.067-0.36-0.066-0.908-0.387-1.643l0.815-0.614l6.906,9.163l-0.814,0.614c-0.615-0.521-1.136-0.788-1.537-0.828
	c-0.4-0.04-0.908,0.173-1.536,0.641l-30.535,23.015l-0.628-0.841c0.535-0.668,0.815-1.202,0.828-1.59
	c0.014-0.387-0.2-0.868-0.641-1.456l-21.265-28.211c-0.467-0.627-0.895-0.988-1.282-1.069c-0.388-0.08-0.961,0.053-1.71,0.388
	l-0.614-0.815l30.162-22.721c0.641-0.494,1.001-0.922,1.055-1.296c0.066-0.374-0.067-0.935-0.414-1.696l0.842-0.628l6.879,9.123
	l-0.842,0.628c-0.614-0.507-1.135-0.774-1.536-0.788c-0.387,0-0.882,0.213-1.469,0.654l-21.199,15.962l5.557,7.373L131.53,80.66
	c0.668-0.507,1.028-0.935,1.095-1.269c0.066-0.348-0.053-0.909-0.387-1.684l0.814-0.614l6.412,8.509l-0.814,0.615
	c-0.574-0.508-1.069-0.789-1.456-0.815c-0.401-0.027-0.922,0.2-1.576,0.694l-13.491,10.166l6.585,8.749L150.284,88.755
	L150.284,88.755z"/>
<path fill-rule="evenodd" clip-rule="evenodd" fill="#FFFFFF" d="M196.841,64.164c0.32,0.721,0.668,1.162,1.042,1.335
	c0.375,0.173,0.949,0.173,1.724,0l0.414,0.935c-2.538,3.526-5.477,6.692-8.803,9.497c-3.339,2.792-6.706,4.956-10.112,6.465
	c-6.412,2.859-12.569,3.327-18.487,1.403c-5.904-1.923-10.125-5.757-12.676-11.474c-2.578-5.784-2.551-11.527,0.08-17.218
	c2.645-5.677,7.374-10.045,14.186-13.077c3.446-1.536,7.08-2.538,10.887-3.005c3.807-0.454,5.757-0.708,5.851-0.748
	c0.253-0.121,0.734-0.428,1.442-0.908c0.147-0.093,0.281-0.188,0.388-0.254l1.055,0.133l-0.722,11.274l-1.015-0.147
	c0-0.067,0-0.12-0.013-0.174c-0.013-0.053-0.027-0.12-0.08-0.213c-0.467-1.082-2.391-1.549-5.744-1.429
	c-3.353,0.133-6.612,0.895-9.751,2.297c-4.341,1.923-7.32,4.755-8.95,8.496c-1.629,3.74-1.576,7.573,0.174,11.514
	c1.629,3.646,4.515,6.064,8.696,7.267c4.167,1.188,8.509,0.788,13.01-1.216c1.736-0.774,3.473-1.79,5.209-3.059
	c1.75-1.256,3.513-2.805,5.33-4.635l-2.337-5.25l-9.538,4.234c-0.722,0.32-1.149,0.654-1.31,0.988
	c-0.16,0.348-0.187,0.922-0.053,1.723l-0.935,0.414l-3.941-8.856l0.962-0.441c0.481,0.682,0.909,1.069,1.296,1.176
	c0.387,0.12,0.935,0.013,1.629-0.294l18.207-8.108l0.401,0.895c-0.628,0.454-1.002,0.882-1.136,1.296
	c-0.12,0.414-0.026,0.975,0.294,1.696L196.841,64.164L196.841,64.164z"/>
<path fill-rule="evenodd" clip-rule="evenodd" fill="#FFFFFF" d="M201.054,72.365l-0.2-1.042c1.362-0.668,2.297-2.07,2.805-4.208
	c0.04-0.201,0.093-0.374,0.133-0.547l9.097-35.051c0.107-0.388,0.16-0.654,0.174-0.814c0.013-0.147,0.013-0.281-0.014-0.415
	c-0.093-0.454-0.36-0.814-0.788-1.082c-0.441-0.253-1.042-0.414-1.79-0.48l-0.2-1.002l13.986-2.725l0.187,1.002
	c-0.708,0.414-1.175,0.762-1.402,1.068c-0.214,0.321-0.294,0.655-0.214,1.042c0.04,0.187,0.107,0.374,0.214,0.602
	c0.107,0.213,0.254,0.467,0.441,0.748l22.066,29.025c0.962,1.256,1.776,2.098,2.431,2.538c0.655,0.441,1.389,0.681,2.191,0.708
	l0.2,1.042l-14.867,2.885l-0.2-1.042c0.667-0.36,1.135-0.708,1.376-1.042c0.24-0.32,0.32-0.708,0.227-1.135
	c-0.026-0.187-0.093-0.374-0.187-0.561c-0.08-0.2-0.24-0.454-0.467-0.788l-4.221-5.744l-18.941,3.687l-1.616,6.879
	c-0.08,0.387-0.12,0.681-0.133,0.895c-0.014,0.214,0,0.415,0.026,0.602c0.094,0.427,0.307,0.748,0.655,0.961
	c0.347,0.214,0.895,0.361,1.656,0.454l0.201,1.042L201.054,72.365L201.054,72.365z M218.926,36.967l-4.194,15.922l13.705-2.671
	L218.926,36.967L218.926,36.967z"/>
<path fill-rule="evenodd" clip-rule="evenodd" fill="#FFFFFF" d="M287.068,57.618c0.842,0.027,1.39-0.093,1.657-0.32
	c0.253-0.227,0.493-0.734,0.681-1.523l1.055-0.013l-0.2,11.461l-1.055-0.027c-0.134-0.775-0.361-1.309-0.668-1.59
	c-0.308-0.28-0.842-0.427-1.604-0.44l-37.588-0.655l0.013-1.055c0.842-0.188,1.389-0.441,1.644-0.735
	c0.254-0.293,0.374-0.801,0.387-1.536l0.628-35.317c0.014-0.788-0.107-1.335-0.374-1.629c-0.254-0.307-0.775-0.561-1.577-0.761
	l0.014-1.015l13.21,0.241l-0.013,1.015c-0.789,0.16-1.323,0.401-1.604,0.695c-0.268,0.294-0.414,0.828-0.428,1.616l-0.547,31.137
	L287.068,57.618L287.068,57.618z"/>
<path fill-rule="evenodd" clip-rule="evenodd" fill="#FFFFFF" d="M366.413,79.859l1.001-0.106l1.323,10.699l-1.069,0.134
	c-0.173-0.374-0.307-0.641-0.414-0.788c-0.093-0.147-0.214-0.254-0.36-0.32c-0.28-0.147-1.216-0.134-2.832,0
	c-7.413,0.574-13.812-0.468-19.208-3.086c-6.278-3.072-10.593-7.493-12.93-13.25c-2.338-5.771-2.125-11.474,0.614-17.098
	c2.805-5.744,7.213-9.43,13.25-11.047c6.024-1.616,12.423-0.774,19.195,2.525c3.473,1.696,6.692,3.967,9.657,6.826
	c2.979,2.858,4.568,4.341,4.782,4.448c0.294,0.121,0.602,0.227,0.936,0.347c0.333,0.121,0.721,0.254,1.135,0.401l0.534,0.868
	l-9.47,5.958l-0.642-0.922c0.054-0.04,0.094-0.08,0.12-0.12c0.04-0.04,0.08-0.107,0.12-0.2c0.521-1.055-0.334-2.818-2.564-5.303
	c-2.23-2.471-4.889-4.461-7.961-5.958c-4.208-2.057-8.269-2.538-12.183-1.442c-3.899,1.109-6.745,3.5-8.548,7.173
	c-1.911,3.927-2.098,7.748-0.562,11.488c1.522,3.727,4.475,6.666,8.869,8.802c3.206,1.577,6.706,2.418,10.513,2.538
	c3.793,0.121,5.904-0.253,6.331-1.122c0.08-0.161,0.147-0.374,0.214-0.615C366.333,80.447,366.373,80.166,366.413,79.859
	L366.413,79.859z"/>
<path fill-rule="evenodd" clip-rule="evenodd" fill="#FFFFFF" d="M400.547,115.925c0.654,0.521,1.162,0.774,1.522,0.748
	c0.374-0.013,0.882-0.28,1.51-0.775l0.788,0.642l-7.213,8.909l-0.788-0.641c0.347-0.721,0.494-1.283,0.44-1.683
	c-0.066-0.401-0.4-0.841-1.002-1.336l-29.721-24.07l0.654-0.814c0.788,0.36,1.363,0.508,1.75,0.427
	c0.374-0.08,0.802-0.401,1.256-0.962l22.24-27.463c0.494-0.614,0.734-1.109,0.722-1.509c-0.014-0.401-0.28-0.922-0.788-1.576
	l0.641-0.788l29.347,23.776c0.628,0.508,1.136,0.748,1.51,0.721c0.374-0.04,0.895-0.307,1.536-0.815l0.814,0.655l-7.187,8.883
	l-0.814-0.655c0.348-0.734,0.481-1.282,0.401-1.683c-0.094-0.388-0.415-0.815-0.989-1.27l-20.624-16.71l-5.823,7.187l13.144,10.646
	c0.654,0.521,1.148,0.775,1.509,0.762c0.348-0.014,0.855-0.281,1.536-0.775l0.788,0.641l-6.705,8.282l-0.788-0.641
	c0.348-0.695,0.494-1.229,0.428-1.629c-0.067-0.388-0.414-0.842-1.042-1.349l-13.157-10.646l-6.88,8.508L400.547,115.925
	L400.547,115.925z"/>
<path fill-rule="evenodd" clip-rule="evenodd" fill="#FFFFFF" d="M430.232,152.698c0.508,0.654,0.936,1.015,1.282,1.082
	c0.348,0.053,0.882-0.08,1.616-0.414l0.682,0.801l-9.029,7.053l-0.655-0.829c0.521-0.601,0.802-1.109,0.815-1.536
	c0.026-0.414-0.188-0.921-0.654-1.509l-23.162-29.641l0.828-0.641c0.681,0.521,1.215,0.802,1.603,0.801
	c0.388,0.014,0.868-0.2,1.442-0.654l27.851-21.746c0.614-0.481,0.962-0.922,1.042-1.309c0.067-0.4-0.066-0.962-0.428-1.71
	l0.802-0.627l8.148,10.432l-0.802,0.628c-0.628-0.508-1.136-0.775-1.549-0.815c-0.401-0.027-0.909,0.201-1.523,0.681l-24.551,19.168
	L430.232,152.698L430.232,152.698z"/>
<path fill-rule="evenodd" clip-rule="evenodd" fill="#FFFFFF" d="M455.925,142.399c-0.36-0.721-0.708-1.162-1.042-1.296
	c-0.348-0.133-0.908-0.12-1.696,0.054l-0.468-0.948l10.192-4.969l0.454,0.922c-0.628,0.508-0.988,0.962-1.096,1.362
	c-0.106,0.401,0,0.935,0.334,1.616l15.455,31.684c0.348,0.735,0.707,1.163,1.055,1.296c0.361,0.133,0.936,0.107,1.75-0.093
	l0.454,0.948l-10.259,5.009l-0.467-0.948c0.641-0.481,1.015-0.921,1.122-1.322c0.106-0.401-0.001-0.949-0.335-1.63l-5.729-11.741
	l-28.104,13.705c-0.722,0.347-1.162,0.694-1.296,1.042c-0.134,0.348-0.12,0.909,0.067,1.683l-0.949,0.468l-5.703-11.701l0.948-0.468
	c0.521,0.615,0.975,0.962,1.349,1.056c0.388,0.093,0.922,0,1.63-0.294l28.064-13.678L455.925,142.399L455.925,142.399z"/>
<path fill-rule="evenodd" clip-rule="evenodd" fill="#FFFFFF" d="M447.956,204.378c-0.775,0.241-1.256,0.521-1.443,0.828
	c-0.2,0.321-0.28,0.881-0.24,1.696l-0.976,0.294l-3.847-12.569l1.016-0.308c0.4,0.721,0.788,1.149,1.148,1.283
	c0.348,0.134,0.896,0.093,1.616-0.134l33.795-10.325c0.774-0.24,1.27-0.521,1.482-0.842c0.214-0.32,0.281-0.882,0.2-1.683
	l0.976-0.293l3.847,12.569l-0.975,0.294c-0.374-0.667-0.748-1.095-1.108-1.255c-0.361-0.16-0.922-0.12-1.697,0.12L447.956,204.378
	L447.956,204.378z"/>
<path fill-rule="evenodd" clip-rule="evenodd" fill="#FFFFFF" d="M467.316,247.951l0.654,0.775l-8.135,7.066l-0.708-0.801
	c0.214-0.348,0.361-0.614,0.428-0.775c0.066-0.174,0.094-0.334,0.067-0.481c-0.041-0.32-0.575-1.095-1.59-2.351
	c-4.608-5.824-7.334-11.715-8.175-17.659c-0.962-6.919,0.28-12.957,3.753-18.126c3.486-5.169,8.322-8.188,14.52-9.057
	c6.332-0.881,11.849,0.722,16.563,4.809c4.702,4.087,7.587,9.871,8.63,17.338c0.547,3.82,0.453,7.761-0.255,11.822
	c-0.694,4.061-1.041,6.211-1.001,6.451c0.066,0.308,0.146,0.628,0.227,0.976c0.094,0.334,0.188,0.721,0.308,1.162l-0.428,0.922
	l-10.245-4.528l0.414-1.042c0.054,0.014,0.106,0.026,0.16,0.027c0.054,0.013,0.134,0,0.24-0.014c1.162-0.16,2.15-1.857,2.952-5.089
	c0.814-3.232,0.988-6.545,0.508-9.924c-0.654-4.648-2.524-8.282-5.624-10.9c-3.099-2.631-6.665-3.647-10.726-3.086
	c-4.314,0.615-7.587,2.591-9.831,5.944c-2.244,3.366-3.02,7.454-2.352,12.289c0.508,3.54,1.764,6.919,3.78,10.138
	c2.03,3.219,3.514,4.755,4.476,4.622c0.173-0.026,0.387-0.08,0.627-0.173C466.796,248.205,467.049,248.084,467.316,247.951
	L467.316,247.951z"/>
<path fill-rule="evenodd" clip-rule="evenodd" fill="#FFFFFF" d="M24.02,288.165c-0.775,0.147-1.269,0.374-1.509,0.668
	c-0.228,0.308-0.361,0.882-0.374,1.736l-1.042,0.201l-2.524-12.997l1.042-0.201c0.361,0.775,0.708,1.27,1.056,1.456
	c0.347,0.188,0.868,0.201,1.589,0.067l34.676-6.746c0.761-0.146,1.269-0.374,1.509-0.694c0.254-0.307,0.388-0.882,0.414-1.71
	l1.002-0.2l7.2,37.067c0.16,0.788,0.387,1.296,0.694,1.51c0.307,0.227,0.882,0.347,1.71,0.374l0.2,1.042l-11.22,2.177l-0.2-1.042
	c0.734-0.334,1.189-0.668,1.375-1.028c0.187-0.348,0.201-0.882,0.067-1.604l-5.062-26.033l-9.07,1.763l3.233,16.591
	c0.146,0.814,0.374,1.336,0.654,1.55c0.28,0.199,0.842,0.333,1.669,0.387l0.201,1.002l-10.446,2.03l-0.2-1.002
	c0.708-0.294,1.176-0.614,1.375-0.962c0.188-0.347,0.214-0.908,0.067-1.71l-3.232-16.576L24.02,288.165L24.02,288.165z"/>
<path fill-rule="evenodd" clip-rule="evenodd" fill="#FFFFFF" d="M78.107,336.974c2.778,6.559,3.166,12.73,1.162,18.54
	c-1.99,5.798-5.877,9.926-11.647,12.37c-5.757,2.444-11.434,2.364-17.044-0.241c-5.597-2.604-9.778-7.159-12.529-13.665
	c-2.725-6.397-3.059-12.529-1.029-18.379c2.044-5.838,5.917-9.979,11.635-12.41c5.744-2.431,11.394-2.364,16.964,0.214
	C71.188,325.98,75.355,330.495,78.107,336.974L78.107,336.974z M52.354,331.311c-3.941,1.683-6.559,4.301-7.854,7.881
	c-1.309,3.579-1.042,7.52,0.775,11.808c1.816,4.262,4.461,7.187,7.961,8.736c3.5,1.563,7.2,1.509,11.114-0.16
	c3.94-1.67,6.559-4.302,7.867-7.922c1.31-3.606,1.042-7.56-0.774-11.848c-1.79-4.221-4.448-7.106-7.948-8.655
	C59.98,329.601,56.267,329.654,52.354,331.311L52.354,331.311z"/>
<path fill-rule="evenodd" clip-rule="evenodd" fill="#FFFFFF" d="M103.809,378.729c4.582,5.45,6.759,11.247,6.545,17.379
	c-0.214,6.131-2.725,11.22-7.521,15.24s-10.245,5.61-16.363,4.742c-6.118-0.854-11.447-3.98-15.989-9.391
	c-4.475-5.343-6.585-11.1-6.345-17.284c0.228-6.185,2.725-11.274,7.48-15.268c4.782-4.008,10.205-5.597,16.283-4.756
	C93.991,370.221,99.294,373.333,103.809,378.729L103.809,378.729z M77.548,380.827c-3.286,2.752-5.022,6.037-5.209,9.831
	c-0.2,3.807,1.202,7.493,4.194,11.06c2.979,3.554,6.372,5.57,10.165,6.038s7.32-0.668,10.579-3.406
	c3.272-2.738,5.009-6.037,5.196-9.858c0.2-3.833-1.202-7.533-4.208-11.113c-2.939-3.513-6.318-5.489-10.125-5.957
	C84.333,376.967,80.794,378.102,77.548,380.827L77.548,380.827z"/>
<path fill-rule="evenodd" clip-rule="evenodd" fill="#FFFFFF" d="M118.491,408.944c-0.641-0.494-1.149-0.721-1.523-0.681
	c-0.374,0.026-0.868,0.307-1.483,0.814l-0.841-0.628l6.839-9.069l0.815,0.614c-0.334,0.734-0.455,1.296-0.361,1.71
	c0.08,0.4,0.427,0.828,1.028,1.296l28.171,21.225c0.641,0.48,1.162,0.708,1.536,0.654c0.374-0.04,0.881-0.32,1.509-0.854
	l0.842,0.628l-6.879,9.137l-0.841-0.642c0.347-0.721,0.48-1.282,0.387-1.683c-0.08-0.414-0.428-0.842-1.029-1.296l-10.445-7.881
	l-18.821,24.965c-0.481,0.655-0.708,1.162-0.668,1.523c0.027,0.374,0.308,0.867,0.815,1.482l-0.628,0.842l-10.406-7.841l0.628-0.842
	c0.761,0.307,1.322,0.414,1.696,0.32s0.815-0.428,1.309-1.002l18.794-24.925L118.491,408.944L118.491,408.944z"/>
<path fill-rule="evenodd" clip-rule="evenodd" fill="#FFFFFF" d="M142.59,468.438l0.428-0.961c0.841,0.147,1.443,0.134,1.79-0.04
	s0.668-0.602,0.962-1.27l14.373-32.258c0.32-0.722,0.414-1.27,0.307-1.644c-0.12-0.374-0.508-0.814-1.176-1.309l0.415-0.936
	l25.98,11.567c4.341,1.924,7.333,4.302,8.989,7.094c1.643,2.805,1.79,5.743,0.414,8.815c-0.788,1.764-1.91,3.112-3.366,4.048
	c-1.456,0.935-3.272,1.469-5.437,1.59c1.71,2.07,2.739,4.1,3.113,6.091c0.36,1.99,0.08,4.047-0.869,6.171
	c-1.576,3.54-4.181,5.704-7.814,6.451c-3.633,0.748-7.961,0.014-12.983-2.23L142.59,468.438L142.59,468.438z M172.979,461.627
	l-12.583-5.61l-4.662,10.472l12.302,5.478c3.86,1.723,6.679,2.511,8.469,2.364c1.79-0.147,3.112-1.176,3.967-3.072
	c0.814-1.844,0.628-3.514-0.548-5.036C178.75,464.699,176.438,463.163,172.979,461.627L172.979,461.627z M180.727,446.84
	l-13.558-6.037l-3.74,8.388l14.6,6.506c2.311,1.028,4.167,1.442,5.583,1.269c1.403-0.187,2.431-0.988,3.046-2.391
	c0.708-1.563,0.614-2.926-0.254-4.074C185.521,449.351,183.625,448.136,180.727,446.84L180.727,446.84z"/>
<path fill-rule="evenodd" clip-rule="evenodd" fill="#FFFFFF" d="M193.312,490.426l0.16-1.042c1.51-0.16,2.872-1.162,4.087-3.005
	c0.107-0.174,0.214-0.321,0.307-0.468l20.531-29.827c0.241-0.334,0.387-0.562,0.454-0.695c0.053-0.133,0.094-0.267,0.12-0.4
	c0.067-0.468-0.053-0.895-0.374-1.282c-0.321-0.4-0.829-0.762-1.51-1.082l0.16-1.002l14.066,2.23l-0.161,1.002
	c-0.814,0.134-1.375,0.308-1.683,0.534c-0.321,0.214-0.508,0.508-0.561,0.896c-0.027,0.187-0.027,0.388,0,0.628
	c0.026,0.253,0.08,0.533,0.16,0.868l10.806,34.823c0.467,1.509,0.948,2.577,1.402,3.219c0.468,0.642,1.082,1.109,1.816,1.416
	l-0.16,1.042l-14.96-2.364l0.173-1.042c0.748-0.12,1.295-0.294,1.643-0.521c0.334-0.214,0.548-0.548,0.615-0.989
	c0.026-0.187,0.026-0.374,0.013-0.588c-0.027-0.213-0.08-0.521-0.174-0.908l-2.004-6.853l-19.061-3.019l-3.86,5.932
	c-0.213,0.333-0.361,0.601-0.454,0.801c-0.08,0.2-0.134,0.388-0.16,0.562c-0.067,0.44,0.013,0.814,0.267,1.135
	c0.254,0.321,0.721,0.654,1.416,1.002l-0.174,1.042L193.312,490.426L193.312,490.426z M222.217,463.271l-9.391,13.518l13.798,2.19
	L222.217,463.271L222.217,463.271z"/>
<path fill-rule="evenodd" clip-rule="evenodd" fill="#FFFFFF" d="M293.549,489.357c0.828-0.066,1.376-0.214,1.616-0.468
	c0.241-0.254,0.428-0.774,0.562-1.576l1.055-0.106l0.788,11.434l-1.055,0.066c-0.2-0.761-0.481-1.269-0.802-1.522
	c-0.334-0.254-0.882-0.348-1.63-0.294l-37.508,2.618l-0.08-1.055c0.828-0.268,1.35-0.562,1.577-0.882
	c0.227-0.308,0.307-0.829,0.253-1.563l-2.458-35.237c-0.053-0.787-0.227-1.309-0.507-1.603c-0.281-0.28-0.829-0.481-1.643-0.601
	l-0.08-1.016l13.184-0.922l0.08,1.016c-0.774,0.24-1.282,0.507-1.536,0.828c-0.253,0.32-0.347,0.868-0.294,1.656l2.178,31.057
	L293.549,489.357L293.549,489.357z"/>
<path fill-rule="evenodd" clip-rule="evenodd" fill="#FFFFFF" d="M347.423,474.09c0.801-0.241,1.296-0.508,1.469-0.815
	c0.188-0.294,0.254-0.854,0.2-1.643l1.002-0.348l3.354,10.954l-1.016,0.32c-0.388-0.708-0.762-1.149-1.135-1.322
	c-0.389-0.161-0.936-0.134-1.657,0.08l-35.958,10.993l-0.308-1.016c0.734-0.44,1.176-0.841,1.322-1.202
	c0.16-0.36,0.12-0.895-0.094-1.589l-10.325-33.795c-0.227-0.748-0.507-1.216-0.854-1.43c-0.334-0.214-0.922-0.294-1.75-0.227
	l-0.294-0.976l12.649-3.86l0.294,0.975c-0.694,0.401-1.122,0.789-1.296,1.149c-0.173,0.374-0.146,0.922,0.08,1.67l9.11,29.787
	L347.423,474.09L347.423,474.09z"/>
<path fill-rule="evenodd" clip-rule="evenodd" fill="#FFFFFF" d="M406.637,428.486l0.348-0.948l10.139,3.7l-0.375,1.002
	c-0.4-0.014-0.694-0.014-0.881,0.014c-0.174,0.013-0.334,0.066-0.454,0.173c-0.254,0.188-0.682,1.029-1.282,2.524
	c-2.859,6.866-6.692,12.103-11.475,15.709c-5.583,4.208-11.475,6.038-17.686,5.504c-6.198-0.535-11.181-3.313-14.947-8.309
	c-3.847-5.103-5.129-10.713-3.833-16.817c1.295-6.104,4.955-11.421,10.979-15.963c3.072-2.323,6.572-4.153,10.459-5.503
	c3.9-1.362,5.944-2.097,6.131-2.244c0.228-0.214,0.481-0.44,0.735-0.682c0.254-0.24,0.548-0.521,0.868-0.828l1.015-0.08
	l1.016,11.141l-1.122,0.16c-0.014-0.053-0.026-0.106-0.054-0.16c-0.014-0.053-0.054-0.106-0.12-0.2
	c-0.708-0.935-2.672-0.975-5.891-0.12c-3.22,0.868-6.198,2.324-8.923,4.381c-3.754,2.818-6.011,6.225-6.813,10.205
	c-0.788,3.968,0.054,7.601,2.524,10.873c2.618,3.474,5.944,5.384,9.965,5.718s7.988-0.962,11.875-3.9
	c2.858-2.151,5.21-4.89,7.04-8.229c1.829-3.326,2.457-5.37,1.883-6.145c-0.106-0.147-0.268-0.308-0.454-0.468
	C407.118,428.82,406.891,428.66,406.637,428.486L406.637,428.486z"/>
<path fill-rule="evenodd" clip-rule="evenodd" fill="#FFFFFF" d="M449.517,391.165c0.534-0.641,0.802-1.135,0.788-1.482
	c-0.014-0.347-0.268-0.854-0.748-1.495l0.655-0.842l8.775,7.373l-0.682,0.814c-0.694-0.387-1.256-0.547-1.656-0.48
	c-0.414,0.067-0.868,0.388-1.349,0.962l-24.164,28.799l-0.815-0.682c0.375-0.774,0.535-1.349,0.455-1.736
	c-0.067-0.374-0.388-0.801-0.936-1.269l-27.075-22.708c-0.588-0.508-1.096-0.762-1.483-0.748c-0.4,0-0.935,0.254-1.589,0.762
	l-0.775-0.655l8.496-10.125l0.774,0.654c-0.36,0.709-0.508,1.27-0.454,1.67c0.054,0.401,0.374,0.855,0.975,1.363l23.87,20.022
	L449.517,391.165L449.517,391.165z"/>
<path fill-rule="evenodd" clip-rule="evenodd" fill="#FFFFFF" d="M455.236,363.354c3.419,1.604,6.225,1.897,8.415,0.882
	c2.178-1.015,4.181-3.446,5.984-7.333c1.79-3.847,2.324-6.973,1.603-9.39c-0.734-2.418-2.858-4.436-6.385-6.078l-19.542-9.11
	c-0.735-0.347-1.282-0.467-1.656-0.374c-0.388,0.107-0.802,0.468-1.282,1.109l-0.922-0.428l5.597-11.982l0.922,0.428
	c-0.174,0.788-0.174,1.363-0.014,1.736c0.147,0.375,0.588,0.735,1.296,1.069l20.53,9.563c5.49,2.565,8.696,5.864,9.631,9.911
	c0.936,4.048-0.227,9.578-3.499,16.563c-3.166,6.813-6.64,11.154-10.393,13.051c-3.767,1.884-8.335,1.576-13.731-0.948l-20.53-9.564
	c-0.735-0.347-1.283-0.468-1.657-0.374c-0.387,0.107-0.801,0.468-1.282,1.108l-0.921-0.427l5.557-11.915l0.921,0.428
	c-0.173,0.761-0.187,1.309-0.026,1.669c0.16,0.374,0.614,0.722,1.35,1.069L455.236,363.354L455.236,363.354z"/>
<path fill-rule="evenodd" clip-rule="evenodd" fill="#FFFFFF" d="M490.463,319.075l-1.042-0.188
	c-0.067-0.854-0.228-1.429-0.481-1.723c-0.24-0.294-0.734-0.508-1.456-0.642l-34.783-6.131c-0.774-0.134-1.335-0.107-1.669,0.106
	c-0.348,0.2-0.668,0.682-0.989,1.442l-1.001-0.174l4.929-27.997c0.828-4.675,2.404-8.161,4.729-10.432
	c2.311-2.284,5.129-3.126,8.455-2.538c1.896,0.334,3.473,1.096,4.742,2.284c1.255,1.188,2.204,2.818,2.845,4.889
	c1.604-2.15,3.326-3.646,5.17-4.488s3.9-1.056,6.185-0.654c3.833,0.668,6.545,2.685,8.161,6.024
	c1.604,3.339,1.938,7.721,0.976,13.144L490.463,319.075L490.463,319.075z M476.504,291.237l-2.391,13.545l11.287,1.99l2.324-13.237
	c0.734-4.168,0.814-7.093,0.24-8.803c-0.562-1.696-1.884-2.738-3.94-3.099c-1.978-0.348-3.554,0.24-4.756,1.75
	C478.08,284.893,477.158,287.511,476.504,291.237L476.504,291.237z M460.261,287.297l-2.564,14.601l9.057,1.589l2.765-15.708
	c0.44-2.485,0.401-4.395-0.12-5.717c-0.521-1.323-1.55-2.124-3.059-2.392c-1.696-0.294-2.992,0.12-3.9,1.242
	C461.543,282.034,460.822,284.172,460.261,287.297L460.261,287.297z"/>
</svg>
