<?xml version="1.0" encoding="UTF-8" standalone="no"?>

<svg
   xmlns:dc="http://purl.org/dc/elements/1.1/"
   xmlns:cc="http://creativecommons.org/ns#"
   xmlns:rdf="http://www.w3.org/1999/02/22-rdf-syntax-ns#"
   xmlns:svg="http://www.w3.org/2000/svg"
   xmlns="http://www.w3.org/2000/svg"
   xmlns:sodipodi="http://sodipodi.sourceforge.net/DTD/sodipodi-0.dtd"
   xmlns:inkscape="http://www.inkscape.org/namespaces/inkscape"
   width="89.344025mm"
   height="118.83652mm"
   viewBox="0 0 316.57332 421.07427"
   id="svg5385"
   version="1.1"
   inkscape:version="0.91 r13725"
   sodipodi:docname="Northern Ireland Football League.svg">
  <defs
     id="defs5387">
    <linearGradient
       x1="0"
       y1="0"
       x2="1"
       y2="0"
       gradientUnits="userSpaceOnUse"
       gradientTransform="matrix(38.1765,-81.8697,-81.8697,-38.1765,233.55057,614.92286)"
       spreadMethod="pad"
       id="linearGradient4997">
      <stop
         style="stop-opacity:1;stop-color:#27adea"
         offset="0"
         id="stop4999" />
      <stop
         style="stop-opacity:1;stop-color:#27adea"
         offset="0.13504901"
         id="stop5001" />
      <stop
         style="stop-opacity:1;stop-color:#0b1a35"
         offset="0.982123"
         id="stop5003" />
      <stop
         style="stop-opacity:1;stop-color:#0b1a35"
         offset="1"
         id="stop5005" />
    </linearGradient>
    <linearGradient
       x1="0"
       y1="0"
       x2="1"
       y2="0"
       gradientUnits="userSpaceOnUse"
       gradientTransform="matrix(38.3619,-82.2672,-82.2672,-38.3619,224.93541,611.56036)"
       spreadMethod="pad"
       id="linearGradient4975">
      <stop
         style="stop-opacity:1;stop-color:#27adea"
         offset="0"
         id="stop4977" />
      <stop
         style="stop-opacity:1;stop-color:#27adea"
         offset="0.13504901"
         id="stop4979" />
      <stop
         style="stop-opacity:1;stop-color:#0b1a35"
         offset="0.982123"
         id="stop4981" />
      <stop
         style="stop-opacity:1;stop-color:#0b1a35"
         offset="1"
         id="stop4983" />
    </linearGradient>
    <linearGradient
       x1="0"
       y1="0"
       x2="1"
       y2="0"
       gradientUnits="userSpaceOnUse"
       gradientTransform="matrix(38.2482,-82.0239,-82.0239,-38.2482,246.1707,620.76337)"
       spreadMethod="pad"
       id="linearGradient4953">
      <stop
         style="stop-opacity:1;stop-color:#27adea"
         offset="0"
         id="stop4955" />
      <stop
         style="stop-opacity:1;stop-color:#27adea"
         offset="0.13504901"
         id="stop4957" />
      <stop
         style="stop-opacity:1;stop-color:#0b1a35"
         offset="0.982123"
         id="stop4959" />
      <stop
         style="stop-opacity:1;stop-color:#0b1a35"
         offset="1"
         id="stop4961" />
    </linearGradient>
    <linearGradient
       x1="0"
       y1="0"
       x2="1"
       y2="0"
       gradientUnits="userSpaceOnUse"
       gradientTransform="matrix(38.2932,-82.12021,-82.12021,-38.2932,216.83646,607.7488)"
       spreadMethod="pad"
       id="linearGradient4931">
      <stop
         style="stop-opacity:1;stop-color:#27adea"
         offset="0"
         id="stop4933" />
      <stop
         style="stop-opacity:1;stop-color:#27adea"
         offset="0.13504901"
         id="stop4935" />
      <stop
         style="stop-opacity:1;stop-color:#0b1a35"
         offset="0.982123"
         id="stop4937" />
      <stop
         style="stop-opacity:1;stop-color:#0b1a35"
         offset="1"
         id="stop4939" />
    </linearGradient>
    <linearGradient
       x1="0"
       y1="0"
       x2="1"
       y2="0"
       gradientUnits="userSpaceOnUse"
       gradientTransform="matrix(38.1747,-81.8661,-81.8661,-38.1747,210.60909,604.64131)"
       spreadMethod="pad"
       id="linearGradient4909">
      <stop
         style="stop-opacity:1;stop-color:#27adea"
         offset="0"
         id="stop4911" />
      <stop
         style="stop-opacity:1;stop-color:#27adea"
         offset="0.13504901"
         id="stop4913" />
      <stop
         style="stop-opacity:1;stop-color:#0b1a35"
         offset="0.982123"
         id="stop4915" />
      <stop
         style="stop-opacity:1;stop-color:#0b1a35"
         offset="1"
         id="stop4917" />
    </linearGradient>
    <linearGradient
       x1="0"
       y1="0"
       x2="1"
       y2="0"
       gradientUnits="userSpaceOnUse"
       gradientTransform="matrix(26.34294,-15.2091,-15.2091,-26.34294,243.3414,523.93396)"
       spreadMethod="pad"
       id="linearGradient4891">
      <stop
         style="stop-opacity:1;stop-color:#69a620"
         offset="0"
         id="stop4893" />
      <stop
         style="stop-opacity:1;stop-color:#0d4420"
         offset="1"
         id="stop4895" />
    </linearGradient>
    <linearGradient
       x1="0"
       y1="0"
       x2="1"
       y2="0"
       gradientUnits="userSpaceOnUse"
       gradientTransform="matrix(26.28507,-15.17568,-15.17568,-26.28507,242.38515,521.91676)"
       spreadMethod="pad"
       id="linearGradient4873">
      <stop
         style="stop-opacity:1;stop-color:#69a620"
         offset="0"
         id="stop4875" />
      <stop
         style="stop-opacity:1;stop-color:#0d4420"
         offset="1"
         id="stop4877" />
    </linearGradient>
    <linearGradient
       x1="0"
       y1="0"
       x2="1"
       y2="0"
       gradientUnits="userSpaceOnUse"
       gradientTransform="matrix(26.20608,-15.13008,-15.13008,-26.20608,241.10769,519.28336)"
       spreadMethod="pad"
       id="linearGradient4855">
      <stop
         style="stop-opacity:1;stop-color:#69a620"
         offset="0"
         id="stop4857" />
      <stop
         style="stop-opacity:1;stop-color:#0d4420"
         offset="1"
         id="stop4859" />
    </linearGradient>
    <linearGradient
       x1="0"
       y1="0"
       x2="1"
       y2="0"
       gradientUnits="userSpaceOnUse"
       gradientTransform="matrix(26.38881,-15.23559,-15.23559,-26.38881,239.23665,516.58096)"
       spreadMethod="pad"
       id="linearGradient4837">
      <stop
         style="stop-opacity:1;stop-color:#69a620"
         offset="0"
         id="stop4839" />
      <stop
         style="stop-opacity:1;stop-color:#0d4420"
         offset="1"
         id="stop4841" />
    </linearGradient>
    <linearGradient
       x1="0"
       y1="0"
       x2="1"
       y2="0"
       gradientUnits="userSpaceOnUse"
       gradientTransform="matrix(26.34291,-15.20907,-15.20907,-26.34291,238.37817,514.77586)"
       spreadMethod="pad"
       id="linearGradient4819">
      <stop
         style="stop-opacity:1;stop-color:#69a620"
         offset="0"
         id="stop4821" />
      <stop
         style="stop-opacity:1;stop-color:#0d4420"
         offset="1"
         id="stop4823" />
    </linearGradient>
    <linearGradient
       x1="0"
       y1="0"
       x2="1"
       y2="0"
       gradientUnits="userSpaceOnUse"
       gradientTransform="matrix(26.3565,-15.21693,-15.21693,-26.3565,236.9904,512.28766)"
       spreadMethod="pad"
       id="linearGradient4801">
      <stop
         style="stop-opacity:1;stop-color:#69a620"
         offset="0"
         id="stop4803" />
      <stop
         style="stop-opacity:1;stop-color:#0d4420"
         offset="1"
         id="stop4805" />
    </linearGradient>
    <linearGradient
       x1="0"
       y1="0"
       x2="1"
       y2="0"
       gradientUnits="userSpaceOnUse"
       gradientTransform="matrix(26.3565,-15.21693,-15.21693,-26.3565,235.4823,509.49886)"
       spreadMethod="pad"
       id="linearGradient4783">
      <stop
         style="stop-opacity:1;stop-color:#69a620"
         offset="0"
         id="stop4785" />
      <stop
         style="stop-opacity:1;stop-color:#0d4420"
         offset="1"
         id="stop4787" />
    </linearGradient>
    <linearGradient
       x1="0"
       y1="0"
       x2="1"
       y2="0"
       gradientUnits="userSpaceOnUse"
       gradientTransform="matrix(26.3565,-15.21693,-15.21693,-26.3565,234.45141,507.59265)"
       spreadMethod="pad"
       id="linearGradient4765">
      <stop
         style="stop-opacity:1;stop-color:#69a620"
         offset="0"
         id="stop4767" />
      <stop
         style="stop-opacity:1;stop-color:#0d4420"
         offset="1"
         id="stop4769" />
    </linearGradient>
    <linearGradient
       x1="0"
       y1="0"
       x2="1"
       y2="0"
       gradientUnits="userSpaceOnUse"
       gradientTransform="matrix(26.38881,-15.23559,-15.23559,-26.38881,233.24334,505.44046)"
       spreadMethod="pad"
       id="linearGradient4747">
      <stop
         style="stop-opacity:1;stop-color:#69a620"
         offset="0"
         id="stop4749" />
      <stop
         style="stop-opacity:1;stop-color:#0d4420"
         offset="1"
         id="stop4751" />
    </linearGradient>
    <linearGradient
       x1="0"
       y1="0"
       x2="1"
       y2="0"
       gradientUnits="userSpaceOnUse"
       gradientTransform="matrix(26.29053,-15.17883,-15.17883,-26.29053,232.17768,503.29247)"
       spreadMethod="pad"
       id="linearGradient4729">
      <stop
         style="stop-opacity:1;stop-color:#69a620"
         offset="0"
         id="stop4731" />
      <stop
         style="stop-opacity:1;stop-color:#0d4420"
         offset="1"
         id="stop4733" />
    </linearGradient>
    <linearGradient
       x1="0"
       y1="0"
       x2="1"
       y2="0"
       gradientUnits="userSpaceOnUse"
       gradientTransform="matrix(26.43153,-15.26025,-15.26025,-26.43153,231.30777,501.76215)"
       spreadMethod="pad"
       id="linearGradient4711">
      <stop
         style="stop-opacity:1;stop-color:#69a620"
         offset="0"
         id="stop4713" />
      <stop
         style="stop-opacity:1;stop-color:#0d4420"
         offset="1"
         id="stop4715" />
    </linearGradient>
    <linearGradient
       x1="0"
       y1="0"
       x2="1"
       y2="0"
       gradientUnits="userSpaceOnUse"
       gradientTransform="matrix(26.16288,-15.10515,-15.10515,-26.16288,229.97271,499.16175)"
       spreadMethod="pad"
       id="linearGradient4693">
      <stop
         style="stop-opacity:1;stop-color:#69a620"
         offset="0"
         id="stop4695" />
      <stop
         style="stop-opacity:1;stop-color:#0d4420"
         offset="1"
         id="stop4697" />
    </linearGradient>
    <linearGradient
       x1="0"
       y1="0"
       x2="1"
       y2="0"
       gradientUnits="userSpaceOnUse"
       gradientTransform="matrix(26.16288,-15.10515,-15.10515,-26.16288,228.50721,496.53347)"
       spreadMethod="pad"
       id="linearGradient4675">
      <stop
         style="stop-opacity:1;stop-color:#69a620"
         offset="0"
         id="stop4677" />
      <stop
         style="stop-opacity:1;stop-color:#0d4420"
         offset="1"
         id="stop4679" />
    </linearGradient>
    <linearGradient
       x1="0"
       y1="0"
       x2="1"
       y2="0"
       gradientUnits="userSpaceOnUse"
       gradientTransform="matrix(26.25324,-15.15732,-15.15732,-26.25324,227.25303,494.28645)"
       spreadMethod="pad"
       id="linearGradient4657">
      <stop
         style="stop-opacity:1;stop-color:#69a620"
         offset="0"
         id="stop4659" />
      <stop
         style="stop-opacity:1;stop-color:#0d4420"
         offset="1"
         id="stop4661" />
    </linearGradient>
    <linearGradient
       x1="0"
       y1="0"
       x2="1"
       y2="0"
       gradientUnits="userSpaceOnUse"
       gradientTransform="matrix(26.24424,-15.15213,-15.15213,-26.24424,245.8617,528.03046)"
       spreadMethod="pad"
       id="linearGradient4639">
      <stop
         style="stop-opacity:1;stop-color:#69a620"
         offset="0"
         id="stop4641" />
      <stop
         style="stop-opacity:1;stop-color:#0d4420"
         offset="1"
         id="stop4643" />
    </linearGradient>
    <linearGradient
       x1="0"
       y1="0"
       x2="1"
       y2="0"
       gradientUnits="userSpaceOnUse"
       gradientTransform="matrix(26.29371,-15.18069,-15.18069,-26.29371,244.7481,526.16656)"
       spreadMethod="pad"
       id="linearGradient4621">
      <stop
         style="stop-opacity:1;stop-color:#69a620"
         offset="0"
         id="stop4623" />
      <stop
         style="stop-opacity:1;stop-color:#0d4420"
         offset="1"
         id="stop4625" />
    </linearGradient>
    <linearGradient
       x1="0"
       y1="0"
       x2="1"
       y2="0"
       gradientUnits="userSpaceOnUse"
       gradientTransform="matrix(26.36679,-15.22287,-15.22287,-26.36679,243.1233,523.50285)"
       spreadMethod="pad"
       id="linearGradient4603">
      <stop
         style="stop-opacity:1;stop-color:#69a620"
         offset="0"
         id="stop4605" />
      <stop
         style="stop-opacity:1;stop-color:#0d4420"
         offset="1"
         id="stop4607" />
    </linearGradient>
    <linearGradient
       x1="0"
       y1="0"
       x2="1"
       y2="0"
       gradientUnits="userSpaceOnUse"
       gradientTransform="matrix(26.34294,-15.2091,-15.2091,-26.34294,242.04966,521.41126)"
       spreadMethod="pad"
       id="linearGradient4585">
      <stop
         style="stop-opacity:1;stop-color:#69a620"
         offset="0"
         id="stop4587" />
      <stop
         style="stop-opacity:1;stop-color:#0d4420"
         offset="1"
         id="stop4589" />
    </linearGradient>
    <linearGradient
       x1="0"
       y1="0"
       x2="1"
       y2="0"
       gradientUnits="userSpaceOnUse"
       gradientTransform="matrix(26.32815,-15.20058,-15.20058,-26.32815,241.33299,520.01356)"
       spreadMethod="pad"
       id="linearGradient4567">
      <stop
         style="stop-opacity:1;stop-color:#69a620"
         offset="0"
         id="stop4569" />
      <stop
         style="stop-opacity:1;stop-color:#0d4420"
         offset="1"
         id="stop4571" />
    </linearGradient>
    <linearGradient
       x1="0"
       y1="0"
       x2="1"
       y2="0"
       gradientUnits="userSpaceOnUse"
       gradientTransform="matrix(26.29953,-15.18405,-15.18405,-26.29953,240.12135,517.72756)"
       spreadMethod="pad"
       id="linearGradient4549">
      <stop
         style="stop-opacity:1;stop-color:#69a620"
         offset="0"
         id="stop4551" />
      <stop
         style="stop-opacity:1;stop-color:#0d4420"
         offset="1"
         id="stop4553" />
    </linearGradient>
    <linearGradient
       x1="0"
       y1="0"
       x2="1"
       y2="0"
       gradientUnits="userSpaceOnUse"
       gradientTransform="matrix(26.57646,-15.34392,-15.34392,-26.57646,239.16879,516.60736)"
       spreadMethod="pad"
       id="linearGradient4531">
      <stop
         style="stop-opacity:1;stop-color:#69a620"
         offset="0"
         id="stop4533" />
      <stop
         style="stop-opacity:1;stop-color:#0d4420"
         offset="1"
         id="stop4535" />
    </linearGradient>
    <linearGradient
       x1="0"
       y1="0"
       x2="1"
       y2="0"
       gradientUnits="userSpaceOnUse"
       gradientTransform="matrix(26.29371,-15.18069,-15.18069,-26.29371,238.15368,514.09305)"
       spreadMethod="pad"
       id="linearGradient4513">
      <stop
         style="stop-opacity:1;stop-color:#69a620"
         offset="0"
         id="stop4515" />
      <stop
         style="stop-opacity:1;stop-color:#0d4420"
         offset="1"
         id="stop4517" />
    </linearGradient>
    <linearGradient
       x1="0"
       y1="0"
       x2="1"
       y2="0"
       gradientUnits="userSpaceOnUse"
       gradientTransform="matrix(26.29953,-15.18405,-15.18405,-26.29953,236.82243,511.68227)"
       spreadMethod="pad"
       id="linearGradient4495">
      <stop
         style="stop-opacity:1;stop-color:#69a620"
         offset="0"
         id="stop4497" />
      <stop
         style="stop-opacity:1;stop-color:#0d4420"
         offset="1"
         id="stop4499" />
    </linearGradient>
    <linearGradient
       x1="0"
       y1="0"
       x2="1"
       y2="0"
       gradientUnits="userSpaceOnUse"
       gradientTransform="matrix(26.32815,-15.20058,-15.20058,-26.32815,235.85814,509.93507)"
       spreadMethod="pad"
       id="linearGradient4477">
      <stop
         style="stop-opacity:1;stop-color:#69a620"
         offset="0"
         id="stop4479" />
      <stop
         style="stop-opacity:1;stop-color:#0d4420"
         offset="1"
         id="stop4481" />
    </linearGradient>
    <linearGradient
       x1="0"
       y1="0"
       x2="1"
       y2="0"
       gradientUnits="userSpaceOnUse"
       gradientTransform="matrix(26.30199,-15.18546,-15.18546,-26.30199,234.72423,507.82217)"
       spreadMethod="pad"
       id="linearGradient4459">
      <stop
         style="stop-opacity:1;stop-color:#69a620"
         offset="0"
         id="stop4461" />
      <stop
         style="stop-opacity:1;stop-color:#0d4420"
         offset="1"
         id="stop4463" />
    </linearGradient>
    <linearGradient
       x1="0"
       y1="0"
       x2="1"
       y2="0"
       gradientUnits="userSpaceOnUse"
       gradientTransform="matrix(26.40858,-15.24699,-15.24699,-26.40858,233.76069,506.08037)"
       spreadMethod="pad"
       id="linearGradient4441">
      <stop
         style="stop-opacity:1;stop-color:#69a620"
         offset="0"
         id="stop4443" />
      <stop
         style="stop-opacity:1;stop-color:#0d4420"
         offset="1"
         id="stop4445" />
    </linearGradient>
    <linearGradient
       x1="0"
       y1="0"
       x2="1"
       y2="0"
       gradientUnits="userSpaceOnUse"
       gradientTransform="matrix(26.29953,-15.18405,-15.18405,-26.29953,232.37511,503.53216)"
       spreadMethod="pad"
       id="linearGradient4423">
      <stop
         style="stop-opacity:1;stop-color:#69a620"
         offset="0"
         id="stop4425" />
      <stop
         style="stop-opacity:1;stop-color:#0d4420"
         offset="1"
         id="stop4427" />
    </linearGradient>
    <linearGradient
       x1="0"
       y1="0"
       x2="1"
       y2="0"
       gradientUnits="userSpaceOnUse"
       gradientTransform="matrix(26.15922,-15.10305,-15.10305,-26.15922,231.2712,501.49935)"
       spreadMethod="pad"
       id="linearGradient4405">
      <stop
         style="stop-opacity:1;stop-color:#69a620"
         offset="0"
         id="stop4407" />
      <stop
         style="stop-opacity:1;stop-color:#0d4420"
         offset="1"
         id="stop4409" />
    </linearGradient>
    <linearGradient
       x1="0"
       y1="0"
       x2="1"
       y2="0"
       gradientUnits="userSpaceOnUse"
       gradientTransform="matrix(26.29371,-15.18069,-15.18069,-26.29371,229.98771,499.14226)"
       spreadMethod="pad"
       id="linearGradient4387">
      <stop
         style="stop-opacity:1;stop-color:#69a620"
         offset="0"
         id="stop4389" />
      <stop
         style="stop-opacity:1;stop-color:#0d4420"
         offset="1"
         id="stop4391" />
    </linearGradient>
  </defs>
  <sodipodi:namedview
     id="base"
     pagecolor="#ffffff"
     bordercolor="#666666"
     borderopacity="1.0"
     inkscape:pageopacity="0.0"
     inkscape:pageshadow="2"
     inkscape:zoom="0.35"
     inkscape:cx="50.883392"
     inkscape:cy="67.680055"
     inkscape:document-units="px"
     inkscape:current-layer="layer1"
     showgrid="false"
     fit-margin-top="0"
     fit-margin-left="0"
     fit-margin-right="0"
     fit-margin-bottom="0"
     inkscape:window-width="1366"
     inkscape:window-height="705"
     inkscape:window-x="-8"
     inkscape:window-y="-8"
     inkscape:window-maximized="1" />
  <metadata
     id="metadata5390">
    <rdf:RDF>
      <cc:Work
         rdf:about="">
        <dc:format>image/svg+xml</dc:format>
        <dc:type
           rdf:resource="http://purl.org/dc/dcmitype/StillImage" />
        <dc:title></dc:title>
      </cc:Work>
    </rdf:RDF>
  </metadata>
  <g
     inkscape:label="Layer 1"
     inkscape:groupmode="layer"
     id="layer1"
     transform="translate(103.02625,-178.96798)">
    <g
       transform="matrix(3.8884667,0,0,-3.8884667,-931.24474,2516.8347)"
       id="g4377">
      <g
         id="g4379">
        <g
           id="g4385">
          <path
             d="m 226.277,504.233 0,-2.537 -1.975,2.537 -1.241,0 0,-4.801 1.316,0 0,2.634 2.051,-2.634 1.166,0 0,4.801 -1.317,0 z"
             style="fill:url(#linearGradient4387);stroke:none"
             id="path4393"
             inkscape:connector-curvature="0" />
        </g>
      </g>
    </g>
    <g
       transform="matrix(3.8884667,0,0,-3.8884667,-931.24474,2516.8347)"
       id="g4395">
      <g
         id="g4397">
        <g
           id="g4403">
          <path
             d="m 228.108,501.833 0,-0.014 c 0,-1.379 1.097,-2.482 2.578,-2.482 l 0,0 c 1.482,0 2.593,1.118 2.593,2.496 l 0,0 0,0.013 c 0,1.379 -1.097,2.483 -2.579,2.483 l 0,0 c -1.481,0 -2.592,-1.117 -2.592,-2.496 m 1.365,0 0,0.013 c 0,0.693 0.487,1.283 1.213,1.283 l 0,0 c 0.735,0 1.235,-0.604 1.235,-1.296 l 0,0 0,-0.014 c 0,-0.693 -0.487,-1.282 -1.221,-1.282 l 0,0 c -0.727,0 -1.227,0.603 -1.227,1.296"
             style="fill:url(#linearGradient4405);stroke:none"
             id="path4411"
             inkscape:connector-curvature="0" />
        </g>
      </g>
    </g>
    <g
       transform="matrix(3.8884667,0,0,-3.8884667,-931.24474,2516.8347)"
       id="g4413">
      <g
         id="g4415">
        <g
           id="g4421">
          <path
             d="m 233.8,504.233 0,-4.801 1.33,0 0,1.455 0.584,0 0.966,-1.455 1.536,0 -1.144,1.674 c 0.596,0.254 0.987,0.74 0.987,1.475 l 0,0 0,0.013 c 0,0.473 -0.144,0.843 -0.426,1.118 l 0,0 c -0.322,0.329 -0.83,0.521 -1.563,0.521 l 0,0 -2.27,0 z m 1.33,-1.152 0.872,0 c 0.445,0 0.72,-0.193 0.72,-0.57 l 0,0 0,-0.013 c 0,-0.35 -0.261,-0.569 -0.714,-0.569 l 0,0 -0.878,0 0,1.152 z"
             style="fill:url(#linearGradient4423);stroke:none"
             id="path4429"
             inkscape:connector-curvature="0" />
        </g>
      </g>
    </g>
    <g
       transform="matrix(3.8884667,0,0,-3.8884667,-931.24474,2516.8347)"
       id="g4431">
      <g
         id="g4433">
        <g
           id="g4439">
          <path
             d="m 238.292,504.233 0,-1.166 1.44,0 0,-3.635 1.33,0 0,3.635 1.44,0 0,1.166 -4.21,0 z"
             style="fill:url(#linearGradient4441);stroke:none"
             id="path4447"
             inkscape:connector-curvature="0" />
        </g>
      </g>
    </g>
    <g
       transform="matrix(3.8884667,0,0,-3.8884667,-931.24474,2516.8347)"
       id="g4449">
      <g
         id="g4451">
        <g
           id="g4457">
          <path
             d="m 245.952,504.233 0,-1.796 -1.708,0 0,1.796 -1.33,0 0,-4.801 1.33,0 0,1.825 1.708,0 0,-1.825 1.33,0 0,4.801 -1.33,0 z"
             style="fill:url(#linearGradient4459);stroke:none"
             id="path4465"
             inkscape:connector-curvature="0" />
        </g>
      </g>
    </g>
    <g
       transform="matrix(3.8884667,0,0,-3.8884667,-931.24474,2516.8347)"
       id="g4467">
      <g
         id="g4469">
        <g
           id="g4475">
          <path
             d="m 247.961,504.233 0,-4.801 3.895,0 0,1.133 -2.579,0 0,0.76 2.304,0 0,1.05 -2.304,0 0,0.727 2.545,0 0,1.131 -3.861,0 z"
             style="fill:url(#linearGradient4477);stroke:none"
             id="path4483"
             inkscape:connector-curvature="0" />
        </g>
      </g>
    </g>
    <g
       transform="matrix(3.8884667,0,0,-3.8884667,-931.24474,2516.8347)"
       id="g4485">
      <g
         id="g4487">
        <g
           id="g4493">
          <path
             d="m 252.364,504.233 0,-4.801 1.33,0 0,1.455 0.583,0 0.967,-1.455 1.536,0 -1.145,1.674 c 0.597,0.254 0.987,0.74 0.987,1.475 l 0,0 0,0.013 c 0,0.473 -0.144,0.843 -0.424,1.118 l 0,0 c -0.324,0.329 -0.831,0.521 -1.565,0.521 l 0,0 -2.269,0 z m 1.33,-1.152 0.871,0 c 0.445,0 0.72,-0.193 0.72,-0.57 l 0,0 0,-0.013 c 0,-0.35 -0.26,-0.569 -0.713,-0.569 l 0,0 -0.878,0 0,1.152 z"
             style="fill:url(#linearGradient4495);stroke:none"
             id="path4501"
             inkscape:connector-curvature="0" />
        </g>
      </g>
    </g>
    <g
       transform="matrix(3.8884667,0,0,-3.8884667,-931.24474,2516.8347)"
       id="g4503">
      <g
         id="g4505">
        <g
           id="g4511">
          <path
             d="m 260.339,504.233 0,-2.537 -1.975,2.537 -1.241,0 0,-4.801 1.316,0 0,2.634 2.051,-2.634 1.165,0 0,4.801 -1.316,0 z"
             style="fill:url(#linearGradient4513);stroke:none"
             id="path4519"
             inkscape:connector-curvature="0" />
        </g>
      </g>
    </g>
    <g
       transform="matrix(3.8884667,0,0,-3.8884667,-931.24474,2516.8347)"
       id="g4521">
      <g
         id="g4523">
        <g
           id="g4529">
          <path
             d="m 264.09,499.432 1.337,0 0,4.801 -1.337,0 0,-4.801 z"
             style="fill:url(#linearGradient4531);stroke:none"
             id="path4537"
             inkscape:connector-curvature="0" />
        </g>
      </g>
    </g>
    <g
       transform="matrix(3.8884667,0,0,-3.8884667,-931.24474,2516.8347)"
       id="g4539">
      <g
         id="g4541">
        <g
           id="g4547">
          <path
             d="m 266.134,504.233 0,-4.801 1.33,0 0,1.455 0.583,0 0.967,-1.455 1.536,0 -1.145,1.674 c 0.597,0.254 0.987,0.74 0.987,1.475 l 0,0 0,0.013 c 0,0.473 -0.144,0.843 -0.424,1.118 l 0,0 c -0.323,0.329 -0.831,0.521 -1.565,0.521 l 0,0 -2.269,0 z m 1.33,-1.152 0.871,0 c 0.445,0 0.72,-0.193 0.72,-0.57 l 0,0 0,-0.013 c 0,-0.35 -0.26,-0.569 -0.713,-0.569 l 0,0 -0.878,0 0,1.152 z"
             style="fill:url(#linearGradient4549);stroke:none"
             id="path4555"
             inkscape:connector-curvature="0" />
        </g>
      </g>
    </g>
    <g
       transform="matrix(3.8884667,0,0,-3.8884667,-931.24474,2516.8347)"
       id="g4557">
      <g
         id="g4559">
        <g
           id="g4565">
          <path
             d="m 270.893,504.233 0,-4.801 3.895,0 0,1.133 -2.578,0 0,0.76 2.303,0 0,1.05 -2.303,0 0,0.727 2.544,0 0,1.131 -3.861,0 z"
             style="fill:url(#linearGradient4567);stroke:none"
             id="path4573"
             inkscape:connector-curvature="0" />
        </g>
      </g>
    </g>
    <g
       transform="matrix(3.8884667,0,0,-3.8884667,-931.24474,2516.8347)"
       id="g4575">
      <g
         id="g4577">
        <g
           id="g4583">
          <path
             d="m 275.296,504.233 0,-4.801 3.655,0 0,1.166 -2.325,0 0,3.635 -1.33,0 z"
             style="fill:url(#linearGradient4585);stroke:none"
             id="path4591"
             inkscape:connector-curvature="0" />
        </g>
      </g>
    </g>
    <g
       transform="matrix(3.8884667,0,0,-3.8884667,-931.24474,2516.8347)"
       id="g4593">
      <g
         id="g4595">
        <g
           id="g4601">
          <path
             d="m 281.008,504.267 -2.044,-4.835 1.399,0 0.343,0.858 1.852,0 0.349,-0.858 1.426,0 -2.043,4.835 -1.282,0 z m 0.631,-1.577 0.534,-1.365 -1.076,0 0.542,1.365 z"
             style="fill:url(#linearGradient4603);stroke:none"
             id="path4609"
             inkscape:connector-curvature="0" />
        </g>
      </g>
    </g>
    <g
       transform="matrix(3.8884667,0,0,-3.8884667,-931.24474,2516.8347)"
       id="g4611">
      <g
         id="g4613">
        <g
           id="g4619">
          <path
             d="m 287.845,504.233 0,-2.537 -1.975,2.537 -1.241,0 0,-4.801 1.316,0 0,2.634 2.05,-2.634 1.167,0 0,4.801 -1.317,0 z"
             style="fill:url(#linearGradient4621);stroke:none"
             id="path4627"
             inkscape:connector-curvature="0" />
        </g>
      </g>
    </g>
    <g
       transform="matrix(3.8884667,0,0,-3.8884667,-931.24474,2516.8347)"
       id="g4629">
      <g
         id="g4631">
        <g
           id="g4637">
          <path
             d="m 289.84,504.233 0,-4.801 1.825,0 c 1.728,0 2.736,1.029 2.736,2.414 l 0,0 0,0.015 c 0,1.385 -0.995,2.372 -2.709,2.372 l 0,0 -1.852,0 z m 1.331,-1.18 0.541,0 c 0.796,0 1.323,-0.445 1.323,-1.213 l 0,0 0,-0.014 c 0,-0.775 -0.527,-1.214 -1.323,-1.214 l 0,0 -0.541,0 0,2.441 z"
             style="fill:url(#linearGradient4639);stroke:none"
             id="path4645"
             inkscape:connector-curvature="0" />
        </g>
      </g>
    </g>
    <g
       transform="matrix(3.8884667,0,0,-3.8884667,-931.24474,2516.8347)"
       id="g4647">
      <g
         id="g4649">
        <g
           id="g4655">
          <path
             d="m 223.061,498.137 0,-5.106 1.124,0 0,1.976 2.437,0 0,1.023 -2.437,0 0,1.086 2.765,0 0,1.021 -3.889,0 z"
             style="fill:url(#linearGradient4657);stroke:none"
             id="path4663"
             inkscape:connector-curvature="0" />
        </g>
      </g>
    </g>
    <g
       transform="matrix(3.8884667,0,0,-3.8884667,-931.24474,2516.8347)"
       id="g4665">
      <g
         id="g4667">
        <g
           id="g4673">
          <path
             d="m 227.437,495.584 0,-0.014 c 0,-1.453 1.131,-2.627 2.707,-2.627 l 0,0 c 1.576,0 2.721,1.189 2.721,2.641 l 0,0 0,0.015 c 0,1.451 -1.13,2.626 -2.706,2.626 l 0,0 c -1.576,0 -2.722,-1.189 -2.722,-2.641 m 1.175,0 0,0.015 c 0,0.875 0.628,1.591 1.532,1.591 l 0,0 c 0.905,0 1.547,-0.73 1.547,-1.606 l 0,0 0,-0.014 c 0,-0.876 -0.628,-1.591 -1.532,-1.591 l 0,0 c -0.905,0 -1.547,0.729 -1.547,1.605"
             style="fill:url(#linearGradient4675);stroke:none"
             id="path4681"
             inkscape:connector-curvature="0" />
        </g>
      </g>
    </g>
    <g
       transform="matrix(3.8884667,0,0,-3.8884667,-931.24474,2516.8347)"
       id="g4683">
      <g
         id="g4685">
        <g
           id="g4691">
          <path
             d="m 233.456,495.584 0,-0.014 c 0,-1.453 1.13,-2.627 2.706,-2.627 l 0,0 c 1.576,0 2.721,1.189 2.721,2.641 l 0,0 0,0.015 c 0,1.451 -1.13,2.626 -2.706,2.626 l 0,0 c -1.576,0 -2.721,-1.189 -2.721,-2.641 m 1.174,0 0,0.015 c 0,0.875 0.627,1.591 1.532,1.591 l 0,0 c 0.905,0 1.547,-0.73 1.547,-1.606 l 0,0 0,-0.014 c 0,-0.876 -0.627,-1.591 -1.532,-1.591 l 0,0 c -0.904,0 -1.547,0.729 -1.547,1.605"
             style="fill:url(#linearGradient4693);stroke:none"
             id="path4699"
             inkscape:connector-curvature="0" />
        </g>
      </g>
    </g>
    <g
       transform="matrix(3.8884667,0,0,-3.8884667,-931.24474,2516.8347)"
       id="g4701">
      <g
         id="g4703">
        <g
           id="g4709">
          <path
             d="m 239.116,498.137 0,-1.035 1.554,0 0,-4.071 1.123,0 0,4.071 1.554,0 0,1.035 -4.231,0 z"
             style="fill:url(#linearGradient4711);stroke:none"
             id="path4717"
             inkscape:connector-curvature="0" />
        </g>
      </g>
    </g>
    <g
       transform="matrix(3.8884667,0,0,-3.8884667,-931.24474,2516.8347)"
       id="g4719">
      <g
         id="g4721">
        <g
           id="g4727">
          <path
             d="m 244.024,498.137 0,-5.106 2.43,0 c 1.153,0 1.912,0.467 1.912,1.4 l 0,0 0,0.016 c 0,0.685 -0.366,1.027 -0.956,1.254 l 0,0 c 0.365,0.204 0.671,0.525 0.671,1.102 l 0,0 0,0.014 c 0,0.35 -0.117,0.635 -0.35,0.868 l 0,0 c -0.291,0.292 -0.751,0.452 -1.335,0.452 l 0,0 -2.372,0 z m 1.095,-0.984 1.109,0 c 0.474,0 0.736,-0.19 0.736,-0.526 l 0,0 0,-0.014 c 0,-0.38 -0.313,-0.54 -0.809,-0.54 l 0,0 -1.036,0 0,1.08 z m 0,-2.014 1.299,0 c 0.576,0 0.832,-0.212 0.832,-0.555 l 0,0 0,-0.014 c 0,-0.38 -0.3,-0.555 -0.796,-0.555 l 0,0 -1.335,0 0,1.124 z"
             style="fill:url(#linearGradient4729);stroke:none"
             id="path4735"
             inkscape:connector-curvature="0" />
        </g>
      </g>
    </g>
    <g
       transform="matrix(3.8884667,0,0,-3.8884667,-931.24474,2516.8347)"
       id="g4737">
      <g
         id="g4739">
        <g
           id="g4745">
          <path
             d="m 250.86,498.174 -2.189,-5.143 1.146,0 0.467,1.145 2.159,0 0.467,-1.145 1.174,0 -2.188,5.143 -1.036,0 z m 0.504,-1.35 0.677,-1.656 -1.356,0 0.679,1.656 z"
             style="fill:url(#linearGradient4747);stroke:none"
             id="path4753"
             inkscape:connector-curvature="0" />
        </g>
      </g>
    </g>
    <g
       transform="matrix(3.8884667,0,0,-3.8884667,-931.24474,2516.8347)"
       id="g4755">
      <g
         id="g4757">
        <g
           id="g4763">
          <path
             d="m 254.689,498.137 0,-5.106 3.669,0 0,1.021 -2.546,0 0,4.085 -1.123,0 z"
             style="fill:url(#linearGradient4765);stroke:none"
             id="path4771"
             inkscape:connector-curvature="0" />
        </g>
      </g>
    </g>
    <g
       transform="matrix(3.8884667,0,0,-3.8884667,-931.24474,2516.8347)"
       id="g4773">
      <g
         id="g4775">
        <g
           id="g4781">
          <path
             d="m 259.022,498.137 0,-5.106 3.67,0 0,1.021 -2.547,0 0,4.085 -1.123,0 z"
             style="fill:url(#linearGradient4783);stroke:none"
             id="path4789"
             inkscape:connector-curvature="0" />
        </g>
      </g>
    </g>
    <g
       transform="matrix(3.8884667,0,0,-3.8884667,-931.24474,2516.8347)"
       id="g4791">
      <g
         id="g4793">
        <g
           id="g4799">
          <path
             d="m 265.361,498.137 0,-5.106 3.67,0 0,1.021 -2.547,0 0,4.085 -1.123,0 z"
             style="fill:url(#linearGradient4801);stroke:none"
             id="path4807"
             inkscape:connector-curvature="0" />
        </g>
      </g>
    </g>
    <g
       transform="matrix(3.8884667,0,0,-3.8884667,-931.24474,2516.8347)"
       id="g4809">
      <g
         id="g4811">
        <g
           id="g4817">
          <path
             d="m 269.693,498.137 0,-5.106 3.889,0 0,0.999 -2.773,0 0,1.073 2.408,0 0,0.999 -2.408,0 0,1.036 2.736,0 0,0.999 -3.852,0 z"
             style="fill:url(#linearGradient4819);stroke:none"
             id="path4825"
             inkscape:connector-curvature="0" />
        </g>
      </g>
    </g>
    <g
       transform="matrix(3.8884667,0,0,-3.8884667,-931.24474,2516.8347)"
       id="g4827">
      <g
         id="g4829">
        <g
           id="g4835">
          <path
             d="m 276.149,498.174 -2.189,-5.143 1.146,0 0.467,1.145 2.159,0 0.467,-1.145 1.175,0 -2.189,5.143 -1.036,0 z m 0.504,-1.35 0.678,-1.656 -1.357,0 0.679,1.656 z"
             style="fill:url(#linearGradient4837);stroke:none"
             id="path4843"
             inkscape:connector-curvature="0" />
        </g>
      </g>
    </g>
    <g
       transform="matrix(3.8884667,0,0,-3.8884667,-931.24474,2516.8347)"
       id="g4845">
      <g
         id="g4847">
        <g
           id="g4853">
          <path
             d="m 279.424,495.584 0,-0.014 c 0,-1.51 1.094,-2.627 2.685,-2.627 l 0,0 c 0.934,0 1.657,0.365 2.181,0.81 l 0,0 0,2.217 -2.217,0 0,-0.97 1.131,0 0,-0.729 c -0.285,-0.204 -0.65,-0.307 -1.059,-0.307 l 0,0 c -0.904,0 -1.547,0.686 -1.547,1.62 l 0,0 0,0.015 c 0,0.868 0.65,1.591 1.467,1.591 l 0,0 c 0.592,0 0.942,-0.191 1.335,-0.519 l 0,0 0.708,0.854 c -0.532,0.452 -1.087,0.7 -2.007,0.7 l 0,0 c -1.546,0 -2.677,-1.189 -2.677,-2.641"
             style="fill:url(#linearGradient4855);stroke:none"
             id="path4861"
             inkscape:connector-curvature="0" />
        </g>
      </g>
    </g>
    <g
       transform="matrix(3.8884667,0,0,-3.8884667,-931.24474,2516.8347)"
       id="g4863">
      <g
         id="g4865">
        <g
           id="g4871">
          <path
             d="m 288.434,498.137 0,-2.925 c 0,-0.81 -0.416,-1.225 -1.102,-1.225 l 0,0 c -0.687,0 -1.101,0.43 -1.101,1.261 l 0,0 0,2.889 -1.124,0 0,-2.917 c 0,-1.503 0.838,-2.27 2.21,-2.27 l 0,0 c 1.371,0 2.24,0.758 2.24,2.306 l 0,0 0,2.881 -1.123,0 z"
             style="fill:url(#linearGradient4873);stroke:none"
             id="path4879"
             inkscape:connector-curvature="0" />
        </g>
      </g>
    </g>
    <g
       transform="matrix(3.8884667,0,0,-3.8884667,-931.24474,2516.8347)"
       id="g4881">
      <g
         id="g4883">
        <g
           id="g4889">
          <path
             d="m 290.519,498.137 0,-5.106 3.888,0 0,0.999 -2.772,0 0,1.073 2.408,0 0,0.999 -2.408,0 0,1.036 2.736,0 0,0.999 -3.852,0 z"
             style="fill:url(#linearGradient4891);stroke:none"
             id="path4897"
             inkscape:connector-curvature="0" />
        </g>
      </g>
    </g>
    <g
       transform="matrix(3.8884667,0,0,-3.8884667,-931.24474,2516.8347)"
       id="g4899">
      <g
         id="g4901">
        <g
           id="g4907">
          <path
             d="m 242.428,601.231 c -0.275,-0.021 -0.447,-0.037 -0.604,-0.19 l 0,0 c -0.171,0.164 -0.513,0.134 -0.738,0.055 l 0,0 c 0.11,-0.009 0.192,-0.013 0.191,-0.052 l 0,0 c -0.231,-0.01 -0.437,-0.062 -0.71,-0.2 l 0,0 c 0.117,0.026 0.397,0.069 0.387,0.022 l 0,0 c -0.276,-0.031 -0.701,-0.165 -0.998,-0.376 l 0,0 c 0.088,0.045 0.234,0.038 0.271,0.021 l 0,0 c -0.105,-0.069 -0.413,-0.155 -0.996,-0.791 l 0,0 c 0.569,0.521 0.048,-0.071 -0.06,-0.226 l 0,0 c -0.261,-0.377 -0.434,-0.821 -0.52,-1.283 l 0,0 c -0.04,-0.22 -0.032,-0.48 -0.028,-0.714 l 0,0 c 0.005,-0.125 0.014,-0.248 0.023,-0.371 l 0,0 c -0.023,-0.17 -0.036,-0.334 -0.049,-0.494 l 0,0 c -0.035,-0.449 -0.018,-1.009 -0.226,-1.541 l 0,0 -0.021,0.016 -0.008,-0.095 c -0.122,-0.447 -0.576,-1.111 -0.576,-1.111 l 0,0 c -0.495,-0.559 -1.823,-1.157 -1.823,-1.157 l 0,0 c -0.067,-0.026 -0.125,-0.054 -0.182,-0.082 l 0,0 c -0.547,-0.089 -1.22,-0.162 -1.22,-0.162 l 0,0 c -0.045,0.015 -0.122,0.009 -0.197,0.002 l 0,0 c -0.076,-0.006 -0.151,-0.012 -0.196,0.003 l 0,0 c -0.531,0.174 -1.612,0.109 -2.194,0.011 l 0,0 c -0.785,-0.132 -1.407,-0.482 -2.244,-1.067 l 0,0 c -0.4,-0.279 -0.773,-0.597 -1.188,-0.847 l 0,0 c -0.453,-0.274 -0.863,-0.502 -1.303,-0.734 l 0,0 c -0.114,-0.06 -0.222,-0.091 -0.318,-0.157 l 0,0 c -0.209,-0.142 -0.364,-0.292 -0.457,-0.453 l 0,0 c -0.041,-0.069 -0.081,-0.204 -0.137,-0.25 l 0,0 -0.008,-0.056 c -0.525,-0.121 -0.731,-0.178 -0.731,-0.178 l 0,0 c -0.119,-0.018 -0.234,-0.062 -0.346,-0.087 l 0,0 c -0.683,-0.147 -1.372,-0.24 -2.043,-0.447 l 0,0 c -0.928,-0.286 -1.861,-0.74 -2.82,-1.107 l 0,0 c -1.203,-0.462 -2.349,-0.848 -3.473,-1.132 l 0,0 c -0.232,-0.059 -0.454,-0.143 -0.688,-0.192 l 0,0 c -0.218,-0.044 -0.45,-0.067 -0.668,-0.075 l 0,0 c -0.067,-0.002 -0.137,-0.002 -0.205,-0.001 l 0,0 c -0.158,0 -0.318,0.001 -0.462,-0.033 l 0,0 c -0.057,-0.013 -0.12,-0.052 -0.163,-0.063 l 0,0 c -0.081,-0.019 -0.182,-0.015 -0.273,-0.03 l 0,0 c -0.097,-0.016 -0.189,-0.035 -0.286,-0.059 l 0,0 c -0.306,-0.076 -0.696,-0.1 -0.882,-0.386 l 0,0 c -0.133,-0.204 -0.18,-0.458 -0.214,-0.691 l 0,0 c -0.028,-0.201 -0.082,-0.437 -0.029,-0.626 l 0,0 c 0.009,-0.032 0.043,-0.062 0.051,-0.101 l 0,0 c 0.031,-0.16 -0.12,-0.303 0.051,-0.481 l 0,0 c 0.076,-0.079 0.166,-0.084 0.247,-0.121 l 0,0 c -0.006,-0.334 0.433,-0.407 0.691,-0.289 l 0,0 c -0.035,-0.163 0.096,-0.332 0.266,-0.367 l 0,0 c 0.089,-0.018 0.252,0.025 0.384,0.07 l 0,0 c 0.143,0.049 0.305,0.078 0.398,0.152 l 0,0 c 0.088,0.069 0.12,0.212 0.164,0.299 l 0,0 c 0.061,0.118 0.138,0.21 0.159,0.306 l 0,0 c 0.338,0.08 0.62,0.141 0.964,0.347 l 0,0 c 0.161,0.097 0.292,0.213 0.389,0.33 l 0,0 c 0.087,0.105 0.158,0.286 0.27,0.357 l 0,0 c 0.062,0.04 0.214,0.074 0.335,0.1 l 0,0 c 0.35,0.078 0.691,0.122 0.995,0.142 l 0,0 c 0.446,0.028 0.884,0.046 1.298,0.054 l 0,0 c 0.889,0.017 1.753,0.068 2.608,0.149 l 0,0 c 0.869,0.083 1.788,0.244 2.679,0.545 l 0,0 c 0.237,0.08 0.466,0.153 0.686,0.251 l 0,0 c 0.297,0.155 0.519,0.329 0.721,0.418 l 0,0 c 0.174,0.097 0.379,0.159 0.582,0.21 l 0,0 c 0.367,-0.73 0.704,-0.294 0.704,-0.294 l 0,0 c 0.12,0.027 0.143,0.252 0.243,0.258 l 0,0 c 0.073,0.004 0.262,-0.171 0.327,-0.175 l 0,0 c 0.238,-0.012 0.389,0.041 0.645,0.111 l 0,0 c 0.07,0.014 0.254,-0.042 0.444,-0.1 l 0,0 c 0.205,-0.061 0.415,-0.123 0.494,-0.094 l 0,0 c 0.094,0.026 0.51,0.044 0.74,0.091 l 0,0 -0.064,-0.127 c 0,-0.297 -0.01,-0.594 0.002,-0.893 l 0,0 c 0.017,-0.424 0.034,-0.851 0.08,-1.27 l 0,0 c 0.046,-0.416 0.096,-0.842 0.103,-1.252 l 0,0 c 0.007,-0.437 0.031,-0.866 0.069,-1.28 l 0,0 c 0.038,-0.416 0.089,-0.821 0.124,-1.233 l 0,0 c 0.035,-0.418 -0.155,-0.826 -0.231,-1.254 l 0,0 c -0.137,-0.763 -0.191,-1.57 -0.022,-2.2 l 0,0 c 0.028,-0.105 0.072,-0.238 0.108,-0.374 l 0,0 c 0.027,-0.098 0.112,-0.333 0.075,-0.42 l 0,0 c -0.093,-0.217 -0.274,-0.485 -0.36,-0.757 l 0,0 c -0.03,-0.095 -0.081,-0.208 -0.085,-0.285 l 0,0 c -0.009,-0.159 0.19,-0.288 0.231,-0.475 l 0,0 c 0.267,-0.176 0.582,-0.311 0.759,-0.562 l 0,0 c -0.087,-0.069 -0.191,-0.085 -0.248,-0.17 l 0,0 c -0.116,-0.173 -0.161,-0.54 -0.231,-0.788 l 0,0 c -0.222,-0.79 -0.353,-1.75 -0.461,-2.608 l 0,0 c -0.156,-1.235 -0.127,-2.463 0.081,-3.442 l 0,0 c 0.211,-0.992 0.608,-1.869 1.016,-2.696 l 0,0 c 0.153,-0.31 0.346,-0.613 0.484,-0.932 l 0,0 c 0.233,-0.538 0.385,-1.136 0.575,-1.728 l 0,0 c -0.295,-0.004 -0.587,0.053 -0.869,0.107 l 0,0 c -0.281,0.054 -0.575,0.087 -0.833,0.175 l 0,0 c -0.244,0.081 -0.48,0.187 -0.725,0.265 l 0,0 c -0.205,0.065 -0.483,0.241 -0.686,0.375 l 0,0 c 0.005,0.018 0.008,0.036 0.009,0.054 l 0,0 c 0.014,0.162 -0.085,0.306 -0.231,0.352 l 0,0 c -0.005,0.027 -0.009,0.054 -0.02,0.083 l 0,0 c -0.017,0.05 -0.011,0.106 -0.027,0.155 l 0,0 c -0.072,0.22 -0.245,0.407 -0.406,0.551 l 0,0 c -0.076,0.068 -0.158,0.131 -0.243,0.191 l 0,0 c -0.106,0.075 -0.218,0.146 -0.327,0.213 l 0,0 c -0.061,0.083 -0.105,0.238 -0.221,0.251 l 0,0 c -0.03,0.004 -0.066,10e-4 -0.104,-0.005 l 0,0 c -0.113,-0.019 -0.248,-0.073 -0.352,-0.126 l 0,0 c -0.014,-0.008 -0.029,-0.016 -0.043,-0.024 l 0,0 -0.004,10e-4 c -0.031,0.018 -0.079,-0.005 -0.111,-0.054 l 0,0 c -0.009,-0.013 -0.015,-0.028 -0.019,-0.041 l 0,0 -0.009,-0.008 c -0.038,-0.027 -0.075,-0.062 -0.11,-0.102 l 0,0 -0.097,0.055 c -0.002,10e-4 -0.005,0.002 -0.007,0.002 l 0,0 c -0.031,0.018 -0.079,-0.005 -0.111,-0.054 l 0,0 c -0.032,-0.048 -0.035,-0.105 -0.008,-0.129 l 0,0 0.002,-0.004 0.071,-0.076 -0.316,-0.447 -0.004,0.002 c -0.032,0.017 -0.079,-0.005 -0.111,-0.054 l 0,0 c -0.03,-0.047 -0.035,-0.101 -0.011,-0.127 l 0,0 -0.02,-0.028 -0.104,0.059 c -0.002,0.002 -0.004,0.003 -0.007,0.004 l 0,0 c -0.031,0.017 -0.079,-0.007 -0.111,-0.055 l 0,0 c -0.031,-0.049 -0.035,-0.106 -0.008,-0.13 l 0,0 0.003,-0.004 0.078,-0.083 -0.101,-0.142 c -0.298,-0.422 -0.698,-0.763 -1.083,-1.117 l 0,0 -0.037,0.021 c -0.003,0.002 -0.005,0.003 -0.007,0.004 l 0,0 c -0.032,0.017 -0.079,-0.006 -0.112,-0.054 l 0,0 c -0.03,-0.047 -0.034,-0.1 -0.011,-0.126 l 0,0 -0.07,-0.066 c -0.137,-0.133 -0.242,-0.237 -0.335,-0.338 l 0,0 -0.056,0.031 c -0.003,0.002 -0.005,0.003 -0.007,0.004 l 0,0 c -0.031,0.017 -0.08,-0.007 -0.111,-0.055 l 0,0 c -0.032,-0.049 -0.035,-0.105 -0.009,-0.13 l 0,0 0.003,-0.003 0.03,-0.032 c -0.088,-0.12 -0.171,-0.256 -0.27,-0.445 l 0,0 -0.031,-0.061 c -0.032,0.01 -0.075,-0.014 -0.105,-0.058 l 0,0 c -0.031,-0.049 -0.034,-0.105 -0.008,-0.13 l 0,0 0.003,-0.004 0.013,-0.014 c -0.07,-0.159 -0.129,-0.324 -0.171,-0.492 l 0,0 c -0.017,-0.01 -0.033,-0.027 -0.047,-0.048 l 0,0 c -0.031,-0.048 -0.035,-0.105 -0.008,-0.129 l 0,0 0.003,-0.005 0.013,-0.013 c -0.047,-0.293 -0.035,-0.592 0.065,-0.889 l 0,0 c 0.062,-0.179 0.121,-0.28 0.216,-0.39 l 0,0 c 0.043,-0.041 0.115,-0.067 0.207,-0.049 l 0,0 c 0.365,-0.301 1.041,0.096 1.385,0.515 l 0,0 c 0.072,0.049 0.147,0.077 0.216,0.129 l 0,0 c 0.032,0.025 0.066,0.047 0.1,0.074 l 0,0 c 0.031,0.027 0.068,0.049 0.099,0.075 l 0,0 c 0.063,0.054 0.101,0.134 0.169,0.174 l 0,0 0.017,0.011 c 0.029,-0.007 0.065,0.002 0.094,0.027 l 0,0 c 0.029,0.023 0.047,0.054 0.051,0.084 l 0,0 0.113,0.095 c 0.027,-0.003 0.058,0.007 0.084,0.029 l 0,0 c 0.027,0.02 0.044,0.049 0.048,0.078 l 0,0 c 0.037,0.029 0.072,0.055 0.107,0.079 l 0,0 c 0.024,-0.01 0.054,-0.011 0.085,10e-4 l 0,0 c 0.044,0.015 0.075,0.053 0.079,0.09 l 0,0 c 0.01,0.003 0.019,0.006 0.028,0.006 l 0,0 c 0.024,0.003 0.045,0.005 0.063,0.007 l 0,0 c 0.025,-0.01 0.056,-0.01 0.087,0 l 0,0 c 0.031,0.012 0.056,0.034 0.069,0.06 l 0,0 c 0.009,0.003 0.021,0.007 0.034,0.011 l 0,0 c 0.018,0.005 0.04,0.005 0.062,0.004 l 0,0 c -0.045,-0.066 -0.115,-0.167 -0.159,-0.272 l 0,0 c -0.014,-0.031 -0.024,-0.063 -0.032,-0.093 l 0,0 c -0.103,-0.073 -0.232,-0.138 -0.385,-0.174 l 0,0 c -0.047,-0.012 -0.017,-0.04 0.02,-0.031 l 0,0 c 0.136,0.032 0.255,0.072 0.355,0.12 l 0,0 c 0,-0.053 0.015,-0.102 0.052,-0.143 l 0,0 c 0.009,-0.01 0.019,-0.018 0.03,-0.023 l 0,0 c 0.03,-0.017 0.065,-0.018 0.105,-0.005 l 0,0 0.007,0.003 c 0.035,0.014 0.074,0.042 0.114,0.083 l 0,0 c 0.063,0.063 0.133,0.163 0.198,0.298 l 0,0 c 0.017,0.036 0.036,0.077 0.056,0.121 l 0,0 0.033,0.073 c 0.01,-0.031 0.019,-0.062 0.026,-0.095 l 0,0 c 0.032,-0.172 0.041,-0.429 -0.065,-0.703 l 0,0 c -0.019,-0.047 0.02,-0.036 0.035,0 l 0,0 c 0.112,0.29 0.151,0.531 0.116,0.721 l 0,0 c -0.01,0.053 -0.026,0.103 -0.048,0.149 l 0,0 c 0.071,-0.012 0.134,-0.033 0.188,-0.06 l 0,0 c 0.022,-0.012 0.05,-0.029 0.08,-0.046 l 0,0 c 0.088,-0.051 0.194,-0.11 0.231,-0.085 l 0,0 c 0.034,0.023 0.037,0.08 0.014,0.117 l 0,0 c -0.044,0.075 -0.095,0.112 -0.165,0.15 l 0,0 c 0.931,-0.346 2.392,-0.936 2.837,-1.26 l 0,0 c 0.174,-0.126 0.337,-0.265 0.511,-0.398 l 0,0 c 0.358,-0.274 0.77,-0.457 1.129,-0.716 l 0,0 c 0.355,-0.256 0.617,-0.587 0.988,-0.824 l 0,0 c 0.161,-0.303 0.335,-0.631 0.525,-0.925 l 0,0 c 0.122,-0.188 0.362,-0.378 0.55,-0.534 l 0,0 c 0.126,-0.104 0.203,-0.161 0.384,-0.225 l 0,0 c 0.06,-0.022 0.126,-0.058 0.176,-0.067 l 0,0 c 0.043,-0.008 0.09,-0.004 0.139,-10e-4 l 0,0 c 0.062,0.006 0.127,0.01 0.194,-0.008 l 0,0 c 0.165,-0.046 0.264,-0.241 0.452,-0.262 l 0,0 c 0.006,-0.354 0.082,-0.692 0.099,-1.049 l 0,0 c 0.019,-0.374 -0.027,-0.751 0.025,-1.103 l 0,0 c 0.101,-0.68 0.219,-1.33 0.386,-1.935 l 0,0 c 0.17,-0.618 0.334,-1.218 0.56,-1.786 l 0,0 c 0.667,-1.679 1.527,-3.222 2.249,-4.876 l 0,0 c 0.176,-0.405 0.321,-0.818 0.449,-1.246 l 0,0 0.001,-0.004 0.001,-0.004 0.002,-0.008 0.003,-0.008 0.003,-0.007 -0.001,-10e-4 0.003,-0.007 0.002,-0.009 0.009,-0.032 0.003,-0.007 0,-10e-4 0.002,-0.007 0.002,-0.008 0.007,-0.025 0.002,-0.008 0.021,-0.072 0.002,-0.007 0.004,-0.014 0,-0.002 0.009,-0.026 0,-0.007 0.003,-0.008 0.011,-0.04 0.001,-0.002 0.002,-0.006 0.004,-0.016 0.002,-0.007 0,-0.002 0.003,-0.008 0.002,-0.007 0.001,-0.009 10e-4,-0.003 0.002,-0.005 0.002,-0.007 0.003,-0.008 0.001,-0.007 0,-0.002 0.003,-0.008 0.002,-0.007 0.002,-0.01 0.001,-0.002 10e-4,-0.006 0.002,-0.007 0.003,-0.008 0.002,-0.008 0,-0.001 0.002,-0.007 0.002,-0.008 0.003,-0.009 0.001,-0.004 0.001,-0.004 0.001,-0.008 0.003,-0.009 0.002,-0.008 c 0.158,-0.597 0.338,-1.206 0.485,-1.84 l 0,0 c -0.125,-0.017 -0.268,-0.155 -0.205,-0.416 l 0,0 c 0.002,-0.101 0.064,-0.262 0.113,-0.573 l 0,0 c 0.041,-0.369 0.122,-0.518 0.037,-0.897 l 0,0 c -0.025,-0.113 -0.07,-0.226 -0.092,-0.355 l 0,0 c -0.019,-0.12 0.037,-0.195 -0.006,-0.302 l 0,0 c -0.098,-0.244 -0.149,-0.468 -0.103,-0.708 l 0,0 c 0.054,-0.279 0.133,-0.417 0.136,-0.675 l 0,0 c -0.077,-0.004 -0.119,-0.006 -0.119,-0.006 l 0,0 c -1.512,-0.03 -3.307,-0.27 -5.106,-0.869 l 0,0 c 0,0 -1.361,-0.533 -2.716,-1.117 l 0,0 0,1.428 -9.394,0 0,-28.961 9.394,0 0,21.881 c 0.908,0.413 1.963,0.701 3.124,0.701 l 0,0 c 4.377,0 5.193,-2.918 5.193,-7.47 l 0,0 0,-15.112 9.279,0 0,19.022 c 0,2.451 -0.059,5.543 -2.51,7.994 l 0,0 c -0.639,0.641 -1.342,1.113 -2.053,1.469 l 0,0 c -0.411,0.199 -0.825,0.357 -1.231,0.488 l 0,0 0.059,0.006 0.033,0.002 c 0.033,0.002 0.066,0.024 0.068,0.056 l 0,0 0.009,0.203 0.005,0 0.069,-0.274 c 0.008,-0.032 0.047,-0.046 0.081,-0.043 l 0,0 0.191,0.014 c 0.025,0.003 0.05,0.016 0.061,0.036 l 0,0 0.151,0.011 c 0.032,0.003 0.065,0.024 0.067,0.057 l 0,0 0.012,0.246 0.123,0.009 0.003,-10e-4 c 0.021,-0.002 0.043,0 0.063,0.005 l 0,0 c 0.018,0.002 0.032,0.008 0.044,0.017 l 0,0 c 0.049,0.027 0.084,0.077 0.09,0.136 l 0,0 c 0.006,0.068 -0.031,0.132 -0.089,0.166 l 0,0 c 0.233,0.691 -0.257,1.809 -0.535,2.381 l 0,0 c -0.03,0.06 -0.081,0.117 -0.133,0.176 l 0,0 c 0.037,0.015 0.072,0.032 0.103,0.051 l 0,0 c 0.198,-0.042 0.417,-0.12 0.632,-0.258 l 0,0 c 0.068,-0.043 0.063,0.022 0.012,0.056 l 0,0 c -0.192,0.123 -0.372,0.216 -0.539,0.28 l 0,0 c 0.058,0.058 0.094,0.128 0.097,0.215 l 0,0 c 0,0.021 -0.003,0.042 -0.009,0.061 l 0,0 c -0.017,0.055 -0.06,0.1 -0.128,0.131 l 0,0 c -0.04,0.018 -0.091,0.031 -0.15,0.038 l 0,0 c -0.023,0.002 -0.045,0.004 -0.069,0.004 l 0,0 c -0.037,10e-4 -0.076,0 -0.118,-0.002 l 0,0 c -0.023,0.149 -0.079,0.301 -0.142,0.457 l 0,0 c 0.092,0.059 0.194,0.114 0.307,0.16 l 0,0 c 0.073,0.031 0.018,0.065 -0.039,0.041 l 0,0 c -0.106,-0.043 -0.204,-0.089 -0.294,-0.136 l 0,0 c -0.062,0.153 -0.125,0.307 -0.162,0.463 l 0,0 c -0.057,0.241 -0.101,0.39 -0.335,0.345 l 0,0 c -0.076,0.295 -0.162,0.636 -0.251,0.931 l 0,0 -0.003,0.008 -0.002,0.005 -10e-4,0.003 -0.003,0.008 0,0.002 -0.001,0.005 -0.003,0.008 -0.001,10e-4 -0.002,0.007 -0.001,0.006 -10e-4,0.002 -0.003,0.007 -0.001,0.005 -0.002,0.003 -0.002,0.009 0,10e-4 -0.003,0.006 -0.002,0.007 0,10e-4 -0.003,0.007 -0.002,0.005 0,0.003 -0.003,0.007 -0.001,0.003 -0.003,0.005 -0.002,0.009 0,0 -0.003,0.007 -0.002,0.005 -0.001,0.002 -0.003,0.008 0,0.004 -0.002,0.004 -0.003,0.007 -0.001,10e-4 -0.003,0.008 -0.001,0.006 -10e-4,10e-4 -0.003,0.007 -0.002,0.004 -10e-4,0.004 -0.003,0.008 0,0.002 -0.003,0.005 -0.003,0.007 0,10e-4 -0.003,0.008 -0.002,0.004 -0.001,0.003 -0.003,0.008 -0.001,0.003 -0.002,0.004 -0.003,0.008 -0.003,0.007 -0.002,0.006 -10e-4,0.003 -0.003,0.007 -0.002,0.003 -0.002,0.004 -0.002,0.008 -0.001,10e-4 -0.003,0.006 -0.002,0.006 0,0.002 -0.004,0.007 -0.002,0.005 -0.001,0.004 -0.003,0.007 -0.001,0.002 -0.003,0.005 -0.003,0.007 0,10e-4 -0.003,0.007 -0.002,0.005 -0.002,0.002 -0.003,0.009 -0.001,10e-4 -0.002,0.006 -0.003,0.008 -0.004,0.007 -0.002,0.005 -0.001,0.002 -0.003,0.007 -0.002,0.004 -0.001,0.005 -0.004,0.007 0,0.002 -0.003,0.006 -0.002,0.006 -10e-4,10e-4 -0.004,0.008 -0.002,0.004 -0.001,0.003 -0.003,0.008 -0.001,10e-4 -0.003,0.006 -0.003,0.007 0,0.001 -0.003,0.007 c -0.051,0.113 -0.103,0.225 -0.15,0.34 l 0,0 c -0.23,0.551 -0.477,1.122 -0.629,1.703 l 0,0 c -0.08,0.305 -0.145,0.623 -0.21,0.938 l 0,0 c -0.065,0.311 -0.141,0.621 -0.211,0.938 l 0,0 c -0.141,0.639 -0.194,1.321 -0.246,2.022 l 0,0 c -0.052,0.692 -0.106,1.391 -0.181,2.077 l 0,0 c -0.075,0.667 -0.2,1.329 -0.334,1.95 l 0,0 c -0.127,0.584 -0.387,1.161 -0.585,1.738 l 0,0 c -0.105,0.304 -0.152,0.64 -0.168,0.975 l 0,0 c -0.014,0.339 -0.052,0.592 -0.135,0.911 l 0,0 c -0.077,0.111 -0.083,0.114 -0.207,0.14 l 0,0 c 0.068,0.465 0.132,1.014 0.087,1.437 l 0,0 c 0.016,0.054 0.074,0.073 0.11,0.101 l 0,0 c 0.11,0.09 0.243,0.203 0.341,0.324 l 0,0 c 0.069,0.085 0.086,0.183 0.137,0.291 l 0,0 c 0.071,0.153 0.209,0.304 0.266,0.502 l 0,0 c 0.068,0.236 0.021,0.564 0.046,0.865 l 0,0 c 0.13,1.577 0.441,2.903 0.674,4.336 l 0,0 c 0.094,0.578 0.133,1.178 0.167,1.785 l 0,0 c 0.034,0.593 0.137,1.18 0.135,1.766 l 0,0 c -0.002,0.575 -0.033,1.145 -0.002,1.698 l 0,0 c 0.035,0.627 0.126,1.216 0.136,1.787 l 0,0 c 0.006,0.276 -0.039,0.543 -0.059,0.813 l 0,0 c -0.02,0.264 -0.092,0.531 -0.083,0.786 l 0,0 c 0.006,0.169 -0.002,0.314 -0.029,0.477 l 0,0 c -0.052,0.079 -0.18,0.108 -0.182,0.218 l 0,0 c -0.002,0.119 0.259,0.258 0.345,0.363 l 0,0 c 0.201,0.247 0.305,0.553 0.412,0.894 l 0,0 c -0.126,0.383 -0.391,0.729 -0.395,1.247 l 0,0 c -0.004,0.386 0.052,0.787 0.074,1.197 l 0,0 c 0.022,0.39 0.048,0.79 0.055,1.197 l 0,0 c 0.014,0.825 0.038,1.653 0.32,2.256 l 0,0 c 0.113,-0.361 0.129,-0.717 0.22,-1.05 l 0,0 c 0.094,-0.34 0.184,-0.66 0.299,-0.977 l 0,0 c 0.223,-0.616 0.541,-1.165 0.912,-1.696 l 0,0 c 0.353,-0.508 0.729,-1.018 1.162,-1.487 l 0,0 c 0.2,-0.216 0.398,-0.464 0.613,-0.721 l 0,0 c 0.091,-0.108 0.201,-0.225 0.292,-0.369 l 0,0 c 0.078,-0.124 0.202,-0.331 0.203,-0.442 l 0,0 c 0.001,-0.091 -0.056,-0.19 -0.084,-0.275 l 0,0 c -0.089,-0.274 -0.103,-0.613 -0.008,-0.88 l 0,0 c 0.066,-0.181 0.19,-0.281 0.294,-0.46 l 0,0 c -0.044,-0.069 -0.115,-0.103 -0.158,-0.188 l 0,0 c -0.038,-0.074 -0.06,-0.183 -0.096,-0.284 l 0,0 c -0.093,-0.26 -0.082,-0.415 0.059,-0.602 l 0,0 c 0.037,-0.05 0.099,-0.082 0.148,-0.144 l 0,0 c 0.109,-0.137 0.182,-0.147 0.375,-0.214 l 0,0 c 0.07,-0.026 0.134,-0.074 0.203,-0.11 l 0,0 c 0.025,-0.013 0.051,-0.023 0.077,-0.033 l 0,0 c 0.053,-0.019 0.105,-0.035 0.148,-0.057 l 0,0 c 0.14,-0.075 0.23,-0.198 0.35,-0.263 l 0,0 c -0.094,-0.394 0.273,-0.913 0.546,-0.574 l 0,0 c 0.075,0.092 0.115,0.239 0.134,0.382 l 0,0 c 0.325,0.131 0.509,0.467 0.728,0.806 l 0,0 c 0.157,0.241 0.396,0.458 0.414,0.792 l 0,0 c 0.011,0.219 -0.124,0.478 -0.235,0.657 l 0,0 c -0.345,0.551 -0.773,1.071 -1.08,1.631 l 0,0 c -0.102,0.185 -0.165,0.421 -0.246,0.648 l 0,0 c -0.109,0.304 -0.217,0.621 -0.322,0.94 l 0,0 c -0.117,0.355 -0.23,0.709 -0.332,1.048 l 0,0 c -0.143,0.472 -0.224,0.964 -0.308,1.442 l 0,0 c -0.086,0.487 -0.202,0.962 -0.32,1.422 l 0,0 c -0.239,0.936 -0.702,1.694 -1.085,2.48 l 0,0 c 0.197,0.271 0.291,0.702 0.231,1.131 l 0,0 c -0.032,0.232 -0.029,0.47 -0.04,0.691 l 0,0 c -0.024,0.458 -0.081,0.92 -0.036,1.428 l 0,0 c 0.047,0.539 0.122,1.042 0.123,1.525 l 0,0 c 0.002,0.468 -0.033,0.936 -0.145,1.336 l 0,0 c -0.215,0.767 -0.669,1.398 -1.272,1.85 l 0,0 c -0.49,0.368 -0.836,0.512 -1.381,0.598 l 0,0 c -0.213,0.049 -0.923,0.08 -1.13,0.146 l 0,0 c -0.575,0.154 -0.8,0.699 -0.994,0.842 l 0,0 c 0.169,-0.105 0.822,-0.53 1.055,-0.603 l 0,0 c 0.234,-0.072 0.516,-0.137 0.733,-0.054 l 0,0 c 0.171,0.066 0.311,0.207 0.397,0.38 l 0,0 c 0,0 0.103,0.17 0.114,0.358 l 0,0 c 0.049,0.334 0.393,0.168 0.435,0.514 l 0,0 c 0.196,0.021 0.348,0.272 0.357,0.474 l 0,0 c 0.314,-0.164 0.619,-0.12 0.717,0.143 l 0,0 c 0.041,0.111 0,0.284 -0.006,0.411 l 0,0 c -0.007,0.146 -0.001,0.291 0,0.42 l 0,0 c 0.003,0.909 -0.024,0.871 0.392,1.173 l 0,0 c 0.204,0.146 0.394,0.231 0.507,0.571 l 0,0 c 0.057,0.174 0.061,0.375 0.113,0.569 l 0,0 c 0.073,0.274 0.131,0.536 0.165,0.785 l 0,0 0.002,0.004 c 0.072,-0.033 0.33,-0.089 0.573,-0.112 l 0,0 c -0.104,0.015 -0.344,0.087 -0.108,0.082 l 0,0 c 0.238,-0.005 0.331,10e-4 0.533,0.135 l 0,0 c -0.174,-0.034 -0.155,-0.042 -0.297,-0.027 l 0,0 c 0.244,0.041 0.322,0.158 0.294,0.144 l 0,0 c -0.121,-0.064 -0.206,-0.025 -0.209,0.015 l 0,0 c -0.002,0.026 0.032,0.052 0.114,0.05 l 0,0 c 0.174,-0.007 0.323,0.093 0.336,0.127 l 0,0 c -0.039,-0.031 -0.299,-0.073 -0.382,0.125 l 0,0 c -0.004,0.008 0.006,10e-4 0.027,-0.005 l 0,0 c 0.051,-0.015 0.165,-0.031 0.296,0.171 l 0,0 c -0.236,-0.088 -0.193,0.06 -0.13,0.086 l 0,0 c 0.042,0.018 0.111,0.038 0.15,0.09 l 0,0 c 0.083,0.109 0.114,0.215 -0.023,0.244 l 0,0 c 0.035,-0.034 0.001,-0.106 -0.035,-0.119 l 0,0 c -0.176,-0.067 -0.369,0.083 -0.509,0.274 l 0,0 c -0.013,0.059 0.064,0.007 0.118,-0.048 l 0,0 c -0.144,0.164 -0.296,0.253 -0.321,0.489 l 0,0 c -0.011,0.096 0.058,0.002 0.115,-0.093 l 0,0 c 0.037,-0.059 0.069,-0.118 0.074,-0.13 l 0,0 c -0.084,0.254 -0.166,0.566 -0.313,0.793 l 0,0 c -0.003,0.005 -0.005,0.009 -0.008,0.013 l 0,0 c 0.003,-0.004 0.005,-0.008 0.008,-0.013 l 0,0 c 0.04,-0.059 0.093,-0.114 0.12,-0.178 l 0,0 c -0.071,0.203 -0.328,0.564 -0.437,0.768 l 0,0 c -0.009,0.087 0.086,0.003 0.149,-0.083 l 0,0 c -0.396,0.604 -0.603,0.657 -0.642,0.725 l 0,0 c 0.051,0.036 0.149,-0.084 0.182,-0.126 l 0,0 c -0.219,0.346 -0.806,0.704 -1.389,0.954 l 0,0 c 0.08,0.085 0.266,-0.068 0.395,-0.092 l 0,0 c -0.544,0.3 -1.276,0.585 -1.81,0.596 l 0,0 c 0.223,0.067 0.424,0.011 0.684,-0.086 l 0,0 c -0.486,0.348 -1.344,0.217 -1.46,0.102 l 0,0 c -0.058,0.025 0.163,0.149 0.242,0.159 z m -15.079,-42.335 c -0.003,0 -0.005,0.003 -0.007,0.005 l 0,0 c -0.029,0.032 -0.033,0.078 -0.023,0.129 l 0,0 c 0.045,0.027 0.086,0.056 0.122,0.088 l 0,0 c 0.02,0.017 0.038,0.035 0.054,0.053 l 0,0 c 0.08,0.087 0.127,0.188 0.142,0.301 l 0,0 c 0.004,0.007 0.007,0.013 0.01,0.021 l 0,0 c 0.039,-0.006 0.079,-0.01 0.12,-0.008 l 0,0 c -0.02,-0.049 -0.039,-0.093 -0.056,-0.131 l 0,0 c -0.018,-0.039 -0.037,-0.08 -0.055,-0.118 l 0,0 c -0.062,-0.125 -0.125,-0.217 -0.182,-0.275 l 0,0 c -0.018,-0.019 -0.035,-0.033 -0.051,-0.044 l 0,0 c -0.012,-0.008 -0.023,-0.014 -0.034,-0.018 l 0,0 c -0.01,-0.004 -0.019,-0.006 -0.027,-0.006 l 0,0 c -0.005,0 -0.009,10e-4 -0.013,0.003 m 17.265,-20.007 c -0.046,0.011 -0.091,0.019 -0.135,0.026 l 0,0 c -0.014,0.039 -0.019,0.083 -0.014,0.13 l 0,0 c 0.004,0.026 0.006,0.051 0.006,0.078 l 0,0 c 0.036,0.003 0.071,0.004 0.102,0.003 l 0,0 c 0.022,-10e-4 0.042,-0.003 0.061,-0.004 l 0,0 c 0.043,-0.006 0.078,-0.014 0.105,-0.027 l 0,0 c 0.029,-0.012 0.046,-0.027 0.05,-0.043 l 0,0 c 0.002,-0.004 0.002,-0.01 0.002,-0.014 l 0,0 c -0.002,-0.068 -0.048,-0.122 -0.115,-0.166 l 0,0 c -0.021,0.007 -0.042,0.012 -0.062,0.017 m -1.053,-3.199 0.465,0.034 0.044,-0.175 c -0.172,0.053 -0.342,0.099 -0.509,0.141 m 3.147,62.007 c 0,0 0,0 -0.001,0.002 l 0,0 c 0.001,0 0.001,-10e-4 0.001,-0.002"
             style="fill:url(#linearGradient4909);stroke:none"
             id="path4919"
             inkscape:connector-curvature="0" />
        </g>
      </g>
    </g>
    <g
       transform="matrix(3.8884667,0,0,-3.8884667,-931.24474,2516.8347)"
       id="g4921">
      <g
         id="g4923">
        <g
           id="g4929">
          <path
             d="m 252.597,506.514 9.394,0 0,28.945 -9.394,0 0,-28.945 z"
             style="fill:url(#linearGradient4931);fill-rule:evenodd;stroke:none"
             id="path4941"
             inkscape:connector-curvature="0" />
        </g>
      </g>
    </g>
    <g
       transform="matrix(3.8884667,0,0,-3.8884667,-931.24474,2516.8347)"
       id="g4943">
      <g
         id="g4945">
        <g
           id="g4951">
          <path
             d="m 284.83,506.514 9.511,0 0,42.292 -9.511,0 0,-42.292 z"
             style="fill:url(#linearGradient4953);fill-rule:evenodd;stroke:none"
             id="path4963"
             inkscape:connector-curvature="0" />
        </g>
      </g>
    </g>
    <g
       transform="matrix(3.8884667,0,0,-3.8884667,-931.24474,2516.8347)"
       id="g4965">
      <g
         id="g4967">
        <g
           id="g4973">
          <path
             d="m 252.575,542.166 c 0,-2.605 2.113,-4.718 4.72,-4.718 l 0,0 c 2.605,0 4.718,2.113 4.718,4.718 l 0,0 c 0,2.607 -2.113,4.719 -4.718,4.719 l 0,0 c -2.607,0 -4.72,-2.112 -4.72,-4.719"
             style="fill:url(#linearGradient4975);stroke:none"
             id="path4985"
             inkscape:connector-curvature="0" />
        </g>
      </g>
    </g>
    <g
       transform="matrix(3.8884667,0,0,-3.8884667,-931.24474,2516.8347)"
       id="g4987">
      <g
         id="g4989">
        <g
           id="g4995">
          <path
             d="m 269.265,545.868 c -1.921,-1.966 -2.88,-4.487 -2.88,-7.568 l 0,0 0,-2.828 -2.24,0 0,-6.652 2.24,0 0,-22.306 9.511,0 0,22.306 6.301,0 0,6.652 -6.301,0 -0.001,0.248 0,1.978 c 0,1.428 0.278,2.444 0.837,3.046 l 0,0 c 0.558,0.603 1.484,0.905 2.779,0.905 l 0,0 c 0.922,0 1.816,-0.04 2.686,-0.118 l 0,0 0,7.065 c -0.552,0.035 -1.11,0.073 -1.681,0.118 l 0,0 c -0.849,0.067 -1.698,0.101 -2.545,0.101 l 0,0 c -3.884,0 -6.787,-0.982 -8.706,-2.947"
             style="fill:url(#linearGradient4997);stroke:none"
             id="path5007"
             inkscape:connector-curvature="0" />
        </g>
      </g>
    </g>
  </g>
</svg>
