<svg xmlns="http://www.w3.org/2000/svg" version="1.1" id="svg2" xml:space="preserve" viewBox="0 0 240 300.01755" width="240px" height="300.02px">
<title>South Melbourne FC</title>
<defs id="defs6">
<clipPath id="clipPath16">
<path d="m 1.384,369.974 593.891,0 0,425.223 -593.891,0 0,-425.223 z" id="path18" />
</clipPath>
<clipPath id="clipPath62">
<path d="m 0,36.985 595.275,0 0,804.905 L 0,841.89 0,36.985 z" id="path64" />
</clipPath>
</defs>
<g transform="matrix(1.25,0,0,-1.25,-637.35938,927.96314)" id="g10">
<g transform="matrix(1.9563118,0,0,1.9563118,589.9868,724.885)" id="g42">
<path d="m 0,0 1.643,-5.452 -4.671,3.257 -4.677,-3.245 1.655,5.446 -4.534,3.445 5.691,0.111 1.877,5.376 L -1.153,3.557 4.539,3.435 0,0 z" id="path44" style="fill:#a39161;fill-opacity:1;fill-rule:nonzero;stroke:none" />
</g>
<g transform="matrix(1.9563118,0,0,1.9563118,558.88829,704.30754)" id="g46">
<path d="m 0,0 1.643,-5.452 -4.668,3.258 -4.68,-3.248 1.657,5.448 -4.532,3.445 5.69,0.11 1.874,5.376 1.865,-5.38 L 4.541,3.435 0,0 z" id="path48" style="fill:#a39161;fill-opacity:1;fill-rule:nonzero;stroke:none" />
</g>
<g transform="matrix(1.9563118,0,0,1.9563118,621.60686,724.885)" id="g50">
<path d="M 0,0 -1.642,-5.452 3.027,-2.195 7.704,-5.44 6.051,0.006 10.583,3.451 4.891,3.562 3.015,8.938 1.15,3.557 -4.54,3.435 0,0 z" id="path52" style="fill:#a39161;fill-opacity:1;fill-rule:nonzero;stroke:none" />
</g>
<g transform="matrix(1.9563118,0,0,1.9563118,652.70537,704.30754)" id="g54">
<path d="M 0,0 -1.645,-5.452 3.026,-2.194 7.702,-5.442 6.048,0.006 10.581,3.451 4.889,3.561 3.012,8.937 1.149,3.557 -4.544,3.435 0,0 z" id="path56" style="fill:#a39161;fill-opacity:1;fill-rule:nonzero;stroke:none" />
</g>
<g transform="matrix(1.9563118,0,0,1.9563118,-390.72913,-876.55048)" id="g58">
<g clip-path="url(#clipPath62)" id="g60">
<g transform="translate(509.4365,705.3503)" id="g66">
<path d="M 0,0 C 59.594,15.379 47.58,89.87 47.58,89.87 33.641,89.87 6.969,93.476 0,100.444 -6.969,93.476 -33.643,89.87 -47.58,89.87 -47.58,89.87 -59.594,15.379 0,0" id="path68" style="fill:#ffffff;fill-opacity:1;fill-rule:nonzero;stroke:none" />
</g>
<g transform="translate(509.4365,705.3503)" id="g70">
<path d="M 0,0 C 59.594,15.379 47.58,89.87 47.58,89.87 33.641,89.87 6.969,93.476 0,100.444 -6.969,93.476 -33.643,89.87 -47.58,89.87 -47.58,89.87 -59.594,15.379 0,0 z" id="path72" style="fill:none;stroke:#000000;stroke-width:1;stroke-linecap:butt;stroke-linejoin:miter;stroke-miterlimit:4;stroke-opacity:1;stroke-dasharray:none" />
</g>
<g transform="translate(509.3965,710.2614)" id="g74">
<path d="M 0,0 C 53.794,13.883 43.389,81.035 43.389,81.035 30.808,81.035 6.291,84.379 0,90.669 -6.29,84.379 -30.868,81.15 -43.448,81.15 -43.448,81.15 -53.794,13.883 0,0" id="path76" style="fill:#0076c0;fill-opacity:1;fill-rule:nonzero;stroke:none" />
</g>
<g transform="translate(475.6113,785.6257)" id="g78">
<path d="m 0,0 -1.822,0 0,-1.3 1.76,0 0,-0.555 -1.76,0 0,-1.337 1.879,0 0,-0.555 -2.5,0 0,4.303 L 0,0.556 0,0 z" id="path80" style="fill:#ffffff;fill-opacity:1;fill-rule:nonzero;stroke:none" />
</g>
<g transform="translate(478.7939,785.2361)" id="g82">
<path d="m 0,0 c -0.367,0.347 -0.719,0.448 -1.01,0.448 -0.398,0 -0.679,-0.208 -0.679,-0.511 0,-0.827 1.862,-0.814 1.862,-2.186 0,-0.674 -0.515,-1.166 -1.208,-1.166 -0.467,0 -0.844,0.126 -1.206,0.396 l 0,0.783 c 0.316,-0.403 0.714,-0.624 1.137,-0.624 0.48,0 0.7,0.303 0.7,0.543 0,0.89 -1.863,0.991 -1.863,2.171 0,0.702 0.519,1.149 1.306,1.149 0.329,0 0.659,-0.1 0.961,-0.302 L 0,0 z" id="path84" style="fill:#ffffff;fill-opacity:1;fill-rule:nonzero;stroke:none" />
</g>
<g transform="translate(483.1885,785.6257)" id="g86">
<path d="m 0,0 -1.49,0 0,-3.747 -0.621,0 0,3.747 -1.491,0 0,0.556 L 0,0.556 0,0 z" id="path88" style="fill:#ffffff;fill-opacity:1;fill-rule:nonzero;stroke:none" />
</g>
<g transform="translate(483.8877,782.2004)" id="g90">
<path d="m 0,0 c 0,-0.208 -0.171,-0.378 -0.377,-0.378 -0.21,0 -0.381,0.17 -0.381,0.378 0,0.208 0.171,0.379 0.381,0.379 C -0.171,0.379 0,0.208 0,0" id="path92" style="fill:#ffffff;fill-opacity:1;fill-rule:nonzero;stroke:none" />
</g>
<path d="m 534.728,781.789 -0.62,0 0,4.302 0.62,0 0,-4.302 z" id="path94" style="fill:#ffffff;fill-opacity:1;fill-rule:nonzero;stroke:none" />
<g transform="translate(537.4258,781.7297)" id="g96">
<path d="m 0,0 c 1.009,0.621 1.727,1.809 1.727,2.849 0,0.904 -0.574,1.57 -1.368,1.57 -0.793,0 -1.313,-0.635 -1.313,-1.273 0,-0.701 0.537,-1.254 1.219,-1.254 0.227,0 0.48,0.069 0.668,0.182 C 0.814,1.531 0.346,0.93 -0.379,0.456 L 0,0 z m -0.335,3.152 c 0,0.399 0.297,0.683 0.708,0.683 0.398,0 0.718,-0.36 0.718,-0.777 0,-0.108 0,-0.197 -0.031,-0.348 C 0.825,2.545 0.579,2.476 0.397,2.476 c -0.404,0 -0.732,0.304 -0.732,0.676" id="path98" style="fill:#ffffff;fill-opacity:1;fill-rule:nonzero;stroke:none" />
</g>
<g transform="translate(542.2686,785.5349)" id="g100">
<path d="m 0,0 -1.354,0 0,-1.08 c 0.976,0.056 1.569,-0.554 1.569,-1.349 0,-0.798 -0.593,-1.376 -1.41,-1.376 -0.373,0 -0.67,0.075 -1.042,0.264 l 0,0.637 c 0.308,-0.208 0.624,-0.317 0.94,-0.317 0.487,0 0.892,0.355 0.892,0.78 0,0.552 -0.564,0.988 -1.511,0.761 l 0,2.236 L 0,0.556 0,0 z" id="path102" style="fill:#ffffff;fill-opacity:1;fill-rule:nonzero;stroke:none" />
</g>
<g transform="translate(544.3672,781.7297)" id="g104">
<path d="m 0,0 c 1.01,0.621 1.728,1.809 1.728,2.849 0,0.904 -0.575,1.57 -1.369,1.57 -0.794,0 -1.312,-0.635 -1.312,-1.273 0,-0.701 0.538,-1.254 1.218,-1.254 0.227,0 0.48,0.069 0.669,0.182 C 0.814,1.531 0.348,0.93 -0.378,0.456 L 0,0 z m -0.332,3.152 c 0,0.399 0.294,0.683 0.705,0.683 0.398,0 0.72,-0.36 0.72,-0.777 0,-0.108 0,-0.197 -0.032,-0.348 C 0.826,2.545 0.58,2.476 0.398,2.476 c -0.403,0 -0.73,0.304 -0.73,0.676" id="path106" style="fill:#ffffff;fill-opacity:1;fill-rule:nonzero;stroke:none" />
</g>
<g transform="translate(525.0557,715.674)" id="g108">
<path d="m 0,0 0,50.084 -8.887,0 0,-55.74 L 0,0 z" id="path110" style="fill:#ffffff;fill-opacity:1;fill-rule:nonzero;stroke:none" />
</g>
<g transform="translate(502.4355,711.028)" id="g112">
<path d="m 0,0 0,54.933 -8.887,0 0,-51.298 L 0,0 z" id="path114" style="fill:#ffffff;fill-opacity:1;fill-rule:nonzero;stroke:none" />
</g>
<g transform="translate(503.959,783.7111)" id="g116">
<path d="M 0,0 C 0.63,2.889 2.204,5.298 3.584,7.245 2.564,8.831 1.547,10.532 0.876,12.466 -1.405,12.569 -3.52,12.222 -5.775,11.526 -7.168,9.398 -8.367,7.013 -9.23,4.474 -8.586,2.23 -7.373,0.232 -5.867,-1.096 -3.919,-0.748 -1.961,-0.348 0,0 m 3.584,7.245 c -1.043,1.586 -2.18,3.609 -2.708,5.221 1.366,2.037 3.056,3.636 5.262,4.281 2.139,0.012 3.919,-0.465 5.774,-0.955 1.289,-1.56 2.114,-3.634 3.067,-6.084 C 13.936,8.393 12.905,7.258 11.616,6.098 9.05,6.807 6.356,7.22 3.584,7.245 M 1.896,18.552 c 1.391,-0.427 2.861,-1.096 4.164,-1.805 2.035,0.038 4.022,-0.438 5.852,-0.955 1.264,0.258 2.541,0.272 3.803,0.104 -3.803,2.656 -8.947,3.648 -13.819,2.656 m 9.72,-12.454 c 1.212,1.083 2.36,2.346 3.363,3.61 C 17.507,9.334 19.118,8.87 21,7.425 22.134,5.26 22.702,3.209 22.741,0.129 c -1.017,-1.701 -2.204,-3.416 -4.318,-4.55 -1.985,0.734 -3.829,1.689 -5.634,2.757 -0.219,2.669 -0.555,5.376 -1.173,7.762 M 21,7.425 c 1.098,-2.01 1.728,-4.395 1.741,-7.296 0.824,-1.057 1.187,-2.462 1.612,-4.087 1.69,6.652 -0.658,12.918 -3.366,15.47 C 21.337,10.366 21.35,8.767 21,7.425 M 5.774,-5.286 c 2.413,0.839 4.862,2.154 7.015,3.61 1.791,-1.044 3.713,-2.024 5.634,-2.745 -0.051,-2.18 -0.477,-4.577 -1.264,-6.653 -1.65,-1.689 -3.493,-2.978 -6.125,-3.532 -2.603,0.335 -4.666,1.547 -6.495,3.236 0.746,2.049 1.289,3.867 1.235,6.084 m -1.262,-6.098 c 0.813,2.011 1.329,4.216 1.276,6.073 -1.806,1.314 -4.15,3.067 -5.788,5.324 -1.986,-0.348 -3.997,-0.761 -5.867,-1.109 -0.889,-2.217 -1.635,-4.5 -1.688,-6.846 1.418,-2.243 3.52,-3.932 5.725,-5.234 2.409,0.245 4.306,1.095 6.342,1.792 M -9.23,4.474 c 0.849,2.616 2.076,4.86 3.441,7.052 -0.129,1.147 -0.078,2.371 0.065,3.506 -4.398,-3.984 -6.189,-8.716 -6.433,-14.337 0.916,1.381 1.921,2.541 2.927,3.779" id="path118" style="fill:#ffffff;fill-opacity:1;fill-rule:evenodd;stroke:none" />
</g>
<g transform="translate(503.959,783.7111)" id="g120">
<path d="M 0,0 C 0.63,2.889 2.204,5.298 3.584,7.245 2.564,8.831 1.547,10.532 0.876,12.466 -1.405,12.569 -3.52,12.222 -5.775,11.526 -7.168,9.398 -8.367,7.013 -9.23,4.474 -8.586,2.23 -7.373,0.232 -5.867,-1.096 -3.919,-0.748 -1.961,-0.348 0,0 z m 3.584,7.245 c -1.043,1.586 -2.18,3.609 -2.708,5.221 1.366,2.037 3.056,3.636 5.262,4.281 2.139,0.012 3.919,-0.465 5.774,-0.955 1.289,-1.56 2.114,-3.634 3.067,-6.084 C 13.936,8.393 12.905,7.258 11.616,6.098 9.05,6.807 6.356,7.22 3.584,7.245 z M 1.896,18.552 c 1.391,-0.427 2.861,-1.096 4.164,-1.805 2.035,0.038 4.022,-0.438 5.852,-0.955 1.264,0.258 2.541,0.272 3.803,0.104 -3.803,2.656 -8.947,3.648 -13.819,2.656 z m 9.72,-12.454 c 1.212,1.083 2.36,2.346 3.363,3.61 C 17.507,9.334 19.118,8.87 21,7.425 22.134,5.26 22.702,3.209 22.741,0.129 c -1.017,-1.701 -2.204,-3.416 -4.318,-4.55 -1.985,0.734 -3.829,1.689 -5.634,2.757 -0.219,2.669 -0.555,5.376 -1.173,7.762 z M 21,7.425 c 1.098,-2.01 1.728,-4.395 1.741,-7.296 0.824,-1.057 1.187,-2.462 1.612,-4.087 1.69,6.652 -0.658,12.918 -3.366,15.47 C 21.337,10.366 21.35,8.767 21,7.425 z M 5.774,-5.286 c 2.413,0.839 4.862,2.154 7.015,3.61 1.791,-1.044 3.713,-2.024 5.634,-2.745 -0.051,-2.18 -0.477,-4.577 -1.264,-6.653 -1.65,-1.689 -3.493,-2.978 -6.125,-3.532 -2.603,0.335 -4.666,1.547 -6.495,3.236 0.746,2.049 1.289,3.867 1.235,6.084 z m -1.262,-6.098 c 0.813,2.011 1.329,4.216 1.276,6.073 -1.806,1.314 -4.15,3.067 -5.788,5.324 -1.986,-0.348 -3.997,-0.761 -5.867,-1.109 -0.889,-2.217 -1.635,-4.5 -1.688,-6.846 1.418,-2.243 3.52,-3.932 5.725,-5.234 2.409,0.245 4.306,1.095 6.342,1.792 z M -9.23,4.474 c 0.849,2.616 2.076,4.86 3.441,7.052 -0.129,1.147 -0.078,2.371 0.065,3.506 -4.398,-3.984 -6.189,-8.716 -6.433,-14.337 0.916,1.381 1.921,2.541 2.927,3.779 z" id="path122" style="fill:none;stroke:#000000;stroke-width:1;stroke-linecap:round;stroke-linejoin:round;stroke-miterlimit:2.61299992;stroke-opacity:1;stroke-dasharray:none" />
</g>
<g transform="translate(496.4043,775.7693)" id="g124">
<path d="M 0,0 C 1.509,-2.371 3.649,-3.983 5.711,-5.234 5.918,-6.046 6.292,-6.987 6.678,-7.722 2.567,-6.239 -1.916,-0.937 -3.398,2.363 -2.419,1.332 -1.265,0.516 0,0 m 18.589,-6.665 c 2.579,0.503 4.643,1.973 6.125,3.533 1.057,0.012 2.23,-0.064 3.248,0.374 -2.951,-3.184 -6.974,-5.324 -12.092,-6.098 1.198,0.683 1.998,1.315 2.719,2.191" id="path126" style="fill:#c7c8ca;fill-opacity:1;fill-rule:evenodd;stroke:none" />
</g>
<g transform="translate(496.4043,775.7693)" id="g128">
<path d="M 0,0 C 1.509,-2.371 3.649,-3.983 5.711,-5.234 5.918,-6.046 6.292,-6.987 6.678,-7.722 2.567,-6.239 -1.916,-0.937 -3.398,2.363 -2.419,1.332 -1.265,0.516 0,0 z m 18.589,-6.665 c 2.579,0.503 4.643,1.973 6.125,3.533 1.057,0.012 2.23,-0.064 3.248,0.374 -2.951,-3.184 -6.974,-5.324 -12.092,-6.098 1.198,0.683 1.998,1.315 2.719,2.191 z" id="path130" style="fill:none;stroke:#000000;stroke-width:1;stroke-linecap:round;stroke-linejoin:round;stroke-miterlimit:2.61299992;stroke-opacity:1;stroke-dasharray:none" />
</g>
<g transform="translate(508.6807,772.1486)" id="g132">
<path d="m 0,0 c -4.385,-0.658 -6.434,0.502 -8.046,2.05 -1.611,1.534 -2.783,3.454 -2.332,8.238 -0.891,-2.218 -1.64,-4.499 -1.69,-6.845 1.419,-2.244 3.519,-3.933 5.723,-5.235 C -3.932,-1.547 -2.038,-0.697 0,0 m -4.906,11.78 c -8.112,0.772 -5.734,0.368 -8.774,4.253 0.613,-2.133 1.765,-4.033 3.201,-5.295 1.848,0.331 3.71,0.711 5.573,1.042 m -9.476,4.463 c -2.261,1.957 1.81,7.281 3.546,9.623 -3.496,-3.17 -5.377,-7.285 -5.763,-12.785 0.827,1.247 1.448,1.923 2.356,3.042 l -0.139,0.12 z m 13.439,2.795 c -1.003,1.523 -2.093,3.466 -2.6,5.013 1.723,-1.026 2.116,-2.426 3.107,-3.837 1.723,-1.028 5.771,-0.434 7.205,-2.278 -2.463,0.68 -5.049,1.077 -7.712,1.102 M 7.168,17.531 C 9.694,12.604 7.292,11.897 13.704,7.429 11.798,8.134 10.028,9.05 8.294,10.079 8.085,12.641 7.761,15.241 7.168,17.531 M 12.438,0.488 C 10.787,-1.201 8.944,-2.489 6.313,-3.044 3.709,-2.708 1.646,-1.497 -0.183,0.192 5.992,-2.631 6.572,-1.446 12.438,0.488" id="path134" style="fill:#e6e7e8;fill-opacity:1;fill-rule:evenodd;stroke:none" />
</g>
<g transform="translate(503.959,783.7111)" id="g136">
<path d="M 0,0 C 0.696,2.862 2.037,5.079 3.584,7.245 6.433,7.22 8.998,6.833 11.616,6.098 12.234,3.725 12.57,0.955 12.789,-1.676 10.572,-3.223 8.173,-4.435 5.774,-5.286 3.701,-3.791 1.496,-2.075 0,0 m -5.775,11.526 c 2.127,0.657 4.395,1.043 6.651,0.94 1.444,2.244 3.392,3.764 5.209,4.268 -1.366,0.722 -2.683,1.353 -4.189,1.818 -2.877,-0.323 -5.314,-1.302 -7.62,-3.52 -0.143,-1.135 -0.208,-2.333 -0.051,-3.506 m 17.687,4.266 c 1.289,-1.56 2.204,-3.828 3.067,-6.084 2.115,-0.361 3.92,-0.632 6.008,-2.283 0.374,1.38 0.337,2.876 0,4.087 -1.379,2.192 -3.158,3.675 -5.285,4.384 -1.276,0.181 -2.552,0.142 -3.79,-0.104 m 6.511,-20.213 c 1.959,1.044 3.132,2.565 4.318,4.55 0.85,-1.057 1.251,-2.72 1.612,-4.074 -0.529,-2.707 -1.857,-5.105 -3.958,-6.755 -0.916,-0.413 -2.023,-0.374 -3.236,-0.374 0.813,2.204 1.213,4.448 1.264,6.653 m -29.266,-1.252 c 1.031,-1.134 2.064,-1.702 3.3,-2.269 0.053,2.553 0.865,4.745 1.676,6.846 -1.506,1.392 -2.666,3.236 -3.363,5.57 -0.994,-1.225 -1.986,-2.347 -2.927,-3.779 -0.477,-2.139 0.142,-4.781 1.314,-6.368" id="path138" style="fill:#636466;fill-opacity:1;fill-rule:evenodd;stroke:none" />
</g>
<g transform="translate(503.959,783.7111)" id="g140">
<path d="M 0,0 C 0.696,2.862 2.037,5.079 3.584,7.245 6.433,7.22 8.998,6.833 11.616,6.098 12.234,3.725 12.57,0.955 12.789,-1.676 10.572,-3.223 8.173,-4.435 5.774,-5.286 3.701,-3.791 1.496,-2.075 0,0 z m -5.775,11.526 c 2.127,0.657 4.395,1.043 6.651,0.94 1.444,2.244 3.392,3.764 5.209,4.268 -1.366,0.722 -2.683,1.353 -4.189,1.818 -2.877,-0.323 -5.314,-1.302 -7.62,-3.52 -0.143,-1.135 -0.208,-2.333 -0.051,-3.506 z m 17.687,4.266 c 1.289,-1.56 2.204,-3.828 3.067,-6.084 2.115,-0.361 3.92,-0.632 6.008,-2.283 0.374,1.38 0.337,2.876 0,4.087 -1.379,2.192 -3.158,3.675 -5.285,4.384 -1.276,0.181 -2.552,0.142 -3.79,-0.104 z m 6.511,-20.213 c 1.959,1.044 3.132,2.565 4.318,4.55 0.85,-1.057 1.251,-2.72 1.612,-4.074 -0.529,-2.707 -1.857,-5.105 -3.958,-6.755 -0.916,-0.413 -2.023,-0.374 -3.236,-0.374 0.813,2.204 1.213,4.448 1.264,6.653 z m -29.266,-1.252 c 1.031,-1.134 2.064,-1.702 3.3,-2.269 0.053,2.553 0.865,4.745 1.676,6.846 -1.506,1.392 -2.666,3.236 -3.363,5.57 -0.994,-1.225 -1.986,-2.347 -2.927,-3.779 -0.477,-2.139 0.142,-4.781 1.314,-6.368 z" id="path142" style="fill:none;stroke:#000000;stroke-width:1;stroke-linecap:round;stroke-linejoin:round;stroke-miterlimit:2.61299992;stroke-opacity:1;stroke-dasharray:none" />
</g>
<g transform="translate(508.5088,772.3275)" id="g144">
<path d="M 0,0 C 2.038,-1.908 4.372,-2.978 6.499,-3.223 5.778,-4.099 4.888,-4.796 3.791,-5.401 0.685,-6.02 -2.706,-5.504 -5.427,-4.267 -5.813,-3.532 -6.161,-2.63 -6.38,-1.792 -4.228,-1.612 -1.985,-0.684 0,0" id="path146" style="fill:#000000;fill-opacity:1;fill-rule:evenodd;stroke:none" />
</g>
<g transform="translate(508.5088,772.3275)" id="g148">
<path d="M 0,0 C 2.038,-1.908 4.372,-2.978 6.499,-3.223 5.778,-4.099 4.888,-4.796 3.791,-5.401 0.685,-6.02 -2.706,-5.504 -5.427,-4.267 -5.813,-3.532 -6.161,-2.63 -6.38,-1.792 -4.228,-1.612 -1.985,-0.684 0,0 z" id="path150" style="fill:none;stroke:#000000;stroke-width:1;stroke-linecap:round;stroke-linejoin:round;stroke-miterlimit:2.61299992;stroke-opacity:1;stroke-dasharray:none" />
</g>
<g transform="translate(503.959,783.7111)" id="g152">
<path d="M 0,0 C 5.58,-4.758 4.849,-4.912 12.789,-1.676 10.572,-3.223 8.173,-4.435 5.774,-5.286 3.701,-3.791 1.496,-2.075 0,0 m -5.775,11.526 c 2.127,0.657 4.395,1.043 6.651,0.94 -3.675,1.148 -6.175,-1.637 -6.6,2.566 -0.143,-1.135 -0.208,-2.333 -0.051,-3.506 m 17.687,4.266 c 1.289,-1.56 2.204,-3.828 3.067,-6.084 2.115,-0.361 3.92,-0.632 6.008,-2.283 -1.005,2.361 -3.828,1.96 -5.272,3.533 -1.444,1.586 -1.469,3.61 -3.803,4.834 m 6.511,-20.213 c 0.387,-6.975 -0.502,-6.099 1.972,-6.279 -0.916,-0.413 -2.023,-0.374 -3.236,-0.374 0.813,2.204 1.213,4.448 1.264,6.653 m -29.266,-1.252 c 1.031,-1.134 2.064,-1.702 3.3,-2.269 -2.616,3.171 -3.195,1.419 -4.614,8.637 -0.477,-2.139 0.142,-4.781 1.314,-6.368" id="path154" style="fill:#000000;fill-opacity:1;fill-rule:evenodd;stroke:none" />
</g>
<g transform="translate(503.959,783.7111)" id="g156">
<path d="M 0,0 C 5.58,-4.758 4.849,-4.912 12.789,-1.676 10.572,-3.223 8.173,-4.435 5.774,-5.286 3.701,-3.791 1.496,-2.075 0,0 z m -5.775,11.526 c 2.127,0.657 4.395,1.043 6.651,0.94 -3.675,1.148 -6.175,-1.637 -6.6,2.566 -0.143,-1.135 -0.208,-2.333 -0.051,-3.506 z m 17.687,4.266 c 1.289,-1.56 2.204,-3.828 3.067,-6.084 2.115,-0.361 3.92,-0.632 6.008,-2.283 -1.005,2.361 -3.828,1.96 -5.272,3.533 -1.444,1.586 -1.469,3.61 -3.803,4.834 z m 6.511,-20.213 c 0.387,-6.975 -0.502,-6.099 1.972,-6.279 -0.916,-0.413 -2.023,-0.374 -3.236,-0.374 0.813,2.204 1.213,4.448 1.264,6.653 z m -29.266,-1.252 c 1.031,-1.134 2.064,-1.702 3.3,-2.269 -2.616,3.171 -3.195,1.419 -4.614,8.637 -0.477,-2.139 0.142,-4.781 1.314,-6.368 z" id="path158" style="fill:none;stroke:#000000;stroke-width:1;stroke-linecap:round;stroke-linejoin:round;stroke-miterlimit:2.61299992;stroke-opacity:1;stroke-dasharray:none" />
</g>
<g transform="translate(551.7705,763.1228)" id="g160">
<path d="m 0,0 c 3.206,0 5.807,2.601 5.807,5.807 l 0,2.112 c 0,3.208 -2.601,5.808 -5.807,5.808 l -84.476,0 c -3.207,0 -5.808,-2.6 -5.808,-5.808 l 0,-2.112 C -90.284,2.601 -87.683,0 -84.476,0 L 0,0 z" id="path162" style="fill:#ffffff;fill-opacity:1;fill-rule:nonzero;stroke:none" />
</g>
<g transform="translate(551.7705,763.1228)" id="g164">
<path d="m 0,0 c 3.206,0 5.807,2.601 5.807,5.807 l 0,2.112 c 0,3.208 -2.601,5.808 -5.807,5.808 l -84.476,0 c -3.207,0 -5.808,-2.6 -5.808,-5.808 l 0,-2.112 C -90.284,2.601 -87.683,0 -84.476,0 L 0,0 z" id="path166" style="fill:none;stroke:#000000;stroke-width:1;stroke-linecap:butt;stroke-linejoin:miter;stroke-miterlimit:4;stroke-opacity:1;stroke-dasharray:none" />
</g>
<g transform="translate(469.3652,771.488)" id="g168">
<path d="m 0,0 c -0.618,0.399 -0.988,0.555 -1.354,0.555 -0.384,0 -0.631,-0.201 -0.631,-0.511 0,-0.936 2.178,-0.672 2.178,-2.836 0,-1.19 -0.686,-1.88 -1.641,-1.88 -0.751,0 -1.118,0.281 -1.545,0.599 l 0,1.336 c 0.614,-0.592 0.989,-0.801 1.463,-0.801 0.411,0 0.631,0.209 0.631,0.572 0,1.019 -2.181,0.647 -2.181,2.874 0,1.072 0.64,1.781 1.632,1.781 0.477,0 0.912,-0.146 1.448,-0.481 L 0,0 z" id="path170" style="fill:#0076c0;fill-opacity:1;fill-rule:nonzero;stroke:none" />
</g>
<g transform="translate(475.4941,769.9958)" id="g172">
<path d="m 0,0 c 0,1.489 -0.834,3.18 -2.443,3.18 -1.61,0 -2.448,-1.681 -2.448,-3.18 0,-1.58 0.882,-3.179 2.448,-3.179 C -0.907,-3.179 0,-1.589 0,0 m -1.094,0 c 0,-1.135 -0.54,-1.889 -1.349,-1.889 -0.815,0 -1.354,0.754 -1.354,1.889 0,1.135 0.539,1.889 1.354,1.889 0.809,0 1.349,-0.754 1.349,-1.889" id="path174" style="fill:#0076c0;fill-opacity:1;fill-rule:nonzero;stroke:none" />
</g>
<g transform="translate(481.0078,773.098)" id="g176">
<path d="m 0,0 0,-3.519 c 0,-2.054 -0.966,-2.762 -2.136,-2.762 -1.238,0 -2.134,0.836 -2.134,2.754 l 0,3.527 1.066,0 0,-3.563 c 0,-0.891 0.443,-1.428 1.056,-1.428 0.563,0 1.082,0.428 1.082,1.536 L -1.066,0 0,0 z" id="path178" style="fill:#0076c0;fill-opacity:1;fill-rule:nonzero;stroke:none" />
</g>
<g transform="translate(486.293,771.9636)" id="g180">
<path d="m 0,0 -1.549,0 0,-5.068 -1.064,0 0,5.068 -1.547,0 0,1.134 4.16,0 L 0,0 z" id="path182" style="fill:#0076c0;fill-opacity:1;fill-rule:nonzero;stroke:none" />
</g>
<g transform="translate(491.707,766.8952)" id="g184">
<path d="m 0,0 -1.065,0 0,2.505 -2.131,0 0,-2.505 -1.064,0 0,6.203 1.064,0 0,-2.497 2.131,0 0,2.497 L 0,6.203 0,0 z" id="path186" style="fill:#0076c0;fill-opacity:1;fill-rule:nonzero;stroke:none" />
</g>
<g transform="translate(499.083,773.098)" id="g188">
<path d="m 0,0 0.926,0 0,-6.203 -1.065,0 0,3.874 -1.156,-1.946 -0.162,0 -1.156,1.946 0,-3.874 -1.065,0 0,6.203 0.926,0 1.377,-2.302 L 0,0 z" id="path190" style="fill:#0076c0;fill-opacity:1;fill-rule:nonzero;stroke:none" />
</g>
<g transform="translate(504.627,766.8952)" id="g192">
<path d="m 0,0 -3.151,0 0,6.203 3.107,0 0,-1.135 -2.045,0 0,-1.312 1.949,0 0,-1.134 -1.949,0 0,-1.489 L 0,1.133 0,0 z" id="path194" style="fill:#0076c0;fill-opacity:1;fill-rule:nonzero;stroke:none" />
</g>
<g transform="translate(509.1943,766.8952)" id="g196">
<path d="m 0,0 -3.257,0 0,6.203 1.064,0 0,-5.07 L 0,1.133 0,0 z" id="path198" style="fill:#0076c0;fill-opacity:1;fill-rule:nonzero;stroke:none" />
</g>
<g transform="translate(511.3584,769.4984)" id="g200">
<path d="M 0,0 0.746,0 C 1.123,0 1.4,-0.246 1.4,-0.703 1.4,-1.242 1.192,-1.47 0.602,-1.47 L 0,-1.47 0,0 z m -1.065,3.6 0,-6.203 2.081,0 c 1.245,0 1.508,1.106 1.508,1.818 0,0.731 -0.299,1.366 -0.906,1.592 0.357,0.254 0.581,0.719 0.581,1.238 0,0.692 -0.407,1.555 -1.416,1.555 l -1.848,0 z M 0,2.465 l 0.559,0 C 0.947,2.465 1.104,2.127 1.104,1.809 1.104,1.48 0.947,1.133 0.559,1.133 L 0,1.133 0,2.465 z" id="path202" style="fill:#0076c0;fill-opacity:1;fill-rule:nonzero;stroke:none" />
</g>
<g transform="translate(519.8848,769.9958)" id="g204">
<path d="m 0,0 c 0,1.489 -0.833,3.18 -2.443,3.18 -1.612,0 -2.45,-1.681 -2.45,-3.18 0,-1.58 0.882,-3.179 2.45,-3.179 C -0.907,-3.179 0,-1.589 0,0 m -1.096,0 c 0,-1.135 -0.54,-1.889 -1.347,-1.889 -0.815,0 -1.353,0.754 -1.353,1.889 0,1.135 0.538,1.889 1.353,1.889 0.807,0 1.347,-0.754 1.347,-1.889" id="path206" style="fill:#0076c0;fill-opacity:1;fill-rule:nonzero;stroke:none" />
</g>
<g transform="translate(525.3975,773.098)" id="g208">
<path d="m 0,0 0,-3.519 c 0,-2.054 -0.967,-2.762 -2.136,-2.762 -1.24,0 -2.135,0.836 -2.135,2.754 l 0,3.527 1.066,0 0,-3.563 c 0,-0.891 0.443,-1.428 1.059,-1.428 0.562,0 1.081,0.428 1.081,1.536 L -1.065,0 0,0 z" id="path210" style="fill:#0076c0;fill-opacity:1;fill-rule:nonzero;stroke:none" />
</g>
<g transform="translate(526.8184,773.098)" id="g212">
<path d="m 0,0 0,-6.203 1.063,0 0,2.515 0.309,0 c 0.581,0 0.752,-1.19 1.21,-2.515 l 1.17,0 c -0.603,1.815 -0.735,2.578 -1.17,2.896 0.485,0.326 0.731,0.835 0.731,1.522 C 3.313,-0.854 2.794,0 1.914,0 L 0,0 z m 1.063,-1.134 0.543,0 c 0.403,0 0.613,-0.239 0.613,-0.706 0,-0.531 -0.29,-0.715 -0.587,-0.715 l -0.569,0 0,1.421 z" id="path214" style="fill:#0076c0;fill-opacity:1;fill-rule:nonzero;stroke:none" />
</g>
<g transform="translate(535.9023,766.8952)" id="g216">
<path d="m 0,0 -0.896,0 -2.369,3.973 0,-3.973 -1.064,0 0,6.203 0.976,0 2.288,-3.794 0,3.794 L 0,6.203 0,0 z" id="path218" style="fill:#0076c0;fill-opacity:1;fill-rule:nonzero;stroke:none" />
</g>
<g transform="translate(544.9854,766.8952)" id="g220">
<path d="m 0,0 -1.065,0 0,6.203 3.108,0 0,-1.135 -2.043,0 0,-1.312 1.95,0 0,-1.134 L 0,2.622 0,0 z" id="path222" style="fill:#0076c0;fill-opacity:1;fill-rule:nonzero;stroke:none" />
</g>
<g transform="translate(540.5,766.8952)" id="g224">
<path d="m 0,0 -3.155,0 0,6.203 3.111,0 0,-1.135 -2.045,0 0,-1.312 1.95,0 0,-1.134 -1.95,0 0,-1.489 L 0,1.133 0,0 z" id="path226" style="fill:#0076c0;fill-opacity:1;fill-rule:nonzero;stroke:none" />
</g>
<g transform="translate(552.3203,767.4343)" id="g228">
<path d="m 0,0 c -0.597,-0.445 -1.049,-0.618 -1.681,-0.618 -1.662,0 -2.486,1.564 -2.486,3.162 0,1.652 0.931,3.197 2.566,3.197 0.597,0 1.128,-0.182 1.55,-0.545 l 0,-1.381 c -0.47,0.381 -0.947,0.635 -1.472,0.635 -0.91,0 -1.551,-0.781 -1.551,-1.88 0,-1.107 0.635,-1.898 1.525,-1.898 0.558,0 0.936,0.255 1.549,0.682 L 0,0 z" id="path230" style="fill:#0076c0;fill-opacity:1;fill-rule:nonzero;stroke:none" />
</g>
</g>
</g>
</g>
</svg>
