<?xml version="1.0" encoding="utf-8"?>
<!-- Generator: Adobe Illustrator 13.0.0, SVG Export Plug-In . SVG Version: 6.00 Build 14948)  -->
<!DOCTYPE svg PUBLIC "-//W3C//DTD SVG 1.0//EN" "http://www.w3.org/TR/2001/REC-SVG-20010904/DTD/svg10.dtd">
<svg version="1.0" id="Calque_1" xmlns="http://www.w3.org/2000/svg" xmlns:xlink="http://www.w3.org/1999/xlink" x="0px" y="0px"
	 width="341.75px" height="396.2px" viewBox="0 0 341.75 396.2" enable-background="new 0 0 341.75 396.2" xml:space="preserve">
<path fill="#ED7A39" d="M170.292,366.409h-27.655l-5.215,29.477h5.916c0,0,2.103-11.843,2.181-12.558c0.701,0,21.505,0,21.505,0
	l0.93-5.193c0,0-20.483,0-21.499,0c0.079-0.59,1.016-5.896,1.166-6.538c0.701,0,22.284,0,22.284,0l0.931-5.188H170.292"/>
<path fill="#ED7A39" d="M184.395,366.094c-7.638,0-11.3,3.288-12.78,11.254l-1.245,7.486c-0.779,4.16-0.386,6.977,1.167,8.837
	c1.401,1.742,3.897,2.528,7.716,2.528h13.939c4.991,0,8.024-1.062,9.819-3.524l1.244-1.664H180.34c-2.024,0-3.269-0.354-3.97-1.146
	c-0.55-0.714-0.7-1.867-0.393-3.492l1.794-10.258c0.623-3.484,2.339-4.834,6.229-4.834h23.215l-0.7-1.585
	c-1.088-2.371-3.741-3.603-7.946-3.603H184.395"/>
<path fill="#053E6B" d="M152.999,335.228c-2.103,11.844-6.465,11.844-11.45,11.844c0,0-24.695,0-26.797,0
	c0.308-2.018,4.592-26.268,4.985-28.285c2.103,0,27.734,0,27.734,0c5.214,0,8.253,0.832,6.308,12.079L152.999,335.228
	 M147.621,309.236h-34.429h-2.417v0.04h-10.278c0,0-19.631,16.88-21.347,18.348c-1.245-1.468-14.955-18.348-14.955-18.348H51.65
	v-0.079H39.034H26.876c-11.836,0-20.097,2.417-22.199,14.07c-1.559,9.066,1.48,12.996,10.906,14.057
	c3.426,0.36,7.71,0.439,11.843,0.439h10.75c6.694,0,6.465,1.107,5.994,4.159c-0.702,3.807-1.324,5.353-9.19,5.353H0l1.795,3.727
	c2.495,4.991,8.96,5.66,14.954,5.66h15.662c6.23,0,19.239,0,21.578-13.39l0.465-2.737c1.402-8.044-3.039-12.158-13.71-12.597
	l-2.024-0.04H21.97c-8.024,0-7.788-1.146-7.245-4.237c0.622-3.924,1.402-5.07,13.245-5.07h29.522
	c6.387,7.841,14.489,17.751,14.804,18.145c-0.157,0.871-3.589,20.162-3.589,20.162h10.442c0,0,3.425-19.291,3.583-20.162
	c0.543-0.472,18.466-15.813,27.342-23.378l-7.632,43.305h36.611c15.348,0,21.891-6.224,25.01-23.732
	C167.252,314.745,163.44,309.236,147.621,309.236z"/>
<path fill="#053E6B" d="M214.225,343.351c-2.803-3.328-29.522-34.115-29.522-34.115h-0.465h-11.529l-8.338,47.426h10.598
	c0,0,5.215-29.556,5.994-34.115c2.882,3.288,29.602,34.115,29.602,34.115h12l8.332-47.426h-10.592
	C220.304,309.236,215.083,338.792,214.225,343.351"/>
<path fill="#053E6B" d="M327.102,309.276c0,0-19.938,17.201-21.733,18.701c-1.167-1.5-15.112-18.701-15.112-18.701h-0.544h-14.097
	l0.072,0.039H236.51l-8.339,47.268h46.815l1.639-9.551c0,0-34.043,0-36.146,0c0.314-1.663,1.481-8.279,1.796-9.982
	c2.103,0,34.508,0,34.508,0l1.637-9.512c0,0-32.411,0-34.514,0c0.314-1.624,1.251-7.087,1.559-8.712c1.874,0,31.554,0,37.94,0
	c6.544,7.966,14.719,18.027,15.033,18.381c-0.157,0.917-3.426,19.415-3.426,19.415h10.592c0,0,3.275-18.498,3.426-19.415
	c0.779-0.629,32.72-27.931,32.72-27.931H327.102"/>
<path fill="#FFFFFF" d="M284.492,0.121c-1.087,0.04-104.23,2.614-201.138,41.917l-3.969,1.624l0.229,4.281
	c0.157,1.664,2.653,41.006,14.646,90.017c16.127,66.166,40.665,115.533,72.992,146.634l3.662,3.563l4.133-3.092
	c1.088-0.864,28.042-21.747,55.928-66.716c25.553-41.284,56.635-111.57,59.596-212.048L290.728,0L284.492,0.121"/>
<radialGradient id="SVGID_1_" cx="173.9927" cy="158.1621" r="122.2588" gradientUnits="userSpaceOnUse">
	<stop  offset="0.3596" style="stop-color:#1D9ED5"/>
	<stop  offset="1" style="stop-color:#053E6B"/>
</radialGradient>
<path fill="url(#SVGID_1_)" d="M213.682,233.487c-0.521,0.271-1.047,0.53-1.574,0.789c0.531-0.258,1.055-0.526,1.579-0.797
	c0.268-0.363,0.536-0.743,0.805-1.114c0.875-1.233,1.752-2.484,2.635-3.769c-11.514,4.42-24.344,6.908-37.795,6.908
	c-17.765,0-34.278-4.277-48.146-11.646c0.077,0.271,0.231,0.504,0.387,0.775c0.078,0.064,0.155,0.13,0.233,0.193
	c0.481,0.396,0.966,0.79,1.458,1.174c0.675,0.525,1.36,1.04,2.054,1.543c0.305,0.222,0.615,0.438,0.925,0.656
	c0.822,0.576,1.649,1.148,2.495,1.692c-0.845-0.547-1.674-1.114-2.495-1.692c-0.31-0.217-0.619-0.435-0.925-0.656
	c-0.693-0.504-1.379-1.017-2.054-1.543c-0.493-0.383-0.976-0.778-1.458-1.174c-0.075-0.062-0.152-0.12-0.227-0.183
	c-0.002-0.004-0.004-0.007-0.006-0.011c-0.019-0.016-0.038-0.032-0.058-0.048c10.685,20.894,23.794,40.25,39.871,55.73
	c0,0,19.494-14.917,42.316-46.844c-0.005,0.002-0.011,0.005-0.016,0.007C213.685,233.482,213.684,233.484,213.682,233.487z"/>
<path fill="#053E6B" d="M179.095,87.72c39.552,0,72.044,30.628,75.671,69.766c-0.444,1.122-0.893,2.235-1.343,3.342
	c16.439-40.37,29.305-91.619,31.147-154.726c0,0-101.892,2.1-198.957,41.484c0,0,2.998,48.699,18.482,104.622
	C110.019,115.629,141.34,87.72,179.095,87.72z"/>
<radialGradient id="SVGID_2_" cx="173.9937" cy="158.1621" r="122.2592" gradientUnits="userSpaceOnUse">
	<stop  offset="0.3596" style="stop-color:#1D9ED5"/>
	<stop  offset="1" style="stop-color:#053E6B"/>
</radialGradient>
<path fill="url(#SVGID_2_)" d="M179.095,87.72c39.54,0,72.024,30.609,75.667,69.73c7.942-20.037,14.986-42.665,20.248-68.035
	c-22.005-32.241-59.037-53.409-101.017-53.409c-33.516,0-63.876,13.495-85.956,35.342c2.47,19.499,7.242,49.004,16.06,80.851
	C110.023,115.625,141.343,87.72,179.095,87.72z"/>
<path fill="#ED7A39" d="M62.871,72.825c0.229,1.385,3.033,31.615,17.601,74.724c11.922,35.458,33.034,83.476,67.62,121.278
	c-34.744-42.08-52.895-95.725-62.013-134.353c-9.269-38.949-11.372-69.771-11.758-77.577L62.871,72.825"/>
<path fill="#1D9ED5" d="M76.424,183.76c0.387,0.913,8.025,20.839,26.018,47.264c14.798,21.793,38.091,50.281,68.63,69.382
	c-31.469-21.957-53.832-54.84-67.306-79.286c-13.553-24.643-20.876-45.087-22.592-50.313L76.424,183.76"/>
<path fill="#ED7A39" d="M312.849,36.371l-15.348-17.273c-5.143,95.804-35.366,163.512-60.369,203.967
	c-16.671,26.824-33.112,45.44-44.248,56.537C223.887,258.129,289.09,195.249,312.849,36.371"/>
<polyline fill="#FFFFFF" points="169.283,253.059 172.008,246.043 174.811,253.021 181.977,250.753 178.316,257.291 
	184.545,261.536 177.072,262.682 177.694,270.208 172.166,265.138 166.63,270.288 167.095,262.767 159.7,261.654 165.851,257.376 
	162.11,250.878 169.283,253.059 "/>
<radialGradient id="SVGID_3_" cx="168.2915" cy="136.8677" r="98.5954" gradientUnits="userSpaceOnUse">
	<stop  offset="0.0056" style="stop-color:#1D9ED5"/>
	<stop  offset="0.55" style="stop-color:#053E6B"/>
</radialGradient>
<path fill="url(#SVGID_3_)" d="M243.984,178.65c-1.945,0.396-3.269,0.396-4.048,0.357c-0.394-6.301-6.466-18.583-7.402-20.444
	v-0.039c0.236-2.656,0.314-5.231,0.314-7.648c0-6.894-0.779-12.521-1.251-15.492l7.166-3.131
	c0.472-3.049-19.317-26.228-33.729-29.755l-1.788-0.436l0.465,1.745c0.701,2.375,2.339,8.594,2.568,11.529
	c-6.615,1.229-17.601,5.31-19.704,6.142c-10.283-4.042-20.332-4.756-22.906-4.874c-0.465-0.911-4.363-8.597-5.142-10.064
	c2.495-1.386,9.426-5.149,14.647-6.813l-0.309-2.063c-0.629,0-16.284-0.275-35.444,13.553l1.009,1.821
	c0.157-0.04,11.607-4.517,17.136-5.548c0.393,1.467,2.574,9.311,2.882,10.382c-5.686,4.991-13.009,17.352-14.333,19.494
	c-2.182,0.911-14.254,5.862-18.695,7.844c-2.417-3.488-4.749-11.45-4.749-11.572l-0.701-2.457l-1.251,2.26
	c-12.388,22.743-6.931,44.929-6.853,45.126l0.308,1.231l1.172-0.517c3.112-1.385,4.985-2.1,6.073-2.417
	c4.834,8.916,12.858,16.92,14.411,18.345c1.716,9.35,5.843,17.472,7.173,19.811c-1.173,1.225-3.275,2.771-4.134,3.328l-1.087,0.753
	l1.71,1.625l0.55-0.157c0.15-0.04,3.347-0.839,6.773-2.542c10.677,5.908,22.127,5.79,24.151,5.712
	c8.103,5.346,15.033,7.323,16.978,7.802l0.472,0.117l3.19-2.142l-2.181-0.629c-6.853-1.938-12.309-7.408-13.861-9.072
	c2.104-4.002,4.985-12.243,5.686-14.264c12.538-3.924,20.641-8.597,24.616-11.332c4.671,4.002,12.388,8.201,14.72,9.428
	c-0.387,2.575-1.867,11.529-4.514,15.846l-0.779,1.271l3.032,0.629l0.394-0.629c0.857-1.467,5.371-9.151,7.088-17.355
	c8.41-5.388,14.103-16.917,15.269-19.491c2.023-0.238,3.819-0.674,5.221-1.31l0.465-0.236l0.779-4.042L243.984,178.65z
	 M153.935,183.798c-1.873,0.793-11.22,4.32-17.372,6.62c-5.299-3.052-13.324-13.393-14.725-15.217
	c-0.236-1.107-0.387-2.417-0.387-3.842c0-7.608,3.504-18.78,4.592-22.189c0.701-0.157,18.308-4.595,19.324-4.87
	c1.788,1.582,8.41,7.962,14.489,13.945C158.141,164.069,154.558,180.631,153.935,183.798z M202.775,192.121
	c-17.371,6.933-23.915,7.13-25.003,7.09c-7.323-4.277-15.812-12.678-17.372-14.224c0-0.275-0.079-0.514-0.079-0.911
	c0-4.08,1.324-15.017,2.646-24.764c4.206-1.625,18.466-6.894,23.759-8.833c4.984,3.842,16.592,15.888,18.387,17.749
	c0,0.356,0.078,0.792,0.078,1.388C205.192,173.934,204.02,183.838,202.775,192.121z M227.47,157.967
	c-2.725,0.753-14.254,4.595-17.68,5.745c-0.857-0.593-20.103-14.935-20.961-15.57c0.078-1.029,1.094-20.444,1.173-21.554
	c5.299-2.853,14.332-6.499,17.607-7.805c3.268,1.824,14.875,8.718,21.026,16.958c0.314,4.002,0.472,7.33,0.472,10.062
	C229.108,154.361,227.864,157.253,227.47,157.967z"/>
<path fill="#ED7A39" d="M131.186,223.858c0.079,0.274,0.236,0.511,0.393,0.786c12.93,10.742,29.601,17.201,47.752,17.201
	c12.38,0,24.065-3.014,34.351-8.358c1.165-1.585,2.338-3.249,3.504-4.913c-11.529,4.435-24.381,6.931-37.854,6.931
	C161.567,235.504,145.053,231.227,131.186,223.858"/>
<path fill="#ED7A39" d="M179.095,87.72c-37.755,0-69.076,27.909-74.999,64.487c0.403,1.458,0.816,2.921,1.237,4.388
	c5.63-35.189,36.51-62.098,73.762-62.098c38.741,0,70.594,29.104,74.316,66.36c0.454-1.116,0.906-2.239,1.354-3.371
	C251.139,118.348,218.647,87.72,179.095,87.72z"/>
<linearGradient id="SVGID_4_" gradientUnits="userSpaceOnUse" x1="88.7549" y1="100.4019" x2="175.2777" y2="100.4019">
	<stop  offset="0.2303" style="stop-color:#1D9ED5"/>
	<stop  offset="1" style="stop-color:#053E6B"/>
</linearGradient>
<path fill="url(#SVGID_4_)" d="M164.053,89.233c-0.023-0.082-0.046-0.164-0.069-0.246c-41.672-9.598-68.746-3.163-73.718-1.788
	c0.05,0.321,0.1,0.643,0.15,0.967c10.604,7.799,20.359,17.956,29.052,28.824C130.423,102.959,146.094,92.889,164.053,89.233z"/>
<linearGradient id="SVGID_5_" gradientUnits="userSpaceOnUse" x1="162.3887" y1="134.2373" x2="162.3887" y2="58.2186" gradientTransform="matrix(1.4745 -0.3951 0.4081 1.5232 -81.826 0.7836)">
	<stop  offset="0" style="stop-color:#053E6B"/>
	<stop  offset="0.9494" style="stop-color:#1D9ED5"/>
</linearGradient>
<path fill="url(#SVGID_5_)" d="M176.93,87.754c0.72-0.021,1.44-0.034,2.165-0.034c0.713,0,1.423,0.013,2.131,0.032
	c0.156,0.004,0.312,0.012,0.468,0.017c0.603,0.021,1.203,0.048,1.801,0.083c0.089,0.005,0.177,0.01,0.265,0.016
	c10.505,0.645,20.435,3.45,29.359,7.988c10.106-13.145,18.399-23.072,18.399-23.072c-47.123-37.085-84.906-37.56-84.906-37.56
	c10.828,15.078,18.266,34.624,23.336,53.051c2.178-0.265,4.384-0.435,6.614-0.509C176.684,87.763,176.807,87.758,176.93,87.754z"/>
<linearGradient id="SVGID_6_" gradientUnits="userSpaceOnUse" x1="216.7173" y1="103.3398" x2="281.4741" y2="103.3398">
	<stop  offset="0.0056" style="stop-color:#1D9ED5"/>
	<stop  offset="0.1788" style="stop-color:#189BD2"/>
	<stop  offset="0.3434" style="stop-color:#1792C8"/>
	<stop  offset="0.5047" style="stop-color:#1284B8"/>
	<stop  offset="0.6638" style="stop-color:#0E72A3"/>
	<stop  offset="0.8214" style="stop-color:#0B5B89"/>
	<stop  offset="0.9759" style="stop-color:#08426E"/>
	<stop  offset="1" style="stop-color:#053E6B"/>
</linearGradient>
<path fill="url(#SVGID_6_)" d="M281.474,49.217c-29.801,10.499-49.367,29.143-64.757,48.593
	c20.955,12.126,35.668,34.069,38.047,59.652h0.012C266.694,127.387,276.576,91.435,281.474,49.217L281.474,49.217z"/>
</svg>
