<?xml version="1.0" encoding="utf-8"?>
<!-- Generator: Adobe Illustrator 14.0.0, SVG Export Plug-In . SVG Version: 6.00 Build 43363)  -->
<svg version="1.2" baseProfile="tiny" id="Layer_1" xmlns:svg="http://www.w3.org/2000/svg"
	 xmlns="http://www.w3.org/2000/svg" xmlns:xlink="http://www.w3.org/1999/xlink" x="0px" y="0px" width="510px" height="575px"
	 viewBox="0 0 510 575" xml:space="preserve">
<path id="path20035" d="M439.821,91.416l-0.946-8.796h-49.652c-7.305-43.644-45.229-76.903-90.954-76.903
	c-45.715,0-83.649,33.253-90.951,76.903H71.987l-0.951,8.796c-0.037,0.291-0.91,8.51-0.91,22.537
	c0.004,29.5,3.843,84.74,27.786,146.188c23.916,61.43,68.184,129.082,148.399,182.252h0.009c2.284,1.555,5.304,2.564,8.233,2.537
	c0.297,0,0.585-0.021,0.875-0.039c0.289,0.018,0.576,0.039,0.871,0.039c2.92,0.027,5.945-0.982,8.225-2.52l0.031-0.019
	c80.215-53.18,124.471-120.832,148.395-182.266c23.942-61.457,27.781-116.697,27.781-146.184
	C440.73,99.926,439.857,91.707,439.821,91.416z"/>
<path id="path20037" fill="#CF1F44" d="M421.035,113.944c0-4.603-0.102-8.491-0.23-11.616h-30.412
	c-2.295,48.902-42.645,87.846-92.125,87.846c-49.468,0-89.829-38.944-92.12-87.846H90.052c-0.13,3.129-0.231,7.026-0.231,11.625
	c-0.004,27.776,3.684,80.683,26.449,139.034c22.613,57.921,63.788,121.214,139.163,171.788
	c11.664-7.827,22.507-15.962,32.592-24.332l-62.845-72.53l3.034-2.492l0.923-0.756l1.196-0.081l1.201-0.027
	c2.243,0.019,4.458,0.255,6.978,0.255c4.043,0,8.787-0.555,14.932-3.793c2.528-1.365,4.162-3.267,5.28-5.566
	c1.104-2.293,1.605-4.994,1.605-7.561c0.014-2.802-0.632-5.458-1.373-6.896c-1.334-2.782-4.708-4.838-8.083-5.984
	c-1.66-0.564-3.248-0.928-4.394-1.128l-1.346-0.209l-0.414-0.046l-0.164-0.01l-2.324-0.399l-1.26-0.228l-11.806-13.134l5.58-4.824
	l3.835-3.316l5.588-4.831l83.073,95.879c0.982-1.096,1.949-2.193,2.912-3.295L247.46,264.04l5.583-4.827l81.962,94.599
	c0.95-1.133,1.887-2.269,2.815-3.405l-81.479-94.045l1.914-1.654c0,0,2.812,0.779,7.252,0.965l77.004,88.88
	c0.915-1.167,1.831-2.333,2.724-3.503l-74.067-85.495c2.592-0.216,5.444-0.679,8.438-1.531l70.149,80.969
	c0.882-1.207,1.754-2.412,2.613-3.621l-68.386-78.942c2.478-1.24,4.239-2.984,5.479-4.947l67.261,77.637
	c0.853-1.254,1.68-2.512,2.51-3.768l-67.835-78.287c1.238-4.375,0.871-8.752,0.635-10.531l71.365,82.376
	c0.816-1.295,1.615-2.592,2.409-3.887l-77.388-89.316v-11.262l81.374,93.915c0.889-1.521,1.758-3.043,2.614-4.563l-74.91-86.441
	l4.652-4.034l73.429,84.73c7.468-13.831,13.75-27.601,19.014-41.08C417.353,194.614,421.045,141.721,421.035,113.944z"/>
<path id="path20039" fill="#FFFFFF" d="M314.904,188.675v35.365l30.619,35.332V177.16
	C336.248,182.705,325.919,186.668,314.904,188.675z"/>
<path id="path20041" fill="#FFFFFF" d="M267.717,307.89c-0.002,1.245-0.09,2.521-0.272,3.81l51.763,59.715
	c1.012-1.055,2.024-2.107,3.016-3.168l-54.646-63.066C267.663,306.062,267.711,306.966,267.717,307.89z"/>
<path id="path20043" fill="#FFFFFF" d="M262.178,323.435l48.771,56.349c1.044-1.021,2.063-2.051,3.087-3.078l-49.282-56.854
	C264.051,321.107,263.191,322.316,262.178,323.435z"/>
<path id="path20045" fill="#FFFFFF" d="M302.051,209.409c-7.041-7.165-19.651-15.528-31.694-23.539
	c-13.896-4.408-26.364-12.019-36.542-21.966c-8.987,1.472-16.412,11.529-16.412,11.529l-37.87-0.974l-0.65,15.01
	c0,0-5.558-0.323-11.425,0c-5.881,0.336-6.204,8.496-6.204,8.496s-4.571-0.336-9.465,0.973c-4.903,1.311-4.243,8.812-4.243,8.812
	s-12.735,0.323-16.979,5.229c-4.244,4.895-4.903,15.023-0.65,20.891c4.234,5.881,28.404,40.489,34.594,54.188
	c6.208,13.709,7.191,60.075,7.191,60.075l0.386,1.105c21.647,26.682,48.92,52.437,83.347,75.534
	c11.665-7.828,22.507-15.962,32.592-24.332l-62.845-72.53l3.034-2.492l0.923-0.756l1.196-0.082l1.201-0.026
	c2.243,0.019,4.458,0.255,6.978,0.255c4.043,0,8.787-0.555,14.932-3.793c2.529-1.365,4.162-3.267,5.28-5.566
	c1.104-2.293,1.606-4.994,1.606-7.561c0.014-2.802-0.633-5.458-1.375-6.896c-1.332-2.782-4.708-4.838-8.082-5.984
	c-1.66-0.564-3.248-0.928-4.394-1.128l-1.346-0.209l-0.414-0.046l-0.164-0.01l-2.324-0.399l-1.26-0.228l-11.806-13.135l5.58-4.824
	l3.835-3.316l5.588-4.831l83.073,95.879c0.982-1.096,1.949-2.193,2.912-3.295l-82.694-95.429l5.583-4.827l81.963,94.599
	c0.949-1.133,1.886-2.269,2.814-3.405l-81.479-94.045l1.914-1.654c0,0,2.811,0.779,7.25,0.965l77.005,88.88
	c0.915-1.167,1.831-2.333,2.724-3.503l-74.068-85.495c2.592-0.216,5.445-0.679,8.439-1.531l70.15,80.97
	c0.881-1.207,1.753-2.412,2.612-3.621l-68.387-78.94c2.478-1.24,4.239-2.984,5.479-4.947l67.261,77.637
	c0.853-1.254,1.68-2.512,2.51-3.768l-67.835-78.287c1.238-4.375,0.871-8.752,0.635-10.531l71.365,82.376
	c0.816-1.295,1.615-2.592,2.409-3.887l-77.388-89.316v-11.262l81.374,93.915c0.889-1.521,1.758-3.043,2.614-4.563l-74.91-86.441
	L302.051,209.409z"/>
<path id="path20047" fill="#FFFFFF" d="M252.098,329.716l50.318,58.14c1.068-0.98,2.146-1.961,3.195-2.947l-49.367-57.041
	C254.823,328.592,253.44,329.203,252.098,329.716z"/>
<path id="path20049" fill="#FFFFFF" d="M390.393,102.328c-0.984,20.962-8.962,40.092-21.653,55.111v128.72l6.841,7.894
	c7.469-13.831,13.75-27.601,19.014-41.08c1.696-4.351,3.274-8.667,4.767-12.949V102.328H390.393z"/>
<path id="path20051" fill="#FFFFFF" d="M238.673,332.203l54.983,63.468c1.105-0.954,2.188-1.915,3.273-2.874l-52.787-60.989
	C242.158,332.099,240.327,332.203,238.673,332.203z"/>
<path id="path20053" fill="#FFFFFF" d="M245.328,286.262v-0.003c0.175,0.025,3.276,0.283,7.171,1.522l-13.919-16.065l-3.835,3.316
	l10.001,11.136L245.328,286.262z"/>
<path id="path20055" fill="#FFFFFF" d="M279.857,178.083l-19.373-29.021l-32.894-9.083c-6.156-10.328-10.102-22.116-11.209-34.738
	l21.584-27.392l-1.554-34.052c1.198-1.369,2.424-2.712,3.71-3.999c7.438-7.432,16.279-13.442,26.093-17.599l32.729,12.191
	l31.996-11.912c9.564,4.146,18.19,10.046,25.463,17.32c1.375,1.375,2.685,2.814,3.96,4.283L358.896,78.9l21.229,26.698
	c-1.16,12.613-5.152,24.386-11.357,34.69l-33.613,9.424l-18.817,28.451c-5.813,1.305-11.854,2.017-18.068,2.019
	C291.932,180.179,285.776,179.438,279.857,178.083z"/>
<polygon id="polygon20057" points="334.09,88.824 298.945,63.294 263.805,88.824 277.231,130.127 320.672,130.127 "/>
<path id="path20059" d="M484.261,414.449l-21.828-12.729c5.101-11.951,9.296-24.923,12.727-36.921
	c6.586-23.232,9.988-42.654,10.011-42.755c0.352-2.021-0.567-4.039-2.323-5.095c-1.742-1.037-3.967-0.899-5.566,0.363
	l-37.406,29.328l-26.703-45.982c-1.188-2.047-3.651-2.957-5.886-2.176c-2.233,0.782-3.593,3.021-3.247,5.367
	c0.347,2.374,0.515,4.967,0.515,7.715c0.041,16.027-5.872,37.068-11.896,53.771c-3.001,8.378-6.008,15.71-8.264,20.932
	c-1.119,2.62-2.062,4.712-2.715,6.132c-0.65,1.428-1.007,2.164-1.007,2.184c-1.133,2.355-0.223,5.167,2.064,6.439l18.938,10.432
	c-28.602,49.104-83.329,82.419-146.247,82.419c-62.917,0-117.645-33.314-146.247-82.419l18.939-10.432
	c2.288-1.272,3.197-4.084,2.065-6.439c0-0.02-0.355-0.756-1.005-2.184c-0.655-1.42-1.597-3.512-2.715-6.132
	c-2.256-5.222-5.263-12.554-8.264-20.932c-6.022-16.701-11.935-37.742-11.894-53.771c0-2.748,0.168-5.341,0.514-7.715
	c0.346-2.347-1.014-4.585-3.247-5.367c-2.233-0.781-4.699,0.129-5.886,2.176l-26.703,45.982L33.58,317.313
	c-1.601-1.264-3.825-1.4-5.567-0.363c-1.755,1.056-2.674,3.074-2.324,5.095c0.023,0.101,3.425,19.521,10.011,42.755
	c3.431,11.998,7.626,24.97,12.726,36.921l-21.828,12.729c-2.115,1.236-3.001,3.856-2.074,6.112
	c36.305,88.619,126.048,151.15,230.905,151.15c104.858,0,194.6-62.531,230.905-151.15
	C487.262,418.306,486.374,415.686,484.261,414.449z"/>
<path id="path20061" fill="#FFFFFF" d="M104.078,401.993l9.406-5.411l-14.274-5.469C100.698,394.807,102.32,398.437,104.078,401.993
	z"/>
<path id="path20063" fill="#FFFFFF" d="M397.372,396.582l9.406,5.411c1.759-3.558,3.38-7.188,4.868-10.88L397.372,396.582z"/>
<path id="path20065" fill="#FFFFFF" d="M88.497,378.359c0.063-0.035,0.117-0.082,0.182-0.115c0.051-0.025,0.107-0.036,0.159-0.061
	c0.223-0.104,0.452-0.188,0.685-0.258c0.082-0.023,0.163-0.044,0.246-0.063c0.27-0.064,0.543-0.107,0.819-0.125
	c0.044-0.002,0.087-0.002,0.131-0.004c0.647-0.023,1.301,0.073,1.926,0.31c0.087,0.032,0.169,0.075,0.254,0.114l23.169,8.859
	c-2.101-5.001-4.62-11.306-7.146-18.354c-5.08-14.247-10.227-31.393-11.9-47.225L76.66,356.502c-0.719,1.22-1.933,2.083-3.334,2.348
	c-1.401,0.281-2.847-0.072-3.966-0.945l-31.359-24.601c2.064,9.504,5.332,23.188,9.736,37.462c2.663,8.708,5.793,17.637,9.286,25.94
	l31.38-18.3C88.435,378.39,88.466,378.377,88.497,378.359z"/>
<path id="path20067" fill="#FFFFFF" d="M417.961,378.156c0.084-0.037,0.165-0.08,0.252-0.112c0.625-0.235,1.279-0.333,1.928-0.31
	c0.043,0.002,0.087,0.002,0.131,0.004c0.275,0.018,0.55,0.061,0.819,0.125c0.083,0.02,0.162,0.039,0.244,0.063
	c0.233,0.068,0.464,0.154,0.688,0.259c0.051,0.023,0.104,0.033,0.156,0.06c0.063,0.031,0.116,0.08,0.18,0.115
	c0.03,0.018,0.063,0.029,0.094,0.049l31.381,18.299c3.492-8.305,6.623-17.232,9.285-25.94c4.404-14.272,7.673-27.958,9.736-37.462
	l-31.358,24.6c-1.119,0.873-2.564,1.229-3.966,0.946c-1.401-0.265-2.615-1.128-3.334-2.348l-20.361-35.062
	c-1.674,15.83-6.819,32.977-11.899,47.225c-2.525,7.047-5.044,13.351-7.146,18.353L417.961,378.156z"/>
<path id="path20069" fill="#FFFFFF" d="M255.428,561.878c-99.318,0-184.352-58.35-220.124-141.099l52.893-30.857
	c24.345,66.376,90.081,113.783,167.23,113.783s142.885-47.407,167.231-113.783l52.894,30.857
	C439.78,503.529,354.747,561.878,255.428,561.878z"/>
<path id="path20071" fill="#CF1F44" d="M88.837,416.268l4.207,6.55l-25.803,35.158l-4.344-6.775l5.349-7.196l-9.02-14.054
	l-8.833,1.781l-4.344-6.786 M81.833,425.4l-14.792,2.902l5.958,9.287L81.833,425.4z"/>
<polyline id="polyline20073" fill="#CF1F44" points="103.432,437.427 116.55,452.736 110.874,457.585 102.769,448.124 
	97.102,452.981 105.211,462.451 99.543,467.3 91.435,457.839 77.525,469.747 72.522,463.897 "/>
<path id="path20075" fill="#CF1F44" d="M141.556,484.366l-7.441,0.428c-0.282-5.358-2.17-9.524-5.672-12.49
	c-2.952-2.547-6.304-3.639-10.047-3.348c-3.748,0.301-6.877,1.929-9.406,4.886c-1.765,2.064-2.879,4.266-3.348,6.641
	c-0.469,2.355-0.273,4.702,0.586,6.995c0.864,2.328,2.297,4.33,4.294,6.04c1.71,1.455,3.539,2.456,5.494,3.021
	c1.96,0.583,4.508,0.746,7.646,0.51l0.427,7.568c-4.198,0.272-7.677,0-10.447-0.873s-5.462-2.42-8.073-4.641
	c-4.808-4.103-7.446-8.986-7.914-14.653c-0.459-5.667,1.342-10.871,5.408-15.639c2.638-3.093,5.667-5.239,9.115-6.439
	c3.434-1.22,7.072-1.438,10.916-0.683c3.848,0.765,7.272,2.43,10.27,4.984c2.556,2.184,4.557,4.813,6.004,7.905
	C140.806,477.661,141.539,480.936,141.556,484.366"/>
<path id="path20077" fill="#CF1F44" d="M142.267,523.317l17.552-36.724l5.758,2.757c3.347,1.592,5.685,2.983,7.022,4.14
	c1.91,1.628,3.147,3.557,3.684,5.748c0.542,2.201,0.305,4.366-0.723,6.515c-0.668,1.392-1.569,2.52-2.697,3.365
	c-1.128,0.873-2.597,1.474-4.389,1.847c1.729,2.11,2.743,4.203,3.02,6.276c0.273,2.073-0.095,4.167-1.128,6.331
	c-0.982,2.064-2.424,3.693-4.293,4.886c-1.878,1.19-3.857,1.792-5.949,1.847c-2.079,0.036-4.607-0.655-7.564-2.074 M156.903,510.527
	l-4.512,9.435l1.765,0.846c2.902,1.393,5.044,1.965,6.404,1.701c1.369-0.246,2.388-1.073,3.057-2.466
	c0.75-1.582,0.759-3.12,0.009-4.621c-0.75-1.475-2.506-2.883-5.267-4.202L156.903,510.527z M163.571,496.574l-3.68,7.704
	l1.533,0.736c1.719,0.818,3.157,1.064,4.33,0.746c1.169-0.31,2.042-1.083,2.638-2.302c0.545-1.155,0.582-2.247,0.109-3.284
	c-0.464-1.055-1.505-1.965-3.111-2.737L163.571,496.574z"/>
<path id="path20079" fill="#CF1F44" d="M195.195,511.609c2.729,0.792,5.094,2.229,7.114,4.285c2.001,2.064,3.343,4.466,4.011,7.188
	c0.669,2.729,0.61,5.438-0.177,8.158c-0.787,2.721-2.21,5.067-4.257,7.042c-2.051,1.974-4.435,3.302-7.168,3.957
	c-2.729,0.654-5.503,0.563-8.328-0.245c-4.148-1.21-7.264-3.712-9.342-7.516c-2.083-3.793-2.511-7.813-1.292-12.024
	c1.319-4.503,4.071-7.777,8.264-9.824C187.69,510.865,191.411,510.509,195.195,511.609 M193.335,518.45
	c-2.26-0.664-4.362-0.428-6.322,0.7c-1.951,1.146-3.289,2.93-4.002,5.395c-0.737,2.511-0.587,4.775,0.441,6.75
	c1.032,2.001,2.688,3.329,4.962,3.993c2.274,0.654,4.403,0.419,6.373-0.719c1.969-1.138,3.311-2.957,4.039-5.448
	c0.714-2.476,0.564-4.703-0.464-6.695C197.319,520.442,195.65,519.124,193.335,518.45"/>
<path id="path20081" fill="#CF1F44" d="M213.353,517.204l7.482,0.955l-1.838,14.382c-0.364,2.802-0.418,4.767-0.159,5.913
	c0.264,1.137,0.782,2.056,1.583,2.782c0.792,0.72,1.828,1.146,3.106,1.312c1.287,0.173,2.406,0,3.37-0.474
	c0.969-0.474,1.747-1.273,2.324-2.374c0.428-0.811,0.828-2.63,1.188-5.449l1.878-14.627l7.478,0.964l-1.62,12.645
	c-0.668,5.203-1.537,8.715-2.62,10.534c-1.31,2.201-3.025,3.803-5.149,4.803c-2.142,1.021-4.721,1.312-7.755,0.929
	c-3.297-0.428-5.876-1.491-7.723-3.221c-1.846-1.729-3.015-3.947-3.511-6.668c-0.359-1.883-0.236-5.212,0.373-9.997"/>
<path id="path20083" fill="#CF1F44" d="M244.044,520.543l6.623,0.108l-0.082,3.803c0.714-1.475,1.633-2.61,2.774-3.339
	c1.146-0.756,2.389-1.128,3.725-1.101c0.946,0.026,1.938,0.3,2.961,0.837l-2.424,6.449c-0.851-0.446-1.56-0.691-2.119-0.7
	c-1.138-0.01-2.116,0.683-2.925,2.102c-0.805,1.419-1.26,4.238-1.333,8.424v1.474l-0.241,12.153l-7.532-0.146"/>
<path id="path20085" fill="#CF1F44" d="M262.334,521.024l7.508-0.689l0.277,3.074c1.583-1.593,3.029-2.729,4.371-3.421
	c1.333-0.7,2.725-1.102,4.176-1.246c2.975-0.265,5.59,0.546,7.854,2.43c1.905,1.601,3.012,4.12,3.33,7.577l1.819,19.794
	l-7.516,0.683l-1.195-13.1c-0.336-3.584-0.709-5.932-1.138-7.067c-0.428-1.154-1.067-1.992-1.91-2.538
	c-0.854-0.537-1.854-0.755-3.024-0.654c-1.52,0.146-2.771,0.765-3.767,1.893c-0.981,1.109-1.614,2.583-1.864,4.421
	c-0.131,0.945-0.055,2.983,0.231,6.104l1.097,12.017l-7.505,0.683"/>
<path id="path20087" fill="#CF1F44" d="M326.52,527.247l-23.542,5.984c0.864,1.983,2.184,3.402,3.967,4.259
	c1.782,0.846,3.82,0.99,6.104,0.398c2.729-0.682,4.839-2.246,6.313-4.646l6.886,1.317c-0.981,2.565-2.41,4.641-4.274,6.24
	c-1.883,1.583-4.294,2.757-7.241,3.493c-4.585,1.165-8.669,0.674-12.271-1.491c-3.611-2.147-5.959-5.395-7.063-9.733
	c-1.138-4.438-0.632-8.515,1.491-12.189c2.13-3.656,5.363-6.049,9.692-7.149c4.585-1.164,8.715-0.646,12.335,1.564
	c3.62,2.22,6.051,5.74,7.277,10.552 M317.778,523.354c-0.9-1.481-2.184-2.547-3.875-3.191c-1.684-0.646-3.476-0.729-5.367-0.256
	c-2.056,0.52-3.702,1.557-4.977,3.074c-0.782,0.955-1.364,2.43-1.741,4.432L317.778,523.354z"/>
<path id="path20089" fill="#CF1F44" d="M324.127,510.654l6.776-3.293l1.528,3.147c0.537-1.855,1.347-3.456,2.475-4.775
	c1.102-1.347,2.492-2.411,4.175-3.221c1.701-0.846,3.431-1.164,5.194-0.991c1.783,0.173,3.466,0.855,5.085,2.057
	c0.282-2.139,1.02-4.002,2.184-5.595c1.155-1.609,2.676-2.865,4.53-3.794c1.919-0.928,3.839-1.31,5.74-1.137
	c1.892,0.19,3.521,0.846,4.856,1.974c1.347,1.139,2.803,3.313,4.395,6.56l7.741,15.838l-6.769,3.32l-6.687-13.674
	c-1.491-3.057-2.884-4.93-4.175-5.64c-1.312-0.719-2.729-0.69-4.259,0.063c-1.183,0.572-2.056,1.419-2.665,2.52
	c-0.608,1.128-0.846,2.375-0.736,3.748c0.128,1.401,0.81,3.384,2.057,5.949l5.949,12.162l-6.77,3.319l-6.377-13.063
	c-1.183-2.401-2.21-4.058-3.102-4.985c-0.892-0.891-1.819-1.437-2.802-1.619c-0.982-0.173-1.975-0.009-3.002,0.491
	c-1.128,0.556-2.012,1.401-2.62,2.521c-0.582,1.118-0.827,2.4-0.691,3.829c0.128,1.438,0.819,3.438,2.093,6.04l5.858,11.972
	l-6.777,3.32"/>
<path id="path20091" fill="#CF1F44" d="M378.252,478.835c2.247-1.729,4.794-2.82,7.65-3.202c2.847-0.428,5.567-0.109,8.169,0.964
	c2.603,1.064,4.767,2.72,6.478,4.958c1.745,2.247,2.811,4.775,3.201,7.586c0.383,2.82,0.056,5.522-1.019,8.124
	c-1.083,2.574-2.793,4.775-5.113,6.576c-3.42,2.639-7.276,3.685-11.569,3.139c-4.304-0.555-7.797-2.564-10.479-6.04
	c-2.875-3.729-3.902-7.887-3.075-12.463C373.203,484.456,375.133,481.236,378.252,478.835 M382.683,484.366
	c-1.855,1.438-2.911,3.293-3.147,5.54c-0.235,2.246,0.428,4.375,1.983,6.395c1.601,2.074,3.512,3.284,5.729,3.621
	c2.221,0.346,4.268-0.219,6.142-1.656c1.883-1.455,2.938-3.293,3.175-5.565c0.236-2.274-0.438-4.439-2.021-6.479
	c-1.583-2.037-3.483-3.22-5.693-3.575C386.64,482.327,384.593,482.883,382.683,484.366"/>
<path id="path20093" fill="#CF1F44" d="M393.563,467.4l5.176-5.477l10.534,9.97c2.047,1.947,3.611,3.14,4.685,3.611
	c1.064,0.474,2.129,0.592,3.176,0.364c1.036-0.22,2.011-0.782,2.893-1.729c0.883-0.937,1.429-1.929,1.61-3.002
	c0.182-1.063,0-2.165-0.537-3.274c-0.409-0.837-1.646-2.22-3.711-4.176l-10.707-10.143l5.186-5.478l9.242,8.762
	c3.82,3.62,6.149,6.395,6.986,8.341c1,2.348,1.291,4.703,0.837,7.005c-0.455,2.311-1.729,4.566-3.839,6.795
	c-2.293,2.411-4.658,3.857-7.15,4.339c-2.474,0.475-4.967,0.109-7.45-1.091c-1.729-0.837-4.348-2.902-7.841-6.204"/>
<polyline id="polyline20095" fill="#CF1F44" points="407.034,435.844 411.602,429.84 420.434,436.553 423.126,432.996 
	428.267,436.917 425.564,440.447 444.366,454.765 439.81,460.76 420.997,446.478 418.668,449.525 413.529,445.613 415.85,442.557 
	"/>
<path id="path20097" fill="#CF1F44" d="M414.957,424.8l3.931-6.44l12.525,7.643c-0.317-1.938-0.363-3.693-0.137-5.305
	c0.236-1.608,0.746-3.064,1.547-4.365c1.555-2.557,3.747-4.157,6.567-4.85c2.438-0.555,5.147,0.073,8.096,1.874l16.975,10.334
	l-3.875,6.367l-11.262-6.857c-2.966-1.802-5.076-2.894-6.295-3.247c-1.237-0.355-2.311-0.355-3.238,0.009
	c-0.945,0.363-1.71,1.055-2.329,2.074c-0.791,1.291-1.036,2.674-0.745,4.146c0.301,1.456,1.092,2.82,2.364,4.094
	c0.655,0.664,2.349,1.819,5.112,3.493l10.315,6.295l-3.931,6.422"/>
</svg>
