<?xml version="1.0" encoding="UTF-8" standalone="no"?>
<!-- Created with Inkscape (http://www.inkscape.org/) -->
<svg
   xmlns:dc="http://purl.org/dc/elements/1.1/"
   xmlns:cc="http://creativecommons.org/ns#"
   xmlns:rdf="http://www.w3.org/1999/02/22-rdf-syntax-ns#"
   xmlns:svg="http://www.w3.org/2000/svg"
   xmlns="http://www.w3.org/2000/svg"
   version="1.1"
   width="441.58176"
   height="441.58328"
   id="svg3966">
  <defs
     id="defs3968" />
  <g
     transform="translate(-153.49484,-217.28483)"
     id="layer1">
    <path
       d="m 375.03335,221.27536 c 116.82595,0 211.5679,96.08126 211.5679,214.55744 0,118.47771 -94.74195,214.559 -211.5679,214.559 -116.82647,0 -211.56843,-96.08129 -211.56843,-214.559 0,-118.47618 94.74196,-214.55744 211.56843,-214.55744 z"
       id="path3553"
       style="fill:#ffffff;fill-opacity:1;fill-rule:evenodd;stroke:#231f20;stroke-width:1.08309162;stroke-linecap:butt;stroke-linejoin:miter;stroke-miterlimit:10;stroke-opacity:1;stroke-dasharray:none" />
    <path
       d="m 373.56363,297.37611 c 78.08642,0 141.41017,63.70383 141.41017,142.25453 0,78.55274 -63.32375,142.25458 -141.41017,142.25458 -78.08488,0 -141.41064,-63.70184 -141.41064,-142.25458 0,-78.5507 63.32576,-142.25453 141.41064,-142.25453 z"
       id="path3555"
       style="fill:#fbc707;fill-opacity:1;fill-rule:evenodd;stroke:#231f20;stroke-width:1.08309162;stroke-linecap:butt;stroke-linejoin:miter;stroke-miterlimit:10;stroke-opacity:1;stroke-dasharray:none" />
    <path
       d="m 471.27053,390.32743 -49.3288,3.54211 0,-5.1783 0,-5.17778 c 7.08374,0 14.49088,-0.0361 18.99674,0.31249 15.01835,1.15582 17.98032,8.15881 18.55745,7.35752 0.14201,-0.19897 -11.93707,-6.70514 -11.93707,-23.20423 0,-10.0833 4.907,-22.89287 15.26308,-23.16565 l -10.08478,0 -29.70531,-14.717 0,-12.53679 c -6.54115,0 -7.90457,3.54364 -14.71701,4.08819 -0.81882,0 -12.80957,1.36289 -12.80957,-0.27158 0,-3.81641 0.26436,-9.87719 -1.46819,-9.43645 -0.15484,0.0401 -6.47147,-2.71174 -12.1587,-0.92111 -7.07119,2.22884 -16.89723,4.63371 -25.61861,3.54359 -6.26841,-0.54455 9.26593,3.81489 11.1749,4.36097 14.44371,4.63222 24.52701,-10.0833 24.52701,9.81149 1.90744,5.72285 10.35604,2.17922 14.71701,1.63466 l 5.72382,-1.09011 c 1.36188,0 3.27085,0 4.63222,0 0.54608,0 6.26841,0.81734 3.81641,0.81734 l -23.16564,17.98734 c -13.62638,6.26841 -19.26399,37.9423 -9.72476,47.48153 2.453,-12.53678 22.26154,-11.83177 29.89285,-11.83177 l 0,10.13593 -33.52169,1.90897 c -24.62529,-11.04003 -10.47542,-44.96988 3.26933,-44.96988 l -5.1783,-0.54404 -28.3439,-15.26156 0,-9.26745 c -5.99512,0 -11.71793,3.27081 -17.16849,3.27081 0,-1.90744 0.81733,-6.26837 0,-7.63026 -5.45108,-2.72578 -15.26309,5.9956 -22.89287,5.9956 -5.99711,0 5.99512,3.81489 8.7199,3.81489 l 10.08478,-1.09011 c 2.72478,0 -2.453,7.6313 7.35853,7.35852 4.35791,-0.12074 6.26837,-2.452 11.44667,-2.452 l -20.71413,18.25912 c -19.62201,3.81641 -25.25208,31.61175 -11.71496,39.92095 -3.34001,-12.32065 22.38542,-8.5825 28.92657,-7.9953 l -0.58567,8.41049 -33.88019,0.11633 4.71795,-5.02334 -7.08571,5.45108 c -16.88471,3.78079 -18.92554,32.83272 -16.06036,38.19851 l -16.64399,16.03578 -3.54211,-0.54456 c 0,-6.26789 5.62305,-11.48478 20.26432,-15.58649 l -33.61844,9.86267 -11.71945,-2.72477 -2.18022,0.54455 1.36188,1.36289 6.54116,2.72626 -10.9006,4.08819 c -3.54363,7.08523 3.81489,16.35116 7.90304,20.43934 5.17778,5.17778 19.62201,2.72627 26.1632,2.72627 l 16.62445,-1.0906 -0.27157,-1.36289 -16.89723,0.81734 c -18.80468,1.63615 -6.81397,-19.89531 4.08815,-8.99319 l -5.72434,-6.26838 16.35319,7.63026 4.35945,13.89968 1.63615,10.62886 c -4.63371,1.63466 -28.61669,1.36337 -28.61669,-4.63375 0,20.98542 29.70933,20.85754 45.24114,20.44087 13.311,-0.35782 25.6101,-0.061 36.85921,1.80114 5.89134,0.97478 11.29677,3.92167 16.83056,3.92167 -11.44667,5.45056 -21.2582,1.90897 -23.16564,1.90897 0.81733,8.99267 25.61712,11.44615 33.24891,11.17338 19.95596,-1.70435 42.92853,-7.91307 61.86559,-1.90745 11.17489,3.54211 45.51391,7.90256 45.51391,-12.26549 -0.81733,5.17979 -28.07112,7.90456 -28.07112,-1.36141 l 0.54455,-2.45348 7.08575,-6.26841 c 1.36289,-1.36289 9.5387,-0.27278 11.44615,-0.27278 l 10.35608,-25.07305 -1.63419,-1.90744 0.27278,-2.99756 1.63467,-2.18074 0,-7.63127 -4.36093,-6.53966 -4.63222,5.44955 0,5.17826 c -7.35853,1.09011 -8.99468,-4.90548 -11.44668,-9.81048 0,-7.99984 22.0755,-23.48155 22.0755,-25.07309 -6.81393,1.09011 -12.80905,8.71989 -18.80468,8.71989 l 1.09011,-16.35167 -3.54359,16.89775 -9.26597,-0.54608 c -3.81637,-7.08522 -2.453,-18.5319 -0.27278,-25.07305 1.29221,-4.3083 11.87289,-18.6372 11.99223,-19.34923 z m -175.2362,45.08317 -13.71061,14.05913 11.89242,4.64477 c 4.54698,1.31524 9.27046,2.19174 14.69146,2.19174 -3.65142,-4.05205 -7.55457,-8.74243 -9.96797,-13.58526 -0.87398,-1.75252 -2.81853,-5.55638 -2.9053,-7.31038 z m 30.10044,5.55786 c -8.53689,0.3851 -12.28659,10.31645 -11.98072,16.82755 8.21999,-1.13977 12.1557,-9.02728 11.98072,-16.82755 z m 17.13892,-1.31475 -1.74799,23.66455 -17.57717,-2.71776 z m 5.59598,2.6295 -0.43625,22.17329 2.97349,0 0.0867,1.84078 4.63523,0 0.0866,-1.9275 3.06174,-0.17611 -1.48676,-11.39404 c -0.26315,-2.89229 -1.75003,-5.60853 -3.76126,-7.62428 -0.52449,-0.52703 -5.07147,-2.19178 -5.15972,-2.89226 z m 18.36442,15.07503 4.55548,19.45754 c 3.673,1.92702 4.53695,4.10773 9.8727,3.06728 4.10821,-0.80029 5.68423,-3.15553 5.68423,-7.71254 -5.68423,-6.48599 -12.8547,-11.13077 -20.11241,-14.81228 z m 7.52046,-12.44552 c 0,10.12991 4.06509,16.68414 9.60691,21.27926 7.08723,5.87477 21.66183,10.77877 30.18014,5.53929 l 0.26315,-11.48177 c -2.12907,-0.15485 -6.21875,0.23467 -6.74726,0.43075 -0.20618,0.0754 -0.30848,3.687 0.0161,5.61703 0.1408,0.8499 -8.40062,-0.002 -16.68426,-5.98661 -9.03828,-6.53164 -17.33248,-14.96018 -16.63296,-15.39795 z m 45.82128,15.07354 0.34939,14.90054 14.42819,1.5775 0.0883,-1.48925 5.15973,0 0.0866,1.92698 6.94483,-0.20178 0.13639,-2.96494 6.22276,-0.0161 0.15805,-2.83882 7.47085,-0.0241 0.3169,-6.31402 c -5.92142,-5.40543 -34.14446,-8.17433 -41.36206,-4.55849 z m 45.55904,5.9615 -0.1745,6.43036 c 7.52047,0.43777 7.91712,-0.0321 10.14448,-5.81761 -2.88576,-1.403 -6.82147,-0.61275 -9.96998,-0.61275 z m -113.49845,-80.45866 0.23146,7.89554 25.6462,1.54942 c -5.37586,-8.3007 -26.64958,-9.52868 -25.87786,-9.44496 z m -0.63233,-48.4874 -17.99336,15.96208 17.5511,-1.35339 z m 2.40338,0.58266 0.92512,13.83702 23.17014,-1.06155 z m 66.13125,-5.55185 -18.57049,14.86443 17.95373,-1.88586 z m 2.67516,-0.61576 0,13.21773 25.32176,0.0502 -25.32176,-13.26735 z m -129.72931,179.52745 8.67424,-1.88586 c 12.18278,-2.64808 29.00079,10.511 27.52959,10.18254 -5.26752,-1.17684 -10.88507,-2.61647 -15.55139,-1.41704 -17.94222,4.61369 -30.60785,3.03165 -44.41125,-13.85704 -1.69837,-2.07945 11.93956,9.54573 23.75881,6.9774 z m 80.80112,-292.65937 c 121.05755,0 219.7909,98.73483 219.7909,219.79089 0,121.05755 -98.73335,219.79238 -219.7909,219.79238 -121.05754,0 -219.79085,-98.73483 -219.79085,-219.79238 0,-121.05606 98.73331,-219.79089 219.79085,-219.79089 z m 0,15.60707 c 112.46202,0 204.18536,91.72129 204.18536,204.18382 0,112.4625 -91.72334,204.18587 -204.18536,204.18587 -112.46249,0 -204.18583,-91.72337 -204.18583,-204.18587 0,-112.46253 91.72334,-204.18382 204.18583,-204.18382 z m 0,54.62191 c 82.37566,0 149.56192,67.18578 149.56192,149.56191 0,82.37614 -67.18626,149.56192 -149.56192,149.56192 -82.37613,0 -149.56191,-67.18578 -149.56191,-149.56192 0,-82.37613 67.18578,-149.56191 149.56191,-149.56191 z m 0,13.0056 c 75.2137,0 136.55631,61.34411 136.55631,136.55631 0,75.21369 -61.34261,136.5578 -136.55631,136.5578 -75.21417,0 -136.55626,-61.34411 -136.55626,-136.5578 0,-75.2122 61.34209,-136.55631 136.55626,-136.55631 z m -9.76387,258.42967 c 7.50242,-5.44803 13.70665,-7.61121 19.3352,-8.61908 14.95569,-2.67765 25.87786,3.35156 47.25239,-0.88954 2.28701,-0.45382 8.36187,-5.53079 6.80543,-4.07263 -5.85724,5.48667 -9.02276,8.56244 -20.81895,12.70575 -14.09423,4.95065 -26.19176,-2.84259 -40.94435,-0.76318 z m -48.69748,-30.81243 c 10.09281,4.56102 20.48195,-1.30625 36.52225,-2.21733 16.16514,-0.91963 31.16644,8.32476 49.00035,8.55241 20.54063,0.26034 25.84377,-0.55009 28.71649,-3.59325 -4.96217,10.89056 -47.34065,12.79251 -59.89998,8.22997 -22.4135,-8.14473 -28.82127,-7.05314 -44.02166,-7.27477 -5.84468,-0.0854 -6.75428,-2.41088 -10.31745,-3.69703 z m 11.72896,19.76289 6.95638,-1.51232 c 9.77189,-2.12655 23.2624,8.43007 22.08251,8.16732 -4.22554,-0.94418 -8.7314,-2.09799 -12.47409,-1.13725 -14.3916,3.70108 -24.5516,2.43194 -35.62268,-11.11372 -1.36289,-1.66877 9.57734,7.65685 19.05788,5.59597 z m -146.57137,-124.99928 2.90982,-20.7051 c 0.48438,-3.44985 1.71538,-5.97806 3.68251,-7.58016 1.96762,-1.60907 4.21451,-2.23738 6.73021,-1.88337 2.11652,0.29845 3.84097,1.21097 5.17124,2.74034 0.88553,1.02492 1.50382,2.42091 1.84928,4.19445 0.97779,-2.48008 2.3096,-4.22153 3.98137,-5.2264 1.67678,-0.99636 3.65395,-1.33882 5.92844,-1.01891 1.85778,0.26115 3.46389,0.92813 4.82577,1.99418 1.36137,1.07607 2.36223,2.41489 3.01862,4.03652 0.40363,0.99937 0.59871,2.45352 0.57564,4.36245 -0.0241,2.53724 -0.0891,4.21002 -0.20458,5.02587 l -2.68218,19.08896 z m 15.60855,-9.18321 0.67493,-4.80873 c 0.24148,-1.72392 0.11071,-2.96647 -0.3851,-3.73265 -0.50444,-0.75869 -1.31624,-1.21246 -2.43195,-1.36991 -1.04197,-0.14642 -1.90644,0.0722 -2.58437,0.66489 -0.68644,0.6002 -1.14427,1.73444 -1.37842,3.40873 l -0.68648,4.88242 z m 14.05464,1.97411 0.79274,-5.6401 c 0.26877,-1.90744 0.12395,-3.29588 -0.44174,-4.16589 -0.56614,-0.87851 -1.41857,-1.39747 -2.56031,-1.55792 -1.05702,-0.14803 -1.96112,0.11552 -2.71174,0.80028 -0.75066,0.68495 -1.26513,1.98868 -1.53791,3.93022 l -0.78873,5.61551 z m -4.84584,-33.15664 c -5.34577,-2.49312 -8.81115,-5.9284 -10.39868,-10.28937 -1.59206,-4.37196 -1.14426,-9.2133 1.33481,-14.52895 2.54274,-5.45108 5.96551,-8.97061 10.26932,-10.55666 4.29273,-1.58051 9.08541,-1.14727 14.35445,1.30874 3.82793,1.78562 6.66755,3.89913 8.5143,6.32959 1.8478,2.42893 2.88524,5.17926 3.1169,8.24802 0.22624,3.0763 -0.50593,6.42085 -2.20329,10.05771 -1.71991,3.69154 -3.73366,6.47448 -6.03771,8.35236 -2.31012,1.86633 -5.08452,2.95792 -8.33532,3.28036 -3.24775,0.3145 -6.78685,-0.41618 -10.61478,-2.2018 z m 4.76761,-10.10585 c 3.31045,1.54341 5.96551,2.03983 7.98628,1.48677 2.01427,-0.55559 3.52105,-1.89493 4.50586,-4.00696 1.01341,-2.1732 1.09011,-4.18996 0.23467,-6.03671 -0.86395,-1.85028 -3.12291,-3.6369 -6.78284,-5.34426 -3.08882,-1.43963 -5.62859,-1.86332 -7.63431,-1.28619 -1.99819,0.58118 -3.49345,1.93605 -4.48881,4.07215 -0.94919,2.03529 -0.99785,4.00992 -0.12476,5.91989 0.86547,1.90745 2.972,3.64188 6.30399,5.19531 z m 20.25181,-27.44381 6.17162,-8.67629 c 1.48223,0.90811 2.79999,1.36891 3.95128,1.38997 1.85778,0.0361 3.45686,-0.79327 4.8027,-2.45449 1.00086,-1.23552 1.48524,-2.42191 1.44862,-3.5677 -0.0401,-1.13873 -0.44475,-2.01724 -1.20993,-2.63653 -0.72608,-0.58868 -1.63419,-0.80329 -2.72879,-0.62827 -1.09312,0.1745 -2.83261,1.21246 -5.22793,3.12841 -3.93876,3.1114 -7.26726,4.90801 -9.99954,5.38136 -2.74183,0.48591 -5.20939,-0.15966 -7.40514,-1.93753 -1.44564,-1.16982 -2.47306,-2.69469 -3.0773,-4.57105 -0.60421,-1.87335 -0.59418,-3.94426 0.0281,-6.22276 0.62779,-2.27449 2.12607,-4.87239 4.49282,-7.79473 2.90682,-3.59077 5.79206,-5.78953 8.6507,-6.59282 2.85816,-0.80281 5.88981,-0.20017 9.09095,1.79661 l -6.14755,8.56697 c -1.4371,-0.8073 -2.72879,-1.09613 -3.87053,-0.86298 -1.13123,0.23307 -2.19727,0.96074 -3.18662,2.18476 -0.82034,1.01337 -1.22497,1.94001 -1.20692,2.79999 0.008,0.85444 0.32854,1.53237 0.94269,2.03128 0.44475,0.35942 1.01337,0.47335 1.71137,0.34699 0.70653,-0.11072 1.83074,-0.8033 3.39569,-2.08094 3.88709,-3.12994 6.91474,-5.17124 9.08092,-6.13499 2.16618,-0.96327 4.1689,-1.3233 6.01417,-1.06304 1.84077,0.25553 3.5336,0.99933 5.06999,2.24288 1.79813,1.45716 3.05171,3.30496 3.76374,5.52778 0.71753,2.22736 0.74059,4.55151 0.0754,6.97892 -0.66089,2.42091 -2.09498,4.99326 -4.29827,7.71402 -3.86604,4.77315 -7.46082,7.33995 -10.7908,7.68546 -3.33204,0.35501 -6.5071,-0.49493 -9.54176,-2.55128 z m 9.1792,-49.58807 26.74583,-20.89564 5.4952,7.0346 -8.97614,7.0145 16.75234,21.4412 -8.79812,6.87414 -16.75233,-21.44172 -8.97061,7.00752 z m 42.73799,-10.94323 c -2.39937,-5.38839 -2.76188,-10.25528 -1.09713,-14.58764 1.66576,-4.3434 5.18079,-7.70347 10.53808,-10.0888 5.49469,-2.44747 10.38713,-2.85716 14.6769,-1.22951 4.2772,1.62315 7.60871,5.09454 9.97395,10.4047 1.71842,3.85901 2.47458,7.31741 2.27401,10.3631 -0.20017,3.04469 -1.22101,5.80056 -3.06026,8.2696 -1.84627,2.47054 -4.59359,4.51289 -8.25957,6.14603 -3.72111,1.65572 -7.06565,2.43647 -10.03766,2.3412 -2.96646,-0.1067 -5.77648,-1.10315 -8.44157,-2.99206 -2.65811,-1.89341 -4.84836,-4.76761 -6.56675,-8.62662 z m 10.2282,-4.49832 c 1.48524,3.336 3.16403,5.45204 5.05142,6.36216 1.88486,0.90105 3.90061,0.87951 6.02969,-0.0682 2.19025,-0.9753 3.57171,-2.4465 4.13781,-4.40208 0.56261,-1.96461 0.0281,-4.79469 -1.61361,-8.48422 -1.38595,-3.11289 -3.02611,-5.10004 -4.91803,-5.97855 -1.8904,-0.87249 -3.90716,-0.82989 -6.0593,0.12797 -2.05085,0.9126 -3.38266,2.37077 -3.97683,4.38652 -0.59823,2.00673 -0.14642,4.69741 1.34885,8.05648 z m 30.9759,-31.99385 10.27533,-1.81217 16.87067,17.32497 -3.47291,-19.68772 10.36659,-1.82769 6.27539,35.58858 -10.36659,1.8277 -16.77636,-17.18854 3.44383,19.53825 -10.34052,1.82372 z m 115.33373,5.23346 10.60226,3.44531 -6.65901,20.49202 c -0.6614,2.0328 -1.60209,3.84196 -2.82157,5.44554 -1.21695,1.59455 -2.72478,2.85515 -4.51589,3.76924 -1.79212,0.9126 -3.51503,1.39751 -5.18227,1.4657 -2.3126,0.0891 -4.90954,-0.32974 -7.80629,-1.27114 -1.67129,-0.54404 -3.45939,-1.24905 -5.35829,-2.13057 -1.90195,-0.87401 -3.3987,-1.87487 -4.50037,-3.00156 -1.10314,-1.12875 -1.99718,-2.51619 -2.68514,-4.15486 -0.68796,-1.63868 -1.01189,-3.20367 -0.97779,-4.69641 0.0542,-2.39784 0.35541,-4.44019 0.90406,-6.1305 l 6.65752,-20.49201 10.60375,3.44583 -6.81846,20.98089 c -0.60974,1.88037 -0.56562,3.51355 0.12515,4.8965 0.69752,1.39446 1.96562,2.39082 3.81489,2.99202 1.82373,0.59269 3.43381,0.54006 4.81126,-0.16206 1.3689,-0.69647 2.36924,-2.00821 2.98752,-3.91317 z m 25.33331,10.43727 8.84826,5.52778 0.94369,24.16349 10.59372,-16.95291 8.926,5.57744 -19.15019,30.64648 -8.92648,-5.57892 -0.96623,-23.99851 -10.51401,16.82451 -8.90494,-5.56336 z m 39.80562,28.77012 8.18436,7.63131 -24.64534,26.42892 -8.18437,-7.63279 z m 17.348,16.42842 19.94946,27.45938 -7.22061,5.24645 -6.69763,-9.2163 -22.01284,15.99465 -6.56273,-9.03278 22.01283,-15.99466 -6.69057,-9.20928 z m 26.27701,39.95753 11.20795,27.74119 -7.15386,2.89125 -7.01603,-17.36657 -5.32721,2.15315 6.50858,16.1085 -6.83402,2.76188 -6.50858,-16.10998 -6.59984,2.66661 7.22061,17.87249 -7.59015,3.06728 -11.41357,-28.24864 z m 15.68228,42.72949 2.30803,16.43138 c 0.4553,3.23223 0.38109,5.9114 -0.21301,8.03345 -0.60272,2.11504 -1.63017,3.94174 -3.08834,5.47263 -1.46718,1.53185 -3.24225,2.74182 -5.34172,3.63986 -2.101,0.89007 -4.36799,1.5053 -6.80996,1.84928 -3.82348,0.53706 -6.85112,0.52001 -9.08249,-0.0582 -2.22884,-0.57011 -4.16489,-1.52937 -5.79955,-2.8797 -1.64169,-1.34183 -2.82406,-2.86719 -3.54913,-4.57406 -0.99031,-2.33418 -1.62464,-4.48733 -1.90043,-6.45442 l -2.30959,-16.4299 35.78615,-5.03036 z m -6.55427,12.19682 -19.54675,2.74784 0.38108,2.70773 c 0.32533,2.31509 0.80731,3.92167 1.45969,4.82425 0.64532,0.90358 1.6532,1.5434 3.00658,1.92301 1.35134,0.36945 3.46489,0.35421 6.33208,-0.0501 3.79082,-0.53203 6.29545,-1.51231 7.52191,-2.94239 1.22505,-1.43863 1.63623,-3.58776 1.23352,-6.45294 l -0.38831,-2.75788 z m -333.22813,89.8956 15.31523,30.05478 -7.90556,4.02798 -5.1412,-10.0888 -24.09525,12.27805 -5.03738,-9.88722 24.09525,-12.27652 -5.13666,-10.08178 z m 16.0744,31.71901 6.83098,8.74449 -9.90375,7.73808 7.47081,9.56178 9.90378,-7.73809 6.86259,8.78259 -28.3023,22.1126 -6.86259,-8.78408 11.44467,-8.942 -7.46932,-9.56181 -11.44467,8.94352 -6.83251,-8.74444 z m 23.93332,28.18746 23.10996,18.71242 -4.82529,5.96001 -14.46677,-11.71344 -3.59326,4.43767 13.4193,10.86754 -4.60968,5.69273 -13.42078,-10.86802 -4.45171,5.49821 14.88898,12.0559 -5.1211,6.32405 -23.53117,-19.05539 z m 60.15418,36.29513 17.89962,4.46322 c 3.89459,0.97077 6.58527,2.62401 8.06048,4.96469 1.47822,2.33414 1.79212,5.22238 0.94069,8.63765 -0.87799,3.52105 -2.61795,6.00815 -5.23041,7.46078 -2.61097,1.45166 -6.08637,1.63619 -10.42729,0.55458 l -5.89181,-1.46967 -3.22368,12.9344 -10.81487,-2.6977 z m 7.11283,17.55258 2.63652,0.65788 c 2.07641,0.51747 3.61881,0.52349 4.64225,0.008 1.0159,-0.51447 1.66877,-1.33481 1.94704,-2.453 0.27278,-1.09613 0.1408,-2.11953 -0.40074,-3.05621 -0.53301,-0.94221 -1.80817,-1.66575 -3.82091,-2.1677 l -3.06724,-0.76467 -1.93704,7.77219 z m 26.48307,-10.97433 11.07963,0.96929 -3.12994,35.77917 -11.07963,-0.96977 z m 16.16967,1.32731 11.06258,-0.96628 2.35922,26.96497 17.25276,-1.50975 0.7702,8.81416 -28.31382,2.47607 z m 52.72851,14.59065 -2.05787,-7.17801 16.47803,-4.72449 4.22005,14.71802 c -2.53576,3.04922 -4.90251,5.32018 -7.10981,6.78893 -2.20329,1.47521 -4.97067,2.68611 -8.29817,3.63983 -4.09922,1.17536 -7.63531,1.43265 -10.61731,0.77478 -2.98652,-0.64942 -5.58494,-2.15772 -7.79376,-4.5159 -2.21432,-2.35773 -3.83896,-5.32022 -4.86389,-8.89643 -1.08156,-3.77076 -1.24202,-7.27328 -0.4904,-10.50799 0.7617,-3.22822 2.43046,-5.99411 5.01331,-8.30122 2.01977,-1.7881 5.01183,-3.24626 8.96612,-4.37898 3.81087,-1.09312 6.76278,-1.56647 8.85776,-1.41857 2.08796,0.14923 3.96183,0.76872 5.63308,1.86485 1.66026,1.08858 3.12845,2.66059 4.39655,4.71493 l -9.76387,4.78266 c -0.79876,-1.17985 -1.80764,-1.96862 -3.01862,-2.36925 -1.20391,-0.40367 -2.59689,-0.37788 -4.16489,0.0706 -2.33815,0.67092 -3.97133,2.01877 -4.89497,4.04006 -0.92412,2.03079 -0.88701,4.79569 0.12195,8.31621 1.07206,3.73819 2.54426,6.20423 4.41059,7.39965 1.8563,1.19842 4.04807,1.44159 6.56426,0.71953 1.18939,-0.34137 2.2795,-0.84589 3.2593,-1.49976 0.98481,-0.65688 2.06337,-1.60209 3.21618,-2.82859 l -0.93366,-3.25478 z m 29.13866,3.04168 -17.95774,-31.10378 16.01872,-9.2494 c 2.96948,-1.7139 5.38838,-2.77292 7.2507,-3.16255 1.86332,-0.39914 3.67397,-0.19014 5.43652,0.63682 1.75701,0.82034 3.20515,2.22334 4.34688,4.20199 0.99886,1.72946 1.48677,3.42831 1.47822,5.10257 -0.016,1.67979 -0.44374,3.27888 -1.27363,4.80122 -0.54002,0.96977 -1.42555,2.02979 -2.6681,3.17105 1.3659,-0.27518 2.42091,-0.37226 3.17105,-0.29404 0.49341,0.0525 1.32178,0.29845 2.47607,0.74312 1.15831,0.45077 1.97564,0.82885 2.46351,1.15578 l 9.85413,6.33208 -10.862,6.27142 -10.62481,-6.5442 c -1.35888,-0.84742 -2.40238,-1.31776 -3.12993,-1.38997 -0.96376,-0.0798 -1.8904,0.13639 -2.76742,0.64235 l -0.84742,0.48888 7.2878,12.62303 z m -1.02942,-24.07672 4.05558,-2.34121 c 0.43472,-0.25111 1.20243,-0.87798 2.29956,-1.88738 0.5616,-0.49891 0.89403,-1.1257 0.99933,-1.88037 0.0967,-0.75215 -0.0449,-1.46968 -0.44074,-2.15062 -0.57965,-1.00639 -1.34183,-1.59054 -2.28853,-1.75854 -0.95224,-0.1745 -2.30109,0.2463 -4.05357,1.25811 l -4.22157,2.43796 z m 14.66586,-26.5899 8.64367,-6.9985 22.60252,27.91119 -8.64319,6.99898 z m 12.53378,-9.35671 9.38378,-11.18344 20.3616,9.72776 -13.13096,-18.34436 9.3527,-11.14481 27.51253,23.0859 -5.82663,6.94334 -20.9794,-17.60377 16.45797,22.99114 -5.27152,6.28394 -25.48427,-12.23544 20.97989,17.60376 -5.84316,6.96188 z m 47.06635,-20.77229 4.20548,-9.70924 c 1.63065,0.57717 3.0051,0.75167 4.12778,0.53605 1.8137,-0.3526 3.19813,-1.48724 4.16188,-3.37864 0.71805,-1.40902 0.9437,-2.66413 0.67244,-3.76828 -0.27559,-1.09861 -0.84995,-1.87034 -1.72143,-2.31408 -0.82736,-0.42072 -1.75401,-0.44327 -2.78142,-0.0449 -1.02794,0.39513 -2.50467,1.76351 -4.43767,4.12024 -3.18509,3.83948 -6.04927,6.27391 -8.60809,7.29883 -2.56532,1.03897 -5.09703,0.92264 -7.59969,-0.35381 -1.64618,-0.83839 -2.96093,-2.10749 -3.93624,-3.80634 -0.97326,-1.69684 -1.39297,-3.7126 -1.25759,-6.05629 0.1404,-2.33968 1.05902,-5.17529 2.75587,-8.5058 2.08395,-4.09067 4.43466,-6.82548 7.04864,-8.19688 2.61245,-1.37191 5.68422,-1.41154 9.20776,-0.13237 l -4.20448,9.59839 c -1.56346,-0.48739 -2.87974,-0.49994 -3.94125,-0.0361 -1.05052,0.45879 -1.93753,1.38696 -2.64708,2.77994 -0.58816,1.15578 -0.79025,2.14059 -0.59518,2.97248 0.18894,0.82837 0.63682,1.42254 1.3373,1.77956 0.50597,0.25834 1.08161,0.25112 1.73548,-0.016 0.66389,-0.25313 1.6136,-1.15879 2.86967,-2.72378 3.13446,-3.84598 5.65466,-6.45591 7.5621,-7.84038 1.90745,-1.38395 3.77779,-2.14761 5.62706,-2.27549 1.84074,-0.13198 3.6404,0.24028 5.39139,1.13275 2.04833,1.04346 3.64842,2.58137 4.80019,4.5956 1.15983,2.01675 1.66274,4.27119 1.51632,6.76832 -0.14361,2.49063 -1.00486,5.28761 -2.58385,8.38794 -2.77191,5.43953 -5.73537,8.67729 -8.90394,9.70069 -3.16351,1.03427 -6.42883,0.86378 -9.80145,-0.50813 z"
       id="path3557"
       style="fill:#231f20;fill-opacity:1;fill-rule:evenodd;stroke:none" />
  </g>
</svg>
