<?xml version="1.0" encoding="UTF-8" standalone="no"?>
<!-- Created with Inkscape (http://www.inkscape.org/) -->

<svg
   xmlns:dc="http://purl.org/dc/elements/1.1/"
   xmlns:cc="http://creativecommons.org/ns#"
   xmlns:rdf="http://www.w3.org/1999/02/22-rdf-syntax-ns#"
   xmlns:svg="http://www.w3.org/2000/svg"
   xmlns="http://www.w3.org/2000/svg"
   xmlns:sodipodi="http://sodipodi.sourceforge.net/DTD/sodipodi-0.dtd"
   xmlns:inkscape="http://www.inkscape.org/namespaces/inkscape"
   version="1.1"
   width="189.00044"
   height="200.75"
   id="svg2"
   xml:space="preserve"
   inkscape:version="0.48.2 r9819"
   sodipodi:docname="Cheshunt_FC.svg"><sodipodi:namedview
     pagecolor="#ffffff"
     bordercolor="#666666"
     borderopacity="1"
     objecttolerance="10"
     gridtolerance="10"
     guidetolerance="10"
     inkscape:pageopacity="0"
     inkscape:pageshadow="2"
     inkscape:window-width="1024"
     inkscape:window-height="718"
     id="namedview12"
     showgrid="false"
     fit-margin-top="0"
     fit-margin-left="0"
     fit-margin-right="0"
     fit-margin-bottom="0"
     inkscape:zoom="4.192749"
     inkscape:cx="81.50641"
     inkscape:cy="7.7793466"
     inkscape:window-x="-8"
     inkscape:window-y="-8"
     inkscape:window-maximized="1"
     inkscape:current-layer="svg2" /><metadata
     id="metadata8"><rdf:RDF><cc:Work
         rdf:about=""><dc:format>image/svg+xml</dc:format><dc:type
           rdf:resource="http://purl.org/dc/dcmitype/StillImage" /></cc:Work></rdf:RDF></metadata><defs
     id="defs6" /><g
     transform="matrix(0.15549961,0,0,-0.15549961,0,200.75)"
     id="g10"><g
       transform="scale(0.1,0.1)"
       id="g12"><path
         d="m 0,12910 1.60156,0 c -0.40234,-0.4 -1.203122,-1.2 -1.60156,-1.6 l 0,1.6 m 9603.6,-1082.8 10.1,4 7.6,-5.2 c -4.9,-2 -14.6,-6 -19.5,-7.9 l 1.8,9.1 m -7391,-818.5 c 7.8,-10.3 10.3,-23.2 7.4,-35.8 -16.3,-0.9 -20.1,28.5 -7.4,35.8 m 1306.2,-3010 c 4.6,-1.4 13.7,-4.1 18.3,-5.4 18.2,-5.9 24.5,-26.8 34.5,-41.3 42.4,-77.6 105,-141.3 168.1,-202.3 82.5,-80.2 185.3,-136.9 291.9,-178.5 28,-10.8 55.7,-22.8 80.6,-39.8 -85.9,-0.3 -167.9,36 -238.6,82.3 -89.4,54.3 -163.6,129.5 -233.1,206.7 -45.8,55.4 -94.6,110.8 -121.7,178.3 M 5611.9,6407.6 c 12.1,-0.3 24.4,-0.7 36.7,-1 -0.9,-68.2 0.1,-136.5 -1.2,-204.8 -11.6,0.1 -23.2,0.2 -34.8,0.1 -1.4,68.6 -0.2,137.2 -0.7,205.7 m 869.3,-2.3 c 12.3,0.1 24.8,0.2 37.3,0.2 -0.8,-71.2 0.3,-142.4 -1.1,-213.7 -11.7,0.2 -23.3,0.2 -34.8,0.2 -1.4,71.1 -0.2,142.2 -1.4,213.3 m -448.9,-492.4 c 12,0.2 24.2,0.2 36.3,0.2 -1.6,-73.4 0.5,-146.8 -1.6,-220.2 -11.4,0.2 -22.6,0.3 -33.8,0.3 -2.5,73.2 -0.9,146.5 -0.9,219.7 m -410.7,-446.1 c 12,0 24.2,-0.1 36.4,-0.4 -0.6,-71.4 1.2,-142.9 -0.8,-214.3 -11.5,0.1 -23,0.1 -34.4,0 -1.9,71.6 -0.2,143.2 -1.2,214.7 m 860.9,-10.9 c 11.8,-0.2 23.7,-0.5 35.7,-1 -0.5,-71.1 0.4,-142.2 -0.8,-213.3 -11.4,0.4 -22.8,0.6 -34.1,0.7 -2.7,71.2 -1.1,142.4 -0.8,213.6 m -450.8,-485.7 c 12.1,-0.5 24.3,-1 36.6,-1.4 -0.5,-65.6 0.4,-131.3 -1,-197 -11.3,0.2 -22.5,0.4 -33.6,0.5 -1.3,66 -0.7,132 -2,197.9 m -420.1,-434 c 12.1,-0.3 24.2,-0.6 36.4,-1 0,-67.8 0.5,-135.6 -0.5,-203.4 -11.7,0.1 -23.3,0.2 -34.8,0.1 -1.4,68.1 -0.7,136.3 -1.1,204.3 m 860.1,-21.6 c 12.2,0.1 24.4,0.1 36.7,0.1 -1,-70.8 0.7,-141.6 -1.3,-212.3 -11.5,0 -22.9,0 -34.2,-0.2 -1.8,70.8 -0.8,141.6 -1.2,212.4 m -450.2,-467.4 c 12.3,-0.4 24.6,-0.8 37.1,-1.2 -1.1,-67.9 -0.1,-135.9 -1.6,-203.9 -11.4,0.1 -22.8,0.1 -34.1,0.1 -1.7,68.3 -0.8,136.7 -1.4,205 m -419.3,-403.1 c 12,-0.6 24,-1.2 36.2,-1.8 -0.6,-66.9 0.2,-133.7 -1.1,-200.6 -11.5,0.4 -22.9,0.6 -34.2,0.6 -1.8,67.3 -0.9,134.6 -0.9,201.8 m 859.4,-34.9 c 12.1,-0.3 24.3,-0.4 36.6,-0.4 -0.2,-68.6 0.2,-137.2 -1.7,-205.9 -11.1,0.1 -22.2,0.1 -33.2,-0.1 -1.9,68.8 -1.1,137.6 -1.7,206.4 m -449.3,-443.1 c 12,-0.2 24.1,-0.5 36.2,-1 -0.7,-67.7 0.2,-135.5 -1.1,-203.3 -11.6,0.2 -23.2,0.3 -34.7,0.2 -2.3,68.1 0.9,136.1 -0.4,204.1 m -409.7,-392.6 c 11.9,-0.7 23.9,-1.7 35.9,-2.9 -1.2,-66.3 0,-132.6 -1.2,-198.9 -11.4,0.4 -22.8,0.7 -34.1,0.8 -2.4,67 -0.9,134.1 -0.6,201 m 848.9,-39.8 c 12.1,-0.2 24.3,-0.4 36.5,-0.8 -0.2,-66.9 0.9,-133.8 -1,-200.8 -11.5,0 -23,-0.1 -34.4,-0.4 -1.2,67.4 -0.6,134.7 -1.1,202 M 5634.7,547.801 c -19.3,2.5 -9.8,42.801 7.4,36.301 -0.3,-10.903 -1.2,-21.801 -2.8,-32.903 l -4.6,-3.398"
         inkscape:connector-curvature="0"
         id="path14"
         style="fill:#efa770;fill-opacity:1;fill-rule:nonzero;stroke:none" /><path
         d="m 5892,12868 c 25.3,13.2 44.6,49 77.1,38 134.5,-93.8 275,-178.3 417.8,-258.9 84.1,-38.5 162,-90.1 249.5,-121.4 78.3,-37.9 158.6,-72.5 242.1,-97.8 89.6,-40.1 181.8,-73.9 275,-105.1 203,-64.7 408.5,-121.5 618.6,-158.6 86.3,-7.4 171.3,-30.3 258.5,-26.2 25.3,2 50.3,-2.8 74.7,-9.5 54.1,-13.3 109.6,1.1 164.3,-4.5 56.8,-4.5 113.6,5.8 170.5,0.7 38.1,-4.2 76.6,1.3 113.5,11.5 36.7,11.1 75.5,2.5 112.9,8.8 47.6,11.7 97.3,10.4 144.3,25.3 79.3,2.8 153.6,32.9 230.7,47.9 102.6,24.1 203.5,56.3 298.9,101.2 111.5,45.2 222.3,92.8 325.8,154.5 58.6,38.7 119.2,73.9 178.6,111.3 69.4,54.5 142.1,104.7 214.9,154.6 17.2,12.8 44.6,39.7 63.4,14.5 31.4,-33.2 23.1,-81.9 31.9,-123.1 12.7,-49.8 3,-102 16,-151.9 -0.5,-43.1 14.8,-83.4 23.6,-125 46.4,-251.5 116.2,-499.3 215.1,-735 57.3,-164.5 150.5,-312.4 237.5,-462.1 36,-59.7 73.7,-118.4 116,-173.8 42.1,-69.2 107.7,-119.4 156.9,-183.3 43.1,-56.9 101.2,-98.6 151.5,-148.5 61.2,-53.3 129,-98.2 192.5,-148.5 10.5,-8 13,-18.2 7.3,-30.6 -37.2,-62.1 -86.2,-115.8 -135.3,-168.5 -136.1,-180.1 -251,-375.3 -353.7,-576.2 -23.3,-55.5 -46.6,-111.2 -76.7,-163.4 -77.2,-196.7 -152.1,-395.8 -197.7,-602.6 -25.1,-73 -31.8,-150.3 -47.8,-225.4 -9.8,-35.8 -9.4,-73.3 -17.7,-109.4 -12.2,-40.3 -0.7,-82.9 -10.3,-123.9 -18.8,-83.3 -12.6,-169.1 -17.2,-253.7 -5.7,-54.4 18.1,-107.1 11.5,-161.7 22.5,-199.4 46.9,-398.8 87.2,-595.6 34.7,-136.1 62.5,-274.3 113.3,-405.7 25.1,-112.4 67.5,-220.3 88.9,-333.6 14.5,-51.5 25.2,-104 40.9,-155.2 21.8,-124.7 51.4,-248 67.6,-373.7 23,-114.8 27.3,-232 43.2,-347.8 10.4,-42.2 -0.7,-86.4 10.4,-128.6 9.8,-41.7 4.4,-85 -0.4,-127 -10.4,-63.6 15.7,-126.3 9.7,-190 -9.1,-74.4 0.2,-150.2 -16.3,-223.9 -16.3,-66.9 1,-138.3 -23.4,-203.6 -7.8,-23.6 -3.9,-48.9 -7.5,-73.2 -29.3,-146.5 -60.4,-292.3 -104.3,-435.3 -31.2,-93.2 -55.9,-189.4 -102.5,-276.7 -120,-297.6 -287.9,-578.3 -507.8,-813.2 -36,-50.3 -87.3,-85.9 -130.6,-129.3 -209.4,-226.9 -465.3,-404.7 -730.3,-560.5 -30.6,-15.1 -56.1,-38.7 -86.9,-53.4 -69.4,-32.9 -133.3,-77 -206.7,-101.3 -56.9,-16.1 -103.9,-54.1 -160.5,-70.9 -40.4,-23.5 -85.1,-36.4 -128.8,-52 -95.1,-42.4 -192.7,-80.2 -293.6,-106.7 -85.3,-29.2 -170.4,-58.6 -257.6,-81.4 -94.6,-34.7 -195.3,-47.6 -290.6,-79.6 -83.6,-26.2 -170.5,-40.5 -256.9,-54.5 -100.6,-26.1 -203.4,-43.3 -306.1,-58.5 -97.3,-11.3 -194.6,-24.9 -288.6,-53.5 -107.9,-30 -217.7,-52.5 -323.9,-88.6 -43.3,-17.7 -85.1,-39.7 -131.2,-49.5 -93,-38.8 -179.4,-91.3 -265.5,-143.4 -28.8,-16.7 -54.1,-38.6 -80.9,-58.3 -26.8,-20.1 -58.8,-33.2 -81.6,-58.5 -33.3,-29.8 -60,-66.4 -96.1,-93.1 -96.1,116.3 -205,222.7 -332,305 -67.4,44.2 -135.5,88 -208.6,122.2 -92.5,54.3 -196.1,85.1 -295.2,124.7 -43.3,13.6 -87.6,23.7 -130,40 -83.6,22.3 -169,37.6 -254,53.4 -47.7,-3.4 -91.9,19.9 -139.3,17.2 -85.1,4.9 -168.6,23.7 -250.7,45.7 -111.9,16.3 -222.7,38.2 -331.8,67.4 -33.3,13.5 -70.5,12.1 -103.7,26.1 -67.9,27.7 -143.3,30.4 -210.3,60.6 -34.7,14.3 -72.2,19.5 -107.2,33 -70.2,27 -144.1,43.7 -211.7,77.3 -95.1,36.5 -190.1,73.8 -281.6,119 -60.3,18 -110.7,56.6 -167.9,81.2 -246,133.1 -489.1,275.8 -702.7,457.8 -57.5,38 -103.1,90.3 -151.9,138.2 -54.7,48.6 -100.5,106.8 -159.1,151.1 -114.8,130.2 -222.8,267.4 -314.8,415.1 -30.4,47.1 -49.9,100.3 -85.2,144.3 -49.8,99.1 -95.9,200 -137,303.1 -27.1,88.6 -70.5,172.3 -84.3,264.8 -51.4,139.4 -67.5,288.2 -98.5,432.7 -16.9,46.7 -2.2,97.3 -16.5,144.4 -15.8,46.7 -1,96.8 -14.5,143.9 -14.5,45.6 -1.2,93.5 -9,139.9 -9,43.3 5.4,86.6 0.3,130.1 -6.8,64 18.3,126.2 9.5,190.2 -11.9,67.1 11.4,133 7.1,200.2 18.6,106.1 27,213.9 45.1,320.1 3.7,51.2 8.9,102.5 23.4,151.9 12.2,34.7 6.8,71.9 15.4,107.2 29.2,103.3 42.8,210.5 73.3,313.4 2.1,53.9 28.7,101.9 37.3,154.4 31.1,74.7 42.2,155.7 69.4,231.7 75.6,198.1 113.1,408 139.9,617.6 13.1,57 10.1,115.9 17.7,173.6 9.2,73.3 3.3,147.6 17.6,220.1 -4.1,78.6 -5.5,157.5 -12.9,235.8 -23.6,73.5 -12.2,152.3 -32.9,226.4 -8.7,62.8 -25.8,124.2 -33.2,187.3 -37.4,156.6 -87,310.1 -135.4,463.7 -8.2,18.3 -19.9,35 -25.7,54.3 -35.4,114.5 -93.3,219.9 -141.2,329.3 -18.2,40.9 -47,76.2 -63.7,117.9 -12.1,28.9 -28,55.9 -46,81.5 -56.3,98.3 -116.8,194.6 -184.702,285.3 -46.296,81.4 -118.5,141.7 -178.296,212.2 -14.5,12.9 -18,41.2 0.796,51.7 62.602,46.8 117.204,103.3 180.102,149.7 91.2,79.4 167.4,173.7 245.8,265.3 87.2,103.1 151.6,222.3 222.3,336.6 44.7,82.6 84.9,167.6 126.1,252.1 32,87.4 61.1,175.8 98.5,261 21.8,65.9 39.5,133.1 63,198.4 45.2,197.9 97.1,395.8 113.2,598.5 17.3,51.8 0.3,109 26.8,158.6 20.3,-7.2 40.3,-15.6 57.9,-28.2 114.2,-80.5 227.6,-162.8 349.6,-231.1 98.9,-46.7 192.3,-104.8 294.6,-144 137.8,-63.9 284.7,-103.8 432.2,-137.9 78.1,-23.6 160.2,-26.2 239.1,-46.4 33.8,-9.6 69.5,-2.7 103.6,-10.7 86.5,-19.4 175.3,-2.7 262.8,-5.7 99.7,3.3 200.4,-6.6 299.4,7.4 40.5,16.8 83.5,11.3 126.1,13.1 71.1,19.7 145.7,23.5 216.9,43.7 76.4,21.2 156.2,28 230.2,57.7 73.7,17.5 147.2,37 218,64.4 162.2,56.9 323.2,118 478.6,191.7 46.3,13.5 83.7,45 127.9,63.2 79.2,34.8 151.5,82.7 228.1,122.5 56.9,41.4 123,67.6 179.2,110 54.4,31.4 108.4,63.2 157.6,102.5 m -188.1,-761.9 c -75.5,-42.7 -154.2,-79.2 -231.3,-118.9 -60.6,-36 -128.5,-56.8 -191.2,-88.6 -315.9,-135.1 -644.4,-245.5 -983.7,-303.5 -70.6,-21.3 -144.6,-24.5 -216.9,-36.6 -172.2,-27.1 -346.9,-33.1 -520.8,-26.7 -140.8,-2.9 -280,20.8 -419.2,37.3 -154.9,32 -311.8,58.5 -461.6,110.5 -144.1,41.9 -281.4,102.9 -418,163.9 -79.9,-278.3 -178.3,-553 -316.3,-808.3 -126.7,-234.8 -276.7,-458.1 -458.2,-654.3 237.3,-357.6 408.7,-756.7 521.9,-1170.1 18.1,-73.1 35.4,-146.5 54.6,-219.4 11.2,-74.9 28.7,-148.8 38.2,-224.1 82.8,-6.8 165.7,2.7 248.6,0.6 86.7,3 173.4,-5.5 260.1,-0.3 34.5,2.4 69,-2.2 103.6,-2.7 -47.4,-9.2 -95.7,-10.2 -143.7,-8.3 -162.6,-0.3 -325.1,0.7 -487.6,-0.2 8.3,-72.1 17.6,-144.2 21.1,-216.7 18.7,-182.6 6.3,-366.5 9.9,-549.7 3.7,-80.3 -10.4,-159.8 -12.4,-240 -16.5,-187.7 -41.3,-374.8 -78.9,-559.5 l -10.4,0 c -94,-280.8 -175.4,-566.1 -226.4,-858 -1.1,-27.9 -23.9,-65.9 -3.2,-88.4 -47.1,-122.3 -56,-254.8 -67.8,-384.1 -3.7,-60.3 -5.8,-122.9 15.6,-180.6 -3.7,1.4 -11.1,4 -14.8,5.3 -3.5,-206.2 -2,-413.1 29.8,-617.3 5.9,-71.1 24.9,-140.1 34.1,-210.7 30,-119.1 60.8,-238.2 103.5,-353.6 7.2,-12.3 6.4,-32.9 21.1,-39 36.9,-119.6 116.8,-219.5 169.9,-331.9 30.6,-60.1 76,-110.8 111.9,-167.6 38.4,-57.5 70.2,-119.6 114.6,-173 l 6.2,-0.3 c 68.6,-85.9 152.3,-158 232.7,-232.5 230,-197.3 490,-358.1 764.5,-485.8 138.2,-60 275.5,-123.3 418.6,-171 69.3,-19.9 136,-48.3 206.5,-64.5 202.5,-65.9 410.7,-111.3 617.9,-159.5 134.8,-32.3 274.1,-38.1 408.7,-71.6 54.6,-8.3 105.6,-31.6 160.6,-38 -7.3,350.5 -5.6,701.1 -5.7,1051.7 -1.4,131.5 3.3,263 -3.9,394.3 0.5,199.6 3.1,399.4 -1.4,598.9 0.3,112.2 3.8,224.5 -4.2,336.4 -2.6,198.4 2.1,396.8 -1.6,595.1 -5.2,-0.7 -15.5,-2.1 -20.7,-2.8 4.6,3 13.8,8.9 18.3,11.9 2.7,82 -3.4,164.1 3,245.9 5.4,59.1 -9.9,118.4 2,177.1 10.3,54.6 1.9,109.8 -9.4,163.4 5.6,56.4 0.4,113.1 1.6,169.7 -5.4,272.5 -4.8,545.3 -2.1,817.9 42.2,-9.4 85.6,-3.8 128.4,-4.4 533.3,-0.2 1066.7,0 1600,-0.1 39.6,1.1 80.8,-6.8 119,7.2 7.8,-39.7 5.6,-80.3 5.7,-120.5 -1,-83.4 5.4,-166.7 3.1,-250.1 6.2,-219.5 -2.1,-439.4 4.5,-658.9 1.7,-187.2 0.7,-374.5 0.4,-561.7 -1.2,-20.5 5.4,-41.6 24.6,-52 -10.3,3.1 -20.8,2.7 -31.5,-1.3 -4.3,-175.3 3.4,-350.9 -5.9,-526 1.9,-130.1 -1,-260.3 -0.1,-390.4 0.7,-12.2 -0.9,-27.1 10.9,-35.2 -14.4,-57.1 -5.9,-116.3 -7.5,-174.5 -1.3,-143.5 2.7,-287.1 -2.5,-430.5 l -8.6,4.2 c -6,-107.8 2,-215.9 -4.9,-323.7 -6.1,-99.9 1.2,-200.1 -6.7,-299.9 -2.7,-136.5 4.1,-273.3 -5.6,-409.7 1.4,-140.1 -5.8,-279.9 -4.7,-419.9 76.7,16.2 152.5,37.7 230.7,46.3 223.4,30.9 445.4,72.8 663.9,128.6 214.4,59.4 428,123.1 635.9,202.6 212.6,83.2 420.5,178.9 618.9,292.1 148,93 298.3,184.4 428.9,301.7 88.5,63.5 160.2,146.2 241.4,218.2 10,8.1 15.7,19.7 21.4,30.9 68.6,54.6 93.6,144.1 143.3,213.8 61.7,84 100.5,182.5 166.9,263.3 48.3,56.6 77.6,125.9 107.3,193.3 29.4,39.2 39.4,89.2 57.5,134 84.6,226.5 125.1,466.5 148.4,706.4 5.7,119.4 18.5,239.5 7.1,358.9 -6,89.9 -11.1,180 -24.7,269.2 -10.3,55.6 -1.7,112.6 -12.7,168.2 -9.2,47.1 -1.4,96.6 -17.1,142.5 -55.1,329.6 -142.6,653.2 -246.6,970.5 4.2,45.1 -12.2,88.3 -19.9,132 -43.7,216 -70,435.3 -87.3,654.9 -8.1,77.1 -6.6,154.8 -16.2,231.8 -2,203.3 0.4,406.6 -0.9,609.8 -4.6,0.6 -13.8,1.6 -18.4,2.1 23.6,43.3 21.1,94.1 31,141.1 58.6,328.2 160.4,648 296.1,952.3 78.3,180.9 173,354.8 280.6,519.8 5.7,10.4 11,21.4 12.4,33.4 -22.8,33.1 -51.7,61.4 -77.9,91.6 -100.2,111.9 -189.3,233.4 -269.2,360.4 -67.1,96.8 -117.7,203.4 -175.4,305.8 -58.2,118.8 -111.3,240.1 -159.9,363 l 5,7.6 -4.1,9.9 -8.9,1.9 c -2.9,29 -18.5,54.8 -27.2,82.2 -27.6,88.1 -58.1,175.1 -82.7,264 -47.4,-14.5 -92.5,-36 -136.5,-58.6 l -7.6,5.2 -10.1,-4 -1.8,-9.1 c -495.2,-216.1 -1046,-299 -1583.4,-248.9 -228.2,14.1 -453.6,56.8 -674.7,112.6 -144.9,30.5 -283.2,84.1 -424.3,127.8 -120.2,44.5 -239.2,92.5 -357.4,142 -148.5,70.1 -298.2,138.1 -440.7,219.8 -50.4,28.7 -99.8,59.3 -150.5,87.1 -90.9,-47 -176.3,-104.5 -266.9,-152.4 m -103.1,-5308 c -14.7,-56.2 -37.8,-109.6 -52.9,-165.7 -21.1,-73.8 -57.1,-144 -62.9,-221.6 42.3,1.2 84.6,-0.5 126.9,-3.2 0.5,-68.5 -0.7,-137.1 0.7,-205.7 11.6,0.1 23.2,0 34.8,-0.1 1.3,68.3 0.3,136.6 1.2,204.8 43.8,-1.8 87.8,-2.1 131.3,4.9 -47.2,163 -91.3,327 -138.3,490.1 -22.3,-30.5 -30.3,-68 -40.8,-103.5 m 896.2,97.7 c -33.7,-110.6 -63.5,-222.4 -100.8,-331.9 -15.7,-52 -38.1,-102.7 -42.4,-157.5 42.4,-1.3 84.9,-0.8 127.4,-1.1 1.2,-71.1 0,-142.2 1.4,-213.3 11.5,0 23.1,0 34.8,-0.2 1.4,71.3 0.3,142.5 1.1,213.7 40.2,0.4 80.5,0.5 120.7,-0.4 -1.6,56.7 -21.3,110.4 -34.1,165.1 -34,107.8 -62.9,217.2 -92,326.4 -4,-0.2 -12,-0.6 -16.1,-0.8 M 6054.3,6395 c -39.1,-120.8 -78.4,-241.7 -116.1,-363 -10.9,-38.5 -28.1,-75.7 -30.5,-116.2 41.5,-2.4 83,-3.9 124.6,-2.9 0,-73.2 -1.6,-146.5 0.9,-219.7 11.2,0 22.4,-0.1 33.8,-0.3 2.1,73.4 0,146.8 1.6,220.2 43.6,0.4 87.3,-1.3 130.9,-0.3 -42.3,161.6 -86.9,322.6 -133.7,483 -2.9,-0.2 -8.6,-0.6 -11.5,-0.8 m -458.5,-580 c -17.5,-55.1 -38.8,-108.9 -53.3,-164.9 -16.9,-60.7 -45.6,-118.1 -52.6,-181.4 43.8,-3.5 87.7,-1.6 131.7,-1.9 1,-71.5 -0.7,-143.1 1.2,-214.7 11.4,0.1 22.9,0.1 34.4,0 2,71.4 0.2,142.9 0.8,214.3 40.7,-0.5 81.4,-1.2 122.1,1.4 -3.9,28.3 -9.4,56.3 -17.8,83.6 -39.8,132.9 -75.6,267 -115.8,399.9 -24.9,-42.2 -33,-91.2 -50.7,-136.3 m 895.7,82.8 c -49.2,-143.3 -90.8,-289 -139.2,-432.6 41.7,-15.7 86.7,-7.4 130.2,-9.3 -0.3,-71.2 -1.9,-142.4 0.8,-213.6 11.3,-0.1 22.7,-0.3 34.1,-0.7 1.2,71.1 0.3,142.2 0.8,213.3 43.3,-1.6 86.9,-2.2 130.1,3.8 -43.2,161.2 -85.3,322.8 -133.7,482.6 -9.8,-13.3 -18.2,-27.6 -23.1,-43.5 m -427.9,-445.2 c -32.1,-65.3 -45.5,-137.5 -72.2,-204.9 -19.2,-46.6 -27.6,-96.6 -44.5,-144 -14.5,-42.5 -34.6,-83.9 -37.1,-129.4 40.6,-2.4 81.3,-1.6 121.9,-4.1 1.3,-65.9 0.7,-131.9 2,-197.9 11.1,-0.1 22.3,-0.3 33.6,-0.5 1.4,65.7 0.5,131.4 1,197 43.7,-0.3 87.6,-0.1 131.2,3.9 -17.6,102.7 -56.6,200.1 -78.2,302 -21.7,58.6 -32.6,120.7 -57.7,177.9 m -434,-460.9 c -38.1,-112.4 -75.3,-225.1 -113.6,-337.5 -11.7,-37.9 -28.8,-75.9 -25,-116.6 40.2,1.1 80.4,1.1 120.6,-1.4 0.4,-68 -0.3,-136.2 1.1,-204.3 11.5,0.1 23.1,0 34.8,-0.1 1,67.8 0.5,135.6 0.5,203.4 42.2,-0.3 84.4,-2.9 126.6,-3.7 -13.2,81.7 -44.3,158.9 -64.9,238.7 -19.4,76.6 -43.6,152 -66.5,227.6 -3.4,-1.5 -10.2,-4.6 -13.6,-6.1 m 864.5,-14.1 c -45.9,-124 -81.7,-251.4 -125.9,-376 -10.3,-27.7 -19.7,-56.2 -20.7,-86.2 41.4,0.1 82.8,-0.2 124.2,-0.8 0.4,-70.8 -0.6,-141.6 1.2,-212.4 11.3,0.2 22.7,0.2 34.2,0.2 2,70.7 0.3,141.5 1.3,212.3 41.3,0.7 82.5,-2.3 123.9,-1.4 0.3,54.3 -26.1,103.3 -36.7,155.5 -23.9,103.8 -60.6,204.1 -83.4,308.1 -4.5,0.2 -13.5,0.5 -18.1,0.7 m -441.2,-455 c -39.3,-110.2 -76.3,-221.4 -112.6,-332.7 -15.2,-44.5 -37.4,-87.5 -39.7,-135.4 40.3,-2.7 80.6,-5.2 120.9,-7.3 0.6,-68.3 -0.3,-136.7 1.4,-205 11.3,0 22.7,0 34.1,-0.1 1.5,68 0.5,136 1.6,203.9 42.5,-0.6 85.1,-2.9 127.7,-1.2 -19.4,106 -54.5,208.3 -82,312.3 -18.7,54.7 -26.1,113.3 -51.4,165.5 m -442.2,-472.3 c -19.2,-60.8 -43.1,-120 -60.8,-181.2 -22.5,-73.7 -55.6,-144.3 -68.2,-220.7 40.2,1.6 80.4,-1.2 120.5,-4.3 0,-67.2 -0.9,-134.5 0.9,-201.8 11.3,0 22.7,-0.2 34.2,-0.6 1.3,66.9 0.5,133.7 1.1,200.6 42.5,-1.9 85.2,-0.9 127.8,-1 -31.5,152.6 -86.3,299.1 -124.5,449.9 -14.1,-10.4 -26.6,-23.3 -31,-40.9 m 873.1,23.9 c -30.4,-91.6 -61.7,-183.1 -92.7,-274.6 -21.3,-61.1 -46.2,-121.4 -59,-185.2 43.1,-2.7 86.3,-2.2 129.5,-5.2 0.6,-68.8 -0.2,-137.6 1.7,-206.4 11,0.2 22.1,0.2 33.2,0.1 1.9,68.7 1.5,137.3 1.7,205.9 40.5,1.7 81,3 121.5,4 -10.2,61.2 -30.8,119.8 -46.5,179.6 -23.4,94.8 -51.5,188.4 -78.6,282.1 -2.7,-0.1 -8.1,-0.3 -10.8,-0.3 m -447.1,-457.9 c -42,-149.4 -110.6,-290.4 -146.8,-441.5 40.7,-3.8 81.4,-7.9 122.4,-8.7 1.3,-68 -1.9,-136 0.4,-204.1 11.5,0.1 23.1,0 34.7,-0.2 1.3,67.8 0.4,135.6 1.1,203.3 42.2,-1.4 84.6,-3.9 126.8,-0.9 -15.1,81.6 -44.9,159.5 -62.9,240.5 -18.7,70.9 -44.7,139.9 -58.6,212.2 -4.3,-0.2 -12.8,-0.5 -17.1,-0.6 m -474.2,-578 c -27.5,-86.6 -67.3,-170 -81,-260.4 40.4,-0.6 80.8,-1.5 121.1,-4.4 -0.3,-66.9 -1.8,-134 0.6,-201 11.3,-0.1 22.7,-0.4 34.1,-0.8 1.2,66.3 0,132.6 1.2,198.9 41.9,-4.9 84.1,-4.7 126.2,-2.5 -3.6,32.2 -11.7,63.6 -21.8,94.1 -36.1,122.5 -67.6,246.4 -108.3,367.5 -33.5,-59.8 -47,-128 -72.1,-191.4 m 918.3,154.4 c -45.5,-106.2 -78.4,-217.2 -118,-325.7 -16.7,-42 -34.2,-85.2 -34.9,-131.2 41.2,0.4 82.4,-0.8 123.6,-2.1 0.5,-67.3 -0.1,-134.6 1.1,-202 11.4,0.3 22.9,0.4 34.4,0.4 1.9,67 0.8,133.9 1,200.8 40.6,-1.1 81.4,-2 122,0.4 -7.9,45.3 -20.3,89.6 -33.6,133.5 -36.1,107.4 -52.6,220.7 -95.6,325.9 m 2327.1,8220.1 c 10.3,7.8 24.6,13.5 32,-1.2 56.9,-75.3 99.9,-159.9 153.6,-237.4 79.1,-115.3 149.5,-236.2 228.7,-351.5 17.7,-23.7 32,-64.2 68.8,-57.6 98.8,31 180.3,99.2 253.7,170.1 108.2,103.7 185.5,234.4 249.6,368.7 15.7,-32.6 25.5,-68 30.2,-103.9 0.2,-74.6 5.3,-149.8 -13,-223 -7.2,-59.3 -49.4,-109.4 -46.4,-170.4 34.8,-1.4 70.7,0.2 103.3,14.2 37.3,13.6 66.9,41.3 103.5,56.4 4.5,-84.3 -20,-167.2 -42.9,-247.5 -83.7,-297.4 -248.8,-566.3 -450.6,-798.2 -28.4,-32.8 -56.9,-65.6 -89,-94.9 -78.9,66.4 -133.7,156.6 -211.3,224.5 -3.9,-0.5 -11.6,-1.5 -15.5,-2 -53.6,-32.6 -102.3,-72.9 -155.5,-106.2 -459.6,-291.6 -958.4,-521.8 -1479.2,-680.1 -514.2,-152.5 -1051.2,-231.9 -1587.8,-221.7 -825.9,16.1 -1638.6,241.9 -2380.7,598.2 -252.6,125.7 -501.7,260.5 -732.6,423.2 -71.3,-71.8 -128.3,-156.4 -197.5,-230.2 -57.8,40.7 -99.6,98.6 -147.5,149.7 -178.8,211.6 -314.6,460.5 -390.3,727.4 -18.7,84.6 -46.7,168.5 -45.5,256.2 78.5,-46.8 154.4,-107.4 248.6,-117.2 -25.8,70.8 -73.4,137.1 -74.6,214.5 2.9,12.6 0.4,25.5 -7.4,35.8 -31.6,84.1 -22.8,177.7 -16.2,265.8 28.5,-32.4 44.7,-73.1 69.9,-107.8 115.7,-173.3 269.5,-328.7 462.1,-414.1 111.7,164.6 223.3,329.3 335.1,493.8 36.1,48.6 64.8,102.7 106,147.4 202,-185.9 430.2,-341.7 670.2,-474.3 410.3,-226.9 862.7,-371.8 1324.3,-448.3 98.8,-9 196.3,-30.3 295.8,-32.3 166.2,-17.7 333.6,-16.6 500.5,-15.7 113.6,3.9 226.6,16.4 339.9,24.8 565.2,60.6 1117.9,220.4 1634.1,457.1 305.7,142.2 601.1,308.8 873.6,507.7 M 8497,10793.1 c -101.3,-48.7 -201,-100.5 -301.6,-150.4 -44,-22 -89.6,-41.3 -130.7,-68.2 -3.2,-44.6 34.4,-81.6 42.4,-125.1 13.3,-1.2 27.8,-5.7 40.4,1.3 52.7,24.9 103.9,52.7 156.4,77.8 11.4,7.4 29.8,9.1 35.6,-6.6 52.6,-113 104.2,-226.8 151.4,-342.3 42.3,-78.3 70.1,-163.2 111.6,-242.1 53.1,15.7 101.2,43.8 150.8,67.8 -3.1,15.2 -6.4,30.4 -12.2,44.7 -72.4,164.3 -145.9,328.1 -218.2,492.4 -10.4,25 -24.8,49.2 -28,76.5 55.5,35 116.4,60.4 175.1,89.4 12.5,6.4 32.3,14.5 24.5,32.6 -10.8,41.9 -32.7,79.9 -49.1,119.7 -52.3,-16 -99.2,-44.4 -148.4,-67.5 M 3382.2,10760 c -111.8,-32.3 -195.6,-124.8 -246.6,-226.2 -50.2,-97.5 -62,-212.3 -38.9,-319 42.5,-169.5 210.4,-293.7 383.5,-294.7 110.7,4.3 211.1,74.6 263.5,170.6 -44.1,33.4 -94.7,56.5 -143.1,82.8 -35.4,-40.1 -73.9,-87.1 -130.6,-93.8 -60.2,-12.8 -118.1,20.2 -161.5,58.9 -56.4,58.3 -73.6,146.7 -51.1,223.7 26,90.7 72.7,184.1 157.8,232.2 88,55.8 214.6,10.2 259.8,-80.2 26.2,-42.1 21.5,-93.2 26.5,-140.4 47.6,-22.6 89.5,-60.9 143.7,-66.3 17.5,64.3 23.8,134.4 2.5,198.6 -55.3,189.4 -276.4,309 -465.5,253.8 M 7866,10497.8 c 17.2,-81.4 52.2,-157.3 75.4,-237 27.5,-89.4 65.8,-176 82.6,-268.4 -49.5,25.5 -86.6,67.9 -129.9,101.7 -110.7,89.5 -219.1,181.9 -329.2,272.1 -21.9,22.1 -51.5,1.7 -75.1,-5.9 -31.8,-15.7 -71.2,-18.6 -96.7,-45 -2.5,-21 5.9,-41.2 12.3,-60.8 31.2,-83.4 60.9,-167.4 87.1,-252.6 55.3,-150.4 98,-305.5 158.8,-453.9 50.6,13.2 101.8,28.9 147,55.6 -49,167.6 -115.7,330.3 -163.6,498.6 60.8,-27.6 106.3,-78.8 158.3,-119.3 75.2,-57.7 143.5,-123.5 218.3,-181.7 34.9,-24.5 63.4,-59.2 101.2,-78.8 55.5,5.5 104.9,37.7 158.6,52.6 -2.9,21 -6.9,41.9 -14.3,61.8 -82.6,237.5 -157.5,477.6 -242.8,713.9 -53.2,-4.4 -99.7,-32.8 -148,-52.9 m -3854.1,15.8 c -87.1,-228 -161.2,-460.8 -246.1,-689.7 -8.8,-22.6 -12.9,-46.6 -16.6,-70.4 49.8,-25.1 102.2,-44.7 154.7,-63.2 38.9,106.9 77.5,213.9 111.8,322.3 46.6,-5.7 87.4,-30.1 131.1,-45.1 57.3,-19.4 111.7,-46.1 168.2,-67.8 -26.1,-100.4 -67.7,-195.8 -100.2,-294.2 -3.8,-14.1 -11.1,-36.5 7.9,-43.3 46,-20.9 93.1,-40.6 142.1,-53.5 38.8,95.4 65.8,195.2 104.9,290.5 45.2,134.3 95.3,266.8 141.2,400.8 6.5,21.6 18.6,42.9 17.3,65.9 -49.1,26.9 -102.8,45.6 -155.7,63.7 -40.3,-93.1 -63.2,-192.7 -104.7,-285.3 -85.1,24.9 -164.7,64.6 -247.8,94.8 -15.2,6.7 -32.6,10.2 -45.1,21.6 22.7,99.2 69.8,191 95.1,289.5 -51.2,24.5 -104.2,45.5 -158.1,63.4 m 3125.3,-266 c 17.2,-128.8 54.5,-253.8 80.7,-380.9 14.3,-71.5 41.2,-142.4 34.7,-216.4 -5,-55.1 -54.8,-93.5 -104.6,-107.9 -48.2,-12.8 -104.7,-23.7 -149.2,5.8 -45.1,26.4 -61.1,79.4 -74.1,126.6 -35.1,162.1 -75,323.2 -110.8,485.2 -56.9,-0.2 -110,-22.5 -164.9,-34.3 0.8,-71.1 28.7,-137.6 40.7,-206.9 17.2,-70.1 29.8,-141.2 48.6,-210.9 20.6,-87.1 36.1,-182.3 99,-250.6 70.1,-81.4 190.3,-95.8 290.1,-73.5 108.4,14.8 216.7,72 270.1,170.7 35.2,62.5 31.6,137.4 23,206.1 -38.9,175.9 -81.1,351.1 -118.8,527.2 -56.1,-7.9 -109.4,-28 -164.5,-40.2 m -2430.5,-7.5 c -26.7,-113.4 -47.8,-228 -75.5,-341.2 -28.9,-148.8 -67.1,-295.7 -92.7,-445.2 43.4,-11.8 86.1,-26.5 130.5,-34.3 149,-35.6 296.4,-77.7 446.1,-110.7 13.4,48.1 24.7,97.2 25.4,147.4 -134.3,31.4 -266.9,69.6 -401.4,100.4 9.1,65.8 23.2,130.9 41.1,194.9 123.2,-30.7 245.7,-64.6 370,-90.5 10.7,43.2 16.3,87.5 26.9,130.7 -120.1,38.5 -244.9,61.3 -365.4,98.1 2,55.9 23.9,108.8 30.5,164.2 85.5,-13 167.6,-41.3 252,-59.7 50.2,-12.9 100,-29.8 151.9,-34 15.2,46.1 32.6,95.5 25.6,144.6 -169.8,42.9 -340,83.4 -509.3,128.1 -18.2,5.2 -37,6.6 -55.7,7.2 M 6412,10094.5 c -3.7,-104.8 20.3,-208.2 18.2,-313 -101.9,-15.4 -205,-19.6 -306.9,-33.3 -26.7,101.2 -19.3,207.8 -38.2,310.4 -55.1,2.1 -109.7,-7.4 -164.4,-12.8 0,-144.2 24.4,-287 35,-430.6 7.3,-126.6 28.5,-251.9 37.3,-378.4 55.1,-3.9 109.9,5.4 164.9,8.5 2.6,24.8 4,49.9 1.5,74.8 -12,91.9 -19,184.4 -28.4,276.5 105.2,11.6 210.7,24.9 316.6,27.1 10.4,-114.7 25,-228.8 35.6,-343.5 55.9,-0.1 111.3,8.8 167,14.2 4.7,37 -2.8,74 -6,110.8 -15.6,134.8 -22.6,270.2 -37.3,405.1 -10.1,99.6 -13.8,200 -30.1,298.9 -55.2,-2.1 -109.7,-12.1 -164.8,-14.7 m -946.1,-10.5 c -90.4,-17.4 -176.1,-88.8 -187.7,-183.7 -14.1,-68.8 2,-147.9 57.2,-195 88.9,-82.4 214.9,-96 318.8,-151.3 30.9,-16.6 63.4,-45.3 59.7,-84.1 2,-54.8 -54.3,-90.5 -103.8,-93.4 -65.4,-4.3 -140.3,5.7 -186.6,56.9 -27,28.5 -30,68.9 -35.1,105.7 -53.4,8.6 -107.5,14.2 -161.6,12.9 -1.8,-48.4 -4,-100.1 21.3,-143.5 45.2,-97.3 150.4,-149.2 251.9,-165.5 88.4,-10.7 183.7,-11.3 264,32.7 88.4,48.4 134,157 116.9,254.7 -12.5,71.7 -65.4,130.5 -128.3,163.8 -90,42.9 -190,62.5 -277.1,111.7 -53.2,28.5 -39.8,114.6 13.2,135.8 60.1,23.6 135.4,13.9 186.3,-26.6 28.8,-21.7 34.7,-59.7 41.8,-92.8 53.7,-10.9 108.8,-14.6 163.6,-15.9 8,90.1 -35.6,184 -114,230.6 -88.9,55 -199.3,66 -300.5,47 M 422.398,2383 c -8.097,35.4 -13.898,71.9 -9,108.2 82.403,-66 174.602,-117.5 262.5,-175.5 172.602,-107.1 345.702,-215 530.602,-299.9 78.6,-30.6 154.5,-68.2 234.5,-95.3 69.4,-20.1 135.5,-51.8 207.4,-62.9 40.9,-9.1 82.7,-3.7 124,-1.9 1.6,6 4.8,18.2 6.4,24.3 -37.4,41.9 -87.3,78.9 -99.4,136.9 59.5,21.3 125.5,12.3 185.6,-2.6 59.7,-17.1 121,-28.5 179.3,-50.5 319.6,-112.7 638.4,-228.9 963.9,-323.7 78.5,-14.2 151.7,-48.3 230.5,-61.1 76.3,-13.4 149,-42.1 225.8,-53.2 129.6,-27.3 259.8,-52.3 389.3,-79.9 100.2,-9 198,-34.8 297.9,-46.1 81.9,-5.1 161.5,-25.6 243,-33.6 103.1,-26.2 209.8,-24.9 315.1,-34.1 53.2,2.6 105.6,-12.3 158.9,-6.9 41.2,5.1 79.4,-18.3 120.8,-11.9 53.9,6.8 106.7,-9.5 160.5,-8.2 50.5,-2.2 102.2,9.6 151.5,-6.5 85.1,-23.6 176,2.9 260.1,-24.9 65.4,-8.4 131.8,-4.8 197.6,-9.7 187.1,-12.2 374.3,-24.6 561.4,-37.5 36.9,-3.4 72.5,11.7 109.4,7.7 75.8,-6.2 152.1,-15.6 228.2,-11.7 86.4,19.3 174.8,-5.1 261.8,9.1 117.5,-2.8 232.2,25.7 349.3,26.3 76.8,18.5 156.5,15.4 234.2,28 27.4,8.9 56.2,8.5 84.5,11.3 46.7,12.5 94.4,20.8 142.1,28.6 49.8,5.3 96.9,23.7 146.5,30.5 65,15.3 131.5,22.2 196.3,38.6 86.4,10.1 169.3,37.8 255.5,48.7 66.9,10.3 131.5,31.9 198.7,40.7 166.8,43.2 336.1,76.7 501.6,125.4 5.8,1.6 17.4,4.9 23.2,6.5 75.5,20.3 150.1,43.6 225.2,65.5 49.9,23.7 105.2,29.9 158.3,42.8 63.4,24.4 126,52.9 193,66.7 124.9,33.4 242.3,90.3 368.4,119.8 89.3,24.3 177.5,66.7 272.4,56.4 24.5,2.3 40.4,-18.1 55.4,-34.2 -32.7,-44.8 -85.7,-77.1 -99,-134 49.6,-9.2 102.1,-12.4 151,2.4 113.7,27.3 230.8,46 338.2,94.1 207.2,59.7 401.2,154.5 597.3,242.3 82.1,44.7 170.4,77.8 247.4,131.5 25.9,11.7 53.4,38.8 83.6,24.9 30.6,-24.4 26.8,-67.7 22.6,-102.5 -16.7,-96.7 -50.8,-189.3 -88,-279.8 -23.4,-51.6 -56,-98.5 -78.5,-150.7 -44.1,-71.9 -105.4,-134 -136.7,-213.4 75.5,-11.8 151.8,-1 227.7,-1.5 30.4,0.7 59,13.5 89.5,14.3 59.6,1.2 117.6,18.4 177.6,14.4 87.3,14.8 176.3,19.3 262.9,38.5 16.1,-1.8 23,-21.8 34.2,-32.2 -64.6,-86.6 -137.1,-166.3 -211.6,-244.2 -46.7,-43.4 -87.1,-94.4 -142.1,-127.9 -43.1,-25.8 -73.6,-66.9 -115.7,-93.9 -84.1,-59.7 -167.1,-120.898 -254.7,-175.301 -73,-48.801 -151.8,-87.801 -225.7,-134.898 -60.9,-29.102 -128.1,-42.199 -188.7,-72.102 -89.1,-45.301 -187.6,-65.398 -281.5,-97.801 C 10593,593.5 10450,554.602 10303.3,537 c -31.2,-3.5 -66.2,-16.102 -95.5,0.199 -56.1,39.301 -65.6,110.903 -91.3,169 -10.2,29.602 -45.4,24.903 -68.8,16.801 C 9885.5,654.898 9720.1,595.199 9555,534.699 9431.2,491.398 9302.5,464.898 9178.5,422.602 9031.4,387.699 8884.7,351.398 8738.2,314 c -72.8,-8.602 -141.4,-34.801 -212.7,-49.602 -42.7,-12.097 -87.2,-16 -129.5,-29.296 -107.6,-31 -217.1,-53.903 -327.4,-72.704 C 7944.9,141.602 7822.3,114.5 7698,97.5 7605.8,81.3008 7512.3,75.3984 7419.7,61 7286.2,56.6992 7154.5,30.5 7021.1,27.6016 6961.4,14.3008 6899.6,18.8984 6839.7,6.60156 6758.6,-8.39844 6673.1,31.6992 6594.5,0 l -8.4,0 c -27.8,9 -57.1,10.6016 -86,11.8008 -117,0 -233.8,8.5976 -350.6,15.1992 -139.9,-1 -279.8,10.8008 -419.6,2.1992 C 5605.2,27 5480.8,15.6016 5356.2,12.1016 5294.1,20.1016 5232,9 5169.9,10.5 5098.8,14.8984 5027.5,8 4956.8,17 4897.4,8 4838.4,24.3984 4779.1,16.3984 4748.4,11 4719.6,26.1016 4689.3,26.1992 4562,25.6016 4435.9,44.5 4309.8,59.1016 4193.5,66 4079.5,90.8984 3964.2,106.699 c -95.6,22 -193.5,32.699 -288.3,58.301 -48.9,14.102 -100.9,14.398 -148.7,32.801 -46,17.898 -95.7,20.898 -142.2,36.898 -62.4,20.699 -127.2,32.403 -190.1,51.199 -78.1,17.903 -152.2,49.5 -229.9,69.102 -116.2,30.699 -225.6,80.602 -338.1,121.898 -192.6,74.301 -377.8,165.204 -562.4,256.801 -41.1,24.102 -82.9,47.403 -127.6,64.102 -13,4.398 -26.9,0.801 -39.6,-3.102 -29.9,-51.199 -38.1,-113.5 -75.5,-160.301 -95.7,1.301 -184.3,40.903 -272,74.903 -72.9,24.097 -141.5,58.699 -212.8,86.898 -83.4,48.801 -175.2,81.5 -257.1,133.301 -77,41.398 -148.201,92.3 -223.298,136.8 C 792.199,1108 732,1155.7 667,1196.5 587.898,1257.1 511.301,1321 433.398,1383.2 344.699,1454.2 271,1541 189.602,1619.7 119.5,1686.6 62.8008,1765.6 2.60156,1841.1 12,1850.1 21,1859.3 31.6016,1866.6 c 65.2968,-4.7 128.0974,-24.8 192.8984,-33.3 49.102,-17.9 102,-19.5 151.602,-35.6 38.898,-11.1 81.5,-5.4 118.5,-23.8 45.898,-19.6 97,-15 144.898,-25.9 29.301,-3.9 59.602,-16.2 88.801,-5.9 7.097,11.8 5.801,22.3 -3.602,31.5 -98,119.4 -178.597,253.2 -233.898,397.6 -32.301,67.2 -50.699,139.7 -68.403,211.8 M 9770.4,1559 c -111.2,-40.2 -221.1,-83.8 -332.2,-123.6 -6.6,-39.3 16.6,-74.4 26.5,-111.1 35,-93.6 63.3,-189.4 97.1,-283.4 28.5,-95.099 68,-186.599 92.8,-282.701 83.3,13.801 157.9,56 238.6,79.102 90.7,35.801 196.6,59.097 257.2,142.597 73.5,87.102 44.5,231.002 -48.7,292.002 -29.4,13.5 -61.6,18.4 -92.5,26.4 9.4,14.6 19.3,29 27,44.6 45.2,83.6 -3.2,199.9 -91.9,231.5 -58,18.1 -117.7,0.4 -173.9,-15.4 m -7591.5,21.2 c -11.5,-29.5 -19.4,-60.2 -27.9,-90.8 -54.1,-196.1 -110.4,-391.7 -163.2,-588.201 50.4,-21 101.9,-39.097 152.7,-59 29.8,88.699 48.7,180.601 76.2,270.001 99,-25.5 191.4,-72.4 291.3,-94.7 11.8,39.9 26.5,79.8 27.5,121.8 -93.7,31.3 -186.6,64.6 -280.4,95.4 7.6,55.7 25.1,109.5 44.2,162.1 111.8,-36 221.9,-78.4 335.7,-107.7 12.3,44.3 25.8,88.5 32.6,134 -161.8,55.6 -325.6,105.3 -488.7,157.1 m 7012.5,-208.4 c 28.9,-152.1 79.5,-299 113.1,-449.999 10.7,-44.903 11,-96.801 -26,-130.403 -61.7,-49.097 -163.6,-68 -225.2,-8.296 -38.4,55 -46.4,124.097 -63.7,187.5 -33.3,105.398 -52.1,214.798 -85.8,320.098 -56.5,-3.2 -110.2,-23.5 -163.6,-40.7 32.3,-132.9 71.4,-264 102.9,-397.102 18.1,-84.097 55,-171.898 132.6,-217.199 78.5,-42.699 172,-38.398 256.6,-18.398 75.4,21.199 152.5,55.5 199.9,120.898 47,60.301 56.3,142.199 39.6,215.199 -27,115.502 -58.9,229.802 -85,345.502 -9.4,38.4 -18.6,77.5 -37.9,112.3 -52.1,-14.7 -105.1,-26.2 -157.5,-39.4 M 2904.3,1355.6 C 2752.4,1337.8 2641.5,1203 2608.7,1060.4 2587.5,967.699 2586.8,866 2628.9,778.801 2698.4,624.801 2883.2,540 3046.4,572 c 76.8,18.199 145.6,66.602 189.9,131.699 81.6,118.699 107.7,275.699 63.1,413.101 -47.7,164.4 -230.4,263 -395.1,238.8 m 750,-160.9 C 3521.8,1174 3419.4,1064.3 3379.8,940.301 3338.4,823.301 3338,688.102 3397,576.898 3471.8,421.801 3672.4,355 3831.4,408 c 97.5,34.898 169,119.898 206.6,214.102 36.5,96 45.9,202.5 25.8,303.199 -23.4,113.299 -106.8,214.399 -217.2,251.799 -61.5,19.8 -128.2,30.7 -192.3,17.6 m 4544.5,-65 c 2.4,-18.6 4.8,-37.4 7.8,-56.2 42.7,-211.602 84.8,-423.398 125.4,-635.5 66.8,0.5 129.5,27.801 195,38 104,25.301 210.2,40.801 314.2,66.199 -6,43.403 -16.6,86 -23.8,129.102 -103.5,-17.199 -206.5,-36.699 -308.5,-61 -15.3,-1.699 -43.6,-11.199 -45.6,12.5 -34.1,180.5 -70.7,360.5 -104.8,540.999 -54.7,-3.9 -106.7,-21.6 -159.7,-34.1 M 4142.3,1110 c -2.3,-45.9 -10.5,-91.4 -12.8,-137.398 70,-13.5 141.7,-16.102 211.4,-31.801 -19.9,-207.301 -49.2,-413.602 -72.4,-620.602 52.2,-10.301 105.1,-18.5 158.4,-20.801 19.1,106.204 22.2,214.301 41.1,320.5 9.9,100.403 24.8,200.204 35.2,300.5 70.9,-5.898 141.6,-14.898 212.8,-18.199 7.6,47.403 16,94.699 17.9,142.601 -198.9,5.8 -393,58 -591.6,65.2 M 7568.7,901.398 c -90.6,-161.699 -67.7,-391.898 80,-512.796 67.6,-60 163.5,-78.5 251.3,-66.102 81.4,12.398 162.7,46.699 216.6,111 57.8,66 85.6,156.199 77.6,243.199 -50.1,-6 -102.4,-12.097 -148.7,-32.398 -9.1,-38.602 -13.1,-80.199 -35,-114.403 -51.5,-82.5 -183.1,-101.796 -253.4,-32.796 -56.6,54.199 -81,136 -77.7,212.898 -4.2,57.801 11.7,117.301 47.4,163.301 52.7,61 150.1,89.898 221.6,44.801 30.7,-16.704 48.9,-47.102 66.3,-76.204 49,8.704 100.3,13.5 146.8,31.204 -6.2,65.296 -51.9,118.199 -101,157.598 -62.6,43.7 -142.9,57.2 -217.5,44.2 -112.3,-10 -215.4,-78.4 -274.3,-173.502 M 4780.1,1042.1 c -15.2,-154.299 -21.6,-309.401 -34.1,-463.998 -3.9,-101.301 -23.4,-202.301 -17.2,-303.801 110.2,-8.403 220.8,-1.403 331.1,-6.102 80.1,-2.398 168.9,15.199 225.1,76.699 59.2,63.5 70.7,161.403 42.1,241.204 -15.2,43.296 -55.4,68.796 -91.4,93.097 34.5,22.602 73.9,45.801 87.2,87.5 17.7,58.602 20.7,128.301 -15.1,180.903 -39,52.798 -106.9,71.298 -169.1,77.698 -119.5,7.3 -238.9,17.7 -358.6,16.8 m 873,-53.299 C 5633.5,968 5626.3,939.301 5615.3,913.602 5558,777.5 5501.1,641.102 5446.7,503.699 5416.3,422.801 5379.8,344 5355.4,260.898 c 51.2,-1.398 102.4,-0.199 153.7,-1 26,52.102 44.6,107.301 64.2,162 86.7,-4.097 174.4,3.5 260.6,-7.5 29.4,-47.296 34.2,-106.199 54.3,-158 55.8,-4.097 111.1,-14.699 167.2,-13.5 -6.8,32.704 -17.3,64.403 -27.8,96 -66.5,202.204 -135.1,403.801 -202.4,605.704 -6.7,12.199 -9.1,34.597 -26.9,33.699 -48.5,2.898 -96.7,12.5 -145.2,10.5 m 451.3,-39.699 C 6103,866 6113,783.199 6110,699.898 c -0.6,-152.199 -0.9,-304.398 5.4,-456.398 171.2,-2.898 342.4,-11.602 513.4,-19.898 1.9,45.199 1.8,90.398 0.4,135.5 -116.7,3.699 -233.2,12.199 -349.7,18.796 -17.3,189.801 -1.7,380.801 -10.6,571 -54.9,1.403 -109.8,3.801 -164.5,0.204 m 573.2,-11.903 c -6.6,-52.597 7.1,-104.597 7.5,-157.199 6.4,-184.602 22.7,-368.5 32.6,-552.898 170.7,6 341.3,14.699 511.9,24.5 1.9,44 1.5,88.097 -4.7,131.699 -117.6,-4.301 -235.1,-15.5 -352.8,-11.903 -15.2,188.704 -15.1,378.102 -32.6,566.5 -54,-1.597 -108,-2.398 -161.9,-0.699 M 9815,1433.6 c 64.4,15.4 116.3,-81.9 68.4,-127.3 -26,-33.3 -70.7,-37.5 -107.3,-53 -32.8,-8.8 -63.2,-30.6 -98.4,-25.5 -13.5,49.2 -36.2,95.8 -41.3,147 60.8,15.6 118,42.6 178.6,58.8 m -6891.9,-226 c 45.7,11.6 94.4,0.7 136.7,-17.9 61.5,-29.2 93.5,-97.5 97.8,-162.9 5.5,-95.198 -17.7,-198.601 -85.6,-268.902 -79,-85.597 -233.4,-51.597 -289.3,44 -43.9,84.602 -31.5,187.102 4.3,272.302 24.6,59.8 68.7,120.4 136.1,133.4 m 6927.6,-48 c 36.8,13.1 76.6,28.3 116,17.6 60.5,-25.2 79.4,-127 19.2,-162.6 -30.7,-24.202 -69.4,-32.6 -105.3,-45.702 -34.4,-11.597 -67.6,-28.699 -104.5,-29.898 -16.7,56.398 -46.1,110.9 -49.3,170.1 38,24 82.1,35 123.9,50.5 M 3673.2,1047.4 c 46.1,15.3 96.1,4.6 139.5,-14 57.4,-28.8 92.3,-91.4 98.7,-154.002 10.7,-99.597 -11.1,-206.898 -74.9,-286.097 -70.1,-84.199 -216.2,-73.301 -279.5,13.5 -49.9,59 -45.1,141.199 -39.6,213.199 16.2,91.199 57.2,200.1 155.8,227.4 m 1257,-143.599 c 66.2,-4.102 133.9,-0.102 198.8,-15.903 57.7,-20.796 64.6,-108.199 17,-143.5 -15.6,-13 -35.4,-19.398 -55.6,-18.699 -57.3,-3.398 -114.3,5.403 -171.6,6.199 -0.5,57.602 6.6,114.704 11.4,171.903 m 784.3,-124.699 c 3.7,1.398 11,4.296 14.6,5.699 22.3,-81.5 48.1,-162 71.8,-243.102 -54,-3.398 -108,3.403 -161.6,9.5 1.6,11.102 2.5,22 2.8,32.903 14.4,67.796 47.1,130.699 72.4,195 m -805,-165.403 c 64.4,-1.5 128.7,-4.097 192.9,-8.699 26.6,-0.199 50,-16.602 66.9,-36.102 38.7,-61 4.1,-157.699 -72.3,-165.699 -66.8,-7.301 -134,-0.699 -200.8,1.699 -0.7,69.801 7,139.403 13.3,208.801"
         inkscape:connector-curvature="0"
         id="path16"
         style="fill:#e8cd0e;fill-opacity:1;fill-rule:nonzero;stroke:none" /><path
         d="m 5703.9,12106.1 c 90.6,47.9 176,105.4 266.9,152.4 50.7,-27.8 100.1,-58.4 150.5,-87.1 142.5,-81.7 292.2,-149.7 440.7,-219.8 118.2,-49.5 237.2,-97.5 357.4,-142 141.1,-43.7 279.4,-97.3 424.3,-127.8 221.1,-55.8 446.5,-98.5 674.7,-112.6 537.4,-50.1 1088.2,32.8 1583.4,248.9 4.9,1.9 14.6,5.9 19.5,7.9 44,22.6 89.1,44.1 136.5,58.6 24.6,-88.9 55.1,-175.9 82.7,-264 8.7,-27.4 24.3,-53.2 27.2,-82.2 2,-4.9 6,-14.6 8,-19.4 48.6,-122.9 101.7,-244.2 159.9,-363 57.7,-102.4 108.3,-209 175.4,-305.8 79.9,-127 169,-248.5 269.2,-360.4 26.2,-30.2 55.1,-58.5 77.9,-91.6 -1.4,-12 -6.7,-23 -12.4,-33.4 -107.6,-165 -202.3,-338.9 -280.6,-519.8 -135.7,-304.3 -237.5,-624.1 -296.1,-952.3 -9.9,-47 -7.4,-97.8 -31,-141.1 -111.3,7.2 -223,-0.9 -334.3,4.8 -207.8,2 -415.8,1.3 -623.6,5.5 -193.4,-4.8 -386.8,6.8 -580.1,-0.2 -163.4,7.4 -327,-0.8 -490.3,5.3 -226.5,5 -453.2,-2.5 -679.7,4.6 -106.6,1.4 -213.3,1.1 -319.9,-1.2 -250,6.2 -500,2.1 -750.1,3.5 -140,-1.5 -280.2,4.4 -420.1,-4.7 -80,-2 -159.8,2 -239.7,4.8 -546.7,-0.3 -1093.4,0.5 -1640.2,-1.2 -381.9,-8.9 -764.3,1.5 -1146.3,-7.9 -34.6,0.5 -69.1,5.1 -103.6,2.7 -86.7,-5.2 -173.4,3.3 -260.1,0.3 -82.9,2.1 -165.8,-7.4 -248.6,-0.6 -9.5,75.3 -27,149.2 -38.2,224.1 -19.2,72.9 -36.5,146.3 -54.6,219.4 -113.2,413.4 -284.6,812.5 -521.9,1170.1 181.5,196.2 331.5,419.5 458.2,654.3 138,255.3 236.4,530 316.3,808.3 136.6,-61 273.9,-122 418,-163.9 149.8,-52 306.7,-78.5 461.6,-110.5 139.2,-16.5 278.4,-40.2 419.2,-37.3 173.9,-6.4 348.6,-0.4 520.8,26.7 72.3,12.1 146.3,15.3 216.9,36.6 339.3,58 667.8,168.4 983.7,303.5 62.7,31.8 130.6,52.6 191.2,88.6 77.1,39.7 155.8,76.2 231.3,118.9 m 3104,-693.3 c -272.5,-198.9 -567.9,-365.5 -873.6,-507.7 -516.2,-236.7 -1068.9,-396.5 -1634.1,-457.1 -113.3,-8.4 -226.3,-20.9 -339.9,-24.8 -166.9,-0.9 -334.3,-2 -500.5,15.7 -99.5,2 -197,23.3 -295.8,32.3 -461.6,76.5 -914,221.4 -1324.3,448.3 -240,132.6 -468.2,288.4 -670.2,474.3 -41.2,-44.7 -69.9,-98.8 -106,-147.4 -111.8,-164.5 -223.4,-329.2 -335.1,-493.8 -192.6,85.4 -346.4,240.8 -462.1,414.1 -25.2,34.7 -41.4,75.4 -69.9,107.8 -6.6,-88.1 -15.4,-181.7 16.2,-265.8 -12.7,-7.3 -8.9,-36.7 7.4,-35.8 1.2,-77.4 48.8,-143.7 74.6,-214.5 -94.2,9.8 -170.1,70.4 -248.6,117.2 -1.2,-87.7 26.8,-171.6 45.5,-256.2 75.7,-266.9 211.5,-515.8 390.3,-727.4 47.9,-51.1 89.7,-109 147.5,-149.7 69.2,73.8 126.2,158.4 197.5,230.2 230.9,-162.7 480,-297.5 732.6,-423.2 742.1,-356.3 1554.8,-582.1 2380.7,-598.2 536.6,-10.2 1073.6,69.2 1587.8,221.7 520.8,158.3 1019.6,388.5 1479.2,680.1 53.2,33.3 101.9,73.6 155.5,106.2 3.9,0.5 11.6,1.5 15.5,2 77.6,-67.9 132.4,-158.1 211.3,-224.5 32.1,29.3 60.6,62.1 89,94.9 201.8,231.9 366.9,500.8 450.6,798.2 22.9,80.3 47.4,163.2 42.9,247.5 -36.6,-15.1 -66.2,-42.8 -103.5,-56.4 -32.6,-14 -68.5,-15.6 -103.3,-14.2 -3,61 39.2,111.1 46.4,170.4 18.3,73.2 13.2,148.4 13,223 -4.7,35.9 -14.5,71.3 -30.2,103.9 -64.1,-134.3 -141.4,-265 -249.6,-368.7 -73.4,-70.9 -154.9,-139.1 -253.7,-170.1 -36.8,-6.6 -51.1,33.9 -68.8,57.6 -79.2,115.3 -149.6,236.2 -228.7,351.5 -53.7,77.5 -96.7,162.1 -153.6,237.4 -7.4,14.7 -21.7,9 -32,1.2 M 8497,10793.1 c 49.2,23.1 96.1,51.5 148.4,67.5 16.4,-39.8 38.3,-77.8 49.1,-119.7 7.8,-18.1 -12,-26.2 -24.5,-32.6 -58.7,-29 -119.6,-54.4 -175.1,-89.4 3.2,-27.3 17.6,-51.5 28,-76.5 72.3,-164.3 145.8,-328.1 218.2,-492.4 5.8,-14.3 9.1,-29.5 12.2,-44.7 -49.6,-24 -97.7,-52.1 -150.8,-67.8 -41.5,78.9 -69.3,163.8 -111.6,242.1 -47.2,115.5 -98.8,229.3 -151.4,342.3 -5.8,15.7 -24.2,14 -35.6,6.6 -52.5,-25.1 -103.7,-52.9 -156.4,-77.8 -12.6,-7 -27.1,-2.5 -40.4,-1.3 -8,43.5 -45.6,80.5 -42.4,125.1 41.1,26.9 86.7,46.2 130.7,68.2 100.6,49.9 200.3,101.7 301.6,150.4 M 3382.2,10760 c 189.1,55.2 410.2,-64.4 465.5,-253.8 21.3,-64.2 15,-134.3 -2.5,-198.6 -54.2,5.4 -96.1,43.7 -143.7,66.3 -5,47.2 -0.3,98.3 -26.5,140.4 -45.2,90.4 -171.8,136 -259.8,80.2 -85.1,-48.1 -131.8,-141.5 -157.8,-232.2 -22.5,-77 -5.3,-165.4 51.1,-223.7 43.4,-38.7 101.3,-71.7 161.5,-58.9 56.7,6.7 95.2,53.7 130.6,93.8 48.4,-26.3 99,-49.4 143.1,-82.8 -52.4,-96 -152.8,-166.3 -263.5,-170.6 -173.1,1 -341,125.2 -383.5,294.7 -23.1,106.7 -11.3,221.5 38.9,319 51,101.4 134.8,193.9 246.6,226.2 M 7866,10497.8 c 48.3,20.1 94.8,48.5 148,52.9 85.3,-236.3 160.2,-476.4 242.8,-713.9 7.4,-19.9 11.4,-40.8 14.3,-61.8 -53.7,-14.9 -103.1,-47.1 -158.6,-52.6 -37.8,19.6 -66.3,54.3 -101.2,78.8 -74.8,58.2 -143.1,124 -218.3,181.7 -52,40.5 -97.5,91.7 -158.3,119.3 47.9,-168.3 114.6,-331 163.6,-498.6 -45.2,-26.7 -96.4,-42.4 -147,-55.6 -60.8,148.4 -103.5,303.5 -158.8,453.9 -26.2,85.2 -55.9,169.2 -87.1,252.6 -6.4,19.6 -14.8,39.8 -12.3,60.8 25.5,26.4 64.9,29.3 96.7,45 23.6,7.6 53.2,28 75.1,5.9 110.1,-90.2 218.5,-182.6 329.2,-272.1 43.3,-33.8 80.4,-76.2 129.9,-101.7 -16.8,92.4 -55.1,179 -82.6,268.4 -23.2,79.7 -58.2,155.6 -75.4,237 m -3854.1,15.8 c 53.9,-17.9 106.9,-38.9 158.1,-63.4 -25.3,-98.5 -72.4,-190.3 -95.1,-289.5 12.5,-11.4 29.9,-14.9 45.1,-21.6 83.1,-30.2 162.7,-69.9 247.8,-94.8 41.5,92.6 64.4,192.2 104.7,285.3 52.9,-18.1 106.6,-36.8 155.7,-63.7 1.3,-23 -10.8,-44.3 -17.3,-65.9 -45.9,-134 -96,-266.5 -141.2,-400.8 -39.1,-95.3 -66.1,-195.1 -104.9,-290.5 -49,12.9 -96.1,32.6 -142.1,53.5 -19,6.8 -11.7,29.2 -7.9,43.3 32.5,98.4 74.1,193.8 100.2,294.2 -56.5,21.7 -110.9,48.4 -168.2,67.8 -43.7,15 -84.5,39.4 -131.1,45.1 -34.3,-108.4 -72.9,-215.4 -111.8,-322.3 -52.5,18.5 -104.9,38.1 -154.7,63.2 3.7,23.8 7.8,47.8 16.6,70.4 84.9,228.9 159,461.7 246.1,689.7 m 3125.3,-266 c 55.1,12.2 108.4,32.3 164.5,40.2 37.7,-176.1 79.9,-351.3 118.8,-527.2 8.6,-68.7 12.2,-143.6 -23,-206.1 -53.4,-98.7 -161.7,-155.9 -270.1,-170.7 -99.8,-22.3 -220,-7.9 -290.1,73.5 -62.9,68.3 -78.4,163.5 -99,250.6 -18.8,69.7 -31.4,140.8 -48.6,210.9 -12,69.3 -39.9,135.8 -40.7,206.9 54.9,11.8 108,34.1 164.9,34.3 35.8,-162 75.7,-323.1 110.8,-485.2 13,-47.2 29,-100.2 74.1,-126.6 44.5,-29.5 101,-18.6 149.2,-5.8 49.8,14.4 99.6,52.8 104.6,107.9 6.5,74 -20.4,144.9 -34.7,216.4 -26.2,127.1 -63.5,252.1 -80.7,380.9 m -2430.5,-7.5 c 18.7,-0.6 37.5,-2 55.7,-7.2 169.3,-44.7 339.5,-85.2 509.3,-128.1 7,-49.1 -10.4,-98.5 -25.6,-144.6 -51.9,4.2 -101.7,21.1 -151.9,34 -84.4,18.4 -166.5,46.7 -252,59.7 -6.6,-55.4 -28.5,-108.3 -30.5,-164.2 120.5,-36.8 245.3,-59.6 365.4,-98.1 -10.6,-43.2 -16.2,-87.5 -26.9,-130.7 -124.3,25.9 -246.8,59.8 -370,90.5 -17.9,-64 -32,-129.1 -41.1,-194.9 134.5,-30.8 267.1,-69 401.4,-100.4 -0.7,-50.2 -12,-99.3 -25.4,-147.4 -149.7,33 -297.1,75.1 -446.1,110.7 -44.4,7.8 -87.1,22.5 -130.5,34.3 25.6,149.5 63.8,296.4 92.7,445.2 27.7,113.2 48.8,227.8 75.5,341.2 M 6412,10094.5 c 55.1,2.6 109.6,12.6 164.8,14.7 16.3,-98.9 20,-199.3 30.1,-298.9 14.7,-134.9 21.7,-270.3 37.3,-405.1 3.2,-36.8 10.7,-73.8 6,-110.8 -55.7,-5.4 -111.1,-14.3 -167,-14.2 -10.6,114.7 -25.2,228.8 -35.6,343.5 -105.9,-2.2 -211.4,-15.5 -316.6,-27.1 9.4,-92.1 16.4,-184.6 28.4,-276.5 2.5,-24.9 1.1,-50 -1.5,-74.8 -55,-3.1 -109.8,-12.4 -164.9,-8.5 -8.8,126.5 -30,251.8 -37.3,378.4 -10.6,143.6 -35,286.4 -35,430.6 54.7,5.4 109.3,14.9 164.4,12.8 18.9,-102.6 11.5,-209.2 38.2,-310.4 101.9,13.7 205,17.9 306.9,33.3 2.1,104.8 -21.9,208.2 -18.2,313 m -946.1,-10.5 c 101.2,19 211.6,8 300.5,-47 78.4,-46.6 122,-140.5 114,-230.6 -54.8,1.3 -109.9,5 -163.6,15.9 -7.1,33.1 -13,71.1 -41.8,92.8 -50.9,40.5 -126.2,50.2 -186.3,26.6 -53,-21.2 -66.4,-107.3 -13.2,-135.8 87.1,-49.2 187.1,-68.8 277.1,-111.7 62.9,-33.3 115.8,-92.1 128.3,-163.8 17.1,-97.7 -28.5,-206.3 -116.9,-254.7 -80.3,-44 -175.6,-43.4 -264,-32.7 -101.5,16.3 -206.7,68.2 -251.9,165.5 -25.3,43.4 -23.1,95.1 -21.3,143.5 54.1,1.3 108.2,-4.3 161.6,-12.9 5.1,-36.8 8.1,-77.2 35.1,-105.7 46.3,-51.2 121.2,-61.2 186.6,-56.9 49.5,2.9 105.8,38.6 103.8,93.4 3.7,38.8 -28.8,67.5 -59.7,84.1 -103.9,55.3 -229.9,68.9 -318.8,151.3 -55.2,47.1 -71.3,126.2 -57.2,195 11.6,94.9 97.3,166.3 187.7,183.7 m 374.5,-1627.1 c 99,1.5 197.9,2.2 296.8,1.5 7.7,-51.9 9.6,-104.5 5.3,-156.9 4.2,-50 1.9,-100.2 5.7,-150.2 95.5,-11.7 191.4,0.6 287.2,-0.3 2.7,71.6 -5.5,143.8 4.4,214.9 116.6,-0.7 233.3,0.5 350,0.4 32.1,-0.3 64.6,0.8 96.2,-7 0,-186.5 -2.6,-372.8 -2,-559.3 -6.4,-96.9 7,-194 -2.7,-290.8 -400.5,1.4 -800.8,-0.8 -1201.3,0.7 -153.2,-3.7 -306.5,-4.2 -459.8,-4.5 -42.2,0.6 -84.9,-4.9 -126.4,4.6 1.5,50.1 1.4,100.3 -3.2,150.3 -2.3,156.5 1.8,313.1 -3,469.5 -1.1,78.9 -6.1,158 0.8,236.7 37.1,0 74.2,5.2 111.4,4.1 109.3,-5.5 219,5.7 328.1,-4.4 4.3,-71.6 -0.1,-143.4 6.8,-214.9 61.7,-2.7 123.5,0.6 185.2,-2.8 39.3,0.4 79.6,-7.9 118.1,3.9 7.7,101.4 -5.2,203.1 2.4,304.5 m -3828.7,-1266.4 10.4,0 c 251.7,2 502.9,-14.4 754.5,-17 110.7,-7.6 221.6,-7.7 332.5,-9 136.7,-10.8 273.9,2.1 410.5,-8.5 68.4,-2.1 136.9,2 205.3,-2.6 121.5,-7.6 243.3,1 364.8,-7.3 143.6,-1.2 287.3,1.8 430.7,-4.7 86.5,-3.3 173.1,-0.3 259.6,-1.4 103.8,-1.1 208.8,4.8 311.6,-12.1 -2.7,-272.6 -3.3,-545.4 2.1,-817.9 -1.2,-56.6 4,-113.3 -1.6,-169.7 -236.2,-161.8 -502.8,-277.9 -782.1,-340.7 -113.8,-32.7 -232.4,-38.5 -349.4,-51.4 -389.5,-17.8 -782.5,15 -1160.7,111.8 -352.3,89.4 -694.5,218.2 -1017.8,384.1 -20.7,22.5 2.1,60.5 3.2,88.4 51,291.9 132.4,577.2 226.4,858 M 6939,7130.6 c 64.5,22.5 133.8,7.5 200.5,9.5 150.1,6.3 300.2,-2.8 450.5,-0.1 373.3,-1.8 746.9,5.6 1120,-7.1 329.9,-6.3 659.9,1.1 989.8,-7.3 127,0.4 254,0.4 380.9,-4.6 104,-317.3 191.5,-640.9 246.6,-970.5 -200.3,-106.3 -414.9,-182.5 -627.8,-259.4 -195.2,-61.8 -392.6,-117.8 -594.2,-154.9 -335.1,-60.9 -678.5,-79.3 -1017.9,-47.8 -80,2.3 -157.1,25.5 -236.3,34 -319.2,69.1 -630.2,191.2 -898.8,378.7 -6.6,219.5 1.7,439.4 -4.5,658.9 2.3,83.4 -4.1,166.7 -3.1,250.1 -0.1,40.2 2.1,80.8 -5.7,120.5 M 1715.1,5684.7 c 3.7,-1.3 11.1,-3.9 14.8,-5.3 236.5,-107.3 474,-216.3 724.9,-286.4 62,-15.7 120.5,-42.9 183.6,-54.7 185.7,-53.9 377,-83.8 568.1,-110.9 73.9,-12.4 149.1,-9.8 223.5,-17.3 69.8,-7.2 140,-3 210.1,-4.2 260.3,-3.1 523.2,12 776.5,76.1 231.7,53.4 457.1,138.2 661.6,260 5.2,0.7 15.5,2.1 20.7,2.8 3.7,-198.3 -1,-396.7 1.6,-595.1 8,-111.9 4.5,-224.2 4.2,-336.4 -291.1,-217.6 -639.4,-350.6 -995.9,-412.7 -116.9,-23.1 -236.5,-21.7 -354.7,-33.1 -78,-6.6 -156.6,1.2 -234.6,-6.9 -73.3,-2.6 -146.2,8.4 -219.6,5 -478.3,18.5 -948.8,132.2 -1396.3,298.5 -14.7,6.1 -13.9,26.7 -21.1,39 -42.7,115.4 -73.5,234.5 -103.5,353.6 -9.2,70.6 -28.2,139.6 -34.1,210.7 -31.8,204.2 -33.3,411.1 -29.8,617.3 m 7461.6,-502.6 c 414.7,83.6 819.1,215.5 1205.1,388.5 11.4,-119.4 -1.4,-239.5 -7.1,-358.9 -23.3,-239.9 -63.8,-479.9 -148.4,-706.4 -18.1,-44.8 -28.1,-94.8 -57.5,-134 -70.8,-38.4 -150,-57.6 -225.3,-85 -247.1,-77.8 -497.8,-147.3 -754.9,-183 -123,-14.9 -245.8,-33 -369.7,-39 -122.6,-13.7 -246.1,-7.5 -369.1,-8.6 -116.5,7.4 -233.7,6.9 -349.3,24.6 -266.2,42.6 -529.2,114 -774.7,226.2 -131.2,64.9 -259.8,137.5 -375.1,228 -11.8,8.1 -10.2,23 -10.9,35.2 -0.9,130.1 2,260.3 0.1,390.4 9.3,175.1 1.6,350.7 5.9,526 10.7,4 21.2,4.4 31.5,1.3 27.9,-16.2 56.9,-30.6 85.6,-45.5 168.1,-94 351.1,-157.5 534.7,-214.2 114.9,-31.2 232.5,-51.1 349.9,-70.4 120.3,-15.6 240.7,-35.2 362.4,-31.7 89.9,2.9 179.4,-9.5 269.3,-3.3 200.4,4.3 399.9,26.7 597.5,59.8 M 4009.8,3695.7 c 382.6,26.6 758,138.7 1096.3,318.7 7.2,-131.3 2.5,-262.8 3.9,-394.3 0.1,-350.6 -1.6,-701.2 5.7,-1051.7 -55,6.4 -106,29.7 -160.6,38 -134.6,33.5 -273.9,39.3 -408.7,71.6 -207.2,48.2 -415.4,93.6 -617.9,159.5 -70.5,16.2 -137.2,44.6 -206.5,64.5 -143.1,47.7 -280.4,111 -418.6,171 -274.5,127.7 -534.5,288.5 -764.5,485.8 -80.4,74.5 -164.1,146.6 -232.7,232.5 60.4,-3.6 119.5,-18 179,-27.8 258.7,-48.8 520.6,-85.8 784.2,-89.4 66.7,-9.1 133.8,-1.5 200.8,-3.6 116.7,-3.1 233,7.9 349.6,10.7 63.6,1.4 126.3,14.1 190,14.5 m 2922.3,238 8.6,-4.2 c 39.8,-19.5 78.1,-42 117.7,-61.9 252.4,-127.4 528.4,-197.9 803.7,-255.3 276.6,-44.2 558,-62.5 837.9,-46.7 104.5,1.7 209,7 312.9,19.5 247.9,26.2 494.8,62.4 738.4,115.8 -5.7,-11.2 -11.4,-22.8 -21.4,-30.9 -81.2,-72 -152.9,-154.7 -241.4,-218.2 -130.6,-117.3 -280.9,-208.7 -428.9,-301.7 -198.4,-113.2 -406.3,-208.9 -618.9,-292.1 -207.9,-79.5 -421.5,-143.2 -635.9,-202.6 -218.5,-55.8 -440.5,-97.7 -663.9,-128.6 -78.2,-8.6 -154,-30.1 -230.7,-46.3 -1.1,140 6.1,279.8 4.7,419.9 9.7,136.4 2.9,273.2 5.6,409.7 7.9,99.8 0.6,200 6.7,299.9 6.9,107.8 -1.1,215.9 4.9,323.7 M 9770.4,1559 c 56.2,15.8 115.9,33.5 173.9,15.4 88.7,-31.6 137.1,-147.9 91.9,-231.5 -7.7,-15.6 -17.6,-30 -27,-44.6 30.9,-8 63.1,-12.9 92.5,-26.4 93.2,-61 122.2,-204.9 48.7,-292.002 -60.6,-83.5 -166.5,-106.796 -257.2,-142.597 -80.7,-23.102 -155.3,-65.301 -238.6,-79.102 -24.8,96.102 -64.3,187.602 -92.8,282.701 -33.8,94 -62.1,189.8 -97.1,283.4 -9.9,36.7 -33.1,71.8 -26.5,111.1 111.1,39.8 221,83.4 332.2,123.6 m 44.6,-125.4 c -60.6,-16.2 -117.8,-43.2 -178.6,-58.8 5.1,-51.2 27.8,-97.8 41.3,-147 35.2,-5.1 65.6,16.7 98.4,25.5 36.6,15.5 81.3,19.7 107.3,53 47.9,45.4 -4,142.7 -68.4,127.3 m 35.7,-274 c -41.8,-15.5 -85.9,-26.5 -123.9,-50.5 3.2,-59.2 32.6,-113.702 49.3,-170.1 36.9,1.199 70.1,18.301 104.5,29.898 35.9,13.102 74.6,21.5 105.3,45.702 60.2,35.6 41.3,137.4 -19.2,162.6 -39.4,10.7 -79.2,-4.5 -116,-17.6 m -7671.8,420.6 c 163.1,-51.8 326.9,-101.5 488.7,-157.1 -6.8,-45.5 -20.3,-89.7 -32.6,-134 -113.8,29.3 -223.9,71.7 -335.7,107.7 -19.1,-52.6 -36.6,-106.4 -44.2,-162.1 93.8,-30.8 186.7,-64.1 280.4,-95.4 -1,-42 -15.7,-81.9 -27.5,-121.8 -99.9,22.3 -192.3,69.2 -291.3,94.7 -27.5,-89.4 -46.4,-181.302 -76.2,-270.001 -50.8,19.903 -102.3,38 -152.7,59 52.8,196.501 109.1,392.101 163.2,588.201 8.5,30.6 16.4,61.3 27.9,90.8 m 7012.5,-208.4 c 52.4,13.2 105.4,24.7 157.5,39.4 19.3,-34.8 28.5,-73.9 37.9,-112.3 26.1,-115.7 58,-230 85,-345.502 16.7,-73 7.4,-154.898 -39.6,-215.199 C 9384.8,672.801 9307.7,638.5 9232.3,617.301 9147.7,597.301 9054.2,593 8975.7,635.699 8898.1,681 8861.2,768.801 8843.1,852.898 8811.6,986 8772.5,1117.1 8740.2,1250 c 53.4,17.2 107.1,37.5 163.6,40.7 33.7,-105.3 52.5,-214.7 85.8,-320.098 17.3,-63.403 25.3,-132.5 63.7,-187.5 61.6,-59.704 163.5,-40.801 225.2,8.296 37,33.602 36.7,85.5 26,130.403 -33.6,150.999 -84.2,297.899 -113.1,449.999 m -6287.1,-16.2 c 164.7,24.2 347.4,-74.4 395.1,-238.8 C 3344,979.398 3317.9,822.398 3236.3,703.699 3192,638.602 3123.2,590.199 3046.4,572 c -163.2,-32 -348,52.801 -417.5,206.801 -42.1,87.199 -41.4,188.898 -20.2,281.599 32.8,142.6 143.7,277.4 295.6,295.2 m 18.8,-148 c -67.4,-13 -111.5,-73.6 -136.1,-133.4 -35.8,-85.2 -48.2,-187.7 -4.3,-272.302 55.9,-95.597 210.3,-129.597 289.3,-44 67.9,70.301 91.1,173.704 85.6,268.902 -4.3,65.4 -36.3,133.7 -97.8,162.9 -42.3,18.6 -91,29.5 -136.7,17.9 m 731.2,-12.9 c 64.1,13.1 130.8,2.2 192.3,-17.6 110.4,-37.4 193.8,-138.5 217.2,-251.799 C 4083.9,824.602 4074.5,718.102 4038,622.102 4000.4,527.898 3928.9,442.898 3831.4,408 c -159,-53 -359.6,13.801 -434.4,168.898 -59,111.204 -58.6,246.403 -17.2,363.403 39.6,123.999 142,233.699 274.5,254.399 m 18.9,-147.3 c -98.6,-27.3 -139.6,-136.201 -155.8,-227.4 -5.5,-72 -10.3,-154.199 39.6,-213.199 63.3,-86.801 209.4,-97.699 279.5,-13.5 63.8,79.199 85.6,186.5 74.9,286.097 -6.4,62.602 -41.3,125.202 -98.7,154.002 -43.4,18.6 -93.4,29.3 -139.5,14 m 4525.6,82.3 c 53,12.5 105,30.2 159.7,34.1 34.1,-180.499 70.7,-360.499 104.8,-540.999 2,-23.699 30.3,-14.199 45.6,-12.5 102,24.301 205,43.801 308.5,61 7.2,-43.102 17.8,-85.699 23.8,-129.102 C 8737.2,516.801 8631,501.301 8527,476 c -65.5,-10.199 -128.2,-37.5 -195,-38 -40.6,212.102 -82.7,423.898 -125.4,635.5 -3,18.8 -5.4,37.6 -7.8,56.2 M 4142.3,1110 c 198.6,-7.2 392.7,-59.4 591.6,-65.2 -1.9,-47.902 -10.3,-95.198 -17.9,-142.601 -71.2,3.301 -141.9,12.301 -212.8,18.199 -10.4,-100.296 -25.3,-200.097 -35.2,-300.5 -18.9,-106.199 -22,-214.296 -41.1,-320.5 -53.3,2.301 -106.2,10.5 -158.4,20.801 23.2,207 52.5,413.301 72.4,620.602 -69.7,15.699 -141.4,18.301 -211.4,31.801 2.3,45.998 10.5,91.498 12.8,137.398 M 7568.7,901.398 c 58.9,95.102 162,163.502 274.3,173.502 74.6,13 154.9,-0.5 217.5,-44.2 49.1,-39.399 94.8,-92.302 101,-157.598 -46.5,-17.704 -97.8,-22.5 -146.8,-31.204 -17.4,29.102 -35.6,59.5 -66.3,76.204 -71.5,45.097 -168.9,16.199 -221.6,-44.801 -35.7,-46 -51.6,-105.5 -47.4,-163.301 -3.3,-76.898 21.1,-158.699 77.7,-212.898 70.3,-69 201.9,-49.704 253.4,32.796 21.9,34.204 25.9,75.801 35,114.403 46.3,20.301 98.6,26.398 148.7,32.398 8,-87 -19.8,-177.199 -77.6,-243.199 -53.9,-64.301 -135.2,-98.602 -216.6,-111 -87.8,-12.398 -183.7,6.102 -251.3,66.102 -147.7,120.898 -170.6,351.097 -80,512.796 M 4780.1,1042.1 c 119.7,0.9 239.1,-9.5 358.6,-16.8 62.2,-6.4 130.1,-24.9 169.1,-77.698 35.8,-52.602 32.8,-122.301 15.1,-180.903 -13.3,-41.699 -52.7,-64.898 -87.2,-87.5 36,-24.301 76.2,-49.801 91.4,-93.097 28.6,-79.801 17.1,-177.704 -42.1,-241.204 -56.2,-61.5 -145,-79.097 -225.1,-76.699 -110.3,4.699 -220.9,-2.301 -331.1,6.102 -6.2,101.5 13.3,202.5 17.2,303.801 12.5,154.597 18.9,309.699 34.1,463.998 m 150.1,-138.299 c -4.8,-57.199 -11.9,-114.301 -11.4,-171.903 57.3,-0.796 114.3,-9.597 171.6,-6.199 20.2,-0.699 40,5.699 55.6,18.699 47.6,35.301 40.7,122.704 -17,143.5 -64.9,15.801 -132.6,11.801 -198.8,15.903 m -20.7,-290.102 c -6.3,-69.398 -14,-139 -13.3,-208.801 66.8,-2.398 134,-9 200.8,-1.699 76.4,8 111,104.699 72.3,165.699 -16.9,19.5 -40.3,35.903 -66.9,36.102 -64.2,4.602 -128.5,7.199 -192.9,8.699 m 743.6,375.102 c 48.5,2 96.7,-7.602 145.2,-10.5 17.8,0.898 20.2,-21.5 26.9,-33.699 67.3,-201.903 135.9,-403.5 202.4,-605.704 10.5,-31.597 21,-63.296 27.8,-96 -56.1,-1.199 -111.4,9.403 -167.2,13.5 -20.1,51.801 -24.9,110.704 -54.3,158 -86.2,11 -173.9,3.403 -260.6,7.5 -19.6,-54.699 -38.2,-109.898 -64.2,-162 -51.3,0.801 -102.5,-0.398 -153.7,1 24.4,83.102 60.9,161.903 91.3,242.801 54.4,137.403 111.3,273.801 168.6,409.903 11,25.699 18.2,54.398 37.8,75.199 m 61.4,-209.699 c -25.3,-64.301 -58,-127.204 -72.4,-195 -17.2,6.5 -26.7,-33.801 -7.4,-36.301 l 4.6,3.398 c 53.6,-6.097 107.6,-12.898 161.6,-9.5 -23.7,81.102 -49.5,161.602 -71.8,243.102 -9.3,13.398 -14.2,11.5 -14.6,-5.699 m 389.9,170 c 54.7,3.597 109.6,1.199 164.5,-0.204 8.9,-190.199 -6.7,-381.199 10.6,-571 116.5,-6.597 233,-15.097 349.7,-18.796 1.4,-45.102 1.5,-90.301 -0.4,-135.5 -171,8.296 -342.2,17 -513.4,19.898 -6.3,152 -6,304.199 -5.4,456.398 3,83.301 -7,166.102 -5.6,249.204 m 573.2,-11.903 c 53.9,-1.699 107.9,-0.898 161.9,0.699 17.5,-188.398 17.4,-377.796 32.6,-566.5 117.7,-3.597 235.2,7.602 352.8,11.903 6.2,-43.602 6.6,-87.699 4.7,-131.699 -170.6,-9.801 -341.2,-18.5 -511.9,-24.5 -9.9,184.398 -26.2,368.296 -32.6,552.898 -0.4,52.602 -14.1,104.602 -7.5,157.199"
         inkscape:connector-curvature="0"
         id="path18"
         style="fill:#000000;fill-opacity:1;fill-rule:nonzero;stroke:none" /><path
         d="m 9867.7,11538.4 8.9,-1.9 4.1,-9.9 -5,-7.6 c -2,4.8 -6,14.5 -8,19.4 m -6811,-2995.6 c 69.1,-23.4 129.4,-66 188.6,-107.7 57.2,-43.3 124.9,-88.6 137.4,-165.2 58.6,-1.4 111.1,-41.4 133.1,-94.9 26.5,-55.1 56.3,-123.4 21.3,-181.7 -4.6,1.3 -13.7,4 -18.3,5.4 -57.4,13.7 -105.2,53.2 -144.4,95.6 -33.1,36.4 -33.2,87.8 -29.8,133.8 -65.2,-9.3 -140.7,-27.5 -196.4,19.3 -81.4,73 -95.6,192.1 -91.5,295.4 m 5492.5,-51.1 c 66.5,33.8 146.1,45.8 218.4,24.9 58.2,-25.5 101.8,-79.1 119.3,-139.9 37.3,-92.1 35.2,-193.3 36.7,-290.9 48,-10 95.5,-23.5 140.4,-43.3 53.5,-33.8 103.3,-85.7 108.6,-151.9 8.6,-65.5 -28.3,-126.2 -71.3,-172.1 -51.2,-54.9 -130.2,-65.1 -201.1,-70.2 -49.4,1.5 -98.8,4.7 -147.9,10.1 -39.4,7.9 -78.1,21.6 -118.8,19.4 -25.2,-91.1 -2.6,-184.5 12.7,-275 -41.5,0 -83,0.6 -124.5,1.7 11.1,78.1 15.3,157.1 10.7,235.9 -1.5,14.6 -2.5,31 -12.8,42.3 -68.9,-16.6 -137.2,-41.4 -209,-40.7 -89,-1.2 -187.6,9 -255.3,73.4 -51.9,40.6 -89.3,110.3 -67.2,176.5 26.8,74.4 95.2,119.2 155.5,164.4 86.3,60 160,140.8 205.8,235.9 22.5,41.7 56.6,75.3 89.3,109 33.5,33.8 67.3,69 110.5,90.5 M 3637.6,8292.6 c 20.8,39.6 71.8,39.8 110.3,34.2 31.6,-5.9 70.2,-21.2 76,-57.2 6.2,-21.1 -5,-41.4 -14.4,-59.7 -24.7,-46.5 -65,-81.4 -102.8,-116.9 -24.3,-22 -47.4,-48.6 -81.1,-55.3 -13.3,83.7 -30.7,176.7 12,254.9 m -417.1,-303.9 c 74.5,-15.8 147.5,-44.2 209.3,-89.4 26.5,-20.3 56.8,-49.4 47.4,-86.5 -9.9,-35.3 -49.2,-46.7 -80,-56.9 2.7,-82.8 -51.4,-150.9 -111.2,-201.7 -60.5,-52.3 -134.8,-93.3 -215.7,-99.8 -54.9,-0.5 -114.8,10.4 -156.2,49.3 -16.2,14.8 -17.7,41 -7.7,59.5 35.4,43.8 86.7,69.9 136.6,93.8 100.7,45.5 205.5,81.4 312.1,110.6 -22.1,39.4 -59.1,67.3 -82.1,105.9 -21.4,36.4 -48.1,71.8 -52.5,115.2 m 344.8,-313.8 c 31.2,19.6 64.5,35.8 99.4,47.6 0.7,-52.3 -20.6,-100.6 -35.8,-149.5 -16.8,-51.2 -47.5,-100.5 -93.5,-129.9 -46,-28.1 -103.9,1.9 -129.8,43.5 -16.5,18.5 -9.6,46.3 3.7,64.4 37.7,56.7 99.2,89.7 156,123.9 m 2035.5,-876.8 c 10.5,35.5 18.5,73 40.8,103.5 47,-163.1 91.1,-327.1 138.3,-490.1 -43.5,-7 -87.5,-6.7 -131.3,-4.9 -12.3,0.3 -24.6,0.7 -36.7,1 -42.3,2.7 -84.6,4.4 -126.9,3.2 5.8,77.6 41.8,147.8 62.9,221.6 15.1,56.1 38.2,109.5 52.9,165.7 m 896.2,97.7 c 4.1,0.2 12.1,0.6 16.1,0.8 29.1,-109.2 58,-218.6 92,-326.4 12.8,-54.7 32.5,-108.4 34.1,-165.1 -40.2,0.9 -80.5,0.8 -120.7,0.4 -12.5,0 -25,-0.1 -37.3,-0.2 -42.5,0.3 -85,-0.2 -127.4,1.1 4.3,54.8 26.7,105.5 42.4,157.5 37.3,109.5 67.1,221.3 100.8,331.9 M 6054.3,6395 c 2.9,0.2 8.6,0.6 11.5,0.8 46.8,-160.4 91.4,-321.4 133.7,-483 -43.6,-1 -87.3,0.7 -130.9,0.3 -12.1,0 -24.3,0 -36.3,-0.2 -41.6,-1 -83.1,0.5 -124.6,2.9 2.4,40.5 19.6,77.7 30.5,116.2 37.7,121.3 77,242.2 116.1,363 m -458.5,-580 c 17.7,45.1 25.8,94.1 50.7,136.3 40.2,-132.9 76,-267 115.8,-399.9 8.4,-27.3 13.9,-55.3 17.8,-83.6 -40.7,-2.6 -81.4,-1.9 -122.1,-1.4 -12.2,0.3 -24.4,0.4 -36.4,0.4 -44,0.3 -87.9,-1.6 -131.7,1.9 7,63.3 35.7,120.7 52.6,181.4 14.5,56 35.8,109.8 53.3,164.9 m 895.7,82.8 c 4.9,15.9 13.3,30.2 23.1,43.5 48.4,-159.8 90.5,-321.4 133.7,-482.6 -43.2,-6 -86.8,-5.4 -130.1,-3.8 -12,0.5 -23.9,0.8 -35.7,1 -43.5,1.9 -88.5,-6.4 -130.2,9.3 48.4,143.6 90,289.3 139.2,432.6 m -427.9,-445.2 c 25.1,-57.2 36,-119.3 57.7,-177.9 21.6,-101.9 60.6,-199.3 78.2,-302 -43.6,-4 -87.5,-4.2 -131.2,-3.9 -12.3,0.4 -24.5,0.9 -36.6,1.4 -40.6,2.5 -81.3,1.7 -121.9,4.1 2.5,45.5 22.6,86.9 37.1,129.4 16.9,47.4 25.3,97.4 44.5,144 26.7,67.4 40.1,139.6 72.2,204.9 m -434,-460.9 c 3.4,1.5 10.2,4.6 13.6,6.1 22.9,-75.6 47.1,-151 66.5,-227.6 20.6,-79.8 51.7,-157 64.9,-238.7 -42.2,0.8 -84.4,3.4 -126.6,3.7 -12.2,0.4 -24.3,0.7 -36.4,1 -40.2,2.5 -80.4,2.5 -120.6,1.4 -3.8,40.7 13.3,78.7 25,116.6 38.3,112.4 75.5,225.1 113.6,337.5 m 864.5,-14.1 c 4.6,-0.2 13.6,-0.5 18.1,-0.7 22.8,-104 59.5,-204.3 83.4,-308.1 10.6,-52.2 37,-101.2 36.7,-155.5 -41.4,-0.9 -82.6,2.1 -123.9,1.4 -12.3,0 -24.5,0 -36.7,-0.1 -41.4,0.6 -82.8,0.9 -124.2,0.8 1,30 10.4,58.5 20.7,86.2 44.2,124.6 80,252 125.9,376 m -441.2,-455 c 25.3,-52.2 32.7,-110.8 51.4,-165.5 27.5,-104 62.6,-206.3 82,-312.3 -42.6,-1.7 -85.2,0.6 -127.7,1.2 -12.5,0.4 -24.8,0.8 -37.1,1.2 -40.3,2.1 -80.6,4.6 -120.9,7.3 2.3,47.9 24.5,90.9 39.7,135.4 36.3,111.3 73.3,222.5 112.6,332.7 m -442.2,-472.3 c 4.4,17.6 16.9,30.5 31,40.9 38.2,-150.8 93,-297.3 124.5,-449.9 -42.6,0.1 -85.3,-0.9 -127.8,1 -12.2,0.6 -24.2,1.2 -36.2,1.8 -40.1,3.1 -80.3,5.9 -120.5,4.3 12.6,76.4 45.7,147 68.2,220.7 17.7,61.2 41.6,120.4 60.8,181.2 m 873.1,23.9 c 2.7,0 8.1,0.2 10.8,0.3 27.1,-93.7 55.2,-187.3 78.6,-282.1 15.7,-59.8 36.3,-118.4 46.5,-179.6 -40.5,-1 -81,-2.3 -121.5,-4 -12.3,0 -24.5,0.1 -36.6,0.4 -43.2,3 -86.4,2.5 -129.5,5.2 12.8,63.8 37.7,124.1 59,185.2 31,91.5 62.3,183 92.7,274.6 m -447.1,-457.9 c 4.3,0.1 12.8,0.4 17.1,0.6 13.9,-72.3 39.9,-141.3 58.6,-212.2 18,-81 47.8,-158.9 62.9,-240.5 -42.2,-3 -84.6,-0.5 -126.8,0.9 -12.1,0.5 -24.2,0.8 -36.2,1 -41,0.8 -81.7,4.9 -122.4,8.7 36.2,151.1 104.8,292.1 146.8,441.5 m -474.2,-578 c 25.1,63.4 38.6,131.6 72.1,191.4 40.7,-121.1 72.2,-245 108.3,-367.5 10.1,-30.5 18.2,-61.9 21.8,-94.1 -42.1,-2.2 -84.3,-2.4 -126.2,2.5 -12,1.2 -24,2.2 -35.9,2.9 -40.3,2.9 -80.7,3.8 -121.1,4.4 13.7,90.4 53.5,173.8 81,260.4 m 918.3,154.4 c 43,-105.2 59.5,-218.5 95.6,-325.9 13.3,-43.9 25.7,-88.2 33.6,-133.5 -40.6,-2.4 -81.4,-1.5 -122,-0.4 -12.2,0.4 -24.4,0.6 -36.5,0.8 -41.2,1.3 -82.4,2.5 -123.6,2.1 0.7,46 18.2,89.2 34.9,131.2 39.6,108.5 72.5,219.5 118,325.7 m 2547.9,-1583 c 5.8,1.6 17.4,4.9 23.2,6.5 -5.8,-1.6 -17.4,-4.9 -23.2,-6.5 M 5714.5,779.102 c 0.4,17.199 5.3,19.097 14.6,5.699 -3.6,-1.403 -10.9,-4.301 -14.6,-5.699"
         inkscape:connector-curvature="0"
         id="path20"
         style="fill:#09a53a;fill-opacity:1;fill-rule:nonzero;stroke:none" /><path
         d="m 2713.7,8764.9 c 382,9.4 764.4,-1 1146.3,7.9 546.8,1.7 1093.5,0.9 1640.2,1.2 79.9,-2.8 159.7,-6.8 239.7,-4.8 139.9,9.1 280.1,3.2 420.1,4.7 250.1,-1.4 500.1,2.7 750.1,-3.5 106.6,2.3 213.3,2.6 319.9,1.2 226.5,-7.1 453.2,0.4 679.7,-4.6 163.3,-6.1 326.9,2.1 490.3,-5.3 193.3,7 386.7,-4.6 580.1,0.2 207.8,-4.2 415.8,-3.5 623.6,-5.5 111.3,-5.7 223,2.4 334.3,-4.8 4.6,-0.5 13.8,-1.5 18.4,-2.1 1.3,-203.2 -1.1,-406.5 0.9,-609.8 9.6,-77 8.1,-154.7 16.2,-231.8 17.3,-219.6 43.6,-438.9 87.3,-654.9 7.7,-43.7 24.1,-86.9 19.9,-132 -126.9,5 -253.9,5 -380.9,4.6 -329.9,8.4 -659.9,1 -989.8,7.3 -373.1,12.7 -746.7,5.3 -1120,7.1 -150.3,-2.7 -300.4,6.4 -450.5,0.1 -66.7,-2 -136,13 -200.5,-9.5 -38.2,-14 -79.4,-6.1 -119,-7.2 -533.3,0.1 -1066.7,-0.1 -1600,0.1 -42.8,0.6 -86.2,-5 -128.4,4.4 -102.8,16.9 -207.8,11 -311.6,12.1 -86.5,1.1 -173.1,-1.9 -259.6,1.4 -143.4,6.5 -287.1,3.5 -430.7,4.7 -121.5,8.3 -243.3,-0.3 -364.8,7.3 -68.4,4.6 -136.9,0.5 -205.3,2.6 -136.6,10.6 -273.8,-2.3 -410.5,8.5 -110.9,1.3 -221.8,1.4 -332.5,9 -251.6,2.6 -502.8,19 -754.5,17 37.6,184.7 62.4,371.8 78.9,559.5 2,80.2 16.1,159.7 12.4,240 -3.6,183.2 8.8,367.1 -9.9,549.7 -3.5,72.5 -12.8,144.6 -21.1,216.7 162.5,0.9 325,-0.1 487.6,0.2 48,-1.9 96.3,-0.9 143.7,8.3 m 343,-222.1 c -4.1,-103.3 10.1,-222.4 91.5,-295.4 55.7,-46.8 131.2,-28.6 196.4,-19.3 -3.4,-46 -3.3,-97.4 29.8,-133.8 39.2,-42.4 87,-81.9 144.4,-95.6 27.1,-67.5 75.9,-122.9 121.7,-178.3 69.5,-77.2 143.7,-152.4 233.1,-206.7 70.7,-46.3 152.7,-82.6 238.6,-82.3 -24.9,17 -52.6,29 -80.6,39.8 -106.6,41.6 -209.4,98.3 -291.9,178.5 -63.1,61 -125.7,124.7 -168.1,202.3 -10,14.5 -16.3,35.4 -34.5,41.3 35,58.3 5.2,126.6 -21.3,181.7 -22,53.5 -74.5,93.5 -133.1,94.9 -12.5,76.6 -80.2,121.9 -137.4,165.2 -59.2,41.7 -119.5,84.3 -188.6,107.7 m 5492.5,-51.1 c -43.2,-21.5 -77,-56.7 -110.5,-90.5 -32.7,-33.7 -66.8,-67.3 -89.3,-109 -45.8,-95.1 -119.5,-175.9 -205.8,-235.9 -60.3,-45.2 -128.7,-90 -155.5,-164.4 -22.1,-66.2 15.3,-135.9 67.2,-176.5 67.7,-64.4 166.3,-74.6 255.3,-73.4 71.8,-0.7 140.1,24.1 209,40.7 10.3,-11.3 11.3,-27.7 12.8,-42.3 4.6,-78.8 0.4,-157.8 -10.7,-235.9 41.5,-1.1 83,-1.7 124.5,-1.7 -15.3,90.5 -37.9,183.9 -12.7,275 40.7,2.2 79.4,-11.5 118.8,-19.4 49.1,-5.4 98.5,-8.6 147.9,-10.1 70.9,5.1 149.9,15.3 201.1,70.2 43,45.9 79.9,106.6 71.3,172.1 -5.3,66.2 -55.1,118.1 -108.6,151.9 -44.9,19.8 -92.4,33.3 -140.4,43.3 -1.5,97.6 0.6,198.8 -36.7,290.9 -17.5,60.8 -61.1,114.4 -119.3,139.9 -72.3,20.9 -151.9,8.9 -218.4,-24.9 m -2708.8,-34.8 c -7.6,-101.4 5.3,-203.1 -2.4,-304.5 -38.5,-11.8 -78.8,-3.5 -118.1,-3.9 -61.7,3.4 -123.5,0.1 -185.2,2.8 -6.9,71.5 -2.5,143.3 -6.8,214.9 -109.1,10.1 -218.8,-1.1 -328.1,4.4 -37.2,1.1 -74.3,-4.1 -111.4,-4.1 -6.9,-78.7 -1.9,-157.8 -0.8,-236.7 4.8,-156.4 0.7,-313 3,-469.5 4.6,-50 4.7,-100.2 3.2,-150.3 41.5,-9.5 84.2,-4 126.4,-4.6 153.3,0.3 306.6,0.8 459.8,4.5 400.5,-1.5 800.8,0.7 1201.3,-0.7 9.7,96.8 -3.7,193.9 2.7,290.8 -0.6,186.5 2,372.8 2,559.3 -31.6,7.8 -64.1,6.7 -96.2,7 -116.7,0.1 -233.4,-1.1 -350,-0.4 -9.9,-71.1 -1.7,-143.3 -4.4,-214.9 -95.8,0.9 -191.7,-11.4 -287.2,0.3 -3.8,50 -1.5,100.2 -5.7,150.2 4.3,52.4 2.4,105 -5.3,156.9 -98.9,0.7 -197.8,0 -296.8,-1.5 M 3637.6,8292.6 c -42.7,-78.2 -25.3,-171.2 -12,-254.9 33.7,6.7 56.8,33.3 81.1,55.3 37.8,35.5 78.1,70.4 102.8,116.9 9.4,18.3 20.6,38.6 14.4,59.7 -5.8,36 -44.4,51.3 -76,57.2 -38.5,5.6 -89.5,5.4 -110.3,-34.2 m -417.1,-303.9 c 4.4,-43.4 31.1,-78.8 52.5,-115.2 23,-38.6 60,-66.5 82.1,-105.9 -106.6,-29.2 -211.4,-65.1 -312.1,-110.6 -49.9,-23.9 -101.2,-50 -136.6,-93.8 -10,-18.5 -8.5,-44.7 7.7,-59.5 41.4,-38.9 101.3,-49.8 156.2,-49.3 80.9,6.5 155.2,47.5 215.7,99.8 59.8,50.8 113.9,118.9 111.2,201.7 30.8,10.2 70.1,21.6 80,56.9 9.4,37.1 -20.9,66.2 -47.4,86.5 -61.8,45.2 -134.8,73.6 -209.3,89.4 m 344.8,-313.8 c -56.8,-34.2 -118.3,-67.2 -156,-123.9 -13.3,-18.1 -20.2,-45.9 -3.7,-64.4 25.9,-41.6 83.8,-71.6 129.8,-43.5 46,29.4 76.7,78.7 93.5,129.9 15.2,48.9 36.5,97.2 35.8,149.5 -34.9,-11.8 -68.2,-28 -99.4,-47.6 M 1714.3,5860 c 11.8,129.3 20.7,261.8 67.8,384.1 323.3,-165.9 665.5,-294.7 1017.8,-384.1 378.2,-96.8 771.2,-129.6 1160.7,-111.8 117,12.9 235.6,18.7 349.4,51.4 279.3,62.8 545.9,178.9 782.1,340.7 11.3,-53.6 19.7,-108.8 9.4,-163.4 -11.9,-58.7 3.4,-118 -2,-177.1 -6.4,-81.8 -0.3,-163.9 -3,-245.9 -4.5,-3 -13.7,-8.9 -18.3,-11.9 -204.5,-121.8 -429.9,-206.6 -661.6,-260 -253.3,-64.1 -516.2,-79.2 -776.5,-76.1 -70.1,1.2 -140.3,-3 -210.1,4.2 -74.4,7.5 -149.6,4.9 -223.5,17.3 -191.1,27.1 -382.4,57 -568.1,110.9 -63.1,11.8 -121.6,39 -183.6,54.7 -250.9,70.1 -488.4,179.1 -724.9,286.4 -21.4,57.7 -19.3,120.3 -15.6,180.6 m 8613,290.5 c 15.7,-45.9 7.9,-95.4 17.1,-142.5 11,-55.6 2.4,-112.6 12.7,-168.2 13.6,-89.2 18.7,-179.3 24.7,-269.2 -386,-173 -790.4,-304.9 -1205.1,-388.5 -197.6,-33.1 -397.1,-55.5 -597.5,-59.8 -89.9,-6.2 -179.4,6.2 -269.3,3.3 -121.7,-3.5 -242.1,16.1 -362.4,31.7 -117.4,19.3 -235,39.2 -349.9,70.4 -183.6,56.7 -366.6,120.2 -534.7,214.2 -28.7,14.9 -57.7,29.3 -85.6,45.5 -19.2,10.4 -25.8,31.5 -24.6,52 0.3,187.2 1.3,374.5 -0.4,561.7 268.6,-187.5 579.6,-309.6 898.8,-378.7 79.2,-8.5 156.3,-31.7 236.3,-34 339.4,-31.5 682.8,-13.1 1017.9,47.8 201.6,37.1 399,93.1 594.2,154.9 212.9,76.9 427.5,153.1 627.8,259.4 M 4108.8,4200.6 c 356.5,62.1 704.8,195.1 995.9,412.7 4.5,-199.5 1.9,-399.3 1.4,-598.9 -338.3,-180 -713.7,-292.1 -1096.3,-318.7 -63.7,-0.4 -126.4,-13.1 -190,-14.5 -116.6,-2.8 -232.9,-13.8 -349.6,-10.7 -67,2.1 -134.1,-5.5 -200.8,3.6 -263.6,3.6 -525.5,40.6 -784.2,89.4 -59.5,9.8 -118.6,24.2 -179,27.8 l -6.2,0.3 c -44.4,53.4 -76.2,115.5 -114.6,173 -35.9,56.8 -81.3,107.5 -111.9,167.6 -53.1,112.4 -133,212.3 -169.9,331.9 447.5,-166.3 918,-280 1396.3,-298.5 73.4,3.4 146.3,-7.6 219.6,-5 78,8.1 156.6,0.3 234.6,6.9 118.2,11.4 237.8,10 354.7,33.1 M 6943.2,4360 c 1.6,58.2 -6.9,117.4 7.5,174.5 115.3,-90.5 243.9,-163.1 375.1,-228 245.5,-112.2 508.5,-183.6 774.7,-226.2 115.6,-17.7 232.8,-17.2 349.3,-24.6 123,1.1 246.5,-5.1 369.1,8.6 123.9,6 246.7,24.1 369.7,39 257.1,35.7 507.8,105.2 754.9,183 75.3,27.4 154.5,46.6 225.3,85 -29.7,-67.4 -59,-136.7 -107.3,-193.3 -66.4,-80.8 -105.2,-179.3 -166.9,-263.3 -49.7,-69.7 -74.7,-159.2 -143.3,-213.8 -243.6,-53.4 -490.5,-89.6 -738.4,-115.8 -103.9,-12.5 -208.4,-17.8 -312.9,-19.5 -279.9,-15.8 -561.3,2.5 -837.9,46.7 -275.3,57.4 -551.3,127.9 -803.7,255.3 -39.6,19.9 -77.9,42.4 -117.7,61.9 5.2,143.4 1.2,287 2.5,430.5"
         inkscape:connector-curvature="0"
         id="path22"
         style="fill:#f3f202;fill-opacity:1;fill-rule:nonzero;stroke:none" /></g></g></svg>