<?xml version="1.0" encoding="utf-8"?>
<!-- Generator: Adobe Illustrator 14.0.0, SVG Export Plug-In . SVG Version: 6.00 Build 43363)  -->
<svg version="1.2" baseProfile="tiny" id="Layer_1" xmlns:svg="http://www.w3.org/2000/svg"
	 xmlns="http://www.w3.org/2000/svg" xmlns:xlink="http://www.w3.org/1999/xlink" x="0px" y="0px" width="580px" height="573px"
	 viewBox="0 0 580 573" xml:space="preserve">
<path id="path5131" d="M286.288,560.095c0,0,13.601,9.619,41.137,9.619c16.592,0,21.904-6.963,21.904-6.963
	s28.856,1.33,39.479-19.906c0,0,43.798,0.336,56.73-29.525c0,0,0.668-5.656,9.293-7.967c8.625-2.318,35.831-10.623,40.806-40.479
	c0,0,37.502-23.893,36.167-57.726c0,0,2.656-8.625,10.944-16.261c8.294-7.631,15.935-20.237,15.935-33.842
	c0-13.601-6.314-19.906-6.314-19.906s14.263-17.577,14.263-41.81c0-14.258-8.615-25.539-8.615-25.539s6.301-16.583,4.317-38.822
	c-1.998-22.216-16.938-29.516-16.938-29.516s3.659-19.248-4.298-37.829c-7.958-18.576-23.564-25.217-23.564-25.217
	s-1.316-20.563-14.922-35.168c-13.609-14.594-27.546-15.588-27.546-15.588s-3.649-12.275-18.57-26.221
	c-14.94-13.927-33.507-14.921-33.507-14.921s-8.635-13.6-27.205-22.562c-18.581-8.961-34.837-3.323-34.837-3.323
	S338.049,3.715,316.481,3.715c-16.919,0-30.193,7.3-30.193,7.3s-13.269-7.3-30.188-7.3c-21.568,0-44.465,16.909-44.465,16.909
	s-16.256-5.638-34.837,3.323c-18.576,8.961-27.206,22.562-27.206,22.562s-18.575,0.994-33.506,14.921
	c-14.931,13.946-18.581,26.221-18.581,26.221s-13.937,0.994-27.527,15.588c-13.615,14.604-14.94,35.168-14.94,35.168
	s-15.589,6.642-23.546,25.217c-7.967,18.581-4.317,37.829-4.317,37.829s-14.931,7.3-16.928,29.516
	c-1.983,22.24,4.317,38.822,4.317,38.822S5.94,281.072,5.94,295.33c0,24.232,14.263,41.81,14.263,41.81s-6.305,6.306-6.305,19.906
	c0,13.604,7.631,26.211,15.934,33.842c8.289,7.636,10.945,16.261,10.945,16.261c-1.325,33.833,36.157,57.726,36.157,57.726
	c4.985,29.855,32.19,38.16,40.816,40.479c8.625,2.311,9.283,7.967,9.283,7.967c12.947,29.861,56.74,29.525,56.74,29.525
	c10.613,21.236,39.48,19.906,39.48,19.906s5.312,6.963,21.894,6.963C272.693,569.715,286.288,560.095,286.288,560.095"/>
<path id="path5133" fill="#EF4424" d="M187.121,465.616c12.938,7.295,22.531,17.175,22.531,17.175
	c20.573-0.994,30.519,4.644,30.519,4.644s5.969-2.478,13.105-2.478c14.931,0,33.012,9.44,33.012,9.44v-0.188v-23.628
	C242.402,470.583,211.092,468.986,187.121,465.616z"/>
<path id="path5135" fill="#EF4424" d="M154.71,433.459l-9.13-48.297l-20.886-72.25c-0.139-0.401-1.253-3.67-1.258-7.605
	c-0.063-4.752,1.833-10.834,9.278-12.984c1.01-0.297,2.144-0.453,3.349-0.453c6.125-0.057,14.335,4.248,15.809,15.969
	c0.213-0.005,0.454-0.01,0.72-0.01c2.131,0.006,5.848,0.207,9.265,1.563c3.4,1.319,6.625,4.027,7.043,8.747
	c0.069,0.75,0.104,1.471,0.104,2.161c0.007,2.504-0.458,4.621-1.269,6.362c1.017-0.18,1.978-0.266,2.885-0.266
	c4.295-0.02,7.361,2,9.35,4.672c1.756,2.336,2.8,5.146,3.536,7.711c1.465-0.438,4.235-1.129,7.288-1.228
	c1.319-1.319,3.268-3.606,4.37-6.492c0,0-4.418-1.768-8.184-9.95c0,0,0.442-2.873,8.399-3.756
	c7.967-0.898,14.82-2.666,22.346-11.496c0,0-1.772-3.113-9.293-3.996c-7.525-0.884-8.183-3.53-8.183-3.53
	s18.134-6.195,23.877-20.804c0,0-4.413-1.983-9.057-6.627c0,0-4.197,5.969-10.397,7.525c-6.195,1.542-8.625,6.853-8.625,6.853
	l-5.085-8.409c0,0-2.219,6.637-11.723,7.742c0,0-1.109-9.509-6.411-14.153c0,0-5.753,2.214-8.409,5.528
	c-2.656,3.313-7.083,2.439-7.083,2.439s-4.207-23.018,8.625-31.417c0,0-1.1-2.43-13.711-2.43c-12.606,0-27.643-10.844-27.643-26.543
	c0-7.516,2.2-18.581,13.274-24.333c0,0,1.979,3.77,1.763,6.416c-0.216,2.66,0.216,23.229,16.592,23.229
	c16.366,0,12.822-0.216,26.317-4.428l-5.081-6.637c0,0-23.008-0.667-30.303-21.236c0,0-2.214-5.076,3.755-7.069
	c5.969-1.988,22.562-8.851,42.693-20.794c20.126-11.948,31.407-20.122,38.486-25.443c7.074-5.302,8.399-4.634,16.583-4.634
	c8.184,0,17.879-2.291,24.333-5.753c2.881-1.551,8.841-2.438,8.841-2.438s0.848-5.57,4.428-12.096V74.739c0,0-1.32-0.029-4.98,1.296
	c-3.65,1.326-10.287,7.631-26.869,7.631c-16.592,0-22.898-4.308-22.898-4.308s-4.966,4.308-17.908,12.275
	c-12.942,7.958-28.531,6.964-28.531,6.964s-5.979,9.619-18.581,19.584c-12.616,9.941-22.562,10.608-22.562,10.608
	s-2.656,8.294-13.937,23.882c-11.281,15.598-20.242,18.254-20.242,18.254s-1.988,14.263-7.967,27.863
	c-5.969,13.615-13.927,20.9-13.927,20.9s1.32,12.621-0.667,29.204c-1.998,16.587-7.958,22.235-7.958,22.235
	s3.649,14.595,4.644,30.51c0.994,15.936-2.319,23.9-2.319,23.9s7.621,10.277,11.938,22.217c4.317,11.947,3.65,27.873,3.65,27.873
	s8.625,7.3,17.26,18.912c8.625,11.617,10.613,24.55,10.613,24.55s7.295,5.646,20.237,14.94c1.546,1.109,2.995,2.286,4.353,3.497
	C151.82,435.295,153.713,434.038,154.71,433.459z"/>
<path id="path5137" fill="#EF4424" d="M156.234,333.226c-2.739-0.003-4.216,0.073-4.947,0.142c-0.002,0.117-0.003,0.244-0.003,0.385
	c-0.006,1.667,0.213,4.82,1.438,7.408c1.265,2.588,3.242,4.588,7.345,4.625c0.039,0,0.079,0,0.119-0.002
	c-0.357-1.527-0.873-4.237-0.875-7.17c0.003-1.944,0.224-3.998,0.921-5.886C158.91,333.074,157.551,333.225,156.234,333.226z"/>
<path id="path5139" fill="#0556A5" d="M488.675,301.635c0.994-15.915,4.644-30.51,4.644-30.51s-5.979-5.647-7.967-22.235
	c-1.988-16.583-0.658-29.204-0.658-29.204s-7.967-7.285-13.937-20.9c-5.97-13.6-7.967-27.863-7.967-27.863
	s-8.961-2.656-20.242-18.254c-11.271-15.588-13.927-23.882-13.927-23.882s-9.951-0.667-22.563-10.608
	c-12.605-9.965-18.58-19.584-18.58-19.584s-15.598,0.994-28.531-6.964c-12.941-7.967-17.917-12.275-17.917-12.275
	s-6.306,4.308-22.888,4.308c-16.592,0-23.229-6.306-26.879-7.631c-3.65-1.325-4.976-1.296-4.976-1.296v38.079
	c3.3-6.016,8.919-12.843,18.361-16.876c0,0,4.201,3.981,5.302,10.181c0,0,5.753-7.967,16.592-11.065c0,0,4.87,7.295,7.083,16.15
	c0,0,10.176-1.114,16.592,1.983c0,0,10.834-2.881,18.576-5.312c7.741-2.425,13.937-3.313,10.387,9.082
	c-3.53,12.38-4.86,17.466-4.86,17.466s6.858,0.226,9.729,0c0,0-0.216,3.981,1.551,17.024c1.772,13.053,3.544,21.904,3.544,21.904
	s7.953,7.967,14.152,16.15c6.194,8.193,6.354,27.133,3.972,30.313c-1.315,1.758-2.42,0.207-2.42,0.207s7.948,16.808,10.83,31.187
	c2.872,14.378-0.884,22.562-5.302,23.662c0,0,1.546,3.103,1.546,5.537l-4.87-0.216c0,0-1.33,3.535,4.197,9.058
	c4.488,4.491,9.693,9.702,11.506,11.515c3.18-6.422,9.069-8.941,13.759-8.896c1.206,0,2.34,0.158,3.354,0.453
	c7.435,2.147,9.329,8.225,9.267,12.975c-0.005,3.958-1.131,7.244-1.262,7.62l-20.866,72.247l-9.148,48.296
	c0.999,0.58,2.895,1.838,5.081,4.071c1.361-1.213,2.813-2.392,4.363-3.502c12.933-9.293,20.232-14.94,20.232-14.94
	s1.992-12.933,10.607-24.55c8.635-11.612,17.255-18.912,17.255-18.912s-0.672-15.926,3.646-27.873
	c4.316-11.938,11.953-22.217,11.953-22.217S487.672,317.57,488.675,301.635z"/>
<path id="path5141" fill="#0556A5" d="M286.288,494.211c0,0,18.085-9.254,33.007-9.254c7.141,0,13.11,2.478,13.11,2.478
	s9.96-5.638,30.52-4.644c0,0,9.59-9.881,22.532-17.176c-23.975,3.371-55.285,4.968-99.168,4.968L286.288,494.211L286.288,494.211z"
	/>
<path id="path5143" fill="#FFC212" d="M193.727,542.177c0,0,10.277-3.65,19.57-9.292c9.288-5.638,18.244-9.288,27.206-11.276
	c8.961-1.982,15.267-1.661,20.578-0.657c5.307,0.993,4.639,0.993,4.639,0.993l-10.613,11.939c0,0-4.985,0.994-16.592,2.992
	c-11.612,1.988-15.93,4.966-15.93,4.966s3.991,1.662,10.623,1.34c6.637-0.336,12.27-0.672,12.27-0.672s-4.317,5.974-8.625,7.967
	c-4.308,1.998-10.608,5.639-21.231,3.986C205.008,552.801,199.029,549.808,193.727,542.177"/>
<path id="path5145" fill="#FFC212" d="M246.472,514.313c0,0-7.295,0.658-13.264,2.992c0,0-8.63-2.67-15.267-8.971
	c-6.637-6.296-8.289-13.605-8.289-19.565c0,0,7.953-0.332,17.25,1.652c9.283,1.988,17.917,5.312,22.226,8.625
	c4.317,3.328,8.293,9.956,8.293,9.956s-0.326,1.998-2.982,0.658c-2.656-1.325-8.625-4.64-14.931-6.291
	c-6.301-1.667-11.939-2.334-11.939-2.334s2.656,3.649,8.616,6.627C242.164,510.664,246.472,514.313,246.472,514.313"/>
<path id="path5147" fill="#FFC212" d="M206.002,528.908c0,0-9.956,7.967-27.542,5.638c-17.582-2.324-27.537-2.646-43.125-22.563
	c0,0,18.902-9.288,46.775-9.288s39.48,17.587,39.48,17.587l-6.296,1.997c0,0-12.606-1.997-24.881-3.649
	c-12.284-1.662-16.928-1.326-22.571-1.662c-5.638-0.336-6.306,1.325-2.325,2.319c3.986,0.994,20.242,3.322,27.215,4.308
	c6.963,1.004,15.252,3.65,15.252,3.65L206.002,528.908"/>
<path id="path5149" fill="#FFC212" d="M193.06,498.058c0,0-6.306-1.33-13.937-0.994c0,0-10.282-3.985-14.6-18.244
	c-4.308-14.281-1.325-16.592-1.325-16.592s19.248,2.979,39.154,21.895c0,0-0.336,6.301,0.994,11.28c0,0-5.647-3.648-10.95-7.299
	c-5.311-3.649-10.287-7.3-12.275-7.967c-1.993-0.658-0.667,1.662,1.331,3.659c1.988,1.988,15.262,14.585,15.262,14.585
	L193.06,498.058"/>
<path id="path5151" fill="#FFC212" d="M169.504,497.722c0,0-2.646,0.658-10.613-2.32c-7.967-2.991-19.906-6.963-28.531-10.622
	c-8.63-3.65-12.947-5.639-15.925-6.297c-2.992-0.667-4.653,0.994-0.994,2.646c3.641,1.662,38.15,18.581,38.15,18.581
	s-9.629,1.993-15.598,4.316c0,0-17.25-2.655-31.845-12.61c-15.295-10.426-15.598-11.281-18.254-24.55c0,0,20.237-2.987,41.137,1.329
	c20.91,4.317,30.198,14.273,35.84,21.236C168.51,496.396,169.504,497.722,169.504,497.722"/>
<path id="path5153" fill="#FFC212" d="M143.624,466.535c0,0-6.301-2.324-10.944-3.313c0,0-18.581-15.925-8.961-37.17
	c0,0,14.931,8.303,22.562,17.932c0,0-1.993,4.976,2.324,8.615c4.317,3.66,7.631,5.644,7.631,5.644s-0.994,4.308-0.336,8.625
	c0,0-9.619-9.951-13.6-13.61c-3.986-3.64-8.625-8.616-8.625-8.616s-1.988,0.994,0.668,4.317c2.646,3.313,11.938,15.915,13.6,18.245
	C149.593,469.521,143.624,466.535,143.624,466.535"/>
<path id="path5155" fill="#FFC212" d="M103.154,460.896c0,0-23.575,5.303-41.8-20.563c-10.287-14.619-13.279-19.584-11.948-29.203
	c0,0,26.869,0.994,44.451,13.927c17.586,12.942,22.566,20.578,23.892,24.896c1.316,4.308,0.994,7.958,0.994,7.958l-1.662,0.999
	c0,0-19.575-12.616-30.188-19.579c-10.618-6.964-12.28-8.294-14.926-9.62c-2.656-1.325-4.654,0.994,0,3.986
	c4.639,2.978,19.248,14.594,26.533,19.232c7.299,4.645,11.281,7.967,11.281,7.967H103.154"/>
<path id="path5157" fill="#FFC212" d="M66.978,407.148c0,0-11.939-2.323-18.576-2.991c0,0-2.646-8.29-10.282-16.915
	c-7.631-8.625-21.231-20.568-14.268-43.14c0,0,13.6,10.287,24.55,15.267c10.954,4.976,22.326,11.892,29.199,26.211
	c3.986,8.299,5.311,11.281,5.311,11.281s-0.994,7.963,0.327,13.938c0,0-32.844-32.854-37.483-37.492
	c-4.653-4.645-7.3-5.638-4.653-1.998c2.656,3.66,20.573,28.209,23.892,31.854c3.323,3.659,4.648,4.652,4.648,4.652L66.978,407.148"
	/>
<path id="path5159" fill="#FFC212" d="M115.75,431.036c0,0-8.625-17.918-12.275-24.882c-3.635-6.973-6.301-7.967-4.639-3.649
	c1.662,4.317,9.293,25.544,9.293,25.544s-6.315-4.75-13.61-9.619c-3.976-2.656-5.312-3.648-5.312-3.648s-5.302-19.57,4.649-35.168
	c0,0,8.961,5.643,16.261,18.911c7.295,13.265,8.947,19.57,8.947,19.57S116.423,425.393,115.75,431.036"/>
<path id="path5161" fill="#FFC212" d="M92.195,372.302c0,0-5.302,7.642-6.637,13.278c0,0-2.32,3.982-3.314-8.293
	s-2.982-24.213-3.313-26.543c-0.336-2.324-2.324-0.326-1.998,3.324c0.332,3.648,0.332,19.568,0.332,19.568
	s-4.966-5.969-10.608-10.623c0,0-6.306-17.908,10.608-35.158C77.264,327.857,92.531,346.438,92.195,372.302"/>
<path id="path5163" fill="#FFC212" d="M55.365,354.726c0,0-19.901-40.138-22.878-44.786c-2.992-4.645-4.654-4.322-2.992-0.328
	c1.662,3.981,18.244,42.459,18.244,42.459s-20.9-9.619-30.85-32.182c-9.956-22.563-0.994-38.486,1.325-43.788
	c0,0,10.292,14.589,17.913,19.901c7.631,5.307,15.262,14.595,20.573,26.543c5.302,11.938,5.638,13.938,5.638,13.938
	s-3.65,9.618-2.324,21.235L55.365,354.726"/>
<path id="path5165" fill="#FFC212" d="M45.083,294.345c0,0-9.619-41.81-11.612-48.437c-1.979-6.637-3.314-3.991-1.979,2.982
	c1.33,6.963,6.627,39.154,6.627,39.154s-12.942-9.297-17.25-19.575c-5.811-13.869-9.292-50.098,6.964-59.717
	c0,0,6.267,14.623,16.592,27.527c3.976,4.976,9.091,19.565,10.613,32.19c1.325,10.945,0.994,12.602,0.994,12.602
	s-4.644,10.287-5.638,20.237L45.083,294.345"/>
<path id="path5167" fill="#FFC212" d="M63.006,322.881c0,0-3.323-9.619-7.967-15.604c0,0-2.32-24.544,18.912-32.176
	c0,0,7.967,19.57,4.308,45.123c0,0-7.622,5.313-9.609,8.625c0,0-0.332-24.224-0.668-29.861c-0.331-5.647-1.988-1.662-2.319,3.986
	c-0.336,5.633-1.33,22.563-1.33,22.563L63.006,322.881"/>
<path id="path5169" fill="#FFC212" d="M61.018,269.791c0,0-0.332-8.63-3.981-20.9c0,0,2.646-22.898,25.208-27.542
	c0,0,4.976,22.571-5.969,43.797l-1.33,1.983l-7.967,3.328c0,0,3.328-17.922,4.317-24.213c1.003-6.315-2.32-2.656-3.645,2.319
	c-1.321,4.966-5.974,24.55-5.974,24.55L61.018,269.791"/>
<path id="path5171" fill="#FFC212" d="M45.42,227.319c0,0-10.287-11.603-12.597-24.214c-2.334-12.611-1.667-29.198,5.969-41.8
	c7.621-12.621,16.573-17.26,16.573-17.26s0.668,16.266,5.321,25.885c4.639,9.619,6.291,16.919,6.291,31.85
	c0,14.926-1.652,18.244-1.652,18.244s-8.961,8.298-11.281,18.912l-2.978-5.302c0,0-0.336-43.807-0.672-52.423
	c-0.331-8.625-2.987-2.329-2.987,4.98C47.408,193.486,45.42,227.319,45.42,227.319"/>
<path id="path5173" fill="#FFC212" d="M66.656,169.262c0,0-12.942-27.542-0.663-49.1c12.265-21.567,29.52-26.879,29.52-26.879
	s-1.657,14.594,0,24.56c1.662,9.95,2.666,24.881-6.306,46.117c0,0-12.601,7.299-18.234,18.571l-0.667-4.98
	c0,0,10.287-43.452,11.612-48.428c1.32-4.975,0.994-9.292-2.987,2.32c-3.986,11.617-11.281,39.159-11.281,39.159L66.656,169.262"/>
<path id="path5175" fill="#FFC212" d="M71.295,219.03c0,0,13.278-20.9,16.592-26.211c3.328-5.302-1.326-2.656-4.649,1.326
	c-3.318,3.986-10.94,13.937-10.94,13.937s1.321-11.281-0.667-19.57c0,0,14.595-22.562,32.849-16.256c0,0-3.323,23.551-16.924,40.806
	C87.556,213.06,79.262,214.722,71.295,219.03"/>
<path id="path5177" fill="#FFC212" d="M96.512,157.982c0,0,5.302-8.961,5.302-21.236c0,0,18.926-14.258,35.173-7.958
	c0,0-3.972,20.9-27.864,37.819c0,0-6.973-2.319-13.61-0.658c0,0,16.266-15.267,19.58-19.248c3.313-3.977,3.65-6.632-3.65,0
	c-7.295,6.637-15.598,13.269-15.598,13.269L96.512,157.982"/>
<path id="path5179" fill="#FFC212" d="M101.156,117.507c0,0-3.314-12.942,0.658-24.55c3.986-11.612,19.133-36.321,41.81-39.149
	c2.656-0.336,2.656-0.994,2.656-0.994s-3.981,8.947-4.317,16.914c-0.322,7.967-1.325,18.59-8.289,32.181
	c-6.963,13.615-12.275,18.254-12.275,18.254s-11.281,4.317-18.58,8.961c0,0,22.23-44.129,23.892-48.115
	c1.652-3.981,0.322-5.302-3.986,2.324c-4.317,7.631-21.231,36.162-21.231,36.162L101.156,117.507"/>
<path id="path5181" fill="#FFC212" d="M132.011,113.526c0,0,6.301-6.973,9.629-15.925c0,0,21.231-12.606,38.15-1.004
	c0,0-10.95,19.584-35.173,27.215c0,0-4.639-1.326-15.588-0.994c0,0,18.58-11.281,22.897-13.61c4.308-2.315,6.296-5.638,0.994-2.982
	c-5.312,2.656-22.562,10.282-22.562,10.282L132.011,113.526"/>
<path id="path5183" fill="#FFC212" d="M146.616,77.359c0,0,0.326-19.238,6.637-27.201c8.793-11.127,22.595-21.947,31.513-25.222
	c9.956-3.645,24.886-0.658,24.886-0.658s-8.63,10.282-12.611,23.892c-3.981,13.591-14.594,24.55-23.556,31.187
	c-8.961,6.637-9.956,6.637-9.956,6.637s-7.631-1.662-16.587,1.988l-1.988,0.994c0,0,31.844-36.499,35.831-40.806
	c3.981-4.317,4.317-7.967,0.331-4.654C177.135,46.845,146.616,77.359,146.616,77.359"/>
<path id="path5185" fill="#FFC212" d="M176.467,82.671c0,0,15.929-9.951,19.579-20.237c0,0,22.562-0.336,30.855,12.942
	c0,0-15.598,17.582-39.816,18.576c0,0-5.307-4.975-10.945-5.969c0,0,23.22-7.967,27.537-9.293c4.308-1.33,2.982-2.656-4.976-0.667
	C190.745,80.015,176.467,82.671,176.467,82.671"/>
<path id="path5187" fill="#FFC212" d="M204.671,45.851c0,0,1.988-8.303,6.306-14.931c4.317-6.642,15.925-13.946,19.248-15.276
	c3.304-1.316,3.972-1.652,3.972-1.652l8.625,9.956L204.671,45.851"/>
<path id="path5189" fill="#FFC212" d="M244.488,26.266c0,0,7.295,6.642,9.619,10.287c0,0-12.947,12.275-18.917,17.255
	c-5.97,4.975-16.256,7.621-16.256,7.621s-5.969-4.97-18.244-4.308L244.488,26.266"/>
<path id="path5191" fill="#FFC212" d="M237.515,58.447c0,0,9.292-6.627,12.606-10.613c3.323-3.981,6.305-5.969,6.305-5.969
	l5.97,4.644c0,0-1.988,8.289-7.29,16.914L237.515,58.447"/>
<path id="path5193" fill="#FFC212" d="M252.119,66.751c0,0-1.662,8.289-12.942,8.289c-4.317,0-4.644,0.336-4.644,0.336
	s-2.319-5.979-8.961-9.956l6.642-2.656L252.119,66.751"/>
<path id="path5195" fill="#FFC212" d="M378.854,542.177c0,0-10.287-3.65-19.569-9.292c-9.298-5.638-18.255-9.288-27.216-11.276
	c-8.961-1.982-15.252-1.661-20.563-0.657c-5.303,0.993-4.645,0.993-4.645,0.993l10.613,11.939c0,0,4.975,0.994,16.603,2.992
	c11.593,1.988,15.91,4.966,15.91,4.966s-3.98,1.662-10.608,1.34c-6.643-0.336-12.275-0.672-12.275-0.672s4.309,5.974,8.625,7.967
	c4.309,1.998,10.613,5.639,21.223,3.986C367.572,552.801,373.543,549.808,378.854,542.177"/>
<path id="path5197" fill="#FFC212" d="M326.1,514.313c0,0,7.31,0.658,13.278,2.992c0,0,8.625-2.67,15.252-8.971
	c6.642-6.296,8.294-13.605,8.294-19.565c0,0-7.958-0.332-17.255,1.652c-9.283,1.988-17.908,5.312-22.227,8.625
	c-4.308,3.328-8.294,9.956-8.294,9.956s0.336,1.998,2.992,0.658c2.656-1.325,8.625-4.64,14.931-6.291
	c6.306-1.667,11.938-2.334,11.938-2.334s-2.646,3.649-8.625,6.627C330.418,510.664,326.1,514.313,326.1,514.313"/>
<path id="path5199" fill="#FFC212" d="M366.569,528.908c0,0,9.966,7.967,27.542,5.638c17.597-2.324,27.537-2.646,43.136-22.563
	c0,0-18.902-9.288-46.785-9.288c-27.863,0-39.48,17.587-39.48,17.587l6.306,1.997c0,0,12.61-1.997,24.886-3.649
	c12.26-1.662,16.923-1.326,22.562-1.662c5.644-0.336,6.312,1.325,2.319,2.319c-3.981,0.994-20.242,3.322-27.206,4.308
	c-6.963,1.004-15.271,3.65-15.271,3.65L366.569,528.908"/>
<path id="path5201" fill="#FFC212" d="M379.525,498.058c0,0,6.302-1.33,13.928-0.994c0,0,10.286-3.985,14.594-18.244
	c4.316-14.281,1.335-16.592,1.335-16.592s-19.248,2.979-39.154,21.895c0,0,0.336,6.301-0.994,11.28c0,0,5.639-3.648,10.95-7.299
	c5.302-3.649,10.277-7.3,12.275-7.967c1.974-0.658,0.667,1.662-1.33,3.659c-1.983,1.988-15.252,14.585-15.252,14.585
	L379.525,498.058"/>
<path id="path5203" fill="#FFC212" d="M403.072,497.722c0,0,2.651,0.658,10.618-2.32c7.958-2.991,19.911-6.963,28.536-10.622
	c8.625-3.65,12.934-5.639,15.92-6.297c2.992-0.667,4.645,0.994,0.994,2.646c-3.65,1.662-38.15,18.581-38.15,18.581
	s9.619,1.993,15.59,4.316c0,0,17.25-2.655,31.858-12.61c15.291-10.426,15.588-11.281,18.235-24.55c0,0-20.232-2.987-41.133,1.329
	c-20.9,4.317-30.197,14.273-35.831,21.236C404.062,496.396,403.072,497.722,403.072,497.722"/>
<path id="path5205" fill="#FFC212" d="M428.958,466.535c0,0,6.296-2.324,10.944-3.313c0,0,18.581-15.925,8.961-37.17
	c0,0-14.939,8.303-22.57,17.932c0,0,1.998,4.976-2.32,8.615c-4.308,3.66-7.626,5.644-7.626,5.644s0.994,4.308,0.326,8.625
	c0,0,9.62-9.951,13.61-13.61c3.976-3.64,8.614-8.616,8.614-8.616s1.998,0.994-0.658,4.317c-2.655,3.313-11.947,15.915-13.601,18.245
	C422.987,469.521,428.958,466.535,428.958,466.535"/>
<path id="path5207" fill="#FFC212" d="M469.427,460.896c0,0,23.565,5.303,41.81-20.563c10.282-14.619,13.27-19.584,11.944-29.203
	c0,0-26.879,0.994-44.456,13.927c-17.586,12.942-22.562,20.578-23.892,24.896c-1.326,4.308-1.004,7.958-1.004,7.958l1.661,0.999
	c0,0,19.575-12.616,30.198-19.579c10.613-6.964,12.274-8.294,14.931-9.62c2.655-1.325,4.639,0.994,0,3.986
	c-4.635,2.978-19.248,14.594-26.548,19.232c-7.29,4.645-11.28,7.967-11.28,7.967H469.427"/>
<path id="path5209" fill="#FFC212" d="M505.604,407.148c0,0,11.93-2.323,18.571-2.991c0,0,2.641-8.29,10.287-16.915
	c7.631-8.625,21.23-20.568,14.258-43.14c0,0-13.601,10.287-24.545,15.267c-10.95,4.976-22.327,11.892-29.204,26.211
	c-3.972,8.299-5.302,11.281-5.302,11.281s0.994,7.963-0.332,13.938c0,0,32.849-32.854,37.478-37.492
	c4.645-4.645,7.31-5.638,4.645-1.998c-2.646,3.66-20.555,28.209-23.877,31.854c-3.319,3.659-4.635,4.652-4.635,4.652
	L505.604,407.148"/>
<path id="path5211" fill="#FFC212" d="M456.82,431.036c0,0,8.625-17.918,12.284-24.882c3.641-6.973,6.296-7.967,4.64-3.649
	c-1.662,4.317-9.283,25.544-9.283,25.544s6.305-4.75,13.604-9.619c3.973-2.656,5.297-3.648,5.297-3.648s5.313-19.57-4.639-35.168
	c0,0-8.961,5.643-16.261,18.911c-7.305,13.265-8.957,19.57-8.957,19.57S456.163,425.393,456.82,431.036"/>
<path id="path5213" fill="#FFC212" d="M480.386,372.302c0,0,5.302,7.642,6.627,13.278c0,0,2.324,3.982,3.313-8.293
	c1.004-12.275,2.991-24.213,3.327-26.543c0.322-2.324,2.329-0.326,1.983,3.324c-0.331,3.648-0.331,19.568-0.331,19.568
	s4.975-5.969,10.623-10.623c0,0,6.301-17.908-10.623-35.158C495.308,327.857,480.041,346.438,480.386,372.302"/>
<path id="path5215" fill="#FFC212" d="M517.211,354.726c0,0,19.906-40.138,22.884-44.786c2.992-4.645,4.653-4.322,2.992-0.328
	c-1.652,3.981-18.254,42.459-18.254,42.459s20.91-9.619,30.859-32.182c9.946-22.563,0.984-38.486-1.335-43.788
	c0,0-10.268,14.589-17.913,19.901c-7.631,5.307-15.252,14.595-20.563,26.543c-5.313,11.938-5.633,13.938-5.633,13.938
	s3.635,9.618,2.31,21.235L517.211,354.726"/>
<path id="path5217" fill="#FFC212" d="M527.487,294.345c0,0,9.63-41.81,11.612-48.437c1.998-6.637,3.318-3.991,1.998,2.982
	c-1.325,6.963-6.637,39.154-6.637,39.154s12.941-9.297,17.241-19.575c5.819-13.869,9.292-50.098-6.954-59.717
	c0,0-6.268,14.623-16.592,27.527c-3.981,4.976-9.087,19.565-10.623,32.19c-1.316,10.945-1.004,12.602-1.004,12.602
	s4.663,10.287,5.657,20.237L527.487,294.345"/>
<path id="path5219" fill="#FFC212" d="M509.574,322.881c0,0,3.305-9.619,7.959-15.604c0,0,2.334-24.544-18.902-32.176
	c0,0-7.967,19.57-4.309,45.123c0,0,7.632,5.313,9.61,8.625c0,0,0.331-24.224,0.667-29.861c0.336-5.647,1.988-1.662,2.319,3.986
	c0.336,5.633,1.32,22.563,1.32,22.563L509.574,322.881"/>
<path id="path5221" fill="#FFC212" d="M511.563,269.791c0,0,0.336-8.63,3.981-20.9c0,0-2.666-22.898-25.218-27.542
	c0,0-4.976,22.571,5.975,43.797l1.325,1.983l7.977,3.328c0,0-3.323-17.922-4.316-24.213c-1.003-6.315,2.31-2.656,3.649,2.319
	c1.326,4.966,5.97,24.55,5.97,24.55L511.563,269.791"/>
<path id="path5223" fill="#FFC212" d="M527.162,227.319c0,0,10.286-11.603,12.61-24.214c2.319-12.611,1.662-29.198-5.979-41.8
	c-7.636-12.621-16.583-17.26-16.583-17.26s-0.683,16.266-5.313,25.885c-4.644,9.619-6.296,16.919-6.296,31.85
	c0,14.926,1.652,18.244,1.652,18.244s8.961,8.298,11.271,18.912l2.992-5.302c0,0,0.322-43.807,0.667-52.423
	c0.322-8.625,2.979-2.329,2.979,4.98C525.164,193.486,527.162,227.319,527.162,227.319"/>
<path id="path5225" fill="#FFC212" d="M505.93,169.262c0,0,12.933-27.542,0.658-49.1c-12.267-21.567-29.525-26.879-29.525-26.879
	s1.662,14.594,0,24.56c-1.662,9.95-2.656,24.881,6.301,46.117c0,0,12.621,7.299,18.245,18.571l0.672-4.98
	c0,0-10.286-43.452-11.616-48.428c-1.326-4.975-0.994-9.292,2.991,2.32c3.973,11.617,11.281,39.159,11.281,39.159L505.93,169.262"/>
<path id="path5227" fill="#FFC212" d="M501.286,219.03c0,0-13.278-20.9-16.593-26.211c-3.322-5.302,1.325-2.656,4.645,1.326
	c3.313,3.986,10.945,13.937,10.945,13.937s-1.316-11.281,0.666-19.57c0,0-14.604-22.562-32.848-16.256
	c0,0,3.313,23.551,16.914,40.806C485.016,213.06,493.318,214.722,501.286,219.03"/>
<path id="path5229" fill="#FFC212" d="M476.06,157.982c0,0-5.302-8.961-5.302-21.236c0,0-18.912-14.258-35.173-7.958
	c0,0,3.985,20.9,27.873,37.819c0,0,6.963-2.319,13.604-0.658c0,0-16.251-15.267-19.574-19.248c-3.322-3.977-3.659-6.632,3.65,0
	c7.299,6.637,15.588,13.269,15.588,13.269L476.06,157.982"/>
<path id="path5231" fill="#FFC212" d="M471.416,117.507c0,0,3.313-12.942-0.658-24.55c-3.978-11.612-19.119-36.321-41.8-39.149
	c-2.665-0.336-2.665-0.994-2.665-0.994s3.991,8.947,4.316,16.914c0.347,7.967,1.335,18.59,8.289,32.181
	c6.974,13.615,12.285,18.254,12.285,18.254s11.281,4.317,18.581,8.961c0,0-22.226-44.129-23.892-48.115
	c-1.662-3.981-0.332-5.302,3.985,2.324c4.309,7.631,21.236,36.162,21.236,36.162L471.416,117.507"/>
<path id="path5233" fill="#FFC212" d="M440.564,113.526c0,0-6.306-6.973-9.608-15.925c0,0-21.246-12.606-38.175-1.004
	c0,0,10.959,19.584,35.183,27.215c0,0,4.644-1.326,15.589-0.994c0,0-18.581-11.281-22.888-13.61
	c-4.317-2.315-6.312-5.638-0.999-2.982c5.307,2.656,22.562,10.282,22.562,10.282L440.564,113.526"/>
<path id="path5235" fill="#FFC212" d="M425.975,77.359c0,0-0.331-19.238-6.637-27.201c-8.813-11.127-22.61-21.947-31.532-25.222
	c-9.956-3.645-24.881-0.658-24.881-0.658S371.56,34.56,375.53,48.17c3.995,13.591,14.604,24.55,23.565,31.187
	c8.952,6.637,9.946,6.637,9.946,6.637s7.631-1.662,16.602,1.988l1.983,0.994c0,0-31.846-36.499-35.84-40.806
	c-3.981-4.317-4.309-7.967-0.332-4.654C395.437,46.845,425.975,77.359,425.975,77.359"/>
<path id="path5237" fill="#FFC212" d="M396.108,82.671c0,0-15.925-9.951-19.574-20.237c0,0-22.563-0.336-30.865,12.942
	c0,0,15.603,17.582,39.815,18.576c0,0,5.321-4.975,10.945-5.969c0,0-23.22-7.967-27.537-9.293c-4.316-1.33-2.981-2.656,4.985-0.667
	C381.846,80.015,396.108,82.671,396.108,82.671"/>
<path id="path5239" fill="#FFC212" d="M367.91,45.851c0,0-1.998-8.303-6.315-14.931c-4.308-6.642-15.925-13.946-19.229-15.276
	c-3.322-1.316-3.98-1.652-3.98-1.652l-8.635,9.956L367.91,45.851"/>
<path id="path5241" fill="#FFC212" d="M328.098,26.266c0,0-7.299,6.642-9.628,10.287c0,0,12.942,12.275,18.921,17.255
	c5.959,4.975,16.256,7.621,16.256,7.621s5.96-4.97,18.235-4.308L328.098,26.266"/>
<path id="path5243" fill="#FFC212" d="M335.062,58.447c0,0-9.288-6.627-12.61-10.613c-3.313-3.981-6.307-5.969-6.307-5.969
	l-5.969,4.644c0,0,1.998,8.289,7.3,16.914L335.062,58.447"/>
<path id="path5245" fill="#FFC212" d="M320.462,66.751c0,0,1.651,8.289,12.947,8.289c4.308,0,4.639,0.336,4.639,0.336
	s2.324-5.979,8.952-9.956l-6.627-2.656L320.462,66.751"/>
<path id="path5247" fill="#FFC212" d="M230.883,560.768c0,0,15.257-4.322,28.531-21.573c13.279-17.25,20.9-31.531,28.2-37.155
	c7.298-5.644,22.562-15.268,39.49-10.955c0,0-12.941,4.976-19.248,19.916c-6.306,14.931-16.929,35.159-25.218,42.458
	C272.38,562.496,247.802,569.056,230.883,560.768"/>
<path id="path5249" fill="#FFC212" d="M269.259,516.634c0,0-9.734-18.134-23.013-25.659c0,0,15.276-5.744,36.954,7.3
	C283.2,498.273,275.233,504.027,269.259,516.634"/>
<path id="path5251" fill="#FFC212" d="M294.697,548.041c0,0,6.41-7.517,10.392-19.238c0,0,13.653,16.011,25.434,24.761
	c8.63,6.425,13.279,5.983,13.279,5.983s-0.667,4.865-17.034,4.865s-22.346-1.109-36.724-9.52L294.697,548.041"/>
<path id="path5253" fill="#FFC212" d="M245.598,78.022c0,0,9.067,0.667,15.252-14.369c6.2-15.051,13.879-35.24,26.105-46.454
	c2.646-2.43,11.065-7.516,22.778-9.297c10.389-1.561,23.437,3.554,23.437,3.554s-9.058,13.039-20.122,24.992
	c-11.055,11.939-23.003,25.434-34.274,33.391C267.492,77.801,261.296,82.003,245.598,78.022"/>
<path id="path5255" fill="#FFC212" d="M265.278,41.303l-26.101-29.189c0,0,5.312-4.418,17.25-4.418
	c11.949,0,25.434,7.074,25.434,7.074s-6.853,6.411-10.613,13.495C266.911,36.419,265.278,41.303,265.278,41.303"/>
<path id="path5257" fill="#FFC212" d="M286.288,69.397c0,0,13.721-10.397,19.916-18.571c0,0,5.303,23.22,21.223,27.422
	c0,0-1.1,1.767-8.173,1.767C312.173,80.015,305.978,79.357,286.288,69.397"/>
<path id="path5259" fill="#FFC212" d="M286.288,465.872c0,0,96.552-0.331,96.552-8.298c0-7.958-96.552-7.622-96.552-7.622
	s-96.547-0.336-96.547,7.622C189.741,465.541,286.288,465.872,286.288,465.872"/>
<path id="path5261" fill="#FFC212" d="M286.288,393.438c17.26,13.27,35.826,11.939,35.826,11.939
	c23.677,0,32.075-10.396,32.075-10.396s11.281,6.642,26.773,6.642c23.444,0,40.912-15.267,40.912-15.267l22.12-75.201
	c0,0,3.088-12.605-5.313-15.487c-8.398-2.862-15.037,11.291-14.595,17.476c0,0-13.053-4.552-15.925,5.971
	c-1.993,7.309,8.184,10.181,12.159,10.181l3.981-1.325c0,0,5.744,24.545-15.262,21.889l-1.772-0.884c0,0,6.195-15.036-2.862-18.58
	c-9.066-3.53-12.837,13.054-12.837,13.054s-15.693-6.627-17.691,3.98c-1.998,10.623,9.956,11.285,14.369,11.497
	c0,0-3.313,13.053,5.763,14.608c9.062,1.543,11.497-9.297,11.271-13.494c0,0,15.671-2.225,11.508,12.39
	c-2.651,9.288-3.766,12.16-3.766,12.16s-4.644-0.442-8.832,4.207c-4.212,4.644-6.205,9.057-17.034,9.057
	c-10.849,0-14.378-5.969-15.935-8.625v-34.274c0,0-0.658-1.109-1.1-3.766c0,0-10.397-1.762-16.376,5.538
	c-5.971,7.285-7.742,14.584-10.613,23.878c-2.872,9.297-8.852,20.577-21.895,20.577c-13.053,0-17.476-8.409-17.476-15.925
	c0-7.525-6.642-9.51-9.515-10.839c0,0,0-4.649,0-8.185c0-3.539,1.332-9.949,8.184-9.949c3.328,0,5.313,7.727,5.313,10.392
	c0,2.646,0.441,8.185,7.741,8.185s9.067-7.306,9.067-14.154c0,0,3.77,0,7.741,0c3.985,0,9.739-1.992,9.739-8.859
	c0-6.857-5.97-8.398-9.071-8.398c-3.107,0-7.306,0-7.306,0s1.552-15.258-9.071-15.258c-10.608,0-8.841,10.613-8.841,13.26
	c0,2.656-1.983,5.537-4.865,5.537c-2.872,0-9.955,2.215-9.955-22.336c0,0,1.324-1.108,5.095-1.108c3.755,0,4.86,2.214,8.183,2.214
	c3.314,0,6.402-3.544,6.402-10.396c0-6.857-5.97-10.172-15.482-8.625c0,0-1.983-0.442-1.101-3.986
	c0.884-3.53,5.087-18.792-9.734-18.792c-14.825,0-10.613,15.262-9.729,18.792c0.884,3.544-1.1,3.986-1.1,3.986
	c-9.523-1.547-15.483,1.768-15.483,8.625c0,6.853,3.088,10.396,6.411,10.396c3.318,0,4.418-2.214,8.173-2.214
	c3.77,0,5.086,1.108,5.086,1.108c0,24.551-7.069,22.336-9.941,22.336c-2.881,0-4.87-2.881-4.87-5.537
	c0-2.646,1.772-13.26-8.851-13.26c-10.613,0-9.072,15.258-9.072,15.258s-4.197,0-7.295,0s-9.067,1.541-9.067,8.398
	c0,6.867,5.753,8.859,9.734,8.859c3.986,0,7.741,0,7.741,0c0,6.849,1.758,14.154,9.067,14.154c7.299,0,7.741-5.537,7.741-8.185
	c0-2.665,1.988-10.392,5.312-10.392c6.843,0,8.183,6.41,8.183,9.949c0,3.535,0,8.185,0,8.185c-2.872,1.329-9.523,3.313-9.523,10.839
	c0,7.516-4.414,15.925-17.466,15.925c-13.043,0-19.022-11.28-21.894-20.577c-2.872-9.294-4.654-16.593-10.623-23.878
	c-5.969-7.3-16.367-5.538-16.367-5.538c-0.441,2.656-1.109,3.766-1.109,3.766v34.274c-1.542,2.656-5.085,8.625-15.915,8.625
	c-10.849,0-12.832-4.413-17.034-9.057c-4.207-4.649-8.851-4.207-8.851-4.207s-1.1-2.872-3.755-12.16
	c-4.183-14.614,11.497-12.39,11.497-12.39c-0.216,4.197,2.214,15.035,11.281,13.494c9.067-1.556,5.753-14.608,5.753-14.608
	c4.418-0.211,16.367-0.874,14.378-11.497c-1.988-10.609-17.702-3.98-17.702-3.98s-3.76-16.584-12.827-13.054
	c-9.067,3.544-2.872,18.58-2.872,18.58l-1.772,0.884c-21.015,2.656-15.252-21.889-15.252-21.889l3.971,1.325
	c3.986,0,14.167-2.872,12.169-10.181c-2.872-10.522-15.935-5.971-15.935-5.971c0.442-6.185-6.185-20.338-14.594-17.476
	c-8.399,2.881-5.302,15.487-5.302,15.487l22.12,75.201c0,0,17.466,15.267,40.917,15.267c15.478,0,26.759-6.642,26.759-6.642
	s8.409,10.396,32.075,10.396C250.458,405.377,269.033,406.707,286.288,393.438"/>
<path id="path5263" fill="#FFC212" d="M256.219,433.15l-6.042,12.602c2.827-0.074,5.745-0.139,8.724-0.195l5.983-12.47
	C261.919,433.104,259.029,433.126,256.219,433.15z"/>
<path id="path5265" fill="#FFC212" d="M328.569,433.285l-5.976,12.471c2.918,0.077,5.737,0.163,8.495,0.254l6.043-12.597
	C334.368,433.367,331.521,433.324,328.569,433.285z"/>
<path id="path5267" fill="#FFC212" d="M340.744,433.477l-6.059,12.658c2.909,0.106,5.739,0.219,8.464,0.339l6.146-12.823
	C346.556,433.59,343.701,433.531,340.744,433.477z"/>
<path id="path5269" fill="#FFC212" d="M268.544,433.066l-5.958,12.425c2.822-0.047,5.715-0.084,8.67-0.114l5.918-12.341
	C274.228,433.042,271.353,433.053,268.544,433.066z"/>
<path id="path5271" fill="#FFC212" d="M209.196,434.022l-6.656,14.018c2.796-0.206,5.735-0.408,8.85-0.604l6.695-13.661
	C214.976,433.854,212.011,433.937,209.196,434.022z"/>
<path id="path5273" fill="#FFC212" d="M221.779,433.686l-6.627,13.521c2.296-0.135,4.684-0.266,7.145-0.392l6.363-13.277
	C226.293,433.585,224,433.635,221.779,433.686z"/>
<path id="path5275" fill="#FFC212" d="M352.895,433.735l-6.175,12.904c2.713,0.129,5.326,0.265,7.85,0.406l6.27-13.098
	C358.306,433.874,355.653,433.803,352.895,433.735z"/>
<path id="path5277" fill="#FFC212" d="M420.989,443.646c-0.486-1.302-1.194-2.36-1.984-3.224l-5.612,11.694
	c0.551-0.036,1.098-0.094,1.627-0.182C419.003,451.268,422.09,446.595,420.989,443.646z"/>
<path id="path5279" fill="#FFC212" d="M286.288,433.023c-1.849,0-3.666,0.002-5.465,0.004l-5.895,12.315
	c2.606-0.02,5.27-0.032,7.978-0.038l5.885-12.281C287.958,433.024,287.132,433.023,286.288,433.023z"/>
<path id="path5281" fill="#FFC212" d="M304.449,433.068l-5.885,12.282c2.896,0.023,5.719,0.058,8.49,0.097l5.917-12.323
	C310.204,433.101,307.362,433.083,304.449,433.068z"/>
<path id="path5283" fill="#FFC212" d="M197.69,434.423l-6.923,14.572c2.479-0.222,5.153-0.445,7.985-0.667l6.729-14.187
	C202.738,434.232,200.144,434.326,197.69,434.423z"/>
<path id="path5285" fill="#FFC212" d="M185.659,434.96l-7.239,15.255c2.525-0.274,5.37-0.567,8.538-0.868l7.011-14.772
	C190.97,434.701,188.206,434.83,185.659,434.96z"/>
<path id="path5287" fill="#FFC212" d="M151.591,443.646c-0.404,1.074-0.245,2.375,0.306,3.63l3.989-8.771
	C154.294,439.514,152.533,441.129,151.591,443.646z"/>
<path id="path5289" fill="#FFC212" d="M364.436,434.056l-6.313,13.193c2.862,0.17,5.597,0.346,8.206,0.525l6.438-13.435
	C370.144,434.243,367.37,434.147,364.436,434.056z"/>
<path id="path5291" fill="#FFC212" d="M316.603,433.152l-5.917,12.35c2.834,0.048,5.592,0.104,8.292,0.167l5.964-12.43
	C322.239,433.207,319.459,433.178,316.603,433.152z"/>
<path id="path5293" fill="#FFC212" d="M173.19,435.705l-7.623,16.062c0.594-0.091,0.955-0.162,0.955-0.162
	c1.948-0.232,4.624-0.566,8.036-0.958l7.361-15.485C178.59,435.345,175.694,435.529,173.19,435.705z"/>
<path id="path5295" fill="#FFC212" d="M244.048,433.284l-6.162,12.851c2.779-0.102,5.647-0.195,8.597-0.28l6.079-12.669
	C249.643,433.216,246.799,433.248,244.048,433.284z"/>
<path id="path5297" fill="#FFC212" d="M387.367,434.983l-6.67,13.914c2.818,0.247,5.421,0.492,7.813,0.73l6.838-14.19
	C392.971,435.288,390.317,435.135,387.367,434.983z"/>
<path id="path5299" fill="#FFC212" d="M398.885,435.67l-6.897,14.313c2.773,0.292,5.207,0.565,7.322,0.813l7.021-14.545
	C404.347,436.074,401.887,435.878,398.885,435.67z"/>
<path id="path5301" fill="#FFC212" d="M292.438,433.03l-5.88,12.27c2.85,0,5.627,0.011,8.368,0.027l5.881-12.274
	C298.082,433.042,295.289,433.034,292.438,433.03z"/>
<path id="path5303" fill="#FFC212" d="M413.358,437.01c0,0-1.042-0.165-3.556-0.427l-7.043,14.623
	c1.259,0.151,2.369,0.288,3.299,0.398c0,0,1.597,0.318,3.703,0.475l6.61-13.774C414.737,437.336,413.358,437.01,413.358,437.01z"/>
<path id="path5305" fill="#FFC212" d="M160.281,436.865l-6.108,13.432c0.973,0.823,2.136,1.429,3.387,1.638
	c1.354,0.227,2.82,0.257,4.171,0.203l7.674-16.153C164.545,436.37,161.679,436.689,160.281,436.865z"/>
<path id="path5307" fill="#FFC212" d="M376.348,434.479l-6.491,13.546c2.578,0.189,5.021,0.381,7.333,0.572l6.604-13.792
	C381.476,434.697,378.998,434.587,376.348,434.479z"/>
<path id="path5309" fill="#FFC212" d="M232.344,433.468l-6.299,13.163c2.626-0.125,5.323-0.245,8.129-0.356l6.2-12.938
	C237.607,433.377,234.938,433.421,232.344,433.468z"/>
<path id="path5311" fill="#FFC212" d="M286.288,429.71c0,0,67.685,0.336,126.735,3.649l7.299-41.8c0,0-26.868,23.22-65.354,7.295
	c0,0-8.961,9.619-33.175,9.619c-24.224,0-35.504-10.944-35.504-10.944s-11.281,10.944-35.499,10.944
	c-24.214,0-33.185-9.619-33.185-9.619c-38.481,15.925-65.356-7.295-65.356-7.295l7.3,41.8
	C218.608,430.047,286.288,429.71,286.288,429.71z M341.492,409.646l31.824,1.21l-0.667,17.467l-31.825-1.221L341.492,409.646z
	 M286.288,403.835l19.69,12.38l-19.69,11.055l-19.68-11.055L286.288,403.835z M231.089,409.646l0.667,17.457l-31.835,1.221
	l-0.658-17.467L231.089,409.646z"/>
<polyline id="polyline5313" fill="#EE2528" points="286.288,423.299 273.188,416.109 286.288,407.815 299.398,416.109 
	286.288,423.299 "/>
<polyline id="polyline5315" fill="#0556A5" points="344.119,424.437 344.561,412.647 369.863,413.607 369.413,425.402 
	344.119,424.437 "/>
<polyline id="polyline5317" fill="#0556A5" points="228.463,424.437 228.011,412.647 202.717,413.607 203.169,425.402 
	228.463,424.437 "/>
<path id="path5319" fill="#9F6535" d="M178.973,378.332c-0.937,0.168-1.825,0.249-2.664,0.249
	c-5.822,0.016-9.084-3.908-10.665-7.546c-1.169-2.637-1.607-5.215-1.763-6.479c-0.253-0.039-0.56-0.07-0.883-0.07
	c-0.759,0-1.549,0.17-2.111,0.668c-0.557,0.494-1.083,1.392-1.093,3.351c-0.001,1.214,0.221,2.81,0.779,4.853
	c0.775,2.848,1.972,6.541,2.441,7.969c1.685,0.338,6.117,1.557,9.308,5.59c3.747,4.633,5.397,6.804,13.111,6.895
	c5.546,0.008,9.213-3.133,10.696-4.703c0.225-0.238,0.393-0.432,0.509-0.572v-27.873c-2.316,1.027-5.01,1.688-7.895,2.209
	c0.203,0.912,0.429,2.281,0.431,3.856C189.271,370.912,187.268,376.923,178.973,378.332z"/>
<path id="path5321" fill="#9F6535" d="M203.044,345.499c0.115,0.446,0.215,0.884,0.301,1.31c0.738-0.113,1.764-0.22,3-0.22
	c6.544-0.081,19.063,3.272,24.571,24.118c2.46,9.21,5.418,15.895,8.767,20.191c3.367,4.301,6.988,6.211,11.107,6.226
	c8.584-0.086,13.487-4.515,13.546-11.544c-0.07-7.77,4.142-12.313,10.357-14.406c0.047-0.512,0.102-1.289,0.102-2.198
	c0.004-1.642-0.191-3.688-0.835-5.174c-0.672-1.457-1.469-2.289-3.124-2.362c-0.013,0.006-0.028,0.014-0.046,0.022
	c-0.115,0.063-0.317,0.2-0.559,0.53c-0.482,0.654-1.127,2.162-1.125,5.345c0.005,3.519-1.072,6.573-3.266,8.716
	c-2.192,2.146-5.406,3.293-9.413,3.29c-4.183,0.013-7.378-2.149-9.376-5.11c-1.784-2.625-2.732-5.865-2.928-9.013
	c-0.73,0.079-1.745,0.156-2.928,0.157c-2.743-0.006-6.405-0.401-9.513-2.292c-3.122-1.876-5.541-5.412-5.51-11.017
	c-0.038-5.699,3.048-9.106,6.556-10.778c3.505-1.708,7.425-1.96,9.674-1.966c0.208,0,0.403,0.002,0.582,0.006
	c-0.018-0.321-0.03-0.696-0.03-1.111c0.006-2.227,0.333-5.659,2.216-8.664c1.872-3.02,5.442-5.445,11.257-5.416
	c0.312-0.002,0.616,0.003,0.914,0.016c-1.225-2.34-1.981-5.47-1.977-9.567c-0.026-6.358,4.29-9.778,8.48-11.334
	c3.186-1.216,6.41-1.55,8.168-1.642c-0.397-1.871-1.048-5.543-1.051-9.586c-0.035-4.97,3.164-10.021,9.828-11.701
	c0.151-0.039,0.312-0.067,0.466-0.103c-4.092-8.941-8.405-10.269-8.405-10.269c-4.975,9.797-15.588,9.955-15.588,9.955
	s-0.836-1.484,0-12.611c0.826-11.113,4.476-15.589,7.299-20.9c2.819-5.307,4.317-5.475,4.639-8.457
	c1.859-16.722,6.138-20.074,6.138-20.074c4.149,4.485,9.46,3.482,9.46,3.482c-1.335-5.302,0.168-10.782,0.168-10.782
	c4.298,2.493,7.789,0.168,7.789,0.168c-1.998-9.451,0.993-15.599,0.993-15.599c3.65,2.488,7.133,1.004,7.133,1.004
	c-1.484-6.805,0.835-13.61,0.835-13.61c3.972,3.659,7.3,1.662,7.3,1.662s-0.495-10.455-1.657-26.87
	c-1.157-16.429,4.645-26.043,4.645-26.043s-2.987-3.986-12.774-3.986c-9.787,0-14.594,1.988-21.735,4.486
	c-7.132,2.478-5.638,2.646-14.431,4.965c-8.793,2.325-10.109,2.488-20.405,5.979c-10.282,3.482-17.409,7.3-31.355,16.419
	c-13.937,9.125-34.001,19.738-34.001,19.738c0,5.312-1.988,10.945-3.986,15.099c-1.993,4.149-4.639,6.479-8.289,3.491
	c-3.65-2.992-6.973-10.949-6.973-10.949c-3.818,0.994-5.302,2.479-4.149,5.134c1.167,2.656,3.813,5.638,5.979,7.799
	c7.958,7.967,20.573,9.629,25.717,9.451c5.143-0.153,7.131-1.815,9.945-2.978c8.947-3.688,19.248-8.303,30.529-13.11
	c11.271-4.812,22.552-3.986,26.365-1.494c3.828,2.498,13.447,10.455,13.447,25.049c0,14.595-12.933,17.418-23.565,21.231
	c-10.604,3.818-23.051,4.154-37.982,6.642c-14.921,2.488-18.244,5.312-23.388,6.306c-5.148,0.989-6.138-1.83-12.779,3.146
	c-6.637,4.975-5.801,16.76-5.801,16.76s1.652-0.336,3.813-3.16c2.156-2.819,7.958-3.972,7.958-3.972
	c8.971,6.627,8.971,13.437,8.971,13.437c7.79-3.818,8.784-12.443,8.784-12.443l5.979,11.281c1.82-3.491,5.134-3.65,9.946-5.979
	c4.817-2.324,6.637-7.958,6.637-7.958c5.378,10.748,12.275,9.619,12.275,9.619c2.824-1.988,5.479-9.292,5.479-9.292
	c3.645,3.155,5.465-0.327,5.465-0.327c1.998,4.975,4.98,4.476,4.98,4.476c3.981-2.487,4.317-9.129,3.981-11.775
	c-0.336-2.656,3.323-4.308,3.323-4.308s3.313,2.478,2.656,7.958c-0.667,5.47-2.987,8.457-4.317,11.281
	c-1.325,2.814-4.975,4.476-5.643,4.308c-0.663-0.158-4.308-1.82-4.308-1.82s-1.003,3.65-4.821,9.451
	c-3.804,5.815-6.954,2.992-6.954,2.992c-3.481,8.625-14.772,13.27-14.772,13.27c1.662,1.324,3.65,1.494,8.961,1.82
	c5.311,0.33,9.125,3.48,9.125,3.48s-6.795,5.811-15.598,13.273c-8.793,7.469-17.577,6.979-17.577,6.979
	c2.646,4.639,6.296,4.639,6.296,4.639c-0.362,6.124-3.534,9.709-5.169,11.168C200.197,340.027,202.182,342.088,203.044,345.499z"/>
<path id="path5323" fill="#9F6535" d="M269.106,338.469c-0.031,2.053,0.6,3.751,1.063,4.12c0.145,0.13,0.182,0.117,0.194,0.12
	c0.661,0.031,1.018,0.189,1.396,0.178c0.481-0.063,0.959,0.028,1.792-1.931c0.726-1.873,1.337-5.505,1.38-11.951
	c-0.328-0.062-0.75-0.116-1.223-0.115c-0.765,0-1.652,0.138-2.539,0.585c-0.837,0.405-2.049,0.686-3.524,0.723
	c1.412,2.914,1.454,6.033,1.46,7.74C269.106,338.136,269.106,338.314,269.106,338.469z"/>
<path id="path5325" fill="#9F6535" d="M300.56,301.611c1.759,0.094,4.981,0.428,8.165,1.642c4.191,1.557,8.506,4.978,8.481,11.334
	c0.003,4.098-0.751,7.228-1.976,9.567c0.297-0.013,0.603-0.019,0.913-0.016c5.812-0.029,9.382,2.391,11.255,5.403
	c1.886,3,2.213,6.431,2.22,8.659c0,0.422-0.014,0.802-0.031,1.127c0.179-0.004,0.373-0.006,0.583-0.006
	c0.479,0.002,1.047,0.02,1.658,0.055l3.791-7.213c-4.207-8.409-3.323-16.583-3.323-16.583c-4.423,3.53-8.409,2.204-8.409,2.204
	c-6.853-9.514-4.197-33.392-4.197-33.392c-4.202-2.214-5.974-8.193-5.974-8.193c-4.19,8.217-10.402,10.95-12.838,11.739
	c0.491,1.321,0.743,2.705,0.741,4.086C301.615,296.068,300.961,299.74,300.56,301.611z"/>
<path id="path5327" fill="#9F6535" d="M298.863,328.89c-0.476,0-0.897,0.054-1.226,0.116c0.043,6.443,0.653,10.077,1.379,11.95
	c0.833,1.958,1.312,1.866,1.793,1.931c0.377,0.012,0.734-0.146,1.397-0.178c0.017-0.002,0.056,0.008,0.201-0.121
	c0.139-0.126,0.328-0.393,0.494-0.775c0.336-0.766,0.577-1.974,0.575-3.343c0-0.153-0.001-0.335-0.001-0.538
	c0.006-1.709,0.049-4.824,1.456-7.732c-1.474-0.039-2.685-0.316-3.526-0.727C300.523,329.027,299.632,328.89,298.863,328.89z"/>
<path id="path5329" fill="#9F6535" d="M378.644,391.025c1.949,1.399,4.797,2.784,8.515,2.785c7.709-0.09,9.353-2.262,13.091-6.893
	c3.194-4.034,7.63-5.253,9.316-5.592c0.468-1.43,1.657-5.121,2.434-7.969c0.557-2.041,0.776-3.638,0.775-4.854
	c-0.01-1.959-0.535-2.855-1.092-3.35c-0.562-0.496-1.353-0.668-2.111-0.668c-0.322,0-0.628,0.032-0.882,0.071
	c-0.155,1.265-0.594,3.841-1.763,6.478c-1.582,3.638-4.845,7.562-10.666,7.546c-0.841,0-1.728-0.08-2.665-0.249
	c-8.287-1.412-10.286-7.426-10.189-11.607c0.002-1.574,0.229-2.941,0.431-3.854c-2.89-0.522-5.586-1.184-7.903-2.211v27.873
	c0.115,0.14,0.282,0.334,0.508,0.574C376.932,389.627,377.673,390.326,378.644,391.025z"/>
<path id="path5331" fill="#9F6535" d="M346.41,352.07c0.03,5.604-2.391,9.139-5.515,11.016c-3.108,1.891-6.773,2.285-9.518,2.292
	c-1.184,0-2.199-0.078-2.929-0.157c-0.196,3.146-1.142,6.389-2.923,9.014c-1.998,2.959-5.191,5.123-9.382,5.109
	c-4.002,0.003-7.214-1.145-9.402-3.291c-2.19-2.143-3.267-5.197-3.263-8.715c-0.056-5.053-1.469-5.775-1.743-5.896
	c-1.649,0.077-2.445,0.911-3.115,2.364c-0.646,1.487-0.842,3.533-0.836,5.175c0,0.908,0.053,1.682,0.101,2.193
	c6.217,2.092,10.443,6.635,10.375,14.409c0.06,7.03,4.947,11.456,13.533,11.543c4.121-0.015,7.741-1.925,11.104-6.226
	c3.348-4.295,6.306-10.981,8.77-20.191c5.499-20.848,18.021-24.197,24.566-24.118c1.236,0,2.264,0.108,3.001,0.222
	c0.086-0.427,0.188-0.863,0.303-1.31c1.171-4.655,4.431-6.806,7.885-7.593c-11.546-10.148-12.599-18.797-12.599-18.797
	c-12.396,14.379-23.911,16.592-23.911,16.592l-0.675,5.785C343.583,343.223,346.445,346.582,346.41,352.07z"/>
<path id="path5333" fill="#9F6535" d="M392.599,331.068c1.986-2.675,5.05-4.692,9.343-4.674c0.913,0,1.88,0.088,2.903,0.271
	c-0.813-1.744-1.28-3.865-1.273-6.375c0-0.688,0.035-1.405,0.105-2.152c0.418-4.72,3.644-7.428,7.042-8.747
	c3.416-1.355,7.131-1.559,9.261-1.563c0.19,0,0.352,0.003,0.515,0.006l-18.083-18.584c-5.081,25.88-21.231,45.128-21.231,45.128
	l1.681,3.231c2.615,0.201,4.921,0.782,6.212,1.168C389.805,336.214,390.846,333.404,392.599,331.068z"/>
<path id="path5335" fill="#9F6535" d="M412.395,345.783c0.039,0,0.077,0,0.115,0c4.103-0.037,6.08-2.041,7.346-4.633
	c1.226-2.591,1.442-5.748,1.438-7.41c0-0.135-0.001-0.26-0.003-0.375c-0.737-0.069-2.202-0.141-4.944-0.141
	c-1.317-0.001-2.677-0.15-4-0.499c0.699,1.888,0.921,3.943,0.924,5.89C413.268,341.547,412.752,344.256,412.395,345.783z"/>
<path id="path5337" fill="#9F6535" d="M343.35,306.73c-2.204,4.87-6.411,6.411-6.411,6.411c-0.874,11.949,3.323,17.476,3.323,17.476
	c10.397-3.313,12.39-9.066,12.39-9.066C344.018,317.57,343.35,306.73,343.35,306.73z"/>
<path id="path5339" fill="#9F6535" d="M378.738,300.089c-1.771,9.739-9.066,15.041-9.066,15.041
	c1.326,10.839,7.962,13.721,7.962,13.721c8.193-6.858,10.613-18.364,10.613-18.364C382.063,307.173,378.738,300.089,378.738,300.089
	z"/>
<path id="path5341" fill="#9F6535" d="M346.222,287.051c0,0,0.036,0.841,0.137,2.21
	C346.613,287.496,346.222,287.051,346.222,287.051z"/>
<path id="path5343" fill="#9F6535" d="M372.322,139.521c0,0-5.753,25.323-9.058,46.886c-3.098,20.132-5.527,23.887-8.193,24.775
	c0,0,2.872,5.081,2.872,16.809c0,11.723-2.199,16.146-3.755,18.134c0,0-3.529,1.325-8.184-4.428c0,0,0.441,17.265-8.841,25.664
	c0,0-4.653-0.231-6.411-3.761c0,0-1.998,1.988-3.103,7.084c-1.108,5.085-2.425,9.725-2.425,9.725s-2.656,20.353,1.101,31.417
	c0,0,11.28-2.215,16.366-12.611c2.529-5.175,3.415-8.209,3.667-9.954c-0.101-1.369-0.137-2.21-0.137-2.21s0.392,0.447,0.137,2.21
	c0.344,4.647,1.445,15.437,4.518,20.567c3.98,6.627,6.194,7.295,6.194,7.295s7.507,0.888,11.724-14.148
	c4.211-15.041,3.088-23.008,1.104-36.056c0,0,5.081,4.865,7.069,15.694c1.998,10.849,7.742,17.702,13.495,20.131
	c0,0,4.879-6.194,2.439-19.679c-2.439-13.504-4.653-21.448-7.516-28.315c-2.882-6.853-1.335-8.399-1.335-8.399
	s1.983,1.321,7.521,10.397c5.528,9.057,14.153,13.937,14.153,13.937s6.867-3.107,4.212-17.034
	c-2.666-13.937-8.625-27.873-15.502-37.829c-6.843-9.951-8.398-12.165-8.398-12.165s2.439-1.546,5.983,1.326
	c3.54,2.881,6.195,6.411,11.056,7.083c0,0,1.118-12.837-7.083-22.778c-8.184-9.965-13.044-13.504-20.78-15.934
	c0,0-1.998-3.76,1.993-3.098c3.977,0.667,5.743,0.226,5.743,0.226s-2.209-8.625-3.313-18.796
	c-1.109-10.176-0.893-12.165-0.893-12.165H372.322z"/>
<path id="path5345" fill="#9F6535" d="M312.605,154.557c0,18.139,3.323,34.505,3.323,34.505c-4.639,4.197-9.951,1.1-9.951,1.1
	c-0.672,7.967,1.983,10.167,1.983,10.167c-3.756,2.886-10.608,1.556-10.608,1.556c-1.772,7.525,2.209,12.837,2.209,12.837
	c-3.981,4.413-9.725,1.767-9.725,1.767s0,3.986,0.432,6.642c0.442,2.646-0.884,4.188-0.884,4.188
	c-7.958,2.224-12.611-1.1-12.611-1.1c-2.214,4.198-3.098,15.925-3.098,15.925s1.109,0.884-5.969,9.293
	c-7.084,8.399-4.86,19.906-4.86,19.906c3.54-0.658,5.47-3.256,7.958-6.637c3.098-4.212,4.654-4.418,4.654-4.418
	c1.757,3.75,2.43,5.96,6.186,9.273c3.765,3.328,4.869,7.967,4.869,7.967c4.414-4.414,10.393-7.511,10.393-7.511
	c-0.226,7.069,4.203,11.055,4.203,11.055c3.098-0.663,5.526-4.428,6.853-8.399c1.33-3.986,5.526-6.867,5.526-6.867
	c2.883,7.751,6.858,9.297,6.858,9.297s0.667-1.771,1.768-7.972c1.114-6.185,1.557-12.38,0.673-20.563
	c-0.889-8.184,1.325-13.053,1.325-13.053c2.656,2.214,3.986,5.974,5.97,14.6c1.987,8.635,5.537,11.29,5.537,11.29
	s5.292-9.081,5.086-17.034c-0.227-7.967,1.546-17.923,1.546-17.923c1.551,11.281,10.176,14.153,10.176,14.153
	c1.321-7.511-0.226-15.694-1.335-21.673c-1.104-5.964-3.314-11.718-3.314-11.718c3.54,1.988,4.207,0.216,6.854-2.43
	c2.656-2.66,2.656-8.404,5.753-28.541c3.098-20.131,9.739-40.47,12.169-51.534c2.425-11.055,3.097-12.396,1.542-12.169
	c-1.542,0.226-5.969,2.224-17.024,6.195c-11.064,3.986-20.132,11.286-23.661,22.12c-5.716,17.49-5.313,29.419-4.653,40.7
	c0.667,11.281-0.432,12.827-0.432,12.827s-1.782,0.216-3.323-13.711c-1.557-13.937,0.226-26.105,4.854-41.358
	c4.653-15.267,16.367-19.69,16.367-19.69s0-0.658-5.96-1.109c-5.979-0.437-13.278,3.54-17.917,8.179
	C317.701,129.34,312.605,136.424,312.605,154.557z"/>
<path id="path5347" fill="#9F6535" d="M304.422,122.261c6.834,0.648,10.407,2.651,10.407,2.651
	c2.646-6.853,12.597-12.155,12.597-12.155c-1.325-7.305-4.639-10.407-4.639-10.407c-5.97,2.881-15.925,13.053-15.925,13.053
	c-1.325-6.853-4.653-11.281-4.653-11.281c-11.497,5.527-12.606,18.581-12.606,18.581S297.353,121.599,304.422,122.261z"/>
<path id="path5349" d="M250.242,169.152c-6.642-3.756-7.525-3.981-6.868-8.625c0.667-4.639,0.898-6.421,0.452-8.184
	c-0.452-1.767,1.104-2.881,6.857-1.983c5.744,0.874,19.68,2.2,29.861,1.542c0,0,2.209,3.314-1.33,4.202
	c-3.54,0.884-10.839,3.981-14.153,5.312c-3.323,1.316-2.665,4.197-3.539,6.853c-0.898,2.656-3.098,5.527-3.098,5.527
	L250.242,169.152"/>
<path id="path5351" fill="#C42127" d="M134.557,202.989c0,0,0,5.979,2.656,11.732c2.646,5.753,6.411,13.711,20.794,13.711
	c14.378,0,20.78-1.546,27.201-5.086c0,0,5.312,5.527,6.416,6.195c1.109,0.658,3.146,2.185,3.981-4.212
	c0.658-5.081,0.442-5.753,0.442-5.753s16.592-9.95,31.85-9.95c15.252,0,28.531,4.207,30.745,6.637
	c2.209,2.43,2.209,4.428-1.546,8.183c-3.756,3.76-11.497,8.193-18.797,8.193c-7.304,0-6.862-2.891-23.229,0
	c-16.367,2.872-20.564,4.86-27.873,5.744c0,0-5.969-7.294-6.853-8.183c-0.889-0.884-2.147-0.567-4.644,4.202
	c-2.439,4.644-3.54,5.753-3.54,5.753s-6.416,1.315-18.58-0.884c-12.165-2.214-24.118-7.083-24.118-22.12
	C129.461,208.968,132.568,205.208,134.557,202.989"/>
<path id="path5353" fill="#EF4424" d="M198.702,210.294c0,0,13.043-5.753,21.678-9.725c8.625-3.996,16.583-5.984,21.668-5.984
	c5.095,0,14.82,3.112,16.818,15.267c0,0-7.967-3.755-19.022-4.87c-11.064-1.1-18.609-0.01-26.101,2.214
	C205.56,209.627,202.242,211.182,198.702,210.294"/>
<path id="path5355" fill="#FFFFFF" d="M192.733,212.282c0,0-5.753,1.998-8.625,0.884c0,0,4.634,6.411,7.516,9.965L192.733,212.282"
	/>
<path id="path5357" fill="#FFFFFF" d="M175.699,242.369l3.755-6.642l3.098,3.986c0,0,1.33,1.983-0.658,3.755
	c-1.998,1.772-3.54,1.772-4.654,0.884C176.141,243.469,175.699,242.369,175.699,242.369"/>
</svg>
