<?xml version="1.0" encoding="utf-8"?>
<!-- Generator: Adobe Illustrator 14.0.0, SVG Export Plug-In . SVG Version: 6.00 Build 43363)  -->
<svg version="1.2" baseProfile="tiny" id="Layer_1" xmlns:svg="http://www.w3.org/2000/svg"
	 xmlns="http://www.w3.org/2000/svg" xmlns:xlink="http://www.w3.org/1999/xlink" x="0px" y="0px" width="585px" height="585px"
	 viewBox="0 0 585 585" xml:space="preserve">
<path id="path5835" fill="#E63E34" d="M4.678,291.857C4.68,133.488,133.063,5.107,291.439,5.105l0,0
	c158.365,0.002,286.736,128.382,286.74,286.752l0,0c-0.004,158.37-128.375,286.748-286.74,286.751l0,0
	C133.063,578.605,4.679,450.228,4.678,291.857L4.678,291.857z"/>
<path id="path5837" fill="#FFFFFF" d="M12.179,291.857c0.002,77.124,31.252,146.912,81.795,197.458l0,0
	c50.547,50.539,120.338,81.787,197.466,81.789l0,0c77.121-0.002,146.907-31.25,197.45-81.789l0,0
	c50.539-50.547,81.784-120.335,81.787-197.458l0,0c-0.003-77.124-31.248-146.912-81.787-197.459l0,0
	c-50.543-50.539-120.329-81.786-197.45-81.789l0,0c-77.128,0.002-146.918,31.25-197.466,81.789l0,0
	C43.431,144.947,12.181,214.735,12.179,291.857L12.179,291.857L12.179,291.857z"/>
<path id="path5839" fill="#E63E34" d="M89.206,291.858c0.004-111.682,90.545-202.218,202.233-202.22l0,0
	c111.677,0.002,202.205,90.539,202.209,202.22l0,0c-0.004,111.681-90.532,202.216-202.209,202.221l0,0
	C179.751,494.073,89.21,403.54,89.206,291.858L89.206,291.858z"/>
<path id="path5841" fill="#255699" d="M96.708,291.858c0.002,53.779,21.792,102.435,57.037,137.687l0,0
	c35.251,35.242,83.91,57.028,137.694,57.028l0,0c53.776,0,102.43-21.786,137.677-57.028l0,0
	c35.24-35.252,57.027-83.906,57.027-137.687l0,0c0-53.781-21.787-102.437-57.027-137.685l0,0
	c-35.247-35.243-83.899-57.03-137.677-57.033l0,0c-53.784,0.002-102.443,21.79-137.694,57.033l0,0
	C118.5,189.422,96.71,238.077,96.708,291.858L96.708,291.858L96.708,291.858z"/>
<path id="path5843" fill="#E63E34" d="M289.716,462.789c-56.505-29.093-86.028-66.364-101.237-97.904l0,0
	c-15.227-31.544-16.234-57.275-16.236-63.61l0,0c0-0.72,0.014-1.19,0.021-1.395l0,0V165.431v-3.751h238.329v138.17
	c0.005,0.16,0.019,0.641,0.019,1.418l0,0c-0.002,6.324-1.005,32.055-16.229,63.602l0,0c-15.209,31.543-44.727,68.821-101.229,97.921
	l0,0l-1.719,0.886L289.716,462.789L289.716,462.789z"/>
<path id="path5845" fill="#FFFFFF" d="M179.768,300.025l-0.004,0.094c0.002,0-0.017,0.344-0.017,1.155l0,0
	c-0.004,5.546,0.9,30.148,15.486,60.349l0,0c14.453,29.889,42.212,65.333,96.2,93.604l0,0
	c53.985-28.277,81.743-63.729,96.191-93.621l0,0c14.586-30.202,15.485-54.806,15.483-60.339l0,0c0-0.816-0.015-1.169-0.017-1.171
	l0,0l-0.002-0.063l-0.002-130.853h-223.32L179.768,300.025L179.768,300.025z"/>
<path id="path5847" fill="#E63E34" d="M372.819,296.666c-6.661,13.607-20.647,22.981-36.837,22.979
	c-5.369,0-10.492-1.043-15.19-2.921c0.615-0.865,1.219-1.742,1.793-2.639l0.557-0.867l-18.258-18.148l-0.781,1.596
	c-0.735,1.498-1.575,2.937-2.481,4.324c-2.556-3.92-4.455-8.303-5.549-12.997h42.198v-26.077h-28.954l15.299-15.302l-0.49-0.846
	c-1.032-1.782-2.147-3.509-3.338-5.181c4.701-1.879,9.825-2.923,15.196-2.923c17.274-0.002,32.03,10.654,38.075,25.741l0.719,1.791
	l18.59-18.58l-0.49-0.847c-11.368-19.616-32.591-32.814-56.894-32.817c-12.602,0.001-24.37,3.556-34.37,9.709
	c-9.997-6.152-21.763-9.708-34.359-9.708c-1.581,0-3.142,0.076-4.694,0.186v-9.682h89.696v-26.069h-1.273H236.499v43.208
	c-20.782,11.033-34.938,32.887-34.94,58.06c0.001,25.164,14.158,47.015,34.94,58.048v51.971h26.061v-44.514
	c1.552,0.108,3.114,0.186,4.694,0.186c12.598,0,24.369-3.555,34.37-9.703c9.997,6.148,21.763,9.701,34.359,9.702
	c23.256,0,43.68-12.065,55.342-30.261l0.557-0.867l-18.28-18.148L372.819,296.666z M298.565,261.917
	c0.876-1.955,1.899-3.828,3.06-5.606c1.158,1.779,2.188,3.651,3.063,5.606H298.565z M267.253,237.664
	c5.374,0,10.506,1.035,15.209,2.914c-4.536,6.366-7.974,13.567-10.016,21.339h-9.888v-23.977
	C264.101,237.764,265.665,237.665,267.253,237.664z M236.499,261.917h-6.662c1.698-3.789,3.952-7.271,6.662-10.347V261.917z
	 M227.343,287.994h9.156v17.747C232.101,300.75,228.902,294.689,227.343,287.994z M262.559,319.371v-31.377h8.401
	c1.51,10.601,5.554,20.379,11.495,28.719c-4.704,1.881-9.826,2.935-15.201,2.934C265.665,319.646,264.101,319.547,262.559,319.371z"
	/>
<path id="path5849" fill="#255699" d="M374.3,299.355c-7.355,13.6-21.756,22.84-38.317,22.84c-5.942,0-11.606-1.195-16.77-3.354
	c-4.273,5.521-9.407,10.338-15.205,14.258c9.38,5.521,20.301,8.7,31.975,8.701c21.992,0,41.333-11.216,52.636-28.228L374.3,299.355z
	"/>
<path id="path5851" fill="#255699" d="M267.253,322.195c-24.044-0.002-43.54-19.496-43.542-43.539
	c0.001-12.04,4.889-22.937,12.787-30.818V223.5c-5.109,2.856-9.788,6.39-13.897,10.5c-11.43,11.432-18.494,27.212-18.494,44.657
	c0,17.438,7.064,33.214,18.494,44.646c11.429,11.43,27.208,18.495,44.652,18.495c21.969,0,41.324-11.218,52.625-28.228
	l-14.299-14.217C298.207,312.953,283.807,322.193,267.253,322.195z"/>
<path id="path5853" fill="#255699" d="M335.982,235.117c17.664,0.002,32.858,10.492,39.69,25.583l14.501-14.495
	c-11.049-18.393-31.178-30.704-54.191-30.702c-17.439,0-33.218,7.065-44.649,18.497c-7.63,7.632-13.3,17.208-16.237,27.917h20.687
	C302.347,246.181,317.879,235.119,335.982,235.117z"/>
<path id="path5855" fill="#255699" d="M300.055,303.234c-3.109-4.537-5.385-9.689-6.6-15.24h-19.927
	c1.517,10.229,5.485,19.655,11.29,27.669C290.852,312.799,296.076,308.517,300.055,303.234z"/>
<path id="path5857" fill="#255699" d="M239.048,386.125h20.962v-42.211c-7.432-0.815-14.489-2.856-20.963-5.938L239.048,386.125z"/>
<path id="path5859" fill="#255699" d="M349.705,200.909v-20.973l-110.659-0.002v84.531h-10.248
	c-1.636,4.421-2.538,9.198-2.538,14.191c0,2.316,0.215,4.58,0.586,6.79h12.2v22.941c5.69,5.396,12.918,9.168,20.963,10.602v-33.542
	h75.711v-20.981H260.01v-63.556H349.705z"/>
<path id="path5861" fill="#255699" d="M299.238,224.203c-9.381-5.526-20.311-8.701-31.985-8.701c-1.581,0-3.143,0.078-4.694,0.192
	v19.679c1.542-0.166,3.108-0.256,4.694-0.256c5.941,0,11.603,1.195,16.764,3.349C288.295,232.941,293.438,228.124,299.238,224.203z"
	/>
<path id="path5863" fill="#255699" d="M303.199,254.072c1.43,2.086,2.682,4.301,3.735,6.627l14.487-14.494
	c-0.943-1.573-1.959-3.097-3.031-4.577c-4.249,2.022-8.098,4.752-11.39,8.043C305.629,251.042,304.365,252.519,303.199,254.072z"/>
<path id="path5865" fill="#255699" d="M39.786,304.484c-3.087,2.926-4.401,7.211-3.882,11.428
	c0.933,7.521,7.315,11.899,14.665,11.013c7.465-0.921,12.234-6.728,11.29-14.388c-0.495-4.021-2.938-7.801-6.324-9.987l14.745-1.82
	c1.751,3.929,3.064,6.763,3.525,10.599c0.818,6.578-0.921,13.155-4.781,18.614c-4.066,5.771-9.918,8.917-16.945,9.769
	c-6.462,0.808-12.983-0.874-18.179-4.838c-5.334-4.055-9.055-10.412-9.861-17.049c-0.483-3.951-0.057-7.718,1.002-11.52
	L39.786,304.484"/>
<polyline id="polyline5867" fill="#255699" points="46.572,247.036 28.358,244.474 30.075,232.205 77.272,238.833 75.556,251.103 
	56.202,248.39 53.713,266.106 73.056,268.82 71.339,281.087 24.13,274.458 25.858,262.19 44.072,264.752 46.572,247.036 "/>
<polyline id="polyline5869" fill="#255699" points="55.408,191.287 62.688,194.519 68.367,181.755 77.952,186.022 72.272,198.786 
	79.783,202.126 85.763,188.666 95.358,192.94 84.323,217.719 40.789,198.325 51.813,173.559 61.397,177.827 55.408,191.287 "/>
<path id="path5871" fill="#255699" d="M92.364,132.221c-2.869,0.731-5.61,2.338-7.384,4.792c-1.336,1.838-2.05,5.086,0.092,6.642
	c2.247,1.642,5.092-0.449,6.924-1.769l2.614-2.005c5.484-4.228,11.209-6.393,17.453-1.854c3.836,2.771,7.108,6.572,7.488,11.525
	c0.357,4.873-1.498,9.693-4.332,13.588c-3.525,4.85-8.617,8.42-14.239,10.345l-4.965-10.155c4.021-0.91,7.972-2.574,10.46-6.007
	c1.705-2.345,2.35-5.708-0.357-7.679c-2.811-2.038-6.647,1.193-8.813,2.892c-6.371,4.988-11.025,7.938-18.49,2.512
	c-7.822-5.685-8.882-14.97-3.26-22.693c2.811-3.882,7.5-7.753,11.935-9.769L92.364,132.221"/>
<polyline id="polyline5873" fill="#255699" points="150.688,123.156 141.484,131.443 116.613,103.82 109.01,110.674 
	101.982,102.875 126.406,80.89 133.42,88.683 125.829,95.537 150.688,123.156 "/>
<polyline id="polyline5875" fill="#255699" points="166.92,67.521 170.791,74.496 183.002,67.711 188.095,76.887 175.884,83.66 
	179.869,90.854 192.749,83.718 197.829,92.894 174.109,106.037 151,64.348 174.72,51.209 179.812,60.385 166.92,67.521 "/>
<path id="path5877" fill="#255699" d="M223.402,55.702l1.164-0.305c3.905-1.049,8.11-2.961,6.774-7.978
	c-1.348-5-5.956-4.55-9.85-3.502l-1.164,0.306L223.402,55.702 M256.535,74.059l-14.907,3.986l-16.036-14.688l-0.126,0.034
	l4.746,17.706l-11.969,3.208l-12.327-46.038l17.879-4.787c9.101-2.441,17.165,0.047,19.792,9.885
	c1.705,6.348-0.357,12.787-6.59,15.7L256.535,74.059z"/>
<polyline id="polyline5879" fill="#255699" points="281.602,35.509 281.867,43.469 295.449,42.996 295.828,53.485 282.235,53.957 
	282.892,72.654 270.509,73.091 268.85,25.458 296.199,24.501 296.578,34.99 281.602,35.509 "/>
<polyline id="polyline5881" fill="#255699" points="328.983,75.544 316.715,73.823 323.361,26.626 335.631,28.35 328.983,75.544 "/>
<polyline id="polyline5883" fill="#255699" points="374.879,49.038 372.299,56.578 385.5,61.116 382.091,71.052 368.878,66.496 
	366.216,74.271 380.132,79.059 376.711,88.977 351.078,80.153 366.596,35.082 392.24,43.917 388.818,53.842 374.879,49.038 "/>
<polyline id="polyline5885" fill="#255699" points="412.319,96.268 424.898,104.136 419.358,113.041 396.237,98.606 421.488,58.18 
	432.007,64.75 412.319,96.268 "/>
<path id="path5887" fill="#255699" d="M451.324,126.657l1.926,2.004c5.138,5.322,12.451,7.056,19.134,0.6
	c6.141-5.933,5.68-13.316,0.149-19.048l-2.026-2.091L451.324,126.657 M469.458,91.926l12.211,12.637
	c9.228,9.556,9.309,24.663-0.334,33.971s-24.779,8.646-33.96-0.858l-12.2-12.647L469.458,91.926z"/>
<polyline id="polyline5889" fill="#255699" points="529.559,196.322 522.174,199.305 527.277,211.918 517.543,215.847 
	512.438,203.245 495.113,210.254 490.459,198.764 534.66,180.902 544.914,206.291 535.18,210.22 529.559,196.322 "/>
<path id="path5891" fill="#255699" d="M512.105,244.167c-3.917,0.979-7.949-1.405-8.962-5.392c-1.004-3.985,1.451-7.982,5.379-8.962
	c3.997-0.99,7.972,1.399,8.974,5.391C518.487,239.191,516.092,243.177,512.105,244.167"/>
<path id="path5893" fill="#255699" d="M543.463,294.576c3.214-2.752,4.769-6.979,4.47-11.22c-0.53-7.552-6.693-12.257-14.054-11.738
	c-7.514,0.519-12.594,6.059-12.052,13.766c0.287,4.021,2.534,7.938,5.807,10.311l-14.826,1.024c-1.544-4.01-2.706-6.9-2.983-10.759
	c-0.448-6.618,1.624-13.093,5.771-18.334c4.366-5.563,10.368-8.386,17.43-8.881c6.497-0.461,12.902,1.571,17.913,5.782
	c5.104,4.326,8.468,10.874,8.951,17.562c0.254,3.963-0.368,7.684-1.601,11.451L543.463,294.576"/>
<path id="path5895" fill="#255699" d="M513.866,329.988c-4.02-0.553-6.877-4.273-6.301-8.341c0.576-4.077,4.344-6.864,8.363-6.301
	c4.065,0.576,6.854,4.297,6.278,8.362C521.644,327.777,517.935,330.563,513.866,329.988"/>
<polyline id="polyline5897" fill="#255699" points="121.267,440.392 115.46,445.852 125.022,456.022 117.385,463.223 
	107.812,453.04 101.822,458.66 111.901,469.397 104.264,476.597 85.682,456.818 120.415,424.172 138.996,443.939 131.347,451.128 
	121.267,440.392 "/>
<path id="path5899" fill="#255699" d="M168.28,484.464c-0.726-2.867-2.338-5.599-4.792-7.371c-1.832-1.349-5.08-2.051-6.636,0.081
	c-1.636,2.246,0.449,5.102,1.786,6.934l1.993,2.614c4.216,5.484,6.394,11.209,1.854,17.453c-2.788,3.824-6.566,7.106-11.531,7.476
	c-4.873,0.369-9.7-1.498-13.594-4.309c-4.85-3.547-8.421-8.627-10.356-14.26l10.172-4.954c0.91,4.03,2.569,7.972,6.002,10.461
	c2.361,1.691,5.713,2.35,7.684-0.357c2.039-2.812-1.198-6.646-2.892-8.825c-4.988-6.357-7.938-11.001-2.511-18.465
	c5.679-7.834,14.964-8.904,22.694-3.295c3.882,2.834,7.753,7.511,9.769,11.945L168.28,484.464"/>
<polyline id="polyline5901" fill="#255699" points="195.283,537.316 183.797,532.674 197.713,498.208 188.221,494.372 
	192.161,484.637 222.631,496.951 218.703,506.686 209.199,502.851 195.283,537.316 "/>
<path id="path5903" fill="#255699" d="M228.022,533.814c-3.963-1.061-7.995,1.268-9.066,5.229c-1.037,3.904,1.267,7.982,5.242,9.055
	c3.963,1.061,8.006-1.336,9.054-5.229C234.325,538.905,231.985,534.874,228.022,533.814"/>
<polyline id="polyline5905" fill="#255699" points="298.041,518.285 297.315,507.803 316.484,506.467 319.813,554.021 
	307.441,554.884 304.849,517.803 298.041,518.285 "/>
<path id="path5907" fill="#255699" d="M364.592,530.497c1.002,3.063,4.205,4.744,7.2,3.767c3.007-0.979,4.618-4.228,3.629-7.292
	c-1.015-3.121-4.239-4.86-7.259-3.894C365.156,524.069,363.566,527.364,364.592,530.497 M358.37,509.923
	c0.923,2.811,3.883,4.377,6.647,3.491c2.764-0.899,4.251-3.918,3.329-6.74c-0.921-2.811-3.882-4.39-6.647-3.489
	C358.936,504.083,357.449,507.089,358.37,509.923z M378.681,502.919c1.59,4.804-0.104,9.86-3.802,12.591l0.046,0.127
	c6.003,0.046,10.944,3.018,12.88,8.962c3.053,9.377-5.034,16.796-12.856,19.342c-7.821,2.545-18.72,1.302-21.784-8.075
	c-1.936-5.943,0.335-11.267,5.161-14.837l-0.033-0.115c-4.608-0.034-8.93-3.155-10.508-7.96c-2.8-8.661,3.502-15.425,11.256-17.937
	C366.804,492.482,375.893,494.257,378.681,502.919z"/>
<path id="path5909" fill="#255699" d="M429.646,497.805c-2.27-3.664-6.89-4.861-10.6-2.546c-3.651,2.27-4.805,7.096-2.521,10.747
	c2.314,3.697,7.177,4.814,10.828,2.546C431.062,506.236,431.972,501.49,429.646,497.805 M416.433,468.406l-2.927,20.851l0.161,0.022
	c1.324-1.936,2.788-3.433,4.872-4.734c7.926-4.964,17.223-1.303,21.854,6.095c6.187,9.906,1.394,20.377-7.822,26.149
	c-3.917,2.441-9.065,4.228-13.709,3.696c-4.885-0.656-9.733-3.523-12.349-7.706c-3.664-5.853-4.206-13.408-3.562-20.137
	l1.579-16.795L416.433,468.406z"/>
<path id="path5911" fill="#255699" d="M474.745,458.706c-3.109-2.995-7.892-3.04-10.908,0.093c-2.995,3.1-2.95,8.052,0.148,11.037
	c3.133,3.028,8.121,2.947,11.116-0.15C478.133,466.54,477.879,461.726,474.745,458.706 M454.794,433.387l2.211,20.921h0.173
	c0.817-2.201,1.844-4.01,3.57-5.783c6.485-6.729,16.404-5.438,22.659,0.634c8.422,8.12,6.303,19.434-1.255,27.243
	c-3.202,3.318-7.764,6.313-12.385,6.936c-4.918,0.529-10.321-1.083-13.869-4.516c-4.954-4.793-7.314-11.971-8.329-18.663
	l-2.521-16.68L454.794,433.387z"/>
</svg>
