<?xml version="1.0" encoding="utf-8"?>
<!-- Generator: Adobe Illustrator 13.0.0, SVG Export Plug-In . SVG Version: 6.00 Build 14948)  -->
<!DOCTYPE svg PUBLIC "-//W3C//DTD SVG 1.0//EN" "http://www.w3.org/TR/2001/REC-SVG-20010904/DTD/svg10.dtd">
<svg version="1.0" id="Ebene_1" xmlns="http://www.w3.org/2000/svg" xmlns:xlink="http://www.w3.org/1999/xlink" x="0px" y="0px"
	 width="443.701px" height="565.996px" viewBox="0 0 443.701 565.996" enable-background="new 0 0 443.701 565.996"
	 xml:space="preserve">
<path fill="#182544" d="M431.699,31.307c-5.471-8.396-13.513-16.395-24.767-22.118C395.683,3.447,381.365-0.006,363.43,0
	C284.614,0,159.082,0,80.272,0C62.334-0.006,48.016,3.448,36.766,9.19C19.833,17.79,10.36,31.456,5.492,43.995
	C0.577,56.576,0.012,68.165,0,74.247c0,1.983,0,300.99,0,306.142c0.008,2.347,0.292,7.023,1.202,13.835
	c2.791,20.249,11.001,57.989,35.954,87.486c19.304,22.732,41.846,35.628,62.929,43.613c21.074,7.988,40.855,11.267,54.768,14.823
	c13.766,3.488,29.804,9.565,42.255,14.755c6.233,2.595,11.586,4.969,15.369,6.688c1.891,0.859,3.39,1.555,4.411,2.034
	c1.02,0.479,1.539,0.729,1.54,0.729l3.414,1.644l3.415-1.644c0.001,0,0.52-0.25,1.54-0.728c7.091-3.346,37.877-17.373,62.046-23.477
	c13.919-3.557,33.702-6.836,54.777-14.824c21.084-7.985,43.624-20.881,62.927-43.613c16.663-19.639,25.8-43.02,30.935-62.36
	c2.56-9.679,4.105-18.363,5.017-25.126c0.91-6.812,1.194-11.489,1.203-13.835c0-3.435,0-304.166,0-306.146
	C443.66,66.159,442.64,48.167,431.699,31.307z"/>
<path fill="#FFFFFF" d="M427.95,380.388c0.009,1.093-0.224,5.582-1.061,11.73c-2.452,18.63-10.567,53.915-32.344,79.39
	c-17.303,20.332-37.146,31.72-56.514,39.088c-19.377,7.366-38.111,10.508-53.063,14.284c-24.632,6.282-53.394,19.173-63.125,23.681
	c-9.733-4.508-38.491-17.4-63.113-23.681c-14.947-3.775-33.679-6.918-53.055-14.284c-19.368-7.368-39.213-18.757-56.517-39.088
	c-14.49-17.01-22.993-38.299-27.71-56.189c-2.365-8.936-3.799-17.004-4.634-23.201c-0.837-6.149-1.07-10.637-1.062-11.73
	c0-3.435,0-304.384,0-306.142c-0.041-6.432,1.061-21.624,9.435-34.319c4.188-6.384,10.039-12.255,18.737-16.708
	c8.704-4.434,20.396-7.464,36.35-7.469c78.81,0,204.342,0,283.157,0c15.952,0.006,27.644,3.034,36.346,7.468
	c12.996,6.665,19.819,16.576,23.767,26.52c3.9,9.901,4.42,19.699,4.407,24.503C427.95,75.285,427.95,375.237,427.95,380.388z"/>
<path fill="#182544" d="M59.292,232.668l2.934-6.366c3.572,1.478,6.108,3.511,7.603,6.104c1.504,2.588,2.024,5.706,1.565,9.344
	c-0.564,4.503-2.558,8.01-5.999,10.52c-3.437,2.514-7.827,3.437-13.161,2.768c-5.641-0.708-9.842-2.715-12.601-6.021
	c-2.759-3.301-3.839-7.324-3.24-12.076c0.52-4.145,2.164-7.363,4.94-9.646c1.648-1.359,3.87-2.256,6.681-2.685l0.77,6.983
	c-1.806,0.179-3.301,0.844-4.478,1.98c-1.171,1.146-1.88,2.632-2.103,4.451c-0.323,2.514,0.333,4.661,1.933,6.453
	c1.613,1.793,4.434,2.938,8.474,3.437c4.289,0.551,7.433,0.153,9.444-1.154c2.016-1.316,3.17-3.205,3.485-5.675
	c0.232-1.819-0.153-3.458-1.146-4.906C63.401,234.718,61.696,233.555,59.292,232.668"/>
<path fill="#182544" d="M62.558,212.109l0.468-1.316c0.525-1.496,1.036-2.536,1.521-3.144c0.481-0.599,1.163-1.093,2.033-1.478
	c0.866-0.385,2.855-0.966,5.946-1.749l8.675-2.217l2.759-7.774l-7.673,1.701c-3.056,0.66-5.238,1.281-6.545,1.845
	c-1.307,0.573-2.615,1.412-3.931,2.523c0.59-2.973,0.346-5.443-0.726-7.42c-1.067-1.98-2.812-3.397-5.229-4.254
	c-1.902-0.674-3.765-0.805-5.57-0.394c-1.81,0.411-3.279,1.298-4.416,2.649c-1.128,1.36-2.309,3.751-3.528,7.197l-4.853,13.685
	l32.21,11.416l2.3-6.501L62.558,212.109 M51.041,202.32c0.94-2.641,1.535-4.206,1.792-4.709c0.556-0.993,1.264-1.657,2.129-1.998
	c0.879-0.341,1.854-0.324,2.938,0.061c0.966,0.341,1.692,0.853,2.186,1.517c0.481,0.669,0.726,1.438,0.717,2.309
	c-0.017,0.87-0.573,2.864-1.683,5.981l-1.701,4.81l-8.176-2.903L51.041,202.32z"/>
<polyline fill="#182544" points="99.136,170.114 85.534,192.255 56.423,174.363 69.685,152.786 74.612,155.812 64.958,171.517 
	71.416,175.474 80.396,160.862 85.302,163.879 76.313,178.49 84.235,183.361 94.23,167.101 99.136,170.114 "/>
<polyline fill="#182544" points="110.412,157.298 105.074,162.536 75.316,143.884 80.349,138.93 100.47,152.069 88.481,130.947 
	94.335,125.197 115.327,138.03 102.341,117.323 107.304,112.461 125.331,142.647 120.11,147.771 97.356,134.322 110.412,157.298 "/>
<polyline fill="#182544" points="155.355,123.54 133.065,136.91 115.488,107.607 137.21,94.582 140.183,99.531 124.377,109.015 
	128.273,115.517 142.986,106.689 145.95,111.621 131.237,120.448 136.021,128.419 152.391,118.603 155.355,123.54 "/>
<path fill="#182544" d="M171.803,81.518l-4.398,36.399l7.083-1.819l0.805-8.22l13.217-3.393l4.818,6.777l7.271-1.862l-21.73-29.701
	L171.803,81.518 M177.238,88.347l7.699,11.114l-9.024,2.317L177.238,88.347z"/>
<polyline fill="#182544" points="226.802,108.381 202.785,109.679 200.949,75.847 207.835,75.471 209.366,103.563 226.487,102.632 
	226.802,108.381 "/>
<polyline fill="#182544" points="255.93,112.006 230.178,108.569 234.699,74.701 259.804,78.059 259.043,83.791 240.767,81.347 
	239.766,88.85 256.77,91.124 256.009,96.83 239.005,94.552 237.768,103.777 256.691,106.304 255.93,112.006 "/>
<polyline fill="#182544" points="264.509,114.638 256.691,111.945 273.533,98.88 268.833,79.992 276.462,82.615 279.37,95.225 
	289.291,87.023 296.851,89.629 281.403,101.862 286.724,122.276 278.863,119.561 275.54,105.937 264.509,114.638 "/>
<path fill="#182544" d="M317.956,101.101l-29.443,21.857l6.208,3.896l6.506-5.072l11.561,7.263l-1.592,8.159l6.357,3.983
	l6.58-36.202L317.956,101.101 M316.74,109.75l-2.759,13.244l-7.9-4.962L316.74,109.75z"/>
<polyline fill="#182544" points="323.425,147.141 318.843,142.664 342.707,118.21 347.508,122.902 341.579,148.995 357.516,132.674 
	362.103,137.142 338.238,161.596 333.285,156.76 338.99,131.196 323.425,147.141 "/>
<path fill="#182544" d="M348.671,176.217c1.403,2.125,2.737,3.682,3.983,4.674c1.675,1.333,3.332,2.177,4.962,2.527
	c2.156,0.463,4.503,0.358,7.057-0.306c2.077-0.546,4.28-1.6,6.624-3.161c2.658-1.779,4.691-3.581,6.099-5.409
	c1.395-1.836,2.335-3.76,2.794-5.793c0.455-2.024,0.385-4.027-0.245-6.025c-0.464-1.487-1.487-3.411-3.061-5.776l-6.991-10.485
	l-28.433,18.954L348.671,176.217 M373.501,162.877c0.481,1.224,0.625,2.418,0.428,3.555c-0.188,1.137-0.752,2.291-1.666,3.454
	c-0.914,1.185-2.471,2.501-4.674,3.961c-2.195,1.464-4.057,2.431-5.587,2.89c-1.53,0.468-2.785,0.573-3.743,0.333
	c-0.975-0.249-1.88-0.752-2.737-1.53c-0.656-0.595-1.517-1.683-2.58-3.288l-2.868-4.289l18.832-12.553l1.718,2.575
	C372.193,160.324,373.143,161.955,373.501,162.877z"/>
<path fill="#182544" d="M374.725,193.645l0.512,1.299c0.59,1.464,0.896,2.593,0.922,3.367c0.026,0.77-0.153,1.583-0.555,2.453
	c-0.402,0.857-1.513,2.606-3.332,5.229l-5.076,7.367l3.043,7.673l4.656-6.331c1.863-2.514,3.1-4.412,3.708-5.693
	c0.621-1.29,1.049-2.785,1.307-4.495c1.504,2.632,3.314,4.333,5.426,5.12c2.107,0.791,4.355,0.708,6.733-0.232
	c1.885-0.743,3.367-1.871,4.46-3.375c1.093-1.495,1.622-3.135,1.578-4.897c-0.035-1.766-0.726-4.346-2.077-7.739l-5.347-13.501
	l-31.76,12.587l2.54,6.415L374.725,193.645 M389.84,193.435c1.032,2.605,1.614,4.184,1.749,4.73
	c0.232,1.111,0.145,2.077-0.297,2.912c-0.428,0.822-1.18,1.456-2.247,1.88c-0.949,0.376-1.836,0.472-2.641,0.293
	c-0.804-0.188-1.486-0.607-2.059-1.272c-0.555-0.66-1.452-2.522-2.667-5.605l-1.88-4.744l8.058-3.187L389.84,193.435z"/>
<path fill="#182544" d="M406.441,231.343l-35.682-8.43l1.023,7.254l8.076,1.714l1.906,13.519l-7.271,4.04l1.041,7.419l31.931-18.302
	L406.441,231.343 M399.057,235.982l-11.901,6.427l-1.298-9.23L399.057,235.982z"/>
<polyline fill="#182544" points="55.798,345.862 52.537,339.788 82.635,323.624 93.719,344.257 88.625,346.99 80.808,332.43 
	73.681,336.26 80.432,348.826 75.338,351.563 68.591,338.992 55.798,345.862 "/>
<path fill="#182544" d="M73.698,368.103c-0.485,4.289,0.888,8.39,4.119,12.312c3.196,3.878,6.939,5.981,11.254,6.314
	c4.315,0.328,8.596-1.264,12.85-4.766c4.298-3.546,6.681-7.468,7.175-11.783c0.481-4.315-0.87-8.425-4.075-12.313
	c-1.766-2.142-3.681-3.751-5.723-4.818c-1.539-0.805-3.266-1.29-5.186-1.452c-1.924-0.158-3.804,0.018-5.64,0.529
	c-2.479,0.691-5.067,2.151-7.756,4.359C76.519,359.953,74.179,363.823,73.698,368.103 M93.889,358.235
	c2.606,0.096,4.818,1.246,6.628,3.445c1.806,2.186,2.514,4.56,2.121,7.109c-0.394,2.553-2.103,5.081-5.124,7.568
	c-3.061,2.514-5.907,3.725-8.557,3.625c-2.654-0.105-4.854-1.207-6.602-3.336c-1.753-2.125-2.427-4.508-2.024-7.158
	c0.415-2.649,2.107-5.203,5.089-7.656C88.455,359.328,91.275,358.126,93.889,358.235z"/>
<path fill="#182544" d="M99.862,397.292c0.438,4.29,2.65,8.006,6.637,11.149c3.948,3.109,8.058,4.368,12.338,3.778
	c4.29-0.59,8.128-3.043,11.552-7.376c3.437-4.373,4.941-8.723,4.503-13.038c-0.441-4.324-2.632-8.049-6.589-11.167
	c-2.186-1.718-4.39-2.886-6.62-3.502c-1.675-0.455-3.467-0.573-5.374-0.311c-1.915,0.258-3.717,0.822-5.4,1.709
	c-2.282,1.207-4.495,3.179-6.65,5.907C100.894,388.714,99.425,393.003,99.862,397.292 M117.495,383.349
	c2.576-0.446,4.976,0.201,7.214,1.963c2.23,1.762,3.424,3.931,3.581,6.51c0.153,2.58-0.984,5.4-3.411,8.469
	c-2.444,3.118-4.98,4.901-7.594,5.365c-2.606,0.468-4.993-0.153-7.153-1.854c-2.155-1.701-3.323-3.896-3.493-6.563
	c-0.158-2.676,0.949-5.535,3.349-8.579C112.415,385.579,114.924,383.808,117.495,383.349z"/>
<polyline fill="#182544" points="140.13,428.956 133.996,425.804 146.964,400.546 137.944,395.915 140.585,390.773 164.738,403.186 
	162.097,408.323 153.103,403.707 140.13,428.956 "/>
<path fill="#182544" d="M180.718,428.528c0.827,0.564,1.373,1.255,1.666,2.077c0.28,0.822,0.297,1.727,0.022,2.711
	c-0.324,1.167-0.896,2.016-1.705,2.536c-0.822,0.529-1.745,0.744-2.785,0.656c-0.678-0.048-2.217-0.407-4.608-1.067l-6.152-1.701
	l2.444-8.815l5.365,1.5C177.981,427.256,179.905,427.955,180.718,428.528 M170.181,440.543c4.237,1.146,6.93,1.81,8.067,1.998
	c1.828,0.293,3.458,0.188,4.888-0.324c1.443-0.512,2.707-1.377,3.791-2.597c1.093-1.224,1.845-2.588,2.256-4.083
	c0.529-1.897,0.446-3.708-0.24-5.409c-0.682-1.701-1.955-3.135-3.791-4.271c1.596-0.25,2.991-0.901,4.176-1.959
	c1.189-1.058,1.994-2.356,2.426-3.904c0.394-1.417,0.411-2.794,0.053-4.127c-0.35-1.333-0.94-2.479-1.753-3.45
	c-0.826-0.975-1.845-1.745-3.065-2.309c-1.215-0.573-3.135-1.229-5.741-1.941l-13.152-3.655l-9.116,32.923L170.181,440.543z
	 M182.69,414.585c1.067,0.438,1.801,1.058,2.186,1.845c0.385,0.796,0.429,1.701,0.153,2.711c-0.297,1.076-0.861,1.836-1.692,2.313
	c-0.835,0.463-1.836,0.607-3.013,0.428c-0.651-0.096-2.273-0.512-4.853-1.229l-4.359-1.207l2.112-7.612l3.817,1.058
	C180.167,413.763,182.056,414.327,182.69,414.585z"/>
<path fill="#182544" d="M206.742,412.993l-15.806,33.085l7.297,0.538l3.388-7.533l13.62,1.014l2.396,7.958l7.49,0.556
	l-11.114-35.083L206.742,412.993 M209.698,421.204l3.76,12.99l-9.295-0.691L209.698,421.204z"/>
<polyline fill="#182544" points="253.071,445.763 229.128,448.054 225.915,414.314 232.784,413.671 235.451,441.671 252.524,440.04 
	253.071,445.763 "/>
<polyline fill="#182544" points="282.737,438.269 259.494,444.439 250.797,411.681 257.46,409.92 264.679,437.106 281.259,432.708 
	282.737,438.269 "/>
<path fill="#182544" d="M310.938,411.148l6.891-1.272c0.853,3.769,0.656,7.018-0.599,9.733c-1.25,2.724-3.502,4.94-6.733,6.672
	c-4.001,2.129-8.023,2.514-12.059,1.154c-4.04-1.36-7.319-4.416-9.851-9.151c-2.671-5.024-3.45-9.61-2.348-13.764
	c1.12-4.163,3.778-7.372,8.006-9.619c3.69-1.967,7.262-2.47,10.729-1.521c2.06,0.555,4.071,1.854,6.051,3.913l-5.264,4.648
	c-1.194-1.369-2.588-2.212-4.202-2.514c-1.618-0.297-3.231-0.018-4.854,0.839c-2.229,1.203-3.616,2.965-4.153,5.313
	c-0.538,2.344,0.153,5.308,2.068,8.911c2.033,3.813,4.163,6.156,6.392,7.044c2.239,0.887,4.451,0.743,6.646-0.429
	c1.622-0.861,2.742-2.112,3.349-3.76C311.625,415.696,311.598,413.627,310.938,411.148"/>
<polyline fill="#182544" points="348.382,399.212 329.56,414.182 308.472,387.669 313.863,383.371 331.378,405.39 344.801,394.704 
	348.382,399.212 "/>
<path fill="#182544" d="M339.484,385.859l-13.541-12.216l4.622-5.12l13.742,12.396c2.177,1.968,3.655,3.174,4.407,3.633
	c1.246,0.726,2.545,0.949,3.922,0.7c1.369-0.262,2.693-1.11,3.992-2.544c1.307-1.452,1.998-2.812,2.072-4.093
	c0.07-1.272-0.253-2.374-0.988-3.301c-0.734-0.936-2.094-2.304-4.101-4.115l-14.031-12.658l4.613-5.124l13.322,12.015
	c3.057,2.75,5.076,4.827,6.082,6.244c1.01,1.417,1.609,2.881,1.806,4.407c0.192,1.521-0.018,3.139-0.625,4.844
	c-0.608,1.709-1.819,3.572-3.633,5.588c-2.187,2.414-4.119,4-5.815,4.744c-1.683,0.752-3.301,1.084-4.853,1.001
	c-1.548-0.079-2.917-0.446-4.11-1.102C344.613,390.183,342.313,388.412,339.484,385.859"/>
<path fill="#182544" d="M372.596,344.974c0.77-0.638,1.574-0.993,2.444-1.058c0.87-0.053,1.749,0.17,2.623,0.7
	c1.049,0.616,1.71,1.386,2.007,2.308c0.297,0.923,0.25,1.872-0.109,2.847c-0.223,0.656-0.966,2.046-2.239,4.175l-3.257,5.487
	l-7.853-4.656l2.837-4.788C370.663,347.291,371.835,345.616,372.596,344.974 M381.432,358.314c2.212-3.795,3.568-6.222,4.049-7.28
	c0.761-1.675,1.084-3.275,0.966-4.796c-0.105-1.522-0.617-2.973-1.513-4.346c-0.896-1.369-2.016-2.453-3.35-3.249
	c-1.692-1.001-3.454-1.399-5.281-1.185c-1.828,0.219-3.529,1.067-5.125,2.545c0.188-1.609-0.079-3.122-0.787-4.547
	c-0.708-1.425-1.745-2.544-3.126-3.358c-1.268-0.761-2.593-1.137-3.975-1.146c-1.377,0-2.641,0.258-3.786,0.796
	c-1.154,0.538-2.169,1.325-3.035,2.343c-0.879,1.032-1.998,2.707-3.379,5.037l-6.974,11.735l29.382,17.446L381.432,358.314z
	 M359.658,339.421c0.704-0.914,1.495-1.46,2.361-1.622c0.87-0.167,1.758,0.026,2.663,0.564c0.949,0.564,1.539,1.307,1.779,2.229
	c0.232,0.932,0.109,1.937-0.376,3.021c-0.258,0.608-1.084,2.06-2.453,4.368l-2.309,3.887l-6.79-4.031l2.016-3.402
	C358.207,341.642,359.243,339.968,359.658,339.421z"/>
<path fill="#182544" d="M351.944,272.406c-0.238,0.047-0.589,0.134-1.025,0.263c2.903-3.329,5.581-7.254,7.161-11.605
	c2.266-6.31,2.929-11.815,2.929-16.047c-0.005-4.688-0.798-7.774-1.172-8.799c-0.577-1.588-2.187-7.65-2.188-7.658l-0.359-1.357
	l-1.139,0.819c-0.007,0.003-5.118,3.67-6.555,4.507c-0.262,0.156-0.678,0.438-1.188,0.823c1.725-4.085,3.047-8.672,3.183-13.318
	c0.014-0.465,0.019-0.92,0.019-1.366c-0.013-13.308-4.936-21.241-6.155-22.793c-1.04-1.314-4.475-6.568-4.479-6.576l-0.766-1.174
	l-0.825,1.134c-0.005,0.005-3.702,5.081-4.807,6.336c-0.256,0.293-0.671,0.833-1.176,1.606c0.158-1.569,0.254-3.185,0.255-4.821
	c-0.001-3.138-0.344-6.349-1.241-9.413c-3.971-13.566-11.523-19.991-13.211-21.14c-1.386-0.921-6.261-4.88-6.267-4.887l-1.087-0.885
	l-0.44,1.332c-0.004,0.006-1.977,5.965-2.65,7.503c-0.135,0.314-0.327,0.839-0.534,1.548c-0.889-4.236-2.366-8.628-4.82-12.436
	c-7.691-11.851-16.763-15.852-18.705-16.471c-1.586-0.489-7.385-2.894-7.392-2.898l-1.295-0.54l-0.043,1.403
	c-0.001,0.007-0.192,6.291-0.396,7.952c-0.037,0.322-0.07,0.817-0.07,1.483c0,0.16,0.004,0.342,0.009,0.521
	c-2.294-4.001-5.289-8.022-9.111-11.038c-10.804-8.465-20.458-9.483-22.839-9.487c-0.072,0-0.142,0.001-0.19,0.003
	c-0.119,0.002-0.256,0.005-0.407,0.005c-2.12,0-7.547-0.331-7.555-0.332l-1.398-0.086l0.416,1.339
	c0.001,0.007,1.868,6.009,2.226,7.642c0.36,1.647,2.608,8.389,9.696,15.62c-10.76,1.017-17.137,5.122-18.504,6.224
	c-1.042,0.852-4.647,3.3-5.999,4.211c-1.351-0.911-4.956-3.359-5.998-4.211c-1.368-1.102-7.745-5.207-18.504-6.224
	c7.088-7.231,9.336-13.973,9.696-15.62c0.357-1.632,2.225-7.634,2.226-7.642l0.416-1.339l-1.398,0.086
	c-0.008,0.001-5.435,0.332-7.555,0.332c-0.151,0-0.289-0.003-0.407-0.005c-0.049-0.002-0.118-0.003-0.19-0.003
	c-2.38,0.004-12.035,1.022-22.839,9.487c-3.822,3.016-6.817,7.037-9.111,11.038c0.004-0.18,0.009-0.361,0.009-0.521
	c0-0.666-0.033-1.161-0.07-1.483c-0.204-1.661-0.395-7.944-0.396-7.952l-0.043-1.403l-1.295,0.54
	c-0.006,0.004-5.805,2.409-7.392,2.898c-1.942,0.619-11.014,4.62-18.705,16.471c-2.454,3.808-3.931,8.199-4.82,12.436
	c-0.207-0.709-0.398-1.234-0.534-1.548c-0.673-1.539-2.646-7.497-2.65-7.503l-0.44-1.332l-1.087,0.885
	c-0.005,0.006-4.88,3.966-6.267,4.887c-1.688,1.149-9.24,7.574-13.211,21.14c-0.897,3.064-1.24,6.274-1.241,9.413
	c0.001,1.636,0.096,3.252,0.255,4.821c-0.504-0.773-0.92-1.313-1.176-1.606c-1.104-1.255-4.801-6.331-4.807-6.336l-0.825-1.134
	l-0.766,1.174c-0.003,0.007-3.438,5.262-4.479,6.576c-1.219,1.552-6.142,9.485-6.155,22.793c0,0.446,0.004,0.901,0.019,1.366
	c0.135,4.646,1.458,9.233,3.183,13.318c-0.51-0.386-0.925-0.667-1.188-0.823c-1.438-0.837-6.548-4.504-6.555-4.507l-1.139-0.819
	l-0.359,1.357c-0.001,0.008-1.611,6.069-2.188,7.658c-0.374,1.025-1.167,4.111-1.172,8.799c0,4.232,0.663,9.737,2.929,16.047
	c1.58,4.351,4.257,8.276,7.161,11.605c-0.437-0.129-0.787-0.216-1.025-0.263c-1.642-0.307-7.674-2.047-7.681-2.048l-1.346-0.388
	l0.114,1.396c0.001,0.008,0.502,6.15,0.5,7.897c0,0-0.001,0.024,0,0.076c0,0.006,0,0.012,0,0.017
	c0.007,2.143,1.107,11.927,9.978,22.782c3.148,3.816,7.317,6.759,11.432,8.979c-0.696-0.053-1.306-0.076-1.793-0.076
	c-0.518,0.001-0.911,0.02-1.197,0.052c-1.656,0.178-7.939,0.273-7.948,0.274l-1.401,0.021l0.518,1.304
	c0.004,0.006,2.316,5.839,2.791,7.447c0.58,1.957,4.443,11.078,16.187,18.94c4.499,2.993,9.848,4.615,14.785,5.492
	c-1.102,0.289-1.884,0.572-2.302,0.756c-1.527,0.675-7.476,2.673-7.483,2.678l-1.33,0.446l0.891,1.085
	c0.006,0.004,3.996,4.862,4.926,6.241c1.154,1.677,7.618,9.193,21.202,13.093c2.99,0.857,6.115,1.188,9.175,1.188
	c0.893-0.001,1.779-0.032,2.657-0.084c-0.029,0.026-0.072,0.061-0.098,0.084c-1.228,1.143-6.207,4.98-6.212,4.985l-1.114,0.857
	l1.199,0.734c0.008,0.003,5.373,3.291,6.69,4.289c1.537,1.128,9.056,5.544,21.491,5.555c0.913,0,1.852-0.025,2.816-0.075
	c6.997-0.397,13.786-3.481,18.918-6.54c8.32,7.024,19.746,9.995,22.762,10.7l-0.011,0.412l0.599-0.12l0.387,0.486l0.385-0.484
	l0.589,0.118l-0.011-0.412c3.016-0.705,14.441-3.676,22.762-10.7c5.132,3.058,11.921,6.142,18.918,6.54
	c0.964,0.05,1.903,0.075,2.816,0.075c12.436-0.011,19.955-4.427,21.491-5.555c1.318-0.998,6.683-4.286,6.69-4.289l1.199-0.734
	l-1.114-0.857c-0.005-0.005-4.984-3.843-6.212-4.985c-0.025-0.023-0.068-0.058-0.098-0.084c0.877,0.052,1.764,0.083,2.657,0.084
	c3.06,0,6.185-0.331,9.175-1.188c13.584-3.899,20.048-11.416,21.202-13.093c0.931-1.379,4.92-6.237,4.926-6.241l0.891-1.085
	l-1.33-0.446c-0.007-0.005-5.957-2.003-7.483-2.678c-0.418-0.184-1.201-0.467-2.302-0.756c4.937-0.876,10.287-2.499,14.785-5.492
	c11.744-7.862,15.607-16.984,16.187-18.94c0.475-1.608,2.787-7.441,2.791-7.447l0.518-1.304l-1.401-0.021
	c-0.009-0.001-6.292-0.096-7.948-0.274c-0.286-0.032-0.679-0.05-1.197-0.052c-0.488,0-1.097,0.023-1.793,0.076
	c4.115-2.22,8.283-5.163,11.432-8.979c8.87-10.855,9.971-20.639,9.978-22.782c0-0.004,0-0.01,0-0.017c0.001-0.052,0-0.076,0-0.076
	c-0.002-1.748,0.499-7.889,0.5-7.897l0.114-1.396l-1.346,0.388C359.618,270.359,353.586,272.099,351.944,272.406z M215.982,166.227
	c1.02-0.876,4.52-3.385,5.867-4.345c1.347,0.96,4.847,3.469,5.867,4.345c1.552,1.318,9.763,6.857,23.906,7.052
	c0.099,0,0.205,0.001,0.319,0.001c1.806-0.005,3.607-0.188,5.378-0.5c1.78,2.413,8.019,9.242,20.381,13.233
	c1.561,0.502,3.164,0.854,4.777,1.095c0.977,2.913,4.795,11.273,15.22,18.853c1.542,1.114,3.203,2.048,4.914,2.858
	c0.09,3.126,1.324,12.206,8.977,22.43c1.21,1.604,2.598,3.067,4.085,4.405c-0.46,1.494-1.155,4.619-1.159,9.056
	c0,4.103,0.607,9.292,2.587,15.207c0.479,1.414,1.078,2.784,1.757,4.109c-0.072,0.098-0.14,0.188-0.198,0.262
	c-1.217,1.549-6.142,9.469-6.155,22.762c0,0.457,0.006,0.921,0.019,1.394c0.045,1.571,0.233,3.135,0.52,4.676
	c-0.192,0.136-0.367,0.257-0.502,0.344c-1.694,1.114-9.349,7.422-13.534,20.921c-0.385,1.249-0.677,2.523-0.892,3.808
	c-0.309,0.103-0.573,0.187-0.771,0.242c-1.959,0.557-11.128,4.322-19.12,15.982c-0.91,1.335-1.686,2.754-2.37,4.211
	c-0.003,0-0.005,0-0.008,0c-2.272,0.003-9.971,0.787-19.142,6.594c-1.909,0.505-4.515,1.176-5.511,1.35
	c-1.768,0.322-9.356,2.565-17.376,10.477c-1.029-11.215-5.381-17.817-6.529-19.203c-1.07-1.272-4.632-6.45-4.637-6.456l-0.797-1.161
	l-0.797,1.161c-0.003,0.006-3.568,5.183-4.643,6.452c-1.146,1.388-5.503,7.992-6.532,19.21c-8.021-7.915-15.612-10.158-17.38-10.48
	c-0.996-0.173-3.602-0.845-5.511-1.35c-9.171-5.808-16.87-6.591-19.142-6.594c-0.003,0-0.005,0-0.008,0
	c-0.684-1.457-1.46-2.876-2.37-4.211c-7.992-11.66-17.161-15.425-19.12-15.982c-0.198-0.055-0.461-0.139-0.771-0.242
	c-0.215-1.285-0.506-2.559-0.892-3.808c-4.185-13.5-11.84-19.808-13.534-20.921c-0.135-0.087-0.31-0.208-0.502-0.344
	c0.287-1.541,0.474-3.104,0.52-4.676c0.013-0.472,0.019-0.937,0.019-1.394c-0.013-13.293-4.938-21.213-6.155-22.762
	c-0.058-0.074-0.126-0.164-0.198-0.262c0.68-1.325,1.279-2.695,1.757-4.109c1.98-5.915,2.587-11.104,2.587-15.207
	c-0.003-4.437-0.699-7.562-1.159-9.056c1.487-1.338,2.875-2.8,4.085-4.405c7.653-10.224,8.887-19.303,8.977-22.43
	c1.711-0.81,3.372-1.744,4.914-2.858c10.425-7.58,14.244-15.94,15.22-18.853c1.614-0.241,3.217-0.592,4.777-1.095
	c12.362-3.991,18.601-10.821,20.381-13.233c1.771,0.313,3.572,0.495,5.378,0.5c0.114,0,0.22-0.001,0.319-0.001
	C206.22,173.084,214.43,167.545,215.982,166.227z"/>
<path fill="#F6D315" d="M214.631,156.846c-1.082-0.886-7.8-5.249-19.149-5.923c-0.977,0.899-2.012,1.8-3.15,2.693
	c-4.654,3.621-10.447,5.71-15.667,6.922c3.55,0.302,5.901,1.002,6.765,1.341c1.542,0.63,7.553,2.438,7.562,2.44l1.344,0.402
	l-0.855,1.113c-0.003,0.005-2.444,3.186-3.88,5.186c1.384,0.207,2.775,0.327,4.158,0.325c0.097,0,0.202-0.001,0.306-0.001
	c13.589-0.163,21.495-5.581,22.662-6.588c1.021-0.871,3.82-2.892,5.407-4.027C218.517,159.636,215.67,157.688,214.631,156.846z"/>
<path fill="#F6D315" d="M200.731,126.873c-0.17,0-0.322-0.003-0.463-0.005c-0.036-0.002-0.081-0.003-0.134-0.003
	c-0.003,0-0.007,0-0.01,0c-1.975,0-11.267,0.932-21.635,9.075c-4.971,3.88-8.551,9.809-10.932,14.979
	c-0.518,2.639-1.43,5.819-2.988,9.328c4.736-0.214,18.083-1.463,26.57-8.152c10.707-8.375,13.697-17.489,14.015-19.004
	c0.289-1.299,1.286-4.605,1.857-6.471C205.25,126.718,202.265,126.872,200.731,126.873z"/>
<path fill="#F6D315" d="M149.353,178.176c2.327-0.469,4.11-0.593,5.111-0.593c0.235,0,0.431,0.006,0.58,0.017
	c0.449,0.028,1.279,0.04,2.219,0.04c2.47,0,5.735-0.076,5.741-0.077l1.402-0.033l-0.467,1.323c-0.001,0.006-1.361,3.856-2.102,6.199
	c1.213-0.217,2.409-0.505,3.569-0.879c12.937-4.149,18.899-11.659,19.718-12.967c0.717-1.129,2.793-3.885,3.973-5.438
	c-1.863-0.569-5.152-1.591-6.39-2.092c-0.809-0.325-4.255-1.353-9.447-1.347c-2.918,0-6.403,0.321-10.323,1.252
	c-0.645,1.201-1.366,2.429-2.173,3.679C157.815,171.785,153.541,175.41,149.353,178.176z"/>
<path fill="#F6D315" d="M136.22,182.697c0.001,0.015,0.001,0.034,0.002,0.048c0.417-0.161,0.936-0.367,1.54-0.619
	c1.691-0.708,4.031-1.773,6.597-3.195c5.136-2.84,11.166-7.123,14.781-12.723c6.245-9.659,7.117-17.966,7.117-21.274
	c0-0.601-0.03-1.038-0.056-1.257c-0.157-1.324-0.294-4.773-0.362-6.723c-1.803,0.739-4.996,2.029-6.266,2.427
	c-1.481,0.458-10.284,4.266-17.658,15.675c-3.314,5.101-4.784,11.58-5.393,17.117c0.117,1.201,0.19,2.526,0.192,3.975
	C136.715,178.118,136.563,180.322,136.22,182.697z"/>
<path fill="#F6D315" d="M157.263,179.574c-0.959,0-1.797-0.012-2.342-0.043c-0.108-0.008-0.263-0.014-0.457-0.014
	c-2.283-0.002-9.827,0.729-18.793,6.353c-0.268,1.271-0.592,2.583-0.989,3.937c-1.611,5.45-4.913,10.361-8.317,14.315
	c2.934-1.689,5.162-2.437,6.017-2.642c1.625-0.386,7.584-2.382,7.591-2.385l1.329-0.447l-0.056,1.402
	c0.001,0.007-0.166,4.176-0.179,6.646c1.329-0.673,2.607-1.431,3.795-2.299c11.007-7.97,14.328-16.967,14.698-18.466
	c0.332-1.3,1.45-4.563,2.091-6.405C160.469,179.547,158.733,179.574,157.263,179.574z"/>
<path fill="#F6D315" d="M133.164,165.663c-0.533-1.233-1.647-4.496-2.269-6.344c-1.518,1.222-4.213,3.371-5.323,4.114
	c-1.29,0.866-8.638,7.024-12.433,20.079c-0.833,2.841-1.165,5.872-1.164,8.869c0,3.578,0.474,7.093,1.097,10.184
	c1.002,2.419,1.962,5.438,2.613,9.029c0.338-0.262,0.736-0.577,1.201-0.957c1.419-1.162,3.356-2.853,5.409-4.95
	c4.111-4.191,8.666-10.021,10.529-16.424c1.474-5.031,1.956-9.47,1.956-13.116C134.787,170.342,133.535,166.504,133.164,165.663z"/>
<path fill="#F6D315" d="M139.134,206.985c0-1.615,0.076-4.08,0.129-5.617c-1.853,0.612-5.135,1.681-6.434,1.993
	c-1.377,0.317-9.085,3.038-16.629,11.863c0.142,1.333,0.249,2.716,0.288,4.178c0.004,0.229,0.007,0.461,0.007,0.697
	c-0.015,5.486-1.63,10.938-3.6,15.566c2.126-2.33,3.885-3.656,4.602-4.101c1.422-0.875,6.449-4.645,6.455-4.651l1.123-0.843
	l0.388,1.349c0.003,0.006,1.122,3.899,1.88,6.239c1.173-1.108,2.265-2.294,3.219-3.569c7.69-10.254,8.603-19.326,8.6-21.653
	c0-0.135-0.004-0.25-0.009-0.337C139.14,207.802,139.134,207.426,139.134,206.985z"/>
<path fill="#F6D315" d="M105.851,244.742c0.971-1.494,2.267-3.63,3.561-6.184c2.593-5.106,5.158-11.884,5.151-18.458
	c0-0.215-0.003-0.435-0.007-0.651c-0.339-13.58-5.866-21.427-6.888-22.578c-0.88-1.008-2.937-3.777-4.092-5.348
	c-1.073,1.627-2.986,4.498-3.814,5.551c-0.929,1.162-5.75,8.81-5.738,21.594c0,0.433,0.005,0.868,0.018,1.313
	c0.141,5.959,2.498,12.009,5.063,16.875c1.935,2.081,4.146,4.955,6.201,8.71C105.473,245.316,105.652,245.048,105.851,244.742z"/>
<path fill="#F6D315" d="M110.455,264.905c-0.001,2.24-0.159,4.412-0.396,6.445c1.647-4.089,3.433-6.57,4.111-7.347
	c1.104-1.25,4.803-6.324,4.806-6.331l0.825-1.133l0.767,1.174c0.004,0.004,1.652,2.526,3.007,4.513
	c0.451-0.957,0.854-1.931,1.186-2.924c1.911-5.704,2.488-10.679,2.488-14.592c0.004-4.928-0.934-8.208-1.239-8.988
	c-0.485-1.248-1.469-4.554-2.017-6.426c-1.566,1.164-4.344,3.21-5.481,3.915c-1.17,0.713-7.272,5.44-11.634,15.493
	c0.592,1.291,1.163,2.651,1.691,4.117C109.966,256.716,110.454,260.908,110.455,264.905z"/>
<path fill="#F6D315" d="M107.073,277.507c0.725-3.328,1.447-7.853,1.447-12.602c0.001-3.839-0.474-7.821-1.771-11.43
	c-4.587-12.796-12.297-18.504-13.626-19.277c-1.152-0.677-3.976-2.664-5.566-3.794c-0.508,1.882-1.422,5.208-1.878,6.477
	c-0.272,0.727-1.059,3.694-1.055,8.137c0.001,4.031,0.629,9.308,2.815,15.393c1.925,5.392,5.813,10.223,9.626,13.978
	c2.582,1.262,5.817,3.236,9.249,6.237C106.543,279.774,106.806,278.733,107.073,277.507z"/>
<path fill="#F6D315" d="M119.466,302.275c0.373-2.906,0.982-4.838,1.297-5.598c0.648-1.544,2.522-7.537,2.523-7.546l0.417-1.341
	l1.105,0.87c0.004,0.003,2.225,1.753,4.112,3.18c0.178-1.146,0.292-2.298,0.321-3.446c0.011-0.455,0.016-0.903,0.016-1.344
	c0.013-12.771-4.809-20.401-5.74-21.566c-0.818-1.05-2.729-3.919-3.802-5.547c-1.155,1.57-3.211,4.338-4.093,5.345
	c-0.899,1.013-5.287,7.212-6.561,17.934c1.037,1.057,2.08,2.201,3.116,3.463C115.919,291.275,118.142,297.059,119.466,302.275z"/>
<path fill="#F6D315" d="M117.848,314.345c0.626,0.183,1.163,0.329,1.596,0.442c-0.098-1.708-0.372-4.999-1.15-8.916
	c-1.14-5.761-3.381-12.813-7.612-17.969c-8.603-10.511-17.772-13.311-19.292-13.597c-1.316-0.251-4.637-1.175-6.512-1.707
	c0.148,1.919,0.395,5.298,0.396,6.664h0l0.002,0.032l-0.002,0.047v0.014c-0.005,1.667,0.99,11.131,9.54,21.557
	c5.09,6.238,13.474,10.139,19.312,12.224c0.171,0.059,0.342,0.119,0.515,0.181C115.849,313.739,116.943,314.083,117.848,314.345z"/>
<path fill="#F6D315" d="M139.008,335.253c-1.382-4.449-1.667-7.92-1.668-9.69c0-0.417,0.016-0.739,0.038-0.982
	c0.162-1.673,0.186-7.952,0.183-7.96l0.005-1.406l1.312,0.506c0.005,0,2.435,0.937,4.594,1.724
	c-0.173-0.842-0.377-1.676-0.628-2.491c-4-12.987-11.447-19.036-12.741-19.87c-1.124-0.732-3.851-2.842-5.389-4.042
	c-0.59,1.859-1.649,5.14-2.164,6.381c-0.348,0.813-1.469,4.429-1.463,9.882c0,2.717,0.279,5.906,1.049,9.463
	c1.091,0.617,2.2,1.288,3.329,2.042C131.711,323.012,136.171,329.769,139.008,335.253z"/>
<path fill="#F6D315" d="M139.28,343.612c0.499-0.009,0.941-0.021,1.304-0.036c-0.154-0.42-0.353-0.941-0.597-1.548
	c-0.683-1.703-1.715-4.06-3.099-6.646c-2.765-5.178-6.958-11.27-12.5-14.964c-9.832-6.572-18.333-7.443-21.432-7.443
	c-0.463,0-0.807,0.02-0.988,0.041c-1.331,0.138-4.782,0.222-6.732,0.26c0.71,1.815,1.953,5.03,2.338,6.316
	c0.424,1.484,4.1,10.341,15.406,17.879c6.443,4.324,15.183,5.685,21.35,6.04c0.509-0.019,1.028-0.033,1.57-0.033
	C136.965,343.478,138.097,343.523,139.28,343.612z"/>
<path fill="#F6D315" d="M163.808,353.789c-1.856-3.176-2.662-5.603-2.869-6.504c-0.373-1.63-2.329-7.599-2.333-7.606l-0.438-1.333
	l1.401,0.065c0.007,0,3.653,0.169,6.142,0.219c-0.547-1.084-1.153-2.132-1.834-3.123c-7.66-11.226-16.566-14.805-18.047-15.211
	c-1.285-0.366-4.517-1.577-6.342-2.27c-0.015,1.951-0.059,5.398-0.183,6.737c-0.016,0.158-0.03,0.434-0.03,0.801
	c0,2.665,0.724,10.063,5.999,18.884c1.304,0.264,2.649,0.584,4.042,0.983C154.834,347.031,159.813,350.365,163.808,353.789z"/>
<path fill="#F6D315" d="M165.249,357.726c-4.21-4.086-10.061-8.608-16.466-10.438c-4.928-1.409-9.284-1.877-12.882-1.877
	c-5.947-0.007-9.872,1.297-10.729,1.685c-1.227,0.537-4.482,1.665-6.327,2.294c1.231,1.512,3.397,4.196,4.148,5.299
	c0.867,1.282,7.065,8.596,20.135,12.322c2.773,0.795,5.722,1.113,8.643,1.113c1.994,0,3.973-0.148,5.872-0.389
	c2.685-1.58,6.884-3.505,12.535-4.686C169.009,361.642,167.33,359.742,165.249,357.726z"/>
<path fill="#F6D315" d="M179.364,362.005c2.362,0.006,4.718,0.303,7.005,0.783c-1.8-4.65-2.167-8.096-2.181-9.205
	c-0.005-1.671-0.614-7.916-0.617-7.924l-0.023-0.236c-7.725-4.278-13.96-4.864-15.697-4.862c-0.103,0-0.185,0.001-0.249,0.006
	c-0.212,0.008-0.463,0.01-0.748,0.01c-1.588,0-4.323-0.104-5.979-0.172c0.6,1.856,1.646,5.145,1.949,6.451
	c0.288,1.309,2.712,8.393,10.521,15.642c1.443-0.205,2.955-0.366,4.556-0.453C178.389,362.017,178.877,362.005,179.364,362.005z"/>
<path fill="#F6D315" d="M194.489,376.273c-3.378-4.012-5.661-7.89-7.201-11.287c-2.592-0.638-5.272-1.05-7.924-1.047
	c-0.456,0-0.909,0.011-1.358,0.035c-13.564,0.716-21.239,6.458-22.363,7.505c-0.985,0.91-3.699,3.042-5.24,4.241
	c1.659,1.027,4.583,2.856,5.647,3.654c1.158,0.865,8.397,5.181,20.334,5.171c0.878,0,1.784-0.024,2.715-0.072
	c6.277-0.323,12.594-3.108,17.507-5.967C195.865,377.798,195.154,377.056,194.489,376.273z"/>
<path fill="#F6D315" d="M209.715,359.641c-8.129-8.6-16.137-10.922-17.549-11.167c-1.317-0.234-4.654-1.11-6.538-1.614
	c0.181,1.939,0.484,5.37,0.494,6.708c0.008,1.549,1.074,11.078,9.846,21.458c6.432,7.67,17.91,11.658,23.218,13.113
	c0.122,0.034,0.223,0.06,0.337,0.091c-3.127-4.496-9.828-15.366-9.863-26.397C209.661,361.083,209.685,360.358,209.715,359.641z"/>
<path fill="#F6D315" d="M229.068,156.846c1.082-0.886,7.8-5.249,19.149-5.923c0.977,0.899,2.012,1.8,3.15,2.693
	c4.654,3.621,10.447,5.71,15.667,6.922c-3.55,0.302-5.901,1.002-6.765,1.341c-1.542,0.63-7.553,2.438-7.562,2.44l-1.344,0.402
	l0.855,1.113c0.003,0.005,2.444,3.186,3.88,5.186c-1.384,0.207-2.775,0.327-4.158,0.325c-0.097,0-0.202-0.001-0.306-0.001
	c-13.589-0.163-21.495-5.581-22.662-6.588c-1.021-0.871-3.82-2.892-5.407-4.027C225.182,159.636,228.029,157.688,229.068,156.846z"
	/>
<path fill="#F6D315" d="M242.967,126.873c0.17,0,0.322-0.003,0.463-0.005c0.036-0.002,0.081-0.003,0.134-0.003
	c0.003,0,0.007,0,0.01,0c1.975,0,11.267,0.932,21.635,9.075c4.971,3.88,8.551,9.809,10.932,14.979
	c0.518,2.639,1.43,5.819,2.988,9.328c-4.736-0.214-18.083-1.463-26.57-8.152c-10.707-8.375-13.697-17.489-14.015-19.004
	c-0.289-1.299-1.286-4.605-1.857-6.471C238.449,126.718,241.434,126.872,242.967,126.873z"/>
<path fill="#F6D315" d="M294.346,178.176c-2.327-0.469-4.11-0.593-5.111-0.593c-0.235,0-0.431,0.006-0.58,0.017
	c-0.449,0.028-1.279,0.04-2.219,0.04c-2.47,0-5.735-0.076-5.741-0.077l-1.402-0.033l0.467,1.323
	c0.001,0.006,1.361,3.856,2.102,6.199c-1.213-0.217-2.409-0.505-3.569-0.879c-12.937-4.149-18.899-11.659-19.718-12.967
	c-0.717-1.129-2.793-3.885-3.973-5.438c1.863-0.569,5.152-1.591,6.39-2.092c0.809-0.325,4.255-1.353,9.447-1.347
	c2.918,0,6.403,0.321,10.323,1.252c0.645,1.201,1.366,2.429,2.173,3.679C285.884,171.785,290.158,175.41,294.346,178.176z"/>
<path fill="#F6D315" d="M307.479,182.697c-0.001,0.015-0.001,0.034-0.002,0.048c-0.417-0.161-0.936-0.367-1.54-0.619
	c-1.691-0.708-4.031-1.773-6.597-3.195c-5.136-2.84-11.166-7.123-14.781-12.723c-6.245-9.659-7.117-17.966-7.117-21.274
	c0-0.601,0.03-1.038,0.056-1.257c0.157-1.324,0.294-4.773,0.362-6.723c1.803,0.739,4.996,2.029,6.266,2.427
	c1.481,0.458,10.284,4.266,17.658,15.675c3.314,5.101,4.784,11.58,5.393,17.117c-0.117,1.201-0.19,2.526-0.192,3.975
	C306.983,178.118,307.136,180.322,307.479,182.697z"/>
<path fill="#F6D315" d="M286.436,179.574c0.959,0,1.797-0.012,2.342-0.043c0.108-0.008,0.263-0.014,0.457-0.014
	c2.283-0.002,9.827,0.729,18.793,6.353c0.268,1.271,0.592,2.583,0.989,3.937c1.611,5.45,4.913,10.361,8.317,14.315
	c-2.934-1.689-5.162-2.437-6.017-2.642c-1.625-0.386-7.584-2.382-7.591-2.385l-1.329-0.447l0.056,1.402
	c-0.001,0.007,0.166,4.176,0.179,6.646c-1.329-0.673-2.607-1.431-3.795-2.299c-11.007-7.97-14.328-16.967-14.698-18.466
	c-0.332-1.3-1.45-4.563-2.091-6.405C283.23,179.547,284.966,179.574,286.436,179.574z"/>
<path fill="#F6D315" d="M310.535,165.663c0.533-1.233,1.647-4.496,2.269-6.344c1.518,1.222,4.213,3.371,5.323,4.114
	c1.29,0.866,8.638,7.024,12.433,20.079c0.833,2.841,1.165,5.872,1.164,8.869c0,3.578-0.474,7.093-1.097,10.184
	c-1.002,2.419-1.962,5.438-2.613,9.029c-0.338-0.262-0.736-0.577-1.201-0.957c-1.419-1.162-3.356-2.853-5.409-4.95
	c-4.111-4.191-8.666-10.021-10.529-16.424c-1.474-5.031-1.956-9.47-1.956-13.116C308.912,170.342,310.164,166.504,310.535,165.663z"
	/>
<path fill="#F6D315" d="M304.564,206.985c0-1.615-0.076-4.08-0.129-5.617c1.853,0.612,5.135,1.681,6.434,1.993
	c1.377,0.317,9.085,3.038,16.629,11.863c-0.142,1.333-0.249,2.716-0.288,4.178c-0.004,0.229-0.007,0.461-0.007,0.697
	c0.015,5.486,1.63,10.938,3.6,15.566c-2.126-2.33-3.885-3.656-4.602-4.101c-1.422-0.875-6.449-4.645-6.455-4.651l-1.123-0.843
	l-0.388,1.349c-0.003,0.006-1.122,3.899-1.88,6.239c-1.173-1.108-2.265-2.294-3.219-3.569c-7.69-10.254-8.603-19.326-8.6-21.653
	c0-0.135,0.004-0.25,0.009-0.337C304.559,207.802,304.564,207.426,304.564,206.985z"/>
<path fill="#F6D315" d="M337.848,244.742c-0.971-1.494-2.267-3.63-3.561-6.184c-2.593-5.106-5.158-11.884-5.151-18.458
	c0-0.215,0.003-0.435,0.007-0.651c0.339-13.58,5.866-21.427,6.888-22.578c0.88-1.008,2.937-3.777,4.092-5.348
	c1.073,1.627,2.986,4.498,3.814,5.551c0.929,1.162,5.75,8.81,5.738,21.594c0,0.433-0.005,0.868-0.018,1.313
	c-0.141,5.959-2.498,12.009-5.063,16.875c-1.935,2.081-4.146,4.955-6.201,8.71C338.226,245.316,338.046,245.048,337.848,244.742z"/>
<path fill="#F6D315" d="M333.244,264.905c0.001,2.24,0.159,4.412,0.396,6.445c-1.647-4.089-3.433-6.57-4.111-7.347
	c-1.104-1.25-4.803-6.324-4.806-6.331l-0.825-1.133l-0.767,1.174c-0.004,0.004-1.652,2.526-3.007,4.513
	c-0.451-0.957-0.854-1.931-1.186-2.924c-1.911-5.704-2.488-10.679-2.488-14.592c-0.004-4.928,0.934-8.208,1.239-8.988
	c0.485-1.248,1.469-4.554,2.017-6.426c1.566,1.164,4.344,3.21,5.481,3.915c1.17,0.713,7.272,5.44,11.634,15.493
	c-0.592,1.291-1.163,2.651-1.691,4.117C333.732,256.716,333.245,260.908,333.244,264.905z"/>
<path fill="#F6D315" d="M336.625,277.507c-0.725-3.328-1.447-7.853-1.447-12.602c-0.001-3.839,0.474-7.821,1.771-11.43
	c4.587-12.796,12.297-18.504,13.626-19.277c1.152-0.677,3.976-2.664,5.566-3.794c0.508,1.882,1.422,5.208,1.878,6.477
	c0.272,0.727,1.059,3.694,1.055,8.137c-0.001,4.031-0.629,9.308-2.815,15.393c-1.925,5.392-5.813,10.223-9.626,13.978
	c-2.582,1.262-5.817,3.236-9.249,6.237C337.155,279.774,336.893,278.733,336.625,277.507z"/>
<path fill="#F6D315" d="M324.232,302.275c-0.373-2.906-0.982-4.838-1.297-5.598c-0.648-1.544-2.522-7.537-2.523-7.546l-0.417-1.341
	l-1.105,0.87c-0.004,0.003-2.225,1.753-4.112,3.18c-0.178-1.146-0.292-2.298-0.321-3.446c-0.011-0.455-0.016-0.903-0.016-1.344
	c-0.013-12.771,4.809-20.401,5.74-21.566c0.818-1.05,2.729-3.919,3.802-5.547c1.155,1.57,3.211,4.338,4.093,5.345
	c0.899,1.013,5.287,7.212,6.561,17.934c-1.037,1.057-2.08,2.201-3.116,3.463C327.779,291.275,325.557,297.059,324.232,302.275z"/>
<path fill="#F6D315" d="M325.851,314.345c-0.626,0.183-1.163,0.329-1.596,0.442c0.098-1.708,0.372-4.999,1.15-8.916
	c1.14-5.761,3.381-12.813,7.612-17.969c8.603-10.511,17.772-13.311,19.292-13.597c1.316-0.251,4.637-1.175,6.512-1.707
	c-0.148,1.919-0.395,5.298-0.396,6.664h0l-0.002,0.032l0.002,0.047v0.014c0.005,1.667-0.99,11.131-9.54,21.557
	c-5.09,6.238-13.474,10.139-19.312,12.224c-0.171,0.059-0.342,0.119-0.515,0.181C327.85,313.739,326.755,314.083,325.851,314.345z"
	/>
<path fill="#F6D315" d="M304.69,335.253c1.382-4.449,1.667-7.92,1.668-9.69c0-0.417-0.016-0.739-0.038-0.982
	c-0.162-1.673-0.186-7.952-0.183-7.96l-0.005-1.406l-1.312,0.506c-0.005,0-2.435,0.937-4.594,1.724
	c0.173-0.842,0.377-1.676,0.628-2.491c4-12.987,11.447-19.036,12.741-19.87c1.124-0.732,3.851-2.842,5.389-4.042
	c0.59,1.859,1.649,5.14,2.164,6.381c0.348,0.813,1.469,4.429,1.463,9.882c0,2.717-0.279,5.906-1.049,9.463
	c-1.091,0.617-2.2,1.288-3.329,2.042C311.987,323.012,307.528,329.769,304.69,335.253z"/>
<path fill="#F6D315" d="M304.419,343.612c-0.499-0.009-0.941-0.021-1.304-0.036c0.154-0.42,0.353-0.941,0.597-1.548
	c0.683-1.703,1.715-4.06,3.099-6.646c2.765-5.178,6.958-11.27,12.5-14.964c9.832-6.572,18.333-7.443,21.432-7.443
	c0.463,0,0.807,0.02,0.988,0.041c1.331,0.138,4.782,0.222,6.732,0.26c-0.71,1.815-1.953,5.03-2.338,6.316
	c-0.424,1.484-4.1,10.341-15.406,17.879c-6.443,4.324-15.183,5.685-21.35,6.04c-0.509-0.019-1.028-0.033-1.57-0.033
	C306.734,343.478,305.602,343.523,304.419,343.612z"/>
<path fill="#F6D315" d="M279.891,353.789c1.856-3.176,2.662-5.603,2.869-6.504c0.373-1.63,2.329-7.599,2.333-7.606l0.438-1.333
	l-1.401,0.065c-0.007,0-3.653,0.169-6.142,0.219c0.547-1.084,1.153-2.132,1.834-3.123c7.66-11.226,16.566-14.805,18.047-15.211
	c1.285-0.366,4.517-1.577,6.342-2.27c0.015,1.951,0.059,5.398,0.183,6.737c0.016,0.158,0.03,0.434,0.03,0.801
	c0,2.665-0.724,10.063-5.999,18.884c-1.304,0.264-2.649,0.584-4.042,0.983C288.865,347.031,283.885,350.365,279.891,353.789z"/>
<path fill="#F6D315" d="M278.45,357.726c4.21-4.086,10.061-8.608,16.466-10.438c4.928-1.409,9.284-1.877,12.882-1.877
	c5.947-0.007,9.872,1.297,10.729,1.685c1.227,0.537,4.482,1.665,6.327,2.294c-1.231,1.512-3.397,4.196-4.148,5.299
	c-0.867,1.282-7.065,8.596-20.135,12.322c-2.773,0.795-5.722,1.113-8.643,1.113c-1.994,0-3.973-0.148-5.872-0.389
	c-2.685-1.58-6.884-3.505-12.535-4.686C274.689,361.642,276.369,359.742,278.45,357.726z"/>
<path fill="#F6D315" d="M264.335,362.005c-2.362,0.006-4.718,0.303-7.005,0.783c1.8-4.65,2.167-8.096,2.181-9.205
	c0.005-1.671,0.614-7.916,0.617-7.924l0.023-0.236c7.725-4.278,13.96-4.864,15.697-4.862c0.103,0,0.185,0.001,0.249,0.006
	c0.212,0.008,0.463,0.01,0.748,0.01c1.588,0,4.323-0.104,5.979-0.172c-0.6,1.856-1.646,5.145-1.949,6.451
	c-0.288,1.309-2.712,8.393-10.521,15.642c-1.443-0.205-2.955-0.366-4.556-0.453C265.31,362.017,264.821,362.005,264.335,362.005z"/>
<path fill="#F6D315" d="M249.209,376.273c3.378-4.012,5.661-7.89,7.201-11.287c2.592-0.638,5.272-1.05,7.924-1.047
	c0.456,0,0.909,0.011,1.358,0.035c13.564,0.716,21.239,6.458,22.363,7.505c0.985,0.91,3.699,3.042,5.24,4.241
	c-1.659,1.027-4.583,2.856-5.647,3.654c-1.158,0.865-8.397,5.181-20.334,5.171c-0.878,0-1.784-0.024-2.715-0.072
	c-6.277-0.323-12.594-3.108-17.507-5.967C247.833,377.798,248.545,377.056,249.209,376.273z"/>
<path fill="#F6D315" d="M233.984,359.641c8.129-8.6,16.137-10.922,17.549-11.167c1.317-0.234,4.654-1.11,6.538-1.614
	c-0.181,1.939-0.484,5.37-0.494,6.708c-0.008,1.549-1.074,11.078-9.846,21.458c-6.432,7.67-17.91,11.658-23.218,13.113
	c-0.122,0.034-0.223,0.06-0.337,0.091c3.127-4.496,9.828-15.366,9.863-26.397C234.038,361.083,234.014,360.358,233.984,359.641z"/>
<path fill="#F6D315" d="M217.898,339.082c-0.994,1.184-6.317,9.163-6.304,22.751l0,0c-0.022,10.011,6.182,20.458,9.305,24.991l0,0
	c0.369,0.54,0.692,0.995,0.955,1.356l0,0c0.263-0.362,0.586-0.816,0.956-1.356l0,0c1.036-1.514,2.42-3.68,3.803-6.269l0,0
	c2.767-5.178,5.502-12.053,5.495-18.723l0,0c0.013-13.588-5.308-21.568-6.302-22.749l0,0c-0.857-1.027-2.837-3.848-3.95-5.45l0,0
	C220.742,335.236,218.761,338.056,217.898,339.082L217.898,339.082z"/>
<path fill="#D52C1E" d="M188.294,298.947c1.137-2.068,1.723-2.409,2.636-2.523c0.91-0.109,3.052,1.063,4.923,3.205
	c3.087,3.555,6.187,3.555,6.187,3.555l-0.35,4.127c0,0,6.646-1.263,9.169-4.927c2.518-3.668,3.349-7.743,5.15-9.051
	c3.332-2.409,5.496-1.264,5.496-1.264s-4.351-6.759-3.883-10.537c0.455-3.782,2.396-6.869,2.396-6.869s-13.663-6.777-19.465,4
	c-2.409,4.468,1.487,10.655,1.487,10.655s-3.266,1.552-4.923,0.118c-2.16-1.863-4.237-3.205-4.237-3.205s-0.258-6.261-4.932-9.392
	c-5.955-4.014-10.415-0.809-10.415-0.809s3.205,0.922,4.915,4.014c0.905,1.609,1.146,4.236,1.146,4.236s-3.787-0.245-6.178,1.832
	c-4.416,3.826-1.264,9.278-1.264,9.278s3.664-3.437,4.81-3.664c1.146-0.232,2.632-0.232,3.205-0.114
	c0.573,0.114,1.381,1.264,1.381,1.264s-2.177,2.973-1.604,5.146c0.573,2.178,3.428,6.528,3.428,6.528
	S187.149,301.006,188.294,298.947z"/>
<path fill="#D52C1E" d="M184.635,247.161c0,0,4.691-1.486,6.869-0.795c2.173,0.69,5.575,1.963,7.673,1.723
	c4.01-0.459,8.596-5.85,8.596-5.85s-11.114,0.573-14.096-1.137c-2.982-1.718-4.009-3.214-4.469-4.359
	c-0.455-1.15-0.113-8.355-0.914-9.969c-0.805-1.6-2.641-4.897-6.3-5.033c-6.415-0.231-8.355,3.209-8.355,3.209
	s4.573-0.35,6.296,2.514c-11.447-0.691-10.987,6.759-10.987,6.759s2.505-1.745,3.777-1.6c2.06,0.223,2.855,2.173,2.855,2.173
	s-6.41,0.459-6.982,8.937c1.836,0.341,4.127-3.096,7.214-3.555C177.713,239.904,181.994,240.87,184.635,247.161z"/>
<path fill="#D52C1E" d="M255.759,220.246c-0.673-9.501,2.186-18.669-1.71-20.961c0.573,3.778-4.127,10.196-4.127,27.489
	c0,17.183,10.306,18.901,10.306,35.289c0,8.015-3.323,11.796-5.496,12.028c-2.177,0.223-5.269-2.178-5.269-2.178l-4.582,7.792
	c0,0,2.409,4.237,7.673,4.237c1.495,0,14.774-0.922,14.774-16.497C267.328,240.87,257.7,247.603,255.759,220.246z"/>
<path fill="#D52C1E" d="M249.699,214.903c0,0,0.49-3.887,1.862-8.25c1.377-4.351,1.684-6.642,1.684-8.469c0,0,2.54-0.188,3.607,3.83
	c0.463,1.731,0.306,5.715-0.092,11.215c2.287-0.809,5.186-6.038,5.186-10.961c0-4.923-3.428-9.627-6.296-11.687
	c-2.864-2.059-4.932-5.382-4.932-5.382l-0.223,0.459c0,0,0.839,2.229,0.572,3.437c-1.263,5.723-5.382,8.508-5.955,12.833
	C243.883,211.086,249.699,214.903,249.699,214.903z"/>
<path fill="#D52C1E" d="M244.359,311.047c0.392,0.054,0.794,0.082,1.208,0.042c2.295-0.232,2.636-3.096,2.409-5.382
	c-0.232-2.3-0.687-5.614-0.687-5.614s1.6-0.35,1.832-1.146c0.227-0.805-0.114-1.719-0.114-1.719s4.573-2.177,4.573-6.646
	c-1.486,0.914-3.777,1.718-4.805,1.604c2.523-1.955,2.746-3.323,2.746-5.614c-0.805,0.546-2.06,2.068-4.469,1.259
	c-2.112-0.704-1.941-2.641-2.632-3.659c-0.687-1.041-2.409-1.955-2.409-1.955l7.219-11.919c0,0,1.692-7.24-3.664-14.538
	c-6.642-9.055-6.642-17.301-6.642-17.301s1.718,1.377,4.127,0c-3.213-4.119-6.187-7.56-5.964-12.142
	c0.923,0.231,3.323,0.687,4.351-0.341c-2.846-2.077-5.719-8.364-5.382-11.801c1.246,0.573,3.323,0.573,4.818-0.573
	c-1.684-1.246-4.241-4.927-4.932-7.792c-0.682-2.855-3.546-8.469-7.101-9.5c-3.546-1.032-5.5-1.146-5.5-1.146
	s3.555-3.441,0.914-7.336c-2.514,4.696-6.06,6.073-6.06,6.073s0.114-4.923-1.381-6.073c-1.146,3.091-4.119,6.764-5.837,7.909
	c-1.032-1.146-2.641-2.981-0.582-6.996c-1.683,0.315-5.955,2.178-6.296,5.964c-0.223,2.418,0.459,5.151,0,5.841
	c-0.455,0.687-5.382,3.66-5.837,4.691c-0.468,1.037-0.315,2.89-0.805,3.437c-1.032,1.146-2.636,1.954-3.896,2.409
	c-1.264,0.459-3.323,1.946-2.982,2.982c0.35,1.032,1.154,1.828,1.154,1.828s-0.468,2.75,0.455,4.127
	c0.914,1.369,2.859,2.632,4.237,2.291c1.369-0.345,5.159-2.759,6.187-2.641c1.032,0.118,2.973,0.691,2.973,1.718
	c0,1.032-0.359,3.485-3.205,3.209c-2.409-0.228-4.586-0.577-5.033,0.918c-0.258,0.835-0.126,3.209,0.796,3.664
	c0.914,0.459,3.664,0.691,3.664,0.691s-0.459,2.4,1.264,2.4c1.718,0,1.146-2.75,1.146-2.75s4.009,0.455,7.673-0.455
	c3.664-0.914,5.461-3.091,5.999-6.029c0.625-3.502,1.102-6.266,2.82-6.803c0.394,0,0.35,0.463,0.35,0.463s-1.53,1.561-1.53,5.688
	c0,2.514-1.897,5.378-2.982,6.681c-2.75,3.318-4.538,11.342-7.52,13.86c-2.116,1.788-8.015,6.527-11.805,7.332
	c-3.778,0.796-5.146-3.323-10.074-2.632c-4.923,0.682-6.982,4.236-6.982,4.236s4.35-1.032,6.296,1.487c1.941,2.523,4,2.182,4,2.182
	s-3.091,2.287-4.691,2.169c-1.604-0.118-4.691-1.146-4.691-1.146s0.625,4.486,2.514,5.505c4.246,2.295,8.023,0,8.023,0
	s0.223,2.295-0.455,3.664c-0.7,1.369-2.527,3.205-2.527,3.205s4.928,1.032,7.337-1.369c2.405-2.409,2.632-5.964,2.632-5.964
	s7.214,0.573,17.406-3.664c10.201-4.232,13.183-9.624,13.183-9.624s0.113,2.309-2.178,5.042c-5.391,6.418-16.387,8.478-16.387,8.478
	s2.519,5.041,5.846,6.759c3.314,1.709,8.587,3.091,8.587,3.091s-6.642,5.273-5.951,10.773c0.678,5.496,5.378,9.273,5.378,9.273
	s10.659-0.363,13.055,2.519c1.355,1.622,1.955,2.632,0.468,6.418c-0.87,2.195-4.246,2.973-5.614,1.718
	c-1.613-1.474-2.859-4.617-4.936-5.505c-2.4-1.027-9.383-2.855-13.511,5.159c0,0,4.359-3.441,7.219,0
	c-0.781,0.148-1.438,0.396-2.007,0.707c-17.715,1.374-31.663,16.174-31.664,34.241c0,2.99,0.384,5.89,1.103,8.655
	c1.56,0.403,3.169,0.801,3.903,0.929c1.768,0.322,9.359,2.565,17.38,10.48c1.028-11.218,5.385-17.822,6.532-19.21
	c1.075-1.269,4.64-6.446,4.643-6.452l0.797-1.161l0.797,1.161c0.005,0.005,3.567,5.183,4.637,6.456
	c1.148,1.386,5.5,7.988,6.529,19.203c8.02-7.912,15.608-10.154,17.376-10.477c0.734-0.128,2.342-0.526,3.901-0.929
	c0.718-2.766,1.103-5.666,1.103-8.656C256.198,326.627,251.608,317.346,244.359,311.047z"/>
<path fill="#FFFFFF" d="M194.127,215.1c0.538,0,0.975-0.442,0.975-0.979c0-0.538-0.438-0.966-0.975-0.966s-0.971,0.428-0.971,0.966
	C193.156,214.658,193.589,215.1,194.127,215.1z"/>
<path fill="#FFFFFF" d="M210.003,207.308c0,0-1.496-0.835-3.153-0.573c-1.937,0.306-2.868,2.461-2.868,2.461
	C207.878,210.915,210.003,207.308,210.003,207.308z"/>
<path fill="#FFFFFF" d="M221.833,310.351c0.164,0.001,0.327,0.018,0.49,0.021c0.92-1.055,2.283-1.693,2.283-1.693
	s-1.377-1.259-4.236-0.796c-2.274,0.361-3.608,2.306-4.062,3.094C218.107,310.594,219.961,310.36,221.833,310.351z"/>
<path fill="#FFFFFF" d="M243.511,321.306c-0.304-0.228-0.701-0.518-1.183-0.855c-1.229-0.86-2.993-2.011-5.109-3.157
	c-0.656-0.357-1.356-0.709-2.075-1.056c-1.101,0.458-2.119,0.541-2.746,0c-1.604-1.368-4.354-1.945-5.964-0.914
	c-1.596,1.027-0.45,4.582-0.45,4.582s-4.403-2.42-4.48-7.154c-8.161,0.108-16.53,5.139-20.163,7.698
	c-0.48,0.335-0.875,0.623-1.179,0.85c0.464,0.636,0.958,1.268,1.453,1.859c1.201,1.475,2.381,2.782,3.119,3.578
	c6.195-4.829,15.968-4.919,17.002-4.958c0.028-0.003,0.057-0.004,0.086-0.005c0,0,0.001,0,0.001,0c0.005,0,0.011,0,0.016,0
	c0.004,0,0.008,0,0.012,0c0.062-0.006,0.126-0.002,0.192,0.009c1.463,0.043,10.866,0.258,16.898,4.954
	c0.739-0.796,1.92-2.104,3.122-3.579C242.555,322.571,243.047,321.94,243.511,321.306z"/>
<polygon fill="#FFFFFF" points="226.231,323.764 226.231,323.764 226.231,323.763 "/>
<path fill="#FFFFFF" d="M220.992,323.804c-0.085-0.088-0.156-0.188-0.21-0.296C220.813,323.601,220.889,323.706,220.992,323.804z"/>
<path fill="#FFFFFF" d="M198.823,319.325c2.394-1.784,9.262-6.538,17.258-8.302c-0.122-0.83-0.377-3.371,0.612-5.573
	c-7.781,1.272-14.616,5.339-19.436,11.145l0.321-0.04C197.62,317.147,198.107,318.164,198.823,319.325z"/>
<path fill="#FFFFFF" d="M195.726,318.596c-2.228,3.158-3.898,6.74-4.87,10.599c5.681,6.633,9.112,8.395,10.552,8.85
	c0.349-3.133,0.932-6.398,1.896-9.335c-0.708-0.753-2.107-2.276-3.543-4.04C198.195,322.701,196.564,320.582,195.726,318.596z"/>
<path fill="#FFFFFF" d="M200.96,350.129c-0.022-0.729-0.04-1.646-0.04-2.713c0.002-1.943,0.059-4.359,0.261-6.959
	c-1.812-0.421-5.308-2.088-10.919-8.316c-0.243,1.58-0.37,3.198-0.373,4.845c0.006,3.245,0.498,6.374,1.399,9.324
	c0.499,0.117,0.928,0.211,1.215,0.261C193.577,346.766,196.802,347.679,200.96,350.129z"/>
<path fill="#FFFFFF" d="M221.058,331.388l0.797-1.161l0.797,1.161c0.005,0.005,3.567,5.183,4.637,6.456
	c0.323,0.39,0.902,1.206,1.586,2.406c-0.239-3.617-0.742-7.123-1.251-9.961c-0.473-2.636-0.942-4.684-1.197-5.739
	c-2.48-0.358-4.331-0.382-4.555-0.383h-0.022c-0.021,0.002-0.041,0.003-0.062,0.003c-0.016,0-0.032-0.001-0.049-0.002
	c-0.396,0.006-2.171,0.046-4.5,0.382c-0.255,1.058-0.726,3.114-1.198,5.758c-0.51,2.853-1.016,6.378-1.253,10.01
	c0.702-1.24,1.297-2.08,1.626-2.478C217.49,336.571,221.055,331.394,221.058,331.388z"/>
<path fill="#FFFFFF" d="M253.433,332.123c-5.63,6.251-9.133,7.917-10.943,8.335c0.199,2.578,0.256,4.975,0.258,6.91
	c0,1.098-0.019,2.036-0.042,2.78c4.173-2.465,7.412-3.382,8.488-3.578c0.287-0.05,0.716-0.144,1.214-0.261
	c0.902-2.949,1.393-6.079,1.399-9.324C253.805,335.332,253.677,333.709,253.433,332.123z"/>
<path fill="#FFFFFF" d="M221.725,324.167c0.005,0,0.01,0.001,0.015,0.001c0.054-0.001,0.083-0.001,0.083-0.001H221.725z"/>
<path fill="#FFFFFF" d="M240.247,351.722c0.019-0.318,0.11-1.949,0.11-4.354c0.006-4.795-0.391-12.589-2.408-18.359
	c-2.37-2.083-5.839-3.323-8.958-4c0.806,3.523,2.416,11.521,2.421,19.322c0,0.493-0.01,0.985-0.023,1.477
	c1.064,2.979,2.017,6.729,2.431,11.238C236.034,354.861,238.211,353.122,240.247,351.722z"/>
<path fill="#FFFFFF" d="M212.28,345.907c-0.016-0.508-0.024-1.016-0.024-1.521c0.004-7.817,1.616-15.845,2.421-19.375
	c-3.12,0.677-6.587,1.917-8.951,3.998c-2.027,5.79-2.421,13.615-2.415,18.407c0,2.311,0.085,3.903,0.107,4.284
	c2.047,1.404,4.236,3.152,6.465,5.351C210.292,352.59,211.23,348.871,212.28,345.907z"/>
<path fill="#FFFFFF" d="M243.916,324.67c-1.438,1.764-2.836,3.287-3.545,4.041c0.963,2.938,1.546,6.203,1.893,9.337
	c1.438-0.453,4.875-2.212,10.573-8.868c-0.973-3.861-2.646-7.442-4.877-10.602C247.123,320.569,245.486,322.696,243.916,324.67z"/>
<path fill="#FFFFFF" d="M246.101,316.554l0.341,0.043c-1.699-2.047-3.654-3.871-5.807-5.44c-0.313,0.237-0.615,0.581-0.905,1.078
	c-0.522,0.896-1.314,1.777-2.199,2.514c3.404,1.768,6.023,3.614,7.319,4.582C245.569,318.167,246.059,317.147,246.101,316.554z"/>
</svg>
