<?xml version="1.0" encoding="UTF-8" standalone="no"?>
<svg id="svg2" xmlns="http://www.w3.org/2000/svg" xml:space="preserve" height="275" width="400" version="1.0" viewBox="0 0 740 1050"><path id="body" d="m120.26 106.13c9.04 0.44 39.38 0.09 56.83 9.66 3.14 1.72 12.08 26.07 15.63 26.81 238.21 49.93 589.76 83.25 727.55 71.2l63.81 106.94-32.4 44.58 153.52 260.64c-48.4 107.88-40.8 184.09-7.7 327.36-50.8-82.67-230.39-189.41-312.74-214.02-152.49-45.59-300.83-15.43-428.61 59.27l48.04 159.48-58.72 34.16c-35.44-101.09-58.82-149.43-180.54-138.79l-188.78-419.95 144.11-327.34z" fill="#fff"/><path id="outline" d="m1123.1 1016.1c-57.4-159.09-73.6-256.61 8.6-359.02-74.1-95.84-100.4-187.65-153.61-284.73l41.71-50.47-80.67-129.84c-236.5-1.92-488.39-13.91-719.84-68.52-11.11-12.83-12.92-14.65-24.83-20.05-6.07-2.75-26.61-10.634-47.5-9.067 43.73 53.527 65.49 128.96 66.31 201.61 1.23 109.72-63.64 213.16-164.12 255.62l-59.274-119.37c72.03-17.68 145.76-34.99 173.16-112.61 11.75-33.28 21.88-69.24 16.45-104.35-10.16-65.65-47.55-128.4-101.6-165.32-44.338-30.27-98.892-46.721-155.07-48.379-67.59-2.0032-165.31 25.176-223.12 114.73-52.17 10.51-92.76 50.48-91.39 105 1.53 61.41 91.77 74.12 92.11 146.48 0.23 47.88-34.91 48.03-63.78 46.51 25.74 20.48 62.06 33.54 86.19-12.75 9.24 2.33 34.66 45.48 44.2 51.98 40.53 27.65 71.68 72.67 96.92 110.16l70.729 5.2 18.962-7 2.183-11.63 13.292-6.81 1.239-60.48 5.999-0.52 36.371 80.85c-9.1877 21.16 2.759 42.41 18.345 46.45 30.15 67.35 82.83 216.06 105.99 272.1 65.66-15.08 106.29-6.86 132.28 17.71 29.46 27.84 40.1 76.69 47.08 136.42l45.14-30.8c-10.63-64.7-30.01-114.74-66.17-144.98-29.96-25.05-71.42-36.51-128.96-31.46l-100.33-240.54c116.71-61.23 182.84-162.6 183.34-294.21 0.16-41.05-7.85-86.86-21.12-124.04 232 46.03 409.73 59.15 685.89 67.27l52.73 80.66-34.15 46.92c45.18 91.23 85.31 204.11 148.61 291.08-28.4 57.32-66.4 113.95-32.6 243.37-47.8-49.1-91.9-96.45-150.59-129.88-98.64-56.15-167.94-70.24-265.23-70.2-73.77 0.03-148.68 10.73-244.09 49.44-27.6 11.19-61.18 25.84-63.93 58.69-1.05 12.61-1.41 21.84 9.43 46.16 24.68 62.27 50.83 133.31 53.38 195.02l45.76-29.4c-7.69-82.05-53.05-156.89-55.53-212.71 42.9-35.76 120.9-55.86 185.81-62.97 83.45-9.15 173.23-10.45 245.01 24.62 179.42 87.7 231.58 181.44 282.38 276.16l31.9-28.1zm-151.22-69.19l-30.68-75.02c-27.62-19.54-55.16-37.95-81.99-48.26 28.76 48.73 55.03 97.68 77.63 146.97l35.04-23.69z" fill="#231f20"/><path id="head" d="m-69.866 39.449c-88.994-0.589-218.02 60.537-217.52 164.09 0.15 30.85 12.85 60.22 43.76 72.99 38.73-15.58 44.64-43.21 53.43-72.47 16.81-55.88 63.36-102.19 125.28-101.71 33.86 0.27 69.228 15.79 99.396 39.44 23.862 18.72 39.841 55.43 39.024 89.2-0.559 23.11-14.175 44.82-28.19 58.48-2.153 43.96-8.327 83.87-49.542 117.81 88.257-0.59 150.08-77.21 150.41-160.2 0.48-120.68-99.395-206.84-216.05-207.63zm-233.93 89.831c-28.22 17.27-53.21 44.69-54.38 73.2-2.41 58.23 45.36 80.69 68.58 113.08 17.65 24.6 20.29 48.53 17.46 65.63 2.52 8.99 19.45 15.65 22.09-0.21 5.84-17.8 8.5-47.85 0.95-61.74-23.46-43.12-77.58-47.26-77.21-114.13 0.17-26.73 8.77-56.83 22.51-75.83zm243.5 16.51c-76.805 1.26-84.835 64.48-116.86 117.07-13.28 29.95-24.25 34.36-40.28 40.71 7.31 29.85 0.74 64.84-12.41 95.71 13.43 24.34 34.81 38.57 52.59 56.38l51.96 77 56.485 2.94c-1.123-3.73-3.288-6.15-6.626-7.25-8.345-2.93-11.1-3.39-13.253-6.84-2.729-4.38-4.202-8.56-3.261-12.1 1.206-4.54 6.065-7.75 13.779-6.52 5.902 0.94 10.25 13.53 18.512 15.46l3.366-71.52c-14.75 3.66-72.982 6.93-119.28-30.93 58.97 10.53 101.84 1.46 133.59-25.14 24.424-20.47 50.327-53.96 47.225-86.88-3.1081-33.09-31.12-58.36-63.636-58.27-36.166 0.11-60.399 30.41-60.479 65.95-0.08 35.06 32.679 75.17 57.849 84.99l-43.229 11.46c-31.51-24.13-51.12-62.19-53.54-97.08-4.01-57.73 45.37-106.34 102.03-108.87 32.082-1.43 70.214 17.37 88.669 50.7 21.168-62.71-35.757-107.91-93.194-106.97z" fill="#fff"/></svg>
