<?xml version="1.0" encoding="UTF-8" ?>
<!DOCTYPE svg PUBLIC "-//W3C//DTD SVG 1.1//EN" "http://www.w3.org/Graphics/SVG/1.1/DTD/svg11.dtd">
<svg width="275pt" height="205pt" viewBox="0 0 275 205" version="1.1" xmlns="http://www.w3.org/2000/svg">
<g id="#000000ff">
<path fill="#000000" opacity="1.00" d=" M 126.29 0.00 L 130.55 0.00 C 140.06 1.63 147.40 9.22 157.05 10.40 C 162.78 10.85 168.10 8.26 173.25 6.13 C 168.96 14.20 160.33 20.39 150.91 19.78 C 144.98 20.04 139.94 15.95 134.03 16.15 C 127.19 16.16 120.44 17.56 113.67 18.41 C 113.68 13.08 112.34 7.60 113.03 2.37 C 117.30 0.92 121.82 0.37 126.29 0.00 Z" />
<path fill="#000000" opacity="1.00" d=" M 100.75 33.73 C 102.25 23.06 105.50 12.66 110.47 3.10 C 109.60 13.00 109.98 22.96 111.77 32.74 C 136.03 31.29 160.45 34.25 183.92 40.39 C 188.94 41.91 194.28 43.13 198.58 46.28 C 200.76 47.80 201.05 50.59 201.55 52.97 C 202.84 60.22 204.34 67.42 205.59 74.68 C 208.74 76.07 212.20 76.94 215.00 79.02 C 217.49 80.89 217.83 85.32 215.20 87.21 C 213.14 88.66 210.50 87.65 208.24 87.42 C 212.40 111.66 217.33 135.78 221.80 159.97 C 221.75 161.63 223.52 161.88 224.69 162.34 C 238.37 167.02 252.16 171.88 264.64 179.29 C 268.81 182.16 274.01 185.19 274.96 190.60 C 271.96 190.23 269.30 188.79 266.73 187.32 C 253.52 179.50 238.57 175.44 223.98 171.06 C 224.63 177.38 226.93 184.46 223.41 190.32 C 220.20 195.02 212.83 193.17 210.19 188.79 C 205.81 182.11 205.04 173.88 203.95 166.17 C 179.12 161.10 153.81 157.44 128.41 158.45 C 106.41 159.39 84.39 162.61 63.39 169.36 C 58.97 183.16 46.05 191.75 40.56 205.00 L 40.24 205.00 C 41.83 195.31 43.56 185.64 45.05 175.93 C 37.56 178.88 30.40 182.55 23.33 186.37 C 18.83 188.63 14.16 191.27 8.98 191.28 C 4.42 191.18 0.93 187.22 0.00 182.98 L 0.00 180.28 C 1.37 174.61 7.08 171.95 11.91 169.77 C 23.66 164.97 35.90 161.51 48.09 158.02 C 51.67 136.72 55.17 115.40 58.80 94.11 C 54.66 96.50 49.80 97.89 45.01 97.31 C 42.86 97.07 41.23 95.33 40.74 93.29 C 39.46 88.25 41.21 82.63 45.07 79.15 C 49.73 74.88 55.31 71.76 60.96 68.99 C 61.81 68.42 63.22 68.16 63.30 66.92 C 64.72 59.31 65.66 51.61 67.23 44.04 C 67.78 41.24 70.81 40.15 73.15 39.20 C 82.05 36.15 91.46 34.95 100.75 33.73 M 90.66 45.44 C 86.53 46.58 81.37 47.01 78.68 50.76 C 77.47 54.83 77.59 59.17 76.83 63.35 C 114.27 53.65 154.19 57.25 190.55 69.62 C 189.54 64.53 189.50 59.18 187.84 54.26 C 184.83 50.02 179.23 49.08 174.57 47.61 C 147.21 40.79 118.35 40.32 90.66 45.44 M 79.46 83.58 C 77.71 84.62 74.30 84.42 74.06 86.93 C 71.59 109.07 68.68 131.17 66.36 153.31 C 89.37 147.41 113.21 144.70 136.96 145.14 C 154.22 145.38 171.26 148.64 188.10 152.17 C 193.19 153.32 198.34 154.32 203.29 156.00 C 203.70 153.95 202.93 151.91 202.71 149.89 C 199.32 127.45 195.90 105.01 192.52 82.56 C 173.59 76.71 153.88 72.58 133.98 72.94 C 115.37 73.38 96.96 77.35 79.46 83.58 Z" />
<path fill="#000000" opacity="1.00" d=" M 121.21 82.10 C 124.65 81.34 128.19 81.02 131.71 81.36 C 132.30 85.57 131.95 89.82 131.85 94.04 C 131.84 99.23 128.31 103.89 123.83 106.20 C 123.54 106.04 122.97 105.73 122.69 105.57 C 122.46 97.73 121.62 89.93 121.21 82.10 Z" />
<path fill="#000000" opacity="1.00" d=" M 168.30 104.35 C 171.16 104.20 174.11 104.38 176.84 105.31 C 178.63 105.63 178.26 107.60 178.35 108.95 C 178.25 113.12 178.62 117.66 176.44 121.41 C 174.61 124.21 171.99 126.72 168.66 127.54 C 168.19 121.35 168.52 115.11 167.90 108.92 C 167.99 107.44 167.22 105.58 168.30 104.35 Z" />
</g>
<g id="#e2001aff">
<path fill="#e2001a" opacity="1.00" d=" M 90.66 45.44 C 118.35 40.32 147.21 40.79 174.57 47.61 C 179.23 49.08 184.83 50.02 187.84 54.26 C 189.50 59.18 189.54 64.53 190.55 69.62 C 154.19 57.25 114.27 53.65 76.83 63.35 C 77.59 59.17 77.47 54.83 78.68 50.76 C 81.37 47.01 86.53 46.58 90.66 45.44 Z" />
<path fill="#e2001a" opacity="1.00" d=" M 79.46 83.58 C 96.96 77.35 115.37 73.38 133.98 72.94 C 153.88 72.58 173.59 76.71 192.52 82.56 C 195.90 105.01 199.32 127.45 202.71 149.89 C 202.93 151.91 203.70 153.95 203.29 156.00 C 198.34 154.32 193.19 153.32 188.10 152.17 C 171.26 148.64 154.22 145.38 136.96 145.14 C 113.21 144.70 89.37 147.41 66.36 153.31 C 68.68 131.17 71.59 109.07 74.06 86.93 C 74.30 84.42 77.71 84.62 79.46 83.58 M 121.21 82.10 C 121.62 89.93 122.46 97.73 122.69 105.57 C 122.97 105.73 123.54 106.04 123.83 106.20 C 128.31 103.89 131.84 99.23 131.85 94.04 C 131.95 89.82 132.30 85.57 131.71 81.36 C 128.19 81.02 124.65 81.34 121.21 82.10 M 168.30 104.35 C 167.22 105.58 167.99 107.44 167.90 108.92 C 168.52 115.11 168.19 121.35 168.66 127.54 C 171.99 126.72 174.61 124.21 176.44 121.41 C 178.62 117.66 178.25 113.12 178.35 108.95 C 178.26 107.60 178.63 105.63 176.84 105.31 C 174.11 104.38 171.16 104.20 168.30 104.35 Z" />
</g>
</svg>
