<?xml version="1.0" encoding="UTF-8" standalone="no"?>
<!-- Created with Inkscape (http://www.inkscape.org/) -->

<svg
   xmlns:dc="http://purl.org/dc/elements/1.1/"
   xmlns:cc="http://creativecommons.org/ns#"
   xmlns:rdf="http://www.w3.org/1999/02/22-rdf-syntax-ns#"
   xmlns:svg="http://www.w3.org/2000/svg"
   xmlns="http://www.w3.org/2000/svg"
   xmlns:sodipodi="http://sodipodi.sourceforge.net/DTD/sodipodi-0.dtd"
   xmlns:inkscape="http://www.inkscape.org/namespaces/inkscape"
   width="257"
   height="303"
   viewBox="0 0 257 303.00001"
   id="svg2"
   version="1.1"
   inkscape:version="0.91 r13725"
   sodipodi:docname="hinckley afc.svg">
  <defs
     id="defs4" />
  <sodipodi:namedview
     id="base"
     pagecolor="#ffffff"
     bordercolor="#666666"
     borderopacity="1.0"
     inkscape:pageopacity="0.0"
     inkscape:pageshadow="2"
     inkscape:zoom="0.7"
     inkscape:cx="570.65152"
     inkscape:cy="171.24159"
     inkscape:document-units="px"
     inkscape:current-layer="layer1"
     showgrid="false"
     units="px"
     inkscape:window-width="1280"
     inkscape:window-height="744"
     inkscape:window-x="-4"
     inkscape:window-y="-4"
     inkscape:window-maximized="1" />
  <metadata
     id="metadata7">
    <rdf:RDF>
      <cc:Work
         rdf:about="">
        <dc:format>image/svg+xml</dc:format>
        <dc:type
           rdf:resource="http://purl.org/dc/dcmitype/StillImage" />
        <dc:title></dc:title>
      </cc:Work>
    </rdf:RDF>
  </metadata>
  <g
     inkscape:label="Layer 1"
     inkscape:groupmode="layer"
     id="layer1"
     transform="translate(0,-749.36216)">
    <g
       id="g3349"
       transform="matrix(0.52916636,0,0,0.52916636,-28.998007,678.11245)">
      <path
         inkscape:connector-curvature="0"
         id="path3351"
         style="fill:#de0721;fill-rule:evenodd"
         d="m 80.2626,183.9078 c 75.238,-32.8581 146.9048,-46.3428 217.9108,-46.4276 73.6614,-0.0882 146.1781,15.896 216.5964,46.4276 18.1443,77.1799 28.5607,143.8718 20.6995,207.8378 -11.0836,90.1843 -50.4055,168.8453 -118.0761,231.9066 -33.0484,30.7973 -73.2899,58.7963 -119.4827,80.7571 C 246.9192,680.5358 200.8878,647.3279 168.0695,613.9715 119.2439,564.3454 84.1195,504.6762 67.6343,436.438 49.5045,361.3904 55.6238,283.7514 80.2626,183.9078 Z" />
      <path
         inkscape:connector-curvature="0"
         id="path3353"
         style="fill:#ffffff;fill-rule:evenodd"
         d="m 81.0339,432.6557 118.6457,-0.0131 -30.9412,23.8421 33.6392,21.568 -32.1238,23.9579 32.732,23.6559 -33.1491,23.348 33.3033,23.4979 -32.0695,22.9817 C 129.9349,552.2992 103.1751,503.5596 81.158,433.171 l -0.1241,-0.5153 z" />
      <path
         inkscape:connector-curvature="0"
         id="path3355"
         style="fill:#ffffff;fill-rule:evenodd"
         d="m 297.5265,428.5429 216.4851,0 c -18.6338,81.616 -62.5238,147.7648 -124.1874,199.0958 -27.4044,22.8123 -57.552,42.3287 -92.089,59.608 l -0.2087,-0.1016 0,-258.6022 z" />
      <path
         inkscape:connector-curvature="0"
         id="path3357"
         style="fill:#ffffff;fill-rule:evenodd"
         d="m 297.4617,227.3846 0,200.4854 -217.5372,0 c -11.2962,-50.3273 -9.9167,-99.6788 -3.0071,-149.5969 63.6938,-32.365 142.8248,-50.8226 220.5443,-50.8885 z" />
      <g
         id="g3359">
        <g
           id="g3361">
          <path
             inkscape:connector-curvature="0"
             id="path3363"
             style="fill:#000200;fill-rule:evenodd"
             d="m 331.3181,505.3905 23.88,-4.8333 0.004,-1.4586 c -5.8166,0.1367 -11.6738,0.4391 -16.7161,-2.1136 -1.6951,-4.1167 -3.1159,-9.7052 -4.5847,-16.5201 -0.7889,-3.6602 -1.489,-8.2285 1.9589,-10.1916 0.8901,-0.507 1.5921,-0.7596 2.6456,-0.9597 1.0534,-0.2001 2.302,-0.111 3.6582,-0.0938 1.5084,0.019 3.2444,-0.3609 5.1577,-1.3206 0.3272,-0.1641 10.23,-2.5877 11.7712,-2.3556 4.1129,0.6191 6.3116,7.7078 5.7526,11.2611 -1.6623,1.0888 -6.5075,3.4701 -9.3685,3.799 -0.8373,0.096 -2.7823,-0.1394 -4.2701,-0.3336 3.2091,4.6006 3.5664,10.3989 5.5278,15.2427 1.5746,3.8886 4.1515,7.4177 10.8318,9.8799 -0.5751,-7.9455 -0.643,-15.6957 0.1386,-23.3106 0.7343,-7.1536 2.2564,-14.1887 3.7016,-21.155 l -35.4812,2.3053 c -2.2374,0.145 -4.8666,2.5471 -5.3388,4.2266 -2.7439,9.7601 -2.3145,25.1461 0.7318,37.9315 z" />
          <path
             inkscape:connector-curvature="0"
             id="path3365"
             style="fill:#000200;fill-rule:evenodd"
             d="m 327.9373,471.2046 c -1.4385,5.8264 -0.6016,10.4718 -1.0985,16.2984 l -6.3564,-1.2596 c -0.5501,-4.0216 -0.7591,-8.4178 -0.157,-12.4405 l 7.6119,-2.5983 z" />
          <path
             inkscape:connector-curvature="0"
             id="path3367"
             style="fill:#000200;fill-rule:evenodd"
             d="m 336.4908,473.6454 c 1.1417,5.6085 2.1423,18.5882 5.7003,21.1565 2.386,1.7221 7.2126,0.3044 10.0731,-0.0551 -0.9711,-4.9557 -2.0677,-7.9355 -3.0678,-11.8706 -0.7777,-3.0602 -1.0459,-6.0642 -3.3671,-8.6008 -1.2346,-1.3492 -6.2257,-0.4201 -9.3385,-0.63 z" />
          <path
             inkscape:connector-curvature="0"
             id="path3369"
             style="fill:#000200;fill-rule:evenodd"
             d="m 368.7434,506.8722 c 1.0045,-6.5028 1.5802,-12.015 2.2205,-18.0661 0.7975,-7.5379 1.854,-14.824 2.802,-22.5619 0.2276,-1.8571 1.4171,-3.425 3.2174,-3.9367 2.2603,-0.6422 4.7754,-0.2493 7.1475,-0.5432 2.6877,-0.333 6.0231,-1.4394 8.6256,-0.874 1.7466,0.3793 2.007,2.1506 2.0401,3.9368 0.165,8.916 -1.207,23.3955 -3.3743,29.9197 -1.0702,3.2221 -3.1148,4.2049 -5.5693,5.4437 -3.4581,1.7455 -12.232,4.5186 -17.1095,6.6817 z m 4.4729,-30.3922 -0.0784,19.9201 c 3.8449,-2.0473 9.8304,-1.4074 12.242,-4.5666 1.0357,-1.3568 1.4931,-3.3558 1.586,-5.441 0.1901,-4.267 -0.9638,-7.7146 -1.1937,-8.5738 -0.2412,-0.9024 -0.8923,-1.613 -2.5112,-1.5749 l -10.0447,0.2362 z" />
          <path
             inkscape:connector-curvature="0"
             id="path3371"
             style="fill:#000200;fill-rule:evenodd"
             d="m 377.2972,479.7083 0,10.7868 c 1.4386,-0.0788 2.8223,-0.0148 3.7667,-0.0788 1.1275,-0.0765 2.4628,-1.0036 2.7464,-2.9133 0.4274,-2.8782 -0.5755,-5.6165 -0.9416,-8.5034 l -5.5715,0.7087 z" />
        </g>
        <g
           id="g3373">
          <g
             id="g3375">
            <path
               inkscape:connector-curvature="0"
               id="path3377"
               style="fill:#000200;fill-rule:evenodd"
               d="m 326.9117,515.0793 c -3.1215,3.8218 -4.6388,8.9948 -5.1638,14.5515 -0.3239,3.4258 0.1216,7.0771 0.4073,10.568 0.3918,4.784 0.5941,7.9216 1.7269,13.2354 2.6573,12.4655 12.6794,28.5396 22.2541,32.2651 6.7106,2.6112 14.6553,3.1187 21.7775,0.8262 4.8727,-1.5685 9.3103,-4.6154 12.0603,-8.2839 3.2848,-4.3822 4.1279,-8.6111 5.3806,-13.7941 0.5359,-2.2169 1.2212,-6.0843 2.2124,-8.7987 -0.8593,-22.8573 -17.3461,-45.9195 -38.2921,-48.5726 -10.9537,-1.3874 -18.663,3.4731 -22.3632,8.0031 z m -2.3794,29.9879 c -0.1474,-3.9012 0.3022,-8.1248 0.832,-12.2095 0.7071,-5.4513 2.1175,-10.6585 4.4933,-14.5298 3.159,-5.1483 9.2093,-6.5571 14.7092,-6.3873 6.6283,0.2045 11.7337,1.7827 17.0856,4.9404 5.7117,3.3699 9.8007,8.1144 13.31,13.4997 4.9598,7.6116 6.7646,17.4918 6.7195,25.4228 -0.0434,7.6022 -0.2212,12.6497 -3.5836,18.0091 -4.3419,6.9199 -13.8028,11.8102 -20.5059,11.5734 -3.3866,-0.1196 -7.0008,-0.4463 -10.1993,-1.9781 -3.1988,-1.5318 -6.0584,-4.3519 -8.6323,-6.8698 -5.0681,-4.9579 -9.1025,-10.6707 -11.5116,-17.0663 -1.7023,-4.5194 -2.5276,-9.4092 -2.7169,-14.4046 z" />
            <path
               inkscape:connector-curvature="0"
               id="path3379"
               style="fill:#000200;fill-rule:evenodd"
               d="m 331.5413,551.9589 c 6.2301,0.8404 10.1515,-4.1932 14.281,-9.8871 1.5154,3.9144 3.486,5.2587 5.7153,5.1226 2.137,-0.1302 4.0542,-1.4441 6.438,-3.1802 3.9732,-2.8938 8.7405,-6.5776 12.4855,-8.6904 0.4316,-0.2431 0.4775,-0.023 0,0.4703 -0.7933,0.8192 -1.5502,1.5724 -2.4105,2.2817 -3.0733,2.534 -6.5501,4.5169 -9.5177,7.0075 -2.1303,1.788 -3.6331,3.7917 -4.6646,6.0139 -0.9569,2.0607 -1.4063,4.3535 -1.1408,6.9808 -3.346,1.825 -9.1785,-0.6917 -13.4566,0.606 -2.0892,0.6336 -4.033,2.1406 -5.6895,5.3595 -0.9026,-2.0925 -2.4714,-4.4212 -4.0018,-6.5137 3.2956,-1.1784 6.8266,-1.4906 10.1223,-2.2752 0.0523,-0.6801 0.1046,-1.3601 0.1569,-2.0402 -2.7725,-0.4185 -5.545,-0.837 -8.3175,-1.2555 z" />
            <path
               inkscape:connector-curvature="0"
               id="path3381"
               style="fill:#000200;fill-rule:evenodd"
               d="m 335.7056,548.2479 c 0,-0.2886 -0.0785,-0.4592 -0.0785,-0.748 l -6.3953,-5.7083 c -0.4316,0.7087 -0.4316,2.1258 -0.3142,2.795 3.257,2.2052 3.8455,1.6929 6.788,3.6613 z" />
            <path
               inkscape:connector-curvature="0"
               id="path3383"
               style="fill:#000200;fill-rule:evenodd"
               d="m 330.6829,526.0839 10.8293,17.9518 c -4.1983,-2.2703 -7.4163,-4.4729 -9.6128,-8.0312 -1.75,-2.8343 -2.3805,-6.3384 -1.2165,-9.9206 z" />
            <path
               inkscape:connector-curvature="0"
               id="path3385"
               style="fill:#000200;fill-rule:evenodd"
               d="m 333.0377,519.6276 9.9659,20.7861 2.3543,-1.1022 -9.7308,-20.8648 -2.5894,1.1809 z" />
            <path
               inkscape:connector-curvature="0"
               id="path3387"
               style="fill:#000200;fill-rule:evenodd"
               d="m 353.4406,515.6909 -1.8835,23.9359 1.1773,0.1574 3.2172,-23.8571 -2.511,-0.2362 z" />
            <path
               inkscape:connector-curvature="0"
               id="path3389"
               style="fill:#000200;fill-rule:evenodd"
               d="m 346.8488,538.1303 1.2555,0 -1.6478,-20.5498 -2.7467,-2.6771 -1.8832,3.4645 5.0222,19.7624 z" />
            <path
               inkscape:connector-curvature="0"
               id="path3391"
               style="fill:#000200;fill-rule:evenodd"
               d="m 362.8573,522.0684 -6.8273,17.2431 12.4775,-10.393 -5.6502,-6.8501 z" />
            <path
               inkscape:connector-curvature="0"
               id="path3393"
               style="fill:#000200;fill-rule:evenodd"
               d="m 361.0531,547.7362 0.1569,0.8662 c 4.7868,-0.6562 9.7305,-1.4698 14.3606,-1.9684 l 2.0405,-2.4406 -3.0605,-1.4964 c -4.9134,1.2805 -8.1261,3.2519 -13.4975,5.0392 z" />
            <path
               inkscape:connector-curvature="0"
               id="path3395"
               style="fill:#000200;fill-rule:evenodd"
               d="m 362.0731,552.1454 0,0.7087 13.1052,3.9367 -0.2354,-2.5981 c -0.0626,-0.6945 -1.5045,-1.6653 -2.1974,-1.7324 -2.9817,-0.2882 -6.4346,-0.4201 -10.6724,-0.3149 z" />
            <path
               inkscape:connector-curvature="0"
               id="path3397"
               style="fill:#000200;fill-rule:evenodd"
               d="m 361.8377,562.4599 12.0851,10.6293 0.6278,-2.2046 c 0.5779,-2.0302 -0.5051,-2.846 -1.4912,-3.4643 -3.3477,-2.0991 -6.8534,-3.8844 -10.7509,-5.5903 l -0.4708,0.6299 z" />
            <path
               inkscape:connector-curvature="0"
               id="path3399"
               style="fill:#000200;fill-rule:evenodd"
               d="m 356.9725,563.4833 4.6298,13.8576 6.4349,-2.9918 -9.9662,-11.4952 -1.0985,0.6294 z" />
            <path
               inkscape:connector-curvature="0"
               id="path3401"
               style="fill:#000200;fill-rule:evenodd"
               d="m 353.5196,562.7749 5.1792,18.4242 -3.1387,0 c -2.2494,0 -2.7684,-2.6314 -2.6682,-4.8029 l 0.6277,-13.6213 z" />
            <path
               inkscape:connector-curvature="0"
               id="path3403"
               style="fill:#000200;fill-rule:evenodd"
               d="m 349.1252,561.0425 -1.5696,17.6371 c -2.4848,-1.785 -3.1081,-3.4381 -2.9818,-5.1179 0.3256,-4.3291 3.0344,-8.4511 4.5514,-12.5192 z" />
            <path
               inkscape:connector-curvature="0"
               id="path3405"
               style="fill:#000200;fill-rule:evenodd"
               d="m 345.5939,561.6725 -7.2196,8.1102 -0.4708,-0.5515 c 2.0143,-2.6771 2.2761,-5.5787 4.3945,-7.6375 0.6959,-0.6764 1.857,-0.7087 3.2959,0.0788 z" />
          </g>
          <path
             inkscape:connector-curvature="0"
             id="path3407"
             style="fill:#000200;fill-rule:evenodd"
             d="m 317.4169,531.1659 c -0.1058,-7.3114 1.3987,-10.6023 7.9254,-20.4772 0.8721,-1.3192 0.1369,-2.1256 -0.4708,-1.7304 -3.4581,2.2499 -6.6435,5.1009 -10.2007,7.4544 l -1.5694,-0.1567 c -2.3106,5.508 -1.6431,9.6899 2.511,15.3807 l 1.8045,-0.4708 z" />
        </g>
        <g
           id="g3409">
          <path
             inkscape:connector-curvature="0"
             id="path3411"
             style="fill:#000200;fill-rule:evenodd"
             d="m 387.7239,518.1392 -14.9088,-6.4337 c 2.511,-2.7272 3.3702,-3.476 5.4927,-2.5914 0.5866,0.2446 2.1534,1.2073 3.8165,2.4425 2.3287,1.7293 4.0041,3.0304 6.1489,4.3844 l -0.5493,2.1982 z" />
          <path
             inkscape:connector-curvature="0"
             id="path3413"
             style="fill:#000200;fill-rule:evenodd"
             d="m 394.3152,515.0793 -13.5749,-7.6094 c 11.0255,-8.3874 17.0878,-3.4949 22.4417,3.2945 l -0.8632,1.8039 -10.5931,-6.2003 c -1.4463,-0.8467 -1.7997,0.7126 -1.177,1.4144 l 4.9435,5.5711 -1.177,1.7258 z" />
          <path
             inkscape:connector-curvature="0"
             id="path3415"
             style="fill:#000200;fill-rule:evenodd"
             d="m 384.5952,531.044 5.9638,24.5659 1.1773,-0.3937 -6.0425,-24.4871 -1.0986,0.3149 z" />
          <path
             inkscape:connector-curvature="0"
             id="path3417"
             style="fill:#000200;fill-rule:evenodd"
             d="m 389.9313,519.2339 12.6343,24.723 c -5.1179,1.5377 -8.0061,-2.2755 -11.1337,-7.2323 -3.2197,-5.1026 -6.5097,-12.187 -7.5432,-14.1052 l 6.0426,-3.3855 z" />
          <path
             inkscape:connector-curvature="0"
             id="path3419"
             style="fill:#000200;fill-rule:evenodd"
             d="m 406.2539,542.8545 c -5.1029,-7.8573 -11.3794,-18.9006 -11.343,-22.3268 0.0356,-3.3704 2.2828,-4.0908 8.2825,-5.3883 2.3448,6.3308 5.19,11.7562 7.384,16.3242 2.1267,4.4273 3.1924,7.1545 1.3264,8.4779 -1.2774,0.9059 -3.4528,1.7324 -5.6499,2.913 z" />
          <path
             inkscape:connector-curvature="0"
             id="path3421"
             style="fill:#000200;fill-rule:evenodd"
             d="m 406.4108,518.8401 9.4167,16.1409 7.1411,-15.9834 -16.5578,-0.1575 z" />
          <path
             inkscape:connector-curvature="0"
             id="path3423"
             style="fill:#000200;fill-rule:evenodd"
             d="m 431.7577,517.2652 c -3.7085,13.8442 -5.9816,18.9393 -9.6843,23.1902 -3.9417,4.5247 -7.9107,4.474 -14.7994,4.8399 l 3.2174,-1.8108 c 6.3403,-0.598 8.2177,-5.2479 10.1159,-10.8834 1.1945,-3.5463 3.0864,-7.803 5.8141,-11.7926 l 5.3363,-3.5433 z" />
          <path
             inkscape:connector-curvature="0"
             id="path3425"
             style="fill:#000200;fill-rule:evenodd"
             d="m 435.9168,518.4464 -5.0225,11.7317 1.4127,1.1022 8.3181,-1.8109 -4.7083,-11.023 z" />
          <path
             inkscape:connector-curvature="0"
             id="path3427"
             style="fill:#000200;fill-rule:evenodd"
             d="m 440.782,532.9339 0.7847,2.6768 -11.8494,3.1496 -0.6277,-2.3621 11.6924,-3.4643 z" />
          <path
             inkscape:connector-curvature="0"
             id="path3429"
             style="fill:#000200;fill-rule:evenodd"
             d="m 392.7564,545.8465 1.4909,8.5035 c 6.776,-2.1988 12.3346,-1.1748 17.3051,-2.3051 5.2935,-1.2037 7.0523,-2.0012 9.8468,-4.3875 l -4.4203,0.4842 c -1.7867,0.4254 -6.682,1.1675 -11.2548,0.9332 -5.2125,-0.2668 -8.3256,-1.9338 -12.9677,-3.2283 z" />
          <path
             inkscape:connector-curvature="0"
             id="path3431"
             style="fill:#000200;fill-rule:evenodd"
             d="m 407.8822,511.3601 -2.3356,3.543 3.1389,1.4962 c 11.7287,-0.5996 33.0679,-3.8663 43.0497,-7.6631 2.3824,-0.9063 7.596,-4.9329 10.2394,-6.5259 2.3986,-1.4455 6.382,-4.0814 11.8647,-4.9056 2.4804,-0.3725 4.0406,-0.3514 6.6252,0.3398 0.7391,0.1976 1.6039,-0.8339 0.5123,-1.3935 -0.5587,-0.2866 -1.4052,-0.3915 -2.058,-0.4972 -0.8394,-0.1364 -0.8444,-0.2711 -0.2234,-1.0176 l 1.1303,-1.3587 c 0.6792,-0.8167 0.1842,-0.8064 -0.4043,-0.6598 -6.6227,1.6512 -13.6255,4.6257 -18.7479,7.147 -7.0195,3.4553 -9.5588,5.3622 -16.7405,7.4789 -5.5609,1.6389 -27.3832,3.893 -36.0508,4.0165 z" />
        </g>
        <g
           id="g3433">
          <path
             inkscape:connector-curvature="0"
             id="path3435"
             style="fill:#000200;fill-rule:evenodd"
             d="m 412.9102,553.354 6.0436,7.4455 0.7563,-1.3782 c 0.5278,-0.9618 -0.0475,-1.6722 -0.5778,-2.1265 -1.8011,-1.543 -3.7241,-2.9143 -5.8867,-4.273 l -0.3354,0.3322 z" />
          <path
             inkscape:connector-curvature="0"
             id="path3437"
             style="fill:#000200;fill-rule:evenodd"
             d="m 407.2141,554.8004 3.8266,9.9572 5.1895,-2.3227 -8.4888,-8.1067 -0.5273,0.4722 z" />
          <path
             inkscape:connector-curvature="0"
             id="path3439"
             style="fill:#000200;fill-rule:evenodd"
             d="m 404.043,553.2371 4.4767,13.4861 -2.6897,0.0491 c -1.5254,0.028 -1.9689,-1.6841 -1.9783,-3.1586 l 0.1913,-10.3766 z" />
          <path
             inkscape:connector-curvature="0"
             id="path3441"
             style="fill:#000200;fill-rule:evenodd"
             d="m 401.1151,554.9866 -1.3,11.1498 c -0.6506,-0.4806 -2.3537,-1.6336 -2.653,-2.0878 -0.4373,-0.6641 -0.285,-1.0977 -0.0567,-1.7066 1.1256,-3.0018 2.6741,-4.9093 4.0097,-7.3554 z" />
          <path
             inkscape:connector-curvature="0"
             id="path3443"
             style="fill:#000200;fill-rule:evenodd"
             d="m 425.972,544.7394 c 0.6904,7.2576 0.1887,11.9493 -1.8331,15.9714 -4.4484,8.8487 -13.7452,11.8005 -17.1162,12.2643 -5.1574,0.7098 -9.9139,-1.9244 -14.9336,-6.4001 7.278,2.6743 13.2599,2.9517 18.1349,1.1842 7.8598,-2.8493 14.9773,-7.5011 15.748,-23.0198 z" />
        </g>
      </g>
      <g
         id="g3445">
        <path
           inkscape:connector-curvature="0"
           id="path3447"
           style="fill:#000200;fill-rule:evenodd"
           d="m 166.7704,261.4653 c 0.6583,5.715 1.6066,10.3649 3.4286,14.4758 1.5095,3.4061 4.1376,6.7966 6.1817,9.1078 0.8439,-1.1787 1.3743,-1.8515 3.2881,-1.896 -2.925,1.9689 -2.4114,4.5836 -1.7063,7.3372 0.5977,2.3346 -2.044,5.0845 -6.0386,7.4096 -2.1721,1.2644 -4.3875,2.0071 -7.2173,2.5775 -1.4511,0.2924 -2.8711,1.2919 -4.579,1.7057 -4.0024,-5.9911 -5.0547,-9.6176 -9.039,-9.228 1.2234,-1.7689 4.2161,-2.0207 7.7137,1.2649 -2.8983,-4.5736 -5.323,-9.7583 -10.6251,-12.1415 2.4239,-0.8832 3.5847,-1.1028 5.1558,0.0512 1.5707,1.1536 3.5527,3.6818 6.1029,6.7779 -3.3304,-9.6517 -11.2086,-14.2504 -9.2333,-23.3969 3.1206,8.2185 7.7572,12.2682 11.8884,18.8444 0.0729,-1.1647 -1.5741,-4.5842 -3.506,-8.7558 -2.484,-5.3636 -6.123,-10.4136 -1.4261,-17.2959 0.0882,11.2097 5.3559,11.9343 9.9918,23.9019 -0.4215,-6.7448 -3.7486,-13.3633 -0.3803,-20.7398 z" />
        <path
           inkscape:connector-curvature="0"
           id="path3449"
           style="fill:#000200;fill-rule:evenodd"
           d="m 182.2663,292.1229 c -0.487,0.8351 -0.7093,1.3251 -0.6904,1.8245 0.0484,1.2772 1.2658,1.4266 1.1759,3.3207 -0.0729,1.5423 -1.1773,4.3399 -3.8107,8.5351 1.2127,0.335 2.3627,-0.394 2.949,2.1326 -2.9587,-0.3807 -3.053,3.7355 -0.3773,6.7779 -3.363,-0.0412 -4.2757,3.3964 -3.8241,7.9283 0.3593,1.3228 1.5449,2.1272 1.9422,4.6182 0.7608,-1.4492 3.0708,-5.724 3.407,-8.5922 0.599,-5.1138 -0.8,-10.7804 0.5331,-15.5619 2.9347,-10.5243 13.3191,-16.5747 11.7465,-32.818 3.1014,3.1326 4.1927,6.6439 2.6353,12.8002 5.899,-7.2577 5.355,-15.5401 2.8863,-21.5846 4.7579,3.8065 6.3267,10.1234 5.3962,17.4434 6.0815,-9.9768 5.2971,-18.0918 1.8824,-25.4749 6.7195,3.3362 10.8079,8.8367 7.906,18.6983 4.4782,-5.4284 6.5687,-14.4678 8.9099,-23.467 3.3777,8.3192 3.1056,17.1977 -2.1334,26.3533 4.5389,-3.6807 9.3493,-9.4113 11.5453,-16.4394 0.2666,4.4501 -0.6478,8.8445 -2.7419,13.1914 -1.0393,2.1575 -2.8504,5.0948 -4.2887,6.8161 l -4.5147,4.5889 c 3.3048,-0.7947 5.9402,-0.3342 6.9021,0.8785 -3.974,0.2718 -6.9026,0.8158 -7.5295,2.7608 1.6734,-0.2927 3.2208,0.1258 4.8942,0.5019 -3.535,0.251 -6.2546,1.548 -7.2786,2.0079 l -2.8863,5.2707 -11.2943,12.4237 c -0.7646,3.161 3.435,8.1679 0.5407,9.8226 -5.9555,3.4047 -7.411,8.7633 -6.6272,13.5827 -0.9188,-4.4348 -3.2578,-6.1411 -7.0281,-6.6525 -0.6575,-0.0893 -0.8392,0.3698 -0.0776,0.8873 1.4469,0.9831 1.9533,3.1348 1.837,5.4677 -0.1261,2.5324 -1.9049,5.6897 -3.7261,8.0351 -2.8415,3.6591 -6.5729,7.9455 -3.7433,15.7269 -1.6537,-2.9445 -5.3194,-4.8466 -6.5521,-5.8817 -2.7049,-2.2722 -2.8841,-7.0156 -7.1249,-7.5451 2.3167,3.4094 0.4391,5.3165 0.5646,8.9141 0.2802,1.5415 1.4814,3.7269 2.928,5.8152 1.1253,1.6242 2.536,2.9189 2.5652,4.8872 0.0312,2.1097 -1.5752,5.7651 -3.8635,8.2611 -2.5933,2.829 -6.3589,3.8491 -8.9715,0.7983 2.225,0.1054 3.6446,-0.7299 4.8019,-2.0939 1.3857,-1.6328 1.6909,-4.3435 0.5183,-7.2109 -1.1363,-2.7795 -3.7007,-5.6847 -5.6554,-9.3162 -2.5463,-4.7297 -4.9396,-9.6801 -5.8292,-15.2649 -0.6166,-3.8725 0.1442,-7.3351 1.6448,-10.2946 1.3292,-2.6225 2.8877,-4.1752 4.8956,-6.2679 0.3625,-0.3779 -0.4091,-2.8276 -1.044,-3.7734 -0.3417,-0.5089 -2.4576,-0.5053 -3.4735,-0.6185 -0.9093,-0.1016 -1.1344,-0.8615 -1.6731,-0.9055 -3.7712,-0.3086 -8.6982,0.5985 -11.3781,1.5329 1.6359,-2.0919 5.463,-4.4342 10.6048,-5.8372 0.3668,-1.8991 0.6055,-3.2583 1.4878,-3.9128 1.6671,-1.2362 5.1063,-1.5679 8.0071,-2.1965 1.5189,-0.3292 3.12,-0.9917 4.4075,-1.7296 1.8929,-1.0852 3.6045,-2.7962 6.2454,-5.0687 -0.2296,-2.7858 0.9561,-4.4287 2.3774,-4.0956 z" />
        <g
           id="g3451">
          <path
             inkscape:connector-curvature="0"
             id="path3453"
             style="fill:#0068b0;fill-rule:evenodd"
             d="m 176.4113,348.335 c 0.3865,5.397 2.8098,5.1399 4.7133,7.9684 1.2608,1.8734 1.3629,4.587 0.9244,6.3372 -0.95,3.7928 -3.8463,7.4093 -6.162,9.4962 -2.6242,2.3654 -4.3029,3.88 -3.6885,8.2118 0.2791,1.9686 2.4957,8.9798 4.0558,12.9499 -2.0902,-9.2792 -1.2532,-13.4221 0.428,-15.6851 1.332,-1.7931 2.4851,-1.9497 3.8986,-2.9103 0.9672,-0.6569 2.1417,-1.6656 3.248,-3.2377 1.7764,-2.5243 1.9818,-4.8789 1.9985,-6.576 0.0325,-3.2739 -0.4505,-6.4869 -2.2675,-9.2666 -0.6806,-1.0413 -1.4845,-1.822 -2.3332,-2.5054 -1.9848,-1.5989 -3.6612,-1.6451 -4.8154,-4.7824 z" />
          <path
             inkscape:connector-curvature="0"
             id="path3455"
             style="fill:#0068b0;fill-rule:evenodd"
             d="m 197.6715,333.574 c 1.7496,5.786 -1.3974,6.5431 -3.9323,8.7547 -1.8495,1.6136 -3.2069,3.4386 -3.9465,5.5542 -1.6647,4.7634 0.3751,6.5987 1.098,10.0254 0.463,2.1963 0.4319,5.279 -1.6158,9.4434 7.5599,-10.4064 4.4482,-10.6574 5.6499,-15.3142 0.5471,-2.1203 2.1395,-3.8344 3.4326,-5.9958 2.155,-3.6028 3.8591,-8.2277 -0.6859,-12.4677 z" />
          <path
             inkscape:connector-curvature="0"
             id="path3457"
             style="fill:#0068b0;fill-rule:evenodd"
             d="m 198.927,357.1161 c 3.0919,5.3801 0.0692,9.8616 -1.8337,12.9185 -0.9967,1.6008 -1.6673,2.5499 -1.7572,4.5149 -0.1798,3.9226 -0.3809,7.083 -1.8548,9.0096 -0.7274,0.9511 -1.5944,1.6598 -2.637,2.0593 0.0523,1.3384 -0.3662,3.7005 0.6277,5.9054 -2.1328,-2.7002 -3.4167,-5.1382 -4.0572,-7.4077 -1.3712,-4.8596 0.0253,-9.371 3.553,-12.8143 1.1147,-1.0883 2.3537,-2.1267 3.5227,-3.2319 2.8448,-2.6894 5.7501,-6.8804 4.4365,-10.9538 z" />
          <path
             inkscape:connector-curvature="0"
             id="path3459"
             style="fill:#0068b0;fill-rule:evenodd"
             d="m 209.5209,312.4727 c 6.3714,3.0994 4.289,10.856 -1.5694,17.7155 0.008,4.0736 -0.3845,7.0559 -1.3225,9.4971 -0.6878,1.7902 -2.536,4.907 -4.4061,7.4313 2.182,-5.4098 1.7229,-8.8986 1.0237,-11.4802 -0.6169,-2.2781 -1.5613,-3.4053 -1.056,-6.2916 0.3639,-2.0788 1.4906,-4.6674 3.3504,-6.5345 1.8226,-1.8298 3.9348,-2.8454 4.9279,-4.4409 0.8765,-1.4077 0.8829,-3.3198 -0.948,-5.8967 z" />
        </g>
        <path
           inkscape:connector-curvature="0"
           id="path3461"
           style="fill:#000200;fill-rule:evenodd"
           d="m 181.9825,377.1326 c -2.9058,2.8785 -3.6927,9.7736 -3.1949,16.1712 0.6199,7.9694 4.1479,16.9489 8.6876,22.7508 -0.7324,-1.7533 -1.0724,-3.7425 -1.0201,-5.2596 2.1448,3.6123 3.5833,5.9644 6.9051,7.923 -1.7919,-2.8832 -3.3092,-5.3007 -3.8452,-8.394 1.4033,1.8865 2.7225,3.4734 5.1263,4.4172 2.1211,0.8328 4.503,1.2447 8.2135,0.763 -5.2248,-1.709 -8.5861,-4.587 -10.6716,-8.396 3.7728,1.6383 8.1281,2.1879 11.2993,1.4909 -5.3945,-1.5318 -8.8342,-3.6969 -9.8869,-6.5145 2.0402,0.7087 3.6095,0.63 5.6497,0.4725 -8.1094,-2.8669 -10.6535,-6.6266 -13.3122,-11.5561 -2.4205,-4.4883 -4.1479,-9.4247 -3.9506,-13.8684 z" />
      </g>
      <g
         id="g3463">
        <path
           inkscape:connector-curvature="0"
           id="path3465"
           style="fill:#ffffff;fill-rule:evenodd"
           d="m 388.6655,283.1281 c 5.0016,-0.044 8.1514,-0.2557 11.5347,-0.3915 3.2197,-0.1291 4.8447,-8.0348 -1.8966,-10.2823 -2.2274,-0.7424 -8.9472,-1.2574 -12.306,-1.6447 -1.1169,-0.1286 -2.1306,-2.8112 -2.1873,-4.7248 -0.0624,-2.0977 1.945,-2.6553 3.7177,-2.8409 1.6292,-0.1709 3.2472,0.1104 4.1977,-0.28 0.7129,-0.293 1.2065,-0.9569 1.6874,-1.6789 1.1981,-1.8001 2.1269,-2.6145 4.2419,-3.0555 4.6099,-0.9617 10.5653,0.7048 14.9325,0.6758 2.0165,-0.0133 3.4609,-0.067 5.2292,-0.6046 1.0607,-0.3225 2.4648,-1.1826 3.4128,-0.5927 1.1044,0.6868 1.8871,1.8924 2.0632,3.0182 0.0743,0.4764 -1.3662,1.8101 -2.9275,3.1162 -1.3776,1.1525 -2.4937,2.2438 -2.6417,4.3675 -0.2619,3.7547 -1.5627,8.1238 6.1739,12.6404 -3.8193,1.6721 -4.7017,2.6329 -4.8837,3.7506 -0.2014,1.2391 1.8757,4.1716 3.3143,5.5868 0.1542,0.1516 -0.9171,1.288 -1.2916,2.5529 -0.4814,1.627 -0.709,3.2634 -0.5916,4.9056 -7.3142,0.7844 -8.4208,6.5095 -4.4724,13.8879 -2.3815,0.4903 -3.2539,-0.8692 -4.8243,-2.4494 -1.1581,-1.1651 -1.4063,-1.0905 -2.8368,-0.2443 -0.6709,0.3967 -1.3515,0.8383 -2.0672,1.1686 -2.4984,1.1531 -5.4064,-0.6981 -7.7384,-0.7488 -3.252,-0.0706 -5.7794,0.9302 -7.8137,2.5096 -1.6578,1.2869 -2.6503,2.6501 -3.5936,4.4699 -0.4341,0.8378 -0.8843,1.4107 -1.8855,1.2577 1.0168,-2.3616 1.5018,-4.7459 1.5694,-7.0627 -8.571,0.6158 -10.2406,3.8986 -15.6935,3.6101 1.5168,-1.5454 2.3351,-3.5383 2.6952,-5.1861 0.4032,-1.8479 0.3945,-3.6738 -1.4622,-4.7662 -1.0376,-0.6105 -2.5778,-1.0042 -4.6855,-1.1864 0.128,-0.9244 1.8105,-1.2475 3.8051,-1.8643 2.2605,-0.699 4.969,-1.6092 7.0882,-2.6421 2.7205,-1.3258 3.9612,-2.1959 6.2125,-5.6989 3.7395,0.2683 6.2546,-0.2042 7.947,-0.9866 1.9803,-0.916 2.5412,-2.0942 2.8932,-3.1707 0.5688,-1.738 0.2983,-3.2993 -1.8548,-3.5235 -2.5825,-0.2694 -3.5502,-0.0507 -5.0876,-0.1147 -1.4856,-0.0618 -1.0855,-1.7675 0.0256,-1.7772 z m 10.6042,-20.6923 -0.0392,0.9842 c -0.0114,0.2902 0.7254,1.3387 1.177,1.3387 l 3.4921,0 c 0.3614,0 1.2071,-0.7805 1.2162,-1.0629 l 0.0393,-1.2202 -2.9821,-2.2836 -2.9033,2.2438 z" />
        <path
           inkscape:connector-curvature="0"
           id="path3467"
           style="fill:#ffffff;fill-rule:evenodd"
           d="m 372.3443,307.0607 c -5.2428,1.97 -10.8967,3.7188 -16.0538,4.3065 -5.4899,0.6255 -9.8747,-0.5365 -11.0461,-3.2011 -0.1789,-0.407 -0.7285,-0.5453 -1.2288,-0.2084 l -2.1525,1.4506 c -0.5307,0.3575 -0.6809,0.8918 -0.4636,1.0832 1.3531,1.1912 1.7794,2.7583 -0.3887,4.4145 -0.7513,-0.8058 -1.9367,-1.2485 -2.4041,-1.2085 -0.5454,0.7616 -1.0504,2.1671 -0.9044,4.0575 0.8607,0.2922 1.4074,0.3086 2.2289,0.0496 l 1.0428,1.5932 0.049,2.3849 c -0.5234,-0.0804 -0.8116,-0.318 -1.6097,-0.005 -0.4104,0.1611 0.1775,2.7787 0.4388,3.2765 0.1731,0.33 0.9717,0.1302 1.1812,-0.2524 0.2095,-0.3826 0.2293,-0.8946 0.3951,-1.1857 l 3.727,3.3001 c -0.1879,0.2794 -0.7666,0.6228 -0.8526,0.9873 -0.1213,0.5142 0.1839,0.9897 0.5084,1.1197 l 1.7588,0.7059 c 0.6071,0.246 0.9878,-0.2847 1.0421,-0.9942 0.0325,-0.4257 0,-0.8373 0.3188,-1.263 0.8726,-1.4917 2.706,-1.9775 4.1905,-1.7844 1.9094,0.2482 3.5024,1.8145 2.9993,4.7553 2.94,0.3731 5.6391,-3.0057 7.884,-2.7438 1.0201,0.1188 2.0816,0.9936 2.9643,2.7997 5.4813,0.6364 7.4271,-1.5582 9.6125,-2.0585 0.9931,-0.227 2.0591,0.0437 2.5694,0.9094 1.935,-1.7141 3.6142,-3.5839 5.3717,-4.6597 1.367,-0.8364 3.1103,-1.313 4.2238,-1.2744 2.7937,0.0971 4.5887,2.2347 6.793,4.998 2.1365,2.6782 4.8875,5.1107 7.2215,7.9213 1.6005,1.9272 0.0546,3.3521 1.3799,7.2641 0.9786,2.8883 2.1336,4.9824 2.9406,6.4869 1.9118,3.5633 2.9623,4.186 2.9325,6.8464 -0.029,2.6081 -3.7094,3.5681 -4.1162,7.3723 -0.1703,1.5916 -0.2207,3.8758 0.246,7.3334 l 5.1788,-2.8218 c -0.5337,2.0663 -1.0301,5.712 -0.6319,6.2763 0.8128,1.1517 4.1262,3.3994 7.8509,5.7284 -5.1791,5.6594 -6.7095,12.407 -9.5828,13.6931 -1.0587,0.4739 -2.6581,-0.5796 -4.3059,-2.5513 -1.5869,1.4987 -2.7542,3.9846 -2.8162,5.6811 -0.2819,0.7671 2.3557,1.6929 2.7118,2.7789 0.1275,0.389 -0.2228,1.728 -0.8698,1.9483 -0.5857,0.1998 -1.3028,0.1784 -2.9556,0.096 l -0.3075,2.0527 c 0.7822,0.2337 2.976,1.2622 2.0791,3.1081 0.3548,0.9714 1.1019,0.9984 1.7706,1.2619 1.3704,-1.4311 2.5307,-1.6459 4.1707,-1.6242 l 1.2455,1.8432 c 0.7385,0.114 3.0121,-0.027 3.4968,-0.2847 0.2067,-2.6977 2.2791,-3.2956 3.5586,-2.9011 5.4198,-3.7224 9.7522,-8.8954 11.8825,-12.4924 1.278,-2.1579 0.623,-3.0797 2.6985,-5.0831 0.798,-0.7705 2.3529,-0.3097 3.4378,-0.7786 0.8854,-0.3826 1.3957,-1.0073 0.5136,-1.9606 -5.895,-6.37 -6.0823,-12.1922 -6.3756,-15.7446 -0.1867,-2.26 -2.2777,-5.2468 -3.6223,-7.9531 -1.2655,-2.5465 0.1789,-8.0059 2.6078,-8.1594 1.46,-0.0922 4.8731,3.5616 8.5193,8.3261 1.5109,1.9739 3.1902,4.0814 4.6696,6.0387 1.6768,2.2185 3.1657,4.2241 5.0862,5.218 1.6431,0.8504 3.9301,0.7071 5.5793,0.0304 4.3046,-1.7667 6.8803,-9.4041 7.1155,-16.0485 0.2209,-6.2415 -2.6398,-11.7635 -4.3694,-16.277 -1.8198,-4.7484 -2.477,-8.3924 -2.6334,-15.3192 -0.1333,-5.9146 1.4797,-13.305 8.4962,-20.9884 2.1628,-2.3685 4.0953,-4.624 7.2507,-6.9549 2.0226,-1.494 4.5027,-2.8811 8.0198,-4.8054 0.7012,-0.3838 1.5938,-0.6662 2.4227,0.2738 1.354,1.5359 1.9258,3.3977 2.6521,2.3598 2.504,-3.5789 3.0855,-5.8174 4.1735,-7.9742 0.4942,-0.9802 1.0935,-1.9441 2.0254,-3.0093 -3.348,0 -7.1667,0 -10.5146,0 l -1.9617,2.0413 1.9617,3.1331 c -3.3474,2.5775 -6.7825,5.2315 -9.9067,7.5335 -3.3477,2.4664 -8.5944,6.2534 -12.3436,11.329 -3.7956,5.1382 -5.4754,11.6176 -5.4,17.9582 0.0453,3.8129 1.6522,8.9901 1.4422,12.3024 -3.4707,-4.9796 -6.0329,-7.6547 -8.4495,-13.1778 -2.4823,-5.673 -2.6687,-11.5878 -1.2248,-19.372 0.7242,-3.905 2.0281,-7.3653 4.6877,-11.619 2.1551,-3.4467 7.3016,-7.121 9.9998,-11.9031 2.8201,-4.9974 2.592,-10.6587 0.8329,-13.005 -0.8109,-1.0815 -2.1256,-1.561 -3.7167,-1.3284 -3.1047,0.4544 -5.422,2.8374 -7.2298,2.6062 -2.272,-1.2138 -2.8605,-1.9823 -3.9367,-2.1234 -1.1317,-0.148 -1.8145,0.4778 -2.3396,1.3276 -0.8979,1.4533 -1.7908,2.7202 -2.7547,4.4598 -1.2112,2.1868 -1.8729,3.0385 -2.6406,4.7231 -0.2082,0.7471 -0.1088,2.7469 0.2938,3.7803 4.6299,-3.8944 8.8504,-5.4393 12.712,-5.6989 0.6408,-0.0431 1.6673,-0.3261 -0.485,-5.0364 1.4558,-1.0504 4.7907,-2.3156 6.8918,-2.1186 1.4374,0.135 1.8896,1.546 1.9948,1.8454 1.207,3.4372 0.7348,6.4713 -0.9205,9.3621 -1.6553,2.8908 -4.4943,5.6391 -7.0768,8.1887 -1.586,1.5654 -3.1693,3.0318 -4.4899,4.5511 -2.5218,2.9008 -4.2225,5.8444 -4.7247,10.2236 -0.6486,5.6555 -1.1256,11.2592 -0.9383,18.193 1.5582,3.3468 2.583,7.0326 5.1827,11.4014 3.6549,6.1427 10.0645,10.8669 13.1737,15.622 2.2619,3.4598 2.165,8.4163 1.1533,12.2242 -0.682,2.568 -1.7705,4.8171 -2.8549,6.4243 -2.0699,3.0688 -4.6991,3.9295 -7.0623,1.8287 -2.2091,-1.9639 -4.7548,-5.7145 -8.3918,-10.8405 -4.5308,-6.3851 -9.4005,-13.532 -10.2406,-14.7432 -2.6618,-3.8369 -6.3458,-8.5947 -9.3087,-13.5546 -2.7063,-4.5299 -4.7239,-9.3251 -5.1076,-12.8433 -0.2176,-1.997 0.022,-3.7453 0.8762,-5.5242 -3.3393,-1.8615 -2.6475,-2.5641 -3.8284,-2.5963 -1.3384,-0.0368 -2.2759,2.6848 -4.4513,2.1147 -3.58,-0.9383 -5.3215,-2.3487 -10.7163,-0.6489 -1.6982,0.5351 -3.4479,2.2483 -4.4888,3.6265 -1.7352,2.2972 -2.4481,4.481 -4.6379,4.5469 -0.997,0.0298 -1.7756,-0.229 -2.6367,-0.5315 1.4385,-2.066 2.2496,-4.3682 2.197,-6.9855 -6.0681,0.7847 -9.3111,5.0339 -17.969,3.1415 3.6142,-2.1991 5.9354,-4.7818 5.8066,-8.3982 z" />
        <path
           inkscape:connector-curvature="0"
           id="path3469"
           style="fill:#ffffff;fill-rule:evenodd"
           d="m 337.5112,322.5118 c 0.5543,-0.1842 0.8823,1.4719 0.8631,2.716 -1.5955,0.9447 -2.9525,1.5165 -4.4729,2.9528 -0.458,0.4324 -1.0654,0.1414 -0.9811,-0.3542 0.4936,-2.8944 2.6451,-4.6685 4.5909,-5.3146 z" />
        <path
           inkscape:connector-curvature="0"
           id="path3471"
           style="fill:#ffffff;fill-rule:evenodd"
           d="m 337.1909,313.889 c -0.5885,0.9538 -0.8392,1.9216 -1.0201,2.3504 -0.3967,0.9391 -1.2666,0.4697 -2.1773,0.7168 -0.4766,0.1294 -0.9121,0.3915 -1.1575,0.5815 -0.4803,0.3726 -1.051,0.2847 -0.667,-0.5493 0.9238,-2.0064 2.511,-3.3524 5.0219,-3.0994 z" />
        <path
           inkscape:connector-curvature="0"
           id="path3473"
           style="fill:#ffffff;fill-rule:evenodd"
           d="m 341.0361,308.7883 c 0.7324,-0.5754 1.6606,-1.2296 2.393,-1.805 l -4.8258,-1.4127 c -0.4602,-0.1349 -0.8292,0.3704 -0.3531,0.7855 l 2.7859,2.4322 z" />
        <path
           inkscape:connector-curvature="0"
           id="path3475"
           style="fill:#ffffff;fill-rule:evenodd"
           d="m 402.7896,390.787 -2.5109,3.9234 -6.1205,-2.511 8.6314,-1.4124 z" />
        <path
           inkscape:connector-curvature="0"
           id="path3477"
           style="fill:#ffffff;fill-rule:evenodd"
           d="m 400.004,409.5034 c 1.196,-0.6597 1.9356,0.9255 1.9617,1.6445 -1.1508,0.143 -3.2188,0.5818 -4.3941,0.7446 -0.8557,0.1182 -1.3682,-0.2922 -0.2143,-0.9288 l 2.6467,-1.4603 z" />
        <path
           inkscape:connector-curvature="0"
           id="path3479"
           style="fill:#ffffff;fill-rule:evenodd"
           d="m 396.9828,401.5904 c 1.3651,-0.0264 1.7788,0.8863 1.2947,1.9595 -1.4255,0.1038 -4.2398,0.3473 -5.8066,0.9021 -0.8128,0.288 -1.3373,-0.2449 -0.2927,-1.0468 0.8267,-0.635 2.1264,-1.5079 2.654,-1.5454 0.5542,-0.1322 1.3336,-0.2535 2.1506,-0.2694 z" />
        <g
           id="g3481">
          <path
             inkscape:connector-curvature="0"
             id="path3483"
             style="fill:#ffffff;fill-rule:evenodd"
             d="m 400.1217,357.9871 c -0.131,-3.4579 1.3307,-4.7509 1.0986,-5.4922 -0.6745,-2.1551 -5.3361,-6.3074 -7.0621,-7.6898 l 0.7847,-0.6277 c -17.1752,-3.4019 -21.4995,5.636 -21.4998,6.2785 3.0664,5.4974 3.939,8.8899 2.8521,11.4757 -0.7738,1.8415 -3.2038,3.6445 -5.0097,4.4334 -4.2216,1.8443 -9.2135,1.5838 -13.6146,-3.0421 -0.3687,-0.3874 -0.7991,-0.7992 -1.455,-0.0465 l -2.4506,2.8126 c -0.4944,0.5676 -0.3681,1.3019 0.3537,1.5955 0.8183,0.3325 2.4567,0.4043 3.1203,1.0134 l -2.9425,2.6292 c -0.497,-1.1946 -2.1325,-1.3226 -2.5894,-0.8089 -0.3192,0.3592 -0.8718,2.4509 -0.9297,4.048 -0.0339,0.9439 0.7867,0.8317 1.3165,0.8829 0.7014,0.6968 2.0359,2.2258 1.1797,3.4028 -0.1588,0.2181 -0.4179,0.5718 -0.6794,0.9021 -0.4177,0.5281 -0.5838,0.6169 0.1995,0.9811 0.5567,0.2593 1.3359,0.554 1.5949,0.9238 0.4491,-0.3025 1.4283,-1.1523 1.7519,-1.4269 2.2363,-0.8117 3.5703,0.3058 5.6104,-1.4113 -0.1411,0.4511 -0.3111,1.3175 -0.9808,1.9803 -0.4583,0.4539 -0.0899,1.0029 0.3138,1.0029 l 2.1186,-3e-4 c 0.6384,0 0.4578,-0.401 0.9417,-2.117 10.2399,-2.9353 18.457,-4.6429 31.9359,-4.1212 0.3845,0.0148 0.7978,-0.4251 0.4318,-1.0996 -2.7942,-5.1485 -3.263,-10.927 -2.9817,-16.4787 l 6.5912,0 z" />
          <path
             inkscape:connector-curvature="0"
             id="path3485"
             style="fill:#ffffff;fill-rule:evenodd"
             d="m 398.1701,345.6207 c -0.3718,0.1936 2.317,1.2733 4.5149,5.6173 0.5379,1.0633 0.4775,2.7144 0.1174,3.939 -0.3603,1.2246 -0.7521,2.3671 -0.5128,2.6874 0.591,0.7902 2.1607,1.3706 2.6665,1.2371 1.1292,-0.298 2.1629,-1.9509 2.0029,-2.5366 -0.8236,-3.0126 -3.2581,-6.9104 -4.759,-9.1971 -0.8523,-1.2989 -2.6606,-2.4597 -4.0299,-1.7471 z" />
          <path
             inkscape:connector-curvature="0"
             id="path3487"
             style="fill:#ffffff;fill-rule:evenodd"
             d="m 356.0309,362.037 -2.7074,2.5591 c -0.9261,-0.6294 -3.0369,-2.0487 -5.611,-3.5037 -1.0112,-0.5716 -0.219,-0.837 0.2746,-0.9055 4.8525,-0.6731 6.357,0.4327 8.0438,1.8501 z" />
          <path
             inkscape:connector-curvature="0"
             id="path3489"
             style="fill:#ffffff;fill-rule:evenodd"
             d="m 350.773,380.6583 c 0.9811,0.5381 1.334,0.958 1.6873,1.8109 l -1.3197,2.1795 c -0.278,0.4594 -0.8579,0.317 -0.7942,-0.2426 l 0.4266,-3.7478 z" />
          <path
             inkscape:connector-curvature="0"
             id="path3491"
             style="fill:#ffffff;fill-rule:evenodd"
             d="m 349.9491,369.5961 c 0.4424,0.0987 0.3759,0.5056 0.1686,1.2265 l -0.7571,2.6312 c -2.972,0.0823 -4.2136,0.4201 -5.9641,1.8896 -0.7886,0.6619 -1.4733,0.0874 -1.2162,-0.551 0.6569,-1.6316 1.6486,-3.561 3.361,-4.5717 1.7705,-1.0451 3.3794,-0.8545 4.4078,-0.6246 z" />
        </g>
        <g
           id="g3493">
          <path
             inkscape:connector-curvature="0"
             id="path3495"
             style="fill:#ffffff;fill-rule:evenodd"
             d="m 343.5523,289.8708 c 0.783,0.6845 2.2492,2.2361 1.3446,2.4083 l -4.6654,-0.1245 c -0.4779,-0.0128 -0.609,-0.2694 -0.0528,-0.5687 l 3.3736,-1.7151 z" />
          <path
             inkscape:connector-curvature="0"
             id="path3497"
             style="fill:#ffffff;fill-rule:evenodd"
             d="m 349.7849,265.437 -3.451,2.6839 c -0.7234,-0.8546 -2.7695,-3.024 -4.8592,-5.1154 -0.8208,-0.8213 0.0152,-0.7221 0.5073,-0.7987 2.8936,-0.4501 6.5578,1.4125 7.8029,3.2302 z" />
          <path
             inkscape:connector-curvature="0"
             id="path3499"
             style="fill:#ffffff;fill-rule:evenodd"
             d="m 361.7921,269.5289 -3.883,-2.4402 c 0.2186,-1.0981 0.7032,-2.8083 1.0393,-5.7459 0.1323,-1.1537 0.686,-0.5273 0.9409,-0.1001 0.7843,1.3145 1.5054,2.4218 1.7618,3.3932 0.2916,1.1033 0.0468,3.5535 0.141,4.893 z" />
          <path
             inkscape:connector-curvature="0"
             id="path3501"
             style="fill:#ffffff;fill-rule:evenodd"
             d="m 382.3881,293.4096 c -4.865,3.9812 -9.2591,5.8366 -13.8102,6.5895 -0.6659,-1.3133 -1.4144,-1.7382 -2.1776,-2.3623 -0.5938,-0.4856 -1.433,-0.2888 -2.1242,-0.7814 -1.2288,-0.8756 -2.9247,-1.6016 -4.1454,-2.6236 -0.6434,-0.539 -1.1473,-1.9826 -1.8309,-2.4075 -0.5204,-0.3236 -1.8115,-0.5014 -2.2567,-0.8442 -1.1539,-0.8882 -3.8699,-3.8382 -9.1225,0.4708 l -3.3346,-3.1417 c 0.7978,-0.6614 1.8701,-1.4453 2.1122,-2.4116 0.5407,-2.1598 -1.5571,-3.5953 -4.2561,-5.5167 -0.5354,-0.3809 -0.2964,-1.2677 0.0439,-2.5939 0.4374,-1.7054 0.5986,-3.8198 2.2263,-3.1893 1.94,0.7516 2.1075,1.5176 3.6955,0.6105 1.0165,-0.5804 0.9472,-1.8159 0.5095,-2.7995 -0.4377,-0.9836 -1.2432,-1.7163 -1.0716,-2.5505 0.344,-1.6687 2.7906,-2.9509 4.3594,-2.9509 0.8395,0 0.5535,1.8624 1.9478,3.1073 0.5437,0.4853 1.1506,0.4792 1.805,-0.0381 0.7416,-0.586 1.546,-1.7168 2.3902,-1.4867 1.2396,0.3378 2.4834,1.4547 3.4159,2.428 1.325,1.3838 -0.5955,2.4055 -0.7928,3.4303 -0.1973,1.0245 0.6995,1.6615 0.7599,1.7179 7.2786,6.8339 15.5627,13.7669 21.657,17.3436 z" />
          <path
             inkscape:connector-curvature="0"
             id="path3503"
             style="fill:#ffffff;fill-rule:evenodd"
             d="m 340.8068,274.522 -1.0593,4.4487 c -1.4255,0.0654 -2.9294,0.1706 -4.8653,0.7477 0.0855,-4.1329 3.1847,-5.5918 5.9246,-5.1964 z" />
          <path
             inkscape:connector-curvature="0"
             id="path3505"
             style="fill:#ffffff;fill-rule:evenodd"
             d="m 389.3027,280.978 -5.7287,3e-4 c -0.9594,0 -3.0385,-0.3837 -4.44,-1.1898 -1.0897,-0.6269 -1.585,-1.4717 -1.6022,-2.6292 -0.0164,-1.0869 0.5818,-1.8039 1.2251,-2.1617 0.7296,-0.4055 1.8557,-0.3626 2.3062,-0.0819 2.9648,1.8474 3.6173,3.0959 8.7104,4.9602 1.051,0.3845 0.876,1.1021 -0.4708,1.1021 z" />
        </g>
      </g>
      <g
         id="g3507">
        <path
           inkscape:connector-curvature="0"
           id="path3509"
           style="fill:#ffffff;fill-rule:evenodd"
           d="m 159.1149,224.6251 -9.0751,2.8483 -12.2804,-39.1282 9.0752,-2.8483 12.2803,39.1282 z" />
        <path
           inkscape:connector-curvature="0"
           id="path3511"
           style="fill:#ffffff;fill-rule:evenodd"
           d="m 145.0392,228.7455 -8.8769,3.4162 -6.2932,-16.3528 -15.3903,5.9228 6.2655,16.2808 -8.8769,3.4162 -14.7292,-38.2737 8.8769,-3.4161 5.6949,14.7982 15.3903,-5.9228 -5.6672,-14.7263 8.8769,-3.4162 14.7292,38.2737 z" />
        <path
           inkscape:connector-curvature="0"
           id="path3513"
           style="fill:#ffffff;fill-rule:evenodd"
           d="m 202.2742,212.9302 -2.4808,0.6189 -5.8597,1.4618 -3.0991,0.7731 -25.469,-24.9986 -0.1511,0.0956 1.6026,3.7147 6.3833,25.5875 -8.3512,2.0833 -9.9265,-39.7905 11.581,-2.8891 25.1459,24.6734 0.1831,-0.1337 -1.4101,-3.1903 -6.4154,-25.716 8.3405,-2.0807 9.9265,39.7906 z" />
        <path
           inkscape:connector-curvature="0"
           id="path3515"
           style="fill:#ffffff;fill-rule:evenodd"
           d="m 251.0293,205.6898 -9.4701,0.8963 -3.8655,-40.8275 9.4696,-0.8954 1.712,18.081 1.8212,-3.0767 11.0983,-16.39 10.854,-1.0276 -13.4459,19.4419 17.5737,21.2061 -10.854,1.0276 -12.9182,-15.7894 -3.329,3.0559 1.3539,14.2978 z" />
        <path
           inkscape:connector-curvature="0"
           id="path3517"
           style="fill:#ffffff;fill-rule:evenodd"
           d="m 277.0967,203.1706 -1.2445,-40.8812 9.5074,-0.2882 1.0257,33.6825 17.3733,-0.5287 0.2191,7.1978 -26.881,0.8178 z" />
        <path
           inkscape:connector-curvature="0"
           id="path3519"
           style="fill:#ffffff;fill-rule:evenodd"
           d="m 332.1271,203.133 0.1722,-7.4246 -15.5254,-0.36 0.2342,-10.1006 14.5173,0.3366 0.1721,-7.4246 -14.5175,-0.3366 0.1999,-8.6241 15.6796,0.3636 0.1721,-7.4246 -25.1893,-0.5718 -0.9504,40.999 25.0352,0.5677 z" />
        <path
           inkscape:connector-curvature="0"
           id="path3521"
           style="fill:#ffffff;fill-rule:evenodd"
           d="m 355.7845,205.473 -9.4674,-0.9237 1.5622,-16.0132 -11.98,-26.2078 10.5744,1.0317 7.03,17.3888 10.3528,-15.6927 10.5743,1.0317 -17.0876,23.4042 -1.5587,15.981 z" />
        <path
           inkscape:connector-curvature="0"
           id="path3523"
           style="fill:#ffffff;fill-rule:evenodd"
           d="m 232.8316,168.4412 -2.101,7.9994 c -3.2378,-0.9401 -7.5708,-1.8493 -11.1729,-0.8537 -7.3649,2.0355 -7.6774,9.2029 -6.9248,14.6365 0.7502,5.4173 3.4226,12.672 12.1292,11.6467 4.3967,-0.5179 7.5295,-2.3022 11.2322,-4.2608 l 1.11,7.6786 c -3.2476,2.4975 -10.0909,4.5655 -15.52,4.6398 -8.75,0.1199 -17.3652,-5.2057 -18.8298,-18.8616 -1.0821,-10.0876 2.1853,-15.9687 7.0658,-19.4637 2.8319,-2.0281 6.1956,-3.3555 9.6,-3.9703 4.7391,-0.8561 8.1085,-0.5477 13.4113,0.8091 z" />
      </g>
      <path
         inkscape:connector-curvature="0"
         id="path3525"
         style="fill:#ffffff;fill-rule:evenodd"
         d="m 435.9116,179.0731 3.3883,1.0093 -10e-4,0.004 19.5944,5.8368 -0.9227,3.0974 -19.5943,-5.8368 -4.7174,15.8364 18.6367,5.5515 -0.9227,3.0974 -18.6367,-5.5515 -5.1376,17.247 -3.3883,-1.0093 11.7015,-39.2822 z" />
      <path
         inkscape:connector-curvature="0"
         id="path3527"
         style="fill:#ffffff;fill-rule:evenodd"
         d="m 409.4094,177.8834 -0.9604,1.885 -10.2284,14.743 14.385,3.1507 -3.0046,-17.622 -0.0957,-2.1394 -0.0959,-0.0173 z m -13.0411,19.2981 -8.7182,12.566 -4.029,-0.8825 25.9676,-36.3143 2.0354,0.4427 8.1031,43.7797 -4.013,-0.8789 -2.5639,-15.037 -16.782,-3.6757 z" />
      <path
         inkscape:connector-curvature="0"
         id="path3529"
         style="fill:#ffffff;fill-rule:evenodd"
         d="m 494.2824,201.1441 -2.3696,2.3395 c -2.6418,-3.0204 -6.9912,-5.5319 -10.1366,-6.3974 -10.6336,-2.9253 -17.7542,2.1949 -21.2766,12.3483 -4.4408,12.8016 2.428,18.5665 8.745,21.4311 3.9232,1.7791 8.5314,2.3063 10.8331,2.5669 l -1.0062,2.8871 c -3.6874,-0.3178 -7.4379,-1.1115 -10.6661,-2.4019 -13.5963,-5.4359 -14.5667,-16.6201 -11.327,-25.8303 4.8002,-13.6468 15.5392,-16.6193 24.6668,-14.1204 5.6593,1.5494 9.5323,4.3812 12.5372,7.1771 z" />
    </g>
  </g>
</svg>
