<?xml version="1.0" encoding="utf-8"?>
<!-- Generator: Adobe Illustrator 14.0.0, SVG Export Plug-In . SVG Version: 6.00 Build 43363)  -->
<!DOCTYPE svg PUBLIC "-//W3C//DTD SVG 1.1//EN" "http://www.w3.org/Graphics/SVG/1.1/DTD/svg11.dtd">
<svg version="1.1" id="Calque_1" xmlns:svg="http://www.w3.org/2000/svg"
	 xmlns="http://www.w3.org/2000/svg" xmlns:xlink="http://www.w3.org/1999/xlink" x="0px" y="0px" width="595.275px"
	 height="595.89px" viewBox="0 0 595.275 595.89" enable-background="new 0 0 595.275 595.89" xml:space="preserve">
<path id="path25204" fill="#FAED35" d="M11.523,295.209C11.526,136.528,140.164,7.888,298.853,7.885l0,0
	c158.689,0.003,287.326,128.644,287.33,287.324l0,0c-0.004,158.679-128.641,287.332-287.33,287.335l0,0
	C140.163,582.541,11.526,453.888,11.523,295.209L11.523,295.209z"/>
<path id="path25206" fill="#303185" d="M495.901,98.166c50.438,50.442,81.619,120.082,81.62,197.043l0,0
	c-0.001,76.962-31.184,146.603-81.62,197.048l0,0c-50.442,50.439-120.083,81.625-197.05,81.629l0,0
	c-76.965-0.004-146.605-31.188-197.049-81.629l0,0c-50.436-50.445-81.619-120.086-81.62-197.048l0,0
	c0.001-76.962,31.185-146.601,81.621-197.043l0,0c50.444-50.436,120.083-81.619,197.049-81.622l0,0
	C375.818,16.547,445.458,47.73,495.901,98.166L495.901,98.166z"/>
<path id="path25208" fill="#FFFFFF" d="M496.946,295.22c0,109.408-88.696,198.088-198.094,198.088
	c-109.407,0-198.094-88.682-198.094-198.088c0-109.407,88.687-198.1,198.094-198.1C408.249,97.12,496.946,185.813,496.946,295.22"/>
<radialGradient id="path25245_1_" cx="300" cy="174" r="188.1946" gradientTransform="matrix(1 0 0 -1 -1.1475 469.2148)" gradientUnits="userSpaceOnUse">
	<stop  offset="0" style="stop-color:#FFFFFF"/>
	<stop  offset="0.219" style="stop-color:#FFFEFC"/>
	<stop  offset="0.2979" style="stop-color:#FFFBF3"/>
	<stop  offset="0.3541" style="stop-color:#FFF6E8"/>
	<stop  offset="0.3996" style="stop-color:#FFF1DA"/>
	<stop  offset="0.4386" style="stop-color:#FFEBC7"/>
	<stop  offset="0.4731" style="stop-color:#FFE3B1"/>
	<stop  offset="0.5043" style="stop-color:#FEDA96"/>
	<stop  offset="0.533" style="stop-color:#FDD079"/>
	<stop  offset="0.5585" style="stop-color:#FCC554"/>
	<stop  offset="0.5787" style="stop-color:#FBBB2C"/>
	<stop  offset="0.6838" style="stop-color:#F5B82D"/>
	<stop  offset="0.7621" style="stop-color:#E8AF2D"/>
	<stop  offset="0.8318" style="stop-color:#D5A22D"/>
	<stop  offset="0.8964" style="stop-color:#BD922D"/>
	<stop  offset="0.9569" style="stop-color:#A07F2D"/>
	<stop  offset="1" style="stop-color:#88702C"/>
</radialGradient>
<path id="path25245" fill="url(#path25245_1_)" d="M298.858,107.02c-103.954,0-188.201,84.257-188.201,188.203
	c0,103.933,84.247,188.187,188.201,188.187c103.933,0,188.188-84.254,188.188-188.187
	C487.047,191.277,402.791,107.02,298.858,107.02z"/>
<path id="path25247" fill="#FAED35" d="M138.239,485.546c0.982,2.4,2.957,5.373,5.761,7.555c3.491,2.734,6.743,2.613,8.642,0.164
	c1.768-2.264,1.298-4.768-1.44-9.127c-3.568-5.619-4.67-10.691-1.331-15.002c3.819-4.883,10.813-5.445,17.305-0.383
	c3.23,2.525,5.074,5.096,6.012,7.113l-4.768,3.355c-0.622-1.406-2.03-3.879-4.823-6.045c-3.481-2.707-6.449-2.023-7.791-0.277
	c-1.811,2.303-0.895,4.725,1.888,9.383c3.677,6.014,4.168,10.605,0.808,14.916c-3.732,4.795-10.671,6.182-18.396,0.158
	c-3.153-2.461-5.707-5.945-6.602-8.211L138.239,485.546z"/>
<polygon id="polygon25249" fill="#FAED35" points="191.508,485.687 172.184,518.357 166.216,514.826 185.561,482.158 "/>
<path id="path25251" fill="#FAED35" d="M188.234,527.269l14.425-35.096l7.311,2.996l2.859,18.783
	c0.742,4.871,1.091,9.766,1.135,14.232l0.109,0.033c1.506-4.85,3.23-9.438,5.434-14.807l5.03-12.242l5.936,2.443l-14.436,35.096
	l-6.623-2.711l-2.805-19.242c-0.666-4.729-1.222-10.012-1.32-14.67l-0.164-0.021c-1.615,4.648-3.47,9.297-5.848,15.068
	l-5.172,12.559L188.234,527.269z"/>
<path id="path25253" fill="#FAED35" d="M259.649,548.378c-1.779,0.48-5.488,0.605-9.951-0.371
	c-11.773-2.547-17.316-11.527-14.872-22.814c2.651-12.209,12.733-17.752,24.06-15.281c4.473,0.961,7.452,2.58,8.674,3.596
	l-2.641,5.074c-1.615-1.152-3.884-2.336-6.972-3.008c-7.529-1.643-14.01,1.922-15.941,10.83
	c-1.768,8.146,1.898,14.408,10.017,16.176c2.76,0.596,5.75,0.672,7.681,0.225L259.649,548.378z"/>
<polygon id="polygon25255" fill="#FAED35" points="297.313,535.607 283.032,534.826 282.42,545.962 298.384,546.824 
	298.078,552.513 275.197,551.269 277.26,513.369 299.3,514.57 298.973,520.244 283.861,519.425 283.337,529.203 297.598,529.988 "/>
<polygon id="polygon25257" fill="#FAED35" points="340.97,518.166 340.86,518.185 334.926,522.769 332.765,517.843 340.687,511.851 
	346.372,510.767 353.256,546.714 346.688,547.974 "/>
<path id="path25259" fill="#FAED35" d="M374.751,521.205c-4.233-0.447-6.917-2.707-7.998-5.725
	c-2.04-5.619,1.561-11.229,8.097-13.59c7.409-2.668,12.405,0.553,13.935,4.795c1.059,2.908,0.609,6.482-2.487,9.701l0.063,0.143
	c4.277,0.082,8.151,2.023,9.711,6.328c2.204,6.143-1.506,12.145-8.858,14.801c-8.063,2.908-13.892-0.201-15.636-5.002
	c-1.538-4.307-0.1-8.104,3.24-11.299L374.751,521.205z M372.853,512.966c1.004,2.814,3.95,3.666,7.573,3.377
	c2.062-1.533,3.338-4.146,2.411-6.736c-0.874-2.381-3.209-4.359-6.689-3.1C372.875,507.695,371.958,510.472,372.853,512.966
	 M389.634,525.769c-1.266-3.496-4.55-4.457-8.75-4.145c-2.881,2.121-3.929,5.008-2.892,7.867c0.927,2.961,4.124,4.807,7.778,3.484
	C389.209,531.738,390.705,528.732,389.634,525.769"/>
<polygon id="polygon25261" fill="#FAED35" points="416.978,482.382 419.128,486.283 421.092,521.914 414.687,525.443 
	413.355,491.06 413.312,490.974 398.201,499.283 395.429,494.259 "/>
<path id="path25263" fill="#FAED35" d="M459.313,496.8l-5.695-7.326l-13.071,10.143l-2.771-3.563l-2.184-27.164l6.438-5.004
	l13.529,17.443l3.732-2.898l3.219,4.125l-3.721,2.908l5.674,7.338L459.313,496.8z M450.399,485.328l-6.11-7.877
	c-1.267-1.645-2.531-3.361-3.722-5.162l-0.186,0.131c0.523,2.525,0.917,4.572,1.277,6.863l0.828,12.035l0.044,0.119L450.399,485.328
	z"/>
<path id="path25265" fill="#FFFFFF" d="M72.051,241.63c-5.63-0.584-12.428-1.271-18.342-2.221l-0.033,0.186
	c5.128,2.227,10.704,4.895,15.876,7.633l17.829,9.116l-0.917,6.1l-19.368,3.006c-5.783,0.852-11.915,1.512-17.567,1.833
	l-0.011,0.137c5.685,1.047,12.515,2.346,18.385,3.552l17.284,3.573l-1.113,7.387l-42.893-9.384l1.571-10.415l18.276-3.038
	c5.271-0.78,10.639-1.364,15.625-1.729l0.022-0.191c-4.517-1.854-9.624-4.135-14.447-6.568l-16.476-8.582l1.56-10.283l43.667,3.993
	l-1.146,7.709L72.051,241.63z"/>
<path id="path25267" fill="#FFFFFF" d="M85.254,216.136l10.213,7.987l-2.979,7.698L56.71,202.938l3.688-9.52l45.958,2.536
	l-3.088,7.987l-12.995-0.78L85.254,216.136z M84.141,202.257l-11.304-0.682c-2.782-0.17-5.827-0.584-8.435-0.896l-0.054,0.137
	c2.138,1.517,4.757,3.219,6.896,4.894l8.838,7.038L84.141,202.257z"/>
<path id="path25269" fill="#FFFFFF" d="M125.211,162.943c-0.186,2.111-1.484,6.203-4.255,10.66
	c-7.376,11.795-19.28,14.321-30.573,7.262c-12.242-7.633-14.337-20.726-7.256-32.09c2.782-4.457,5.729-7.07,7.299-7.998l4.474,4.861
	c-1.866,1.271-4.037,3.295-5.979,6.377c-4.703,7.557-3.383,15.969,5.554,21.545c8.151,5.084,16.378,3.551,21.484-4.594
	c1.713-2.761,2.957-5.979,3.229-8.26L125.211,162.943z"/>
<path id="path25271" fill="#FFFFFF" d="M151.18,133.728c-0.545,2.057-2.575,5.821-6.121,9.722
	c-9.373,10.278-21.539,10.611-31.392,1.653c-10.66-9.711-10.366-22.974-1.364-32.859c3.557-3.9,6.907-5.946,8.609-6.574l3.535,5.576
	c-2.073,0.928-4.561,2.515-7.016,5.21c-6.001,6.579-6.187,15.106,1.604,22.188c7.092,6.47,15.472,6.448,21.954-0.672
	c2.182-2.39,3.961-5.33,4.648-7.518L151.18,133.728z"/>
<polygon id="polygon25273" fill="#FFFFFF" points="132.762,93.782 139.079,88.899 161.753,118.283 176.014,107.302 180.084,112.598 
	159.505,128.464 "/>
<polygon id="polygon25275" fill="#FFFFFF" points="200.477,79.096 185.911,86.848 191.934,98.201 208.246,89.543 211.323,95.332 
	187.973,107.754 167.405,69.085 189.893,57.131 192.97,62.931 177.541,71.131 182.854,81.12 197.433,73.362 "/>
<path id="path25277" fill="#FFFFFF" d="M217.651,83.373c2.935,0.616,7.06,0.639,10.933-0.649c4.888-1.599,6.852-4.768,5.739-8.167
	c-1.037-3.147-3.731-4.31-9.667-4.479c-7.682-0.224-13.257-2.438-15.21-8.423c-2.237-6.787,1.768-13.835,10.758-16.792
	c4.517-1.479,8.162-1.587,10.693-1.189l0.153,6.727c-1.746-0.312-5.041-0.546-8.925,0.736c-4.801,1.577-6.056,4.861-5.259,7.267
	c1.037,3.219,3.928,3.906,10.202,4.245c8.096,0.349,12.821,2.837,14.785,8.827c2.204,6.667-0.938,14.201-11.697,17.72
	c-4.375,1.43-9.362,1.631-12.101,1.015L217.651,83.373z"/>
<polygon id="polygon25279" fill="#FFFFFF" points="249.359,37.862 274.368,34.196 275.317,40.688 258.219,43.203 259.965,55.157 
	275.907,52.821 276.855,59.314 260.925,61.648 263.599,80.04 255.699,81.19 "/>
<polygon id="polygon25281" fill="#FFFFFF" points="301.69,33.334 302.399,77.121 294.401,77.257 293.692,33.459 "/>
<polygon id="polygon25283" fill="#FFFFFF" points="342.826,61.561 326.458,59.341 324.733,72.085 343.021,74.567 342.138,81.07 
	315.939,77.519 321.832,34.119 347.069,37.551 346.175,44.054 328.858,41.698 327.332,52.903 343.697,55.113 "/>
<polygon id="polygon25285" fill="#FFFFFF" points="365.105,41.736 372.744,44.125 361.625,79.521 378.81,84.906 376.803,91.3 
	352.013,83.52 "/>
<path id="path25287" fill="#FFFFFF" d="M404.594,56.018c3.36,1.14,7.463,2.974,11.642,5.221c7.225,3.874,11.414,8.031,13.356,12.914
	c2.104,5.03,1.942,10.84-1.604,17.42c-3.678,6.874-8.782,10.77-14.238,12.122c-5.706,1.43-12.799-0.076-20.307-4.103
	c-4.092-2.21-7.082-4.098-9.197-5.608L404.594,56.018z M394.108,92.489c0.872,0.704,2.367,1.495,3.796,2.27
	c9.146,4.959,17.273,2.848,22.512-6.95c4.646-8.506,2.322-16.013-6.504-20.737c-2.216-1.194-3.916-1.876-5.009-2.182L394.108,92.489
	z"/>
<polygon id="polygon25289" fill="#FFFFFF" points="471.055,108.529 462.14,99.816 466.82,95.032 490.476,118.114 485.806,122.921 
	476.793,114.115 450.857,140.663 445.162,135.076 "/>
<path id="path25291" fill="#FFFFFF" d="M504.083,172.398c-12.024,8.439-23.995,5.957-30.935-3.934
	c-7.104-10.109-3.853-21.899,6.688-29.286c11.009-7.72,23.634-6.252,30.715,3.847C517.908,153.505,514.306,165.234,504.083,172.398
	 M484.802,146.02c-7.288,5.117-10.584,12.88-6.187,19.16c4.451,6.322,12.863,5.744,20.35,0.49
	c6.765-4.746,10.835-12.603,6.263-19.148C500.679,140.041,492.201,140.837,484.802,146.02"/>
<path id="path25293" fill="#FFFFFF" d="M491.372,196.534l36.716-26.16l3.143,7.911l-16.924,11.222
	c-4.55,2.995-9.339,6.018-13.115,8.298l0.033,0.126c4.551-1.053,9.831-1.822,15.418-2.717l20.152-2.925l3.121,7.785l-17.109,11.501
	c-4.418,2.935-8.607,5.586-12.766,7.943l0.031,0.12c4.759-1.048,9.8-1.932,15.188-2.826l20.088-3.094l3.001,7.54l-45.053,5.275
	l-3.153-7.965l17.458-11.845c4.233-2.886,7.813-5.139,12.024-7.387l-0.044-0.114c-4.639,1.009-8.883,1.778-13.999,2.428
	l-21.017,2.902L491.372,196.534z"/>
<path id="path25295" fill="#FFFFFF" d="M507.65,241.925l43.317-6.448l1.332,8.996l-16.924,13.955
	c-4.376,3.606-9.014,6.847-13.41,9.542l0.021,0.131c5.695-1.375,11.261-2.4,17.872-3.382l15.112-2.248l1.103,7.332l-43.317,6.433
	l-1.223-8.156l17.415-14.157c4.267-3.448,9.176-7.137,13.747-9.984l-0.108-0.18c-5.532,1.151-11.238,2.067-18.374,3.126
	l-15.472,2.303L507.65,241.925z"/>
<polygon id="polygon25297" fill="#FAED35" points="539.534,381.699 525.152,374.246 510.88,381.878 513.499,365.898 
	501.846,354.671 517.853,352.232 524.913,337.666 532.19,352.144 548.24,354.382 536.696,365.751 "/>
<polygon id="polygon25299" fill="#FAED35" points="58.171,381.699 72.552,374.246 86.824,381.878 84.206,365.898 95.859,354.671 
	79.852,352.232 72.792,337.666 65.515,352.144 49.464,354.382 61.008,365.751 "/>
<path id="path25301" d="M478.223,227.386c-3.011-1.097-7.431-0.191-11.238-0.563c-37.566-3.721-13.181-67.175-38.801-86.008
	c-13.181-9.722-41.189-7.714-52.832,3.928c-19.335,19.335-17,61.321-7.3,88.818c-11.85-2.014-15.342-12.401-21.932-19.674
	c-12.003,7.147-8.097,28.621,0,35.975c9.109,8.282,33.158,4.807,37.098,17.987c-1.614,3.71-6.251,2.406-10.671,2.805
	c-5.063,0.479-11.261,3.006-15.188,2.259c-5.814-1.119-6.108-7.818-10.113-8.435c-6.385,6.077,2.824,22.253,6.187,24.735
	c10.125,7.496,30.9-6.803,35.985,6.749c-5.543,5.362-14.075,8.357-14.064,19.116c0.011,9.231,6.416,19.811,17.425,18.549
	c0.196-3.006-1.669-3.955-1.134-7.311c7.888-9.171,19.226-0.889,18.003,12.363c-0.677,7.156-9.558,16.165-20.797,14.064
	c-8.642-1.633-17.186-16.123-21.932-24.181c-14.294-24.276-35.103-54.726-47.234-75.331c1.812-3.459,5.75-4.758,8.445-7.306
	c-10.355-8.516-8.186-33.115,8.435-33.721c-4.778-3.731-11.271-12.974-5.642-20.246c7.321,0.137,16.083-3.05,18.014-10.109
	c-23.981,1.31-12.221-33.126-22.498-45.544c6.197-4.01,4.484-17.125,2.814-24.735c-2.478-2.379-6.732-3.017-10.114-4.49
	c0.688-6.503-1.353-10.283-4.507-12.93c-3.1,0.47-4.769,2.324-7.855,2.815c-0.196-8.435-3.12-14.146-11.261-14.627
	c-0.033,2.406-0.731,4.125-1.113,6.192c-5.041,3.453-9.613,6.558-16.869,7.867c-7.147,1.282-15.897,0.065-21.92,2.814
	c-5.969,2.723-6.787,9.117-11.817,12.925c-8.326,1.233-13.694,5.412-16.291,12.362c7.921,2.936,8.303,13.448,11.817,20.803
	c-9.46,4.577-22.084,1.719-31.49-1.13c-4.135,18.233,17.818,16.836,33.17,15.745c7.06,8.816-0.262,10.961-4.506,15.739
	c-3.863,4.359-2.564,8.953-6.187,11.812c-17.829,3.563-16.706-18.903-26.417-27.551c-6.448-5.745-23.394-8.205-34.851-6.748
	c-10.18,1.293-16.377,7.113-22.488,11.249c-7.616-0.502-11.304,2.93-16.313,5.063c-3.502,10.786-1.01,25.811,8.553,31.167
	c0.004,0.319,0.01,0.668,0.02,1.061c-1.477-0.803-2.58-1.221-2.717-1.274l-0.532-0.2l-0.557-0.06
	c-0.117-0.012-0.737-0.076-1.654-0.077c-1.298,0.02-3.145,0.07-5.292,0.92c-1.063,0.438-2.267,1.135-3.276,2.367
	c-1.02,1.214-1.643,2.986-1.618,4.659c0.001,0.956,0.165,1.888,0.44,2.792c1,3.172,2.573,5.509,4.103,7.186l-2.636,0.087
	l-0.818,3.272c-0.095,0.38-0.146,0.798-0.146,1.236c0.062,2.092,0.838,4.606,4.288,9.703c1.108,1.591,2.328,2.903,3.558,4.006
	c-0.836,0.26-1.354,0.452-1.432,0.473l-2.259,0.84l-0.539,2.349c-0.064,0.281-0.157,0.804-0.157,1.526
	c-0.01,1.307,0.338,3.319,1.622,5.399c1.275,2.088,3.404,4.17,6.622,5.991c3.008,1.679,5.99,2.589,8.331,3.093
	c-0.348,0.841-0.513,1.689-0.473,2.36c0.094,2.525,1.021,3.635,1.168,3.986l0.693,1.103l1.177,0.558
	c0.144,0.068,0.291,0.121,0.436,0.186c-0.063,0.401-0.075,0.759-0.084,1.068c0.03,1.569,0.378,2.567,0.641,3.427
	c0.277,0.83,0.531,1.402,0.568,1.488l0.472,1.065l0.934,0.7c0.853,0.619,1.734,1.103,2.627,1.507
	c-0.042,0.124-0.081,0.243-0.118,0.357c-0.387,1.387-0.456,2.577-0.523,3.966c-0.055,1.374-0.053,2.892-0.054,4.577
	c0.004,1.358,0.088,2.985,0.212,4.678c-4.379,3.733-4.719,11.499-6.38,17.932c-2.39-4.338-4.146-9.598-2.815-13.498
	c-5.696,3.873-11.086,13.382-9.002,23.05c1.866,8.604,15.636,17.709,26.417,17.431c6.274-0.158,12.264-4.997,18.003-6.181
	c9.122-1.889,18.309-1.069,26.973-2.26c24.528-3.328,36.793-19.761,48.904-33.159c9.504,9.596,28.664,9.563,33.727,23.606
	c-15.396-4.556-36.88-4.992-52.843-0.557c-22.761,18.871,7.169,52.636,2.248,78.691c-13.835,1.707-34.305-5.231-29.221-21.92
	c1.222-4,4.998-5.106,5.608-10.673c-0.873-2.346-5.139-2.88-6.176-3.388c-1.353-10.245-14.795-13.979-24.725-8.991
	c1.789,2.146,3.36,4.522,4.484,7.306c-3.284,1.407-3.153,6.226-5.608,8.439c-10.213-6.818-37.393-9.285-33.738,12.368
	c2.619-2.831,9.896-3.187,11.817,0.557c-1.484,3.22-3.709,5.675-3.382,10.683c-10.649,2.347-12.46,20.279-2.804,25.309
	c-0.338-6.002,6.765-9.732,11.795-6.748c-2.64,8.455-0.36,17.66,6.765,19.674c2.75-14.514,29.089-13.797,27.529,3.922
	c2.957-0.213,4.375-1.977,6.743-2.793c4.015,2.123,7.419,8.592,12.362,8.424c3.797-0.121,5.194-4.512,9.002-6.188
	c2.248,2.4,6.448,15.184,10.115,15.184c1.298,0,4.91-5.096,6.176-6.182c2.684-2.303,4.823-3.711,6.765-5.619
	c7.671,5.029,27.54,4.518,27.54-5.074c0-5.842-7.769-9.023-9.558-14.6c6.7-2.492,11.075-7.299,15.734-11.811
	c-2.378-8.168-14.981-22.859-2.793-28.67c8.62,5.811,9.983,18.859,17.415,25.854c5.171,9.449,14.01,15.227,20.24,23.617
	c-4.899,9.574-3.83,26.65-3.372,39.902c-5.606,1.326-12.166,0.098-17.425,1.686c-5.729,1.719-13.628,10.332-14.065,14.055
	c-0.971,8.637,9.602,14.67,15.177,19.678c0.283,12.324,8.643,21.125,21.932,16.869c-1.124-4.691-6.307-5.33-5.619-11.795
	c1.168-0.52,1.637-1.734,3.372-1.701c3.862,6.748,14.119,11.664,21.353,4.494c-6.917-2.227-9.164-19.029-0.566-21.354
	c2.925,0.611,2.641,6.227,1.69,8.99c4.563-1.75,7.78-5.652,9.004-9.563c0.653-2.09-0.524-4.365,0-6.748
	c0.871-3.854,5.641-9.184,3.382-16.303c6.929,0.742,7.189-5.16,7.855-10.682c2.227-2.266,4.735-4.256,8.445-5.047
	c2.018-3.623,3.371-10.105-0.568-12.367c2.925-3.23,11.904-8.26,12.354-12.932c0.698-7.016-7.595-12.482-12.919-16.301
	c-0.24,5.945-3.044,9.318-7.879,10.682c-3.873-2.613-5.228-4.104-5.607-7.305c-0.709-5.555,5.607-13.188,4.495-16.874
	c-1.299-4.181-10.978-7.54-14.054-12.368c-6.078-9.486,0.088-17.42,3.948-26.41c13.901,8.401,18.976,28.936,32.594,37.092
	c5.738,3.455,24.31,5.599,25.292,12.926c1.199,9.1-9.34,8.473-12.919,13.496c11.325,1.174,22.913,1.086,28.086-5.057
	c10.104-11.959-0.885-30.285-7.867-39.353c4.985-5.777,11.413-13.486,20.817-11.8c8.217,1.461,10.409,11.08,15.734,16.301
	c6.525-8.625,7.005-22.493,0.557-31.484c-3.152-4.402-12.712-7.621-13.496-12.355c-0.873-5.363,5.183-14.639,8.424-17.432
	c2.278-1.959,6.557-2.738,9.58-5.063c12.153-9.416,19.967-42.177-0.568-43.853c1.462,8.67-0.283,17.774-3.36,23.618
	c-11.15,5.172-25.674,6.961-32.613,16.302c-15.091-27.999-24.408-61.786-32.046-97.252c1.658-2.668,5.148-3.475,8.989-3.944
	c0.153,1.162,1.507,1.13,2.249,1.691c-2.576,37.061,11.806,60.153,43.853,60.71c-9.603-5.024-12.242-16.994-13.486-30.354
	C444.736,237.293,472.102,242.153,478.223,227.386z M222.998,268.412c-2.837,0.376-4.103-1.13-6.176,0
	c-4.408,3.475-5.227,10.513-10.126,13.497c-0.362-0.31-0.715-0.572-1.064-0.813c0.703-2.348,1.157-4.83,1.196-7.212
	c-0.001-0.359-0.013-0.715-0.039-1.071c-0.065-0.957-0.382-1.968-0.897-2.842c0.926-0.512,1.826-1.125,2.671-1.89l0.848-0.778
	l0.366-1.091c0.037-0.229,0.722-1.86,0.78-4.273c-0.016-0.501-0.026-1.079-0.221-1.796c0.133-0.076,0.268-0.146,0.399-0.224
	l1.135-0.678l0.583-1.186c0.12-0.322,0.737-1.354,0.786-3.385c0.038-1.249-0.447-3.294-2.065-4.71
	c-0.301-0.264-0.617-0.482-0.939-0.678c2.028-1.633,4.427-4.318,5.542-8.281c0.869-3.102,1.148-5.4,1.148-7.113
	c0.002-1.823-0.328-2.989-0.601-3.613l-1.363-3.127l-1.029,0.149c0.309-0.825,0.673-1.833,1.044-2.952
	c0.926-2.881,1.945-6.209,2.025-9.509c0.001-0.101,0.001-0.172,0.001-0.231c0.009-1.124-0.084-2.181-0.258-3.166
	c1.424,0.772,2.708,1.799,4.015,3.016c0.687,7.933,5.576,11.653,8.991,16.858c-2.914,6.203,0.698,13.835,2.804,18.549
	C229.556,256.219,229.719,265.738,222.998,268.412z M390.518,177.908c-7.332-7.91,0.797-20.584,11.817-16.863
	C410.344,168.547,402.029,181.705,390.518,177.908z"/>
<g id="g25303" transform="matrix(1.4128278,0,0,1.4128278,-124.49394,-178.96994)">
	<path id="path25305" fill="#FAED35" d="M185.8,302.929c3.645,2.066,7.684,2.232,7.684,2.232c2.958-0.656,6.75-0.745,6.75-0.745
		s-1.143-0.409-4.773-5.684c-3.63-5.283-13.855-1.487-13.855-1.487S180.943,300.172,185.8,302.929z"/>
	<path id="path25307" fill="#FAED35" d="M188.789,294.522c2.679-0.054,4.881-0.919,4.881-0.919
		c-1.977-4.499,1.838,0.973-0.679-4.769c-2.24-5.066-13.855-4.696-13.855-4.696s-0.278,1.178,2.471,5.186
		C184.341,293.337,188.789,294.522,188.789,294.522z"/>
	<path id="path25309" fill="#FAED35" d="M183.089,280.667c2.379,0.687,3.46,0.741,3.46,0.741s0.247,1.236,1.977-2.749
		c1.931-4.483-5.19-7.152-5.19-7.152s-5.955-0.641-4.703,3.475C179.892,279.076,183.089,280.667,183.089,280.667z"/>
	<path id="path25311" fill="#FAED35" d="M196.697,289.572c0,0-2.116-0.251-1.089,5.252c1.019,5.514,5.475,7.766,5.475,7.766
		c2.819,1.139,6.827,2.285,6.827,2.285s0.139-0.506-1.066-5.653C204.359,288.711,196.697,289.572,196.697,289.572z"/>
	<path id="path25313" fill="#FAED35" d="M237.799,296.399c1.135-4.07,0.533-5.471,0.533-5.471s-7.746,1.124-8.735,5.82
		c-0.981,4.7-2.533,6.564-2.533,6.564s3.383-0.672,5.777-1.374C232.841,301.937,236.648,300.458,237.799,296.399z"/>
	<path id="path25315" fill="#FAED35" d="M235.999,275.277c-0.395-0.706-0.767-1.437-1.127-2.177
		c-1.586,2.302-7.1,10.817-5.275,15.483c2.132,5.453,2.819,3.514,2.819,3.514s1.823-2.174,3.622-4.255c0,0,2.471-5.931,2.502-9.144
		c0.017-1.443-0.232-2.553-0.593-3.417C237.347,275.232,236.702,275.227,235.999,275.277z"/>
	<path id="path25317" fill="#FAED35" d="M208.158,308.054c-1.653,0.324-8.572,0-12.534,0s-2.309,2.634-2.309,2.634
		c6.271,2.973,14.844,1.653,16.496,0.332C211.456,309.699,209.811,307.721,208.158,308.054z"/>
	<path id="path25319" fill="#FAED35" d="M205.849,313.985c-1.977,0-8.58-0.325-9.893-0.325c-1.313,0,0,2.966,0,2.966
		c3.954,2.965,12.202,0.988,13.531,0.988c1.321,0,0-3.955,0-3.955S207.834,313.985,205.849,313.985z"/>
	<path id="path25321" fill="#FAED35" d="M220.615,306.76c-1.668-0.166-3.12,1.961-1.343,3.116
		c1.761,1.154,10.433,1.622,16.381-1.946c0,0,1.374-2.791-2.564-2.405C229.15,305.914,222.292,306.926,220.615,306.76z"/>
	<path id="path25323" fill="#FAED35" d="M223.496,312.44c-1.961,0.197-3.645,0.023-3.645,0.023s-0.927,4.074,0.386,3.938
		c1.321-0.12,9.723,1.035,13.36-2.309c0,0,1.035-3.078-0.278-2.95C232.007,311.269,225.473,312.25,223.496,312.44z"/>
	<path id="path25325" fill="#FAED35" d="M217.719,317.942c0-1.653-0.324-11.871-0.324-12.859c0-0.988-6.271,1.32-6.271,1.32
		c-0.332,4.287,0,10.218,1.653,13.191C214.429,322.561,217.719,319.595,217.719,317.942z"/>
	<path id="path25327" fill="#FAED35" d="M201.884,337.23c0.636-1.071,1.007-2.743,1.007-3.784c0-1.977,2.301-8.905,3.614-12.202
		c1.328-3.297-5.931-0.656-6.919-0.656c-0.997,0-0.997,2.301-0.997,5.939c0,2.802,0.593,7.953,0.864,10.158
		C200.2,337.249,201.06,337.458,201.884,337.23z"/>
	<path id="path25329" fill="#FAED35" d="M212.143,334.559c1.687-1.074,1.775-3.768,2.683-5.639
		c-0.899-2.593-5.015-9.657-5.015-9.657s-3.467,3.962-3.715,8.661c-0.099,1.876,0.24,3.789,0.679,5.414
		C208.474,334.427,210.231,335.346,212.143,334.559z"/>
	<path id="path25331" fill="#FAED35" d="M222.886,332.972c0.443-0.774,0.946-1.74,1.518-2.738c0.007-0.648-0.003-1.281-0.003-1.819
		c0-2.475-2.463-6.43-5.692-6.684c-3.205-0.244-2.966,1.734-1.722,3.221c0.677,0.81,2.157,3.527,3.363,5.834
		C221.056,331.653,221.809,332.475,222.886,332.972z"/>
	<path id="path25333" fill="#FAED35" d="M230.67,324.601c0.469-1.62,0.754-3.334,0.657-4.593c-0.247-3.22-8.65-0.498-8.65-0.498
		s0.247,0.738,2.225,2.966c1.352,1.523,1.316,3.858,1.159,5.183C227.325,325.974,228.842,324.644,230.67,324.601z"/>
	<path id="path25335" fill="#FAED35" d="M191.848,270.106c-0.807-0.01-1.568-0.098-2.296-0.244
		c0.135,4.359,0.821,13.688,4.18,17.243c4.449,4.695,3.205-3.962,3.205-6.928c0-2.977-1.475-7.175-1.977-9.904
		c-0.151-0.842-0.73-1.421-1.457-1.822C192.298,268.387,192.36,270.947,191.848,270.106z"/>
	<path id="path25337" fill="#FAED35" d="M219.537,262.433c-0.147,0.991-0.266,2.122-0.327,3.387c-0.247,5.198,1.491,9.16,1.491,9.16
		c3.7-0.255,4.943-9.403,4.695-12.867c-0.045-0.621-0.228-1.161-0.492-1.632c-0.959-0.353-2.021-0.602-3.215-0.721
		C220.722,260.407,220.054,261.345,219.537,262.433z"/>
	<path id="path25339" fill="#FAED35" d="M202.827,263.669l-0.402-0.419c-1.416,2.416-1.898,5.745-3.018,8.448
		c-0.811,0.086-1.453,0.002-1.986-0.19c0.057,3.686,2.059,10.312,2.982,12.624c0.997,2.475,2.974,4.452,2.974,4.452
		c2.471,0,3.962-2.722,3.962-5.441c0-2.723,0.487-3.962,1.73-8.905c0.573-2.312,0.553-4.292,0.372-5.754
		c-0.052,0.384-0.088,0.784-0.078,1.229C206.543,268.331,203.938,266.741,202.827,263.669z"/>
	<path id="path25341" fill="#FAED35" d="M217.318,267.314c-1.798,0.832-2.53-0.631-3.539-1.836
		c-0.129-0.132-0.255-0.271-0.378-0.415c-0.532-0.539-1.166-0.948-2.061-0.926c-0.246,0.41-0.501,0.812-0.744,1.227
		c0.612,3.694,1.375,9.6,0.196,10.609c-1.722,1.479-1.228,3.707-0.247,4.942c0.997,1.232,0.997,2.228-0.734,2.966
		c-1.73,0.741-1.236,6.19-1.236,6.19s-1.243,0-1.73,1.479c-0.502,1.487,2.225,4.707,2.464,6.927c0.255,2.225,4.456,4.7,4.456,4.7
		c4.696,0.25,2.719-6.677,2.719-8.163c0-1.479-1.236-3.464-1.483-4.452c-0.239-0.989,1.483-3.954,3.707-6.43
		c2.224-2.475-1.228-6.927-1.228-6.927s-0.996,1.734,0.487-3.707c0.778-2.843,0.339-5.069-0.257-6.556
		C217.506,266.994,217.378,267.119,217.318,267.314z"/>
	<path id="path25343" fill="#FAED35" d="M226.879,269.287c-0.494,2.221-0.741,5.939-2.726,7.917
		c-1.977,1.977-2.958,4.703-2.472,6.182c0.494,1.487,0,2.973-0.487,4.95c-0.502,1.977-2.486,4.95-2.733,7.673
		c-0.232,2.723,0.749,5.931,0.749,5.931s0.247,0.745,4.202,0.745c3.961,0,5.197-7.421,5.197-9.649c0-2.232-0.997-5.696-0.997-8.407
		c0-2.723,3.228-7.673,4.209-13.122c0.287-1.568,0.445-2.758,0.466-3.711c-0.943-1.765-2.007-3.41-3.374-4.753
		C226.962,262.6,227.327,267.27,226.879,269.287z"/>
</g>
<g id="g25345" transform="matrix(1.4128278,0,0,1.4128278,-124.49394,-178.96994)">
	<path id="path25347" fill="#3AB1E6" d="M415.058,322.237c2.285,8.044,1.158,14.615-3.567,19.092
		c-3.769,3.556-11.816,4.537-13.933,9.553c-2.147,5.071-0.448,10.353-3.969,15.118c8.51,0.367,14.744,3.008,13.916,12.735
		c-4.286-1.432-7.816-4.051-12.325-3.977c-8.651,0.116-13.517,9.985-17.911,15.11c2.703,2.586,5.878,3.146,8.364,6.367
		c5.978,7.782,0.912,20.911-9.159,21.486c-0.4-2.426,4.449-4.924,3.978-8.348c-0.44-3.221-7.515-5.086-11.145-6.77
		c-10.148-4.699-14.356-11.326-21.887-20.293c-3.977-4.722-8.912-10.035-10.341-13.928c-2.672-7.229-0.941-12.724-8.364-17.107
		c2.379,6.391,4.696,10.685,3.993,17.906c-0.811,8.256-6.448,15.176-4.773,22.683c1.228,5.557,8.496,5.407,11.523,9.948
		c0.664,7.012-4.008,8.982-2.772,15.114c1.552,7.772,10.958,1.208,16.712,4.38c-0.201,5.567-5.978,8.842-11.94,9.951
		c8.225,1.595,6.117,11.087-1.59,11.932c-0.749,0.943,1.637,1.306,0.788,3.592c-1.862,1.185-3.839,2.259-5.963,3.17
		c0.78,2.528,1.853,4.776,1.592,8.361c-2.109,3.448-8.395,3.549-11.941,1.193c0.386,4.225-0.664,13.423-5.174,12.338
		c-2.371-0.579-1.698-4.507-3.182-6.761c-0.857,2.587-0.031,6.857-1.19,9.139c-2.633,1.796-7.244,2.461-10.349,0.8
		c-2.927-7.23,5.669-11.933,8.357-16.709c5.145-9.143-0.988-23.069,4.386-33.027c1.406-0.308,1.39-2.054,3.182-1.985
		c-10.024-10.858-26.489-21.288-28.652-40.19c-1.838-16.118,9.507-20.118,15.114-30.637c-3.869,1.97-7.035,4.634-11.136,6.367
		c1.946-10.487-3.112-20.987-11.144-23.875c-5.321-1.903-13.453-1.78-14.72-8.754c-6.364,6.24-11.616,13.588-19.099,18.701
		c1.321-2.946,3.143-6.279,5.568-9.947c3.167-4.777,8.981-8.194,4.364-13.917c-0.973,3.124-0.294,7.924-2.772,9.546
		c-2.225,0.37-3.174-0.548-4.371-1.197c-0.255,2.128,0.509,4.911-0.409,6.761c-0.796,1.653-3.653,1.355-4.765,2.785
		c-0.942,1.221-0.479,3.757-1.197,4.777c-3.522,5-12.828,3.354-19.493,5.175c6.773,0.807,14.959-0.413,20.69-1.993
		c-5.082,6.958-16.35,6.576-27.857,8.356c-7.715,1.197-14.434,5.009-19.887,4.777c-5.685-0.243-10.465-5.225-11.94-9.553
		c2.054-1.155,5.754-2.228,8.75-1.193c1.413-1.321-0.919-3.874,0.41-5.172c3.869,0.101,5.522,2.418,7.947,3.986
		c-0.093-3.131-0.888-6.619,0-9.554c3.97-0.386,5.615,1.541,7.963,2.785c0.78-2.785,0.626-6.533,2.78-7.959
		c4.572,0.881,5.221,5.666,9.545,6.766c1.776-3.403,0.881-9.469,3.977-11.531c2.618,0.819,5.167,1.738,6.372,3.978
		c2.363-4.549,3.8-13.349,10.742-10.75c4.865-3.754,4.325-12.921,11.538-14.318c1.089-6.21,4.162-10.441,9.954-11.944
		c-0.703,12.527,2.734,21.463,13.121,23.875c-0.101-6.318-1.505-17.018,5.977-17.906c1.414,6.946,5.986,11.735,13.925,9.952
		c-0.07-2.618-2.472-5.592-1.993-9.152c0.463-3.426,3.066-5.36,5.978-6.372c-0.279,4.522,1.204,7.275,4.764,7.962
		c2.434,7.433,7.484,13.531,11.932,20.293c8.279,12.573,14.55,27.149,24.273,40.183c4.271,5.718,11.632,16.79,20.69,15.92
		c7.861-0.752,16.65-9.65,15.121-18.303c-1.622-9.244-12.179-15.125-19.894-6.769c-0.51,1.147-0.51,2.823,0,3.981
		c-3.553-2.768-5.808-8.202-4.773-14.325c3.074-3.263,8.487-7.148,14.728-4.773c-0.981-5.198-1.653-8.352-6.379-9.951
		c-8.41-2.838-26.868,7.38-25.462-7.155c6.935-3.456,20.248-1.359,25.872,1.588c-0.75-7.727-3.815-11.372-8.357-14.725
		c-9.647-7.109-33.232-4.838-24.675-24.261c6.819,4.71,12.055,11.024,22.289,12.338c-2.896-9.438-10.38-21.656-9.94-36.213
		c0.502-17.176,8.633-36.07,25.053-36.213c6.479-0.054,15.763,1.818,19.492,6.367c4.695,5.692,4.025,15.902,5.584,25.869
		c2.325,14.92,6.426,31.15,23.07,32.224c-6.705,2.285-20.714,4.255-25.07-1.992c-3.598-5.171-0.37-13.237-5.962-16.708
		c2.982,7.306-1.544,15.817-1.599,23.076c-0.039,6.414,3.554,10.163,6.372,14.717c-16.975-3.382-21.532-26.262-15.917-44.554
		c-3.198,0.672-7.862,4.437-11.94,2.784c-3.553-1.433-3.923-5.792-3.977-11.144c6.286,6.105,16.581-2.174,17.508-9.545
		c0.795-6.31-5.746-12.859-13.137-9.152c-14.056,7.024-6.882,30-3.182,44.565c6.07,23.861,13.253,52.772,25.872,69.229
		C387.07,331.639,414.2,340.069,415.058,322.237 M321.949,418.125c-0.316-4.333-5.313-8.187-3.583-13.137
		c-6.379,2.216-6.927-4.754-4.757-8.753c-1.653-0.055-2.495,0.694-4.38,0.401c-3.344-0.63-1.352-6.634-1.599-8.357
		c-0.517,1.097-2.155,0.8-3.182,0.394c-1.991-2.537,0.085-8.541-0.402-10.739c-0.957,1.432-1.83,2.942-3.977,3.186
		c-2.672-3.549-0.053-8.704,1.6-11.14c0.91-1.364,3.212-2.46,2.377-3.189c-3.513,3.251-9.283,5.34-9.545,10.739
		c-0.263,5.506,4.827,9.438,7.569,13.534C305.483,403.026,313.059,412.962,321.949,418.125 M303.653,335.759
		c-2.356-1.359-1.969,2.205-4.364,1.986c-2.301-1.043-2.758-5.062-2.796-7.155c-1.112,1.135-1.915,2.591-3.978,2.78
		c-1.992-1.278-3.082-5.557-1.591-7.962c-2.487,0.039-3.128,1.923-4.78,2.785c-2.078-1.108-4.418-1.939-5.963-3.576
		c3.522,9.734,14.929,11.596,19.886,19.891C299.437,339.761,302.394,338.605,303.653,335.759"/>
	<path id="path25349" fill="#FFFFFF" d="M335.093,464.277c0.163,1.367-0.162,2.228-0.401,3.178
		c-1.552-0.166-1.097-2.347-3.182-1.985C332.73,465.147,333.912,463.375,335.093,464.277"/>
	<path id="path25351" fill="#39B2E5" d="M321.161,247.03c0.695,5.592,5.082,8.43,9.554,10.345
		c-2.618,3.753-12.427,3.607-15.516,0.393c0.534,7.418,2.58,13.342,5.962,17.906c-2.147,0.244-1.915,2.854-4.372,2.792
		c-0.711-6.336-3.328-10.75-7.158-13.928c6.672,8.503,1.058,27.228,7.158,36.599c-3.938,0.232-6.255-1.177-8.356-2.785
		c-1.066-3.398,0.023-6.657,0-9.545c-0.077-9.337-7.106-12.866-7.962-21.887c-7.275,5.185,8.966,16.534,4.372,24.67
		c-2.874,5.117-10.937,10.55-7.16,17.114c-4.155-2.228-7.398-4.738-6.757-9.947c0.533-4.383,5.429-8.708,5.962-14.33
		c0.564-5.893-2.433-9.229-4.765-14.72c0.208-1.815-0.711-2.479-0.41-4.379c-6.271,8.511,5.453,16.859,0.804,25.463
		c-3.947,7.302-15.037,12.013-13.53,23.08c-18.543-11.31,5.792-24.621,3.977-41.781c-1.915,3.804-1.838,7.101-3.977,10.353
		c-4.433,6.738-13.832,10.201-18.698,15.121c-1.251,1.254-2.131,3.622-2.78,5.962c-9.144-7.869,0.494-22.767,7.152-27.853
		c6.17-4.722,14.697-6.533,18.705-13.129c-9.816,8.368-29.409,9.047-30.645,24.675c-2.719-1.525-5.329-6.858-3.568-10.353
		c3.36-6.684,17.253-11.735,23.068-15.114c-12.774-0.568-20.605,7.237-25.856,15.507c-4.124-13.024,9.383-18.33,18.697-21.871
		c0.039,1.231-1.251,1.127-0.796,2.772c5.584,1.718,11.6-2.235,15.515-4.765c0.734,1.73,1.267,2.657,0.804,4.765
		c4.572-1.653,8.472-3.985,10.341-8.348c2.649,1.857,4.842,4.167,9.144,4.371c0.084-2.332-3.166-7.901-0.394-10.739
		c6.364,4.279,16.373,0.626,13.121-7.562c3.39-1.795,4.487-5.866,5.978-9.545C322.011,232.059,320.35,240.396,321.161,247.03"/>
	<path id="path25353" fill="#FFFFFF" d="M324.737,482.975c-5.089,0.452-7.121-2.151-8.357-5.567
		c2.378-0.409,4.417-1.164,5.568-2.786C322.489,477.804,322.473,481.536,324.737,482.975"/>
	<path id="path25355" fill="#39B2E5" d="M316.381,206.052c2.849,2.71,5.522,7.314,3.986,13.125c-2.078,0.698-4.225,1.348-5.168,3.19
		c-0.479,2.189,1.143,2.301,1.182,3.977c-1.414,2.285-2.843,4.572-6.75,4.372c-4.039-3.556-1.321-12.476,0.795-15.917
		c-10.596,0.024-10.966,19.59,1.19,18.307c-0.084,1.764-1.931,1.78-2.787,2.784c0.857,1.004,2.703,1.012,2.787,2.785
		c-0.03,5.812-10.318,4.696-11.144,0.394c-3.931,0.958-3.978,7.07-3.19,11.538c-3.321-0.776-4.95-3.266-6.757-5.567
		c-1.707,3.59-2.85,7.757-6.765,9.152c-1.552-1.494-2.881-3.209-3.174-5.963c-3.73,1.637-6.426,9.26-12.742,8.349
		c-0.772-0.969-0.386-3.328,0-4.372c-2.024-0.173-3.529,3.622-7.166,3.178c-1.514-3.842,3.181-4.738,2.402-9.148
		c8.387,4.704,16.898-4.058,16.704-12.735c-0.231-11.163-11.515-15.025-18.303-7.155c-4.34-1.043-7.02-7.402-3.969-11.144
		c-0.147-0.498-2.302,0.324-3.584,0c-1.343-5.406,4.703-6.862,7.955-7.163c7.121-0.648,12.627,4.838,17.106,7.163
		c1.784,11.191,17.106,3.506,19.5-3.186c-2.109-2.846-4.911-6.097-8.765-6.367c-5.198-0.363-8.38,3.788-11.531,6.367
		c-2.24-1.07-5.144-1.502-4.773-5.171c-1.329,0.529-2.077,1.637-3.977,1.587c-1.799-1.058-3.167-1.849-3.182-3.977
		c-0.054-6.785,10.202-5.306,17.106-5.963c8.457-0.807,14.604-6.421,17.894-9.553c2.008,1.699,2.016,5.418,2,9.148
		c2.518-0.394,3.706-2.116,6.372-2.386c2.008,5.291-0.464,10.959-2.403,14.725C311.214,209.886,313.307,207.465,316.381,206.052
		 M286.547,239.867c8.317,0.981,12.906-11.569,11.94-17.906c-1.436,2.942-1.622,7.136-3.985,9.152
		c-1.576-0.127,0.448-1.386-1.197-1.193c-1.984,1.587-1.984,5.171-4.78,5.97c-1.514,0.197-1.236-1.409-1.977-1.992
		C285.311,235.558,286.044,237.883,286.547,239.867"/>
	<path id="path25357" d="M318.373,404.992c-1.745,4.95,3.267,8.794,3.584,13.137c-8.89-5.174-16.466-15.106-19.894-27.061
		c-2.733-4.109-7.823-8.036-7.568-13.534c0.27-5.402,6.046-7.489,9.546-10.748c0.841,0.738-1.461,1.827-2.371,3.19
		c-1.653,2.441-4.272,7.592-1.6,11.14c2.155-0.243,3.012-1.756,3.97-3.177c0.502,2.197-1.591,8.194,0.408,10.739
		c1.035,0.395,2.673,0.695,3.182-0.394c0.247,1.714-1.745,7.727,1.599,8.348c1.892,0.294,2.719-0.452,4.371-0.394
		C311.446,400.239,311.979,407.197,318.373,404.992"/>
	<path id="path25359" fill="#FFFFFF" d="M303.258,477.408c1.993,0.648,3.614,1.691,6.372,1.59c-0.719,2.538-1.275,5.986,0,8.357
		C305.591,485.948,302.866,483.241,303.258,477.408"/>
	<path id="path25361" fill="#39B2E5" d="M309.229,455.922c0.363,2.302-0.803,6.318-3.182,7.155c-0.733-2.577-2.741-3.88-5.19-4.765
		C302.457,456.523,306.38,455.123,309.229,455.922"/>
	<path id="path25363" d="M299.289,337.748c2.394,0.224,2.008-3.344,4.364-1.984c-1.259,2.846-4.216,3.992-3.584,8.746
		c-4.957-8.302-16.372-10.153-19.886-19.899c1.537,1.645,3.893,2.468,5.962,3.584c1.653-0.869,2.293-2.753,4.773-2.785
		c-1.483,2.406-0.394,6.685,1.598,7.967c2.054-0.193,2.865-1.653,3.969-2.792C296.525,332.685,296.988,336.698,299.289,337.748"/>
	<path id="path25365" fill="#FFFFFF" d="M302.071,463.082c-0.171,3.811-1.8,6.166-2.395,9.553c-4.333-0.104-8.612-11.017-2-13.137
		C299.244,460.597,300.818,461.68,302.071,463.082"/>
	<path id="path25367" d="M298.486,221.961c0.965,6.333-3.622,18.887-11.94,17.906c-0.495-1.984-1.236-4.313,0-5.973
		c0.741,0.587,0.463,2.194,1.977,1.992c2.796-0.799,2.796-4.371,4.788-5.97c1.637-0.19-0.386,1.077,1.189,1.193
		C296.865,229.094,297.042,224.911,298.486,221.961"/>
	<path id="path25369" fill="#FFFFFF" d="M282.963,210.025c4.047-4.768,10.441,0.166,14.326,1.599
		c-2.981,3.376-8.055,10.136-14.326,6.355c-0.178-2.293,1.436-2.807,1.992-4.371C284.956,211.748,284.014,210.848,282.963,210.025"
		/>
	<path id="path25371" fill="#39B2E5" d="M286.547,355.252c3.321,4.499,4.232,22.339,0.401,28.255
		c-2.024,3.101-6.588,5.79-7.167,9.546c-1.143,7.418,3.182,13.967,6.364,16.72c-4.14,2.513-11.299,5.591-11.539,11.133
		c-0.178,4.151,3.708,7.063,5.978,10.345c-7.792,1.716-14.118-1.2-17.508-5.17c-0.981,4.468-2.131,8.753-5.977,10.345
		c-1.692-5.198-4.371-9.43-7.561-13.129c-2.332,2.703-2.749,7.321-6.371,8.754c-3.376-2.846-7.004-5.465-8.75-9.952
		c-1.104,0.344-1.784,1.124-1.591,2.786c-5.367-1.92-7.499-7.093-10.743-11.141c-0.78,0.68-0.116,2.791-1.197,3.178
		c-3.923,1.124-8.07-0.189-9.94-2.378c-1.05-3.402,1.614-5.546,3.182-7.562c-3.29-0.928-5.955,1.2-8.356,2.386
		c-0.88-5.835-6.711-13.237,3.993-12.731c-6.317-1.194-3.776-11.901,1.576-12.337c7.932-0.634,7.259,11.758,13.932,11.943
		c0.139-3.167-2.996-7.816-1.591-12.338c3.058-2.761,7.738-0.339,10.735-0.398c-0.741,3.977-3.027,9.144-1.985,13.523
		c2.124,8.843,16.527,9.747,25.463,11.144c9.206-18.678-11.044-35.209-4.371-54.906
		C262.628,348.946,280.724,347.367,286.547,355.252 M284.153,370.776c3.128-11.863-6.92-20.474-16.705-15.921
		c5.939,0.664,10.611,1.916,12.333,5.973c2.703,6.399-4.077,15.651,0.401,22.278c-5.946,3.359-10.457,13.608-4.772,20.698
		c-3.151,1.105-5.314,5.297-5.175,8.348c1.977-3.592,6.411-4.738,9.947-6.769c-2.703-3.378-5.027-10.307-3.181-15.507
		c1.236-3.511,5.089-4.059,6.356-6.77C280.052,378.739,283.164,374.557,284.153,370.776"/>
	<path id="path25373" d="M267.448,354.859c9.785-4.556,19.84,4.059,16.705,15.921c-0.988,3.768-4.093,7.961-0.788,12.326
		c-1.274,2.715-5.128,3.251-6.364,6.766c-1.846,5.202,0.478,12.136,3.174,15.516c-3.529,2.03-7.963,3.178-9.94,6.769
		c-0.139-3.055,2.016-7.244,5.175-8.361c-5.685-7.086-1.181-17.326,4.765-20.689c-4.472-6.626,2.301-15.879-0.394-22.285
		C278.067,356.773,273.387,355.515,267.448,354.859"/>
	<path id="path25375" fill="#E72328" d="M277.001,230.715c2.085,6.533-2.788,16.134-8.364,10.739
		C269.123,235.824,271.896,230.43,277.001,230.715"/>
	<path id="path25377" fill="#FFFFFF" d="M271.031,224.348c2.387-0.394,3.182,0.783,3.977,1.992c-1.83,3.085-5.808,4.008-7.954,6.761
		C267.131,230.53,270.83,228.128,271.031,224.348"/>
	<path id="path25379" fill="#FFFFFF" d="M268.645,244.242c-1.283,0.996-4.155,0.197-5.175-0.394
		c-0.309-1.803-1.436-4.502-0.394-6.367C265.37,239.292,267.386,241.38,268.645,244.242"/>
	<path id="path25381" fill="#E72328" d="M261.478,230.715c9.144,9.877-25.347,11.773-23.872,1.193
		c2.758-0.899,9.245,1.305,10.349,0.791C252.55,234.473,256.118,230.572,261.478,230.715"/>
	<path id="path25383" fill="#39B2E5" d="M242.387,273.292c-2.34,0.07-3.506-1.004-5.175-1.598
		c-3.128-7.267-5.777-17.237-16.72-14.322c-0.487-2.417-1.491-4.34-1.584-7.155c-1.946,1.753-4.557,2.87-4.772,6.356
		c-2.641-0.68-3.499-3.132-4.773-5.171c-1.599,2.398-1.707,6.271-4.78,7.163c-1.382-1.533-3.684-2.147-3.576-5.17
		c-2.054,0.459-3.969,4.525-6.364,5.97c-2.286,0.151-2.364-1.888-3.584-2.791c1.899-7.252,4.085-15.609,11.538-18.299
		c7.754-2.808,24.52-0.791,28.637,3.981c1.529,1.768,2.649,4.664,3.985,6.769c3.082,4.87,5.499,9.372,9.554,13.523
		C243.714,265.785,240.957,268.825,242.387,273.292"/>
	<path id="path25385" fill="#FFFFFF" d="M232.03,378.73h-7.159c0.88-1.645-0.015-3.267-0.394-4.777
		C228.407,374.143,231.026,375.623,232.03,378.73"/>
	<path id="path25387" fill="#FFFFFF" d="M212.931,259.364c1.452-0.807,3.159-1.343,5.576-1.194
		c-0.842,2.062-1.483,4.356-1.985,6.762C214.422,263.974,212.8,262.542,212.931,259.364"/>
	<path id="path25389" fill="#FFFFFF" d="M212.931,419.318c-1.352,1.425-3.568,1.985-3.969,4.371
		c-2.417-0.771-2.518-5.803-1.197-7.954C209.201,417.206,210.483,418.836,212.931,419.318"/>
	<path id="path25391" fill="#FFFFFF" d="M204.976,261.352c1.035-1.946,3.661-2.46,5.175-1.185c-0.054,2.602-2.255,3.051-1.992,5.962
		C206.158,265.473,206.012,262.982,204.976,261.352"/>
	<path id="path25393" fill="#FFFFFF" d="M208.158,383.507c-1.622,1.684-4,2.626-4.371,5.568c-2.255-0.791-4.178-1.923-7.16-1.985
		C197.122,382.804,203.957,381.553,208.158,383.507"/>
	<path id="path25395" fill="#FFFFFF" d="M198.613,402.204c2.479,1.082,4.819,3.56,3.985,6.763c-3.274,0.451-5.051,2.378-7.167,3.977
		C194.133,408.228,195.878,404.112,198.613,402.204"/>
	<path id="path25397" fill="#FFFFFF" d="M199.81,260.557c-0.873,2.444-1.799,4.839-1.599,8.361c-1.915-1.545-4.68-3.884-3.568-7.167
		C196.674,261.673,197.948,260.812,199.81,260.557"/>
	<path id="path25399" fill="#FFFFFF" d="M195.43,332.972c0.51,1.487,1.483,5.931,3.174,7.561c-1.892,0.347-3.128,1.367-4.364,2.387
		C192.928,339.416,195.137,336.165,195.43,332.972"/>
	<path id="path25401" fill="#FFFFFF" d="M190.658,265.727c-4.911,0.664-5.823-2.664-6.765-5.962c1.915-0.444,3.784,1.224,5.175,0
		C189.638,261.711,189.746,264.113,190.658,265.727"/>
	<path id="path25403" fill="#39B2E5" d="M191.461,245.833c-1.205,4.731-2.194,6.708-1.607,12.338c-2.038,1.773-4.495-0.436-7.553,0
		C178.702,250.641,185.314,243.628,191.461,245.833"/>
	<path id="path25405" fill="#FFFFFF" d="M186.673,339.737c1.467,2.255,2.2,5.229,3.985,7.155c-0.725,1.463-2.742,2.634-4.788,1.599
		C184.835,345.502,185.143,342.092,186.673,339.737"/>
</g>
</svg>
