<?xml version="1.0" encoding="UTF-8" standalone="no"?>
<!-- Generator: Adobe Illustrator 14.0.0, SVG Export Plug-In . SVG Version: 6.00 Build 43363)  -->

<svg
   xmlns:dc="http://purl.org/dc/elements/1.1/"
   xmlns:cc="http://creativecommons.org/ns#"
   xmlns:rdf="http://www.w3.org/1999/02/22-rdf-syntax-ns#"
   xmlns:svg="http://www.w3.org/2000/svg"
   xmlns="http://www.w3.org/2000/svg"
   xmlns:xlink="http://www.w3.org/1999/xlink"
   xmlns:sodipodi="http://sodipodi.sourceforge.net/DTD/sodipodi-0.dtd"
   xmlns:inkscape="http://www.inkscape.org/namespaces/inkscape"
   version="1.1"
   id="svg2963"
   inkscape:output_extension="org.inkscape.output.svg.inkscape"
   sodipodi:version="0.32"
   inkscape:version="0.47 r22583"
   sodipodi:docname="Mansfield_Town_FC.svg"
   x="0px"
   y="0px"
   width="299.38"
   height="366.2225"
   viewBox="0 0 299.38 366.2225"
   enable-background="new 0 0 598.76 732.445"
   xml:space="preserve"><metadata
   id="metadata42"><rdf:RDF><cc:Work
       rdf:about=""><dc:format>image/svg+xml</dc:format><dc:type
         rdf:resource="http://purl.org/dc/dcmitype/StillImage" /><dc:title></dc:title></cc:Work></rdf:RDF></metadata>
<defs
   id="defs3">
	
	
		<inkscape:perspective
   id="perspective2970"
   inkscape:vp_y="0 : 1000 : 0"
   inkscape:vp_x="0 : 526.18109 : 1"
   sodipodi:type="inkscape:persp3d"
   inkscape:vp_z="744.09448 : 526.18109 : 1"
   inkscape:persp3d-origin="372.04724 : 350.78739 : 1">
		</inkscape:perspective>
</defs>
<sodipodi:namedview
   id="base"
   inkscape:cy="173.40039"
   inkscape:cx="372.04695"
   inkscape:zoom="1.1575153"
   showgrid="false"
   pagecolor="#ffffff"
   bordercolor="#666666"
   gridtolerance="10.0"
   borderopacity="1.0"
   objecttolerance="10.0"
   guidetolerance="10.0"
   inkscape:current-layer="g2972"
   inkscape:window-y="-8"
   inkscape:window-x="-8"
   inkscape:pageopacity="0.0"
   inkscape:pageshadow="2"
   inkscape:window-width="1366"
   inkscape:window-height="716"
   inkscape:window-maximized="1">
	</sodipodi:namedview>
<g
   id="g2972"
   transform="matrix(1.25,0,0,-1.25,-73.606241,525.405)"
   inkscape:label="mansfield_town_fc"
   inkscape:groupmode="layer">
	<g
   id="g2974"
   transform="matrix(0.5,0,0,0.5,29.442496,63.673)">
		<g
   id="g9">
			<defs
   id="defs11">
				<rect
   id="SVGID_1_"
   x="-74.410004"
   y="-105.236"
   width="744.09497"
   height="1052.3621" />
			</defs>
			<clipPath
   id="SVGID_2_">
				<use
   xlink:href="#SVGID_1_"
   overflow="visible"
   id="use15"
   style="overflow:visible"
   x="0"
   y="0"
   width="598.76001"
   height="732.44501" />
			</clipPath>
			<g
   id="g2976"
   clip-path="url(#SVGID_2_)">
				<g
   id="g2982"
   transform="translate(537.891,713.302)">
					<path
   id="path2984"
   d="m 0,0 h -479.004 l -0.002,-384.339 c -0.009,-23.098 6.831,-44.468 18.074,-63.181 11.25,-18.733 26.853,-34.9 44.656,-48.166 29.797,-22.171 64.465,-37.238 95.842,-50.17 31.34,-12.834 59.564,-23.841 75.415,-35.934 l 5.516,-4.166 5.516,4.166 c 15.852,12.093 44.077,23.101 75.416,35.934 31.378,12.932 66.046,27.998 95.843,50.17 17.804,13.266 33.405,29.434 44.655,48.166 11.245,18.713 18.084,40.084 18.075,63.181 L 0,0 z"
   style="fill:#ffffff" />
				</g>
				<g
   id="g2986"
   transform="translate(528.739,704.148)">
					<path
   id="path2988"
   d="m 0,0 h -230.35 v -565.333 c 35.4,26.73 114.025,43.473 171.307,86.14 34.004,25.328 59.044,61.435 59.044,104.007 L 0,0 z"
   style="fill:#2d579b" />
				</g>
				<g
   id="g2990"
   transform="translate(68.0391,704.148)">
					<path
   id="path2992"
   d="m 0,0 v -375.186 c 0,-42.572 25.04,-78.679 59.043,-104.007 57.282,-42.667 135.908,-59.409 171.307,-86.14 V 0 H 0 z"
   style="fill:#faac28" />
				</g>
				<g
   id="g2994"
   transform="translate(471.883,679.229)">
					<path
   id="path2996"
   d="m 0,0 c 0,0 -21.057,-20.747 -61.406,-41.177 -3.604,22.251 8.474,29.052 11.558,41.177 0,0 -20.943,-11.391 -31.058,-50.296 -18.229,-7.85 -39.424,-15.157 -63.492,-20.618 0.91,22.668 5.709,39.669 9.453,58.872 -19.01,-9.028 -36.575,-40.963 -33.952,-67.895 -24.621,10.098 -37.582,35.769 -41.693,63.172 -15.096,-25.741 -9.596,-59.074 9.453,-72.634 -28.041,1.128 -37.28,-6.775 -51.884,-15.519 -6.469,-3.874 -13.99,-8.628 -24.665,-12.409 -9.386,-3.324 -31.646,-1.199 -36.9,-6.453 -4.913,-4.912 -3.1,-9.392 -7.308,-24.92 29.465,-3.927 83.554,-3.639 83.554,-61.138 0,-25.265 -5.734,-39.789 -0.792,-61.399 -6.606,-0.055 -13.406,-0.085 -20.345,-0.085 -8.78,0 -17.848,0.06 -26.95,0.179 l -5.279,0.07 v -5.28 -5.028 -5.017 l 5.016,-0.188 c 10.519,-0.394 13.821,-0.688 14.84,-0.821 0.155,-0.831 0.345,-2.355 0.409,-4.984 0.112,-7.679 0.17,-14.655 0.17,-20.684 0,-11.302 -0.267,-21.971 -0.792,-31.716 -0.113,-2.395 -0.361,-3.741 -0.545,-4.441 -0.993,-0.209 -3.086,-0.509 -7.228,-0.627 l -6.843,-0.241 -5.027,-0.177 v -5.03 -5.028 -5.373 l 5.372,0.166 c 7.885,0.243 16.856,0.381 26.712,0.41 l 0.075,-0.484 c 0.563,-3.64 0.922,-7.775 1.077,-12.357 -6.896,-0.037 -13.654,-0.057 -20.158,-0.057 -6.329,0 -14.001,0.07 -22.804,0.207 l -5.291,0.084 v -5.292 -3.488 -5.05 l 5.047,-0.158 c 4.039,-0.125 6.375,-0.26 7.712,-0.365 0.151,-1.239 0.333,-3.295 0.474,-6.64 0.25,-5.913 0.376,-11.509 0.376,-16.634 0,-6.355 -0.256,-12.069 -0.76,-17.006 -1.374,-0.105 -3.718,-0.212 -7.661,-0.23 l -5.188,-0.022 v -5.187 -3.489 -5.292 l 5.291,0.083 c 12.363,0.193 21.8,0.29 28.049,0.29 7.035,0 14.667,-0.097 22.684,-0.29 l 5.335,-0.127 0.488,9.313 0.651,11.081 h 6.12 6.538 5.371 l -0.164,5.369 c -0.149,4.886 -0.225,8.488 -0.225,10.704 0,2.298 0.073,4.641 0.217,6.962 l 0.107,1.716 h 2.221 4.937 l 0.266,4.93 c 0.228,4.24 0.818,7.931 1.754,10.976 l 0.859,2.796 -1.939,2.189 -0.76,0.859 -1.405,1.586 c 5.244,0.113 10.973,0.173 17.173,0.173 0.635,0 1.172,-0.021 1.62,-0.052 -0.003,-1.313 -0.013,-2.955 -0.025,-4.772 -0.026,-4.197 -0.062,-9.944 -0.062,-17.491 0,-3.307 0.045,-6.854 0.088,-10.285 0.076,-5.988 0.154,-12.182 0.006,-17.571 -0.227,-6.89 0.004,-11.739 0.157,-14.948 0.055,-1.148 0.115,-2.418 0.108,-3.135 -0.437,-0.109 -1.213,-0.259 -2.491,-0.383 -4.721,-0.425 -9.336,-0.643 -13.685,-0.643 h -5.21 v -5.21 -5.616 -5.363 l 5.361,0.155 c 10.6,0.309 24.69,0.465 41.877,0.465 13.074,0 25.56,-0.155 37.113,-0.465 l 5.349,-0.142 v 5.35 5.616 4.973 l -4.968,0.23 c -10.507,0.49 -14.794,0.842 -16.532,1.04 -0.08,0.286 -0.169,0.689 -0.242,1.241 -0.229,1.695 -0.496,6.42 -0.544,19.08 1.471,-3.065 3.567,-5.934 6.296,-8.585 5.45,-5.295 13.183,-9.413 22.985,-12.237 9.434,-2.721 21.051,-4.101 34.526,-4.101 7.164,0 13.615,0.379 19.177,1.127 5.592,0.752 11.475,2.042 17.484,3.833 l 1.783,0.531 1.043,1.54 c 0.845,1.247 1.841,2.499 2.962,3.721 l 4.586,5.002 -6.016,3.139 -1.866,0.973 -1.826,0.952 -1.983,-0.552 c -5.32,-1.483 -10.223,-2.531 -14.569,-3.117 -4.355,-0.587 -9.109,-0.884 -14.129,-0.884 -12.63,0 -22.566,2.091 -29.53,6.218 -6.827,4.03 -10.141,8.976 -10.141,15.127 0,5.606 2.544,9.728 8.005,12.971 6.188,3.674 14.868,5.538 25.798,5.538 4.718,0 9.073,-0.313 12.942,-0.931 3.698,-0.59 6.602,-1.336 8.627,-2.216 0.63,-0.273 1.123,-0.498 1.505,-0.68 0.098,-0.899 0.226,-2.306 0.372,-4.482 l 0.325,-4.863 h 4.873 6.274 4.727 l 0.458,4.705 c 0.325,3.337 0.786,6.129 1.37,8.298 l 0.012,0.039 0.011,0.04 c 0.23,0.913 0.675,1.92 1.32,2.993 l 1.9,3.156 -2.34,2.843 -0.524,0.636 -1.155,1.405 -1.78,0.379 c -6.377,1.359 -12.88,2.386 -19.333,3.052 -6.454,0.664 -13.052,1.002 -19.614,1.002 -2.034,0 -4.015,-0.039 -5.967,-0.102 0.589,4.725 1.355,9.027 2.295,12.834 l 0.359,1.457 c 8.034,-0.047 16.928,-0.179 26.563,-0.398 l 5.328,-0.12 v 5.329 5.028 4.98 l -4.973,0.225 c -9.169,0.416 -12.747,0.708 -14.132,0.862 -0.214,1.405 -0.51,4.281 -0.703,10.02 -0.262,7.734 -0.397,15.24 -0.397,22.311 0,13.787 0.258,23.223 0.765,28.05 0.08,0.629 0.173,1.094 0.256,1.429 1.612,0.216 5.413,0.564 14.142,0.845 l 5.042,0.162 v 5.045 5.028 5.33 l -5.327,-0.12 c -5.826,-0.129 -11.891,-0.213 -18.091,-0.258 3.094,3.392 5.25,8.412 5.25,16.281 0,9.626 -10.084,12.36 -21.586,33.323 -8.575,15.63 -25.946,54.082 -24.495,87.704 h -22.347 v 32.661 C -148.699,-101.433 -33.066,-64.334 0,0"
   style="fill:#ffffff" />
				</g>
				<g
   id="g2998"
   transform="translate(185.387,318.892)">
					<path
   id="path3000"
   d="m 0,0 v 5.028 l 6.81,0.24 c 5.523,0.159 8.985,0.658 10.385,1.497 1.399,0.838 2.212,3.671 2.44,8.5 0.531,9.846 0.8,20.513 0.8,31.995 0,6.1 -0.058,13.038 -0.172,20.812 -0.115,4.704 -0.628,7.575 -1.541,8.612 -0.456,0.517 -1.295,0.936 -2.511,1.255 C 14.992,78.259 9.589,78.597 0,78.956 v 5.028 c 9.195,-0.12 18.201,-0.178 27.019,-0.178 10.257,0 20.137,0.059 29.637,0.178 4.111,-5.064 8.374,-10.088 12.791,-15.073 3.121,-3.55 16.94,-18.603 41.457,-45.163 25.91,27.277 44.048,47.356 54.411,60.236 9.111,-0.2 17.765,-0.298 25.965,-0.298 9.642,0 18.943,0.098 27.902,0.298 v -5.028 c -9.971,-0.32 -15.601,-0.777 -16.894,-1.377 -1.296,-0.599 -2.132,-2.434 -2.512,-5.507 -0.534,-5.023 -0.799,-14.572 -0.799,-28.646 0,-7.097 0.131,-14.592 0.399,-22.486 0.266,-7.894 0.78,-12.361 1.541,-13.398 0.532,-0.599 1.293,-1.059 2.284,-1.377 0.987,-0.32 6.315,-0.698 15.98,-1.137 V 0 C 206.853,0.279 195.854,0.419 186.19,0.419 176.447,0.419 163.205,0.279 146.463,0 v 5.028 l 6.736,0.119 c 5.325,0.121 8.656,0.51 9.988,1.168 1.33,0.659 2.187,2.395 2.568,5.208 0.38,2.814 0.572,9.443 0.572,19.891 V 67.536 C 154.591,55.201 139.619,39.036 121.41,19.04 113.94,10.817 108.112,4.111 103.922,-1.076 H 96.414 C 90.7,5.788 83.045,14.468 73.444,24.967 L 33.905,67.535 v -8.134 c 0,-22.489 0.189,-37.978 0.571,-46.471 0.228,-3.433 1.102,-5.548 2.626,-6.345 1.521,-0.8 7.191,-1.317 17.009,-1.557 V 0 C 46.364,0.279 38.617,0.419 30.871,0.419 19.327,0.419 9.036,0.279 0,0"
   style="fill:#231f20" />
				</g>
				<g
   id="g3002"
   transform="translate(417.196,243.645)">
					<path
   id="path3004"
   d="m 0,0 1.866,-0.974 c -1.295,-1.412 -2.44,-2.851 -3.434,-4.32 -5.775,-1.722 -11.339,-2.943 -16.691,-3.662 -5.354,-0.72 -11.512,-1.08 -18.482,-1.08 -13.045,0 -24.072,1.298 -33.083,3.896 -9.012,2.598 -15.945,6.253 -20.798,10.969 -4.854,4.716 -7.281,10.123 -7.281,16.223 0,8.78 5.489,15.973 16.466,21.579 10.977,5.604 26.123,8.407 45.443,8.407 6.421,0 12.779,-0.325 19.077,-0.973 6.299,-0.651 12.559,-1.639 18.782,-2.965 L 2.389,46.464 C 1.471,44.94 0.836,43.471 0.479,42.06 -0.183,39.603 -0.691,36.553 -1.046,32.911 h -6.273 c -0.299,4.461 -0.598,6.91 -0.897,7.348 -0.298,0.438 -1.667,1.186 -4.103,2.245 -2.436,1.059 -5.731,1.92 -9.882,2.582 -4.154,0.663 -8.741,0.996 -13.764,0.996 -11.935,0 -21.423,-2.091 -28.458,-6.268 -7.038,-4.179 -10.555,-9.996 -10.555,-17.45 0,-8.076 4.23,-14.612 12.696,-19.609 7.815,-4.631 18.545,-6.946 32.184,-6.946 5.278,0 10.219,0.31 14.825,0.931 C -10.668,-2.641 -5.577,-1.554 0,0"
   style="fill:#231f20" />
				</g>
				<g
   id="g3006"
   transform="translate(170.37,237.927)">
					<path
   id="path3008"
   d="m 0,0 v 3.488 c 6.436,0.027 10.188,0.291 11.252,0.79 0.81,0.332 1.293,1.317 1.445,2.951 0.608,5.404 0.912,11.639 0.912,18.705 0,5.237 -0.127,10.855 -0.38,16.854 -0.254,5.998 -0.684,9.455 -1.292,10.37 -0.305,0.415 -0.736,0.707 -1.293,0.873 C 9.781,54.337 6.234,54.586 0,54.78 v 3.489 c 8.869,-0.139 16.499,-0.208 22.885,-0.208 9.325,0 19.107,0.038 29.346,0.116 6.741,0.059 12.418,0.091 17.031,0.091 3.294,0 6.436,-0.055 9.427,-0.165 L 79.45,57.245 C 78.385,53.782 77.726,49.708 77.473,45.019 h -6.387 l -0.607,4.444 c -0.153,1.412 -0.495,2.277 -1.027,2.596 -0.532,0.318 -2.408,0.643 -5.626,0.975 -3.22,0.333 -7.82,0.499 -13.8,0.499 -4.409,0 -9.073,-0.125 -13.988,-0.374 -0.559,-4.689 -0.837,-8.005 -0.837,-9.946 l 0.153,-8.946 -0.077,-1.915 c 3.041,-0.083 6.715,-0.124 11.024,-0.124 7.755,0 12.418,0.097 13.99,0.292 0.81,0.112 1.393,0.334 1.748,0.669 0.557,0.585 1.013,2.327 1.369,5.226 h 6.538 c -0.152,-2.441 -0.228,-4.87 -0.228,-7.284 0,-2.275 0.076,-5.898 0.228,-10.863 h -6.538 c -0.407,3.598 -0.888,5.703 -1.445,6.312 -0.304,0.332 -0.939,0.567 -1.9,0.706 -2.434,0.36 -7.375,0.54 -14.826,0.54 L 35.277,27.701 35.581,11.78 C 35.783,7.939 36.139,5.714 36.646,5.107 37,4.719 37.532,4.429 38.242,4.234 39.255,3.959 43.488,3.71 50.939,3.488 V 0 C 42.829,0.194 35.226,0.291 28.13,0.291 21.845,0.291 12.469,0.194 0,0"
   style="fill:#231f20" />
				</g>
				<g
   id="g3010"
   transform="translate(254.443,221.14)">
					<path
   id="path3012"
   d="m 0,0 v 5.616 c 4.53,0 9.258,0.223 14.187,0.667 2.304,0.223 3.934,0.591 4.888,1.102 0.954,0.513 1.669,1.458 2.146,2.84 0.555,1.916 -0.501,7.407 -0.102,19.566 0.238,8.64 -0.092,19.003 -0.092,28 0,17.679 0.199,25.629 0,25.964 -0.199,0.335 -1.326,1.559 -6.743,1.559 -11.075,0 -20.596,-0.178 -28.563,-0.534 -4.621,-0.224 -7.231,-0.448 -7.829,-0.669 -0.598,-0.223 -1.057,-0.613 -1.375,-1.172 -0.318,-0.555 -0.995,-4.468 -2.03,-11.733 h -10.254 c 0.159,8.538 -0.238,15.892 -1.191,22.062 l 1.311,0.537 c 25.036,-0.668 49.396,-1.002 73.082,-1.002 23.605,0 50.03,0.334 79.28,1.002 l 1.313,-1.074 c -1.511,-6.125 -2.585,-13.298 -3.219,-21.525 h -9.895 c -0.715,7.515 -1.431,11.587 -2.145,12.218 -0.558,0.495 -1.83,0.833 -3.815,1.013 -6.362,0.584 -18.999,0.877 -37.913,0.877 -1.591,0 -2.545,-0.133 -2.862,-0.401 C 57.86,84.6 57.702,83.417 57.702,81.365 L 56.986,36.398 c 0,-13.027 0.2,-21.024 0.598,-23.991 0.398,-2.966 1.358,-4.762 2.877,-5.386 1.039,-0.401 7.31,-0.87 18.82,-1.405 V 0 C 67.579,0.313 55.16,0.467 42.029,0.467 24.755,0.467 10.745,0.313 0,0"
   style="fill:#231f20" />
				</g>
				<g
   id="g3014"
   transform="translate(373.898,585.529)">
					<path
   id="path3016"
   d="m 0,0 c -22.814,1.89 -44.695,-12.025 -44.695,-12.025 v -21.913 h 16.906 C -17.557,-29.86 -6.223,-19.806 0,0"
   style="fill:#ffffff" />
				</g>
				<g
   id="g3018"
   transform="translate(153.426,523.648)">
					<path
   id="path3020"
   d="m 0,0 c 0,0 5.438,-17.706 20.063,-17.706 15.039,0 21.5,2.948 27.208,10.825 0,0 -17.583,8.623 -47.271,6.881"
   style="fill:#ffffff" />
				</g>
				<g
   id="g3022"
   transform="translate(263.009,567.052)">
					<path
   id="path3024"
   d="m 0,0 c 0,0 -9.401,-8.64 -14.176,-17.617 l -10.743,0.852 c 0,0 9.552,15.172 24.919,16.765"
   style="fill:#faac28" />
				</g>
				<g
   id="g3026"
   transform="translate(156.862,539.113)">
					<path
   id="path3028"
   d="m 0,0 c 6.873,8.98 11.686,5.782 18.051,11.174 -1.024,1.533 -11.394,1.5 -12.894,0 C 2.307,8.324 0,0 0,0"
   style="fill:#faac28" />
				</g>
			</g>
		</g>
	</g>
</g>
</svg>