<?xml version="1.0" encoding="utf-8"?>
<!-- Generator: Adobe Illustrator 13.0.0, SVG Export Plug-In . SVG Version: 6.00 Build 14948)  -->
<!DOCTYPE svg PUBLIC "-//W3C//DTD SVG 1.1//EN" "http://www.w3.org/Graphics/SVG/1.1/DTD/svg11.dtd">
<svg version="1.1" id="Layer_1" xmlns="http://www.w3.org/2000/svg" xmlns:xlink="http://www.w3.org/1999/xlink" x="0px" y="0px"
	 width="330.882px" height="359.404px" viewBox="0 0 330.882 359.404" enable-background="new 0 0 330.882 359.404"
	 xml:space="preserve">
<g>
	<path d="M316.719,304.641c1.343-3.563,2.972-7.718,3.885-8.501l-0.217,0.124c3.64-1.907,3.93-4.072,3.93-6.136
		c0-4.572-4.301-21.523-22.882-25.164V0H29.354v264.964C10.77,268.605,6.47,285.556,6.47,290.128c0,2.063,0.29,4.229,3.753,6.051
		c0.877,0.748,2.501,4.899,3.842,8.46L0,302.922l3.098,5.327c6.905,11.542,9.029,17.503,10.328,28.985l0.411,3.62l3.489-1.047
		c3.979-1.192,7-1.437,10.313-1.437c2.527,0,3.594,0.41,5.067,0.98c1.966,0.759,4.412,1.704,9.924,1.704
		c15.159,0,24.81-9.442,29.213-15.071l0.124-0.159c21.191,14.44,50.085,33.578,93.426,33.578c43.342,0,72.234-19.138,93.427-33.578
		l0.122,0.159c4.405,5.629,14.055,15.071,29.214,15.071c5.513,0,7.957-0.945,9.925-1.704c1.473-0.57,2.538-0.98,5.066-0.98
		c3.314,0,6.335,0.244,10.313,1.437l3.489,1.047l0.412-3.62c1.297-11.482,3.423-17.443,10.327-28.985l3.192-5.339L316.719,304.641z"
		/>
	<g>
		<g>
			<path fill="#FFFFFF" d="M190.199,78.792c4.104-4.827,8.243-9.905,12.106-15.241c6.545-9.036,11.736-18.573,15.911-26.236
				c6.775-12.447,11.25-20.67,17.582-20.67c2.979,0,4.513,1.442,5.632,2.496c1.36,1.281,3.052,2.874,10.478,2.874
				c3.416,0,12.471-7.154,12.471-15.751v-3.22c-25.189,0-61.248,0-97.463,0v42.008c1.74,2.973,3.355,6.001,4.929,8.959
				C177.109,63.922,182.161,73.418,190.199,78.792z"/>
			<path fill="#FFFFFF" d="M275.115,3.267c-0.772,10.551-5.076,18-7.775,21.745c1.308,0.601,3.255,1.18,6.049,1.18
				c9.659,0,16.945-6.13,16.952-14.149c-0.031-0.173-0.465-1.839-5.503-6.837l-2.174-2.161c-2.294,0-4.825,0-7.531,0L275.115,3.267z
				"/>
			<path fill="#FFFFFF" d="M166.979,106.065c-0.021-0.025-0.04-0.05-0.063-0.075v0.158
				C166.937,106.12,166.96,106.092,166.979,106.065z"/>
			<path fill="#FFFFFF" d="M295.564,127.853l2.824-6.666c0-18.33,0-36.169,0-52.211h-3.817c-5.286,0-14.135,10.425-21.941,19.623
				c-7.985,9.413-16.226,19.054-24.557,23.735c0.339,2.295,1.398,9.448,1.398,9.448h-6.811l-2.024-0.006l-0.783-1.862
				c-0.188-0.447-0.447-0.917-0.699-1.318c-2.279,1.046-7.191,3.615-11.313,5.774c-4.94,2.588-9.95,5.199-13.758,7.027
				c0,2.117,0,8.583,0,8.583h-7.52l-3.224-0.008l0.182-3.217c0.011-0.138,0.014-0.283,0.014-0.431c0-0.38-0.024-0.778-0.066-1.117
				c-1.74,0-5.82-0.001-5.82-0.001l-2.801,0.668c-2.702,0.726-6.404,1.719-9.765,1.719h-11.338c-2.51,0-4.813-0.476-6.83-1.321
				v8.956h3.907v9.196h38.733c2.179-0.978,4.412-1.936,6.678-2.9c9.062-3.858,18.435-7.848,26.004-13.971l0.839-0.677h1.077
				c1.157,0,2.213,0.582,2.821,1.559c0.356,0.57,0.553,1.148,0.553,1.891c0,2.048-1.5,5.341-5.314,13.129
				c-0.154,0.31-0.314,0.637-0.476,0.97h1.416c3.018-5.514,6.213-12.281,8.229-16.559c2.741-5.816,4.905-10.41,6.384-12.521
				l0.909-1.298h1.587c6.573,0,8.755,7.916,10.863,15.572c0.828,3.003,2.727,9.839,4.195,10.298
				c0.308-0.234,0.713-0.729,1.118-1.338c-2.556-4.479-7.586-13.814-7.586-17.907c0-1.482,0.782-2.749,2.339-5.273
				c2.237-3.622,5.981-9.684,9.781-19.95l0.738-1.987h2.118c4.157,0,5.73,3.092,5.73,35.861c0,0.482,0.08,0.722,0.06,0.718
				c0.003,0.003,0.052,0.006,0.06,0.01c0.713-0.898,2.506-3.704,5.877-12.199L295.564,127.853z"/>
		</g>
		<g>
			<path fill="#8C2A45" d="M147.588,4.968c-5.417,6.644-10.75,11.759-15.577,15.086c15.694,0.917,24.927,9.672,31.86,20.108V3.044
				c-4.917,0-9.829,0-14.715,0L147.588,4.968z"/>
			<path fill="#8C2A45" d="M157.19,72.135c4.066,0,5.627-2.276,5.719-3.813c-1.038-3.574-13.9-19.263-17.503-19.634
				c-2.121,0-2.792,0.931-3.014,1.237c-0.544,0.752-0.654,1.64-0.654,1.835c0,0,0,0.505,0,0.885c0.741-0.568,1.6-1.097,2.772-1.097
				c3.868,0,6.177,2.309,6.177,6.178v7.906C150.688,68.64,153.527,72.135,157.19,72.135z"/>
			<path fill="#8C2A45" d="M38.239,52.133c1.634-1.426,3.693-2.807,5.873-4.269c2.138-1.434,4.35-2.917,5.982-4.355l8.477-7.721
				c12.776-11.839,24.845-23.021,38.057-23.021c1.496,0,2.337,0.291,3.134,0.615c0.063,0.025,0.133,0.04,0.192,0.062
				c1.419-2.252,4.256-6.282,8.553-10.4c-41.583,0-74.049,0-76.108,0c0,1.654,0,23.73,0,54.756
				C34.298,55.771,36.253,53.869,38.239,52.133z"/>
			<path fill="#8C2A45" d="M161.745,101.292c-4.985-3.635-10.633-6.341-16.098-8.958c-4.295-2.059-8.354-4.002-12.133-6.369
				c-1.869-1.17-3.503-2.535-4.945-3.74l-1.372-1.132c0,0-0.421-0.3-0.602-0.427c2.014,2.494,4.335,5.245,6.531,7.823
				c0.002,0.002,0.003,0.004,0.005,0.006c0.73,0.858,1.447,1.697,2.134,2.5c12.276,14.366,17.659,21.078,17.659,25.056
				c0,7.967-8.063,7.967-11.1,7.967h-8.415v-11.994c0-0.657-0.031-1.091-0.068-1.431c-1.581,0-7.54,0-7.54,0v-3.044
				c0-3.37-0.563-4.318-1.159-5.324c-0.375-0.631-0.788-1.377-1.094-2.372c-2.618,0-9.191-0.002-9.191-0.002l-0.184-2.849
				c-0.31-4.789-2.197-11.469-4.475-11.477c-0.6,0.142-2.311,1.613-3.685,2.797l-4.728,3.892l-0.325,0.25
				c-4.874,3.737-10.399,7.972-14.967,14.732c-0.794,1.175-1.556,2.419-2.302,3.694c-0.213,0.365-0.419,0.739-0.629,1.11
				c-0.566,1.006-1.117,2.035-1.654,3.088c-0.171,0.337-0.346,0.67-0.516,1.012c-0.687,1.395-1.353,2.818-1.987,4.273
				c-0.049,0.113-0.093,0.229-0.142,0.342c-0.594,1.378-1.161,2.78-1.705,4.194c-0.115,0.298-0.229,0.598-0.341,0.896
				c-0.549,1.463-1.077,2.936-1.571,4.418c-0.014,0.042-0.028,0.083-0.042,0.125c-1.664,5.014-3.003,10.083-3.977,14.877h3.933
				c0,0,0,4.052,0,9.196h14.794c0-5.144,0-9.196,0-9.196h33.535c0,0,0,4.052,0,9.196h14.793c0-5.144,0-9.196,0-9.196h25.688v-10.673
				c-3.178-2.361-5.103-5.934-5.103-10.15c0-4.322,1.907-8.904,5.103-13.883v-7.523c-0.293-0.255-0.598-0.509-0.909-0.763
				C162.568,101.919,162.172,101.604,161.745,101.292z"/>
		</g>
		<g>
			<path fill="#8C2A45" d="M198.659,187.592c1.927,1.896,5.496,2.384,6.709,2.384c7.523,0,12.32-8.088,12.32-12.318
				c0-8.068,0.843-11.858,2.119-14.116c-4.801,2.935-8.485,9.009-11.601,14.197C204.868,183.293,202.39,187.27,198.659,187.592z"/>
			<path fill="#8C2A45" d="M264.218,257.804c1.259-3.308,3.172-5.775,6.188-5.775c0.507,0,1.535,0.027,3.314,1.244
				c-2.262-4.056-3.901-8.901-5.241-13.248c-0.64,2.707-1.293,5.389-1.912,7.891C265.708,251.421,264.893,254.775,264.218,257.804z"
				/>
			<path fill="#8C2A45" d="M239.899,158.23c-0.741,1.561-1.423,3.049-1.87,4.146c0.856-0.931,1.859-2.39,2.933-4.146H239.899z"/>
			<path fill="#8C2A45" d="M170.823,158.23v41.741c2.354-0.19,4.856-0.301,7.545-0.301c2.926,0,5.342-0.821,6.996-2.377
				c1.751-1.651,2.639-4.092,2.639-7.256v-12.828c0-8.894,5.821-14.465,13.876-18.979H170.823z"/>
			<path fill="#8C2A45" d="M282.999,263.641c0,0,0,1.514,0,3.282c3.881-1.69,7.523-2.662,10.975-2.662
				c1.545,0,3.017,0.08,4.415,0.23c0-4.162,0-9.066,0-14.591l-1.37-0.69c-4.479-2.259-8.094-6.092-11.219-10.044
				c2.224,5.229,4.059,10.734,4.059,15.311c0,2.995,0,7.521-4.534,7.521c-1.626,0-3.06-0.479-4.408-1.148
				c0.496,0.653,0.968,1.239,1.51,1.996L282.999,263.641z"/>
			<path fill="#8C2A45" d="M247.374,290.552v-2.96c0-9.869,2.524-18.839,4.961-27.513c2.053-7.291,3.989-14.178,3.989-20.519
				c0-11.238-2.912-22.784-7.992-31.68c-3.381-5.926-7.388-10.03-11.471-11.986c0.098,0.42,0.192,0.843,0.192,1.303
				c0,16.868-33.958,42.724-63.308,42.724c-2.342,0-4.636-0.77-6.83-2.049v59.705c1.502,9.995,2.894,19.247,3.911,26.028
				C201.047,321.84,226.317,305.69,247.374,290.552z M199.044,257.163v-3.045h3.045c1.584,0,2.979,0.735,4.328,1.449
				c1.434,0.755,2.912,1.534,4.622,1.534c8.279,0,18.638-18.554,24.203-28.521c4.531-8.11,5.895-10.56,8.611-10.56
				c6.517,0,7.223,13.813,7.223,19.751l0.015,1.862c0.049,4.784,0.115,10.736-2.13,15.569c-0.954,2.058-2.643,3.222-3.999,4.157
				c-0.888,0.613-1.654,1.142-2.049,1.764c-10.101,15.825-28.969,31.901-35.157,31.901c-6.191,0-10.505-5.536-10.505-10.504
				c0-3.49,4.262-8.896,7.807-12.799C202.62,266.987,199.044,262.146,199.044,257.163z"/>
		</g>
		<g>
			<path fill="#FFFFFF" d="M89.855,158.23H75.061c0,6.752,0,14.092,0,16.532c3.685,0,11.109,0,14.794,0
				C89.855,172.322,89.855,164.982,89.855,158.23z"/>
			<path fill="#FFFFFF" d="M123.39,158.23c0,6.752,0,14.092,0,16.532c3.685,0,11.109,0,14.793,0c0-2.44,0-9.78,0-16.532H123.39z"/>
			<path fill="#FFFFFF" d="M163.871,235.728c-2.216-1.825-4.277-4.109-6.118-6.547c-0.117,0-0.247,0-0.353,0
				c0,2.354,0,4.813,0,5.082c0.03,0.201,3.104,20.653,6.471,43.056V235.728z"/>
			<path fill="#FFFFFF" d="M36.812,264.261c4.308,0,8.917,1.514,13.915,4.058c1.367-9.094,2.615-17.398,3.537-23.527
				c-7.742,10.002-16.047,13.925-19.839,13.925h-2.026c0,2.061,0,3.98,0,5.775C33.797,264.341,35.267,264.261,36.812,264.261z"/>
		</g>
	</g>
	<g>
		<path fill="#977C51" d="M286.984,3.044c2.825,2.806,6.395,6.704,6.395,8.889c0,9.844-8.652,17.303-19.99,17.303
			c-7.457,0-10.439-3.58-10.439-3.58s8.083-8.352,9.132-22.612h-4.657v3.22c0,10.143-10.146,18.795-15.516,18.795
			c-13.722,0-11.334-5.37-16.109-5.37c-2.93,0-5.793,3.368-9.083,8.746c6.758,0.753,14.568,5.094,15.477,5.61
			c1.189,0.671,2.042,1.765,2.406,3.079c0.363,1.314,0.191,2.692-0.483,3.879c-1.388,2.444-4.506,3.305-6.95,1.923
			c-2.056-1.157-8.229-4.204-12.082-4.396c-1.245-0.062-2.388-0.584-3.276-1.443c-0.915,1.682-1.873,3.445-2.877,5.27
			c11.32,0.956,17.883,3.665,18.609,3.979c2.57,1.124,3.755,4.131,2.64,6.707c-1.118,2.57-4.121,3.764-6.681,2.665
			c-0.056-0.024-5.828-2.407-15.684-3.205c-1.443-0.118-2.695-0.837-3.541-1.885c-0.661,1.132-1.343,2.276-2.042,3.426
			c10.121,1.026,18.215,5.43,18.564,5.624c1.195,0.656,2.063,1.738,2.443,3.047c0.381,1.309,0.23,2.688-0.427,3.883
			c-1.353,2.459-4.461,3.366-6.922,2.021c-0.073-0.041-7.51-4.019-15.98-4.532c-1.234-0.075-2.356-0.599-3.234-1.451
			c-0.622,0.902-1.251,1.802-1.901,2.701c-0.165,0.227-0.332,0.448-0.497,0.673c13.076,1.101,17.432,4.542,18.471,5.607
			c1.915,1.966,1.919,5.07,0.007,7.068c-1.881,1.966-5.073,2.077-6.989,0.354c-0.031-0.022-3.185-2.269-13.659-2.968
			c-1.618-0.108-2.996-0.977-3.849-2.22c-1.78,2.218-3.577,4.382-5.37,6.497c1.961,1.001,4.076,1.795,6.408,2.297l5.468,1.177
			l-3.954,3.952c-0.374,0.374-2.447,2.234-6.629,2.234c-1.492,0-3.437-0.386-5.254-0.848c0.832,1.739,2.056,3.434,3.569,5.343
			l0.916,1.145l4.629,6.17c6.604,9.932,11.852,20.512,11.914,20.618l2.546,5.28c0,0-22.019-9.795-23.732-10.711
			c-0.066,0.06-0.136,0.122-0.136,0.122c-1.046,0.953-2.395,1.969-5.191,1.969c-6.65,0-9.622-4.053-12.769-8.344
			c-0.538-0.736-1.098-1.496-1.695-2.27c-4.39,5.982-7.164,11.285-7.164,15.923c0,6.563,5.667,10.144,11.933,10.144h11.338
			c4.772,0,10.74-2.387,12.53-2.387h7.16c2.087,0,1.79,4.773,1.79,4.773h4.475v-7.458c8.359-3.819,27.147-14.32,28.64-14.32
			c1.49,0,2.982,3.58,2.982,3.58h3.283l-1.196-8.055c17.604-8.055,36.996-44.75,49.823-44.75h3.817V3.044H286.984z"/>
		<path fill="#FFFFFF" d="M223.282,33.33c-0.056,1.136,0.818,2.102,1.954,2.159c5.402,0.27,13.345,4.741,13.426,4.786
			c0.989,0.56,2.244,0.213,2.807-0.775c0.56-0.989,0.214-2.245-0.775-2.806c-0.357-0.204-8.87-4.999-15.25-5.317
			C224.307,31.321,223.339,32.195,223.282,33.33z"/>
		<path fill="#FFFFFF" d="M216.179,47.25c-0.091,1.133,0.751,2.125,1.884,2.218c10.506,0.851,16.562,3.41,16.621,3.436
			c1.045,0.449,2.255-0.033,2.706-1.074c0.45-1.042-0.028-2.249-1.07-2.704c-0.266-0.115-6.674-2.849-17.925-3.761
			C217.262,45.272,216.27,46.116,216.179,47.25z"/>
		<path fill="#FFFFFF" d="M208.165,58.869c-0.069,1.135,0.794,2.11,1.93,2.179c9.237,0.559,17.177,4.854,17.254,4.898
			c1,0.545,2.248,0.181,2.797-0.815c0.545-0.996,0.182-2.247-0.814-2.793c-0.354-0.195-8.8-4.782-18.987-5.399
			C209.207,56.87,208.231,57.734,208.165,58.869z"/>
		<path fill="#FFFFFF" d="M200.39,70.842c-0.073,1.135,0.783,2.115,1.92,2.191c12.068,0.805,15.33,3.604,15.361,3.632
			c0.825,0.74,2.115,0.715,2.885-0.086c0.766-0.802,0.786-2.043,0.011-2.838c-0.385-0.396-4.171-3.895-17.984-4.816
			C201.446,68.851,200.467,69.709,200.39,70.842z"/>
	</g>
	<g>
		<path fill="#FFFFFF" d="M86.037,292.425c0-13.547,0-25.5,0-27.206c0-6.265,13.724-17.304,20.585-17.304
			c6.861,0,20.585,11.039,20.585,17.304c0,2.7,0,31.103,0,50.837c0.791,0.314,1.587,0.618,2.386,0.917c0-22.216,0-53.635,0-55.932
			c0-3.58-14.32-19.392-22.971-19.392c-8.651,0-22.971,15.812-22.971,19.392c0,1.456,0,14.596,0,29.682
			C84.441,291.29,85.237,291.858,86.037,292.425z"/>
		<path fill="#FFFFFF" d="M141.229,177.806h-20.884v-29.535H92.9v29.535H72.016v-29.535h-1.474c-0.844,4.815-1.3,9.269-1.3,12.978
			c0,3.621,0.297,5.396,0.673,7.643c0.522,3.122,1.117,6.66,1.117,15.627c0,3.919-0.15,7.634-0.409,11.188h97.156v-47.435h-26.551
			V177.806z"/>
		<path fill="#FFFFFF" d="M149.22,211.517c0-5.84,6.779-9.815,18.559-11.248v-1.518H70.373c-1.039,10.916-3.236,20.059-6.085,27.644
			h90.066v-0.259h1.25C151.687,220.135,149.22,213.924,149.22,211.517z"/>
		<path fill="#FFFFFF" d="M60.722,234.49h93.632v-4.137H62.682C62.05,231.798,61.395,233.17,60.722,234.49z"/>
		<path fill="#FFFFFF" d="M75.5,284.8c1.671,1.224,3.375,2.469,5.106,3.724v-27.482c0-6.047,16.127-22.437,26.016-22.437
			s26.016,16.39,26.016,22.437v57.028c10.235,3.527,21.139,5.709,32.755,5.709c0.797,0,1.585-0.022,2.375-0.044l-12.956-86.199
			h-95.73c-0.289,0.501-0.579,0.989-0.873,1.472l-4.636,30.843C60.142,273.575,67.375,278.857,75.5,284.8z"/>
	</g>
	<g>
		<path fill="#FFFFFF" d="M173.746,236.876c28.343,0,60.263-25.359,60.263-39.679c0-2.982-5.069-5.071-5.069-5.071
			s0.895-0.597,2.685-0.597c14.617,0,27.745,23.567,27.745,48.031c0,14.32-8.95,30.131-8.95,48.031c0,0.229,0,0.488,0,0.761
			c1.646-1.197,3.272-2.385,4.867-3.553c9.271-6.782,17.386-12.704,24.668-16.428v-3.751c0,0-6.859-9.548-9.548-9.548
			c-4.772,0-5.37,16.111-5.37,16.111s-5.37-1.193-5.37-4.178c0-6.265,5.038-22.612,8.056-37.59c2.388,0,5.968,29.535,17.603,29.535
			c1.489,0,1.489-1.493,1.489-4.476c0-11.336-13.425-31.025-10.74-31.025c4.759,0,11.198,17.433,22.315,23.041V128.974
			c-3.027,7.625-6.188,14.226-7.995,14.226c-2.087,0-3.877-0.894-3.877-3.878c0-19.094-0.598-32.817-2.686-32.817
			c-5.968,16.11-11.932,22.374-11.932,24.165c0,4.177,8.055,17.9,8.055,17.9s-2.087,4.475-4.475,4.475
			c-7.758,0-6.863-25.955-15.216-25.955c-4.178,5.967-17.005,39.38-23.27,39.38c-2.091,0-2.538-0.447-2.538-2.536
			c0-3.43,12.086-24.015,9.698-24.015c-20.288,16.408-53.105,18.198-53.105,37.291v12.828c0,8.354-5.37,12.679-12.681,12.679
			c-15.363,0-26.103,3.431-26.103,8.801C152.266,215.695,163.304,236.876,173.746,236.876z M198.208,184.667
			c5.969,0,11.937-25.954,27.448-25.954c0,8.055-4.923-0.298-4.923,18.944c0,5.817-6.114,15.363-15.365,15.363
			c-3.877,0-11.037-2.089-11.037-8.354C194.331,184.667,196.719,184.667,198.208,184.667z"/>
		<path fill="#FFFFFF" d="M243.854,221.065c2.985,0,4.178,10.74,4.178,16.706c0,4.653,0.413,11.319-1.832,16.148
			c-1.15,2.476-4.314,3.153-5.853,5.566c-10.478,16.416-28.43,30.494-32.591,30.494c-4.178,0-7.46-3.879-7.46-7.459
			s8.953-12.829,8.953-12.829s-7.16-6.562-7.16-12.529c2.024,0,4.772,2.983,8.95,2.983
			C225.656,260.146,240.871,221.065,243.854,221.065z"/>
	</g>
	<path fill="#FFFFFF" d="M123.655,19.661c1.43-0.915,3.222,0.142,5.307-1.165c4.342-2.718,9.965-7.725,16.266-15.452h-32.187
		c-7.681,6.465-11.492,13.662-11.492,13.662c-3.132,0-2.685-0.895-4.922-0.895c-14.768,0-29.032,16.346-44.521,29.982
		c-3.442,3.031-8.777,5.937-11.864,8.633c-2.98,2.604-5.595,5.318-7.843,7.911v193.334h2.026c5.669,0,33.563-15.215,33.563-71.152
		c0-15.364-1.79-14.32-1.79-23.27c0-15.364,6.847-40.329,17.274-55.758c4.952-7.329,10.953-11.852,15.961-15.693
		c5.391-4.135,7.934-7.31,10.172-7.31c6.712,0,7.607,14.32,7.607,14.32s7.496,0,8.95,0c0,4.587,2.685,3.245,2.685,10.74h5.818
		c1.566,0,1.79,2.461,1.79,4.475s0,8.95,0,8.95s2.797,0,5.37,0c6.825,0,8.055-1.902,8.055-4.922c0-6.265-31.772-37.702-31.772-42.96
		c0-1.902,1.23-2.237,2.237-2.237c4.923,6.376,3.582,3.688,8.765,7.87c1.865,1.505,3.764,3.248,6.021,4.66
		c8.527,5.339,19.326,8.826,28.409,15.449c10.872,7.927,10.953,17.218,19.903,17.218c3.579,0,2.685-2.237,5.817-2.237l17.977,9.027
		c0,0-5.087-9.351-11.729-19.337c-1.797-2.706-3.698-4.975-5.395-7.107c-2.985-3.762-5.328-7.101-5.328-11.67
		c0,0,6.266,2.238,9.397,2.238c3.133,0,4.476-1.343,4.476-1.343c-33.263-7.16-27.745-62.65-69.362-62.65c-2.685,0-7.16,0-7.16,0
		S121.748,20.88,123.655,19.661z M138.694,51.761c0-1.492,1.045-6.116,6.712-6.116c5.667,0,20.585,19.243,20.585,22.524
		c0,3.281-2.984,7.01-8.801,7.01c-5.222,0-9.546-4.773-9.546-9.546v-7.906c0-2.088-0.895-3.134-3.132-3.134
		c-1.021,0-2.32,2.09-3.432,2.09c-1.327,0-2.386-2.09-2.386-2.09S138.694,53.253,138.694,51.761z"/>
	<path fill="#FFFFFF" d="M165.393,356.359c-68.319,0-100.24-48.777-123.211-48.777c-9.249,0-14.32,5.968-14.32,9.845
		s5.667,9.397,13.873,9.397c8.057,0,15.271-4.879,19.461-8.435l3.356,2.106c-4.744,4.206-14.47,11.251-26.397,11.251
		c-16.222,0-21.256-35.912-26.515-38.262c-2.125-1.118-2.125-2.014-2.125-3.356c0-4.027,4.624-22.822,27.297-22.822
		c24.761,0,67.124,59.518,128.581,59.518c61.458,0,103.821-59.518,128.581-59.518c22.676,0,27.297,18.795,27.297,22.822
		c0,1.343,0,2.238-2.125,3.356c-5.258,2.35-10.293,38.262-26.515,38.262c-11.925,0-21.651-7.045-26.396-11.251l3.356-2.106
		c4.188,3.556,11.404,8.435,19.459,8.435c8.205,0,13.873-5.521,13.873-9.397s-5.069-9.845-14.32-9.845
		C265.634,307.582,233.711,356.359,165.393,356.359z"/>
	<path fill="#FFFFFF" d="M315.513,307.854c-4.506,11.931-10.747,26.938-22.882,26.938c-13.407,0-24.116-8.145-28.794-12.378
		c-0.814,0.553-1.657,1.126-2.496,1.695c4.129,5.275,12.988,13.902,26.815,13.902c9.174,0,8.278-2.685,14.991-2.685
		c3.356,0,6.712,0.224,11.188,1.565c1.342-11.858,3.58-18.235,10.74-30.206C321.222,307.283,318.068,307.639,315.513,307.854z"/>
	<path fill="#FFFFFF" d="M15.273,307.854c4.506,11.931,10.747,26.938,22.882,26.938c13.407,0,24.118-8.145,28.795-12.378
		c0.814,0.553,1.657,1.126,2.495,1.695c-4.127,5.275-12.988,13.902-26.815,13.902c-9.174,0-8.279-2.685-14.991-2.685
		c-3.356,0-6.713,0.224-11.188,1.565c-1.343-11.858-3.58-18.235-10.74-30.206C9.563,307.283,12.717,307.639,15.273,307.854z"/>
	<g>
		<path d="M31.801,286.426l14.092-14.187l3.493,3.468l-5.137,15.987l0.038,0.039l10.546-10.616l2.718,2.7l-14.093,14.188
			l-3.474-3.449l5.109-15.996l-0.04-0.04l-10.536,10.607L31.801,286.426z"/>
		<path d="M52.086,292.35c2.002-2.41,4.234-3.78,6.692-4.112c2.543-0.347,5.017,0.479,7.418,2.475
			c2.367,1.969,3.611,4.248,3.737,6.837c0.119,2.512-0.808,4.954-2.781,7.328c-1.985,2.388-4.221,3.765-6.71,4.134
			c-2.606,0.378-5.097-0.42-7.471-2.392c-2.409-2.003-3.664-4.307-3.764-6.913C49.111,297.226,50.071,294.773,52.086,292.35z
			 M55.301,295.023c-1.293,1.556-2.029,3.104-2.204,4.644c-0.207,1.793,0.426,3.3,1.895,4.521c1.463,1.217,3.058,1.56,4.783,1.03
			c1.482-0.455,2.869-1.458,4.162-3.014c1.253-1.507,1.956-3.038,2.11-4.594c0.186-1.799-0.435-3.292-1.861-4.478
			c-1.427-1.187-3.01-1.527-4.751-1.022C57.93,292.546,56.553,293.518,55.301,295.023z"/>
		<path d="M62.959,314.175l11.53-16.336l3.542,2.5c2.505,1.767,4.104,3.153,4.8,4.158c1.253,1.797,1.173,3.697-0.241,5.699
			c-0.687,0.975-1.577,1.598-2.667,1.865c-1.122,0.281-2.246,0.127-3.37-0.462l-0.031,0.045c0.68,0.572,0.86,1.544,0.542,2.916
			l-1.891,8.233l-3.643-2.571l1.631-6.481c0.199-0.818,0.24-1.44,0.119-1.867c-0.136-0.486-0.537-0.962-1.199-1.43l-1.051-0.741
			l-4.79,6.786L62.959,314.175z M75.946,302.736l-3.104,4.398l1.075,0.757c2.308,1.629,3.996,1.685,5.066,0.169
			c0.617-0.876,0.673-1.737,0.166-2.587c-0.36-0.573-1.07-1.232-2.127-1.98L75.946,302.736z"/>
		<path d="M80.213,325.852l8.736-14.397l-4.901-2.975l1.64-2.703l13.224,8.027l-1.64,2.702l-4.891-2.968l-8.737,14.396
			L80.213,325.852z"/>
		<path d="M90.334,331.922l8.912-17.897l3.592,1.788l-3.603,7.235l7.172,3.569l3.603-7.233l3.592,1.788l-8.913,17.898l-3.592-1.788
			l3.909-7.848l-7.172-3.571l-3.909,7.848L90.334,331.922z"/>
		<path d="M106.743,340.113l14.228-16.073l4.253,1.567l0.444,21.48l-4.16-1.533l-0.026-4.899l-7.613-2.806l-3.227,3.7
			L106.743,340.113z M121.519,337.314l0.136-8.744l-0.052-0.019l-5.571,6.742L121.519,337.314z"/>
		<path d="M128.354,347.997l3.985-19.596l6.29,1.277l1.64,15.803l0.054,0.012l7.679-13.909l6.277,1.276l-3.984,19.598l-3.755-0.763
			l3.287-16.173l-0.054-0.011l-8.564,15.1l-3.769-0.767l-1.989-17.243l-0.065,0.044l-3.277,16.115L128.354,347.997z"/>
		<path d="M154.9,352.625l0.737-19.988l5.075,0.187c5.554,0.207,8.255,2.325,8.108,6.359c-0.084,2.199-0.888,3.813-2.418,4.839
			c-1.358,0.902-3.199,1.31-5.519,1.224l-1.69-0.063l-0.281,7.59L154.9,352.625z M159.534,335.943l-0.226,6.094l1.398,0.053
			c2.543,0.093,3.851-0.852,3.925-2.837c0.077-2.077-1.156-3.164-3.701-3.259L159.534,335.943z"/>
		<path d="M174.753,352.586l-1.534-16.762l-5.707,0.522l-0.288-3.146l15.399-1.409l0.286,3.146l-5.694,0.521l1.534,16.762
			L174.753,352.586z"/>
		<path d="M183.798,341.761c-0.714-3.051-0.462-5.655,0.755-7.817c1.259-2.237,3.409-3.711,6.447-4.423
			c2.996-0.701,5.565-0.32,7.705,1.142c2.076,1.419,3.465,3.633,4.167,6.638c0.706,3.021,0.458,5.637-0.751,7.843
			c-1.27,2.308-3.405,3.813-6.412,4.516c-3.049,0.713-5.643,0.323-7.782-1.166C185.892,347.073,184.515,344.829,183.798,341.761z
			 M187.867,340.808c0.461,1.97,1.251,3.489,2.374,4.558c1.304,1.246,2.888,1.651,4.751,1.215c1.85-0.432,3.083-1.497,3.702-3.192
			c0.531-1.454,0.566-3.167,0.105-5.138c-0.444-1.905-1.241-3.39-2.389-4.452c-1.324-1.232-2.888-1.636-4.695-1.215
			c-1.804,0.423-3.03,1.48-3.681,3.173C187.479,337.217,187.423,338.903,187.867,340.808z"/>
		<path d="M208.445,345.935l-7.094-18.698l4.604-1.747l12.432,11.287l0.053-0.019l-5.307-13.992l3.583-1.359l7.094,18.698
			l-4.576,1.738l-12.457-11.267l-0.053,0.02l5.304,13.979L208.445,345.935z"/>
		<path d="M236.956,333.629l-7.95-14.84l-5.056,2.706l-1.493-2.784l13.632-7.304l1.492,2.786l-5.041,2.701l7.95,14.839
			L236.956,333.629z"/>
		<path d="M241.019,320.119c-1.706-2.63-2.354-5.166-1.94-7.613c0.423-2.531,1.947-4.647,4.565-6.349
			c2.58-1.677,5.129-2.188,7.639-1.54c2.434,0.633,4.489,2.242,6.171,4.831c1.692,2.605,2.343,5.15,1.954,7.636
			c-0.408,2.602-1.912,4.742-4.499,6.423c-2.629,1.706-5.202,2.222-7.72,1.543C244.79,324.405,242.734,322.761,241.019,320.119z
			 M244.524,317.84c1.105,1.697,2.363,2.858,3.779,3.484c1.654,0.727,3.279,0.571,4.885-0.469c1.594-1.036,2.395-2.456,2.401-4.262
			c0.007-1.549-0.542-3.173-1.644-4.87c-1.065-1.642-2.321-2.768-3.762-3.377c-1.66-0.712-3.272-0.562-4.828,0.449
			c-1.556,1.01-2.353,2.421-2.388,4.233C242.941,314.594,243.458,316.198,244.524,317.84z"/>
		<path d="M268.246,313.939l-16.694-12.214l3.283-2.655l12.942,10.088l0.042-0.036l-7.397-14.57l4.229-3.421l12.789,10.21
			l0.042-0.036l-7.136-14.781l3.031-2.453l8.521,18.825l-4.011,3.244l-12.854-10.156l-0.046,0.035l7.289,14.659L268.246,313.939z"/>
		<path d="M287.331,298.005l-14.093-14.188l3.489-3.47l15.952,5.246l0.042-0.04l-10.548-10.616l2.721-2.7l14.093,14.188
			l-3.472,3.449l-15.964-5.217l-0.038,0.041l10.534,10.605L287.331,298.005z"/>
	</g>
</g>
</svg>
