<?xml version="1.0" encoding="utf-8"?>
<!-- Generator: Adobe Illustrator 14.0.0, SVG Export Plug-In . SVG Version: 6.00 Build 43363)  -->
<!DOCTYPE svg PUBLIC "-//W3C//DTD SVG 1.1//EN" "http://www.w3.org/Graphics/SVG/1.1/DTD/svg11.dtd">
<svg version="1.1" id="HQFL" xmlns:svg="http://www.w3.org/2000/svg"
	 xmlns="http://www.w3.org/2000/svg" xmlns:xlink="http://www.w3.org/1999/xlink" x="0px" y="0px" width="595.275px"
	 height="620.89px" viewBox="0 0 595.275 620.89" enable-background="new 0 0 595.275 620.89" xml:space="preserve">
<polygon id="polygon25681" fill="#005490" points="298.85,613.794 13.28,328.224 298.85,42.65 584.426,328.224 "/>
<path id="path25683" fill="#6D6E71" d="M572.041,382.154c-0.25,0.121-23.547,11.074-40.297-1.98c4.914,0.57,9.569,1.355,13.491,2.02
	l2.063,0.359c5.727,1.012,12.219,2.156,18.047,0.34c1.336-0.414,2.5-1.074,3.523-1.84l0.086,0.09
	c0.155-0.147,0.266-0.297,0.414-0.444c0.688-0.57,1.289-1.191,1.75-1.88c4.266-5.065,5.391-10.168,4.366-13.633l-8.539-79.237
	l-0.866,0.094l-0.009-0.086c-35.108-1.598-80.336-0.125-119.469,25.254c-9.063,5.879-25.647,17.988-34.891,33.026
	c-4.688,7.621-7.978,15.63-11.133,23.345c0,0-6.563,14.888-6.531,14.824c-9.031,17.878-18.93,29.901-34.164,41.495
	c-17.133,13.051-30.664,21.621-61.029,21.699c-30.369-0.078-43.9-8.648-61.035-21.699c-15.23-11.594-25.129-23.617-34.164-41.495
	c0.029,0.063-6.527-14.824-6.527-14.824c-3.162-7.715-6.447-15.724-11.133-23.345c-9.244-15.038-25.828-27.147-34.893-33.026
	c-39.133-25.379-84.358-26.852-119.473-25.254l-0.007,0.086l-0.868-0.094l-8.533,79.237c-1.025,3.465,0.096,8.566,4.364,13.633
	c0.46,0.688,1.066,1.31,1.75,1.88c0.148,0.147,0.258,0.297,0.412,0.444l0.085-0.09c1.028,0.766,2.19,1.426,3.524,1.84
	c5.834,1.816,12.326,0.672,18.052-0.34l2.061-0.359c3.92-0.664,8.58-1.448,13.494-2.02c-16.75,13.055-40.047,2.102-40.297,1.98
	l-1.789-0.859c-0.002,0-0.075,1.984-0.075,1.984c-0.296,8.031,12.254,15.156,17.172,17.637c-8.602,7.723-8.265,25.609-8.246,26.414
	l0.117,4.684l2.313-4.074c0.086-0.152,9.154-15.52,34.444-20.328c3.531-0.672,7.3-0.707,11.289-0.746
	c8.412-0.082,17.111-0.164,23.611-6.572c2.023-1.992,3.02-3.896,3.439-5.587l4.91-12.547c2.941,5.116,5.172,11.215,7.34,17.237
	c0.012,0.027,3.637,9.637,3.637,9.637c31.813,77.023,89.059,114.514,175.025,114.635c85.959-0.121,143.209-37.609,175.021-114.635
	c0,0,3.625-9.607,3.633-9.637c2.172-6.022,4.397-12.121,7.344-17.237l4.906,12.547c0.422,1.69,1.422,3.595,3.445,5.587
	c6.5,6.408,15.194,6.49,23.608,6.572c3.984,0.039,7.758,0.074,11.289,0.746c25.289,4.811,34.359,20.176,34.445,20.328l2.313,4.074
	l0.117-4.684c0.017-0.805,0.353-18.691-8.25-26.414c4.922-2.48,17.469-9.605,17.172-17.637l-0.069-1.984L572.041,382.154z"/>
<path id="path25685" fill="#FFFFFF" d="M564.61,288.501c-34.53-1.484-78.569,0.227-116.594,24.887
	c-8.883,5.762-25.117,17.605-34.094,32.207c-4.57,7.445-7.82,15.353-10.953,23c-0.016,0.031-6.57,14.918-6.57,14.918
	c-9.258,18.324-19.366,30.605-34.938,42.457c-17.563,13.367-31.431,22.152-62.607,22.23c-31.186-0.078-45.053-8.863-62.609-22.23
	c-15.57-11.852-25.684-24.133-34.939-42.457c0,0-6.557-14.887-6.57-14.918c-3.137-7.647-6.381-15.555-10.955-23
	c-8.977-14.602-25.213-26.445-34.092-32.207c-38.027-24.66-82.066-26.371-116.598-24.887l-0.652,5.934
	c34.107-1.523,77.331,0.098,114.038,23.91c8.461,5.484,23.902,16.723,32.275,30.344c4.322,7.031,7.475,14.716,10.523,22.148
	c2.098,5.117,4.27,10.41,6.791,15.402c9.662,19.121,20.266,31.992,36.602,44.426c17.949,13.664,33.223,23.355,66.188,23.438
	c32.959-0.082,48.232-9.773,66.187-23.438c16.336-12.434,26.938-25.305,36.602-44.426c2.517-4.992,4.688-10.285,6.789-15.402
	c3.047-7.434,6.203-15.117,10.523-22.148c8.375-13.621,23.813-24.858,32.272-30.344c36.711-23.813,79.931-25.434,114.039-23.91
	L564.61,288.501z"/>
<path id="path25687" fill="#FFFFFF" d="M572.399,364.615c-0.328-0.434-0.789-0.789-1.289-1.121c-0.008,0-0.008,0-0.008-0.004
	c-1.266-0.637-2.594-1.234-3.977-1.797c-0.031-0.012-0.063-0.023-0.095-0.035c-1.358-0.551-2.78-1.059-4.25-1.531
	c-0.063-0.02-0.133-0.043-0.194-0.063c-1.438-0.461-2.922-0.879-4.438-1.262c-0.117-0.031-0.233-0.063-0.344-0.091
	c-1.477-0.366-2.992-0.698-4.539-1c-0.18-0.034-0.359-0.069-0.539-0.104c-1.492-0.277-3.008-0.523-4.539-0.742
	c-0.266-0.039-0.531-0.074-0.797-0.109c-1.469-0.195-2.953-0.363-4.453-0.5c-0.358-0.035-0.719-0.063-1.07-0.09
	c-1.43-0.121-2.866-0.215-4.305-0.281c-0.461-0.02-0.922-0.031-1.383-0.047c-1.359-0.047-2.719-0.074-4.086-0.074
	c-0.563,0-1.125,0.012-1.695,0.021c-1.266,0.016-2.539,0.043-3.805,0.103c-0.672,0.03-1.328,0.077-1.992,0.12
	c-1.18,0.07-2.352,0.147-3.522,0.259c-0.759,0.069-1.5,0.16-2.25,0.246c-1.07,0.12-2.142,0.237-3.203,0.387
	c-0.836,0.121-1.656,0.266-2.484,0.401c-0.961,0.16-1.922,0.313-2.867,0.496c-0.897,0.181-1.772,0.388-2.655,0.586
	c-0.853,0.191-1.711,0.371-2.539,0.582c-0.961,0.246-1.875,0.527-2.806,0.802c-0.727,0.211-1.469,0.405-2.18,0.637
	c-1.047,0.344-2.047,0.727-3.055,1.104c-0.547,0.207-1.109,0.392-1.642,0.604c-1.516,0.617-2.983,1.277-4.375,1.984
	c-12.055,6.129-16.867,19.5-21.522,32.434c-1.172,3.258-2.281,6.34-3.5,9.297c-30.335,73.445-85.016,109.215-167.146,109.336
	c-82.137-0.121-136.814-35.891-167.15-109.336c-1.223-2.957-2.33-6.039-3.504-9.297c-4.656-12.934-9.469-26.305-21.521-32.434
	c-1.393-0.707-2.855-1.367-4.371-1.984c-0.531-0.215-1.1-0.398-1.645-0.605c-1.006-0.379-2.006-0.762-3.057-1.105
	c-0.709-0.229-1.451-0.426-2.178-0.637c-0.928-0.272-1.846-0.555-2.801-0.801c-0.832-0.211-1.691-0.391-2.541-0.582
	c-0.883-0.199-1.756-0.406-2.654-0.586c-0.945-0.184-1.912-0.336-2.873-0.496c-0.826-0.137-1.646-0.281-2.482-0.402
	c-1.059-0.147-2.129-0.266-3.199-0.387c-0.752-0.086-1.498-0.176-2.254-0.246c-1.167-0.109-2.343-0.188-3.52-0.258
	c-0.664-0.043-1.326-0.09-1.992-0.121c-1.269-0.059-2.539-0.086-3.81-0.102c-0.566-0.008-1.131-0.02-1.695-0.02
	c-1.366,0-2.727,0.026-4.086,0.073c-0.459,0.017-0.917,0.026-1.376,0.048c-1.444,0.065-2.879,0.159-4.305,0.28
	c-0.357,0.026-0.715,0.056-1.07,0.09c-1.502,0.138-2.991,0.306-4.459,0.5c-0.266,0.035-0.529,0.07-0.795,0.109
	c-1.533,0.219-3.049,0.465-4.536,0.741c-0.184,0.035-0.363,0.07-0.544,0.105c-1.541,0.301-3.057,0.633-4.533,1
	c-0.115,0.027-0.231,0.059-0.348,0.09c-1.517,0.383-3,0.801-4.434,1.262c-0.066,0.021-0.133,0.043-0.199,0.063
	c-1.464,0.474-2.887,0.979-4.248,1.531c-0.032,0.012-0.061,0.022-0.092,0.034c-1.385,0.563-2.715,1.16-3.979,1.798
	c-0.002,0.004-0.004,0.004-0.008,0.004c-0.504,0.332-0.963,0.688-1.293,1.121c-1.158,1.516-1.324,4.651,0.509,8.383
	c0.083-0.224,0.188-0.444,0.301-0.672c0.215-0.453,0.469-0.914,0.842-1.388c5.68-7.184,23.684-8.125,33.357-8.629l2.182-0.117
	c16.311-0.957,30.277,1.453,41.512,7.164c9.961,5.066,14.371,17.313,18.633,29.152c0,0,3.625,9.609,3.609,9.57
	c31.35,75.902,87.811,112.863,172.607,112.984c84.795-0.121,141.256-37.082,172.601-112.984c-0.017,0.039,3.608-9.57,3.608-9.57
	c4.267-11.84,8.672-24.086,18.633-29.152c11.234-5.711,25.203-8.121,41.517-7.164l2.18,0.117c9.672,0.504,27.68,1.445,33.359,8.629
	c0.375,0.474,0.625,0.935,0.844,1.388c0.109,0.228,0.219,0.448,0.297,0.672C573.728,369.267,573.563,366.13,572.399,364.615z"/>
<linearGradient id="path25694_1_" gradientUnits="userSpaceOnUse" x1="-3644.7568" y1="4127.813" x2="-3648.1477" y2="4127.9517" gradientTransform="matrix(4 0 0 -4 14621.2705 16840.541)">
	<stop  offset="0" style="stop-color:#DA2128"/>
	<stop  offset="1" style="stop-color:#962F34"/>
</linearGradient>
<path id="path25694" fill="url(#path25694_1_)" d="M32.152,297.048l-7.082,64.359c4.494-2.387,9.857-4.234,15.684-5.598
	l5.891-59.161C41.671,296.692,36.817,296.837,32.152,297.048z"/>
<linearGradient id="path25701_1_" gradientUnits="userSpaceOnUse" x1="-3648.2188" y1="4128.0737" x2="-3651.6099" y2="4128.2124" gradientTransform="matrix(-4 0 0 -4 -14036.5342 16841.5449)">
	<stop  offset="0" style="stop-color:#DA2128"/>
	<stop  offset="1" style="stop-color:#962F34"/>
</linearGradient>
<path id="path25701" fill="url(#path25701_1_)" d="M565.478,297.048l7.086,64.359c-4.5-2.387-9.858-4.234-15.688-5.598
	l-5.892-59.161C555.962,296.692,560.813,296.837,565.478,297.048z"/>
<path id="path25703" fill="#DA2128" d="M298.854,512.56c80.967-0.121,134.857-35.363,164.748-107.727
	c1.195-2.902,2.297-5.953,3.461-9.188c4.603-12.781,9.813-27.273,22.789-33.871c17.836-9.07,45.773-10.953,67.103-5.965
	l-5.892-59.161c-31.022-0.289-67.188,3.621-98.414,23.875c-6.664,4.32-23.069,15.848-31.477,29.522
	c-4.211,6.854-7.32,14.441-10.336,21.777c-2.117,5.164-4.306,10.504-6.875,15.586c-9.719,19.241-20.892,32.798-37.344,45.323
	c-18.359,13.979-33.984,23.887-67.765,23.969c-33.777-0.082-49.402-9.99-67.762-23.969c-16.455-12.525-27.625-26.082-37.348-45.323
	c-2.568-5.082-4.758-10.422-6.877-15.586c-3.01-7.336-6.119-14.923-10.332-21.777c-8.408-13.676-24.813-25.202-31.475-29.522
	c-31.229-20.254-67.395-24.165-98.418-23.875L40.75,355.81c21.332-4.988,49.266-3.105,67.105,5.965
	c12.971,6.598,18.186,21.09,22.787,33.871c1.164,3.234,2.264,6.285,3.461,9.188C163.998,477.197,217.89,512.439,298.854,512.56z"/>
<linearGradient id="path25710_1_" gradientUnits="userSpaceOnUse" x1="-3647.1475" y1="4116.9878" x2="-3651.7524" y2="4116.9878" gradientTransform="matrix(-4 0 0 -4 -14036.0576 16841.5449)">
	<stop  offset="0" style="stop-color:#FFFFFF"/>
	<stop  offset="1" style="stop-color:#B1B3B6"/>
</linearGradient>
<path id="path25710" fill="url(#path25710_1_)" d="M550.517,365.931c7.641,0.949,15.555,2.777,18.586,6.617
	c0.938,1.184,1.219,2.402,0.844,3.621c-0.563,1.805-2.516,3.469-4.977,4.238c-4.978,1.551-10.547,0.684-15.984-0.27
	C553.36,376.4,551.696,369.373,550.517,365.931z"/>
<linearGradient id="path25717_1_" gradientUnits="userSpaceOnUse" x1="-3643.6753" y1="4116.7358" x2="-3648.2798" y2="4116.7358" gradientTransform="matrix(4 0 0 -4 14621.2705 16840.541)">
	<stop  offset="0" style="stop-color:#FFFFFF"/>
	<stop  offset="1" style="stop-color:#B1B3B6"/>
</linearGradient>
<path id="path25717" fill="url(#path25717_1_)" d="M47.585,365.931c-7.647,0.949-15.555,2.777-18.592,6.617
	c-0.934,1.184-1.217,2.402-0.84,3.621c0.559,1.805,2.512,3.469,4.977,4.238c4.973,1.551,10.547,0.684,15.985-0.27
	C44.74,376.4,46.399,369.373,47.585,365.931z"/>
<linearGradient id="path25724_1_" gradientUnits="userSpaceOnUse" x1="-3635.0342" y1="4116.9702" x2="-3631.2751" y2="4114.6938" gradientTransform="matrix(-4 0 0 -4 -14036.0576 16841.5449)">
	<stop  offset="0" style="stop-color:#FFFFFF"/>
	<stop  offset="1" style="stop-color:#6D6E71"/>
</linearGradient>
<path id="path25724" fill="url(#path25724_1_)" d="M495.274,371.677c2.359-1.199,4.867-2.219,7.484-3.113
	c-0.313,1.642-0.172,4.965,3.125,9.935c-0.57,0.16-1.133,0.353-1.703,0.547c-5.641,1.918-11.344,5.517-13.422,10.065l-3.805-9.729
	C489.22,376.083,491.916,373.384,495.274,371.677z"/>
<linearGradient id="path25731_1_" gradientUnits="userSpaceOnUse" x1="-3631.7402" y1="4116.6743" x2="-3627.9817" y2="4114.3979" gradientTransform="matrix(4 0 0 -4 14621.2705 16840.541)">
	<stop  offset="0" style="stop-color:#FFFFFF"/>
	<stop  offset="1" style="stop-color:#6D6E71"/>
</linearGradient>
<path id="path25731" fill="url(#path25731_1_)" d="M102.826,371.677c-2.359-1.199-4.869-2.219-7.482-3.113
	c0.309,1.642,0.166,4.965-3.127,9.935c0.566,0.16,1.135,0.353,1.705,0.547c5.639,1.918,11.338,5.517,13.42,10.065l3.807-9.729
	C108.875,376.083,106.185,373.384,102.826,371.677z"/>
<path id="path25733" fill="#FFFFFF" d="M502.759,368.564c0.094-0.035,0.195-0.073,0.289-0.108
	c9.305-3.138,20.147-4.388,32.406-3.668l2.194,0.121c3.328,0.172,8.047,0.426,12.867,1.022c1.18,3.441,2.844,10.469-1.531,14.207
	c-0.28-0.047-0.563-0.094-0.844-0.145l-2.078-0.363c-10.953-1.859-27.5-4.668-40.102-1.156c-0.031,0.008-0.056,0.017-0.078,0.023
	C502.587,373.529,502.446,370.205,502.759,368.564L502.759,368.564z"/>
<path id="path25735" fill="#FFFFFF" d="M95.343,368.564c-0.1-0.035-0.195-0.073-0.295-0.108c-9.299-3.138-20.146-4.388-32.403-3.668
	l-2.199,0.121c-3.326,0.172-8.041,0.426-12.861,1.022c-1.186,3.441-2.846,10.469,1.529,14.207c0.281-0.047,0.564-0.094,0.843-0.145
	l2.079-0.363c10.951-1.859,27.5-4.668,40.104-1.156c0.025,0.008,0.051,0.017,0.076,0.023
	C95.509,373.529,95.652,370.205,95.343,368.564z"/>
<path id="path25737" fill="#B8292F" d="M105.425,391.291c-1.174-4.539-7.924-8.621-13.984-10.309
	c-6.359-1.773-13.871-1.828-21.131-1.23c-0.04,0.039-0.082,0.066-0.121,0.105c6.664,2.465,32.738,13.152,17.467,24.203
	c5.672-0.371,10.883-1.539,15.023-5.621C105.109,396.044,106.035,393.638,105.425,391.291z"/>
<path id="path25739" fill="#B8292F" d="M492.392,391.291c1.172-4.539,7.922-8.621,13.984-10.309
	c6.358-1.773,13.875-1.828,21.133-1.23c0.039,0.039,0.078,0.066,0.117,0.105c-6.664,2.465-32.734,13.152-17.461,24.203
	c-5.673-0.371-10.884-1.539-15.023-5.621C492.712,396.044,491.782,393.638,492.392,391.291L492.392,391.291z"/>
<path id="path25741" fill="#DA2128" d="M70.189,379.857c-15.166,14.695-36.647,8.181-43.449,5.556
	c1.972,6.03,12.761,12.065,17.225,14.06l2.191,0.979l-2.016,1.303c-6.557,4.229-8.238,15.309-8.666,21.379
	c4.307-5.135,14.449-14.428,33.645-18.074c3.758-0.715,7.82-0.754,11.748-0.793c2.313-0.023,4.582-0.061,6.789-0.203
	C102.927,393.009,76.853,382.322,70.189,379.857z"/>
<path id="path25743" fill="#DA2128" d="M527.626,379.857c15.172,14.695,36.647,8.181,43.453,5.556
	c-1.978,6.03-12.767,12.065-17.228,14.06l-2.188,0.979l2.016,1.303c6.555,4.229,8.234,15.309,8.664,21.379
	c-4.305-5.135-14.453-14.428-33.648-18.074c-3.758-0.715-7.819-0.754-11.741-0.793c-2.313-0.023-4.587-0.061-6.789-0.203
	C494.892,393.009,520.962,382.322,527.626,379.857L527.626,379.857z"/>
<path id="path25745" fill="#FFFFFF" d="M63.25,339.458c-6.886-0.246-8.519-8.742-8.309-14.68c0.215-5.992,2.449-14.352,9.336-14.105
	c6.84,0.246,8.473,8.742,8.26,14.734C72.325,331.345,70.091,339.705,63.25,339.458z M63.075,344.333
	c4.953,0.176,9.953-0.965,13.725-4.695c3.573-3.479,5.227-8.809,5.407-13.887c0.193-5.383-1.213-10.973-4.809-14.762
	c-3.461-3.629-8.229-5.02-12.945-5.188c-4.954-0.18-10.047,0.961-13.77,4.691c-3.527,3.534-5.226,8.813-5.41,13.938
	c-0.186,5.18,1.176,10.719,4.63,14.5C53.357,342.716,58.218,344.162,63.075,344.333z"/>
<path id="path25747" fill="#FFFFFF" d="M88.513,316.302l0.33-2.129l-1.816-0.852l1.102-4.758l13.633,4l-1.646,4.602l-1.988-0.266
	l-0.871,1.965l-6.226,21.207l-0.328,2.125l8.105,2.379l2.074-0.027l1.059-2.602l4.434,0.984l-2.23,8.608l-26.359-7.733l1.645-4.603
	l1.988,0.267l0.873-1.966L88.513,316.302z"/>
<path id="path25749" fill="#FFFFFF" d="M117.558,354.693l1.33-2.063l15.199-18.479l2.516,2.07c2.66,2.188,4.621,3.668,4.611,7.543
	c0.031,3.379-1.918,6.645-4.049,9.229c-4.711,5.729-10.252,9.789-16.559,4.603L117.558,354.693z M104.849,351.345l14.801,12.172
	c3.754,3.09,8.057,4.918,13.178,3.668c4.607-1.141,8.744-4.315,11.779-8.004c3.193-3.883,5.355-8.815,4.854-13.703
	c-0.447-4.508-3.527-7.897-6.771-10.565l-14.508-11.935l-2.879,3.945l1.338,1.496l-1.137,1.828l-14.039,17.066l-1.574,1.469
	l-1.725-1.027L104.849,351.345z"/>
<path id="path25751" fill="#FFFFFF" d="M143.57,378.072l-1.709,1.309l0.721,1.871l-4.09,2.672l-7.068-12.324l4.371-2.184l1.252,1.57
	l1.992-0.816l19.168-10.992l1.711-1.309l-0.723-1.871l4.09-2.672l7.068,12.324l-4.371,2.18l-1.252-1.566l-1.99,0.813l-6.654,3.815
	l6.082,10.605l6.654-3.816l1.709-1.305l-0.721-1.871l4.088-2.672l7.068,12.324l-4.371,2.18l-1.25-1.57l-1.992,0.816l-19.17,10.996
	l-1.709,1.305l0.723,1.871l-4.09,2.672l-7.068-12.324l4.371-2.18l1.25,1.57l1.992-0.816l8.285-4.754l-6.082-10.602L143.57,378.072z"
	/>
<path id="path25753" fill="#FFFFFF" d="M167.945,406.31l14.049-1.973l-9.404,10.625L167.945,406.31z M162.464,407.056l6.453,12.02
	l-3.582,4.066l-1.342-1.852l-4.43,2.059l6.475,12.059l4.164-2.559l-0.402-1.391l0.828-1.141l21.541-24.531l-3.752-6.988
	l-30.736,4.293l-3.02,0.172l-0.939-1.102l-4.43,2.059l4.465,8.316l4.164-2.559l-0.805-2.141L162.464,407.056z"/>
<path id="path25755" fill="#FFFFFF" d="M192.646,432.201l-0.139-0.008l-12.572,10.859l-1.43,1.607l0.695,1.271l-3.506,3.402
	l-7.064-8.182l3.875-2.973l1.527,1.301l1.799-1.184l16.727-14.441l1.43-1.609l-1.066-1.697l3.506-3.402l7.682,8.895l-10.123,21.156
	l22.432-6.902l6.787,7.859l-3.875,2.973l-1.527-1.301l-1.799,1.18l-16.725,14.445l-1.43,1.609l1.064,1.699l-3.506,3.4l-8.361-9.684
	l3.877-2.973l1.156,0.875l2.299-1.613l12.342-10.66l-0.061-0.07l-19.887,6.199l-3.084-3.574L192.646,432.201z"/>
<path id="path25757" fill="#FFFFFF" d="M234.486,477.228l9.348-10.668l-0.18,14.184L234.486,477.228z M230.826,481.376l12.736,4.879
	l-0.055,5.422l-2.225-0.527l-2.01,4.453l12.781,4.898l1.482-4.656l-1.215-0.789l-0.117-1.406l0.277-32.645l-7.404-2.84
	l-20.465,23.332l-2.172,2.105l-1.432-0.223l-2.01,4.453l8.814,3.379l1.48-4.656l-2.006-1.094L230.826,481.376z"/>
<path id="path25759" fill="#FFFFFF" d="M276.3,496.38l-0.016,2.152l2.484,0.656l-0.398,4.867l-15.191-2.125l0.957-4.793l2.566,0.055
	l0.576-2.074l3.4-24.301l-4.908-0.688l-2.619-0.01l-0.703,2.98l-4.529-0.328l0.908-8.539l34.078,4.771l-1.473,8.461l-4.445-0.932
	l0.145-3.055l-2.523-0.715l-4.906-0.688L276.3,496.38z"/>
<path id="path25761" fill="#FFFFFF" d="M306.53,497.72l0.388,2.117l1.996,0.207l0.522,4.855l-14.191,0.703l0.043-4.887l1.965-0.402
	l0.18-2.145l-1.094-22.07l-0.391-2.117l-1.992-0.207l-0.523-4.855l14.191-0.703l-0.043,4.887l-1.966,0.398l-0.176,2.148l0.375,7.66
	l12.209-0.605l-0.375-7.66l-0.391-2.117l-1.994-0.207l-0.522-4.855l14.188-0.703l-0.039,4.889l-1.969,0.4l-0.18,2.146l1.094,22.07
	l0.391,2.115l1.992,0.207l0.523,4.855l-14.188,0.703l0.039-4.887l1.969-0.402l0.172-2.145l-0.469-9.539l-12.209,0.605L306.53,497.72
	z"/>
<path id="path25763" fill="#FFFFFF" d="M334.524,473.513l-0.797-2l-1.992,0.191l-1.469-4.66l13.773-3.477l0.922,4.797l-1.853,0.781
	l0.25,2.137l5.406,21.43l0.797,1.996l8.195-2.066l1.772-1.074l-0.413-2.781l4.319-1.4l2.453,8.551l-26.641,6.723l-0.914-4.801
	l1.844-0.781l-0.242-2.137L334.524,473.513z"/>
<path id="path25765" fill="#FFFFFF" d="M364.033,459.908l5.008,9.477l10.555-5.574l1.906,4.223l-5.148,2.375l-5.297,2.797
	l4.43,8.402l1.25,1.754l6.806-3.594l2.108-1.457l-0.625-1.793l3.859-2.387l3.836,6.652l-24.125,12.734l-2.031-4.445l1.609-1.195
	l-0.742-2.02l-10.313-19.543l-1.25-1.754l-1.898,0.656l-2.523-4.182l23.125-12.207l3.328,6.914l-4.147,1.85l-1.273-1.803
	l-2.391,0.924L364.033,459.908z"/>
<path id="path25767" fill="#FFFFFF" d="M411.798,453.697l1.711,1.309l2.016-1.586l3.648,3.25l-10.853,10.844l-3.25-3.652
	l1.586-2.016l-1.305-1.711l-17.344-17.359l-3.5,3.504l-1.586,2.086l1.953,2.355l-2.992,3.418l-6.266-5.871l24.344-24.32l5.867,6.273
	l-3.423,2.988l-2.358-1.957l-2.086,1.582l-3.508,3.504L411.798,453.697z"/>
<path id="path25769" fill="#FFFFFF" d="M430.783,428.533l1.93,0.945l1.352-1.48l4.219,2.461l-7.858,11.836l-3.906-2.938l0.844-1.816
	l-1.625-1.418l-18.405-12.23l-1.931-0.941l-1.352,1.48l-4.219-2.461l7.858-11.836l3.906,2.934l-0.844,1.82l1.625,1.418
	L430.783,428.533z"/>
<path id="path25771" fill="#FFFFFF" d="M429.119,387.697l-2.398,3.855l-2.688-1.109c-1.962,1.418-3.539,3.301-4.625,5.344
	c-3.548,6.668,1.797,11.543,7.766,14.719c7.617,4.055,14.063,4.277,18.164-3.434c1.531-2.875,2.586-6.59,2.797-9.902l5.156,2.746
	c-0.789,4.07-2.181,7.984-4.109,11.609c-2.258,4.25-5.57,8.207-10.422,9.852c-5.063,1.742-10.75,0.535-15.555-2.02
	c-4.664-2.48-8.884-6.547-10.406-11.473c-1.594-5.23,0.086-10.225,2.477-14.724c1.82-3.414,4.039-6.728,6.672-9.604L429.119,387.697
	z"/>
<path id="path25773" fill="#FFFFFF" d="M449.392,374.298l-8.25-11.539l13.767,3.414L449.392,374.298z M452.595,378.81l7.664-11.285
	l5.258,1.289l-1.016,2.047l3.875,2.974l7.688-11.323l-4.194-2.505l-1.048,1l-1.391-0.206l-31.719-7.728l-4.453,6.559l18.031,25.255
	l1.555,2.598l-0.539,1.34l3.875,2.977l5.297-7.813l-4.188-2.504l-1.523,1.703L452.595,378.81z"/>
<path id="path25775" fill="#FFFFFF" d="M488.751,332.888l11.03-4.565l1.509,4.379l-5.353,1.883l-5.539,2.293l3.617,8.729
	l0.742,1.066l2.477-0.695l2.125,4.398l-13.647,5.652l-1.609-4.613l1.719-1.043l-0.555-2.078l-8.453-20.418l-1.078-1.863
	l-1.944,0.478l-2.133-4.396l24.163-10.004l2.673,7.195l-4.306,1.453l-1.094-1.91l-2.477,0.691l-6.32,2.617L488.751,332.888z"/>
<path id="path25777" fill="#FFFFFF" d="M544.681,314.806l-4.547-0.008l-0.469-2.871c-2.234-0.922-4.673-1.27-6.978-1.117
	c-7.539,0.496-8.867,7.609-8.422,14.348c0.563,8.62,3.766,14.211,12.484,13.641c3.25-0.215,6.961-1.272,9.883-2.84l0.383,5.828
	c-3.875,1.478-7.93,2.354-12.031,2.625c-4.797,0.315-9.905-0.418-13.858-3.672c-4.148-3.392-6.117-8.863-6.478-14.285
	c-0.344-5.272,0.883-11.004,4.273-14.896c3.608-4.104,8.733-5.309,13.82-5.641c3.858-0.254,7.844-0.109,11.672,0.605
	L544.681,314.806z"/>
<path id="path25779" fill="#FFFFFF" d="M482.626,356.001c0,2.113-1.711,3.824-3.82,3.824c-2.117,0-3.828-1.711-3.828-3.824
	s1.711-3.824,3.828-3.824C480.916,352.177,482.626,353.888,482.626,356.001z"/>
<path id="path25781" fill="#FFFFFF" d="M514.673,343.619c0,2.113-1.711,3.824-3.82,3.824c-2.117,0-3.828-1.711-3.828-3.824
	s1.711-3.824,3.828-3.824C512.962,339.794,514.673,341.505,514.673,343.619z"/>
<path id="path25783" fill="#FFFFFF" d="M558.916,341.619c0,2.113-1.711,3.824-3.82,3.824c-2.117,0-3.828-1.711-3.828-3.824
	s1.711-3.824,3.828-3.824C557.205,337.794,558.916,339.505,558.916,341.619z"/>
<path id="path25785" d="M373.098,274.543c4.841-4.299,11.731-11.934,11.731-24.19c0-1.75-0.142-3.594-0.445-5.539
	c-0.68-3.063-0.953-6.875-0.953-10.734c0-7.215,0.945-14.59,1.914-17.5c0.414-1.246,0.594-2.629,0.594-4.059
	c0-3.328-0.969-6.863-2.155-9.285c0.702,0,3.538,0,3.538,0l-1.069-1.785c-0.336-0.563-0.711-2.199-1.103-3.93
	c-1.145-5.076-2.876-12.722-8.122-16.961c-0.851-1.137,0.459-5.773,1.428-9.168c1.319-4.664,2.469-8.691,1.241-10.836
	c0-0.016-1.194-2.773-1.194-2.773c-1.978-4.672-4.023-9.504-9.642-14.684c-1.672-2.113-2.047-4.934-2.397-7.66
	c-0.367-2.836-0.813-5.734-2.773-8.008c0.008-0.383,0.017-0.957,0.017-0.957c0.016-0.984,0.03-1.965,0.03-2.926
	c0-4.722-0.313-9.025-1.604-11.266c-0.001-0.024-0.004-0.042-0.004-0.07c0-0.34,0.133-1.027,0.25-1.602
	c0.211-1.078,0.483-2.496,0.483-4.109c0-2.816-0.883-6.25-4.383-9.625c-0.828-1.773-1.867-8.41-1.867-12.008
	c0.384-2.965,0.556-5.801,0.556-8.52c0-15.336-5.478-26.758-8.961-34.02c-1.509-3.156-2.703-5.648-2.703-6.969
	c0-5.828,5.258-10.074,9.891-13.82c2.772-2.247,5.173-4.192,6.101-6.257c1.083-1.512,2.522-2.931,3.049-2.993l2.397-0.301
	l-1.578-1.715c-1.741-1.727-11.358-5.023-15.444-3.281c-6.556,2.188-18.563,7.359-25.359,17.082c-0.969,0-7.33,0-7.774,0
	c-2.945-1.988-8.039-3.051-13.59,0c-0.396,0-8.489,0-9.384,0c0-0.004-0.016-0.016-0.016-0.016c-1.945-2.102-7.07-7.582-20.697-2.742
	c-3.645-6-13.295-17.836-32.422-16.434l-2.156,0.164l1.305,1.723c0.234,0.313,0.279,1.391,0.32,2.34
	c0.141,3.117,0.377,8.344,6.521,12.566c1.164,0.875,1.373,1.93,1.635,3.258c0.416,2.125,0.973,4.719,5.729,6.484
	c-0.021,0.031-0.121,0.168-0.121,0.168c-4.398,6.039-14.809,20.32-14.809,35.137c0,3.145,0.469,6.316,1.564,9.441l0.047,0.133
	l1.453,2.234c1.16,1.73,2.479,3.691,2.479,4.813c-0.219,4.492-0.904,9.902-1.576,10.703l0.076-0.059
	c-5.096,4.521-17.059,17.203-21.17,39.465c-0.061,0.105-2.256,4.176-2.256,4.176c-3.428,6.051-8.488,14.988-8.488,20.52
	c0,0.402,0.029,0.789,0.082,1.152l0.174,1.113c0,0,3.066-0.34,4.389-0.488c-0.08,1.371-0.361,3.805-0.625,6.09
	c-0.516,4.395-1.125,9.605-1.125,13.168c0,1.184,0.072,2.191,0.23,2.922l0.205,0.922l0.945,0.004c2.219,0,4.496,0.215,5.727,0.496
	c-2.898,2.855-10.471,10.633-10.932,14.344l-0.162,1.324c0,0,3.955,0,5.508,0c-0.09,0.734-0.186,1.652-0.186,2.613
	c0,1.785,0.309,3.652,1.424,4.445c0.383,0.262,1.184,0.445,2.207,0.027c0.186,0.012,0.363,0.059,0.484,0.109
	c-0.033,0.098-0.066,0.191-0.066,0.191c-1.07,2.137-2.033,9.172-2.135,9.969l-0.309,2.305c0,0,3.428-1.871,4.818-2.629
	c-1.152,3.742-2.398,9.379-2.479,11.367c-0.137,0.668-0.932,1.641-1.773,2.668c-1.637,1.98-3.613,4.461-3.756,7.816
	c-0.055,0.148-3.863,10.043-3.863,10.043s6.385-4.391,8.764-6.023c-0.934,5.098-2.148,14.844-2.148,21.813
	c0,1.695,0.076,3.227,0.242,4.477l0.232,1.754c0,0,5.295-3.094,6.645-3.871c0.506,0.57,1.209,1.105,2.184,1.23
	c1.523,0.191,3.133-0.637,4.887-2.465c0.165,0.766,0.415,1.559,0.798,2.24c-19.122,17.952-31.087,43.444-31.087,71.683
	c0,54.222,44.107,98.341,98.331,98.341c54.225,0,98.333-44.119,98.333-98.341C397.188,314.343,388.098,291.811,373.098,274.543z"/>
<path id="path25787" fill="#FFFFFF" d="M333.063,260.427c0.039-0.207,0.056-0.445,0.056-0.727c0-1.543-0.586-4.004-1.109-6.063
	c-1.039,2.031-2.391,3.852-3.227,4.879c1.544,1.548,2.589,4.108,2.931,5.06l1.836,0.199c-0.341-0.899-0.556-1.796-0.556-2.595
	C332.994,260.919,333.017,260.666,333.063,260.427z"/>
<path id="path25789" fill="#FFFFFF" d="M288.417,280.869c0,7.805-7.539,10.59-7.852,10.699l-2.207,0.789
	c0,0,1.984-6.566,2.117-7.023c-0.129-1.344-4.094-5.051-8.322-8.27c-0.131,2.832-0.426,9.277-0.426,9.277s-2.721,3.496-3.357,4.316
	c0.428,1.016,0.682,2.008,0.682,2.965c0,3.558-2.559,6.547-4.342,7.887l-3.363,2.52l1.566-3.907
	c0.379-0.948-2.211-4.492-3.318-6.007c-1.576-2.16-2.328-3.234-2.328-4.156c0-1.68,1.441-3.707,2.975-5.855
	c0.984-1.379,2.322-3.266,2.322-3.992c0-0.938-1.838-3.625-3.617-3.625c-1.42,0-5.328,4.676-8.086,9.051l-0.65,1.016
	c0,0-1.467-0.977-1.9-1.262c-0.715,0.43-3.244,1.953-3.244,1.953s-1.191-4.742-1.322-5.277c-0.995-0.837-2.136-2.39-3.255-4.171
	c-6.465,5.583-12.596,18.924-15.209,24.406l0.809,1.358c2.967,5.044,10.209,17.517,15.43,23.813
	c5.285,0.11,28.297-2.761,36.408-3.468c4.27-8.379,15.219-28.118,26.375-38.739c-1.235-2.548-4.011-8.288-6.756-13.746
	c-1.239-0.292-2.362-0.489-3.236-0.489C291.273,270.931,288.417,276.521,288.417,280.869z"/>
<path id="path25791" fill="#FFFFFF" d="M369.244,277.797l-0.086,0.043c-4.438,2.59-7.273,0.215-9.353-1.516
	c-1.195-1-2.227-1.859-3.359-1.859c-2.135,0-4.475-0.704-6.816-1.55c-1.09,5.23-2.336,11.878-2.934,15.101l2.181,4.348
	c4.358,8.649,14.897,30.066,17.633,37.059c4.258,1.625,16.742,6.359,21.297,7.746c2.5-4.648,5.578-11.719,5.906-12.734l0.022,0.008
	c-2.792-18.329-10.801-34.96-22.439-48.356c-0.235,0.195-0.464,0.384-0.677,0.56L369.244,277.797z"/>
<path id="path25793" fill="#FFFFFF" d="M357.392,390.004c-2.094-5.96-9.483-20.698-12.164-26
	c-13.397,3.95-38.811,0.099-47.998-1.765c-4.414,4.128-20.684,19.359-25.416,23.988c1.432,7.727,7.326,23.768,14.756,32.359
	c4.883,0.482,32.479,1.314,39.229,1.225C333.142,415.349,352.259,399.583,357.392,390.004z"/>
<path id="path25795" fill="#FFFFFF" d="M344.837,289.563c-8.992-2.203-28.463-3.895-38.269-3.273
	c-11.395,10.48-23.172,31.993-26.895,39.387c3.461,11.73,13.492,27.219,17.895,34.246c9.84,2.09,34.994,5.444,47.189,1.762
	c3.813-4.438,16.43-25.176,19.578-31.332c-2.603-6.715-13.57-28.992-17.57-36.934L344.837,289.563z"/>
<path id="path25797" fill="#FFFFFF" d="M235.269,365.896c-5.609-16.487,0.65-31.164,4.434-37.039
	c-5.377-6.504-12.643-18.996-15.646-24.105l-0.529-0.886c-3.205,0.882-11.99,3.68-15.861,5.219
	c-3.09,9.409-4.785,19.444-4.785,29.875c0,13.699,2.904,26.722,8.096,38.522c1.604-0.637,5.563-2.59,9.131-4.359
	C224.628,370.892,231.207,367.65,235.269,365.896z"/>
<path id="path25799" fill="#FFFFFF" d="M236.767,367.818c-3.822,1.598-10.875,5.07-15.611,7.423
	c-5.139,2.538-7.758,3.805-9.209,4.382c9.684,20.617,26.488,37.23,47.229,46.691c6.291-1.07,19.836-5.215,24.91-7.039
	c-7.656-9.461-13.521-25.922-14.713-33.398C262.775,381.904,241.609,370.435,236.767,367.818z"/>
<path id="path25801" fill="#FFFFFF" d="M394.33,329.06c-1.47,3.313-3.642,7.931-5.367,10.879
	c2.953,34.102-20.133,48.422-29.836,51.68c-6.219,10.932-22.836,24.354-30.945,29.496c1.938,1.898,5.156,4.734,7.383,6.512
	c34.758-14.445,59.273-48.736,59.273-88.667C394.837,335.615,394.658,332.314,394.33,329.06z"/>
<path id="path25803" fill="#FFFFFF" d="M283.957,282.129c0.504-2.777-3.285-7.078-5.563-9.855c-1.508-2.27,1.773-8.582,1.02-12.117
	c-1.334,5.318-4.614,10.052-8.126,13.349l0.476,0.339c2.604,1.859,11.1,8.188,11.1,11.566v0.172c0,0-0.398,1.328-0.738,2.469
	c1.785-1.266,3.938-3.523,3.938-7.184c0-0.053,0.006-0.109,0.006-0.162C284.874,283.271,283.776,283.027,283.957,282.129z"/>
<path id="path25805" fill="#FFFFFF" d="M275.621,61.879c0-1.52-2.777-2.785-4.543-4.047c-1.523-1.262-2.783-7.07-3.795-3.785
	c-0.758,2.02-1.006,11.117,5.057,11.117C273.345,65.166,275.621,63.903,275.621,61.879z"/>
<path id="path25807" fill="#FFFFFF" d="M332.909,55.975c0.015,0.031,0.031,0.065,0.046,0.093
	C333.158,56.471,333.077,56.267,332.909,55.975z"/>
<path id="path25809" fill="#FFFFFF" d="M328.149,56.317c-0.758,2.031,1.267,2.777,1.523,5.313c0.25,4.039-3.539,4.543-4.039,3.281
	c-0.508-1.27-3.039-1.27-3.039,1.012c0,2.02,3.281,2.522,4.297,2.522c5.813,0,7.328-5.809,7.578-8.086
	c0.372-2.066-1.485-2.734-2.256-4.71c-0.005,0.05-0.01,0.098-0.01,0.163C332.205,57.337,328.408,55.31,328.149,56.317z"/>
<path id="path25811" fill="#FFFFFF" d="M380.181,246.004c-1.508,0-2.773,3.789-3.531,3.789c-4.297,0-6.313-8.84-6.313-11.867
	c0-6.563,5.805-10.109,7.578-10.109c2.772,0.262,1.008,5.313,2.772,6.066c0.13,0.065,0.255,0.165,0.376,0.289
	c0-0.031-0.001-0.062-0.001-0.093c0-7.492,1.008-15.117,2.039-18.254c0.336-0.977,0.478-2.117,0.478-3.313
	c0-3.715-1.398-7.961-2.798-9.723l-1.522-1.91c0,0,3.367,0,4.281,0c-0.228-0.785-0.438-1.727-0.688-2.844
	c-1.094-4.805-2.727-12.063-7.438-15.762l-0.095-0.078l-0.077-0.098c-0.595-0.703-0.828-1.68-0.828-2.867
	c0-2.238,0.852-5.219,1.772-8.488c0.758-2.672,1.664-5.859,1.664-7.793c0-0.563-0.078-1.012-0.25-1.32l-1.272-2.93
	c-1.97-4.645-3.828-9.031-9.188-14.004c-2.211-2.75-2.641-6.051-3.022-8.953c-0.375-2.875-0.688-5.355-2.445-7.109l-0.353-0.328
	l0.023-1.879c0.016-0.785,0.039-1.816,0.039-2.965c0-3.621-0.203-8.402-1.367-10.16l-0.117-0.172l-0.047-0.195
	c-0.063-0.227-0.086-0.461-0.086-0.719c0-0.59,0.141-1.271,0.289-2.063c0.211-1.051,0.453-2.297,0.453-3.672
	c0-0.104-0.011-0.213-0.013-0.318c-1.048-2.457-2.955-4.883-4.309-5.389c-2.522-1.516-1.516-5.051-2.522-7.828
	c-1.009-2.523-6.813-6.824-11.617-7.07c-5.306,0-11.617,8.082-17.181,7.574c-4.797-0.504-4.797,3.789-7.327,6.063
	c-3.783,3.281-3.529-0.758-2.019-2.02c0.767-0.754,0.767-1.266,0.508-2.777c-0.754-5.051,4.291-5.305,7.33-5.305
	c5.047,0,5.806-4.293,8.578-6.32c4.805-3.785,13.898-1.516,16.172-1.516c1.049-0.208,4.296-0.065,6.374,1.162
	c0.218-2.163,0.321-4.257,0.321-6.279c0-14.93-5.336-26.043-8.719-33.113c-1.711-3.559-2.945-6.129-2.945-7.984
	c0-6.953,5.969-11.777,10.766-15.652c2.492-2.02,4.859-3.93,5.484-5.5l0.063-0.129l0.077-0.113c0.509-0.73,1.523-1.969,2.648-2.898
	c-2.922-1.305-8.938-2.934-11.422-1.871c-6.492,2.168-18.32,7.219-24.656,16.711l-0.344,0.527h-9.611l-0.315-0.238
	c-0.523-0.391-5.313-3.73-11.836,0.074l-0.273,0.164H293.3l-0.48,0.023l-0.754-0.793c-1.695-1.84-6.195-6.711-19.053-1.836
	l-0.945,0.363l-0.498-0.879c-2.941-5.145-11.604-16.754-29.219-16.133c0.078,0.551,0.117,1.141,0.152,1.82
	c0.135,3.027,0.32,7.176,5.539,10.762c1.922,1.453,2.268,3.188,2.564,4.719c0.428,2.145,0.758,3.84,5.629,5.191l1.643,0.445
	l-2.068,2.859c-4.256,5.84-14.352,19.695-14.352,33.746c0,2.867,0.426,5.742,1.404,8.559c0.139,0.211,1.256,1.938,1.256,1.938
	c1.48,2.207,2.877,4.285,2.877,6.184c-0.244,5.113-0.883,11.434-2.418,12.441c-4.803,4.277-16.393,16.555-20.332,38.23l0.012,0.086
	l-2.494,4.625c-2.85,5.043-7.953,14.078-8.146,19.023c1.318-0.148,4.219-0.469,4.219-0.469l0.305,0.898
	c0.074,0.238,0.117,0.559,0.117,1.039c0,1.145-0.225,3.18-0.67,7.012c-0.488,4.168-1.115,9.527-1.115,12.914
	c0,0.625,0.066,1.031,0.115,1.5c7.58,0.172,7.676,1.961,7.676,2.664v0.5l-0.367,0.352c-3.611,3.453-9.127,9.371-10.777,12.621
	c1.635,0,5.416,0,5.416,0l-0.367,1.469c-0.225,0.887-0.35,2.207-0.35,3.391c0,1.156,0.133,2.125,0.389,2.5
	c0.092-0.043,0.557-0.285,0.557-0.285h0.279c0.311,0,1.902,0.055,2.623,1.223c0.166,0.266,0.313,0.641,0.313,1.121
	c0,0.387-0.098,0.848-0.365,1.379c-0.514,1.023-1.131,4.191-1.564,6.902c1.631-0.891,3.482-1.898,3.482-1.898l1.543,1.691
	c-0.813,1.219-3.334,10.969-3.334,13.484v0.121l-0.023,0.113c-0.248,1.258-1.186,2.395-2.27,3.707
	c-1.531,1.859-3.266,3.965-3.266,6.672v0.211c0,0-0.662,1.727-1.242,3.234c2.354-1.613,7.857-5.402,7.857-5.402l-1.117,3.336
	c-0.795,2.379-2.703,15.598-2.703,24.086c0,0.895,0.08,1.574,0.131,2.348c1.75-1.023,4.396-2.563,4.396-2.563l1.162-0.66
	l0.523,1.227c0.004,0.008,0.361,0.84,1.045,0.914c0.494,0.059,1.924-0.188,4.49-3.688l2.125-2.887l0.008,3.586
	c0,1.598,0.443,4.051,1.273,4.492c0.391,0.203,1.068-0.18,1.436-0.422l1.152-0.773l0.576,1.262c2.092,4.57,6.16,12.32,8.164,13.652
	l0.381,0.254c0,0,0.438,1.762,0.738,2.938c0.576-0.336,1.795-1.074,1.795-1.074s0.906,0.602,1.145,0.762
	c2.01-3.039,6.402-9.137,9.43-9.137c3.27,0,5.98,3.957,5.98,5.984c0,1.477-1.279,3.273-2.764,5.359
	c-1.074,1.5-2.541,3.566-2.553,4.391c0.109,0.422,1.137,1.836,1.889,2.859c1.518,2.09,2.719,3.848,3.332,5.372
	c0.908-1.079,1.867-2.602,1.867-4.434c0-0.832-0.201-1.715-0.701-2.633l-0.369-0.68c0,0,3.379-4.34,3.781-4.859
	c0.021-0.511,0.329-7.231,0.49-10.762c-0.029,0.024-0.059,0.05-0.088,0.074c-5.307,4.297-3.789,0.758-3.789-1.766
	c-0.508-9.34,6.564-16.16,6.564-18.18c0-2.031-2.775-3.543-2.775-4.809c0-4.539,5.809-17.422,7.074-21.711
	c1.773-3.547,2.27-9.098,2.527-14.652c0-9.848,2.273-8.836,3.781-8.836c2.531,0,3.031,3.277,3.031,4.289
	c0,2.023-3.535,6.563-3.535,14.895c-0.254,12.633,9.094,19.453,12.375,21.977c4.051,2.273,2.773,2.273,1.27,4.547
	c-2.027,2.027-3.535,4.805-2.781,7.078c1.262,3.027,0.504,6.313-2.277,8.586c-2.004,2.001-3.041,4.954-3.515,7.728
	c1.441-2.973,3.72-5.376,6.546-5.376c2.258,0,5.512,0.973,8.656,1.91c2.496,0.742,5.035,1.484,6.617,1.586
	c3.891-3.297,9.342-8.203,9.942-9.41l0.445-0.887l0.953,0.289c3.43,1.027,6.867,1.695,8.305,1.656
	c-0.647-1.617-1.68-3.555-2.617-4.02l-0.992-0.499c-0.636,0.144-1.277,0.151-1.508-0.306c0,0,5.056-8.086,6.063-9.602
	c1.016-1.512,4.547-17.922,4.547-19.438c1.523-4.555,1.008,4.035,1.266,5.551c0.5,2.781-1.516,6.063-1.266,7.828
	c0.185,1.121-0.999,4.434-1.633,6.097l0.272-0.011l0.642,2.613c0.797,3.051,1.797,6.854,1.367,8.965
	c-0.188,0.953,0.616,3.215,2.116,5.047c1.109,1.352,2.313,2.129,3.134,2.141c2.047-0.297,4.702,0.703,7.772,1.863
	c2.813,1.07,5.719,2.164,8.055,2.164c1.984,0,3.453,1.23,4.875,2.41c2.017,1.695,3.625,3.02,6.595,1.316
	c0.211-0.172,1.211-1.012,1.211-1.012c4.508-3.711,13.358-11.008,13.358-24.398c0-1.143-0.092-2.352-0.229-3.592
	C381.564,246.289,380.767,246.004,380.181,246.004z M348.36,54.806c0.759,1.766,4.039,8.836,3.789,20.711
	c0,0-1.008,3.031-1.266,1.012c0.258-2.527-2.016-15.152-4.031-19.191C345.337,55.056,346.595,50.763,348.36,54.806z M347.853,15.153
	c4.039,0,4.547,1.012,4.547,1.012c-1.516,5.051-6.063,4.543-9.594,7.574c-4.039,3.031-8.586,3.535-11.617,4.543
	C334.72,22.728,341.798,16.166,347.853,15.153z M324.369,36.119c2.78-1.773,5.555-0.758,6.819,0c0,0,1.767-2.531,3.281-3.289
	c3.289-3.281,2.773,0.758,3.531,1.516c0.766,0.504,3.039,1.773,3.039,4.551c0.5,3.031-3.281,4.547-3.281,7.324
	c-0.758,3.785-4.055,0.758-6.57,1.262c-2.78,0.504-3.797-2.777-6.569-2.02c-2.781,1.008-3.023-2.02-3.023-3.281
	C321.595,39.908,321.337,37.129,324.369,36.119z M323.36,53.291c0.75-1.262,1.009-1.77,3.789-3.535
	c2.017-0.758,1.517,2.02,3.023,2.273c0.438,0,1.128,1.012,1.731,2.06c-0.015-0.324-0.012-0.667,0.033-1.052
	c0.508-4.039,4.547-2.273,5.82-2.02c1.508,0.504,3.022,2.273,3.022,5.555c0,14.906-11.875,16.422-14.647,16.422
	c-9.592,0-13.135-7.324-13.135-9.09c0-1.266,2.276-5.051,8.088-6.07C320.58,56.317,323.36,53.291,323.36,53.291z M310.983,104.813
	c-2.02,3.035-1.52-1.008-3.293-2.02c-1.508-1.641,1.898-1.895,2.277-2.398c0.758-1.137,2.527-0.633,3.16-0.504
	c1.133,0.125-1.142,1.391-1.142,1.391C310.983,101.533,312.246,102.794,310.983,104.813z M309.722,133.61
	c0,2.02-2.785,3.031-3.539,3.281c-3.035,0-1.77-5.805-1.77-5.805C304.413,127.297,309.722,130.33,309.722,133.61z M318.556,31.06
	c6.313,0-2.525,5.566-4.037,8.344C314.261,35.36,316.542,31.567,318.556,31.06z M311.229,28.791c3.031-2.02,2.781,2.523,2.021,5.555
	c-0.754,3.543-3.527,5.059-5.301,6.824C307.453,33.091,309.21,30.556,311.229,28.791z M305.171,29.797
	c2.52-1.008,1.262,6.32,0.758,8.34l-2.016,2.02C301.636,32.83,303.651,31.06,305.171,29.797z M297.601,34.091
	c5.047,2.281,1.516,6.824,0.754,7.332C296.335,37.626,296.835,34.345,297.601,34.091z M292.289,48.744
	c1.012,0.254,3.031,1.516,4.547,3.031c-1.262-3.789,0-4.547,3.534-4.797c2.023-0.508,3.789-5.555,5.813-5.555
	c1.008,0,5.805,2.523,5.56,4.293c0.504,11.867-10.609,18.691-10.105,20.711c1.77,4.547,1.77,11.367,1.262,13.887
	c2.016,3.285,3.031,5.563,3.031,7.328c0.254,0.762,1.762,1.52,3.535,2.527c-3.281,0.254-10.609,3.535-11.863,5.051
	c-1.527-5.305-9.352-8.09-11.629-8.09c2.777-3.785,8.844-1.766,9.602-0.496l5.051-6.066c-3.789-2.02-2.271-11.863-2.271-13.383
	c0-2.777-2.281-4.547-4.297-5.305c-2.02-1.008-1.77-2.02-1.77-3.027c0.25-1.516-1.012-5.313-2.266-7.582
	C287.492,46.47,290.777,48.24,292.289,48.744z M285.218,29.797c2.02,5.563,1.008,8.594,1.008,8.594
	c-2.523-2.531-5.055-7.582-5.055-7.582C279.656,25.254,285.218,28.283,285.218,29.797z M254.906,21.216
	c-2.523,0.504-4.037-2.023-5.551-4.043l0.504-2.02c4.039,1.516,0.504-5.051,0.504-5.051c8.08,2.02,6.572,5.051,10.605,7.578
	C259.966,19.192,258.443,20.708,254.906,21.216z M261.978,48.744c-0.76-0.25-2.266-3.027-2.266-3.027
	c0-2.527,3.781-4.547,3.781-5.809c0-1.012-1.262-5.059-1.262-6.816c0-3.039,5.809-5.313,9.35-5.313c5.047,0,0.758,4.293,5.555,7.582
	c2.52,1.516,4.035,4.043,4.035,5.051c0.258,1.77-3.277,4.797-5.047,5.051c0,4.543,4.043,10.102,6.566,11.109
	c3.281,1.523,4.043,3.535,4.043,5.059c0,5.555-11.367,9.344-14.904,9.344c-12.117,0-15.404-11.113-15.404-13.391
	C256.425,53.291,259.966,49.754,261.978,48.744z M259.712,99.513c5.295,0-1.27,5.809-4.807,9.094
	c-1.508,1.262-2.775,1.008-2.523-1.012C253.398,97.744,257.179,99.763,259.712,99.513z M252.636,96.228
	c0.5-1.512,3.537-3.027,5.049-3.281c3.789-0.504-0.75,3.535-2.523,4.039C253.136,97.494,252.636,97.494,252.636,96.228z
	 M255.916,204.845c1.264-6.578,4.295,1.25,2.527,3.785C255.111,213.388,255.916,206.61,255.916,204.845z M258.443,149.017
	c0.254-7.07,4.801-0.508,4.801,1.512c0,2.281,2.521,8.844,2.271,12.133c0,3.023-2.525,2.02-2.779,1.004c0,0-1.768-3.027-3.283-4.793
	C258.197,157.353,257.937,151.041,258.443,149.017z M249.859,49.501c4.039-5.051,3.031,1.516,1.01,6.063
	c-4.047,12.125,5.557,31.828,6.066,33.848C240.759,73.751,246.822,54.047,249.859,49.501z M244.554,180.08
	c-2.527,4.551-3.795,0.758-3.531-1.254c0.752-2.281,1.256-3.293,1.256-8.34c0.248-3.531,2.779-4.547,5.057-4.547
	c3.785-0.254-0.256,2.273-0.256,4.547C247.335,172.754,246.574,176.044,244.554,180.08z M246.574,130.33
	c-0.51-2.777,0.506-6.063,1.01-7.328c2.779-4.547,2.018,4.047,1.771,6.066C249.354,132.603,246.822,132.603,246.574,130.33z
	 M239.253,105.83c1.008-8.59,5.045-7.578,6.313-7.832c5.303,2.777-1.77,3.789-2.777,7.324
	C241.269,108.606,238.992,107.091,239.253,105.83z M225.613,259.142c0-3.027,1.51-4.547,1.262-7.832
	c0.506-7.07,5.051,0.512,5.051,4.289C231.673,261.669,225.613,261.416,225.613,259.142z M231.414,200.033
	c-0.246,1.012,1.014,2.281,1.268,3.535c0,4.305-1.008,6.324-1.008,6.324c-4.293,2.527-5.307-5.047-5.057-7.328
	c0-3.789,3.539-6.566,4.297-8.086c0-0.758,2.023-2.777,2.023-1.262C232.937,194.73,231.673,198.521,231.414,200.033z
	 M233.949,182.365c-4.551,0.246-3.035-5.566-2.781-6.832c1.514-5.551,3.785-0.246,3.785,1.527
	C235.457,179.583,233.949,182.365,233.949,182.365z M225.357,165.685c-2.023,1.27-2.523,1.52-3.539,0.512
	c-2.018-2.022,5.814-10.609,7.834-12.133c2.021-2.012-0.758-3.781-2.02-3.023c-7.328,5.809-6.566,0.254-5.555-0.512
	c0,0,4.289-4.293,4.539-6.055c0.258-6.57,5.563-15.406,7.83-16.672c0,0,0.762-3.535,0.762-4.551c2.02-3.281,3.279,0,2.52,2.277
	c-0.754,2.273,0.76,8.082,0.76,10.355c0,2.523,1.52,10.102,0.504,14.398C237.988,154.83,228.386,163.919,225.357,165.685z
	 M243.542,217.212c-2.783,2.527-4.039,0.758-4.289-1.004c0-1.77,1.77-6.82,2.773-9.348c2.023-4.547,3.793-3.293,3.031-1.516
	c-0.76,2.777,1.268,4.801,2.525,6.316C250.109,215.196,245.82,215.196,243.542,217.212z M249.354,191.701
	c-1.016,0-2.533,1.516-3.535,3.289c-2.023,3.277-1.77-2.273-0.762-3.793C246.822,186.399,251.121,191.955,249.354,191.701z
	 M252.382,217.72c1.516-4.039,2.273-2.523,2.523-0.508c0,1.516,0.508,4.797,1.01,6.57c0.756,3.539-1.26,4.551-2.268,3.539
	C251.121,224.028,251.874,218.981,252.382,217.72z M256.935,260.158c-4.045,0-4.805-7.84-4.805-11.125
	c0-5.043,3.031-10.348,3.031-13.633c2.775-9.598,3.281,1.262,3.281,4.297c0,4.293,2.025,12.371,2.025,15.156
	C260.468,256.873,257.937,260.158,256.935,260.158z M264.003,180.337c-1.014,3.031-1.52,9.348-0.76,11.875
	c0.76,2.777-2.025,3.023-2.275,0.246c-1.256-4.793-1.768-10.094-1.516-13.387C260.718,173.513,264.505,178.313,264.003,180.337z
	 M268.041,227.321c0,0.758-1.262,1.254-2.775-2.027c-1.262-1.512-1.518-3.785-0.258-6.313c2.023-2.527,3.033,0,3.033,2.016
	C268.041,222.009,268.041,227.321,268.041,227.321z M268.546,139.169c-0.252,4.793-4.799-2.023-4.543-3.539
	c0-2.777,1.512-6.059,2.273-7.574c2.018-3.285,2.775,1.516,2.521,2.777C269.052,131.845,269.052,135.884,268.546,139.169z
	 M277.894,156.595c0-1.262-1.516-6.824-1.516-6.824c-0.254-6.816,3.789,1.27,3.789,3.289
	C280.417,155.083,277.894,157.353,277.894,156.595z M279.656,123.759c1.773-3.031,2.031,2.277,2.031,3.035
	c0,0.758,1.004,2.777,1.004,5.809c0,3.535-2.523,1.766-3.277,0.25C277.64,129.067,277.894,125.528,279.656,123.759z
	 M282.437,195.235c0,4.039-4.289-1.516-4.289-4.039c0-1.762,1.508-4.547,2.02-6.566c0.762-2.02,2.523,0,2.27,2.02
	C282.691,187.916,282.437,193.216,282.437,195.235z M303.651,232.623c0,4.801,3.035,4.801,3.035,7.832
	c0,4.793-1.773,6.563-5.809,7.066c-6.313,1.012-6.063-4.293-6.57-7.578c-3.031-7.07-7.07-8.844-7.07-11.113
	c0-5.805,5.809-9.848,5.809-21.207c0-5.309,2.02-8.848,3.289-9.859c2.02-1.766,2.52-3.785,1.504-6.063
	c-1.258-3.027,0-11.863,0-16.168c0-8.578,6.319-9.09,6.319-5.551c0,3.027-0.754,5.305-0.754,8.844c0,5.047,2.017,8.082,2.017,12.875
	c0,5.305-2.272,13.395-2.272,18.699c0,5.047,3.538,7.824,3.538,9.594c0,3.789-5.555,4.289-5.555,6.309
	C301.132,229.333,303.651,230.606,303.651,232.623z M314.261,146.994c-1.766,1.516-6.809,10.613-6.313,14.402
	c0.259,2.523-3.034,0-4.034-4.293c-0.508-1.516-2.535,0-2.535,0c-1.262,2.02-2.777,2.27-2.523-1.012
	c0-3.793,0.504-6.566-1.516-7.074c-2.273,0-3.031,0.508-4.801,2.531c-1.762,1.512-3.035,4.039-2.773-3.289
	c0-3.285-5.305-4.801-6.82-5.555c-1.516-0.508-0.254-3.535,2.523-3.031c2.523,0.504,6.57,0,6.57-1.012
	c0.25-1.516-3.035-4.797-2.535-6.816c-3.023,0.25-4.035,0.25,0.762-6.316c2.023-2.773,1.773-14.648,0.258-15.66
	c-1.02-0.758-5.813,3.535-3.789-1.262c1.258-2.777,0.504-5.813-1.008-7.324c-1.266-1.012-2.273-0.254-2.273,2.523
	c0,2.273,0.25,8.336-2.281,8.84c-1.258,0.504-3.023-0.254-1.004-3.535c1.762-2.02-0.512-6.063-2.527-8.082c0,0-2.02,0-2.02,2.777
	c0,2.527-1.771,6.063-4.797,5.809c-2.529-0.504-2.277-2.27,0.502-4.043c2.02-1.516,2.275-3.785,0.504-4.797
	c0,0-3.031-1.262-5.051,3.789c-0.756,1.516-1.771,1.266-1.771-1.012c-0.502-1.766,2.023-4.293,2.275-5.555
	c0.504-2.02-5.553-4.797-0.758-3.789c6.063,0,17.936,2.273,21.982,5.305c2.77,2.02,9.848,9.094,12.371,9.094
	c0,0,4.035-4.801,5.809-4.551c1.521,0.254,1.004,1.773,0,3.289c0,0-2.02,5.555-2.02,6.563c0.246,1.262,2.522,13.141-0.754,13.895
	c-2.535,0.758-6.074,4.293-5.06,11.367c0.759,2.27-2.273,10.355,5.56,10.602c1.516-0.504,8.336-5.809,9.848-5.051
	C314.261,144.72,315.022,146.494,314.261,146.994z M365.541,154.33c1.516-7.078,4.03,6.055,4.297,9.59
	c0.25,2.277-0.767,8.59-1.267,13.141c-0.766,8.328-4.297-4.305-4.297-6.32C364.274,165.685,365.283,161.142,365.541,154.33z
	 M361.744,226.806c0-2.777-1.509-3.781-1.509-5.555c0-1.512,1.259-2.523,2.523-2.523c1.516,0,1.516,2.27,1.516,3.789
	c0,2.27,1.009,7.07-0.25,10.355c-1.766,3.789-4.797,1.27-4.797,0.258C359.228,230.606,361.744,227.817,361.744,226.806z
	 M355.946,146.494c0.75,0.758,3.017,3.789,2.773,6.566c0,1.77-0.758,3.285-1.523,2.273c-1.008-2.273-5.305-4.551-6.563-5.563
	c-1.766-1.762-0.508-4.293,0.25-4.293C351.649,144.474,354.673,144.974,355.946,146.494z M346.595,96.74
	c1.258,0.246,3.281,2.52,3.281,4.543c0,1.766,1.516,8.332,2.522,13.383c1.267,6.063-1.766,5.305-2.016,3.535
	c-1.516-11.363-6.313-13.387-6.313-16.414C344.071,99.009,344.58,96.74,346.595,96.74z M345.08,214.177
	c-2.023-1,0.758-6.305,0.758-6.305c2.781-3.547,2.272,2.777,2.272,4.289C348.36,213.681,347.095,215.696,345.08,214.177z
	 M336.244,97.744c2.522,0,5.297,3.031,6.313,6.063c1.008,2.785,1.516,9.344,0.25,9.344c-1.008,0-4.039-7.07-6.32-9.344
	C334.47,102.291,334.72,97.998,336.244,97.744z M332.446,113.403c-0.241-6.313,3.798-2.27,3.539,0.504
	c-0.258,3.285-0.758,5.555-2.28,5.555C331.688,119.462,332.705,115.169,332.446,113.403z M333.205,133.106
	c0.5-2.273,3.28-1.012,3.039-0.254c0.241,3.285-0.259,6.063-2.023,5.809C328.908,137.649,332.705,136.138,333.205,133.106z
	 M320.58,127.552c0-5.309,3.53-2.273,3.53-2.273s-0.25,5.051-0.5,7.574C322.853,136.138,320.321,129.067,320.58,127.552z
	 M320.321,235.908c-4.291,0.25-2.022-5.301,0.259-7.828c1.772-3.035,5.555-3.543,5.555-1.02
	C326.892,231.099,323.36,235.658,320.321,235.908z M325.376,174.271c0.258,2.789-4.039,4.043-5.056,2.273
	c-1.008-3.277,2.531-5.805,4.048-6.563C328.666,167.205,325.376,172.509,325.376,174.271z M324.619,115.927
	c-0.509-0.758,0-4.543,0-4.543c0.758-6.82,4.047,0.504,3.53,5.051C327.908,119.212,325.634,117.192,324.619,115.927z
	 M338.259,197.004c-0.258,3.027-3.289,9.605-5.055,12.887c-3.281,6.063-3.789-0.758-3.031-1.516c0,0,3.531-6.82,4.297-8.344
	C335.985,195.998,338.767,194.478,338.259,197.004z M340.533,176.297c-1.017,3.781-6.313,3.539-6.828,6.824
	c-0.5,4.793-5.797,5.551-5.797,1.508c0-5.309,6.313-7.328,7.319-9.598c0.758-2.023,2.531-3.535,4.547-3.535
	C341.041,171.498,341.041,174.021,340.533,176.297z M341.291,163.919c-1.267-0.254-1.008-3.027-0.758-3.785
	c-1.767-6.316,3.28-1.52,4.047,0C347.603,162.662,341.291,163.919,341.291,163.919z M362.259,271.013
	c-8.344,0-18.188-9.598-18.188-12.883c0-3.277,2.267-5.813,2.267-7.07c0-3.285-1.258-6.313-1.258-8.84
	c-0.5-6.563,4.289,1.512,5.305,4.797c2.016,4.293,3.781,1.516,8.844,5.051c6.056,4.805,4.031,10.359,6.57,13.137
	C368.571,268.49,365.541,271.013,362.259,271.013z M367.056,195.235c0-4.543,1.008-4.543,2.516-4.543
	c2.281,0,2.031,2.781,1.773,5.305C369.837,202.313,367.056,198.267,367.056,195.235z"/>
</svg>
