<?xml version="1.0" encoding="utf-8"?>
<!-- Generator: Adobe Illustrator 14.0.0, SVG Export Plug-In . SVG Version: 6.00 Build 43363)  -->
<svg version="1.2" baseProfile="tiny" id="Layer_1" xmlns:svg="http://www.w3.org/2000/svg"
	 xmlns="http://www.w3.org/2000/svg" xmlns:xlink="http://www.w3.org/1999/xlink" x="0px" y="0px" width="575px" height="575px"
	 viewBox="0 0 575 575" xml:space="preserve">
<path id="path18028" fill="#0067B4" d="M5,287C5.072,130.729,131.728,4.072,288,4c156.271,0.072,282.928,126.729,283,283
	c-0.072,156.271-126.729,282.928-283,283C131.728,569.928,5.072,443.271,5,287z"/>
<path id="path18030" fill="#FFFFFF" d="M9.816,287C9.816,133.388,134.388,8.816,288,8.816
	c153.612,0,278.184,124.572,278.184,278.184c0,153.612-124.571,278.184-278.184,278.184C134.388,565.184,9.816,440.612,9.816,287z"
	/>
<path id="path18032" fill="#0067B4" d="M94.349,93.35C44.822,142.949,14.2,211.381,14.2,287c0,75.62,30.622,144.052,80.149,193.651
	C143.948,530.178,212.38,560.799,288,560.799s144.051-30.622,193.579-80.147C531.178,431.052,561.8,362.62,561.8,287
	s-30.622-144.052-80.221-193.65C432.052,43.823,363.62,13.201,288,13.201S143.948,43.823,94.349,93.35z"/>
<path id="path18034" fill="#A5C2DB" d="M285.915,530.321c-1.365,4.024-4.025,7.115-7.979,8.554
	c-3.307,1.222-8.555,1.294-12.004,0.144l0.287-5.894l0.575,0.071c2.084,1.149,4.96,1.438,7.26,0.862
	c3.163-0.719,4.816-3.378,5.319-6.47c-3.019,1.654-6.038,2.373-9.417,1.15c-4.241-1.438-5.679-5.392-5.463-9.561
	c0.215-4.457,2.803-8.267,7.116-9.704c4.097-1.294,9.776-0.574,12.651,2.875c1.078,1.15,1.869,2.66,2.372,4.457
	C287.713,520.833,287.21,526.439,285.915,530.321L285.915,530.321z M277.434,514.364c-1.366-0.72-2.876-0.36-3.954,0.718
	c-1.007,1.006-1.366,2.73-1.438,4.098c-0.287,4.816,3.738,6.038,7.62,4.528C279.806,520.833,280.452,515.801,277.434,514.364z"/>
<path id="path18036" fill="#FFFFFF" d="M494.445,287c0,114.005-92.44,206.518-206.445,206.518S81.482,401.005,81.482,287
	S173.995,80.482,288,80.482S494.445,172.995,494.445,287z"/>
<path id="path18038" fill="#A5C2DB" d="M259.606,538.372l-19.552-3.02l0.791-5.104l6.254,0.935l2.372-15.67l-6.253-0.935
	l0.719-4.816c0.935,0.145,1.797,0.216,2.731,0.216c0.935,0.072,1.653-0.071,2.3-0.216c0.647-0.215,1.222-0.575,1.653-1.078
	c0.431-0.504,0.719-1.079,0.863-1.868l6.541,0.935l-3.738,24.512l6.11,0.935L259.606,538.372z"/>
<path id="path18040" fill="#A5C2DB" d="M338.462,528.38l-3.954,0.575l1.006,6.972l-7.188,1.007l-1.006-6.973l-13.012,1.941
	l-0.791-5.535l10.28-19.049l7.404-1.078l2.516,17.396l3.953-0.575L338.462,528.38L338.462,528.38z M326.529,524.642l-1.438-10.063
	l-6.038,11.142L326.529,524.642z"/>
<path id="path18042" fill="#0067B4" d="M341.408,348.027c-19.911,33.211-48.952,40.686-53.408,40.686
	c-4.457,0-33.498-7.475-53.409-40.686c-20.559-34.287-23.937-51.107-23.578-84.173c0.36-28.825,0.935-52.187,1.079-58.296H288
	h75.907c0.144,6.11,0.719,29.472,1.079,58.296C365.345,296.92,361.967,313.74,341.408,348.027z"/>
<path id="path18044" d="M285.7,273.27l-0.432-6.541l-11.716,1.222l-8.985-9.272l-0.144-1.869l-2.587-2.66h-2.66l-26.381-28.25
	l-4.6,4.384l10.351,12.724c-0.791,0.503-2.372,2.156-3.666,2.731c-1.653,0.719-4.169-2.229-5.248-3.09l-11.285,10.566l-0.503,0.432
	l0.431,0.575l7.116,8.626l0.432,0.575l0.575-0.503l5.175-4.96l-3.81-3.235l3.019-2.587l3.594,3.45l3.307-3.378l2.229,2.084
	l-3.666,3.953l3.522,4.098l-2.875,2.516l-3.45-2.947l-4.313,5.176l-0.432,0.503l0.503,0.503l6.9,5.679l12.292-11.285
	c-0.862-0.935-1.797-1.869-2.659-2.803v-0.072c-0.288-0.288-0.144-0.575,0.072-0.791c0.791-0.791,2.803-2.157,3.522-2.444
	c1.653-0.719,2.084,0.791,3.45,2.516c0.288,0.359,0.647,0.862,1.007,1.438c2.947,4.528,3.666,2.3,6.397,5.103l3.451,3.451
	l-14.017,3.666l6.182,25.805c0.288,1.223,1.366,1.654,2.372,2.229c2.947,1.582,6.326,2.444,9.561,3.092l-1.869,2.012
	c-0.935-0.215-1.797-0.215-2.731-0.144c-0.503,1.222-0.935,2.443-1.15,3.738c-1.582,1.077-3.235,2.875-5.248,2.516
	c-2.516-0.504-5.319,0.216-7.763,0.791c-0.719,0.144-1.078,0.216-1.582,0l0,0c-1.366-0.503-2.66-1.868-3.953-2.588
	c-1.869-1.079-4.529-1.582-5.751,0.575c-1.222,2.229-0.862,4.672,1.007,6.396c1.365,1.223,3.306,1.366,3.09,3.738
	c-0.144,0.936-0.359,1.869-0.647,2.803c-1.006,3.666-1.869,6.758-2.012,10.711c0,0.719,0.144,1.582-0.719,1.94
	c-1.366,0.503-2.229,1.078-2.588,1.94c-0.863,1.797,0.359,5.031,2.229,5.822c3.378,1.582,5.894-1.438,6.613-4.313
	c5.319,0.359,10.782,0.574,16.101-0.359c0.719,1.365,1.653,2.731,2.948,3.45c1.293,0.72,3.019,0.575,4.384-0.216
	c1.797-0.936,2.732-2.66,1.941-4.672c-0.935-2.156-2.875-3.163-4.169-4.889c-0.575-0.791,0.144-2.443,0.719-3.738
	c0.215-0.43,0.359-0.791,0.503-1.149l0,0c0.862-2.3,0.359-4.457-0.144-6.685l0,0c-0.072-0.288-0.144-0.575-0.144-0.647l0,0
	c-0.503-2.013,0.072-3.666,0.935-5.463c0.935-0.215,2.3-0.862,3.235-1.222c0.503-1.006,0.431-2.516,0.575-3.522l5.391-5.463
	c7.26,0.72,14.88,0.72,22.14,0l5.391,5.463c0.145,1.007,0.071,2.517,0.575,3.522c0.935,0.359,2.3,1.006,3.234,1.222
	c0.862,1.797,1.438,3.451,0.935,5.463l0,0c0,0.072-0.072,0.359-0.145,0.647l0,0c-0.503,2.228-1.006,4.385-0.144,6.685l0,0
	c0.144,0.358,0.288,0.72,0.503,1.149c0.575,1.295,1.294,2.947,0.719,3.738c-1.294,1.726-3.233,2.731-4.168,4.889
	c-0.791,2.013,0.144,3.738,1.939,4.672c1.366,0.791,3.091,0.936,4.385,0.216c1.294-0.719,2.229-2.085,2.947-3.45
	c5.318,0.934,10.782,0.719,16.102,0.359c0.72,2.875,3.235,5.895,6.613,4.313c1.869-0.791,3.091-4.024,2.229-5.822
	c-0.359-0.862-1.222-1.438-2.588-1.94c-0.862-0.358-0.719-1.222-0.719-1.94c-0.144-3.953-1.007-7.045-2.013-10.711
	c-0.288-0.934-0.503-1.869-0.647-2.803c-0.215-2.372,1.726-2.516,3.09-3.738c1.869-1.725,2.229-4.168,1.008-6.396
	c-1.223-2.157-3.883-1.654-5.751-0.575c-1.293,0.72-2.587,2.084-3.953,2.588l0,0c-0.503,0.216-0.862,0.144-1.582,0
	c-2.444-0.575-5.247-1.294-7.764-0.791c-2.013,0.359-3.666-1.438-5.247-2.516c-0.216-1.294-0.646-2.517-1.149-3.738
	c-0.936-0.071-1.797-0.071-2.731,0.144l-1.868-2.012c3.234-0.647,6.612-1.511,9.561-3.092c1.006-0.574,2.084-1.006,2.372-2.229
	l6.182-25.805l-14.017-3.666l3.451-3.451c2.73-2.803,3.45-0.575,6.396-5.103c0.359-0.576,0.719-1.079,1.006-1.438
	c1.366-1.725,1.798-3.235,3.45-2.516c0.719,0.288,2.731,1.653,3.522,2.444c0.216,0.215,0.359,0.503,0.071,0.791v0.072
	c-0.862,0.935-1.797,1.869-2.659,2.803l12.292,11.285l6.9-5.679l0.503-0.503l-0.432-0.503l-4.313-5.176l-3.45,2.947l-2.875-2.516
	l3.521-4.098l-3.666-3.953l2.229-2.084l3.307,3.378l3.594-3.45l3.02,2.587l-3.811,3.235l5.175,4.96l0.575,0.503l0.433-0.575
	l7.115-8.626l0.433-0.575l-0.504-0.432l-11.285-10.566c-1.078,0.862-3.594,3.81-5.247,3.09c-1.294-0.575-2.876-2.229-3.667-2.731
	l10.351-12.724l-4.6-4.384l-26.381,28.25h-2.66l-2.588,2.66l-0.145,1.869l-8.984,9.272l-11.717-1.222l-0.433,6.541H285.7z"/>
<path id="path18046" fill="#0075B2" d="M159.762,152.796c2.875,1.726,6.182,3.451,10.423,3.163c4.241-0.215,5.032-0.215,8.698,0.575
	c3.738,0.791,8.77,2.875,8.77,2.875l2.372-3.666c0,0-0.503-3.163-6.326-4.241c-5.822-1.079-10.926-2.157-14.879-4.241
	c-3.954-2.157-6.397-3.235-6.397-3.235v2.444l4.528,4.457h-2.875l-3.235-2.875c0,0-1.582,0.503-2.084,1.582
	C158.181,150.712,158.468,152.005,159.762,152.796z"/>
<path id="path18048" fill="#A5C2DB" d="M236.676,202.682h1.941l2.372,2.444c0,0-0.215,1.293-1.294,2.372
	c-1.078,1.078-2.372,0-2.372,0l0.288-2.66h-2.444c0,0-0.791,0.791-1.868,2.372c-1.007,1.581-2.588,1.581-2.588,1.581
	s-0.288-0.791-0.575-2.875c-0.288-2.157-1.869-3.235-1.869-3.235s-0.791,3.235-2.085,4.313c-1.366,1.006-5.032,3.163-5.032,4.744
	c0,1.581,0.216,1.078-3.235,2.66c-3.45,1.581-6.11,2.372-6.11,2.372s-0.791,2.156,2.947,0.791c3.738-1.294,7.188-3.666,7.188-3.666
	s0.791,1.797,0.503,3.45c-0.288,1.582-1.869,3.954-4.529,5.535s-6.11,3.163-6.11,3.163l2.444,0.287c0,0,1.293,0.288,3.378-1.078
	c2.157-1.294,4.026-3.163,4.026-3.163s-1.366,1.869-0.791,2.947c0.503,1.007,1.869,0.503,0,2.372
	c-1.869,1.869-4.025,3.163-5.032,4.241c-1.078,1.078-1.078,0.791,1.006,0.791c2.157,0,4.529-1.869,4.529-0.288
	c0,1.725,1.366,2.013,0.575,3.81c-0.863,1.941-1.725,3.954-2.804,5.823c-0.503,0.935-1.15,2.3-2.013,3.02
	c-0.719,0.646-1.438,0.359-2.3-0.36c-1.006-0.791-1.653-2.084-2.372-3.163c-1.222-1.581-2.947-3.09-3.954-4.888
	c-0.503-0.862-0.791-1.941-1.15-2.875l1.006-4.816l2.372-3.163l0.288-4.241c0,0-4.528-0.287-2.084-5.607
	c2.372-5.247,2.875-7.691,1.797-8.697c-1.006-1.079-2.372-0.576-1.293-1.869c1.941-2.444,1.293-6.901,6.11-8.482
	c4.744-1.653,8.195-2.947,12.724-1.366c4.528,1.582,5.606,1.366,8.769,3.45c3.163,2.157,4.529,2.157,5.319,2.947
	c0.791,0.791,2.084,4.529,2.084,4.529l-2.372,1.294c0,0,1.079-1.294,0.288-2.66c-0.791-1.294-3.738-3.163-3.738-3.163
	s-0.791,0.288-1.582,0.575L236.676,202.682z"/>
<path id="path18050" fill="#A5C2DB" d="M159.618,223.888c-0.072,0.215-0.072,0.359-0.072,0.359s0.072,0,0.144,0L159.618,223.888z"/>
<path id="path18052" fill="#A5C2DB" d="M160.05,214.687c0,0,0.144-0.216,0.431-0.432L160.05,214.687z"/>
<path id="path18054" fill="#A5C2DB" d="M158.612,216.843c0.935,1.51,0.503,3.594,0.575,5.32c0.072,1.078,0.288,2.587-0.718,3.306
	c-1.366,0.935-3.882-0.359-5.319-0.719c-7.692-2.156-10.854-6.613-18.042-16.173c-7.188-9.561,1.366-29.472-3.953-38.745
	c-5.32-9.344-15.168-8.266-25.734,5.535c-10.638,13.801-13.01,27.603-17.036,38.529c-1.653,4.457-3.091,9.56-4.241,14.017h0.072
	l-2.66,11.501c-0.719,3.882-3.307,21.996-3.594,24.512c-1.078,8.626-1.797,17.252-3.091,25.807
	c-1.581,10.565-3.953,17.25-3.953,17.25s1.293-0.287,6.325-7.979c5.032-7.691,5.319-14.017,6.397-19.048
	c1.078-5.032,1.294-11.43,1.294-13.514c0-2.157,1.366-3.45,1.078-1.653c-0.288,1.869,0.288,7.26-0.503,13.873
	c-0.144,1.078-0.288,2.228-0.432,3.307c-0.072,0.575-0.647,2.013-0.144,2.444c0.719,0.718,3.81-3.091,4.241-3.666
	c1.869-2.372,4.529-7.404,4.529-7.404c0.719-2.66,2.301-5.104,3.81-7.333c1.079-1.581,2.229-3.378,3.594-4.815
	c0.503-0.504,1.079-1.007,1.654-1.51c0.431-0.359,0.862-0.719,1.222-1.079c1.006-0.935,2.013-1.725,3.019-2.587l0,0
	c1.078-0.647,2.013-1.438,2.875-2.372c2.156-2.085,3.234-7.404,3.234-7.404s0.503,4.241,3.451,6.613
	c2.875,2.443,5.535-0.216,5.535-0.216s-2.875,3.954,1.366,5.823c4.241,1.869,6.901-1.582,6.901-1.582s-1.869,5.823,2.875,6.326
	c4.815,0.575,5.606-1.006,5.606-1.006s1.078,3.954,4.529,3.954c3.45,0,5.247-2.66,5.247-2.66v2.66c0,0,0.575,0.791,3.235,0.503
	c2.66-0.215,3.163-1.869,6.326-6.11c3.235-4.241,5.607-9.488,7.763-12.435c2.085-2.948,5.535-4.241,9.489-6.11
	c4.025-1.869,6.9,0,7.188,2.947c0.288,2.875-0.288,5.248,3.163,5.823c3.522,0.503,5.104-2.372,5.104-2.372s-1.078,2.085-1.078,6.325
	c0,4.241,1.581,6.398,3.737,7.476c2.085,1.006,1.797-2.444,1.797-2.444l1.869-1.581l-0.503,5.032l3.163,4.241l2.156,1.869
	c0,0-0.288-3.163,0.216-5.535c0.575-2.444,3.737-2.947,3.737-2.947l-1.869,7.691c0,0,0,1.366,2.156,1.582
	c2.084,0.288,1.582,3.45,1.869,5.104c0.215,1.582,2.084,2.085,2.084,2.085l0.791-1.582l-1.581-4.529l1.869-0.791l1.079,5.822
	l2.084,0.791l1.582,1.653c0,0-1.006,2.372-0.503,3.954c0.503,1.581,2.66,1.078,2.66,1.078l-1.078-1.869h1.582l-0.791-3.45
	l1.582-0.503v6.325c0,0,1.366,2.373,2.157,4.456c0.791,2.084,0,7.693,0,7.693s0.503,1.867,1.293,2.371
	c0.791,0.575,3.235,0.287,3.235,0.287l1.869-2.372l-0.575-3.235l0.288-3.449l1.582,7.476l-2.66,3.163l3.45,0.504l2.947-4.744
	l-2.156-5.606v-2.66l3.45,9.345l-2.084,2.875h2.084l2.157-4.744l-0.791-4.024l-0.288-3.163l2.372,7.188l-1.293,2.947l0.791,1.294
	c0,0,1.582-0.287,3.163-4.241c1.582-4.024-2.084-11.357-5.822-20.343c-3.737-9.057-11.932-18.33-17.251-24.44
	S205.7,237.26,205.7,237.26s-0.216-2.947-0.216-6.686c0-0.575-0.215-1.869,0.288-2.372c0.215-0.215,0.503-0.215,0.791-0.215
	c0.359-0.144,0.719-0.288,1.079-0.359c0.575-0.144,1.078-0.36,1.581-0.719c0.432-0.359,0.719-0.791,0.791-1.294
	c0.072-0.935-0.719-1.797-1.366-2.444c-1.293-1.365-1.581-1.581-1.581-6.685c0-5.032,0.288-2.372,1.293-3.954
	c1.079-1.582,0-2.66-1.293-3.954c-1.366-1.366-2.157-0.791-1.869-3.738c0.288-2.947-1.078-4.529-2.372-6.11
	c-1.365-1.581-6.397-1.581-6.397-1.581s5.032-0.503,3.163-1.582c-1.797-1.079-3.954-2.157-7.116-2.66
	c-3.163-0.575-6.398,0.503-9.561,0.288c-3.235-0.288-4.241-4.025-4.241-4.025v-2.875c0,0,2.084,4.241,4.241,4.744
	c2.084,0.503,1.581-3.163,1.581-3.163s1.869,3.45,3.954,2.372c2.157-1.078,2.588-3.019,1.869-5.032
	c-0.359-1.006-1.582-1.869-2.516-2.3c-0.934-0.503-2.3-0.144-3.163,0.359c-0.647,0.359-1.51,1.15-2.3,0.935
	c-1.438-0.359-1.366-3.234-1.582-4.313c-0.503-3.45-0.215-1.366,2.444-3.738c2.66-2.444,2.444-2.66,4.816-1.582
	c2.444,1.079,2.3-2.084,4.169-2.947c1.869-0.791,1.581-1.293,2.66-3.45c1.078-2.085-0.504-3.164-0.504-3.164
	s1.294,0.504,2.588,0.504c1.366,0,2.157-0.504,1.366-1.582c-0.791-1.006-2.66-3.163-4.241-5.032
	c-1.581-1.869-3.163-1.294-4.025,0.288c-0.719,1.582,0,2.875,0,2.875s-3.163,0.575-5.032,1.366s-2.084-0.287-2.084-0.287
	s0-1.079,1.078-1.869c1.006-0.791-0.863-1.007-2.157-0.791c-1.293,0.288-1.078,1.365-1.078,1.365l0.791,1.869
	c0,0-1.869-1.079-2.084-2.156c-0.288-1.078-2.372-2.372-2.372-2.372s-3.45-0.791-5.319-1.582s-4.241-1.078-7.476-1.869
	c-3.163-0.791-5.247-1.079-8.77-1.079c-4.457,0-5.823,2.66-5.823,7.188c0,4.529,5.032,5.319,5.032,5.319s-3.45,1.582-6.9,4.241
	c-3.45,2.659-3.163,7.404-3.163,7.404l2.66,2.947c0,0-1.581,2.372-1.869,7.979c-0.287,5.535,0,9.273,0,9.273l2.66-0.791
	c0,0,0.288,2.372,0.791,8.482c0.288,3.019,2.3,5.535,4.744,7.188c1.366,0.934,3.163,1.15,4.385,2.229
	C158.324,216.34,158.468,216.627,158.612,216.843z"/>
<path id="path18056" fill="#0075B2" d="M105.419,260.835c0,0,1.294-0.215,3.163,3.163c1.869,3.451,1.582,6.11,1.582,6.11
	l-3.163-3.451c0,0-0.791,2.947-0.791,5.895c0,2.875-0.575,6.326-1.868,7.691c-1.366,1.294-2.66,2.372-2.66,2.372
	s0.216-1.366,0.216-4.528c0-3.163-0.503-6.613-1.006-3.954c-0.575,2.66-0.791,4.457-1.366,7.116c-0.503,2.66-1.294,4.313-2.372,7.69
	c-1.079,3.451-1.869,5.824-3.451,7.404c-1.581,1.581-3.163,2.156-3.163,2.156s2.084-3.736,2.084-9.057
	c0-5.249,1.366-11.646,1.366-11.646s2.372-5.248,5.319-8.195C102.185,266.657,105.419,260.835,105.419,260.835z"/>
<path id="path18058" fill="#A5C2DB" d="M126.625,375.99c1.078,0.359,2.157,0.503,3.307,0.574c0.791,0,1.509-0.07,2.156,0.576
	c1.222,1.438,2.875,2.588,4.601,3.234c0.862,0.288,2.731,0.646,3.594,0.503c0.862-0.071,0.503-0.862,0.143-1.869
	c-0.575-1.582-1.94-2.013-3.306-2.444c-1.725-0.502-3.45-1.293-4.098-3.09c-0.575-1.726-0.718-3.666-0.862-5.463
	c-0.215-5.822,0.862-9.272,4.313-16.173c3.45-6.899,9.776-11.429,15.886-15.67c6.11-4.241,6.398-6.397,9.561-10.926
	c0.144-0.216,0.359-0.433,0.503-0.72c0.071-0.144,0.144-0.287,0.215-0.502l0.431-0.504c1.797-3.449,1.222-5.391,1.222-5.391
	s-4.744,0.503-7.404,0.216c-2.66-0.216-2.66-1.006-2.66-1.006s2.372,0.215,6.11,0.215c3.738,0,8.194-5.821,8.194-5.821
	s-1.007,4.24-2.66,7.188c-0.791,1.509-1.222,3.163-1.725,4.744l-0.144,0.503c-0.575,1.797-1.293,3.666-2.587,5.392
	c-2.66,3.45-6.11,7.69-6.11,7.69s4.745-3.738,7.404-6.685c2.372-2.517,3.881-4.889,5.103-6.687l0.216-0.358
	c0.072-0.145,0.215-0.289,0.287-0.359c1.294-1.869,1.869-7.692,3.666-11.43c1.869-3.738-1.581-5.033-3.666-8.985
	c-2.156-4.025,5.104-5.606,4.601-9.272c-0.359-2.301,0.072-4.744,0.287-6.973c0.216-2.301-0.071-4.601,1.007-6.685
	c0.862-1.869,2.3-3.379,3.522-5.032c1.869-2.444,3.81-4.744,5.751-7.116c0.431-0.575,0.575-1.078,0.862-1.725
	c0.359-0.719,1.078-1.294,1.582-1.869c1.366-1.51,1.366-3.019,0.431-4.816c-2.157-3.954-3.738-1.869-3.738-1.869
	s2.66-2.66,0.503-3.737c-2.084-1.007-2.372-2.085-3.45-5.823c-1.006-3.666-4.744,0.575-8.698,3.451
	c-4.025,2.947-6.11,3.45-8.77,7.979c-2.66,4.529-3.45,6.11-6.397,7.404c-2.875,1.366-5.823,2.66-9.273,7.691
	c-3.451,5.104-7.979,12.724-12.723,22.788c-4.816,10.063-5.895,15.67-11.142,19.91c-5.319,4.241-10.639,0.503-12.795-3.953
	c-2.085-4.529,0-8.268,2.66-11.43c0.719-0.861,1.438-2.014,2.444-2.66c1.078-0.646,2.587-0.646,3.81-0.719
	c1.869-0.217,3.666-0.432,5.535-0.288c0.432,0.071,2.373,0.358,1.941-0.575c-0.791-2.012-6.182-2.3-7.908-2.084
	c-0.862,0.145-4.24,1.15-5.031,0.791c-0.575-0.288-0.934-0.431-0.216-0.791c0.791-0.288,1.725-0.503,2.516-0.936
	c0.935-0.43,1.94-0.43,2.947-0.574c1.006-0.145,1.653-0.719,2.372-1.366c1.582-1.222,3.307-2.157,4.888-3.235
	c0.863-0.574,1.653-1.078,2.588-1.293c-1.006-1.006-3.234-0.935-4.601-0.935c-2.157,0-4.169,0.791-5.966,1.941
	c-2.947,1.797-5.535,1.293-5.535,1.293c1.366-1.006,2.875-1.94,4.385-2.802c1.078-0.576,2.084-1.15,3.235-1.582
	c0.934-0.359,2.012-0.575,2.875-1.079c1.509-0.862,2.587-2.3,3.953-3.306c2.084-1.653,5.606-3.881,4.601-7.117
	c-0.791,0.503-1.653,1.006-2.444,1.438c-1.294,0.791-2.947,0.791-4.313,1.438c-1.15,0.575-2.516,2.013-4.025,1.366
	c-1.222-0.575-0.935-2.3-0.863-3.378c0.144-1.726,1.869-2.803,3.091-3.81c1.653-1.293,3.306-3.234,3.378-5.462
	c0-3.738-4.025,0.215-4.888,1.222c-0.647,0.719-1.294,1.438-1.941,2.156c-0.288,0.288-1.797,1.51-1.725,1.869
	c-0.215-3.378-0.647-6.757-1.366-10.063c-0.503-2.084-1.15-4.025-2.013-5.966c-0.143-0.288-0.215-1.294-0.503-1.438
	c-0.503-0.359-1.365,0.646-1.725,0.935c-0.791,0.719-1.582,1.438-2.3,2.156c-0.288,0.288-1.293,1.079-1.222,1.509
	c0,0.216,0.288,0.36,0.503,0.647c0.791,1.222,1.006,3.163,1.366,4.601c0.432,1.797,0.647,3.666,0.862,5.535
	c1.294,10.567-2.66,18.977-7.979,31.771c-1.797,4.241-2.013,9.058-0.288,13.37c1.294,3.307,3.522,6.109,6.397,8.123
	c1.653,1.15,3.307,2.084,5.248,2.443c1.509,0.289,3.234,0.145,4.816-0.144c2.3-0.431,4.744-1.149,6.757-2.517
	c0.791-0.502,1.51-1.149,2.3-1.652c2.084-1.366,3.666-4.744,5.535-9.271c1.869-4.529,1.078-7.691,2.444-12.508
	c1.294-4.744,4.241-8.77,6.613-12.652c2.372-3.954,3.954-4.528,3.954-4.528s0,1.869-1.869,4.025
	c-1.797,2.013-1.797,4.385-3.163,10.279c-1.294,5.823,0.503,9.273,3.45,12.939c2.948,3.737,4.816,5.319,4.816,5.319
	s-6.11-3.955-7.979-6.613c-1.869-2.659-3.234-3.163-3.234-3.163s-1.294,3.666-1.582,6.11c-0.216,2.371,0.288,5.031-0.503,11.142
	c-0.072,0.647-0.216,1.294-0.288,1.868c0,0.072-0.072,0.072-0.072,0.145v0.145c-1.078,5.031-3.307,8.984-6.829,11.07
	c-3.954,2.443-6.613,2.443-6.613,2.443s-2.947,0-6.397,1.582c-3.45,1.582,0.575,3.954,0.575,3.954h3.666l-2.66,2.157
	c0,0-1.796,1.869-4.24,6.109c-2.372,4.241-3.451,8.194-3.451,8.194l6.685-6.613l2.372,1.581c0,0-1.366,1.294-3.451,3.451
	c-2.156,2.156-2.947,5.822-2.947,5.822l0.575,4.529l5.535-6.613l-3.666,10.854l0.503,5.032l4.745-4.241l-2.875,6.9l-0.791,3.738
	l2.084,3.738l2.157-0.574l2.372,4.24l-3.954,1.366c0,0,0.791,0.791,2.084,2.372c1.366,1.582,2.372,3.738,2.372,3.738l3.738-0.288
	l1.869-2.156l-4.816-9.776l1.869,0.288l7.188,8.697l3.737-1.868l1.007,1.078l-2.372,2.157l-3.45,1.293l2.947,1.079
	c0,0,2.659,1.581,5.031,0.503c2.373-1.006,0.791-3.45,0.791-3.45s-0.287-1.582-3.45-3.666c-3.163-2.157-5.032-5.822-5.032-5.822
	l-1.582-4.025c0,0,3.45,2.947,5.032,4.529c1.582,1.58,4.528,2.946,4.528,2.946s0.503,0.503,1.869,0.503
	c1.293,0,3.45-1.078,3.45-1.078l-0.862-3.449l-2.588-2.373c0,0-1.653,0-4.816-0.287c-3.163-0.289-5.032-3.164-5.032-3.164
	s-2.948,0.504-5.607-1.077C125.258,377.572,126.625,375.99,126.625,375.99z"/>
<path id="path18060" fill="#A5C2DB" d="M174.138,288.15c0,0,3.954,5.822,8.195,5.822c4.313,0,7.764-0.576,10.136,1.078
	c2.372,1.582,5.032,5.535,5.032,7.691c0,2.084-2.373,3.451-6.398,3.666c-3.953,0.287-7.979,0.574-11.933-3.954
	c-3.953-4.528-5.032-6.397-5.032-9.849V288.15z"/>
<path id="path18062" fill="#A5C2DB" d="M173.635,298.213c1.582,2.085,2.803,4.96,5.679,7.117c2.013,1.438,4.96,2.084,7.332,2.73
	c2.731,0.719,5.75,0.289,8.41-0.935c0.791-0.431,2.444-1.797,2.731-0.144c0.216,1.797,2.372,5.822,0.791,11.645
	c-1.653,5.822-5.894,11.716-3.45,18.042c2.373,6.397,3.163,7.979,8.77,9.849c5.535,1.869,10.567,4.24,10.567,4.24
	s5.319,2.084,9.561,2.66c4.241,0.503,6.397,1.294,7.188,2.875c0.791,1.652-0.287,5.32-0.287,5.32s-0.216,0-2.085-1.869
	c-1.869-1.797-1.869-0.217-4.528-0.791c-2.66-0.503-4.816-1.293-4.816-1.293s1.078,1.078,4.025,1.581
	c2.875,0.503,4.241,0.288,4.241,2.946c0,2.66-0.288,3.451-2.157,3.953c-1.869,0.504-2.084-0.287-3.666-2.084
	c-1.654-1.869-5.895-3.234-5.895-3.234s0.791,0.287,2.947,2.156c2.084,1.869,2.947,2.66,2.372,4.242
	c-0.503,1.58-1.582,3.162-3.451,3.162s-1.293-1.294-2.372-2.875c-1.078-1.652-1.869-1.652-1.869-3.738
	c0-2.156-0.791-4.024-0.791-4.024s-0.791,4.815-1.078,5.894c-0.216,1.008-2.66,0-2.66,0s1.366-2.947-0.503-4.24
	c-1.869-1.365-2.66-0.289-2.66-0.289s1.869,0,2.157,2.158c0.215,2.084-1.078,2.588-1.078,2.588s-2.947,2.443-3.738-0.217
	s-0.791-4.24-2.372-5.894c-1.581-1.582-2.947-2.084-2.947-2.084s1.582,0.503,2.372,3.45c0.862,2.947-0.216,4.24-0.216,4.24
	s-0.575-0.287-2.947,0c-2.372,0.289-4.529-0.287-2.876-1.869c1.582-1.58,1.007-3.953,0.216-4.743
	c-0.791-0.791-4.241-6.397-4.241-6.397s0,2.156,1.582,5.032c1.581,2.946-0.503,5.606-0.503,5.606s0.791,0.502-2.372-0.289
	c-3.235-0.791-3.45-2.658-3.45-2.658s2.372-1.079,1.869-4.529c-0.575-3.449-2.66-6.9-2.66-6.9s2.66,5.104,1.581,7.476
	c-1.078,2.373-3.45,3.45-3.45,3.45s-1.869-0.574-2.66-3.737s1.078-7.403,1.078-7.403l-2.947,1.006c0,0-0.503,2.66-3.163,1.869
	c-2.66-0.791-4.025-2.373-1.366-5.822c2.659-3.451,4.241-6.901,4.025-12.725c-0.288-5.822-1.582-8.482-3.234-12.22
	c-1.582-3.738-2.373-3.953-1.007-8.481c1.294-4.529,1.582-6.686-0.288-7.691c-1.869-1.079-4.241-1.653-3.163-3.451
	C171.192,299.004,173.635,298.213,173.635,298.213z"/>
<path id="path18064" fill="#0075B2" d="M126.912,162.932c0,0,5.032-2.947,7.907-1.653c2.947,1.365,5.104,2.156,6.685,4.816
	c1.581,2.66,3.45,7.979,2.372,12.723c-1.078,4.816-1.294,9.273-0.287,15.67c1.078,6.398,0.791,10.639,4.241,15.671
	c3.45,5.032,4.241,6.11,7.188,7.979c2.948,1.797,4.026,5.823,0,4.241c-3.953-1.582-6.11-1.365-10.638-6.397
	c-4.457-5.032-3.45-5.822-5.822-10.351c-2.372-4.529-1.869-8.194-1.869-8.194l4.025-3.738l-4.025,0.791c0,0,0-1.078,0.288-3.737
	c0.287-2.66,0.287-5.535,0.287-5.535l2.085-2.156l-3.667,1.582c0,0,0.791-1.582,0.504-4.241c-0.288-2.66,0.791-2.875,0.791-2.875
	l3.737-4.025l-4.815,1.869c0,0-2.372-2.66-0.503-3.954c1.869-1.366,3.666-5.032,3.666-5.032l-5.822,3.954
	c0,0,1.366-1.366-0.216-2.66c-1.653-1.294-0.575-2.372-0.575-2.372l1.079-2.156l-2.948,1.365L126.912,162.932z"/>
<polygon id="polygon18066" fill="#D2232A" points="186.933,178.386 183.411,180.542 183.052,178.386 "/>
<polygon id="polygon18068" fill="#D2232A" points="217.627,371.461 220.574,370.168 216.837,374.121 "/>
<path id="path18070" fill="#D2232A" d="M225.39,367.725c0,0,1.294-0.504,2.373-1.582c1.078-1.078,2.084-3.164,2.084-3.164
	s-0.503,2.875-1.581,5.032c-1.079,2.157-2.66,3.163-2.66,3.163L225.39,367.725z"/>
<path id="path18072" fill="#D2232A" d="M234.376,365.352c0,0,0.791-3.164,0-5.319c-0.791-2.085-2.084-2.085-2.084-2.085
	l-0.288,4.744L234.376,365.352z"/>
<polygon id="polygon18074" fill="#D2232A" points="220.574,301.664 224.816,300.585 221.653,299.292 "/>
<polygon id="polygon18076" fill="#D2232A" points="224.313,306.982 230.71,302.958 228.266,302.167 "/>
<path id="path18078" fill="#D2232A" d="M230.71,306.695c0,0,2.588-2.155,3.379-3.162c0.862-1.079,0.862-2.444,0.862-2.444
	l-2.444,0.287L230.71,306.695z"/>
<polygon id="polygon18080" fill="#D2232A" points="235.454,304.827 238.402,300.082 236.532,300.585 "/>
<path id="path18082" fill="#D2232A" d="M125.546,400.43l4.026-0.862c0,0-0.575,2.443-1.654,3.737
	c-1.006,1.293-2.084,2.372-2.084,2.372L125.546,400.43z"/>
<path id="path18084" fill="#D2232A" d="M136.328,405.246c0,0,1.941-0.359,3.02-1.509c1.078-1.078,1.94-2.804,1.94-2.804h-3.81
	L136.328,405.246z"/>
<polygon id="polygon18086" fill="#D2232A" points="141.864,381.741 141.216,378.146 145.386,382.604 "/>
<path id="path18088" fill="#D2232A" d="M242.858,208.001l2.444-1.293c0,0-0.288,1.581-0.288,3.163s-1.366,2.947-1.366,2.947
	s-0.215-1.869-0.215-2.947C243.433,208.792,242.858,208.001,242.858,208.001z"/>
<path id="path18090" fill="#D2232A" d="M233.298,208.792l2.156,1.654c0,0-1.581,1.006-2.66,2.084
	c-1.078,1.078-2.659,1.078-2.659,1.078s0.791-1.581,1.582-2.66C232.507,209.87,233.298,208.792,233.298,208.792z"/>
<path id="path18092" fill="#D2232A" d="M237.611,210.446l2.875-1.078c0,0,0.288,1.078,0,3.45c-0.288,2.372-3.45,2.875-3.45,2.875
	s0.575-1.006,1.078-2.372C238.617,212.027,237.611,210.446,237.611,210.446z"/>
<polygon id="polygon18094" fill="#D2232A" points="144.882,396.117 147.111,390.15 143.301,391.661 "/>
<path id="path18096" fill="#D2232A" d="M191.103,180.399l-0.215-1.869l2.084-1.293c0,0,1.582,1.293,3.45,1.078
	c1.869-0.288,4.241-2.947,5.319-2.444c1.078,0.575,2.947,1.078,0.288,2.947c-2.659,1.869-4.241,2.372-6.901,2.157
	C192.469,180.686,191.103,180.399,191.103,180.399z"/>
<path id="path18098" fill="#0075B2" d="M416.237,152.796c-2.875,1.726-6.183,3.451-10.423,3.163
	c-4.241-0.215-5.032-0.215-8.697,0.575c-3.738,0.791-8.771,2.875-8.771,2.875l-2.372-3.666c0,0,0.503-3.163,6.326-4.241
	c5.822-1.079,10.926-2.157,14.88-4.241c3.954-2.157,6.397-3.235,6.397-3.235v2.444l-4.528,4.457h2.875l3.234-2.875
	c0,0,1.582,0.503,2.085,1.582C417.819,150.712,417.531,152.005,416.237,152.796z"/>
<path id="path18100" fill="#A5C2DB" d="M339.324,202.682h-1.941l-2.372,2.444c0,0,0.215,1.293,1.294,2.372
	c1.078,1.078,2.372,0,2.372,0l-0.288-2.66h2.444c0,0,0.791,0.791,1.797,2.372c1.078,1.581,2.66,1.581,2.66,1.581
	s0.288-0.791,0.575-2.875c0.288-2.157,1.869-3.235,1.869-3.235s0.791,3.235,2.084,4.313c1.365,1.006,5.031,3.163,5.031,4.744
	c0,1.581-0.216,1.078,3.234,2.66c3.45,1.581,6.11,2.372,6.11,2.372s0.791,2.156-2.947,0.791c-3.737-1.294-7.188-3.666-7.188-3.666
	s-0.791,1.797-0.503,3.45c0.287,1.582,1.869,3.954,4.528,5.535s6.11,3.163,6.11,3.163l-2.444,0.287c0,0-1.294,0.288-3.378-1.078
	c-2.157-1.294-4.025-3.163-4.025-3.163s1.366,1.869,0.791,2.947c-0.504,1.007-1.869,0.503,0,2.372
	c1.868,1.869,4.025,3.163,5.031,4.241c1.078,1.078,1.078,0.791-1.006,0.791c-2.157,0-4.529-1.869-4.529-0.288
	c0,1.725-1.365,2.013-0.575,3.81c0.862,1.941,1.726,3.954,2.804,5.823c0.503,0.935,1.149,2.3,2.013,3.02
	c0.719,0.646,1.438,0.359,2.3-0.36c1.006-0.791,1.653-2.084,2.372-3.163c1.222-1.581,2.947-3.09,3.954-4.888
	c0.503-0.862,0.791-1.941,1.15-2.875l-1.007-4.816l-2.371-3.163l-0.288-4.241c0,0,4.527-0.287,2.084-5.607
	c-2.372-5.247-2.875-7.691-1.797-8.697c1.006-1.079,2.371-0.576,1.293-1.869c-1.94-2.444-1.293-6.901-6.11-8.482
	c-4.744-1.653-8.195-2.947-12.723-1.366c-4.529,1.582-5.607,1.366-8.771,3.45c-3.163,2.157-4.529,2.157-5.319,2.947
	c-0.791,0.791-2.084,4.529-2.084,4.529l2.372,1.294c0,0-1.079-1.294-0.288-2.66c0.791-1.294,3.738-3.163,3.738-3.163
	s0.791,0.288,1.582,0.575L339.324,202.682z"/>
<path id="path18102" fill="#A5C2DB" d="M416.382,223.888c0.072,0.215,0.072,0.359,0.072,0.359s-0.072,0-0.145,0L416.382,223.888z"/>
<path id="path18104" fill="#A5C2DB" d="M415.95,214.687c0,0-0.145-0.216-0.432-0.432L415.95,214.687z"/>
<path id="path18106" fill="#A5C2DB" d="M417.388,216.843c-0.934,1.51-0.503,3.594-0.575,5.32c-0.071,1.078-0.287,2.587,0.719,3.306
	c1.366,0.935,3.882-0.359,5.318-0.719c7.691-2.156,10.854-6.613,18.043-16.173c7.188-9.561-1.365-29.472,3.953-38.745
	c5.319-9.344,15.167-8.266,25.734,5.535c10.638,13.801,13.01,27.603,17.036,38.529c1.652,4.457,3.091,9.56,4.241,14.017h-0.072
	l2.66,11.501c0.719,3.882,3.307,21.996,3.594,24.512c1.078,8.626,1.797,17.252,3.091,25.807c1.581,10.565,3.953,17.25,3.953,17.25
	s-1.294-0.287-6.325-7.979c-5.032-7.691-5.319-14.017-6.397-19.048c-1.078-5.032-1.294-11.43-1.294-13.514
	c0-2.157-1.366-3.45-1.078-1.653c0.288,1.869-0.288,7.26,0.503,13.873c0.144,1.078,0.288,2.228,0.432,3.307
	c0.072,0.575,0.647,2.013,0.145,2.444c-0.72,0.718-3.811-3.091-4.241-3.666c-1.869-2.372-4.529-7.404-4.529-7.404
	c-0.719-2.66-2.3-5.104-3.81-7.333c-1.079-1.581-2.229-3.378-3.595-4.815c-0.503-0.504-1.078-1.007-1.652-1.51
	c-0.432-0.359-0.863-0.719-1.223-1.079c-1.006-0.935-2.013-1.725-3.019-2.587l0,0c-1.078-0.647-2.013-1.438-2.875-2.372
	c-2.157-2.085-3.235-7.404-3.235-7.404s-0.503,4.241-3.45,6.613c-2.876,2.443-5.535-0.216-5.535-0.216s2.875,3.954-1.366,5.823
	s-6.9-1.582-6.9-1.582s1.869,5.823-2.876,6.326c-4.814,0.575-5.605-1.006-5.605-1.006s-1.078,3.954-4.528,3.954
	c-3.451,0-5.248-2.66-5.248-2.66v2.66c0,0-0.575,0.791-3.235,0.503c-2.659-0.215-3.162-1.869-6.325-6.11
	c-3.234-4.241-5.606-9.488-7.764-12.435c-2.084-2.948-5.535-4.241-9.487-6.11c-4.025-1.869-6.901,0-7.188,2.947
	c-0.288,2.875,0.288,5.248-3.163,5.823c-3.521,0.503-5.104-2.372-5.104-2.372s1.078,2.085,1.078,6.325
	c0,4.241-1.581,6.398-3.737,7.476c-2.084,1.006-1.797-2.444-1.797-2.444l-1.869-1.581l0.503,5.032l-3.163,4.241l-2.157,1.869
	c0,0,0.288-3.163-0.215-5.535c-0.575-2.444-3.738-2.947-3.738-2.947l1.869,7.691c0,0,0,1.366-2.155,1.582
	c-2.084,0.288-1.582,3.45-1.869,5.104c-0.215,1.582-2.084,2.085-2.084,2.085l-0.791-1.582l1.581-4.529l-1.869-0.791l-1.079,5.822
	l-2.084,0.791l-1.582,1.653c0,0,1.007,2.372,0.503,3.954c-0.503,1.581-2.66,1.078-2.66,1.078l1.078-1.869h-1.582l0.791-3.45
	l-1.582-0.503v6.325c0,0-1.365,2.373-2.156,4.456c-0.791,2.084,0,7.693,0,7.693s-0.503,1.867-1.294,2.371
	c-0.791,0.575-3.234,0.287-3.234,0.287l-1.869-2.372l0.575-3.235l-0.288-3.449l-1.582,7.476l2.66,3.163l-3.45,0.504l-2.947-4.744
	l2.156-5.606v-2.66l-3.45,9.345l2.084,2.875h-2.081l-2.157-4.744l0.791-4.024l0.288-3.163l-2.372,7.188l1.293,2.947l-0.791,1.294
	c0,0-1.582-0.287-3.163-4.241c-1.581-4.024,2.085-11.357,5.823-20.343c3.738-9.057,11.933-18.33,17.251-24.44
	c5.319-6.11,11.717-13.514,11.717-13.514s0.215-2.947,0.215-6.686c0-0.575,0.217-1.869-0.287-2.372
	c-0.216-0.215-0.504-0.215-0.791-0.215c-0.359-0.144-0.72-0.288-1.079-0.359c-0.575-0.144-1.078-0.36-1.581-0.719
	c-0.432-0.359-0.72-0.791-0.791-1.294c-0.072-0.935,0.719-1.797,1.366-2.444c1.293-1.365,1.58-1.581,1.58-6.685
	c0-5.032-0.287-2.372-1.293-3.954c-1.078-1.582,0-2.66,1.293-3.954c1.366-1.366,2.157-0.791,1.869-3.738
	c-0.288-2.947,1.078-4.529,2.372-6.11c1.366-1.581,6.398-1.581,6.398-1.581s-5.032-0.503-3.164-1.582
	c1.797-1.079,3.954-2.157,7.117-2.66c3.163-0.575,6.396,0.503,9.56,0.288c3.235-0.288,4.241-4.025,4.241-4.025v-2.875
	c0,0-2.084,4.241-4.241,4.744c-2.084,0.503-1.582-3.163-1.582-3.163s-1.869,3.45-3.953,2.372c-2.156-1.078-2.588-3.019-1.869-5.032
	c0.288-1.006,1.582-1.869,2.517-2.3c0.934-0.503,2.3-0.144,3.163,0.359c0.646,0.359,1.51,1.15,2.3,0.935
	c1.438-0.359,1.366-3.234,1.582-4.313c0.503-3.45,0.215-1.366-2.444-3.738c-2.659-2.444-2.443-2.66-4.815-1.582
	c-2.444,1.079-2.301-2.084-4.169-2.947c-1.868-0.791-1.581-1.293-2.659-3.45c-1.078-2.085,0.503-3.164,0.503-3.164
	s-1.294,0.504-2.588,0.504c-1.365,0-2.156-0.504-1.365-1.582c0.791-1.006,2.66-3.163,4.241-5.032
	c1.581-1.869,3.163-1.294,4.024,0.288c0.72,1.582,0,2.875,0,2.875s3.163,0.575,5.032,1.366s2.084-0.287,2.084-0.287
	s0-1.079-1.078-1.869c-1.006-0.791,0.863-1.007,2.157-0.791c1.293,0.288,1.078,1.365,1.078,1.365l-0.791,1.869
	c0,0,1.869-1.079,2.084-2.156c0.288-1.078,2.372-2.372,2.372-2.372s3.45-0.791,5.319-1.582c1.868-0.791,4.24-1.078,7.476-1.869
	c3.163-0.791,5.248-1.079,8.77-1.079c4.457,0,5.823,2.66,5.823,7.188c0,4.529-5.032,5.319-5.032,5.319s3.45,1.582,6.9,4.241
	c3.451,2.66,3.163,7.404,3.163,7.404l-2.66,2.947c0,0,1.581,2.372,1.869,7.979c0.288,5.535,0,9.273,0,9.273l-2.66-0.791
	c0,0-0.288,2.372-0.791,8.482c-0.288,3.019-2.3,5.535-4.744,7.188c-1.366,0.934-3.163,1.15-4.385,2.229
	C417.675,216.34,417.531,216.627,417.388,216.843z"/>
<path id="path18108" fill="#0075B2" d="M470.581,260.835c0,0-1.294-0.215-3.163,3.163c-1.869,3.451-1.582,6.11-1.582,6.11
	l3.163-3.451c0,0,0.791,2.947,0.791,5.895c0,2.875,0.575,6.326,1.869,7.691c1.365,1.294,2.66,2.372,2.66,2.372
	s-0.288-1.366-0.288-4.528c0-3.163,0.574-6.613,1.078-3.954c0.574,2.66,0.791,4.457,1.364,7.116c0.503,2.66,1.294,4.313,2.372,7.69
	c1.079,3.451,1.869,5.824,3.451,7.404c1.581,1.581,3.163,2.156,3.163,2.156s-2.084-3.736-2.084-9.057
	c0-5.249-1.366-11.646-1.366-11.646s-2.372-5.248-5.318-8.195C473.815,266.657,470.581,260.835,470.581,260.835z"/>
<path id="path18110" fill="#A5C2DB" d="M449.375,375.99c-1.078,0.359-2.156,0.503-3.307,0.574c-0.791,0-1.581-0.07-2.156,0.576
	c-1.222,1.438-2.876,2.588-4.602,3.234c-0.861,0.288-2.73,0.646-3.594,0.503c-0.863-0.071-0.503-0.862-0.144-1.869
	c0.575-1.582,1.939-2.013,3.307-2.444c1.726-0.502,3.45-1.293,4.097-3.09c0.575-1.726,0.719-3.666,0.862-5.463
	c0.216-5.822-0.862-9.272-4.313-16.173c-3.45-6.899-9.776-11.429-15.887-15.67c-6.109-4.241-6.396-6.397-9.561-10.926
	c-0.145-0.216-0.359-0.433-0.503-0.72c-0.071-0.144-0.145-0.287-0.215-0.502l-0.432-0.504c-1.797-3.449-1.222-5.391-1.222-5.391
	s4.745,0.503,7.404,0.216c2.659-0.216,2.659-1.006,2.659-1.006s-2.371,0.215-6.109,0.215s-8.194-5.821-8.194-5.821
	s1.006,4.24,2.659,7.188c0.791,1.509,1.222,3.163,1.725,4.744l0.145,0.503c0.575,1.797,1.293,3.666,2.588,5.392
	c2.66,3.45,6.11,7.69,6.11,7.69s-4.744-3.738-7.404-6.685c-2.372-2.517-3.881-4.889-5.104-6.687l-0.216-0.358
	c-0.071-0.145-0.216-0.289-0.288-0.359c-1.293-1.869-1.868-7.692-3.666-11.43c-1.868-3.738,1.581-5.033,3.666-8.985
	c2.157-4.025-5.104-5.606-4.6-9.272c0.359-2.301-0.072-4.744-0.288-6.973c-0.216-2.301,0.071-4.601-1.007-6.685
	c-0.862-1.869-2.3-3.379-3.522-5.032c-1.868-2.444-3.81-4.744-5.75-7.116c-0.431-0.575-0.574-1.078-0.862-1.725
	c-0.359-0.719-1.078-1.294-1.582-1.869c-1.365-1.51-1.365-3.019-0.432-4.816c2.157-3.954,3.738-1.869,3.738-1.869
	s-2.66-2.66-0.503-3.737c2.084-1.007,2.372-2.085,3.45-5.823c1.006-3.666,4.744,0.575,8.698,3.451
	c4.025,2.947,6.109,3.45,8.77,7.979c2.66,4.529,3.45,6.11,6.397,7.404c2.875,1.366,5.822,2.66,9.272,7.691
	c3.451,5.104,7.979,12.724,12.723,22.788c4.816,10.063,5.896,15.67,11.143,19.91c5.319,4.241,10.639,0.503,12.795-3.953
	c2.084-4.529,0-8.268-2.66-11.43c-0.719-0.861-1.438-2.014-2.444-2.66c-1.077-0.646-2.587-0.646-3.81-0.719
	c-1.869-0.217-3.666-0.432-5.535-0.288c-0.432,0.071-2.372,0.358-1.94-0.575c0.791-2.012,6.182-2.3,7.906-2.084
	c0.863,0.145,4.241,1.15,5.032,0.791c0.575-0.288,0.936-0.431,0.215-0.791c-0.791-0.288-1.725-0.503-2.516-0.936
	c-0.936-0.43-1.94-0.43-2.947-0.574c-1.006-0.145-1.652-0.719-2.372-1.366c-1.581-1.222-3.307-2.157-4.888-3.235
	c-0.862-0.574-1.653-1.078-2.588-1.293c1.006-1.006,3.233-0.935,4.601-0.935c2.157,0,4.169,0.791,5.966,1.941
	c2.947,1.797,5.535,1.293,5.535,1.293c-1.365-1.006-2.875-1.94-4.385-2.802c-1.078-0.576-2.084-1.15-3.234-1.582
	c-0.935-0.359-2.013-0.575-2.875-1.079c-1.51-0.862-2.588-2.3-3.953-3.306c-2.084-1.653-5.606-3.881-4.602-7.117
	c0.791,0.503,1.654,1.006,2.444,1.438c1.294,0.791,2.946,0.791,4.313,1.438c1.15,0.575,2.517,2.013,4.026,1.366
	c1.222-0.575,0.935-2.3,0.862-3.378c-0.145-1.726-1.869-2.803-3.091-3.81c-1.653-1.293-3.307-3.234-3.379-5.462
	c0-3.738,4.025,0.215,4.889,1.222c0.646,0.719,1.294,1.438,1.94,2.156c0.288,0.288,1.797,1.51,1.726,1.869
	c0.216-3.378,0.646-6.757,1.365-10.063c0.503-2.084,1.15-4.025,2.014-5.966c0.144-0.288,0.215-1.294,0.503-1.438
	c0.503-0.359,1.366,0.646,1.725,0.935c0.791,0.719,1.582,1.438,2.3,2.156c0.288,0.288,1.294,1.079,1.223,1.509
	c0,0.216-0.288,0.36-0.503,0.647c-0.791,1.222-1.007,3.163-1.366,4.601c-0.432,1.797-0.647,3.666-0.862,5.535
	c-1.294,10.567,2.66,18.977,7.979,31.771c1.797,4.241,2.012,9.058,0.287,13.37c-1.295,3.307-3.522,6.109-6.397,8.123
	c-1.653,1.15-3.307,2.084-5.247,2.443c-1.51,0.289-3.235,0.145-4.816-0.144c-2.3-0.431-4.743-1.149-6.757-2.517
	c-0.791-0.502-1.51-1.149-2.3-1.652c-2.084-1.366-3.666-4.744-5.535-9.271c-1.869-4.529-1.078-7.691-2.443-12.508
	c-1.293-4.744-4.241-8.77-6.613-12.652c-2.373-3.954-3.954-4.528-3.954-4.528s0,1.869,1.869,4.025
	c1.797,2.013,1.797,4.385,3.163,10.279c1.294,5.823-0.503,9.273-3.451,12.939c-2.947,3.737-4.816,5.319-4.816,5.319
	s6.11-3.955,7.979-6.613c1.869-2.659,3.233-3.163,3.233-3.163s1.295,3.666,1.582,6.11c0.217,2.371-0.286,5.031,0.504,11.142
	c0.071,0.647,0.215,1.294,0.286,1.868c0,0.072,0.072,0.072,0.072,0.145v0.145c1.078,5.031,3.308,8.984,6.829,11.07
	c3.954,2.443,6.613,2.443,6.613,2.443s2.947,0,6.396,1.582c3.451,1.582-0.575,3.954-0.575,3.954h-3.665l2.659,2.157
	c0,0,1.797,1.869,4.241,6.109c2.372,4.241,3.451,8.194,3.451,8.194l-6.687-6.613l-2.371,1.581c0,0,1.365,1.294,3.45,3.451
	c2.156,2.156,2.947,5.822,2.947,5.822l-0.575,4.529l-5.535-6.613l3.666,10.854l-0.503,5.032l-4.744-4.241l2.875,6.9l0.79,3.738
	l-2.084,3.738l-2.156-0.574l-2.372,4.24l3.954,1.366c0,0-0.791,0.791-2.084,2.372c-1.366,1.582-2.372,3.738-2.372,3.738
	l-3.738-0.288l-1.869-2.156l4.816-9.776l-1.869,0.288l-7.188,8.697l-3.737-1.868l-1.008,1.078l2.372,2.157l3.45,1.293l-2.946,1.079
	c0,0-2.66,1.581-5.032,0.503c-2.372-1.006-0.791-3.45-0.791-3.45s0.288-1.582,3.45-3.666c3.162-2.157,5.031-5.822,5.031-5.822
	l1.582-4.025c0,0-3.45,2.947-5.031,4.529c-1.582,1.58-4.529,2.946-4.529,2.946s-0.503,0.503-1.869,0.503
	c-1.294,0-3.451-1.078-3.451-1.078l0.863-3.449l2.588-2.373c0,0,1.653,0,4.816-0.287c3.162-0.289,5.031-3.164,5.031-3.164
	s2.947,0.504,5.607-1.077C450.741,377.572,449.375,375.99,449.375,375.99z"/>
<path id="path18112" fill="#A5C2DB" d="M401.862,288.15c0,0-3.954,5.822-8.195,5.822c-4.313,0-7.763-0.576-10.135,1.078
	c-2.372,1.582-5.032,5.535-5.032,7.691c0,2.084,2.372,3.451,6.397,3.666c3.952,0.287,7.979,0.574,11.933-3.954
	c3.953-4.528,5.032-6.397,5.032-9.849V288.15z"/>
<path id="path18114" fill="#A5C2DB" d="M402.364,298.213c-1.582,2.085-2.805,4.96-5.68,7.117c-2.013,1.438-4.959,2.084-7.332,2.73
	c-2.731,0.719-5.751,0.289-8.41-0.935c-0.791-0.431-2.444-1.797-2.731-0.144c-0.215,1.797-2.372,5.822-0.791,11.645
	c1.653,5.822,5.895,11.716,3.45,18.042c-2.372,6.397-3.163,7.979-8.771,9.849c-5.534,1.869-10.566,4.24-10.566,4.24
	s-5.319,2.084-9.561,2.66c-4.24,0.503-6.396,1.294-7.188,2.875c-0.791,1.652,0.288,5.32,0.288,5.32s0.216,0,2.084-1.869
	c1.869-1.797,1.869-0.217,4.528-0.791c2.66-0.503,4.816-1.293,4.816-1.293s-1.078,1.078-4.025,1.581
	c-2.876,0.503-4.24,0.288-4.24,2.946c0,2.66,0.288,3.451,2.155,3.953c1.869,0.504,2.085-0.287,3.666-2.084
	c1.653-1.869,5.895-3.234,5.895-3.234s-0.791,0.287-2.947,2.156c-2.084,1.869-2.947,2.66-2.372,4.242
	c0.504,1.58,1.582,3.162,3.451,3.162s1.293-1.294,2.372-2.875c1.078-1.652,1.869-1.652,1.869-3.738c0-2.156,0.791-4.024,0.791-4.024
	s0.791,4.815,1.078,5.894c0.215,1.008,2.659,0,2.659,0s-1.365-2.947,0.504-4.24c1.868-1.365,2.659-0.289,2.659-0.289
	s-1.868,0-2.156,2.158c-0.216,2.084,1.077,2.588,1.077,2.588s2.947,2.443,3.738-0.217s0.791-4.24,2.372-5.894
	c1.582-1.582,2.947-2.084,2.947-2.084s-1.582,0.503-2.373,3.45c-0.862,2.947,0.216,4.24,0.216,4.24s0.575-0.287,2.947,0
	c2.372,0.289,4.527-0.287,2.875-1.869c-1.582-1.58-1.007-3.953-0.216-4.743c0.791-0.791,4.24-6.397,4.24-6.397s0,2.156-1.582,5.032
	c-1.58,2.946,0.504,5.606,0.504,5.606s-0.791,0.502,2.372-0.289c3.234-0.791,3.45-2.658,3.45-2.658s-2.372-1.079-1.869-4.529
	c0.575-3.449,2.66-6.9,2.66-6.9s-2.66,5.104-1.582,7.476c1.078,2.373,3.45,3.45,3.45,3.45s1.869-0.574,2.66-3.737
	s-1.078-7.403-1.078-7.403l2.947,1.006c0,0,0.503,2.66,3.163,1.869s4.025-2.373,1.366-5.822c-2.66-3.451-4.241-6.901-4.026-12.725
	c0.288-5.822,1.582-8.482,3.235-12.22c1.582-3.738,2.372-3.953,1.006-8.481c-1.294-4.529-1.582-6.686,0.288-7.691
	c1.868-1.079,4.24-1.653,3.162-3.451C404.809,299.004,402.364,298.213,402.364,298.213z"/>
<path id="path18116" fill="#0075B2" d="M449.088,162.932c0,0-5.031-2.947-7.907-1.653c-2.946,1.365-5.104,2.156-6.685,4.816
	c-1.581,2.66-3.45,7.979-2.372,12.723c1.079,4.816,1.294,9.273,0.288,15.67c-1.078,6.398-0.791,10.639-4.241,15.671
	c-3.45,5.032-4.241,6.11-7.188,7.979c-2.947,1.797-4.025,5.823,0,4.241c3.952-1.582,6.109-1.365,10.639-6.397
	c4.457-5.032,3.45-5.822,5.822-10.351c2.372-4.529,1.868-8.194,1.868-8.194l-4.024-3.738l4.024,0.791c0,0,0-1.078-0.286-3.737
	c-0.288-2.66-0.288-5.535-0.288-5.535l-2.084-2.156l3.666,1.582c0,0-0.791-1.582-0.503-4.241c0.286-2.66-0.791-2.875-0.791-2.875
	l-3.738-4.025l4.814,1.869c0,0,2.373-2.66,0.505-3.954c-1.869-1.366-3.667-5.032-3.667-5.032l5.821,3.954
	c0,0-1.365-1.366,0.216-2.66c1.653-1.294,0.575-2.372,0.575-2.372l-1.078-2.156l2.947,1.365L449.088,162.932z"/>
<polygon id="polygon18118" fill="#D2232A" points="389.067,178.386 392.589,180.542 392.948,178.386 "/>
<polygon id="polygon18120" fill="#D2232A" points="358.373,371.461 355.425,370.168 359.163,374.121 "/>
<path id="path18122" fill="#D2232A" d="M350.61,367.725c0,0-1.294-0.504-2.372-1.582c-1.079-1.078-2.084-3.164-2.084-3.164
	s0.503,2.875,1.582,5.032c1.078,2.157,2.658,3.163,2.658,3.163L350.61,367.725z"/>
<path id="path18124" fill="#D2232A" d="M341.624,365.352c0,0-0.791-3.164,0-5.319c0.791-2.085,2.084-2.085,2.084-2.085l0.288,4.744
	L341.624,365.352z"/>
<polygon id="polygon18126" fill="#D2232A" points="355.425,301.664 351.184,300.585 354.347,299.292 "/>
<polygon id="polygon18128" fill="#D2232A" points="351.688,306.982 345.29,302.958 347.735,302.167 "/>
<path id="path18130" fill="#D2232A" d="M345.29,306.695c0,0-2.66-2.155-3.378-3.162c-0.863-1.079-0.863-2.444-0.863-2.444
	l2.444,0.287L345.29,306.695z"/>
<polygon id="polygon18132" fill="#D2232A" points="340.546,304.827 337.599,300.082 339.467,300.585 "/>
<path id="path18134" fill="#D2232A" d="M450.454,400.43l-4.025-0.862c0,0,0.575,2.443,1.653,3.737
	c1.006,1.293,2.084,2.372,2.084,2.372L450.454,400.43z"/>
<path id="path18136" fill="#D2232A" d="M439.672,405.246c0,0-1.94-0.359-3.019-1.509c-1.078-1.078-1.941-2.804-1.941-2.804h3.81
	L439.672,405.246z"/>
<polygon id="polygon18138" fill="#D2232A" points="434.136,381.741 434.783,378.146 430.614,382.604 "/>
<path id="path18140" fill="#D2232A" d="M333.142,208.001l-2.443-1.293c0,0,0.288,1.581,0.288,3.163s1.365,2.947,1.365,2.947
	s0.216-1.869,0.216-2.947C332.567,208.792,333.142,208.001,333.142,208.001z"/>
<path id="path18142" fill="#D2232A" d="M342.702,208.792l-2.156,1.654c0,0,1.581,1.006,2.66,2.084
	c1.078,1.078,2.66,1.078,2.66,1.078s-0.791-1.581-1.582-2.66C343.493,209.87,342.702,208.792,342.702,208.792z"/>
<path id="path18144" fill="#D2232A" d="M338.389,210.446l-2.875-1.078c0,0-0.288,1.078,0,3.45s3.451,2.875,3.451,2.875
	s-0.575-1.006-1.078-2.372C337.383,212.027,338.389,210.446,338.389,210.446z"/>
<polygon id="polygon18146" fill="#D2232A" points="431.117,396.117 428.889,390.15 432.699,391.661 "/>
<path id="path18148" fill="#D2232A" d="M384.897,180.399l0.216-1.869l-2.085-1.293c0,0-1.582,1.293-3.45,1.078
	c-1.869-0.288-4.241-2.947-5.32-2.444c-1.078,0.575-2.947,1.078-0.288,2.947c2.66,1.869,4.241,2.372,6.901,2.157
	C383.531,180.686,384.897,180.399,384.897,180.399z"/>
<path id="path18150" d="M274.845,301.089c-2.3-0.288-4.6-0.719-6.829-1.149c-1.366-0.289-2.157-0.647-2.588-0.936
	c-0.647-0.503-0.719-0.861-0.072-1.294c0.575-0.358,1.582-0.791,2.731-1.222c2.516-0.647,5.032-1.223,7.547-1.653
	c8.195-1.294,16.533-1.294,24.728,0c2.517,0.431,5.033,1.006,7.549,1.653c1.149,0.432,2.157,0.863,2.73,1.222
	c0.647,0.433,0.575,0.791-0.071,1.294c-0.432,0.288-1.223,0.646-2.588,0.936c-2.229,0.431-4.528,0.862-6.829,1.149
	C292.457,302.238,283.543,302.238,274.845,301.089z"/>
<path id="path18152" fill="#FFFFFF" d="M268.304,292.68c-4.529,1.077-8.482,2.516-11.357,4.385l-5.607-23.505l11.501-2.947
	l1.438,6.613l6.038-1.294l-0.791-6.11l14.377-1.509l0.503,6.469c2.444,0,4.744,0,7.188,0l0.504-6.469l14.375,1.509l-0.791,6.11
	l6.038,1.294l1.438-6.613l11.501,2.947l-5.606,23.505c-2.876-1.869-6.829-3.308-11.356-4.385
	C295.188,289.66,280.812,289.66,268.304,292.68z"/>
<path id="path18154" fill="#8B8F9E" d="M303.958,299.292c0.575-0.144,1.222-0.216,1.797-0.358c1.222-0.216,2.66-0.359,2.948-0.576
	c0.503-0.431-2.372-0.861-3.883-1.222c-1.149-0.216-2.371-0.503-3.594-0.719L303.958,299.292z"/>
<path id="path18156" fill="#8B8F9E" d="M281.531,300.37c4.313,0.288,8.625,0.288,12.938,0l-4.888-5.032c-1.079,0-2.085,0-3.163,0
	L281.531,300.37z"/>
<path id="path18158" fill="#8B8F9E" d="M270.245,298.934c0.575,0.144,1.222,0.215,1.797,0.358l2.731-2.875
	c-1.222,0.216-2.444,0.503-3.594,0.719c-1.51,0.359-4.385,0.791-3.882,1.222C267.586,298.573,269.023,298.717,270.245,298.934z"/>
<path id="path18160" fill="#FFFFFF" d="M295.764,301.664l2.012,2.085c-3.234,0.215-6.541,0.358-9.775,0.358
	c-3.235,0-6.542-0.144-9.776-0.358l2.012-2.085C285.412,302.023,290.588,302.023,295.764,301.664z"/>
<path id="path18162" fill="#FFFFFF" d="M267.514,302.167c-2.66-0.575-5.319-1.294-7.548-2.372c-2.66-1.15-2.372-1.725,0.144-2.875
	c7.476-3.451,17.683-5.176,27.89-5.176s20.414,1.725,27.89,5.176c2.517,1.15,2.804,1.725,0.145,2.875
	c-2.229,1.078-4.89,1.797-7.548,2.372c-0.503,0.144-0.936,0.216-1.438,0.288l-1.94-1.939c1.006-0.217,1.94-0.359,2.875-0.576
	c1.365-0.287,2.156-0.646,2.588-0.935c0.646-0.503,0.719-0.862,0.071-1.294c-0.574-0.359-1.582-0.791-2.73-1.222
	c-2.517-0.647-5.032-1.222-7.548-1.653c-8.194-1.294-16.533-1.294-24.729,0c-2.516,0.432-5.032,1.006-7.547,1.653
	c-1.15,0.432-2.156,0.862-2.731,1.222c-0.647,0.432-0.575,0.791,0.072,1.294c0.431,0.288,1.222,0.647,2.588,0.935
	c0.935,0.217,1.869,0.359,2.875,0.576l-1.94,1.939C268.448,302.383,268.017,302.311,267.514,302.167z"/>
<path id="path18164" fill="#F3CE00" d="M271.683,268.167l-8.41-8.698l-0.216-2.085l-1.797-1.797h-2.731l-25.734-27.603l-2.659,2.444
	l10.567,12.795c-1.654,0.718-3.667,3.306-5.607,4.025c-2.013,0.791-3.954-1.581-5.391-2.731l-9.92,9.272l6.182,7.547l3.451-3.306
	l-3.81-3.307l5.176-4.528l3.594,3.378l3.307-3.45l4.169,4.169l-3.666,4.025l3.594,4.169l-4.888,4.241l-3.235-2.804l-2.947,3.522
	l5.319,4.457l10.279-9.489c-0.575-0.646-1.582-1.796-1.653-1.796l0,0c-1.079-1.15-0.647-2.084,0.215-2.875
	c0.719-0.719,3.235-2.444,3.954-2.803c2.228-0.935,3.235,0.718,5.104,3.019c0.359,0.432,0.719,1.006,1.078,1.582
	c2.732,4.241,3.307,1.869,6.038,4.672l7.26,7.404l-0.36-3.091L271.683,268.167z"/>
<path id="path18166" fill="#F3CE00" d="M307.696,271.618l7.26-7.404c2.731-2.803,3.306-0.431,6.038-4.672
	c0.358-0.575,0.719-1.15,1.079-1.582c1.869-2.3,2.875-3.953,5.104-3.019c0.72,0.359,3.235,2.084,3.953,2.803
	c0.863,0.791,1.294,1.725,0.216,2.875l0,0c-0.071,0-1.078,1.15-1.652,1.796l10.278,9.489l5.319-4.457l-2.947-3.522l-3.234,2.804
	l-4.889-4.241l3.595-4.169l-3.667-4.025l4.169-4.169l3.307,3.45l3.594-3.378l5.175,4.528l-3.81,3.307l3.451,3.306l6.182-7.547
	l-9.92-9.272c-1.438,1.15-3.378,3.522-5.391,2.731c-1.94-0.719-3.953-3.307-5.606-4.025l10.567-12.795l-2.66-2.444l-25.734,27.603
	h-2.731l-1.797,1.797l-0.217,2.085l-8.41,8.698l3.738,0.359L307.696,271.618z"/>
<path id="path18168" fill="#F3CE00" d="M239.695,315.896c1.725,1.653,3.81,1.726,3.451,4.959c-0.072,1.08-0.432,2.158-0.719,3.235
	c-1.007,3.45-1.725,6.542-1.869,10.136c-0.072,1.582,0.072,2.588-1.653,3.234c-1.006,0.432-1.582,0.791-1.797,1.223
	c-0.503,1.149,0.431,3.449,1.509,3.952c3.091,1.438,4.385-2.372,4.888-4.6c6.11,0.431,12.005,0.791,18.043-0.359
	c0.647,1.222,1.438,3.019,2.731,3.737c0.934,0.432,2.228,0.288,3.235-0.287c1.078-0.575,1.653-1.51,1.15-2.732
	c-0.791-1.939-2.731-3.019-3.954-4.6c-1.078-1.509-0.215-3.521,0.575-5.176c0.144-0.359,0.287-0.719,0.431-1.078l0,0
	c0.719-1.941,0.288-3.811-0.215-5.822l0,0c0-0.144-0.072-0.359-0.144-0.719l0,0c-0.575-2.588,0.215-4.672,1.294-6.973
	c1.078-0.217,2.156-0.575,3.163-0.936c0.216-1.006,0.36-2.156,0.36-3.234l14.232-14.521c-2.444,0.144-4.816,0.358-7.188,0.72
	l-10.926,11.213c-0.719-0.145-1.438-0.359-2.157-0.359c-0.431,1.078-0.647,2.156-0.862,3.234c-2.084,1.438-3.882,3.451-6.542,3.09
	c-2.516-0.359-5.032,0.216-7.476,0.72c-0.935,0.216-1.51,0.287-2.372,0l0,0c-1.51-0.575-2.732-1.94-4.169-2.731
	c-1.078-0.574-3.019-1.293-3.81,0.071C238.042,312.95,238.33,314.602,239.695,315.896L239.695,315.896z M258.744,330.992
	l-14.161,3.379l3.522-13.012l14.232-5.104L258.744,330.992z"/>
<polygon id="polygon18170" fill="#0067B4" points="312.008,269.245 310.643,275.499 307.264,274.852 307.408,273.99 "/>
<polygon id="polygon18172" fill="#0067B4" points="268.591,273.99 268.736,274.852 265.357,275.499 263.991,269.245 "/>
<polygon id="polygon18174" fill="#0067B4" points="318.478,329.842 315.674,318.484 326.744,322.51 329.404,332.357 "/>
<polygon id="polygon18176" fill="#0067B4" points="257.522,329.842 260.325,318.484 249.256,322.51 246.596,332.357 "/>
<path id="path18178" fill="#F3CE00" d="M336.305,315.896c-1.725,1.653-3.81,1.726-3.451,4.959c0.072,1.08,0.433,2.158,0.72,3.235
	c1.006,3.45,1.725,6.542,1.869,10.136c0.07,1.582-0.072,2.588,1.652,3.234c1.006,0.432,1.582,0.791,1.797,1.223
	c0.503,1.149-0.431,3.449-1.509,3.952c-3.091,1.438-4.385-2.372-4.888-4.6c-6.11,0.431-12.004,0.791-18.043-0.359
	c-0.647,1.222-1.438,3.019-2.731,3.737c-0.935,0.432-2.228,0.288-3.233-0.287c-1.078-0.575-1.653-1.51-1.15-2.732
	c0.791-1.939,2.732-3.019,3.954-4.6c1.078-1.509,0.216-3.521-0.575-5.176c-0.144-0.359-0.288-0.719-0.432-1.078l0,0
	c-0.719-1.941-0.288-3.811,0.216-5.822l0,0c0-0.144,0.072-0.359,0.144-0.719l0,0c0.575-2.588-0.215-4.672-1.294-6.973
	c-1.077-0.217-2.155-0.575-3.162-0.936c-0.215-1.006-0.359-2.156-0.359-3.234l-14.232-14.521c2.443,0.144,4.815,0.358,7.188,0.72
	l10.926,11.213c0.719-0.145,1.438-0.359,2.157-0.359c0.431,1.078,0.646,2.156,0.861,3.234c2.085,1.438,3.883,3.451,6.542,3.09
	c2.517-0.359,5.032,0.216,7.477,0.72c0.935,0.216,1.51,0.287,2.372,0l0,0c1.51-0.575,2.731-1.94,4.169-2.731
	c1.078-0.574,3.019-1.293,3.81,0.071C337.958,312.95,337.671,314.602,336.305,315.896L336.305,315.896z M317.256,330.992
	l14.161,3.379l-3.522-13.012l-14.232-5.104L317.256,330.992z"/>
<path id="path18180" fill="#A5C2DB" d="M309.133,537.15c-2.443,2.156-5.535,2.875-8.77,3.019c-3.379,0.144-6.973-0.144-10.135-1.438
	l-0.289-6.47l0.72-0.071c2.3,1.294,5.391,2.371,7.979,2.228c1.51-0.072,3.307-0.288,4.457-1.222c2.156-1.726,1.94-5.535-0.863-6.325
	c-1.51-0.432-3.234-0.288-4.744-0.216l-1.293,0.071l-0.217-5.318h1.223c1.797-0.072,4.529-0.145,5.607-1.94
	c0.861-1.438,0.358-3.451-1.223-4.169c-1.581-0.719-3.953-0.503-5.607-0.072c-1.939,0.575-3.521,1.366-5.246,2.517h-0.575
	l-0.287-6.397c2.803-1.365,6.253-2.155,9.416-2.3c3.522-0.216,8.411,0.288,10.423,3.738c0.575,0.934,0.863,2.012,0.935,3.233
	c0.145,3.378-1.797,6.255-5.104,7.188l0.071,0.287c1.511,0.144,2.876,0.575,4.098,1.582
	C313.375,528.021,312.44,534.203,309.133,537.15z"/>
<path id="path18182" fill="#FFFFFF" d="M52.658,366.286l4.744-1.509l-0.503-1.726c-0.719-2.659-1.941-3.737-3.666-3.235
	c-2.085,0.72-1.941,2.875-1.294,4.601L52.658,366.286L52.658,366.286z M63.296,362.908l8.267-2.66
	c0.215-0.072,0.503-0.072,0.718,0.072c0.288,0.144,0.503,0.359,0.575,0.646l2.229,7.044c0.071,0.216,0,0.503-0.072,0.791
	c-0.144,0.288-0.36,0.433-0.647,0.503l-23.865,7.547c-0.288,0.072-0.503,0.072-0.791-0.07c-0.288-0.145-0.431-0.288-0.503-0.575
	l-3.091-9.776c-0.647-2.084-1.078-3.953-1.294-5.605c-0.575-4.602,0.863-8.194,5.535-9.633c2.875-0.935,5.319-0.719,7.26,0.719
	c2.013,1.438,3.522,3.953,4.601,7.548L63.296,362.908z"/>
<path id="path18184" fill="#FFFFFF" d="M67.394,342.852c0.072,0.287,0,0.575-0.144,0.791c-0.215,0.215-0.431,0.359-0.719,0.432
	l-24.583,4.816c-0.288,0-0.503,0-0.791-0.216c-0.215-0.144-0.359-0.36-0.431-0.647l-3.81-19.768c-0.072-0.287,0-0.574,0.144-0.791
	c0.144-0.215,0.359-0.359,0.647-0.431l4.96-1.006c0.287,0,0.575,0,0.791,0.215c0.287,0.144,0.431,0.358,0.431,0.647l2.228,11.43
	l2.732-0.575l-1.869-9.776c-0.072-0.215,0-0.503,0.144-0.718c0.144-0.288,0.36-0.432,0.647-0.503l4.888-0.936
	c0.288-0.071,0.575,0,0.791,0.145c0.288,0.216,0.431,0.432,0.503,0.719l1.941,9.704l2.804-0.575l-2.374-12.293
	c-0.072-0.287,0-0.574,0.144-0.791c0.144-0.287,0.431-0.358,0.719-0.432l4.96-1.006c0.287-0.072,0.503,0,0.719,0.145
	c0.288,0.144,0.431,0.43,0.503,0.719L67.394,342.852z"/>
<path id="path18186" fill="#FFFFFF" d="M62.146,310.002c0,0.288-0.072,0.503-0.288,0.719c-0.216,0.217-0.431,0.359-0.719,0.359
	l-19.192,1.51l0.503,7.116c0.072,0.647-0.36,1.079-0.935,1.149l-4.744,0.359c-0.575,0-1.007-0.359-1.078-0.936l-1.869-23.936
	c0-0.574,0.359-1.078,1.006-1.15l4.672-0.359c0.575,0,1.078,0.432,1.15,1.006l0.575,7.117l19.193-1.51
	c0.288,0,0.503,0.072,0.719,0.287c0.288,0.145,0.36,0.359,0.36,0.719L62.146,310.002z"/>
<path id="path18188" fill="#FFFFFF" d="M60.924,290.666c0,0.575-0.503,1.006-1.078,1.006l-25.015-0.936
	c-0.575-0.071-1.078-0.502-1.006-1.077l0.719-20.127c0.072-0.503,0.503-1.006,1.078-1.006l5.104,0.215
	c0.503,0,1.006,0.504,1.006,1.079l-0.431,11.645l2.732,0.072l0.36-9.919c0.072-0.575,0.575-1.007,1.15-1.007l4.96,0.216
	c0.575,0,1.006,0.431,1.006,1.078l-0.288,9.919l2.875,0.072l0.431-12.507c0.072-0.647,0.575-1.078,1.15-1.006l5.032,0.144
	c0.575,0.072,1.006,0.503,1.006,1.078L60.924,290.666z"/>
<path id="path18190" fill="#FFFFFF" d="M42.522,254.15l5.104,0.862l0.719-4.097c0.287-1.869,0.719-5.104-1.869-5.535
	c-2.084-0.359-2.804,1.797-3.019,3.45L42.522,254.15L42.522,254.15z M53.808,255.803l8.41,1.366
	c0.575,0.144,0.935,0.647,0.863,1.222l-1.222,7.619c-0.144,0.576-0.647,0.935-1.222,0.863l-24.728-4.098
	c-0.575-0.072-0.935-0.647-0.863-1.15l2.803-17.18c0.503-2.947,1.51-5.176,3.163-6.757c1.725-1.653,3.738-2.3,6.038-1.94
	c2.588,0.432,4.313,1.51,5.247,3.307c0.503,1.007,0.791,2.157,1.007,3.235c0.863-1.078,1.941-2.013,3.163-2.66l8.626-3.379
	c0.862-0.359,1.582,0.216,1.438,1.15l-1.438,8.626c-0.072,0.431-0.36,0.719-0.719,0.863l-7.548,2.587
	c-1.869,0.647-2.084,0.503-2.516,3.019L53.808,255.803z"/>
<path id="path18192" fill="#FFFFFF" d="M59.055,222.738l4.96,1.509l0.647-2.3c0.288-0.934,0.359-1.797,0.071-2.516
	c-0.288-0.719-0.791-1.222-1.509-1.438c-0.718-0.216-1.438-0.144-2.084,0.288c-0.646,0.432-1.078,1.15-1.366,2.085L59.055,222.738
	L59.055,222.738z M49.926,219.934l4.097,1.294l0.647-2.013c0.216-0.862,0.216-1.581-0.072-2.228
	c-0.216-0.647-0.647-1.078-1.15-1.222c-0.575-0.144-1.15-0.072-1.725,0.288c-0.575,0.359-0.934,1.007-1.222,1.869L49.926,219.934
	L49.926,219.934z M67.61,233.879c-0.144,0.216-0.288,0.432-0.575,0.575c-0.216,0.144-0.503,0.216-0.719,0.072l-24.008-7.188
	c-0.288-0.072-0.503-0.288-0.647-0.503c-0.144-0.288-0.144-0.503-0.072-0.791l4.025-13.371c0.36-1.222,0.791-2.156,1.366-3.019
	c0.647-0.863,1.294-1.582,2.085-2.157c0.863-0.575,1.725-0.935,2.66-1.15c0.863-0.144,1.797-0.144,2.803,0.215
	c1.222,0.359,2.228,0.935,2.947,1.725c0.791,0.791,1.294,1.869,1.51,3.163c0.791-1.006,1.653-1.726,2.516-2.084
	c1.653-0.719,3.45-0.791,5.463-0.144c2.229,0.647,3.738,2.013,4.672,4.169c0.791,2.013,0.791,4.313,0,6.901L67.61,233.879z"/>
<path id="path18194" fill="#FFFFFF" d="M154.515,94.931c3.378,0.359,7.835-2.372,9.776-5.032l-1.006-1.438l-3.019,2.013
	c-0.431,0.359-1.15,0.215-1.438-0.288l-2.588-3.81c-0.288-0.503-0.144-1.15,0.359-1.438l9.201-6.182
	c0.504-0.359,1.15-0.215,1.438,0.288l6.757,10.063c0.216,0.359,0.216,0.935-0.072,1.294c-2.66,3.307-6.11,6.182-9.632,8.554
	c-4.744,3.163-8.985,4.673-12.723,4.529c-3.738-0.144-6.901-2.157-9.417-5.966c-5.463-8.194-1.582-16.461,5.966-21.493
	c3.091-2.084,6.613-4.025,10.207-5.104c0.359-0.144,0.862,0,1.15,0.287l3.163,3.667c0.503,0.647,0.288,1.509-0.503,1.725
	c-4.672,1.438-11.717,4.169-13.227,9.417C147.83,89.899,150.489,94.428,154.515,94.931z"/>
<path id="path18196" fill="#FFFFFF" d="M172.557,62.225c0.503-0.216,1.15,0,1.438,0.503l3.738,7.835l7.979-3.881l-3.81-7.835
	c-0.216-0.503,0-1.15,0.503-1.366l6.901-3.307c0.503-0.287,1.15-0.072,1.366,0.431l10.998,22.571
	c0.215,0.503-0.072,1.15-0.575,1.366l-6.829,3.378c-0.503,0.216-1.15,0-1.438-0.503l-4.026-8.338l-7.907,3.882l4.025,8.338
	c0.215,0.503,0,1.15-0.503,1.365l-6.901,3.307c-0.503,0.288-1.15,0.072-1.366-0.431l-10.926-22.571
	c-0.216-0.504-0.072-1.151,0.503-1.366L172.557,62.225z"/>
<path id="path18198" fill="#FFFFFF" d="M224.24,43.607c-0.144-0.575,0.144-1.15,0.719-1.294l6.9-1.941
	c0.504-0.144,1.079,0.215,1.294,0.719l4.744,16.964c0.862,3.235,0.288,5.823-1.797,7.835c-4.025,3.881-14.376,6.9-19.767,5.606
	c-2.731-0.646-4.601-2.731-5.535-6.182l-4.672-16.605c-0.215-0.503,0.216-1.15,0.719-1.294l6.829-1.869
	c0.575-0.216,1.15,0.144,1.293,0.647l3.882,13.729c0.432,1.582,1.079,2.516,2.013,3.019c1.869,0.862,5.966-0.288,7.044-2.085
	c0.575-0.863,0.575-2.084,0.144-3.594L224.24,43.607z"/>
<path id="path18200" fill="#FFFFFF" d="M259.031,49.933l-1.869-12.579c-0.071-0.575,0.359-1.078,0.935-1.15l6.685-1.006
	c0.575-0.072,1.15,0.288,1.222,0.863l3.522,24.871c0.144,0.503-0.287,1.078-0.862,1.15l-7.691,1.078
	c-0.288,0.072-0.719-0.071-0.935-0.287L248.537,51.3l1.797,12.364c0.072,0.575-0.359,1.078-0.934,1.222l-6.686,0.934
	c-0.575,0.072-1.078-0.359-1.222-0.862l-3.522-24.799c-0.072-0.575,0.288-1.15,0.863-1.222l7.62-1.078
	c0.287-0.072,0.791,0.072,0.934,0.287C251.268,42.097,255.15,45.979,259.031,49.933z"/>
<path id="path18202" fill="#FFFFFF" d="M273.623,62.153c-0.503,0-0.934-0.503-0.934-1.007l-1.366-25.015
	c0-0.503,0.288-1.078,0.862-1.078l6.398-0.359c0.575-0.072,0.934,0.431,1.006,0.934l1.294,25.087
	c0.072,0.503-0.288,1.006-0.791,1.078L273.623,62.153z"/>
<path id="path18204" fill="#FFFFFF" d="M291.594,61.578c-0.574,0-1.078-0.503-1.006-1.006l0.503-19.336l-7.044-0.215
	c-0.647,0-1.078-0.503-1.006-1.078l0.144-4.672c0-0.575,0.432-1.078,1.006-1.006l23.937,0.647c0.504,0,1.079,0.503,1.007,1.078
	l-0.144,4.744c0,0.575-0.503,1.007-1.079,1.007l-7.116-0.216l-0.575,19.264c0,0.647-0.503,1.078-1.078,1.078L291.594,61.578z"/>
<path id="path18206" fill="#FFFFFF" d="M310.859,62.44c-0.575-0.072-0.936-0.575-0.863-1.15l3.594-24.799
	c0.072-0.575,0.647-1.006,1.15-0.863l19.982,2.875c0.575,0.072,1.006,0.647,0.863,1.222l-0.719,4.96
	c-0.072,0.575-0.575,1.006-1.15,0.934l-11.501-1.725l-0.431,2.803l9.848,1.438c0.575,0.072,0.935,0.575,0.863,1.15l-0.719,4.888
	c-0.072,0.575-0.575,1.006-1.15,0.935l-9.848-1.366l-0.433,2.875l12.437,1.797c0.575,0.072,1.006,0.647,0.861,1.222l-0.719,4.96
	c-0.072,0.575-0.575,1.006-1.149,0.934L310.859,62.44z"/>
<path id="path18208" fill="#FFFFFF" d="M375.481,78.685c-0.504-0.288-0.791-0.863-0.504-1.438l10.64-22.643
	c0.288-0.575,0.935-0.791,1.438-0.503l19.265,9.057c0.503,0.216,0.719,0.863,0.431,1.366l-2.156,4.6
	c-0.216,0.503-0.791,0.791-1.366,0.503l-11.501-5.391l-1.438,2.947l8.554,4.025c0.503,0.216,0.718,0.863,0.503,1.366l-2.228,4.529
	c-0.216,0.503-0.863,0.718-1.366,0.503l-8.482-4.026l-3.666,7.764c-0.215,0.503-0.791,0.791-1.365,0.503L375.481,78.685z"/>
<path id="path18210" fill="#FFFFFF" d="M491.642,146.398l-3.594,2.444l1.15,1.725c0.719,1.006,2.228,2.084,3.45,1.294
	c1.294-0.863,0.935-2.588,0.144-3.666L491.642,146.398L491.642,146.398z M483.663,151.79l-4.241,2.947l1.366,1.941
	c0.862,1.294,2.516,2.372,3.954,1.366c1.581-1.006,1.293-2.804,0.358-4.169L483.663,151.79L483.663,151.79z M469.718,151.43
	c-0.358-0.431-0.215-1.078,0.216-1.438l20.702-14.161c0.432-0.288,1.15-0.144,1.438,0.288l7.907,11.573
	c2.301,3.307,2.876,8.267-0.791,10.711c-2.084,1.438-4.385,1.653-6.686,0.431c0.718,3.235-0.503,5.751-3.235,7.62
	c-4.313,2.947-8.912,0.575-11.572-3.306L469.718,151.43z"/>
<path id="path18212" fill="#FFFFFF" d="M498.759,179.033l2.947,5.751l3.953-5.463L498.759,179.033L498.759,179.033z M495.38,194.559
	c-0.144-0.288-0.144-0.791,0.072-1.078l2.228-3.091l-5.895-11.645h-3.811c-0.358,0-0.791-0.288-0.935-0.575l-3.234-6.397
	c-0.432-0.791,0-1.653,0.936-1.582l28.752,1.366c0.288,0,0.791,0.287,0.935,0.575l2.731,5.462c0.216,0.36,0.144,0.791-0.072,1.15
	l-16.246,23.218c-0.575,0.719-1.438,0.647-1.869-0.144L495.38,194.559z"/>
<path id="path18214" fill="#FFFFFF" d="M509.972,209.798l4.313,12.364c0.216,0.575-0.071,1.15-0.647,1.366l-5.606,1.94
	c-0.862,0.288-1.222-0.359-1.51-1.006l-6.899-20.056c-0.145-0.575,0.072-1.15,0.646-1.365l23.723-8.195
	c0.503-0.216,1.078,0.072,1.294,0.647l2.442,7.116c0.145,0.503-0.07,1.15-0.646,1.366L509.972,209.798z"/>
<path id="path18216" fill="#FFFFFF" d="M517.448,235.101l2.875,12.795c0.071,0.575-0.215,1.15-0.791,1.294l-5.822,1.294
	c-0.575,0.144-1.15-0.288-1.222-0.791l-4.744-21.134c-0.145-0.575,0.216-1.15,0.791-1.294l24.439-5.462
	c0.575-0.144,1.15,0.215,1.293,0.791l1.582,7.332c0.145,0.575-0.215,1.15-0.791,1.293L517.448,235.101z"/>
<path id="path18218" fill="#FFFFFF" d="M523.414,273.773c-1.15,1.582-1.654,3.667-1.509,6.254c0.143,3.091,1.078,6.398,2.443,9.129
	c0.288,0.718-0.144,1.438-0.935,1.509l-5.176,0.144c-0.433,0-0.862-0.287-1.006-0.646c-1.511-3.45-2.086-7.332-2.302-11.141
	c-0.288-5.104,0.72-9.129,2.875-12.148c4.458-6.398,15.456-6.83,20.774-1.366c3.091,3.091,4.169,7.548,4.385,11.717
	c0.215,3.522,0,7.188-0.935,10.495c-0.071,0.359-0.503,0.719-0.862,0.791l-5.104,0.647c-0.791,0.144-1.365-0.575-1.078-1.366
	c1.294-4.241,2.66-10.926-0.935-14.52C531.321,270.539,525.859,270.683,523.414,273.773z"/>
<path id="path18220" fill="#FFFFFF" d="M523.198,302.814l-0.935,13.082c0,0.576-0.504,1.006-1.079,1.006l-5.966-0.432
	c-0.503-0.072-1.006-0.574-0.935-1.078l1.438-21.637c0.072-0.574,0.575-1.006,1.15-1.006l25.015,1.725
	c0.575,0.072,1.006,0.504,0.936,1.15l-0.503,7.477c0,0.574-0.575,1.006-1.078,1.006L523.198,302.814z"/>
<path id="path18222" fill="#FFFFFF" d="M536.281,341.486c0.574,0.072,0.861,0.647,0.791,1.223l-1.366,7.044
	c-0.072,0.504-0.647,0.935-1.222,0.791l-17.251-3.308c-7.907-1.508-7.333-9.344-6.183-15.525
	c1.294-6.613,3.522-13.586,11.789-12.004l16.964,3.307c0.575,0.072,0.936,0.647,0.791,1.223l-1.294,6.973
	c-0.144,0.575-0.646,0.934-1.222,0.861l-14.017-2.73c-3.308-0.574-4.674,0.862-5.248,4.025c-0.647,3.091,0.358,4.816,3.521,5.463
	L536.281,341.486z"/>
<path id="path18224" fill="#FFFFFF" d="M525.427,362.404l-4.097-1.365l-0.647,2.013c-0.432,1.15-0.288,3.019,1.078,3.45
	c1.438,0.503,2.588-0.791,3.021-2.085L525.427,362.404L525.427,362.404z M516.298,359.457l-4.888-1.582l-0.791,2.229
	c-0.433,1.51-0.288,3.451,1.365,4.025c1.797,0.503,3.02-0.719,3.521-2.3L516.298,359.457L516.298,359.457z M508.031,348.172
	c0.144-0.574,0.791-0.861,1.294-0.719l23.865,7.763c0.503,0.144,0.791,0.72,0.646,1.294l-4.313,13.299
	c-0.936,2.875-3.02,5.605-6.183,6.182c-3.451,0.574-6.686-1.941-7.188-5.248c-2.157,2.516-4.889,3.091-7.979,2.085
	c-5.032-1.654-5.966-6.687-4.527-11.214L508.031,348.172z"/>
<path id="path18226" fill="#FFFFFF" d="M124.18,94.428l5.319-4.744c0.432-0.359,1.15-0.288,1.51,0.144l11.645,13.155
	c5.319,6.038,0.072,11.86-4.601,16.03c-5.032,4.457-11.069,8.625-16.676,2.3l-11.429-12.867c-0.359-0.431-0.288-1.15,0.144-1.509
	l5.319-4.745c0.432-0.359,1.079-0.359,1.438,0.072l9.488,10.71c2.228,2.516,4.169,2.157,6.613,0.072
	c2.3-2.157,2.66-4.097,0.503-6.542l-9.345-10.495C123.749,95.506,123.677,94.859,124.18,94.428z"/>
<path id="path18228" fill="#FFFFFF" d="M115.914,141.51c-6.11,7.188-13.37,9.92-21.206,3.235
	c-7.763-6.613-6.253-14.305-0.072-21.492c6.11-7.188,13.442-9.92,21.206-3.235C123.677,126.703,122.168,134.25,115.914,141.51
	L115.914,141.51z M100.747,128.5c-2.588,3.019-2.947,6.182,0.215,8.913c3.163,2.732,6.326,1.869,8.914-1.15
	c2.516-3.019,2.947-6.182-0.216-8.914C106.426,124.618,103.335,125.481,100.747,128.5z"/>
<path id="path18230" fill="#FFFFFF" d="M86.011,165.735l7.188,4.601c0.431,0.288,0.575,1.006,0.288,1.438l-4.169,6.469
	c-0.288,0.503-0.935,0.647-1.438,0.36l-21.062-13.586c-0.503-0.287-0.647-0.934-0.359-1.438l9.417-14.592
	c2.587-3.953,7.26-7.404,11.86-4.385c3.379,2.157,4.098,5.032,3.163,8.554c1.222-0.718,2.588-1.15,3.953-1.222l9.273,0.288
	c0.935,0.072,1.366,0.863,0.863,1.654l-4.744,7.404c-0.216,0.288-0.647,0.503-1.006,0.431l-8.267-0.647
	c-1.725-0.144-1.941-0.144-3.163,1.797L86.011,165.735L86.011,165.735z M80.62,162.5l2.3-3.45c1.006-1.582,2.731-4.385,0.503-5.822
	c-1.797-1.15-3.307,0.575-4.169,1.94l-2.947,4.601L80.62,162.5z"/>
<path id="path18232" fill="#FFFFFF" d="M81.698,195.278c-3.882,8.626-10.135,13.298-19.48,8.985
	c-9.345-4.241-9.992-11.932-6.038-20.558c3.882-8.698,10.135-13.298,19.48-9.058C85.076,178.889,85.652,186.509,81.698,195.278
	L81.698,195.278z M63.512,187.012c-1.653,3.594-1.15,6.757,2.66,8.482c3.882,1.797,6.613,0.072,8.194-3.522
	c1.654-3.666,1.15-6.829-2.659-8.554C67.897,181.692,65.093,183.418,63.512,187.012z"/>
<path id="path18234" fill="#FFFFFF" d="M354.707,51.801l-5.822-1.653l-2.875,10.279l5.606,1.581c3.307,0.863,5.391-0.575,6.326-3.81
	C358.804,55.108,358.013,52.664,354.707,51.801L354.707,51.801z M366.999,60.715c-2.084,7.691-9.201,11.501-16.892,9.417
	l-14.664-4.098c-0.575-0.144-0.936-0.719-0.791-1.294l6.685-24.152c0.145-0.575,0.791-0.863,1.294-0.719l13.514,3.738
	C364.41,45.907,369.443,51.945,366.999,60.715z"/>
<path id="path18236" fill="#FFFFFF" d="M437.515,118.005c-7.115-6.254-9.775-13.513-3.019-21.277
	c6.757-7.692,14.376-6.11,21.493,0.144c7.188,6.254,9.775,13.586,3.019,21.277C452.251,125.912,444.703,124.33,437.515,118.005
	L437.515,118.005z M450.67,102.91c-2.947-2.588-6.182-3.02-8.914,0.144c-2.73,3.163-1.94,6.254,1.078,8.913
	c2.947,2.588,6.182,3.019,8.985-0.144C454.551,108.661,453.689,105.569,450.67,102.91z"/>
<path id="path18238" fill="#FFFFFF" d="M457.282,135.329l14.521-12.723l-4.672-5.391c-0.432-0.432-0.359-1.079,0.071-1.509
	l3.594-3.091c0.432-0.359,1.079-0.288,1.438,0.072l15.741,18.114c0.432,0.432,0.432,1.079-0.071,1.438l-3.522,3.09
	c-0.431,0.432-1.078,0.359-1.509-0.072l-4.672-5.391l-14.521,12.723c-0.503,0.359-1.078,0.288-1.509-0.144l-4.815-5.535
	C456.923,136.478,456.708,135.831,457.282,135.329z"/>
<path id="path18240" fill="#FFFFFF" d="M410.631,97.806c-7.979-5.104-11.717-12.004-6.182-20.63
	c5.535-8.625,13.298-8.122,21.349-3.019c7.979,5.103,11.573,12.004,6.038,20.63S418.682,102.91,410.631,97.806L410.631,97.806z
	 M421.413,80.914c-3.378-2.157-6.542-2.084-8.841,1.438c-2.229,3.594-1.007,6.542,2.372,8.626c3.307,2.156,6.612,2.156,8.841-1.366
	C426.086,86.017,424.72,83.07,421.413,80.914z"/>
<path id="path18242" fill="#8B8F9E" d="M225.247,477.057c-6.398,2.372-12.939,4.744-19.983,7.044
	c-13.299,4.313-32.275,8.123-50.317,8.771c-13.658,0.503-27.387-0.503-39.895-6.326c3.666-6.326,5.104-12.363,5.032-19.696
	c-3.881,1.079-7.763,2.66-11.645,4.241c-3.451,1.438-6.829,2.804-10.28,3.882c-8.481,2.587-16.676,3.954-24.511,3.954
	c-8.41,0-16.03-1.726-23.793-5.032c3.019-7.26,4.457-14.808,2.444-21.779c-1.365-4.744-5.104-9.201-6.757-14.018
	c-2.732-7.835,0.431-14.664,7.62-18.761c5.175-2.947,12.507-4.96,18.402-3.235c5.822,1.653,9.272,6.758,9.416,14.233
	c0.072,3.019-0.359,6.253-1.078,9.272c8.554-1.51,16.676-4.169,24.799-6.829c3.738-1.223,7.476-2.517,11.429-3.666
	c0.503-0.145,1.653-0.503,2.947-0.863c4.385-1.366,9.417-2.875,14.232-3.522c11.142-1.438,17.683,3.811,19.265,10.782
	c1.293,5.751-0.575,11.07-4.098,15.527c2.659-0.216,5.391-0.503,8.123-0.863c12.436-1.797,24.872-5.247,33.425-7.547
	c8.123-2.229,15.886-4.601,23.505-6.9c58.296-17.826,90.644-17.826,148.94,0c7.619,2.301,15.383,4.673,23.505,6.9
	c8.555,2.3,20.99,5.75,33.426,7.547c2.73,0.36,5.463,0.647,8.123,0.863c-3.523-4.457-5.393-9.776-4.099-15.527
	c1.582-6.972,8.123-12.22,19.266-10.782c4.815,0.646,9.848,2.156,14.231,3.522c1.294,0.36,2.444,0.719,2.947,0.863
	c3.954,1.149,7.69,2.443,11.429,3.666c8.123,2.66,16.246,5.318,24.799,6.829c-0.719-3.02-1.149-6.254-1.078-9.272
	c0.145-7.476,3.595-12.58,9.417-14.233c5.895-1.726,13.227,0.288,18.401,3.235c7.188,4.097,10.351,10.926,7.62,18.761
	c-1.653,4.816-5.391,9.273-6.757,14.018c-2.014,6.972-0.575,14.52,2.443,21.779c-7.763,3.307-15.383,5.032-23.793,5.032
	c-7.834,0-16.028-1.366-24.511-3.954c-3.451-1.078-6.829-2.443-10.279-3.882c-3.882-1.582-7.764-3.163-11.645-4.241
	c-0.072,7.333,1.366,13.37,5.032,19.696c-12.508,5.823-26.237,6.829-39.896,6.326c-18.042-0.647-37.019-4.457-50.316-8.771
	c-7.044-2.3-13.586-4.672-19.983-7.044C302.52,459.517,273.48,459.517,225.247,477.057z"/>
<path id="path18244" fill="#FFFFFF" d="M121.234,450.316c2.228,11.356,3.45,24.151-2.013,34.862
	c9.561,3.953,22.283,5.175,35.582,4.672c17.827-0.646,36.444-4.313,49.527-8.626c7.116-2.3,13.585-4.672,19.839-6.973
	c51.036-18.545,76.626-18.545,127.663,0c6.253,2.301,12.723,4.673,19.839,6.973c13.083,4.313,31.7,7.979,49.527,8.626
	c13.298,0.503,26.021-0.719,35.581-4.672c-5.462-10.71-4.241-23.505-2.013-34.862c-0.216,0.071-0.359,0.216-0.574,0.287l0,0
	c-9.346,4.457-22.355,4.313-35.224,2.517c-12.65-1.797-25.158-5.319-33.784-7.619c-8.194-2.229-15.958-4.601-23.576-6.901
	c-57.794-17.61-89.422-17.61-147.215,0c-7.62,2.301-15.383,4.672-23.578,6.901c-8.626,2.3-21.133,5.822-33.784,7.619
	c-12.867,1.797-25.877,1.94-35.223-2.517l0,0C121.593,450.532,121.449,450.389,121.234,450.316z"/>
<path id="path18246" fill="#A5C2DB" d="M173.779,477.128c0.719,4.169,3.81,2.3,4.026,3.45c0.143,0.646-0.216,0.575-0.719,0.646
	c-2.3,0.433-3.81,0.575-4.528,0.647c-1.294,0.288-3.81,0.863-4.025,0.863c-0.144,0.071-0.719,0.215-0.791-0.359
	c-0.144-0.935,2.587-0.719,1.869-4.816l-2.516-14.663c-0.575-3.522-3.81-1.51-4.026-2.731c-0.071-0.216,0-0.647,0.791-0.791
	c0.288-0.072,2.084-0.216,4.6-0.719c0.503-0.072,2.804-0.575,5.176-1.006c4.241-0.791,8.626,0.144,9.488,5.031
	c0.719,4.098-1.94,7.188-5.894,7.835c-3.235,0.575-3.522-0.215-3.594-0.358c0-0.215,0-0.647,0.359-0.718
	c0.288,0,0.863,0.07,1.581-0.072c4.026-0.647,3.667-4.457,3.594-5.319c-0.144-0.862-1.293-5.679-6.397-4.815
	c-1.51,0.287-1.941,1.006-1.654,2.516L173.779,477.128z"/>
<path id="path18248" fill="#A5C2DB" d="M254.575,438.312c-0.288-1.581-0.647-1.652-2.013-1.438l-2.804,0.575
	c-3.738,0.718-1.869,4.888-3.378,5.175c-0.647,0.144-0.647-0.647-0.647-1.078l-0.36-4.457c0-0.358-0.072-0.791,0.432-0.935
	c3.019-0.575,5.319-0.862,10.135-1.797c4.816-0.936,6.973-1.511,10.063-2.084c0.503-0.145,0.575,0.358,0.719,0.646l0.935,2.947
	c0.144,0.431,0.791,1.652-0.072,1.797c-1.366,0.216-1.006-3.594-4.816-2.731l-2.804,0.503c-1.294,0.288-1.653,0.504-1.294,2.084
	l2.875,14.951c0.791,4.099,4.888,2.301,5.032,3.235c0.144,0.791-0.503,0.791-1.51,1.006c-1.294,0.216-2.444,0.359-4.601,0.791
	c-2.228,0.431-3.307,0.718-4.6,1.006c-0.647,0.145-1.15,0.288-1.294-0.503c-0.288-1.222,3.738-0.432,3.019-4.313L254.575,438.312z"
	/>
<path id="path18250" fill="#A5C2DB" d="M294.829,449.669c0.144,4.313,3.594,2.947,3.666,4.241c0,0.431-0.288,0.431-0.72,0.431
	c-1.077,0.072-3.09,0-4.457,0c-1.221,0.072-2.516,0.216-4.24,0.288c-0.503,0-0.646-0.144-0.719-0.36
	c0-1.149,2.516-0.358,2.371-3.594l-0.144-6.109c-0.071-1.366,0-1.726-1.438-1.726l-8.914,0.288
	c-1.582,0.072-1.653,0.359-1.653,1.869l0.215,5.319c0.072,4.169,4.241,2.803,4.313,4.024c0,0.216,0.072,0.433-1.006,0.503
	c-1.438,0-2.516-0.072-4.96,0c-1.366,0.071-2.803,0.215-4.528,0.288c-0.359,0-0.719-0.072-0.719-0.503
	c-0.072-1.366,2.875-0.216,2.731-4.385l-0.432-15.024c-0.144-3.666-3.882-2.084-3.953-3.378c0-0.503,1.006-0.575,1.653-0.575
	c1.006,0,2.012,0.072,3.81,0c2.013,0,3.307-0.216,4.313-0.216c0.431,0,0.791,0.145,0.791,0.433c0,1.077-2.587,0.144-2.516,3.163
	l0.144,5.391c0.072,0.863,0.215,1.294,0.935,1.294l9.92-0.288c0.936,0,1.15-0.791,1.15-1.582l-0.215-4.744
	c-0.072-3.666-3.667-2.372-3.667-3.307c-0.072-0.647,0.288-0.575,0.719-0.575c1.294-0.072,2.229,0.072,4.313,0
	c1.726-0.072,2.947-0.216,4.386-0.288c0.574,0,0.719,0.072,0.719,0.359c0.072,1.294-2.372-0.072-2.301,3.234L294.829,449.669z"/>
<path id="path18252" fill="#A5C2DB" d="M307.193,451.394c-0.503,4.098,3.449,3.02,3.307,4.098c-0.072,0.358-0.359,0.503-1.15,0.358
	c-1.222-0.144-2.442-0.431-5.031-0.718c-1.438-0.144-2.947-0.216-3.811-0.288c-0.287-0.072-0.287-0.288-0.287-0.432
	c0.143-1.222,2.443-0.072,2.803-3.234l1.869-16.029c0.359-3.092-3.521-2.589-3.377-3.738c0.071-0.575,0.935-0.359,1.221-0.287
	c1.293,0.144,2.588,0.431,3.738,0.575c1.223,0.071,2.444,0.144,4.313,0.358c1.007,0.072,1.149,0.217,1.149,0.575
	c-0.144,1.15-2.516-0.358-2.875,2.804L307.193,451.394z"/>
<path id="path18254" fill="#A5C2DB" d="M314.021,449.742c0-0.504-0.071-1.51,0.719-1.294c0.503,0.071,0.503,0.432,0.575,0.862
	c0.216,3.379,1.51,6.901,5.104,7.835c2.588,0.575,4.888-0.432,5.607-3.091c0.646-2.73-1.293-3.666-5.967-7.332
	c-2.516-1.94-4.097-3.737-3.233-7.116c0.934-3.811,4.241-5.895,8.123-4.889c2.66,0.647,3.666,2.3,4.672,2.517
	c0.431,0.144,1.366-0.217,1.797-0.072c0.503,0.072,0.288,0.575,0.144,1.294l-0.719,4.528c-0.144,0.719-0.358,1.078-1.078,0.935
	c-0.719-0.216,0.287-6.397-5.318-7.835c-2.157-0.576-3.954,0.288-4.457,2.516c-0.575,2.157,1.149,3.02,5.032,6.11
	c3.09,2.372,4.887,4.313,3.881,8.481c-1.15,4.313-4.889,6.47-9.129,5.392c-2.014-0.575-3.45-1.725-5.247-2.66
	c-0.791-0.358-0.647-0.646-0.647-1.438L314.021,449.742z"/>
<path id="path18256" fill="#A5C2DB" d="M349.1,452.185c-0.287,0.791,0.936,1.15,1.941,1.438c4.888,1.438,5.607-0.288,6.182-2.229
	c0.936-3.162-0.144-6.109-3.45-7.044c-1.15-0.358-2.157-0.646-2.731,1.294L349.1,452.185L349.1,452.185z M346.8,445.213
	c1.078-3.666-2.804-3.451-2.443-4.672c0.071-0.288,0.503-0.359,0.862-0.288c1.509,0.503,1.726,0.719,3.737,1.294
	c2.157,0.647,4.385,1.15,6.542,1.797c7.116,2.084,6.396,6.829,5.966,8.338c-0.646,2.084-1.94,2.947-3.091,3.451
	c-1.15,0.503-2.157,0.503-2.3,0.862c0,0.144,1.366,5.679,2.443,10.423c0.145,0.575,0.791,0.791,1.007,0.863
	c0.359,0.071,0.719,0,1.007,0.071c0.288,0.072,0.431,0.359,0.358,0.575c-0.288,1.006-2.587,1.078-3.882,0.72
	c-2.587-0.72-3.019-3.092-3.45-5.248l-1.222-5.895c-0.288-1.654-0.791-2.157-2.444-2.588c-1.652-0.503-1.581-0.215-1.869,0.863
	l-1.652,5.606c-1.078,3.45,2.516,3.091,2.229,4.241c-0.144,0.288-0.432,0.432-1.149,0.216c-0.575-0.216-1.438-0.575-2.804-1.007
	c-1.725-0.503-3.379-0.862-4.96-1.294c-0.358-0.144-1.077-0.215-0.861-0.862c0.288-1.078,2.588,0.791,3.81-3.307L346.8,445.213z"/>
<path id="path18258" fill="#A5C2DB" d="M426.948,469.365c-0.216,0.144-0.791,0.575-0.863,0.935c0,0.288,0.288,0.719,0.719,1.438
	l5.896,9.057c2.372,3.738,3.881,2.875,3.81,3.738c0,0.216,0,0.431-0.432,0.359c-0.719,0-1.582-0.216-2.517-0.287
	c-0.646,0-1.293,0.07-2.228,0c-0.647-0.072-1.007-0.145-1.582-1.079l-6.11-9.633c-0.358-0.575-0.574-1.007-0.791-1.007
	c-0.288,0-0.861,0.503-1.652,1.294c-0.575,0.575-0.503,0.862-0.575,1.653l-0.288,4.385c-0.216,3.091,3.163,2.229,3.091,3.451
	c0,0.288-0.144,0.359-0.935,0.359c-0.935-0.072-1.869-0.288-3.738-0.433c-1.653-0.071-3.378-0.071-4.457-0.144
	c-0.575,0-1.007-0.072-1.007-0.288c0.144-1.725,2.66,0.646,3.02-4.457l0.936-14.592c0.287-4.098-3.379-2.588-3.235-4.098
	c0-0.358,0.288-0.431,0.719-0.431c0.575,0,1.726,0.215,4.025,0.431c1.869,0.072,3.954,0.072,4.672,0.145
	c0.288,0,0.719,0.071,0.647,0.431c-0.072,1.366-2.372-0.646-2.588,3.091l-0.575,7.691c0,0.359-0.072,0.791,0.144,0.791
	c0.216,0.072,0.432-0.072,0.862-0.503l4.744-4.025c1.007-0.935,4.457-3.451,4.528-4.888c0.072-1.078-2.013-0.791-1.939-1.582
	c0.072-0.575,0.359-0.575,0.791-0.575c0.358,0,2.66,0.36,3.666,0.36c0.862,0.072,1.725,0,3.163,0.072
	c0.288,0.071,0.861,0.071,0.861,0.646c-0.07,0.935-1.077-0.144-4.527,2.588L426.948,469.365z"/>
<path id="path18260" fill="#A5C2DB" d="M149.195,484.101c-6.326,0.145-9.776-2.659-9.92-9.2l-0.288-10.998
	c-0.072-2.875-3.522-1.726-3.594-3.02c0-0.431,0.431-0.575,0.719-0.575c0.431,0,2.947,0.072,4.672,0.072
	c1.725-0.072,4.097-0.288,4.744-0.288c0.288,0,0.359,0.288,0.359,0.432c0,1.149-2.875-0.504-2.731,4.96l0.216,7.332
	c0.144,5.176,1.581,9.417,7.619,9.272c7.261-0.216,7.404-6.542,7.261-12.004l-0.144-5.895c-0.072-3.882-4.241-2.731-4.241-3.954
	c0-0.503,0.575-0.359,1.006-0.359c1.007,0,1.869,0.071,2.804,0.071c1.15-0.071,2.156-0.145,3.881-0.215
	c0.359-0.072,0.575,0,0.575,0.358c0.072,0.936-2.373-0.215-2.229,3.594l0.144,6.613C160.265,478.063,158.54,483.885,149.195,484.101
	z"/>
<path id="path18262" fill="#A5C2DB" d="M212.236,452.688c-2.013-4.672-4.6-1.868-5.104-3.307c-0.072-0.287,0-0.646,0.359-0.719
	c0.647-0.216,1.294-0.288,1.869-0.503c0.862-0.288,1.582-0.719,3.307-1.294c1.006-0.359,0.718,0,1.509,0.432l17.54,9.704
	c0.575,0.359,1.15,0.575,1.294,0.503c0.215-0.072,0.144-0.432-0.144-1.222l-3.594-10.64c-1.006-2.946-4.672-1.006-5.032-2.085
	c-0.072-0.215-0.072-0.574,0.359-0.718c0.503-0.144,1.438-0.358,3.667-1.079c2.012-0.719,3.09-1.222,3.378-1.293
	c0.575-0.216,0.647,0.072,0.719,0.215c0.287,0.936-2.66,1.078-1.51,4.457l6.038,17.899c0.288,0.719,0.359,0.935,0,1.078
	c-0.503,0.144-0.719,0-1.006-0.145l-20.99-11.43c-0.288-0.144-0.575-0.215-0.719-0.215c-0.144,0.072-0.144,0.288-0.072,0.646
	l3.666,10.783c2.084,6.183,5.463,2.587,5.966,4.097c0.144,0.432-0.647,0.647-1.079,0.862c-1.581,0.503-2.66,0.719-3.81,1.15
	c-1.006,0.288-1.797,0.719-2.66,1.007c-0.359,0.144-0.935,0.503-1.15,0c-0.432-1.294,2.804-1.797,1.725-5.032l-3.954-11.501
	C212.668,453.766,212.452,453.191,212.236,452.688z"/>
<path id="path18264" fill="#A5C2DB" d="M208.714,459.661c1.366,4.528,1.653,13.011-8.626,16.03
	c-6.542,1.868-12.148-1.223-14.089-7.764c-1.725-6.109,0-11.86,5.463-14.808C198.075,449.525,206.342,451.323,208.714,459.661
	L208.714,459.661z M200.591,473.965c5.535-1.653,6.11-6.541,4.529-11.932c-1.653-5.607-6.542-10.854-12.651-7.907
	c-4.098,1.941-4.241,6.469-3.02,10.783C190.815,469.653,194.841,475.763,200.591,473.965z"/>
<path id="path18266" fill="#A5C2DB" d="M412.069,467.496c-0.575-0.145-0.646-0.862-0.791-1.365
	c-1.078-3.522-3.378-7.045-7.261-7.979c-4.815-1.15-8.41,2.804-9.272,7.188c-0.936,4.602,0.431,11.717,6.757,13.227
	c5.176,1.222,8.194-2.517,9.129-2.301c0.145,0,0.431,0.288,0.359,0.432c-0.288,1.365-4.744,5.463-11.789,3.737
	c-9.704-2.3-9.562-11.069-9.058-13.657c1.15-5.463,5.967-11.861,14.305-9.919c4.025,1.006,6.182,3.594,7.116,3.81
	c0.646,0.144,0.935-0.935,1.365-0.791c0.503,0.144,0.359,0.503,0.288,0.935l-0.503,5.104
	C412.644,466.418,412.644,467.64,412.069,467.496z"/>
<path id="path18268" fill="#A5C2DB" d="M384.897,453.12c3.019,2.66,4.385,6.757,3.091,11.501
	c-1.223,4.528-5.392,11.933-15.742,9.129c-6.541-1.797-9.704-7.332-7.907-13.945c1.509-5.821,5.679-9.775,11.285-9.848
	C378.787,449.885,382.525,451.107,384.897,453.12L384.897,453.12z M373.54,472.6c5.679,1.438,8.626-2.443,10.136-7.835
	c1.94-7.188-1.007-12.004-5.248-13.083c-5.535-1.438-8.338,2.66-9.632,7.332C367.502,463.759,367.717,471.09,373.54,472.6z"/>
<path id="path18270" fill="#FFFFFF" d="M120.011,463.83c-0.144-3.235-0.215-6.686-1.222-10.063
	c-1.222-4.169-2.516-7.618,3.091-11.356c3.45-1.94,8.841-3.308,10.279-3.666c3.163-0.719,6.326-1.079,9.561-1.223
	c2.66-0.144,5.319-0.144,8.123-0.071c-1.941-9.201-8.698-10.71-16.173-9.705c-4.529,0.576-9.417,2.085-13.729,3.379
	c-0.791,0.215-1.582,0.503-3.02,0.862c-3.594,1.079-7.476,2.372-11.285,3.594c-8.841,2.947-17.827,5.894-27.387,7.26
	c-5.894,0.936-21.349,1.94-29.04-3.451c0.647,1.511,1.438,3.02,2.3,4.674c0.144,0.286,0.287,0.646,0.431,0.934
	c4.457,8.77,4.96,17.971,1.725,27.243c6.326,2.516,13.011,3.667,19.984,3.667c7.547,0.071,15.455-1.294,23.649-3.811
	c3.378-1.006,6.685-2.372,9.992-3.737C111.458,466.634,115.698,464.909,120.011,463.83z"/>
<polygon id="polygon18272" fill="#A5C2DB" points="79.182,457.72 84.286,461.89 89.318,457.289 85.076,453.911 "/>
<polygon id="polygon18274" fill="#A5C2DB" points="87.089,450.029 92.193,454.198 97.224,449.598 92.984,446.219 "/>
<polygon id="polygon18276" fill="#A5C2DB" points="96.362,454.198 101.394,458.439 106.497,453.766 102.257,450.46 "/>
<polygon id="polygon18278" fill="#A5C2DB" points="89.174,462.249 94.278,466.418 99.309,461.817 95.069,458.439 "/>
<path id="path18280" fill="#A5C2DB" d="M144.739,440.396c-5.751,0.145-11.286,0.863-16.892,2.66
	c-4.026,1.223-8.338,3.163-4.744,4.816l0,0c0.287,0.144,0.575,0.288,0.862,0.431c5.247,2.085,15.023,4.602,20.342,1.726
	C149.698,447.153,152.287,440.253,144.739,440.396z"/>
<path id="path18282" fill="#FFFFFF" d="M65.812,440.612c4.169,0.071,8.194-0.217,10.854-0.575c0.863-3.091,1.366-6.469,1.294-9.632
	c0-0.433,0-0.863-0.072-1.294l0,0c-2.947,4.097-9.919,5.679-14.592,4.385C63.871,435.94,64.734,438.312,65.812,440.612z"/>
<path id="path18284" fill="#A5C2DB" d="M62.434,440.469c-0.791-1.94-4.097-9.92-1.725-10.423c0.862-0.144,2.372,0.575,4.744,0.862
	c3.307,0.288,7.979-0.791,10.063-3.522c2.731-3.737-0.863-7.188-4.457-8.411c-5.031-1.652-12.076,0.503-16.389,2.947
	c-4.457,2.516-8.914,7.548-6.038,12.651C50.717,438.384,56.467,439.966,62.434,440.469z"/>
<path id="path18286" fill="#FFFFFF" d="M455.988,463.83c0.144-3.235,0.216-6.686,1.222-10.063c1.222-4.169,2.516-7.618-3.091-11.356
	c-3.45-1.94-8.841-3.308-10.279-3.666c-3.163-0.719-6.326-1.079-9.56-1.223c-2.66-0.144-5.319-0.144-8.123-0.071
	c1.869-9.201,8.698-10.71,16.174-9.705c4.528,0.576,9.416,2.085,13.729,3.379c0.791,0.215,1.581,0.503,3.02,0.862
	c3.594,1.079,7.476,2.372,11.286,3.594c8.841,2.947,17.827,5.894,27.387,7.26c5.896,0.936,21.349,1.94,29.04-3.451
	c-0.646,1.511-1.438,3.02-2.3,4.674c-0.145,0.286-0.288,0.646-0.432,0.934c-4.457,8.77-4.96,17.971-1.726,27.243
	c-6.325,2.516-13.01,3.667-19.983,3.667c-7.547,0.071-15.454-1.294-23.648-3.811c-3.378-1.006-6.686-2.372-9.992-3.737
	C464.543,466.634,460.302,464.909,455.988,463.83z"/>
<polygon id="polygon18288" fill="#A5C2DB" points="496.818,457.72 491.714,461.89 486.682,457.289 490.924,453.911 "/>
<polygon id="polygon18290" fill="#A5C2DB" points="488.911,450.029 483.807,454.198 478.776,449.598 483.016,446.219 "/>
<polygon id="polygon18292" fill="#A5C2DB" points="479.638,454.198 474.606,458.439 469.503,453.766 473.743,450.46 "/>
<polygon id="polygon18294" fill="#A5C2DB" points="486.826,462.249 481.723,466.418 476.691,461.817 480.932,458.439 "/>
<path id="path18296" fill="#A5C2DB" d="M431.261,440.396c5.751,0.145,11.286,0.863,16.894,2.66c4.024,1.223,8.338,3.163,4.744,4.816
	l0,0c-0.288,0.144-0.575,0.288-0.863,0.431c-5.247,2.085-15.023,4.602-20.342,1.726
	C426.301,447.153,423.714,440.253,431.261,440.396z"/>
<path id="path18298" fill="#FFFFFF" d="M510.188,440.612c-4.169,0.071-8.193-0.217-10.854-0.575
	c-0.863-3.091-1.366-6.469-1.294-9.632c0-0.433,0-0.863,0.072-1.294l0,0c2.946,4.097,9.919,5.679,14.592,4.385
	C512.129,435.94,511.266,438.312,510.188,440.612z"/>
<path id="path18300" fill="#A5C2DB" d="M513.566,440.469c0.791-1.94,4.098-9.92,1.726-10.423c-0.863-0.144-2.372,0.575-4.745,0.862
	c-3.307,0.288-7.979-0.791-10.063-3.522c-2.732-3.737,0.861-7.188,4.457-8.411c5.031-1.652,12.075,0.503,16.389,2.947
	c4.457,2.516,8.913,7.548,6.038,12.651C525.283,438.384,519.532,439.966,513.566,440.469z"/>
</svg>
