<?xml version="1.0" encoding="UTF-8" standalone="no"?>
<svg id="svg2" xmlns:rdf="http://www.w3.org/1999/02/22-rdf-syntax-ns#" xmlns="http://www.w3.org/2000/svg" xml:space="preserve" height="85.243" width="85.243" version="1.1" xmlns:cc="http://creativecommons.org/ns#" viewBox="0 0 85.243004 85.243" xmlns:dc="http://purl.org/dc/elements/1.1/"><metadata id="metadata8"><rdf:RDF><cc:Work rdf:about=""><dc:format>image/svg+xml</dc:format><dc:type rdf:resource="http://purl.org/dc/dcmitype/StillImage"/><dc:title/></cc:Work></rdf:RDF></metadata><path id="path4304" fill="#fff" d="m85.143 42.621a42.522 42.522 0 0 1 -42.522 42.522 42.522 42.522 0 0 1 -42.521 -42.522 42.522 42.522 0 0 1 42.522 -42.521 42.522 42.522 0 0 1 42.521 42.521z"/><path id="path5146" d="m42.621 1.6504c-10.944 0-21.232 4.2625-28.971 12-7.7371 7.739-12 18.027-12 28.971s4.2625 21.232 12 28.971c7.7388 7.7388 18.027 12 28.971 12s21.232-4.2612 28.971-12c7.7375-7.7388 12-18.027 12-28.971s-4.2625-21.232-12-28.971c-7.739-7.7371-18.027-12-28.971-12zm0 1.7285c21.639 0 39.242 17.603 39.242 39.242s-17.603 39.244-39.242 39.244-39.242-17.605-39.242-39.244 17.603-39.242 39.242-39.242z" fill="#1d5ba4"/><path id="path5136" d="m48.202 30.279v-1.275h-4.0162s1.0025 1.135 1.0025 3.2862v11.206c-0.44875 0.0725-0.9075 0.11125-1.3775 0.11125-0.11 0-0.21875-0.005-0.32875-0.0075 0.1525-0.8025 0.24-1.6675 0.24-2.6038 0-4.9888-2.3738-8.0138-4.3662-9.6738-0.785-0.65375-1.655-1.2162-2.5788-1.6788l0.0025-2.9462c1.1038-1.0788 3.32-2.675 6.825-2.675 3.3525 0 6.3825 1.885 7.88 4.955-1.2112 0.31375-2.2812 0.76875-3.2825 1.3012m24.028 27.641c-0.1725-0.06875-0.355-0.10375-0.5425-0.10625-0.22-0.0025-0.41 0.0475-0.41 0.0475s0.10125 0.07375 0.135 0.09875c0.28 0.205 1.1612 1.0238 0.70625 2.96-0.3 1.2712-1.9338 3.6325-6.0312 3.6438h-0.0012c-0.255-0.0012-0.52-0.0125-0.7875-0.03375-0.80625-0.06125-1.605-0.24125-2.3938-0.49625 0.19375-0.1825 0.385-0.3675 0.57375-0.55625 0.56625-0.56625 1.1062-1.1525 1.62-1.7562-0.535-0.035-1.0662-0.15625-1.58-0.3325-0.65375 0.7275-1.345 1.42-2.0712 2.0762-1.4538-0.65875-3.0625-1.6375-4.6138-2.6362-0.62125-0.40125-1.6762-1.1075-2.2375-1.4612-1.9638-1.2375-3.935-2.3962-6.3788-3.255v-4.0825c3.9212 0.91875 7.6862 3.65 9.4525 4.9175 0.21875 0.15625 0.45625 0.33375 0.71 0.5225 1.6612 1.2388 4.7512 3.455 7.8462 3.455 3.995 0 4.1725-2.5962 4.1525-2.7512 0 0-0.0725 0.08625-0.14625 0.15875-0.225 0.2175-0.80375 0.73-2.1888 0.6825-0.24875-0.0087-0.52125-0.04625-0.80625-0.13125 3.175-4.7825 4.88-10.391 4.88-16.262 0-16.264-13.231-29.495-29.495-29.495s-29.495 13.231-29.495 29.495 13.231 29.495 29.495 29.495c6.1938 0 12.096-1.8962 17.044-5.415-0.54375-0.1775-1.0675-0.39-1.5775-0.63-4.4388 2.9375-9.7562 4.6512-15.466 4.6512-15.495 0-28.101-12.606-28.101-28.101s12.606-28.101 28.101-28.101 28.101 12.606 28.101 28.101c0 5.8312-1.7875 11.251-4.84 15.746-1.1062-0.51125-2.5038-1.365-3.9788-2.27-0.2475-0.1525-0.50625-0.3175-0.7625-0.4825-2.18-1.415-3.785-2.2738-5.0662-2.7138-0.1325-0.045-0.46-0.13875-0.62875-0.165v-0.09875c6.8175-0.12 12.199-5.295 12.199-12.264 0-7.0288-5.46-11.856-12.392-11.856-0.165 0-0.32625 0.0038-0.48625 0.0075-1.9362-3.9975-6.1212-6.48-11.134-6.48-2.6125 0-4.9388 0.6575-6.865 1.6388v-1.2262h-4.0175s0.99125 0.90625 0.99125 3.0575l-0.0025 3.0238c-1.0325-0.24625-2.0925-0.37875-3.1475-0.37875-3.19 0-6.3888 1.1538-8.7738 3.1638-1.96 1.6512-4.2962 4.67-4.2962 9.6725 0 4.9625 2.41 7.9762 4.4325 9.6312 1.6525 1.3525 3.7188 2.3275 5.85 2.8012 0.295-0.54 0.55375-1.1288 0.6725-1.6212-0.34375-0.07125-0.61625-0.1625-0.91375-0.2675-1.1338-0.4475-1.8025-1.2938-1.8025-2.305 0-1.4888 1.075-2.0188 1.8012-2.0188 1.0212 0 2.0888 0.685 2.13 2.68 0.11125 5.26-5.665 8.8675-6.1862 9.1838 0.51625 0.5975 1.06 1.1712 1.6288 1.7188 0.1375-0.0725 0.3425-0.1825 0.48125-0.2575 1.9638-1.0725 6.5312-3.65 13.112-3.6075 2.0638 0.01375 3.9162 0.31 5.5825 0.76625v-2.5562c-1.1838-0.18-2.4762-0.285-3.9062-0.29375-5.5175-0.035-10.049 1.6262-12.831 3.0638l-0.03625-0.05375c0.7275-0.65875 2.1612-2.2038 3.1388-4.1088 0.33125 0 0.7225-0.01625 1.0575-0.04375 0.1275-0.11625 0.2575-0.265 0.3725-0.4175 0.15875-0.21375 0.505-0.7475 0.63-1.46-0.44125 0.1-0.895 0.17-1.36 0.20375 0.18-0.60125 0.295-1.22 0.31375-1.8438 0.0475-1.6388-0.36625-3.015-1.1988-3.8712-0.7125-0.73375-1.7062-1.1212-2.8712-1.1212-1.5212 0-3.4312 1.0225-3.5562 3.2838-0.01125 0.20375 0.02625 0.6575 0.10375 0.8475l-0.0725 0.0375c-2.0375-2.0088-3.2862-4.99-3.2862-8.4312 0-6.26 4.2362-10.98 9.855-10.98 5.66 0 9.77 4.6175 9.77 10.98 0 0.72375-0.05625 1.4275-0.16125 2.1062-1.3525-0.45625-2.5175-1.1562-3.4888-1.99v-7.5238c-0.85625-0.90875-1.88-1.6062-3.0375-2.0512v19.269c0 1.9512-0.995 3.0962-0.995 3.0975h4.875s-0.44625-0.55625-0.695-1.6625c0.85125-0.43875 1.655-0.9575 2.3788-1.5525 1.1312-0.93125 2.3838-2.2912 3.265-4.185-1.0638-0.0625-2.11-0.2175-3.1312-0.4675-0.63375 1.4912-1.5475 2.7762-2.675 3.775v-5.6838c1.9475 0.8875 4.2388 1.4775 6.865 1.4775 2.1538 0 3.5125-0.40125 4.5962-0.7875 4.3938-1.5638 7.6925-5.7112 7.6925-11.019 0-0.745-0.0625-1.4625-0.18-2.1538-1.0638-0.065-2.6462 0.155-3.3388 0.375 0.08875 0.58 0.13625 1.1838 0.13625 1.8088 0 3.8725-1.7212 6.955-4.31 8.58v-9.2162c1.9812-1.545 3.8788-2.5562 7.1262-2.5562 4.9325 0 8.8525 4.015 8.8525 9.8612 0 5.8638-4 10.2-9.265 10.2-2.6588 0-4.7175-0.71625-6.7138-1.9175v-2.9838c-0.9675 0.32375-1.9825 0.54375-3.0262 0.655v11.312c0 1.9512-1.0025 3.0975-1.0025 3.0975h4.9925s-0.5775-0.58875-0.78875-1.5512c1.3088 0.57625 2.9962 1.6188 4.1338 2.355 0.5175 0.33375 0.97375 0.65375 1.4138 0.9375 3.3875 2.1938 6.4888 4.1375 11.04 4.1375 2.9975 0 4.8988-0.94125 6.095-1.8275 1.3838-1.025 2.1925-2.4338 2.3862-3.6862 0.3825-2.4712-0.96875-3.135-1.2438-3.245" fill="#1d5ba4"/><path id="path5122" d="m44.425 74.669c0.0875-0.1975 0.25375-0.305 0.49875-0.32125 0.2125-0.015 0.375 0.0675 0.4875 0.245 0.11375 0.17875 0.18 0.4175 0.20125 0.71625 0.02125 0.32625-0.0225 0.58375-0.1325 0.775-0.11 0.19-0.2625 0.2925-0.45875 0.305-0.1575 0.01125-0.30625-0.05875-0.4475-0.21125-0.1425-0.15125-0.22375-0.385-0.245-0.7-0.02375-0.3425 0.0087-0.6125 0.09625-0.80875m1.2838 4.275c-0.13 0.21875-0.2875 0.335-0.4725 0.3475-0.2125 0.015-0.39125-0.08125-0.53625-0.28625-0.145-0.20625-0.2325-0.52375-0.26125-0.95375-0.03125-0.4625 0.01-0.795 0.12375-1 0.115-0.20375 0.275-0.31375 0.4825-0.3275 0.21125-0.015 0.3925 0.07375 0.5425 0.26625 0.14875 0.19125 0.23875 0.5075 0.26875 0.94875 0.03125 0.45125-0.01875 0.78625-0.1475 1.005m1.21-1.7125c-0.07875-0.15625-0.175-0.2875-0.28875-0.395-0.11375-0.10625-0.24-0.18875-0.3775-0.24875-0.13875-0.05875-0.27-0.095-0.3975-0.1075l-0.0037-0.0575c0.12375-0.035 0.24-0.09 0.35-0.1625 0.11-0.07375 0.20375-0.1625 0.28125-0.26875 0.07625-0.1075 0.135-0.23 0.175-0.36875s0.05375-0.29625 0.04125-0.47c-0.01125-0.16875-0.0575-0.32625-0.13875-0.47375s-0.1975-0.27375-0.34875-0.3775c-0.1525-0.105-0.34125-0.18375-0.565-0.23625-0.225-0.05375-0.485-0.07-0.7775-0.05-0.25125 0.0175-0.47875 0.06125-0.68375 0.1325s-0.38125 0.17-0.52875 0.295c-0.1475 0.12375-0.25875 0.2725-0.335 0.44375-0.075 0.1725-0.10625 0.36375-0.09125 0.57625 0.01 0.14625 0.045 0.2825 0.105 0.40625 0.06125 0.125 0.13625 0.2325 0.2275 0.325 0.09125 0.09125 0.19625 0.16875 0.315 0.22875s0.24125 0.09625 0.3675 0.11l0.0037 0.05625c-0.145 0.04375-0.2825 0.10875-0.4125 0.19625-0.13125 0.08875-0.2425 0.1975-0.335 0.32625-0.09125 0.12875-0.16375 0.28-0.21375 0.4525-0.0525 0.17375-0.07 0.36875-0.055 0.58625 0.01875 0.26625 0.0825 0.4975 0.19 0.69125 0.11 0.195 0.2525 0.35375 0.43 0.475s0.38375 0.205 0.62 0.24875c0.235 0.04375 0.4875 0.05625 0.76 0.0375 0.2775-0.01875 0.53375-0.06875 0.76875-0.15 0.23375-0.08125 0.4325-0.2 0.59375-0.35625 0.16125-0.155 0.28375-0.34375 0.3675-0.565 0.0825-0.22125 0.115-0.47375 0.095-0.75625-0.01375-0.2075-0.06-0.38875-0.13875-0.54375m-13.748-4.0662c-0.4125 0.0525-0.845 0.09375-1.295 0.1225 0.03625 0.05 0.08 0.12875 0.13125 0.2375 0.05 0.10875 0.09375 0.21 0.12875 0.305 0.08125-0.01 0.17375-0.02375 0.27625-0.0425 0.10125-0.01875 0.2025-0.03875 0.30125-0.0575 0.09875-0.02 0.19125-0.0375 0.275-0.0525s0.14625-0.02625 0.1875-0.03125l-0.64125 2.215c-0.06375 0.22-0.13125 0.435-0.20125 0.6475s-0.13625 0.41375-0.2 0.6025-0.1225 0.36-0.17875 0.51375-0.09875 0.2725-0.12875 0.355c0.1075 0.01875 0.2125 0.04375 0.315 0.07375s0.205 0.05875 0.31 0.09c0.105 0.03 0.2075 0.06 0.30625 0.08875 0.1 0.02875 0.2 0.06375 0.30125 0.10375 0.09625-0.38625 0.18125-0.7275 0.25875-1.0225s0.15625-0.58125 0.23625-0.86l0.1725-0.59625 0.14-0.47875c0.0575-0.19875 0.11875-0.4025 0.185-0.61s0.1325-0.4125 0.19875-0.615c0.0675-0.20125 0.1325-0.3975 0.19625-0.58625 0.0625-0.18875 0.1225-0.36 0.17875-0.51375l-0.13125-0.10625c-0.46875 0.09125-0.91 0.16375-1.3225 0.2175m20.186 4.3762c-0.0225-0.09-0.04125-0.17625-0.05375-0.26125-0.01375-0.08375-0.02875-0.17125-0.04625-0.2625-0.37375 0.12375-0.7425 0.235-1.1088 0.335-0.365 0.09875-0.7375 0.2-1.1162 0.3025l-0.0125-0.01375c0.36-0.50875 0.64875-0.9475 0.865-1.3188 0.2175-0.37 0.38-0.695 0.48625-0.9725s0.16625-0.5175 0.1825-0.72125c0.015-0.20375 0-0.3925-0.04375-0.5675-0.03875-0.1525-0.1075-0.3025-0.20375-0.45-0.09625-0.14625-0.2325-0.26875-0.40625-0.3675-0.175-0.09875-0.3925-0.16-0.655-0.1825-0.26125-0.02375-0.575 0.01125-0.93875 0.105-0.465 0.11875-0.8075 0.31-1.0262 0.57375-0.22 0.265-0.34 0.55125-0.3625 0.86125 0.1275 0.0575 0.2525 0.11375 0.37375 0.17 0.12 0.05625 0.24625 0.12125 0.37875 0.195l0.0725-0.045c-0.0275-0.105-0.04625-0.22625-0.06-0.36375-0.0125-0.1375-0.005-0.27375 0.02375-0.4075 0.0275-0.1325 0.07875-0.25375 0.15625-0.36 0.07625-0.10625 0.18875-0.17875 0.33625-0.2175 0.10125-0.025 0.20375-0.03 0.30875-0.015s0.2075 0.0575 0.3075 0.1275c0.09875 0.07125 0.19 0.1725 0.27125 0.30625 0.0825 0.13375 0.15125 0.30875 0.20625 0.525 0.06625 0.25875 0.09375 0.5275 0.08 0.8075-0.0125 0.27875-0.07375 0.58125-0.18125 0.90625-0.1075 0.32625-0.26375 0.6825-0.46875 1.0688-0.205 0.3875-0.46375 0.81875-0.775 1.2912l0.085 0.33375c0.2825-0.08375 0.56625-0.1625 0.85125-0.235 0.285-0.07375 0.57-0.14625 0.855-0.21875 0.30125-0.0775 0.59625-0.1525 0.8875-0.2275 0.29-0.07375 0.5875-0.145 0.89-0.21125-0.02375-0.0725-0.05-0.15-0.08-0.2325s-0.05625-0.1675-0.07875-0.2575m-13.899-2.2638c-0.03875 0.325-0.12875 0.57-0.2725 0.7375-0.1425 0.1675-0.3125 0.23875-0.50625 0.21625-0.1575-0.01875-0.29125-0.115-0.4025-0.29s-0.14875-0.42-0.11125-0.73375c0.04-0.34125 0.12125-0.6 0.24375-0.7775s0.30625-0.2525 0.55-0.22375c0.21 0.025 0.355 0.135 0.43375 0.33125 0.07875 0.195 0.1 0.4425 0.065 0.74m-0.24375 2.63c-0.0525 0.44875-0.16375 0.77-0.33125 0.96125s-0.34375 0.27625-0.5275 0.25375c-0.2125-0.02375-0.37-0.15125-0.475-0.38-0.10375-0.23-0.13125-0.5575-0.08125-0.985 0.055-0.46 0.15625-0.78 0.30625-0.96s0.32875-0.2575 0.53375-0.23375c0.21125 0.025 0.3725 0.145 0.485 0.36125 0.11125 0.21625 0.14125 0.54375 0.09 0.9825m1.0188-3.51c-0.13125-0.13125-0.30125-0.2425-0.5125-0.33625s-0.46375-0.1575-0.755-0.1925c-0.25-0.02875-0.48125-0.0275-0.69625 0.005s-0.40625 0.09625-0.57375 0.19125c-0.16875 0.09625-0.305 0.22125-0.41125 0.37625s-0.17125 0.3375-0.19625 0.54875c-0.0175 0.14625-0.0075 0.28625 0.02875 0.41875 0.03625 0.13375 0.09125 0.25375 0.16375 0.36125s0.16125 0.20125 0.2675 0.2825c0.105 0.08125 0.21875 0.14 0.34125 0.17625l-0.0075 0.05625c-0.14875 0.015-0.29625 0.055-0.44125 0.1175s-0.27375 0.14875-0.38875 0.25875-0.2125 0.245-0.295 0.405c-0.08125 0.16125-0.135 0.34875-0.16125 0.56625-0.03125 0.265-0.01125 0.5025 0.06 0.715 0.07125 0.21125 0.1825 0.3925 0.335 0.545s0.34 0.2725 0.56375 0.35875c0.2225 0.08625 0.46875 0.145 0.74 0.1775 0.27625 0.0325 0.53625 0.03 0.7825-0.0062 0.24625-0.0375 0.4625-0.1175 0.65-0.24125 0.1875-0.1225 0.3425-0.28625 0.465-0.4875 0.1225-0.2025 0.2-0.445 0.23375-0.72625 0.02375-0.205 0.01125-0.3925-0.0375-0.56s-0.11875-0.31375-0.21125-0.44-0.20125-0.23125-0.325-0.315c-0.125-0.0825-0.24875-0.1425-0.37-0.17875l0.0063-0.0575c0.1275-0.01125 0.2525-0.04375 0.37375-0.095 0.12125-0.0525 0.23-0.1225 0.325-0.21375 0.09625-0.09 0.17625-0.2 0.24125-0.32875 0.06375-0.13 0.1075-0.28125 0.1275-0.455 0.02-0.1675 0.0037-0.33125-0.04875-0.49125-0.0525-0.16-0.145-0.305-0.27375-0.435" fill="#1d5ba4"/><path id="path862" d="m21.992 13.736c0.16875 0.26125 0.3575 0.4425 0.56625 0.54375 0.20875 0.1025 0.425 0.16125 0.65 0.1775 0.225 0.0175 0.45375 0.0075 0.68375-0.02875 0.23-0.035 0.4475-0.06 0.65375-0.0725 0.20625-0.01375 0.395 0.0025 0.56625 0.04625 0.17125 0.045 0.31375 0.15375 0.42625 0.3275 0.125 0.1925 0.16625 0.4 0.125 0.62125s-0.2 0.42125-0.47375 0.59875c-0.1375 0.09-0.27375 0.15-0.40875 0.1825s-0.26375 0.03875-0.385 0.02125c-0.1225-0.01875-0.2375-0.05625-0.34625-0.1125-0.1075-0.05625-0.20375-0.12875-0.2875-0.21875l-0.13 0.085c0.0775 0.17 0.14375 0.3325 0.19875 0.485 0.05375 0.15375 0.10875 0.32625 0.1675 0.515 0.15 0.0125 0.34-0.0175 0.56875-0.09125 0.22875-0.0725 0.46625-0.19 0.7125-0.35 0.275-0.1775 0.5-0.37375 0.67625-0.58875s0.3-0.44125 0.3725-0.68 0.09-0.48125 0.055-0.7275c-0.03625-0.245-0.12875-0.4825-0.27625-0.71125-0.17-0.26125-0.36-0.44125-0.57-0.54125-0.21125-0.10125-0.4325-0.15875-0.66375-0.175-0.23125-0.015-0.4625-0.005-0.69125 0.03-0.23125 0.035-0.4525 0.06-0.66375 0.07375s-0.40375 0.0013-0.57625-0.04c-0.1725-0.04125-0.31375-0.14625-0.42375-0.315-0.10625-0.165-0.13375-0.35125-0.08125-0.56125 0.0525-0.20875 0.18375-0.3825 0.395-0.51875 0.40625-0.26375 0.81125-0.24625 1.2125 0.0525l0.1025-0.0675c-0.0525-0.18-0.095-0.32875-0.12875-0.44625s-0.065-0.2425-0.09125-0.375c-0.20125-0.01875-0.41375 0.0013-0.6375 0.0625-0.22375 0.06125-0.45875 0.17125-0.70625 0.33125-0.205 0.13375-0.38 0.29125-0.52375 0.47625-0.14375 0.18375-0.24625 0.38375-0.30875 0.59875-0.06125 0.215-0.075 0.4425-0.04125 0.68s0.1275 0.475 0.2825 0.7125m-5.6662 4.985c0.2875 0.29875 0.5825 0.61375 0.885 0.94625s0.58 0.64375 0.83375 0.93375c0.2525 0.29 0.46625 0.53625 0.64 0.73875 0.17375 0.20375 0.2725 0.325 0.295 0.36375 0.0825-0.095 0.16875-0.185 0.25875-0.2725 0.0425-0.04125 0.08875-0.085 0.135-0.13125 0.0475-0.045 0.0975-0.08625 0.1525-0.12375-0.045-0.04-0.105-0.09375-0.17875-0.1625s-0.16875-0.1575-0.2825-0.2675c-0.1125-0.11-0.25-0.24625-0.41125-0.40875-0.16125-0.16375-0.355-0.3625-0.5825-0.5975l-0.65875-0.6825c-0.11375-0.1175-0.225-0.23375-0.3325-0.34875-0.1075-0.11625-0.215-0.2325-0.32125-0.35 1.8262 0.0775 3.5975 0.1975 5.3138 0.3575 0.05875-0.0725 0.13125-0.15 0.2175-0.2325 0.0825-0.08 0.16625-0.15375 0.2525-0.22125l-0.68125-0.70625c-0.2725-0.28125-0.52875-0.5475-0.7675-0.79875-0.2375-0.25125-0.47625-0.5075-0.715-0.77-0.2375-0.2625-0.49-0.54375-0.7575-0.8425-0.26625-0.3-0.56125-0.6375-0.88625-1.0125-0.09125 0.125-0.17 0.22-0.23625 0.285-0.0675 0.06375-0.165 0.14-0.29375 0.22625 0.04625 0.03125 0.1275 0.10125 0.2425 0.20875 0.11625 0.10875 0.25 0.24 0.40375 0.395s0.32125 0.32375 0.5025 0.50875c0.18125 0.18375 0.36625 0.3725 0.55125 0.56375l0.55125 0.57125 0.49375 0.51125c-0.8975-0.05-1.7762-0.1025-2.6362-0.15875-0.86-0.055-1.7338-0.11375-2.6188-0.175-0.09125 0.12625-0.17 0.22125-0.23625 0.285-0.06625 0.065-0.165 0.14-0.2925 0.22625 0.14 0.1375 0.3025 0.29375 0.48875 0.47125 0.18625 0.17625 0.40875 0.4 0.67125 0.67m20.366-12.801c-0.0525 0.02-0.10094 0.038437-0.14844 0.054687-0.04625 0.01625-0.09789 0.028363-0.15039 0.037113-0.055 0.01-0.10625 0.015625-0.15625 0.015625-0.04875 0-0.1032-0.0007037-0.1582-0.002-0.06625 0.32625-0.1382 0.67859-0.2207 1.0586-0.08125 0.37875-0.1643 0.76234-0.24805 1.1523-0.08625 0.39125-0.17156 0.77766-0.25781 1.1602-0.0875 0.3825-0.16789 0.74172-0.24414 1.0742-0.075 0.33375-0.14398 0.63344-0.20898 0.89844-0.065 0.26625-0.1189 0.47375-0.16016 0.625 0.07375-0.02375 0.14398-0.04149 0.20898-0.05274 0.06375-0.01125 0.12766-0.02125 0.19141-0.03125 0.065-0.01125 0.12695-0.0232 0.18945-0.0332 0.06125-0.01125 0.12516-0.01633 0.19141-0.01758 0.03-0.275 0.06827-0.5589 0.11328-0.84766 0.04375-0.29 0.09625-0.58055 0.15625-0.87305 0.13875-0.02875 0.27797-0.05649 0.41797-0.08399 0.13875-0.02625 0.27727-0.05046 0.41602-0.074225 0.1725-0.03 0.34508-0.059688 0.51758-0.085937 0.1725-0.0275 0.34508-0.052425 0.51758-0.076175 0.14875 0.25625 0.29289 0.51398 0.43164 0.77148 0.1375 0.25875 0.27305 0.51297 0.4043 0.76172 0.11125-0.03125 0.22359-0.05617 0.33984-0.07618 0.115-0.01875 0.2293-0.04055 0.3418-0.06055 0.11375-0.01875 0.2275-0.03789 0.34375-0.05664 0.115-0.02 0.23789-0.03562 0.36914-0.04687-0.20875-0.285-0.44789-0.63664-0.71289-1.0566-0.265-0.41875-0.54117-0.86133-0.82617-1.3301-0.285-0.4675-0.56852-0.94414-0.85352-1.4316-0.286-0.4875-0.555-0.9456-0.805-1.3731zm-0.3457 1.6602c0.185 0.3 0.36055 0.59758 0.5293 0.89258 0.17 0.29375 0.34188 0.59484 0.51562 0.90234l-1.4727 0.25195c0.06125-0.3475 0.12726-0.68914 0.19726-1.0254 0.06875-0.335 0.14672-0.67523 0.23047-1.0215zm-4.2734-0.48438c-0.225 0.01375-0.52117 0.080625-0.88867 0.20312-0.18625 0.06125-0.37445 0.13148-0.56445 0.20898s-0.37539 0.14508-0.55664 0.20508c-0.13 0.0425-0.24656 0.077263-0.35156 0.10351-0.1075 0.02625-0.20562 0.049613-0.29688 0.068363 0.13125 0.33 0.25766 0.66023 0.37891 0.99023s0.25133 0.70867 0.39258 1.1387l0.35156 1.0566c0.1425 0.42875 0.26328 0.81094 0.36328 1.1484 0.1 0.33625 0.1943 0.6686 0.2793 0.9961 0.085-0.03875 0.1775-0.07563 0.28125-0.10938 0.1025-0.035 0.22086-0.07149 0.34961-0.11524 0.12875-0.0425 0.24586-0.08149 0.34961-0.11524 0.1025-0.035 0.19977-0.06133 0.29102-0.08008-0.15125-0.36875-0.29274-0.74445-0.42774-1.127-0.13625-0.3825-0.26774-0.76875-0.39648-1.1562l0.39453-0.13281c0.29-0.09625 0.54703-0.21492 0.76953-0.35742 0.2225-0.14375 0.40016-0.30875 0.53516-0.5s0.21664-0.4093 0.24414-0.6543c0.02875-0.24375-0.006-0.51359-0.10351-0.80859-0.0775-0.2325-0.18195-0.4186-0.31445-0.5586s-0.30492-0.25008-0.51367-0.33008c-0.15375-0.06375-0.34141-0.089225-0.56641-0.074225zm-0.62891 0.66797c0.11375 0.0025 0.21977 0.032887 0.32227 0.087887 0.10125 0.055 0.19641 0.14172 0.28516 0.26172 0.0875 0.12 0.16547 0.27836 0.23047 0.47461 0.0825 0.24875 0.11234 0.46102 0.08984 0.63477s-0.07851 0.32-0.16602 0.4375c-0.0875 0.11875-0.19547 0.21195-0.32422 0.2832-0.1275 0.07125-0.25602 0.12937-0.38476 0.17187-0.12-0.3625-0.23797-0.72273-0.35547-1.084-0.11625-0.36-0.23406-0.72781-0.35156-1.1016 0.01875-0.0125 0.04211-0.0225 0.06836-0.03125 0.025-0.00875 0.04993-0.018587 0.07617-0.027337l0.17969-0.0586c0.1075-0.03625 0.21758-0.051325 0.33008-0.048825zm-18.142 16.04 0.9125 0.63625c0.37125 0.25875 0.6975 0.4925 0.98 0.70125s0.5575 0.41875 0.82375 0.6275c0.02-0.03875 0.0475-0.085 0.08125-0.1375 0.03375-0.05375 0.085-0.13 0.155-0.23125 0.07125-0.1 0.16375-0.2325 0.27875-0.39875 0.11875-0.16875 0.2725-0.39 0.46375-0.6625 0.215-0.30875 0.385-0.55125 0.51125-0.72625 0.125-0.175 0.23125-0.32 0.32125-0.43875-0.03375-0.0087-0.0725-0.02625-0.115-0.05-0.04375-0.0225-0.10125-0.06-0.1725-0.11s-0.12625-0.09125-0.1625-0.12375c-0.0375-0.0325-0.0775-0.07-0.12-0.11375-0.15 0.28125-0.3075 0.55375-0.47125 0.81875-0.165 0.26375-0.33625 0.5225-0.51375 0.7775-0.2775-0.17375-0.56125-0.3625-0.85125-0.565-0.14375-0.1-0.28625-0.2-0.4275-0.3025s-0.28375-0.2025-0.42625-0.3025c0.3525-0.505 0.72625-0.99875 1.1225-1.48-0.0775-0.04125-0.13875-0.07125-0.18125-0.09125s-0.08125-0.0425-0.1175-0.0675c-0.04375-0.03-0.085-0.0625-0.1225-0.095s-0.08875-0.0825-0.155-0.14875c-0.165 0.26375-0.325 0.5175-0.47875 0.7575-0.155 0.24125-0.33125 0.50875-0.53 0.8025-0.24625-0.1725-0.48875-0.34375-0.72875-0.51375-0.24-0.17125-0.47625-0.35125-0.70875-0.54 0.03375-0.05 0.09375-0.13 0.17875-0.24375 0.08625-0.1125 0.18375-0.23875 0.295-0.3775 0.11-0.13875 0.2225-0.2825 0.34-0.43125 0.11625-0.1475 0.22375-0.28375 0.32375-0.40625-0.05625-0.02625-0.105-0.05-0.14875-0.07375-0.0425-0.02375-0.1-0.06-0.1725-0.11-0.115-0.08125-0.2025-0.15625-0.2625-0.22375-0.0525 0.09625-0.16625 0.27375-0.33875 0.53625-0.1725 0.26125-0.375 0.5575-0.605 0.88875-0.14 0.2-0.28375 0.39625-0.43 0.58625-0.14625 0.19125-0.2925 0.385-0.43625 0.5825 0.30125 0.1875 0.59875 0.3775 0.8925 0.57125s0.62625 0.41875 0.99625 0.67875m0.44625 6.25c0.025-0.0575 0.06375-0.14125 0.1175-0.2525 0.0525-0.11 0.12375-0.25625 0.21125-0.4375 0.09-0.18625 0.2075-0.43 0.3525-0.72875 0.1625-0.33875 0.2925-0.60375 0.38875-0.7975 0.09625-0.1925 0.17875-0.35375 0.2475-0.48375-0.03375-0.0038-0.075-0.015-0.12125-0.03125s-0.10875-0.04375-0.1875-0.08125-0.13875-0.07-0.18-0.09625c-0.0425-0.02625-0.0875-0.0575-0.13625-0.09375-0.10375 0.30125-0.215 0.59625-0.33625 0.8825-0.12 0.28625-0.2475 0.57-0.3825 0.85-0.3025-0.1275-0.6125-0.26875-0.93125-0.4225-0.15625-0.07625-0.31375-0.1525-0.46875-0.23125-0.15625-0.07875-0.3125-0.155-0.47-0.23125 0.2675-0.55375 0.55875-1.1012 0.87375-1.6388-0.08375-0.0275-0.1475-0.04875-0.19375-0.06125-0.045-0.0125-0.0875-0.02875-0.12625-0.0475-0.04875-0.02375-0.095-0.04875-0.13625-0.075-0.0425-0.02625-0.10125-0.0675-0.1775-0.1225-0.12 0.2875-0.2375 0.5625-0.3525 0.82375-0.11375 0.2625-0.24625 0.555-0.395 0.87625-0.27-0.13-0.5375-0.26125-0.80125-0.39125s-0.525-0.27125-0.78625-0.42125c0.02625-0.05375 0.0725-0.1425 0.13875-0.26875 0.0675-0.125 0.14375-0.265 0.23-0.42 0.0875-0.15375 0.17625-0.31375 0.26875-0.47875 0.09125-0.16375 0.17625-0.315 0.255-0.4525-0.05875-0.01625-0.11125-0.0325-0.15875-0.05-0.04625-0.01625-0.10875-0.04375-0.1875-0.08125-0.1275-0.06125-0.225-0.12125-0.295-0.17875-0.0375 0.10375-0.12 0.2975-0.24875 0.58375-0.13 0.285-0.28125 0.61-0.45625 0.9725-0.1075 0.22125-0.2175 0.4375-0.3325 0.64875-0.11375 0.21125-0.22625 0.425-0.3375 0.64375 0.32625 0.1375 0.65125 0.2775 0.97125 0.4225 0.32125 0.14375 0.685 0.31375 1.0925 0.51125l1.0012 0.48375c0.40625 0.19625 0.76625 0.375 1.0788 0.53625 0.3125 0.1625 0.61625 0.325 0.9125 0.48875 0.015-0.04125 0.03375-0.09125 0.05875-0.14875m-5.1384 7.9115c-0.49-0.0225-0.92117 0.04055-1.2949 0.18555-0.375 0.14375-0.69016 0.34898-0.9414 0.61523-0.25125 0.2675-0.44578 0.58703-0.58203 0.95703-0.1375 0.37-0.21367 0.77398-0.23242 1.209-0.02125 0.47375 0.033675 0.90633 0.16992 1.2988 0.135 0.39375 0.32898 0.73188 0.58398 1.0156 0.255 0.285 0.55609 0.51078 0.90234 0.67578 0.3475 0.165 0.7225 0.25789 1.125 0.27539 0.5075 0.0225 0.94727-0.03805 1.3223-0.18555 0.375-0.1475 0.6868-0.35414 0.93555-0.61914 0.25-0.26375 0.4375-0.57555 0.5625-0.93555s0.19539-0.73922 0.21289-1.1367c0.155-0.2875 0.31523-0.6175 0.42773-0.8125s0.21617-0.40914 0.32617-0.58789c0.08625-0.14375 0.18203-0.30391 0.26953-0.44141-0.1-0.15375-0.17141-0.32992-0.25391-0.54492-0.0925-0.24375-0.18188-0.58008-0.20312-0.64258-0.02625 0.0775-0.10328 0.36969-0.14453 0.49219-0.06875 0.20125-0.13883 0.44656-0.23633 0.72656-0.0775 0.2225-0.15961 0.43086-0.25586 0.66211-0.1-0.33125-0.235-0.62953-0.40625-0.89453-0.17125-0.26375-0.37226-0.48969-0.60352-0.67969-0.23125-0.19-0.48969-0.33976-0.77344-0.44726-0.28375-0.10875-0.58766-0.1718-0.91016-0.18555zm-0.23047 1.332c0.44625 0.02 0.8318 0.08687 1.1543 0.20312 0.32125 0.115 0.58406 0.26055 0.78906 0.43555 0.205 0.17625 0.35476 0.37867 0.44726 0.60742 0.09375 0.2275 0.13625 0.46203 0.125 0.70703-0.01 0.22875-0.0611 0.44594-0.15234 0.64844-0.09125 0.20375-0.22992 0.3793-0.41992 0.5293-0.18875 0.15-0.43649 0.26375-0.74024 0.34375-0.3025 0.07875-0.67117 0.10984-1.1074 0.08984-0.34875-0.015-0.67477-0.06836-0.97852-0.16211-0.30375-0.0925-0.56781-0.22031-0.78906-0.38281-0.2225-0.1625-0.39578-0.35773-0.51953-0.58398-0.1225-0.22625-0.17852-0.47836-0.16602-0.75586 0.01125-0.26125 0.0764-0.49984 0.1914-0.71484 0.11625-0.21625 0.27602-0.39867 0.47852-0.54492s0.44547-0.25633 0.73047-0.33008c0.28375-0.075 0.60328-0.10485 0.95703-0.08985zm2.0876-7.9836c-0.3425-0.09125-0.66625-0.18375-0.9725-0.27375-0.305-0.09125-0.58375-0.17625-0.83625-0.25625-0.2525-0.07875-0.475-0.15-0.66625-0.21375-0.1925-0.0625-0.345-0.115-0.4575-0.15625-0.0075 0.07125-0.01625 0.13875-0.02625 0.205-0.00875 0.065-0.0225 0.13125-0.04125 0.2-0.015 0.0575-0.03625 0.12-0.0625 0.18625s-0.055 0.135-0.085 0.20625c0.36875 0.07625 0.735 0.15875 1.0975 0.245 0.36375 0.08625 0.7275 0.17875 1.09 0.27625 0.36875 0.1 0.72 0.20625 1.0538 0.3175 0.3325 0.11375 0.61875 0.25125 0.8575 0.41375 0.23875 0.16375 0.4125 0.355 0.52125 0.5775 0.11 0.22125 0.1225 0.49 0.0375 0.805-0.07 0.2575-0.1575 0.4775-0.2625 0.6575-0.105 0.18125-0.25625 0.31625-0.4525 0.4075s-0.45125 0.13125-0.76375 0.12c-0.31375-0.01125-0.71-0.08125-1.1888-0.21-0.4525-0.1225-0.8975-0.2475-1.3338-0.3775-0.43625-0.12875-0.9025-0.28875-1.3988-0.47875-0.01875 0.10875-0.0375 0.21875-0.06 0.33125-0.02125 0.1125-0.04625 0.22125-0.075 0.3275-0.02875 0.105-0.06125 0.21125-0.09875 0.32-0.03875 0.10875-0.07625 0.21375-0.115 0.31625 0.13375 0.025 0.33375 0.07 0.5975 0.13625 0.265 0.065 0.61 0.155 1.0362 0.27 0.1425 0.03875 0.27875 0.0775 0.41 0.115 0.13 0.03875 0.2675 0.07625 0.40875 0.115 0.1425 0.0375 0.29625 0.08125 0.46125 0.1275 0.165 0.0475 0.3525 0.1 0.5625 0.15625 0.37375 0.10125 0.7075 0.125 1.0012 0.07125 0.29375-0.05375 0.5525-0.165 0.7775-0.33625 0.22375-0.17125 0.41-0.39375 0.56-0.66625s0.27-0.5775 0.36125-0.915c0.205-0.7625 0.1625-1.395-0.12875-1.8962-0.29-0.5025-0.89375-0.87625-1.8088-1.1238m63.322-1.795c-0.425 0.1575-0.8025 0.2925-1.135 0.40625-0.33375 0.11375-0.66125 0.22-0.985 0.32 0.02 0.03875 0.0425 0.0875 0.06625 0.145 0.025 0.0575 0.05875 0.14375 0.10125 0.25875s0.09875 0.2675 0.16875 0.45625c0.0725 0.19375 0.16625 0.44625 0.2825 0.75875 0.13 0.3525 0.23125 0.63 0.30375 0.8325 0.0725 0.20375 0.1325 0.375 0.1775 0.515 0.0275-0.0225 0.0625-0.04375 0.1075-0.06625 0.04375-0.0225 0.10625-0.04875 0.1875-0.07875 0.0825-0.03 0.1475-0.05125 0.195-0.06375 0.0475-0.01125 0.1025-0.0225 0.16125-0.03375-0.145-0.28375-0.28-0.5675-0.40375-0.8525-0.1225-0.28625-0.23875-0.57375-0.34625-0.865 0.3-0.13 0.6175-0.255 0.94875-0.37875 0.16375-0.06125 0.3275-0.12 0.4925-0.17875 0.16375-0.0575 0.3275-0.1175 0.49125-0.1775 0.215 0.5775 0.4075 1.165 0.5775 1.765 0.0775-0.04 0.13625-0.0725 0.1775-0.09625 0.04-0.02375 0.08125-0.04375 0.1225-0.05875 0.05-0.01875 0.1-0.03375 0.1475-0.04625 0.04875-0.0125 0.11875-0.02625 0.21125-0.04375-0.12375-0.285-0.24-0.56-0.35-0.825-0.11-0.26375-0.22875-0.56125-0.3575-0.89125 0.28125-0.10375 0.56125-0.20625 0.8375-0.30625s0.55875-0.19125 0.8475-0.275c0.02125 0.05625 0.05375 0.15125 0.09875 0.28625 0.04375 0.135 0.09125 0.28625 0.1425 0.45625s0.105 0.345 0.16 0.525 0.105 0.34625 0.15 0.49875c0.0525-0.03125 0.10125-0.05875 0.145-0.08 0.04375-0.0225 0.10625-0.04875 0.18875-0.07875 0.1325-0.05 0.24375-0.07875 0.3325-0.08875-0.0475-0.09875-0.13-0.29375-0.24625-0.585-0.11625-0.29-0.245-0.625-0.385-1.0025-0.08625-0.23-0.165-0.46-0.23875-0.68875-0.0725-0.22875-0.15-0.45875-0.23-0.69-0.325 0.14125-0.65125 0.27625-0.9775 0.40875-0.32625 0.13-0.70125 0.275-1.1262 0.4325l-1.0412 0.38625zm-9.8025-10.24c0.09375 0.085 0.1825 0.1725 0.26875 0.265 0.04 0.04375 0.0825 0.08875 0.1275 0.1375 0.045 0.0475 0.085 0.09875 0.12125 0.155 0.04-0.045 0.095-0.10375 0.16625-0.17625 0.07-0.0725 0.16125-0.165 0.2725-0.27625 0.1125-0.1125 0.25125-0.2475 0.4175-0.405 0.165-0.1575 0.3675-0.3475 0.6075-0.57l0.695-0.64625c0.11875-0.11125 0.2375-0.22 0.35625-0.325 0.11625-0.10625 0.235-0.21 0.355-0.31375-0.1125 1.8225-0.26625 3.5912-0.45875 5.3038 0.07125 0.06125 0.1475 0.135 0.22875 0.2225 0.0775 0.08375 0.15 0.17 0.21625 0.2575l0.71875-0.66875c0.28625-0.2675 0.5575-0.5175 0.81375-0.75125 0.255-0.23375 0.51625-0.4675 0.7825-0.7 0.2675-0.23375 0.5525-0.48 0.8575-0.74125 0.30375-0.26125 0.6475-0.55 1.0288-0.8675-0.12375-0.09375-0.21625-0.17375-0.28-0.24125-0.0625-0.06875-0.13625-0.1675-0.22125-0.2975-0.03125 0.045-0.1025 0.12375-0.21375 0.2375-0.11 0.11375-0.24375 0.24625-0.40125 0.39625s-0.33125 0.315-0.51875 0.49375c-0.1875 0.1775-0.37875 0.3575-0.575 0.54l-0.58 0.54-0.52125 0.48375c0.0675-0.89625 0.1375-1.7738 0.20875-2.6325 0.07125-0.86 0.14625-1.7312 0.225-2.615-0.12375-0.09375-0.2175-0.17375-0.28-0.2425-0.06375-0.0675-0.13625-0.16625-0.22125-0.29625-0.14 0.1375-0.3 0.2975-0.48 0.48-0.18 0.18125-0.4075 0.40125-0.6825 0.6575-0.30375 0.2825-0.625 0.57125-0.96375 0.8675s-0.655 0.5675-0.94875 0.815c-0.295 0.2475-0.545 0.45625-0.7525 0.62625-0.20625 0.17-0.32875 0.26625-0.36875 0.2875m-1.6438-5.1612c0.28875-0.185 0.585-0.36875 0.89125-0.55-0.085 0.34125-0.17375 0.675-0.265 1.0025s-0.18625 0.66-0.28375 1l-1.2138-0.87625c0.2925-0.19875 0.5825-0.39125 0.87125-0.57625m-3.385 1.3912c0.0675 0.03625 0.12875 0.07375 0.18125 0.11125 0.05375 0.03875 0.10625 0.0775 0.16 0.115 0.0525 0.03875 0.10375 0.07625 0.155 0.1125 0.05 0.0375 0.09875 0.07875 0.14625 0.12625 0.21875-0.17125 0.44625-0.34375 0.68375-0.515 0.2375-0.17 0.4825-0.33625 0.73375-0.49875 0.1175 0.07875 0.235 0.15875 0.3525 0.24 0.115 0.08 0.23125 0.1625 0.34625 0.245 0.14125 0.1025 0.2825 0.205 0.4225 0.31 0.13875 0.10375 0.2775 0.21 0.41625 0.31625-0.07875 0.28625-0.1625 0.56875-0.25 0.8475-0.0875 0.28-0.17375 0.55375-0.26 0.82125 0.09875 0.05875 0.19625 0.12125 0.29125 0.19s0.19 0.13625 0.2825 0.20375c0.09125 0.0675 0.185 0.135 0.28125 0.20375 0.095 0.06875 0.1925 0.145 0.29125 0.23125 0.0575-0.34875 0.1425-0.765 0.25625-1.2475s0.2375-0.99 0.3725-1.5212c0.13375-0.53125 0.27625-1.0688 0.42375-1.6138 0.14875-0.54625 0.28875-1.0575 0.41875-1.535-0.05125-0.0225-0.09875-0.045-0.14375-0.0675-0.04375-0.02125-0.08875-0.04875-0.1325-0.08125-0.045-0.03125-0.08375-0.065-0.11875-0.1-0.035-0.03625-0.0725-0.07375-0.10875-0.11375-0.28 0.18125-0.5825 0.375-0.91 0.5825-0.32875 0.20625-0.66125 0.41625-1 0.62875s-0.67375 0.4225-1.0088 0.62875c-0.33375 0.205-0.645 0.39875-0.9375 0.5775-0.29 0.18-0.55375 0.34-0.78875 0.47875-0.235 0.14-0.42 0.2475-0.55625 0.32375m10.64 7.9038c-0.20375 0.31125-0.33375 0.65-0.39 1.0175-0.055 0.3675-0.03375 0.75125 0.065 1.1538 0.09875 0.40125 0.26875 0.8025 0.51 1.205 0.185 0.3075 0.39875 0.605 0.64 0.88875 0.24 0.285 0.49875 0.55375 0.7725 0.80875 0.03625-0.035 0.10375-0.08375 0.2025-0.14625s0.2075-0.12875 0.32375-0.19875l0.23125-0.14c0.1125-0.0675 0.23125-0.13625 0.35625-0.20875s0.24375-0.13875 0.35625-0.2 0.21375-0.11375 0.30125-0.1575c0.08875-0.04375 0.15375-0.0725 0.1975-0.085-0.0375-0.04125-0.085-0.1-0.14125-0.1775s-0.13375-0.20125-0.235-0.36875c-0.0875-0.145-0.15125-0.2575-0.19-0.33875s-0.06875-0.14875-0.0875-0.20125c-0.0625 0.045-0.18 0.1275-0.35125 0.25-0.17125 0.12125-0.44625 0.29625-0.82375 0.52375-0.1025 0.0625-0.19625 0.1175-0.2825 0.165-0.085 0.04875-0.15875 0.085-0.22 0.10875-0.03625-0.01625-0.08125-0.05-0.13375-0.10125-0.0525-0.05-0.105-0.11-0.15875-0.17625-0.0525-0.06625-0.10625-0.13625-0.15875-0.21-0.05375-0.0725-0.09875-0.13875-0.135-0.2-0.1625-0.27-0.25875-0.54125-0.28625-0.81-0.02875-0.26875 0.0012-0.52875 0.08875-0.77875 0.08875-0.25 0.22875-0.485 0.42-0.705 0.19125-0.22125 0.4275-0.415 0.70875-0.58375 0.36875-0.2225 0.72-0.36375 1.055-0.425 0.335-0.0625 0.64375-0.065 0.92625-0.0088 0.28125 0.05625 0.53125 0.16375 0.75 0.32125s0.39375 0.34375 0.5225 0.55875c0.19375 0.3225 0.29375 0.63375 0.3 0.93625 0.0062 0.30125-0.05 0.59-0.17 0.865l0.05875 0.09875c0.135-0.05 0.2725-0.0925 0.41-0.1275s0.2775-0.07125 0.4225-0.10625c-0.01625-0.33375-0.06625-0.6525-0.15-0.955s-0.23125-0.63125-0.445-0.98625c-0.2475-0.41125-0.53375-0.76-0.86-1.0475-0.325-0.2875-0.67625-0.495-1.0538-0.62-0.3775-0.12625-0.77875-0.16125-1.2012-0.10875-0.4225 0.05375-0.855 0.215-1.2988 0.48125-0.36 0.21625-0.64125 0.48-0.84625 0.79m10.135 18.365c-0.07875-0.22-0.1925-0.41375-0.34125-0.58-0.15-0.1675-0.33375-0.30125-0.5525-0.39875-0.22-0.09875-0.47125-0.14625-0.75375-0.1425-0.31125 0.0025-0.565 0.065-0.7625 0.1875s-0.36375 0.27375-0.4975 0.455c-0.135 0.1825-0.24875 0.38-0.34125 0.59375-0.0925 0.2125-0.18875 0.41-0.2875 0.59125s-0.2125 0.3325-0.3425 0.45375-0.2975 0.1825-0.505 0.185c-0.22875 0.0025-0.42625-0.0725-0.59125-0.22625s-0.24875-0.39375-0.2525-0.72c-0.0025-0.16375 0.01875-0.31125 0.06375-0.4425s0.1075-0.24375 0.18875-0.3375c0.08-0.09375 0.17375-0.17125 0.27875-0.2325 0.10625-0.06125 0.21875-0.1025 0.33875-0.12625l-0.0012-0.155c-0.18625-0.025-0.35875-0.05625-0.5175-0.0925-0.1575-0.03625-0.3325-0.08-0.52375-0.1325-0.09125 0.12-0.1675 0.2975-0.2275 0.52875-0.06 0.2325-0.08875 0.49625-0.085 0.79 0.0037 0.3275 0.04875 0.6225 0.13625 0.88625 0.0875 0.2625 0.2125 0.48875 0.37625 0.67875 0.1625 0.18875 0.3575 0.33375 0.585 0.43375 0.2275 0.10125 0.4775 0.15 0.75 0.1475 0.31-0.0038 0.56375-0.0675 0.7625-0.1925 0.1975-0.125 0.36375-0.28125 0.50125-0.4675 0.13625-0.1875 0.25125-0.3875 0.345-0.60125 0.0925-0.21375 0.19-0.4125 0.29125-0.6 0.10125-0.18625 0.215-0.34125 0.3425-0.465 0.12625-0.125 0.29125-0.1875 0.4925-0.19 0.19625-0.0025 0.36875 0.075 0.5175 0.23125s0.225 0.36 0.2275 0.61125c0.005 0.485-0.225 0.81625-0.69125 0.99625l0.0012 0.1225c0.18 0.0525 0.32875 0.09625 0.44625 0.13s0.23875 0.075 0.365 0.1225c0.12375-0.15875 0.22-0.35 0.28875-0.57125 0.0675-0.22125 0.1-0.47875 0.0975-0.77375-0.0037-0.245-0.04375-0.4775-0.1225-0.6975m-36.931-36.315c-0.2775 0-0.51047 0.00775-0.69922 0.021488-0.1875 0.01375-0.35445 0.021488-0.50195 0.021488-0.135 0-0.25844-0.003-0.36719-0.01175-0.10875-0.0075-0.21024-0.01735-0.30274-0.02735 0.0225 0.35375 0.03757 0.7061 0.04883 1.0586 0.01125 0.35125 0.01758 0.75258 0.01758 1.2051l0.002 1.1113c0 0.45125-0.0056 0.85383-0.01563 1.2051-0.01125 0.3525-0.02632 0.69641-0.04883 1.0352 0.0925-0.01125 0.19398-0.01757 0.30273-0.01757h0.36914 0.36719c0.10875-0.0013 0.21024 0.0056 0.30274 0.01563-0.0225-0.3375-0.03954-0.68195-0.05079-1.0332s-0.01758-0.75383-0.01758-1.2051v-0.33594h0.07226l1.4688 2.5723c0.125-0.01125 0.24859-0.01563 0.37109-0.01563h0.37109c0.12625 0 0.24914-0.002 0.36914-0.002s0.24219 0.0064 0.36719 0.01758c-0.30125-0.45125-0.60164-0.90789-0.90039-1.3691-0.30125-0.46-0.58125-0.92226-0.84375-1.3848 0.4075-0.10375 0.72195-0.28 0.93945-0.53125 0.21875-0.25125 0.32617-0.57586 0.32617-0.97461 0-0.245-0.04827-0.45656-0.14453-0.63281-0.095-0.1775-0.22422-0.32531-0.38672-0.44531-0.0725-0.04875-0.14656-0.0907-0.22656-0.12695-0.07875-0.035-0.17109-0.062738-0.27734-0.083988-0.10625-0.0225-0.23461-0.037575-0.38086-0.048825-0.1475-0.01125-0.32375-0.017575-0.53125-0.017575zm-0.572 0.4668c0.22375 0 0.41617 0.012 0.57617 0.0332 0.16125 0.02125 0.29133 0.068825 0.39258 0.14258 0.10125 0.07375 0.17656 0.18102 0.22656 0.32226 0.04875 0.1425 0.07422 0.33227 0.07422 0.57227 0 0.3925-0.09516 0.68516-0.28516 0.87891-0.19125 0.19375-0.46617 0.29102-0.82617 0.29102-0.0275 0-0.05594-0.00137-0.08594-0.00387s-0.06-0.00675-0.09375-0.01175c0-0.74125 0.0065-1.4834 0.02149-2.2246zm36.349 29.432c0.04125 0.21875 0.065 0.41 0.0725 0.5725 0.0075 0.16125-0.015 0.29875-0.07 0.41125-0.05375 0.1125-0.14625 0.205-0.27625 0.27875-0.13 0.075-0.31375 0.1325-0.55 0.17625-0.385 0.07125-0.69125 0.03125-0.91625-0.1225-0.225-0.1525-0.36875-0.405-0.43375-0.75875-0.005-0.02625-0.0088-0.055-0.0125-0.085-0.0025-0.03-0.0037-0.06125-0.005-0.095 0.72875-0.13375 1.46-0.26 2.1912-0.3775m-3.3388 2.7412c0.39875-0.3775 0.80125-0.7375 1.21-1.0788 0.175 0.38375 0.40625 0.66 0.6925 0.82875s0.625 0.2175 1.0162 0.145c0.24125-0.04375 0.44-0.12875 0.5975-0.255 0.15625-0.12625 0.28-0.28 0.3675-0.4625 0.035-0.07875 0.0625-0.16 0.08375-0.24375 0.02125-0.085 0.03125-0.18125 0.03375-0.28875 0.0025-0.10875-0.0037-0.23625-0.02-0.38375-0.01625-0.14625-0.0425-0.32125-0.08-0.525-0.05-0.27375-0.09875-0.50125-0.14625-0.68375-0.04875-0.1825-0.085-0.34625-0.11125-0.49125-0.025-0.13375-0.04375-0.255-0.055-0.36375s-0.02125-0.20875-0.02625-0.3025c-0.345 0.08625-0.68875 0.165-1.0325 0.24s-0.7375 0.1525-1.1825 0.235l-1.0938 0.20125c-0.445 0.08125-0.84125 0.14875-1.19 0.2025-0.3475 0.0525-0.68875 0.09875-1.025 0.13875 0.0275 0.08875 0.05125 0.1875 0.07125 0.29375 0.02 0.1075 0.04125 0.22875 0.06625 0.3625s0.0475 0.25375 0.06625 0.36125c0.02 0.1075 0.03375 0.2075 0.03875 0.3 0.32875-0.08125 0.66375-0.16 1.0088-0.235 0.34375-0.07375 0.7375-0.1525 1.1825-0.23375l0.33-0.06125 0.0125 0.0725-2.2662 1.905c0.0325 0.12125 0.06125 0.2425 0.0825 0.36375 0.0225 0.12 0.045 0.24125 0.0675 0.365s0.045 0.24375 0.06625 0.3625c0.0225 0.1175 0.03875 0.23875 0.05125 0.36375 0.39-0.37625 0.785-0.75375 1.1838-1.1325m-17.228-28.801c0.2 0.0975 0.36875 0.19 0.505 0.27875 0.135 0.09 0.2325 0.18875 0.2925 0.29875 0.0575 0.11 0.07875 0.24 0.0625 0.38875-0.0175 0.14875-0.07875 0.33125-0.18125 0.5475-0.17 0.35375-0.3825 0.5775-0.63875 0.66875-0.255 0.0925-0.545 0.06-0.87-0.095-0.02375-0.0125-0.05-0.02625-0.075-0.04125-0.02625-0.015-0.0525-0.0325-0.08-0.05125 0.32-0.66875 0.64875-1.3338 0.985-1.995m-2.7888 4.3562c0.1225 0.05875 0.2325 0.1125 0.33125 0.16 0.09875 0.04625 0.1875 0.095 0.26625 0.145 0.12625-0.31375 0.26125-0.6325 0.4025-0.95375 0.1425-0.32125 0.31125-0.68625 0.5075-1.0938l0.145-0.3025 0.06625 0.0325 0.205 2.9538c0.1175 0.045 0.23125 0.09375 0.3425 0.14625 0.11 0.05375 0.2225 0.1075 0.335 0.16125s0.22375 0.1075 0.3325 0.15875c0.1075 0.0525 0.21625 0.11 0.32375 0.17375-0.075-0.5375-0.1475-1.0788-0.21875-1.6225-0.07-0.545-0.12375-1.0838-0.15875-1.6138 0.4125 0.08375 0.7725 0.05875 1.0775-0.0725 0.30375-0.13125 0.54375-0.3775 0.715-0.73625 0.10625-0.22125 0.155-0.43125 0.145-0.6325-0.0087-0.20125-0.06125-0.39125-0.1575-0.57-0.0425-0.075-0.09125-0.145-0.1475-0.21125s-0.12625-0.1325-0.21375-0.1975c-0.08625-0.06625-0.19375-0.135-0.32125-0.20875s-0.285-0.155-0.4725-0.245c-0.25-0.12-0.46375-0.215-0.63875-0.28375s-0.32875-0.135-0.46125-0.19875c-0.12375-0.05875-0.2325-0.11625-0.32625-0.17-0.095-0.055-0.1825-0.1075-0.26125-0.1575-0.13375 0.32875-0.27125 0.65375-0.4125 0.97625-0.1425 0.32125-0.3125 0.68625-0.5075 1.0938l-0.48125 1.0025c-0.19625 0.4075-0.37375 0.7675-0.53625 1.08-0.16125 0.3125-0.32625 0.61625-0.49125 0.91125 0.08875 0.03 0.18125 0.06875 0.27875 0.11625 0.09875 0.0475 0.20875 0.1 0.3325 0.15875m-7.8762-2.255c0.13375 0.025 0.25375 0.04875 0.36125 0.06875s0.205 0.04375 0.29375 0.0725c0.015-0.2525 0.06-0.58875 0.13375-1.0062 0.0725-0.42 0.165-0.92 0.275-1.5038l0.01625 0.0025c0.19375 0.46875 0.38125 0.93875 0.565 1.4088 0.1825 0.47 0.3725 0.935 0.56875 1.3938 0.11875 0.01125 0.2375 0.0275 0.3525 0.05 0.115 0.02125 0.23125 0.04375 0.34875 0.06625s0.23875 0.045 0.36125 0.06875c0.12375 0.0225 0.26125 0.055 0.415 0.095-0.0825-0.14875-0.18875-0.3675-0.31625-0.655-0.13-0.2875-0.2675-0.6025-0.41625-0.94375-0.15-0.3425-0.2975-0.69-0.4475-1.0462-0.14875-0.355-0.28375-0.68-0.40625-0.975 0.13125-0.10875 0.315-0.25625 0.55-0.44125 0.235-0.18625 0.48-0.37625 0.73625-0.5725 0.25625-0.195 0.49625-0.37625 0.72375-0.545 0.225-0.1675 0.3925-0.28875 0.5-0.3625-0.0925-0.00625-0.17875-0.0125-0.2575-0.02-0.07875-0.00625-0.15625-0.0175-0.23125-0.03125s-0.15-0.0325-0.2225-0.055c-0.07375-0.02125-0.14625-0.045-0.21875-0.07-0.09 0.08875-0.23125 0.21875-0.42375 0.39-0.19375 0.17125-0.41 0.35875-0.6475 0.56375-0.23875 0.20375-0.4875 0.41375-0.74375 0.62875s-0.4975 0.4125-0.71875 0.59125l0.145-0.77125c0.075-0.39 0.145-0.745 0.215-1.065 0.06875-0.32 0.13125-0.5575 0.18875-0.71375-0.09375-0.00625-0.19375-0.015-0.3025-0.0275s-0.23-0.03125-0.36375-0.05625c-0.13375-0.02625-0.25375-0.0525-0.35875-0.08125-0.105-0.0275-0.2025-0.05625-0.29125-0.08375-0.045 0.3525-0.095 0.70125-0.15 1.0488-0.05375 0.3475-0.1225 0.74375-0.2075 1.1875l-0.2075 1.0925c-0.08375 0.445-0.16375 0.83875-0.24 1.1825-0.0775 0.3425-0.15625 0.67875-0.24125 1.0062 0.09375 0.0062 0.19375 0.02 0.30125 0.04 0.10625 0.02125 0.2275 0.04375 0.36125 0.06875" fill="#1d5ba4"/></svg>
