<?xml version="1.0" encoding="utf-8"?>
<!-- Generator: Adobe Illustrator 15.0.0, SVG Export Plug-In . SVG Version: 6.00 Build 0)  -->
<svg version="1.2" baseProfile="tiny" id="Layer_1" xmlns="http://www.w3.org/2000/svg" xmlns:xlink="http://www.w3.org/1999/xlink"
	 x="0px" y="0px" width="200px" height="237.654px" viewBox="0 0 200 237.654" xml:space="preserve">
<path fill="#0B5292" d="M0,0h200v85.803c0,84.839-55.998,132.103-100,151.852C52.595,216.667,0,167.238,0,85.802V0L0,0z"/>
<path fill="#FFFFFF" d="M141.709,188.317V66.61h41.004v19.192C182.713,126.316,167.783,161.744,141.709,188.317L141.709,188.317z"/>
<path fill="#2EC1EA" d="M58.046,66.61V188.09c11.802,12.15,25.894,22.442,41.914,30.444l0.04-0.021V66.61H58.046z"/>
<path fill="#FAE62E" d="M58.046,188.317c-26.074-26.573-41.004-62.001-41.004-102.515V66.61h41.004V188.317L58.046,188.317z"/>
<polygon fill="#FFFFFF" points="17.287,62.603 182.713,62.603 182.713,17.287 17.287,17.287 17.287,62.603 "/>
<path fill="#0B5292" d="M34.494,36.803c-0.167-0.53-0.179-2.28-0.199-2.867c-0.03-0.872-0.153-2.032-0.667-2.768
	c-0.309-0.445-0.737-0.775-1.211-1.024c0.61-0.26,1.11-0.69,1.506-1.271c0.551-0.806,0.816-1.705,0.816-2.681
	c0-1.341-0.393-2.583-1.488-3.417c-1.171-0.89-2.815-1.1-4.243-1.1h-6.798v16.338h2.828v-6.705h3.599
	c0.697,0,1.589,0.103,2.113,0.618c0.553,0.544,0.633,1.722,0.636,2.447c0.003,0.678-0.016,1.854,0.147,2.508
	c0.095,0.381,0.273,0.721,0.523,1.023l0.091,0.11h3.108l-0.372-0.487C34.712,37.308,34.578,37.067,34.494,36.803z M31.005,28.274
	c-0.593,0.524-1.375,0.681-2.145,0.681h-3.825v-4.922v-0.001h3.508c0.786,0,1.85,0.095,2.486,0.61
	c0.548,0.444,0.726,1.084,0.726,1.771C31.755,27.135,31.555,27.787,31.005,28.274z"/>
<path fill="#0B5292" d="M83.647,23.961c-1.55-1.722-3.882-2.203-6.107-2.203h-6.299v16.34h5.477c2.292,0,4.9-0.379,6.68-1.954
	c1.764-1.563,2.222-4.001,2.222-6.253C85.619,27.73,85.125,25.603,83.647,23.961z M81.249,34.345
	c-1.15,1.132-2.892,1.408-4.441,1.408h-2.74V24.116h3.377c1.454,0,2.875,0.353,3.884,1.457c1.068,1.165,1.348,2.834,1.348,4.359
	C82.677,31.477,82.398,33.213,81.249,34.345z"/>
<rect x="89.023" y="21.759" fill="#0B5292" width="2.828" height="16.34"/>
<polygon fill="#0B5292" points="71.788,44.713 71.788,47.424 75.669,45.634 75.669,58.835 78.621,58.835 78.621,42.17 76.599,42.17 
	"/>
<polygon fill="#0B5292" points="41.915,30.861 48.833,30.861 48.833,28.504 41.915,28.504 41.915,24.115 49.723,24.115 
	49.723,21.759 39.088,21.759 39.088,38.098 49.972,38.098 49.972,35.752 41.915,35.752 "/>
<path fill="#0B5292" d="M59.102,21.759l-6.417,16.34h3.009l1.542-4.063h6.521l1.542,4.063h3.022l-6.431-16.34H59.102z
	 M58.077,31.653l2.414-6.585l2.423,6.585H58.077z"/>
<polygon fill="#0B5292" points="109.881,38.099 109.881,21.759 107.041,21.759 107.041,33.659 99.549,21.759 95.969,21.759 
	95.969,38.099 98.797,38.099 98.797,25.761 106.319,38.099 "/>
<polygon fill="#0B5292" points="138.518,38.099 141.345,38.099 141.345,31.011 147.532,31.011 147.532,28.667 141.345,28.667 
	141.345,24.115 148.627,24.115 148.627,21.759 138.518,21.759 "/>
<path fill="#0B5292" d="M168.215,33.592c-0.198,0.651-0.501,1.547-1.027,2.005c-0.846,0.738-1.201,0.957-2.36,0.957
	c-1.54,0-2.564-0.519-3.537-1.693c-1.042-1.263-1.421-2.809-1.42-4.424c0-3.225,1.025-6.466,4.798-6.466
	c1.165,0,1.488,0.281,2.344,0.963c0.766,0.609,0.981,0.941,1.084,1.933l0.027,0.272h2.83l-0.033-0.334
	c-0.165-1.635-0.606-2.57-1.852-3.629c-1.408-1.195-2.516-1.562-4.398-1.562c-5.466,0-7.848,3.792-7.769,8.917
	c0.033,2.248,0.547,4.472,2.147,6.135c1.584,1.644,3.782,2.232,6.013,2.232c1.619,0,2.917-0.478,4.112-1.577
	c0.994-0.916,1.553-2.297,1.868-3.589l0.096-0.375l-2.858,0.024L168.215,33.592z"/>
<polygon fill="#0B5292" points="149.88,38.098 149.88,38.099 152.826,38.099 152.826,35.045 149.88,35.045 "/>
<polygon fill="#0B5292" points="175.564,35.045 175.564,38.098 175.564,38.099 178.511,38.099 178.511,35.045 "/>
<path fill="#0B5292" d="M121.175,29.292v2.357h4.112l0.004,3.204c-0.851,0.969-2.569,1.453-3.816,1.453
	c-3.733,0-5.485-3.036-5.485-6.461c0-1.602,0.304-3.257,1.307-4.551c0.944-1.212,2.287-1.652,3.793-1.652
	c1.029,0,1.784,0.105,2.586,0.777c0.686,0.575,0.966,0.917,1.039,1.833l0.022,0.279h2.787l-0.037-0.338
	c-0.188-1.634-0.779-2.575-2.06-3.567c-1.331-1.034-2.614-1.34-4.293-1.34c-2.222,0-4.307,0.59-5.889,2.205
	c-1.645,1.685-2.155,3.994-2.155,6.282c0,5.436,2.931,9.043,8.531,9.043c1.897,0,5.307-0.914,6.377-2.557l0.049-0.076l-0.01-6.89
	H121.175z"/>
<path fill="#0B5292" d="M94.33,50.276c1.261-0.767,2.192-2.29,2.192-3.725c0-3.13-2.944-4.532-5.707-4.532
	c-2.732,0-5.857,1.392-5.857,4.532c0,1.457,1.063,2.853,2.347,3.573c-1.612,0.668-2.901,2.141-2.901,3.958
	c0,3.567,3.216,5.224,6.412,5.224c3.187,0,6.504-1.638,6.504-5.224C97.319,52.244,95.946,50.903,94.33,50.276z M90.815,44.306
	c0.713,0,1.47,0.134,2.021,0.621c0.5,0.441,0.849,1.093,0.849,1.769c0,1.661-1.412,2.274-2.87,2.274
	c-1.448,0-3.032-0.702-3.031-2.355C87.785,44.991,89.408,44.306,90.815,44.306z M90.815,57.021c-1.781,0-3.405-1.156-3.405-3.048
	c0-1.749,1.926-2.457,3.405-2.457c1.341,0,3.486,0.847,3.486,2.457C94.301,55.874,92.589,57.021,90.815,57.021z"/>
<polygon fill="#0B5292" points="100.617,44.881 109.043,44.88 102.753,58.834 105.914,58.834 112.295,44.299 112.295,42.18 
	100.617,42.181 "/>
<polygon fill="#0B5292" points="116.188,44.723 116.188,47.434 120.067,45.645 120.067,58.844 123.021,58.844 123.021,42.179 
	120.998,42.179 "/>
</svg>
