<svg enable-background="new 0 0 228.8 229.1" height="316" viewBox="0 0 316 315.99999" width="316" xmlns="http://www.w3.org/2000/svg" xmlns:xlink="http://www.w3.org/1999/xlink"><defs><radialGradient id="a" cx="67.097397" cy="6735.7051" gradientTransform="matrix(.8607 0 0 .1615 56.5338 -909.1212)" gradientUnits="userSpaceOnUse" r="30.850401"><stop offset="0" stop-color="#515356"/><stop offset=".04091722" stop-color="#5b5d5f"/><stop offset=".1903" stop-color="#818183"/><stop offset=".3435" stop-color="#a5a5a7"/><stop offset=".499" stop-color="#c5c5c7"/><stop offset=".6579" stop-color="#dedfe1"/><stop offset=".8221" stop-color="#f0f3f4"/><stop offset="1" stop-color="#f9fdfe"/></radialGradient><linearGradient id="b"><stop offset="0" stop-color="#ebedef"/><stop offset=".1966" stop-color="#e1e3eb"/><stop offset=".6741" stop-color="#cecfe4"/><stop offset="1" stop-color="#c8c8e2"/></linearGradient><linearGradient id="c" gradientUnits="userSpaceOnUse" x1="114.2846" x2="114.2846" xlink:href="#b" y1="179.2775" y2="176.81281"/><linearGradient id="d" gradientUnits="userSpaceOnUse" x1="98.5867" x2="100.0515" xlink:href="#b" y1="130.8775" y2="132.9693"/><linearGradient id="e" gradientUnits="userSpaceOnUse" x1="90.297302" x2="90.297302" xlink:href="#b" y1="151.8598" y2="168.7957"/><linearGradient id="f" gradientUnits="userSpaceOnUse" x1="140.5358" x2="136.11681" xlink:href="#b" y1="160.4865" y2="160.17751"/><linearGradient id="g" gradientUnits="userSpaceOnUse" x1="126.5847" x2="132.7498" xlink:href="#b" y1="153.1368" y2="162.4725"/><linearGradient id="h" gradientUnits="userSpaceOnUse" x1="121.8882" x2="136.3167" xlink:href="#b" y1="132.1337" y2="132.1337"/><linearGradient id="i" gradientUnits="userSpaceOnUse" x1="118.5225" x2="130.3243" y1="137.26801" y2="141.6716"><stop offset="0" stop-color="#ebedef"/><stop offset=".445" stop-color="#d9dae8"/><stop offset="1" stop-color="#c8c8e2"/></linearGradient><linearGradient id="j" gradientUnits="userSpaceOnUse" x1="106.8339" x2="121.7335" xlink:href="#b" y1="162.69701" y2="174.33791"/><linearGradient id="k" gradientUnits="userSpaceOnUse" x1="98.561501" x2="110.5587" xlink:href="#b" y1="133.2292" y2="145.22639"/><linearGradient id="l" gradientUnits="userSpaceOnUse" x1="98.738899" x2="98.738899" xlink:href="#b" y1="146.34869" y2="168.7299"/><clipPath id="m"><use height="100%" overflow="visible" width="100%" xlink:href="#n"/></clipPath><path id="n" d="m146.7 73.3l-32.5-28.1-33.1 28.1z"/></defs><circle cx="158" cy="158" fill="#ede634" r="158"/><circle cx="158" cy="158" fill="none" r="149.30655" stroke="#2c3b8e" stroke-miterlimit="10" stroke-width="2.75982523"/><g fill="#2c3b8e" transform="scale(1.3799127)"><path d="m30.5 133.3c.1-.7-.3-1.3.1-1.4.2 0 .3.1.4.5l1.3 6.2c.1.3.1.5-.1.5-.3.1-.3-.4-.5-.9-.5-1.2-1.5-1-3.7-.5l-4.5 1c-2 .4-3 .6-3.2 1.7-.1.6.3 1.2-.1 1.3-.2 0-.3-.1-.4-.4l-1.4-6.6c-.3-1.4-.4-2.5-.2-3.5.3-1.1 1.1-1.9 2.2-2.1 1.7-.4 3.1.6 3.9 2.7l3.5-3.3c.8-.7 1.2-1.4 1.2-2.1 0-.5-.2-1 .1-1 .2 0 .3.1.4.5l.7 3.2c0 .1 0 .1 0 .1.1.4.1.6-.2.9l-5 4.6.2 1 2.1-.4c2.1-.6 3-.9 3.2-2zm-5.8 1.8c-.2-.8-.7-1.5-1.3-1.9-.4-.3-.8-.2-.9-.4 0-.2.4-.2 1.2-.5-.7-.6-1.5-.7-2.5-.5-1.9.4-2.6 1.5-2.3 3.2.3 1.4 1 1.7 2.4 1.4l3.5-.8z"/><path d="m18.1 124.5c-1.2-1.1-1.9-2.9-2-4.8-.1-2 .5-3.8 1.6-5.1 1.1-1.3 2.8-2 4.8-2.1 2-.1 3.6.4 4.9 1.6 1.3 1.2 2.1 3 2.2 5 .2 4.1-2.3 6.9-6.5 7.2-2 .1-3.7-.5-5-1.8zm11-5.4c-.1-2.5-2.3-3.7-6.4-3.5-4.3.2-6.3 1.5-6.2 4 .1 2.4 2.4 3.8 6.5 3.5 4.2-.1 6.3-1.5 6.1-4z"/><path d="m29 104.4c.3-.6.1-1.3.5-1.3.2 0 .2.2.2.6l-.6 6.5c0 .4-.1.6-.3.5-.3 0-.2-.5-.2-1.1-.1-1.4-1.1-1.5-3.4-1.7l-1.7-.2-4.9 2.4c-1.1.5-1.8.9-2 1.6-.2.5-.1 1-.4.9-.2 0-.2-.2-.2-.5l.6-6c0-.4.1-.6.3-.5.3 0 .2.3.2.7 0 .7.1 1 .6 1.1.3 0 .5-.1.7-.2l4.3-2.1-2.6-2.2c-.7-.6-1.4-.9-1.7-1-.7-.1-.9.3-1.1 1.3-.1.4 0 .7-.3.7-.2 0-.2-.2-.2-.5l.4-4.5c0-.4.1-.6.3-.5.3 0 .2.3.3.8.2 1.2 1.2 2.2 2.5 3.3l3 2.5 2 .2c2.2.2 3.2.2 3.7-.8z"/><path d="m28.4 99.1c.7.2 1.3-.1 1.6-.8.1-.3.2-.5.4-.5.2 0 .2.2.1.5l-.9 4.1c-.1.3-.2.4-.3.4-.1 0-.2-.2-.2-.3.2-1.1-.5-2.4-2.4-3.6l-6.7-4.4c-.5.2-.6.8-.9.7-.2-.1-.1-.6-.4-1.5-.3-1-1-1.5-.9-1.7 0-.2.5-.2 1.3-.3l9.8-1c1.9-.2 2.6-.3 3-1.3.3-.5.3-.9.6-.9.2 0 .2.2.1.5l-1.5 6.4c-.1.3-.2.5-.4.4-.2-.1-.1-.3 0-.9.1-.9 0-1.4-.7-1.6-.4-.1-.9 0-1.7 0l-1.8.2-.9 4 1.4.9c.7.5 1.2.7 1.4.7zm-7.9-4.8l4.8 3.1.8-3.6z"/><path d="m32.3 89.8c-.3-.1-.1-.5 0-1 .2-1.2-.7-1.7-2.8-2.5l-4.3-1.6c-1.9-.7-2.9-1.1-3.6-.3-.4.5-.4 1.2-.8 1-.2-.1-.2-.3-.1-.6l2.3-6c .1-.4.2-.5.4-.4.3.1.1.5-.1 1.1-.3 1.3.7 1.8 2.8 2.6l5.5 2.1c1.5.6 2.3.5 2.9-1 .5-1.4.4-2.7-.2-4.2-.6-1.3-1.2-1.7-1.1-2 0-.1.2-.1.3-.1.1 0 .1.1.3.2l3.5 3.5c.2.2.2.2.2.4-.1.3-.4 0-.8.2-.7.3-1.2 1.2-1.9 2.8l-2.1 5.5c-.1.3-.3.4-.4.3z"/><path d="m38 55.8c-.8-.5-1.3-.3-2 .4-.3.3-.4.5-.6.4-.2-.1-.1-.3.1-.6l2.2-3.4c.2-.3.3-.4.5-.3.2.2 0 .4-.1.8-.2 1 .5 2.2 1.9 3.8l4.3 4.8c.7.1 1-.3 1.2-.1.2.1-.1.6-.2 1.5-.1 1 .2 1.5.1 1.7-.1.1-.3.1-.6-.1l-8.5-2.5 4.4 5.1c.7.1 1-.3 1.2-.1.2.1-.1.5-.2 1.4-.1 1 .2 1.5.1 1.7-.1.1-.3.1-.6-.1l-8.9-2.6c-1.7-.5-2.7-.8-3.3-.4-.5.3-.6.8-.9.6-.2-.1-.1-.3.1-.6l2.9-4.4c.2-.3.3-.4.5-.3.2.1.1.3 0 .6-.3.6-.2 1 .4 1.4.3.2.9.4 1.6.7l6.5 1.9-4.6-5.1c-1.7-.5-2.5-.8-3.2-.1-.3.3-.4.5-.7.4-.2-.1-.1-.3.1-.6l2.9-4.4c.2-.3.3-.4.5-.3.2.1.1.3 0 .5-.3.6-.3 1 .3 1.4.3.2.9.5 1.6.7l6.5 1.9-4-4.3c-.5-.6-1-1.1-1.5-1.4z"/><path d="m41.4 50.8c0-1.6.8-3.4 2.1-4.8 1.4-1.4 3.1-2.3 4.8-2.3 1.7-.1 3.4.6 4.9 2.1 1.4 1.4 2.1 2.9 2.2 4.7 0 1.8-.7 3.6-2.1 5-2.8 2.9-6.7 3-9.7.1-1.5-1.3-2.2-3-2.2-4.8zm11.5 4.4c1.7-1.8 1.1-4.2-1.8-7.1-3.1-3-5.4-3.6-7.2-1.8-1.7 1.8-1.1 4.3 1.9 7.2 3 2.9 5.4 3.4 7.1 1.7z"/><path d="m52.9 39.6c.3-1.6 1.3-3.2 2.9-4.4 1.6-1.2 3.4-1.7 5.1-1.5 1.7.2 3.2 1.2 4.5 2.8 1.2 1.6 1.6 3.2 1.4 5-.3 1.7-1.3 3.4-2.9 4.6-3.3 2.4-7.1 1.9-9.6-1.4-1.3-1.6-1.7-3.3-1.4-5.1zm10.6 6.2c2-1.5 1.8-4-.6-7.3-2.6-3.4-4.8-4.4-6.8-2.9-1.9 1.5-1.8 4.1.7 7.4 2.5 3.3 4.8 4.3 6.7 2.8z"/><path d="m76.9 36.9c.7-.1 1.2-.6 1.4-.3.1.2 0 .3-.4.5l-5.8 3c-.3.2-.5.2-.6 0-.2-.3.3-.4.8-.8 1.1-.8.6-1.8-.4-3.7l-2.7-5.2c-.8-1.5-1.3-2-2.2-1.5-.8.4-1.3 1.3-1.7 2.7-.3 1.1-.2 1.6-.4 1.7-.1 0-.2 0-.3-.1 0 0 0-.1 0-.2l-.3-3.7c0-.3 0-.5.1-.6.2-.1.3.1.7.2.6.1 1.6-.4 3.2-1.2l1.9-1c1.5-.8 2.4-1.3 2.7-1.7.3-.4.2-.8.4-.9.1-.1.3 0 .5.3l2.9 2.4c.1.1.2.1.2.2.1.1 0 .2-.1.3-.3.1-.7-.2-1.7-.6-1.4-.5-2.4-.6-3.2-.2-1 .5-.9 1.2-.1 2.7l2.7 5.2c.8 1.8 1.2 2.7 2.4 2.5z"/><path d="m89 32.1c.7 0 1.3-.4 1.4-.1.1.2-.1.3-.4.4l-6.2 2.1c-.4.1-.5.1-.6-.1-.1-.3.3-.4.9-.7 1.2-.7.9-1.6.2-3.8l-1.9-5.5c-.5-1.6-1-2.1-2-1.8-.8.3-1.5 1.1-2.1 2.5-.4 1-.4 1.6-.7 1.7-.1 0-.2 0-.3-.2 0 0 0-.1 0-.2l.2-3.7c0-.3.1-.5.2-.6.2-.1.3.2.7.3.6.2 1.6-.1 3.3-.7l2-.7c1.6-.6 2.6-1 2.9-1.3.4-.4.3-.8.5-.9.2-.1.3.1.5.3l2.5 2.8c.1.1.1.2.1.2 0 .1 0 .3-.1.3-.3.1-.6-.3-1.6-.9-1.3-.7-2.3-.9-3.1-.6-1.1.4-1 1.1-.5 2.6l1.9 5.5c.6 2.2 1 3.1 2.2 3.1z"/><path d="m93 19.8c1-1.3 2.6-2.3 4.5-2.6 2-.4 3.8 0 5.2.9 1.4 1 2.4 2.5 2.7 4.5.3 1.9 0 3.6-1 5-1 1.4-2.7 2.5-4.7 2.8-4 .7-7.2-1.5-7.9-5.6-.2-1.8.1-3.6 1.2-5zm6.8 10.3c2.4-.4 3.4-2.8 2.7-6.8-.8-4.2-2.3-6.1-4.8-5.7-2.4.4-3.4 2.9-2.7 6.9.7 4.2 2.4 6 4.8 5.6z"/><path d="m110.8 28.2c.5.2 1.1 0 1.1.3 0 .2-.2.3-.6.3l-4.1.1c-.3 0-.5 0-.5-.2 0-.3.4-.2.7-.3 1-.2 1.5-1.4 1.4-3.5l-.1-7.5c-.5-.8-1.1-.6-1.9-.7-.3 0-.4-.1-.4-.3 0-.2.2-.3.5-.3l4.1-.1c.1 0 .2 0 .3 0 .2 0 .3 0 .4.1.1.1.1.4.4.8l6 8.7-.1-5.8c0-2-.5-3-1.5-3.3-.6-.1-1.1 0-1.1-.3 0-.2.2-.3.6-.3l4.2-.1c.3 0 .5 0 .5.3 0 .3-.3.2-.7.3-1.1.2-1.5 1.3-1.5 3.4l.1 6.4c.5.6 1.2.5 1.2.8 0 .2-.6.3-1.3.8-.8.6-1 1.2-1.2 1.2-.2 0-.3-.2-.5-.5l-7.7-11.2.1 7.5c.1 2 .5 3.1 1.6 3.4z"/><path d="m125.5 28.9c.1-.3.5-.1 1-.1 1.3 0 1.5-1 2-3.2l.9-4.5c.4-2 .6-3-.3-3.6-.5-.3-1.2-.2-1.1-.6 0-.2.2-.2.5-.1l7 1.4c2.9.6 4.2 1.9 3.8 3.9-.3 1.4-1.5 2.3-3.7 2.1 2.4.8 3.5 2.2 3.1 4.1-.4 2.1-2.5 3.2-5.8 2.5l-7.1-1.4c-.2-.2-.3-.3-.3-.5zm5.2-1c-.2 1.2.3 1.9 1.7 2.2 1.9.4 3.2-.5 3.6-2.5.4-2.1-.3-3.2-2.4-3.6l-2-.4zm3.3-4.3c1.5.3 2.5-.4 2.8-2.1.4-1.7-.3-2.7-2-3.1-1.6-.3-2.2.1-2.5 1.8l-.6 2.9z"/><path d="m140.9 30.7c-.3.7 0 1.3.6 1.7.3.2.5.3.4.5-.1.2-.2.2-.5.1l-3.9-1.4c-.3-.1-.4-.2-.4-.4 0-.1.2-.2.3-.1 1 .4 2.4-.2 3.8-1.9l5.2-6.1c-.2-.6-.7-.7-.6-1 .1-.2.6-.1 1.5-.2 1-.2 1.6-.8 1.8-.7.2.1.1.5.1 1.3l-.2 9.9c0 1.9 0 2.6.9 3.2.5.3.9.4.8.7-.1.2-.2.2-.5.1l-6.2-2.2c-.3-.1-.4-.2-.4-.4.1-.2.3-.1.9.1.9.2 1.4.2 1.6-.5.1-.4.2-.9.2-1.7v-1.8l-3.8-1.4-1 1.2c-.3.3-.5.7-.6 1zm5.8-7.3l-3.7 4.4 3.5 1.3z"/><path d="m162.9 32.2c-.1.2-.2.2-.3.2-.3-.1-.2-.7-.3-1.9-.1-1.3-1.1-2.7-2.2-3.3-1.5-.8-2.8-.5-3.4.6-.3.5-.3 1.1 0 1.7.2.5 1.3 1.4 3.1 3 1.7 1.6 2.2 3.1 1.3 4.8-1.1 2.2-3.8 2.9-6.6 1.5-.9-.5-1.4-1-1.8-1.2-.7-.4-1.2.4-1.5.3-.1-.1-.1-.2-.1-.4l.3-4.5c0-.2 0-.3 0-.3.1-.2.2-.2.3-.1.3.1.1 1 .6 2.5.5 1.6 1.2 2.7 2.6 3.4 1.5.8 3 .4 3.6-.8.8-1.5-.4-2.5-2.5-4.4-2-1.9-2.8-3.3-1.9-5.1 1-1.9 3.6-2.7 6.1-1.4.9.5 1.5 1.1 1.9 1.3.7.3.9-.5 1.2-.3.1 0 .1.2.1.4l-.4 3.7c0 .1 0 .2-.1.3z"/><path d="m173.2 39.1c-.1.1-.2.2-.3.1-.2-.2-.1-.7-.1-1.9 0-1.3-.7-2.8-1.8-3.6-1.4-1-2.8-.8-3.5.2-.3.5-.4 1-.2 1.6.2.5 1.1 1.6 2.6 3.4 1.5 1.8 1.7 3.4.7 4.9-1.4 2-4.2 2.4-6.7.6-.9-.6-1.3-1.2-1.6-1.4-.7-.5-1.3.3-1.6.1-.1-.1-.1-.2 0-.4l.9-4.4c0-.2.1-.3.1-.3.1-.1.2-.2.4-.1.3.2 0 1 .3 2.6.3 1.7.9 2.8 2.1 3.7 1.4 1 2.9.8 3.6-.3 1-1.4-.1-2.5-1.9-4.7-1.7-2.2-2.4-3.7-1.2-5.3 1.3-1.8 3.9-2.2 6.2-.6.9.6 1.3 1.3 1.7 1.6.6.4.9-.3 1.2-.2.1.1.1.2 0 .4l-.8 3.7c0 .1 0 .2-.1.3z"/><path d="m168.6 46.9c.2-.2.5.1.9.4 1.1.7 1.8 0 3.3-1.7l3.1-3.4c1.4-1.5 2.1-2.2 1.6-3.2-.3-.5-.9-.8-.6-1.1.1-.2.3-.1.5.2l4.5 4.2c1.2 1.1 2 1.8 2.5 2 .5.2.9-.1 1 0 .1.1.1.3 0 .5l-1.3 3.6c-.1.1-.1.2-.1.3-.1.1-.2 0-.3 0-.2-.2.1-.9-.1-2.2-.2-1.5-.9-2.8-1.8-3.6-1.1-1-1.8-.9-2.9.3l-2 2.2.6.5c1.5 1.4 2.3 2 3.3 1.5.6-.3 1-1.1 1.3-.8.2.1.1.3-.2.6l-3.2 3.5c-.3.3-.5.5-.6.3-.2-.2.1-.4.4-.9.8-1 .6-2.1-.6-3.2l-1.3-1.2-2.6 2.8c-1.2 1.3-1.3 2 0 3.2 1.3 1.2 2.5 1.7 4.3 1.7 1.5-.1 2.2-.4 2.4-.2.1.1.1.2 0 .3 0 0-.1.1-.3.2l-4.6 1.9c-.2.1-.3.1-.4 0-.2-.2.1-.4.1-.8 0-.8-.6-1.6-1.9-2.8l-4.8-4.4c-.3-.4-.3-.5-.2-.7z"/><path d="m184 62.4c.2.6.8 1 .5 1.3-.2.1-.3 0-.5-.3l-4.1-5.1c-.2-.3-.3-.5-.2-.6.3-.2.5.2.9.6 1 .9 1.9.3 3.6-1.1l4.6-3.7c1.3-1 1.7-1.6 1-2.5-.5-.7-1.5-1.1-3-1.1-1.1-.1-1.6.1-1.8-.1-.1-.1-.1-.2.1-.3 0 0 .1-.1.2-.1l3.6-1c .3-.1.5-.1.6 0 .1.2-.1.4-.1.7 0 .6.7 1.5 1.8 2.9l1.3 1.6c1.1 1.3 1.8 2.1 2.2 2.3.5.2.8 0 1 .2.1.1 0 .3-.2.6l-1.8 3.3c-.1.1-.1.2-.1.2-.1.1-.2.1-.3 0-.2-.2.1-.7.3-1.8.2-1.4.1-2.5-.4-3.2-.7-.9-1.3-.6-2.6.4l-4.6 3.7c-1.7 1.3-2.4 1.9-2 3.1z"/><path d="m191 73.2c.1.7.7 1.2.3 1.4-.2.1-.3 0-.5-.4l-3.3-5.6c-.2-.3-.2-.5-.1-.6.3-.2.4.3.8.7.9 1 1.8.6 3.7-.6l5.1-2.9c1.4-.8 1.9-1.3 1.4-2.3-.4-.7-1.4-1.3-2.8-1.6-1.1-.2-1.6-.1-1.8-.4-.1-.1 0-.2.1-.3 0 0 .1 0 .2-.1l3.7-.5c.3-.1.5 0 .6.1.1.2-.1.3-.2.7-.1.6.4 1.6 1.4 3.1l1.1 1.8c.8 1.5 1.4 2.4 1.8 2.6.4.3.8.1.9.3.1.1 0 .3-.2.5l-2.2 3c-.1.1-.1.2-.2.2-.1.1-.2 0-.3-.1-.1-.2.2-.7.5-1.7.5-1.4.5-2.5 0-3.2-.6-1-1.2-.8-2.7 0l-5.1 2.9c-1.6 1.4-2.5 1.9-2.2 3z"/><path d="m197.9 89.9c0 .7.4 1.3 0 1.4-.2.1-.3-.1-.4-.5l-2-6.2c-.1-.4-.1-.5.1-.6.3-.1.4.4.7.9.6 1.2 1.6.9 3.8.2l5.6-1.8c1.6-.5 2.2-.9 1.8-2-.3-.8-1.1-1.5-2.4-2.1-1-.4-1.6-.5-1.6-.7 0-.1 0-.2.2-.3 0 0 .1 0 .2 0l3.7.3c.3 0 .5.1.6.2.1.2-.2.3-.3.7-.2.6.1 1.6.7 3.3l.7 2c .5 1.6.9 2.6 1.3 2.9.4.4.8.3.8.5.1.2-.1.3-.3.5l-2.8 2.4c-.1.1-.2.1-.2.1-.1 0-.3 0-.3-.1-.1-.3.3-.6.9-1.6.7-1.3 1-2.3.7-3.1-.3-1.1-1-1-2.6-.5l-5.6 1.8c-2.4.8-3.3 1.1-3.3 2.3z"/><path d="m210.1 94.2c1.3 1 2.2 2.7 2.6 4.6.3 2-.1 3.8-1 5.2-1 1.4-2.6 2.3-4.6 2.7-1.9.3-3.6 0-5-1.1-1.4-1-2.4-2.7-2.8-4.7-.7-4 1.6-7.1 5.7-7.8 2-.4 3.7 0 5.1 1.1zm-10.3 6.6c.4 2.4 2.7 3.5 6.8 2.8 4.2-.7 6.1-2.2 5.7-4.7-.4-2.4-2.8-3.5-6.9-2.8-4.2.7-6 2.3-5.6 4.7z"/><path d="m211.5 122.6c.9 0 1.3-.4 1.4-1.4.1-.4.1-.7.3-.7.2 0 .2.2.2.5l-.1 4.1c0 .4 0 .6-.3.6-.3 0-.2-.3-.4-.7-.4-.9-1.6-1.6-3.6-2.2l-6.2-1.7c-.6.3-.7.8-.9.8-.2 0-.2-.5-.6-1.3-.5-.9-1-1.2-1-1.4 0-.1.2-.2.6-.3l8.6-2.5-6.4-1.9c-.6.3-.7.8-.9.8-.2 0-.2-.5-.6-1.3-.5-.9-1-1.2-1-1.4 0-.1.2-.2.6-.3l8.9-2.6c1.7-.5 2.7-.7 3-1.5.2-.5.1-1 .4-1 .2 0 .2.2.2.5l-.1 5.3c0 .4 0 .6-.3.6-.2 0-.2-.2-.3-.5-.1-.7-.3-.9-1-1-.4 0-1 .1-1.7.3l-6.5 1.9 6.4 1.9c1.7-.4 2.5-.7 2.8-1.6.1-.4.1-.7.4-.7.2 0 .2.2.2.5l-.1 5.2c0 .4 0 .6-.3.6-.2 0-.2-.2-.3-.5-.1-.7-.3-1-1-1-.4 0-1 .1-1.7.3l-6.5 1.9 5.7 1.5c.9.1 1.6.2 2.1.2z"/><path d="m200.4 128.3c-.3.5-.2 1-.6 1-.2 0-.2-.2-.1-.6l.8-4c .1-.3.1-.5.3-.5.3.1.2.4.2.7 0 1 1.1 1.7 3.1 2.1l7.4 1.4c.9-.3.9-.9 1.1-1.7.1-.3.2-.4.3-.3.2 0 .2.2.2.5l-.8 4c0 .1 0 .2-.1.3 0 .2-.1.3-.2.4-.1.1-.5 0-.9.2l-9.8 4.1 5.7 1.1c1.9.4 3 .2 3.5-.8.2-.5.2-1.1.5-1 .2 0 .2.2.2.6l-.8 4.1c-.1.3-.2.5-.4.5-.3-.1-.2-.4-.2-.7 0-1.1-1-1.8-3-2.2l-6.3-1.2c-.7.4-.8 1.1-1 1-.2 0-.2-.6-.6-1.5-.4-.9-.9-1.3-.9-1.4 0-.2.2-.2.5-.4l12.6-5.2-7.3-1.4c-1.7-.2-2.9 0-3.4.9z"/><path d="m43 179.1c.2.6.9 1 .6 1.3-.1.1-.3 0-.6-.2l-4.2-4.8c-.2-.3-.3-.4-.1-.6.2-.2.5.2.9.5 1 .8 1.8.1 3.5-1.4l3.4-3.1c1.5-1.4 2.3-2 1.9-3.1-.2-.6-.8-.9-.5-1.2.2-.2.3 0 .5.2l3.8 4.3c1.1 1.2 1.8 2 2.3 2.2.5.2.9 0 1 .1.1.1.1.3-.1.5l-1.7 3.4c-.1.1-.1.2-.2.3-.1.1-.2 0-.3 0-.2-.2.1-.7.1-1.7 0-1.7-.5-3.3-1.3-4.1-.8-1-1.7-.9-2.8.1l-2.2 2 1 1.1c1 1.1 1.8 1.3 2.7.8.6-.4.8-.8 1.1-.5.1.2 0 .3-.3.6l-3.6 3.2c-.3.3-.5.4-.7.3-.2-.2.1-.4.5-.9.9-1 .8-2-.2-3.2l-.8-1-1.9 1.7c-1.5 1.5-2.2 2.1-1.8 3.2z"/><path d="m56 177.3c1.6-.1 3.4.6 4.9 1.8 1.5 1.3 2.5 3 2.6 4.6.2 1.7-.4 3.4-1.7 5-1.3 1.5-2.8 2.3-4.5 2.5-1.8.1-3.6-.5-5.2-1.8-3.1-2.6-3.5-6.4-.8-9.6 1.3-1.6 2.9-2.4 4.7-2.5zm-3.5 11.8c1.9 1.6 4.3.8 7-2.3 2.8-3.3 3.2-5.7 1.3-7.3-1.9-1.6-4.4-.8-7 2.4-2.8 3.2-3.2 5.6-1.3 7.2z"/><path d="m67 186c1.6-.3 3.5 0 5.2 1 1.7 1 2.9 2.5 3.3 4.1.5 1.7.1 3.5-.9 5.2-1 1.7-2.4 2.7-4.1 3.2-1.7.4-3.7.1-5.4-.9-3.5-2.1-4.5-5.8-2.3-9.4 1-1.7 2.4-2.8 4.2-3.2zm-1.6 12.2c2.1 1.3 4.4.1 6.5-3.4 2.2-3.7 2.2-6.1.1-7.4-2.1-1.2-4.5-.1-6.6 3.5-2.2 3.6-2.1 6.1 0 7.3z"/><path d="m81.5 205.3c.5.5 1.2.5 1.1.9-.1.2-.3.2-.6 0l-6-2.4c-.4-.1-.5-.2-.4-.4.1-.3.5 0 1.1.1 1.3.3 1.8-.7 2.6-2.7l2.2-5.4c.6-1.6.7-2.2-.3-2.7-.8-.3-1.9-.2-3.2.5-1 .5-1.3.9-1.6.8-.1 0-.2-.2-.1-.3 0 0 .1-.1.2-.2l2.6-2.7c.2-.3.4-.4.5-.3.2.1.1.4.3.7.3.5 1.3.9 3 1.6l2 .8c1.6.6 2.6 1 3.1.9.5 0 .7-.4.9-.3.2.1.1.2.1.6l.1 3.7c0 .1 0 .2 0 .2-.1.1-.2.2-.3.1-.3-.1-.3-.7-.6-1.7-.5-1.4-1.1-2.2-1.9-2.5-1-.4-1.5.1-2.1 1.7l-2.2 5.4c-1.1 1.9-1.4 2.8-.5 3.6z"/><path d="m86.2 207.5c.1-.3.5-.1 1-.1 1.3.1 1.6-.9 2.1-3.1l1.1-4.5c.5-2 .7-3-.2-3.6-.5-.3-1.2-.3-1.1-.7 0-.2.2-.2.5-.1l7 1.7c2.9.7 4.1 2 3.7 4-.3 1.4-1.6 2.2-3.7 2 2.4.9 3.4 2.4 3 4.2-.5 2.1-2.6 3.1-5.8 2.3l-7-1.7c-.6-.1-.7-.2-.6-.4zm5.2-.8c-.3 1.2.2 1.9 1.7 2.2 1.9.5 3.2-.4 3.7-2.4.5-2.1-.2-3.2-2.3-3.7l-2-.5zm3.4-4.2c1.5.4 2.5-.3 2.9-2 .4-1.7-.2-2.7-1.9-3.1-1.6-.4-2.2.1-2.6 1.7l-.7 2.9z"/><path d="m102.6 209.3c-.1.7.3 1.3 1 1.5.3.1.6.1.5.3 0 .2-.2.2-.5.2l-4.2-.4c-.3 0-.5-.1-.4-.3 0-.1.1-.2.3-.2 1.1.1 2.3-.8 3.2-2.8l3.5-7.2c-.3-.5-.8-.5-.8-.8 0-.2.6-.2 1.4-.6 1-.5 1.4-1.2 1.6-1.2.2 0 .3.4.5 1.2l2.3 9.6c.4 1.8.7 2.5 1.7 2.8.5.2 1 .2.9.4 0 .2-.2.2-.5.2l-6.6-.6c-.3 0-.5-.1-.5-.3 0-.2.3-.2.9-.2.9 0 1.4-.2 1.5-.9 0-.4-.1-.9-.3-1.6l-.4-1.7-4-.4-.7 1.7c-.3.5-.4 1-.4 1.3zm3.7-8.5l-2.4 5.2 3.7.3z"/><path d="m113.7 211.9c0-.3.4-.3 1-.4 1.2-.3 1.2-1.3 1.1-3.6l-.2-4.6c-.1-2-.2-3.1-1.2-3.4-.6-.2-1.2.1-1.3-.3 0-.2.2-.3.5-.3l6.4-.3c.4 0 .6 0 .6.2 0 .3-.4.3-1 .4-1.3.3-1.4 1.3-1.2 3.6l.3 5.8c.1 1.7.5 2.3 2.1 2.2 1.5-.1 2.7-.7 3.8-1.9 1-1.1 1.1-1.8 1.4-1.8.1 0 .2.1.2.2 0 .1 0 .2-.1.3l-1.8 4.6c-.1.2-.1.3-.3.3-.3 0-.2-.4-.5-.6-.5-.6-1.6-.7-3.3-.6l-5.8.3c-.6.1-.7.1-.7-.1z"/><path d="m126.8 211.2c-.1-.3.4-.3.9-.5 1.2-.5 1-1.5.6-3.7l-.8-4.5c-.4-2-.6-3-1.6-3.2-.6-.1-1.2.2-1.3-.1 0-.2.1-.3.4-.4l6.3-1.2c.4-.1.6-.1.6.1.1.3-.4.3-1 .5-1.3.5-1.2 1.5-.8 3.7l1.1 5.7c.3 1.6.8 2.2 2.4 1.9 1.5-.3 2.6-1 3.5-2.4.8-1.2.8-1.9 1.1-2 .1 0 .2.1.2.2 0 .1 0 .2 0 .4l-1.2 4.8c-.1.2-.1.3-.2.3-.3.1-.3-.4-.5-.6-.6-.5-1.7-.4-3.4-.1l-5.7 1.1c-.4.2-.5.1-.6 0z"/><path d="m153.2 194c0 .1.1.1.1.2 0 .1 0 .3-.1.3-.3.1-.5-.2-1.2-.7-1.7-1.2-3.2-1.6-4.6-1-2.3.9-2.9 3.5-1.3 7.4 1.5 3.8 3.6 5.2 6.2 4.2 1.5-.6 2.5-1.9 2.7-3.7.1-.7-.2-1.2.2-1.3.2-.1.3 0 .4.2.1.2.1 1-.2 2-.5 1.6-1.6 2.7-3.3 3.4-1.4.5-2.7.7-4 .5-2.1-.4-3.9-1.9-4.8-4.1-1.5-3.8 0-7.4 3.5-8.8 1.1-.4 2-.5 2.5-.7.3-.1.4-.3.5-.6 0-.2-.1-.5.1-.5.1 0 .2 0 .4.2z"/><path d="m158 201.9c-.2-.3.2-.4.7-.8 1-.8.5-1.7-.6-3.7l-2.3-4c-1-1.8-1.5-2.7-2.6-2.5-.6.1-1.1.6-1.3.3-.1-.2 0-.3.3-.5l5.5-3.2c.3-.2.5-.2.6-.1.2.3-.3.4-.8.8-1.1.9-.6 1.8.5 3.8l2.9 5.1c.8 1.4 1.5 1.8 2.9 1 1.3-.8 2.1-1.8 2.5-3.4.4-1.4.2-2.1.4-2.2.1 0 .2 0 .3.1 0 0 0 .2.1.4l.4 4.9c0 .2 0 .3-.1.4-.2.1-.4-.2-.7-.4-.7-.3-1.7.1-3.2 1l-5.1 2.9c-.2.2-.3.2-.4.1z"/><path d="m162.7 185.4c-.6.2-.9.7-1.2.4-.1-.2 0-.3.2-.5l4.9-3.9c.3-.2.5-.3.6-.1.2.3-.2.5-.6.9-.9 1-.3 1.9 1.1 3.6l2.7 3.5c.2.2.3.4.5.6.5.6.9 1.1 1.6 1.4.9.3 1.9 0 3-.9 2.2-1.7 2.2-3.3.5-5.6l-2.9-3.6c-1.2-1.5-2.2-2.1-3.1-1.7-.6.3-.9.7-1.1.4-.1-.2 0-.3.2-.5l3.3-2.6c.3-.2.5-.3.6-.1.2.2-.1.4-.4.7-.6.7-.3 1.9.9 3.5l3 3.9c1.9 2.4 1.6 4.3-1.3 6.6-1.4 1.1-2.8 1.7-4 1.7-1.3 0-1.9-.6-2.7-1.7l-3-3.8c-1.1-1.6-1.7-2.4-2.8-2.2z"/><path d="m181.3 185.8c-.2-.2.1-.5.4-.9.7-1.1 0-1.8-1.7-3.3l-3.4-3.1c-1.5-1.4-2.2-2.1-3.2-1.6-.6.3-.8.9-1.1.6-.2-.1-.1-.3.2-.5l4.9-5.2c2-2.2 3.8-2.6 5.3-1.2 1.1 1 1.1 2.5-.1 4.2 1.9-1.6 3.7-1.8 5.1-.5 1.6 1.5 1.4 3.8-.9 6.2l-4.9 5.3c-.3.1-.4.1-.6 0zm0-10c1-1.1.9-2.3-.3-3.5-1.3-1.2-2.5-1.2-3.7.1-1.1 1.2-1 1.9.2 3.1l2.2 2zm1.9 5.1c.9.8 1.8.7 2.8-.3 1.4-1.4 1.3-2.9-.3-4.4-1.6-1.5-2.9-1.4-4.3.2l-1.4 1.5z"/></g><circle cx="158" cy="158" fill="none" r="105.42533" stroke="#fff" stroke-miterlimit="10" stroke-width="2.75982523"/><g transform="scale(1.3799127)"><ellipse cx="114.3" cy="178.7" fill="url(#a)" rx="26.6" ry="5"/><path d="m123.2 177.7c0 .1 0 .1 0 0-2.8 1-5.8 1.5-8.9 1.5-3.1 0-6.1-.5-8.9-1.5 0 0 0 0 0 0 .3 0 2 0 4-.9 3.2.7 6.5.7 9.8 0l0 0c2 1 3.7 1 4 .9z" fill="url(#c)"/><path d="m106.7 126.9c0 0 0 0 0 0-.2.2-1.6 1.1-2.7 3.1-3 1.4-5.7 3.3-7.9 5.8l0 0c-2.2.4-3.5 1.4-3.8 1.6 3.4-5 8.4-8.8 14.4-10.5z" fill="url(#d)"/><path d="m92.7 164.7l0 0c-.3 2.2.2 3.8.3 4.1-3.5-4.5-5.5-10.1-5.5-16.3 0-.2 0-.5 0-.7.1.3.6 1.9 2.1 3.5.5 3.3 1.5 6.5 3.1 9.4z" fill="url(#e)"/><path d="m141 151.9c0 .2 0 .4 0 .7 0 6.1-2.1 11.8-5.5 16.3.1-.3.6-1.9.3-4.1 1.6-2.9 2.6-6 3-9.3l0 0c1.6-1.7 2.1-3.3 2.2-3.6z" fill="url(#f)"/><path d="m141 151.9c-.1.3-.6 1.9-2.1 3.5l0 0c-1.5-2.8-3.3-6-5.6-9 0-3.7-.4-7.5-.8-10.6 2.2.4 3.6 1.4 3.8 1.6 2.9 4.1 4.6 9.1 4.7 14.5z" fill="#2c3b8e"/><path d="m138.9 155.4l0 0c-.4 3.3-1.4 6.5-3 9.3-2.8 1.4-6.3 2.9-9.8 4l-5.3-7.3 4-12.3 8.5-2.8c2.2 3 4.1 6.3 5.6 9.1z" fill="url(#g)"/><path d="m135.9 164.7c.3 2.2-.2 3.8-.3 4.1-3.1 4.1-7.4 7.2-12.3 9 0 0 0 0 0 0-.3 0-2 0-4-.9 2.2-2.2 4.7-5 6.9-8.1 3.4-1.2 6.9-2.7 9.7-4.1z" fill="#2c3b8e"/><path d="m136.3 137.4c-.2-.2-1.6-1.2-3.8-1.6-2.2-2.4-4.9-4.4-7.9-5.8l0 0c-1.1-2-2.5-3-2.7-3.1 0 0 0 0 0 0 5.9 1.7 11 5.5 14.4 10.5z" fill="url(#h)"/><path d="m132.5 135.8c.4 3.1.8 6.9.8 10.6l-8.5 2.8-10.5-7.6v-9c3.5-1.2 7.2-2 10.3-2.5l0 0c3 1.3 5.7 3.3 7.9 5.7z" fill="url(#i)"/><path d="m120.8 161.5l5.3 7.3c-2.2 3-4.7 5.8-6.9 8.1l0 0c-3.3.6-6.6.6-9.8 0-2.2-2.2-4.7-5-6.9-8.1l5.3-7.3z" fill="url(#j)"/><path d="m114.3 141.5l10.5 7.6-4 12.4h-13l-4-12.4z" fill="#2c3b8e"/><path d="m121.9 126.9c.2.2 1.6 1.1 2.7 3.1-3.1.5-6.8 1.3-10.3 2.5-3.5-1.2-7.2-2-10.3-2.5 1.1-2 2.5-3 2.7-3.1 0 0 0 0 0 0 2.4-.7 5-1.1 7.6-1.1 2.6 0 5.2.4 7.6 1.1 0 0 0 0 0 0z" fill="#2c3b8e"/><path d="m114.3 132.5v9l-10.5 7.6-8.5-2.8c0-3.7.4-7.5.8-10.6l0 0 0 0c2.3-2.4 4.9-4.4 7.9-5.8 3 .7 6.8 1.4 10.3 2.6z" fill="url(#k)"/><path d="m103.8 149.1l4 12.3-5.3 7.3c-3.6-1.1-7-2.7-9.8-4l0 0c-1.6-2.9-2.7-6.1-3-9.3 1.5-2.8 3.3-6 5.6-9z" fill="url(#l)"/><path d="m102.5 168.7c2.2 3 4.7 5.8 6.9 8.1-2 1-3.7.9-4 .9 0 0 0 0 0 0 0 0 0 0 0 0-4.9-1.7-9.2-4.9-12.3-9-.1-.3-.6-1.9-.3-4.1 2.7 1.5 6.2 3 9.7 4.1z" fill="#2c3b8e"/><path d="m96 135.8l0 0c-.4 3.1-.8 6.9-.8 10.6-2.2 3-4.1 6.3-5.6 9-1.5-1.6-2-3.2-2.1-3.5.1-5.4 1.9-10.4 4.7-14.5.3-.2 1.7-1.2 3.8-1.6z" fill="#2c3b8e"/></g><circle cx="271.29083" cy="214.71442" fill="#fff" r="6.3475981"/><circle cx="47.193016" cy="214.71442" fill="#fff" r="6.3475981"/><path d="m116.60262 143.09694h14.2131v5.3816595h-14.2131z" fill="#fff" stroke="#2c3b8e" stroke-miterlimit="10" stroke-width="1.37991261"/><path d="m119.36244 148.47861h9.1074238v31.186028h-9.1074238z" fill="#fff" stroke="#2c3b8e" stroke-miterlimit="10" stroke-width="1.37991261"/><path d="m150.27249 143.09694h14.2131v5.3816595h-14.2131z" fill="#fff" stroke="#2c3b8e" stroke-miterlimit="10" stroke-width="1.37991261"/><path d="m183.80437 143.09694h14.2131v5.3816595h-14.2131z" fill="#fff" stroke="#2c3b8e" stroke-miterlimit="10" stroke-width="1.37991261"/><path d="m186.42621 148.47861h9.1074238v31.186028h-9.1074238z" fill="#fff" stroke="#2c3b8e" stroke-miterlimit="10" stroke-width="1.37991261"/><path d="m115.63669 102.38951h82.932747v40.845417h-82.932747z" fill="#fff" stroke="#2c3b8e" stroke-miterlimit="10" stroke-width="2.75982523"/><path d="m130.67773 102.25153v40.84541" fill="none" stroke="#2c3b8e" stroke-miterlimit="10" stroke-width="1.37991261"/><path d="m137.57729 126.12402v16.97292" fill="none" stroke="#2c3b8e" stroke-miterlimit="10" stroke-width="1.37991261"/><path d="m176.07686 126.12402v16.97292" fill="none" stroke="#2c3b8e" stroke-miterlimit="10" stroke-width="1.37991261"/><path d="m183.11441 102.25153v40.84541" fill="none" stroke="#2c3b8e" stroke-miterlimit="10" stroke-width="1.37991261"/><path d="m168.76332 102.25153v40.84541" fill="none" stroke="#2c3b8e" stroke-miterlimit="10" stroke-width="1.37991261"/><path d="m145.02881 102.25153v40.84541" fill="none" stroke="#2c3b8e" stroke-miterlimit="10" stroke-width="1.37991261"/><path d="m116.46463 122.95022h14.0751" fill="none" stroke="#2c3b8e" stroke-miterlimit="10" stroke-width="2.06986904"/><path d="m130.67773 126.4h14.07511" fill="none" stroke="#2c3b8e" stroke-miterlimit="10" stroke-width="2.06986904"/><path d="m168.90131 126.4h14.07512" fill="none" stroke="#2c3b8e" stroke-miterlimit="10" stroke-width="2.06986904"/><path d="m183.66638 122.95022h14.07511" fill="none" stroke="#2c3b8e" stroke-miterlimit="10" stroke-width="2.06986904"/><g fill="none" stroke="#2c3b8e" stroke-miterlimit="10" transform="scale(1.3799127)"><path d="m84.1 81.6c2.4 1.7 4.3 4.2 5.1 7.1"/><path d="m94.1 81.7c-2.4 1.8-4.1 4.4-4.7 7.3"/><path d="m84.1 82.2c2.4-1.7 4.2-4.2 5-7.1"/><path d="m94.4 81.9c-2.4-1.7-4.2-4.3-5-7.2"/></g><path d="m145.3048 119.22445c5.65765 4.13974 9.93537 10.34935 11.86725 17.52489v5.51966" fill="none" stroke="#2c3b8e" stroke-miterlimit="10" stroke-width="1.37991261"/><path d="m168.34934 119.36244c-5.38165 4.27774-9.52139 10.07337-11.0393 16.97293" fill="none" stroke="#2c3b8e" stroke-miterlimit="10" stroke-width="1.37991261"/><path d="m145.3048 119.77642c5.51965-3.86376 9.65939-9.65939 11.45328-16.28297" fill="none" stroke="#2c3b8e" stroke-miterlimit="10" stroke-width="1.37991261"/><path d="m169.0393 120.0524c-5.51965-4.00174-9.65939-10.07336-11.45327-16.83493" fill="none" stroke="#2c3b8e" stroke-miterlimit="10" stroke-width="1.37991261"/><g fill="none" stroke="#2c3b8e" stroke-miterlimit="10" transform="scale(1.3799127)"><path d="m84.1 96.1c2.4 1.7 4.3 4.2 5.1 7.1"/><path d="m94.1 96.2c-2.4 1.8-4.1 4.4-4.7 7.3"/><path d="m84.1 96.8c2.4-1.7 4.2-4.2 5-7.1"/><path d="m94.4 96.4c-2.4-1.7-4.2-4.3-5-7.2"/></g><g fill="none" stroke="#2c3b8e" stroke-miterlimit="10" transform="scale(1.3799127)"><path d="m132.8 81.6c2.4 1.7 4.3 4.2 5.1 7.1"/><path d="m142.8 81.7c-2.4 1.8-4.1 4.4-4.7 7.3"/><path d="m132.7 82.2c2.4-1.7 4.2-4.2 5-7.1"/><path d="m143.1 81.9c-2.4-1.7-4.2-4.3-5-7.2"/></g><g fill="none" stroke="#2c3b8e" stroke-miterlimit="10" transform="scale(1.3799127)"><path d="m132.8 96.1c2.4 1.7 4.3 4.2 5.1 7.1"/><path d="m142.8 96.2c-2.4 1.8-4.1 4.4-4.7 7.3"/><path d="m132.7 96.8c2.4-1.7 4.2-4.2 5-7.1"/><path d="m143.1 96.4c-2.4-1.7-4.2-4.3-5-7.2"/></g><path d="m163.24368 124.60612l5.65763 5.51964" fill="none" stroke="#2c3b8e" stroke-miterlimit="10" stroke-width="1.37991261"/><path d="m160.48386 129.15982l8.55545 8.96944" fill="none" stroke="#2c3b8e" stroke-miterlimit="10" stroke-width="1.37991261"/><path d="m175.93886 128.74585l7.31355 7.45152" fill="none" stroke="#2c3b8e" stroke-miterlimit="10" stroke-width="1.37991261"/><path d="m175.93886 134.4035l7.31355 7.45153" fill="none" stroke="#2c3b8e" stroke-miterlimit="10" stroke-width="1.37991261"/><g fill="none" stroke="#2c3b8e" stroke-miterlimit="10" transform="scale(1.3799127)"><path d="m127.6 93.300003l-5.3 5.399994"/><path d="m127.6 97.400002l-5.3 5.399998"/></g><g fill="none" stroke="#2c3b8e" stroke-miterlimit="10" transform="scale(1.3799127)"><path d="m99.900002 93.300003l-5.300004 5.399994"/><path d="m99.900002 97.400002l-5.300004 5.399998"/></g><path d="m137.71529 128.74585l7.31352 7.45152" fill="none" stroke="#2c3b8e" stroke-miterlimit="10" stroke-width="1.37991261"/><path d="m137.71529 134.4035l7.31352 7.45153" fill="none" stroke="#2c3b8e" stroke-miterlimit="10" stroke-width="1.37991261"/><path d="m157.72403 134.4035l8.27945 8.83144" fill="none" stroke="#2c3b8e" stroke-miterlimit="10" stroke-width="1.37991261"/><g fill="none" stroke="#2c3b8e" stroke-miterlimit="10" transform="scale(1.3799127)"><path d="m109.2 90.099998l-4.1 4"/><path d="m111.2 93.400002l-6.2 6.5"/><path d="m113.2 97.099998l-6 6.500002"/></g><path clip-rule="evenodd" d="m110.5 84.6c0 3.5 1 5.2 3.4 6.9 2.3-1.7 3.3-3.4 3.3-6.9-1.1 0-2.2-.2-3.3-.7-1.2.4-2.3.6-3.4.7z" fill="#2c3b8e" fill-rule="evenodd" transform="scale(1.3799127)"/><path clip-rule="evenodd" d="m132.88559 105.42533h4.277729v3.8637555h-4.277729z" fill="#2c3b8e" fill-rule="evenodd"/><path clip-rule="evenodd" d="m138.68121 105.42533h4.277729v3.8637555h-4.277729z" fill="#2c3b8e" fill-rule="evenodd"/><path clip-rule="evenodd" d="m132.88559 110.25502h4.277729v3.8637555h-4.277729z" fill="#2c3b8e" fill-rule="evenodd"/><path clip-rule="evenodd" d="m138.68121 110.25502h4.1397381v3.8637555h-4.1397381z" fill="#2c3b8e" fill-rule="evenodd"/><path clip-rule="evenodd" d="m132.88559 115.08472h4.277729v3.8637555h-4.277729z" fill="#2c3b8e" fill-rule="evenodd"/><path clip-rule="evenodd" d="m138.68121 115.08472h4.277729v3.8637555h-4.277729z" fill="#2c3b8e" fill-rule="evenodd"/><path clip-rule="evenodd" d="m132.88559 119.77642h4.277729v3.8637555h-4.277729z" fill="#2c3b8e" fill-rule="evenodd"/><path clip-rule="evenodd" d="m138.68121 119.77642h4.277729v3.8637555h-4.277729z" fill="#2c3b8e" fill-rule="evenodd"/><path clip-rule="evenodd" d="m171.10916 105.42533h4.277729v3.8637555h-4.277729z" fill="#2c3b8e" fill-rule="evenodd"/><path clip-rule="evenodd" d="m176.76682 105.42533h4.277729v3.8637555h-4.277729z" fill="#2c3b8e" fill-rule="evenodd"/><path clip-rule="evenodd" d="m171.10916 110.25502h4.277729v3.8637555h-4.277729z" fill="#2c3b8e" fill-rule="evenodd"/><path clip-rule="evenodd" d="m176.76682 110.25502h4.1397381v3.8637555h-4.1397381z" fill="#2c3b8e" fill-rule="evenodd"/><path clip-rule="evenodd" d="m171.10916 115.08472h4.277729v3.8637555h-4.277729z" fill="#2c3b8e" fill-rule="evenodd"/><path clip-rule="evenodd" d="m176.76682 115.08472h4.277729v3.8637555h-4.277729z" fill="#2c3b8e" fill-rule="evenodd"/><path clip-rule="evenodd" d="m171.10916 119.77642h4.277729v3.8637555h-4.277729z" fill="#2c3b8e" fill-rule="evenodd"/><path clip-rule="evenodd" d="m176.76682 119.77642h4.277729v3.8637555h-4.277729z" fill="#2c3b8e" fill-rule="evenodd"/><g transform="scale(1.3799127)"><use fill="#fff" height="100%" overflow="visible" width="100%" xlink:href="#n"/><g clip-path="url(#m)"><path d="m84.1 70.7l1.6.3 1.5-.3 1.5.3 1.6-.3 1.5.3 1.5-.3 1.5.3 1.6-.3 1.5.3 1.5-.3 1.5.3 1.6-.3 1.5.3 1.5-.3 1.5.3 1.6-.3 1.5.3 1.5-.3 1.6.3 1.5-.3 1.5.3 1.6-.3 1.5.3 1.5-.3 1.5.3 1.6-.3 1.5.3 1.5-.3 1.6.3 1.5-.3 1.5.3 1.6-.3 1.5.3 1.5-.3 1.5.3 1.6-.3 1.5.3 1.6-.3 1.5.3" fill="#fff"/><path d="m84.1 70.7l1.6.3 1.5-.3 1.5.3 1.6-.3 1.5.3 1.5-.3 1.5.3 1.6-.3 1.5.3 1.5-.3 1.5.3 1.6-.3 1.5.3 1.5-.3 1.5.3 1.6-.3 1.5.3 1.5-.3 1.6.3 1.5-.3 1.5.3 1.6-.3 1.5.3 1.5-.3 1.5.3 1.6-.3 1.5.3 1.5-.3 1.6.3 1.5-.3 1.5.3 1.6-.3 1.5.3 1.5-.3 1.5.3 1.6-.3 1.5.3 1.6-.3 1.5.3" fill="none" stroke="#2c3b8e" stroke-miterlimit="10"/></g><g clip-path="url(#m)"><path d="m84.1 68.3l1.6.3 1.5-.3 1.5.3 1.6-.3 1.5.3 1.5-.3 1.5.3 1.6-.3 1.5.3 1.5-.3 1.5.3 1.6-.3 1.5.3 1.5-.3 1.5.3 1.6-.3 1.5.3 1.5-.3 1.6.3 1.5-.3 1.5.3 1.6-.3 1.5.3 1.5-.3 1.5.3 1.6-.3 1.5.3 1.5-.3 1.6.3 1.5-.3 1.5.3 1.6-.3 1.5.3 1.5-.3 1.5.3 1.6-.3 1.5.3 1.6-.3 1.5.3" fill="#fff"/><path d="m84.1 68.3l1.6.3 1.5-.3 1.5.3 1.6-.3 1.5.3 1.5-.3 1.5.3 1.6-.3 1.5.3 1.5-.3 1.5.3 1.6-.3 1.5.3 1.5-.3 1.5.3 1.6-.3 1.5.3 1.5-.3 1.6.3 1.5-.3 1.5.3 1.6-.3 1.5.3 1.5-.3 1.5.3 1.6-.3 1.5.3 1.5-.3 1.6.3 1.5-.3 1.5.3 1.6-.3 1.5.3 1.5-.3 1.5.3 1.6-.3 1.5.3 1.6-.3 1.5.3" fill="none" stroke="#2c3b8e" stroke-miterlimit="10"/></g><g clip-path="url(#m)"><path d="m84.1 66l1.6.2 1.5-.2 1.5.2 1.6-.2 1.5.2 1.5-.2 1.5.2 1.6-.2 1.5.2 1.5-.2 1.5.2 1.6-.2 1.5.2 1.5-.2 1.5.2 1.6-.2 1.5.2 1.5-.2 1.6.2 1.5-.2 1.5.2 1.6-.2 1.5.2 1.5-.2 1.5.2 1.6-.2 1.5.2 1.5-.2 1.6.2 1.5-.2 1.5.2 1.6-.2 1.5.2 1.5-.2 1.5.2 1.6-.2 1.5.2 1.6-.2 1.5.2" fill="#fff"/><path d="m84.1 66l1.6.2 1.5-.2 1.5.2 1.6-.2 1.5.2 1.5-.2 1.5.2 1.6-.2 1.5.2 1.5-.2 1.5.2 1.6-.2 1.5.2 1.5-.2 1.5.2 1.6-.2 1.5.2 1.5-.2 1.6.2 1.5-.2 1.5.2 1.6-.2 1.5.2 1.5-.2 1.5.2 1.6-.2 1.5.2 1.5-.2 1.6.2 1.5-.2 1.5.2 1.6-.2 1.5.2 1.5-.2 1.5.2 1.6-.2 1.5.2 1.6-.2 1.5.2" fill="none" stroke="#2c3b8e" stroke-miterlimit="10"/></g><g clip-path="url(#m)"><path d="m84.1 63.6l1.6.3 1.5-.3 1.5.3 1.6-.3 1.5.3 1.5-.3 1.5.3 1.6-.3 1.5.3 1.5-.3 1.5.3 1.6-.3 1.5.3 1.5-.3 1.5.3 1.6-.3 1.5.3 1.5-.3 1.6.3 1.5-.3 1.5.3 1.6-.3 1.5.3 1.5-.3 1.5.3 1.6-.3 1.5.3 1.5-.3 1.6.3 1.5-.3 1.5.3 1.6-.3 1.5.3 1.5-.3 1.5.3 1.6-.3 1.5.3 1.6-.3 1.5.3" fill="#fff"/><path d="m84.1 63.6l1.6.3 1.5-.3 1.5.3 1.6-.3 1.5.3 1.5-.3 1.5.3 1.6-.3 1.5.3 1.5-.3 1.5.3 1.6-.3 1.5.3 1.5-.3 1.5.3 1.6-.3 1.5.3 1.5-.3 1.6.3 1.5-.3 1.5.3 1.6-.3 1.5.3 1.5-.3 1.5.3 1.6-.3 1.5.3 1.5-.3 1.6.3 1.5-.3 1.5.3 1.6-.3 1.5.3 1.5-.3 1.5.3 1.6-.3 1.5.3 1.6-.3 1.5.3" fill="none" stroke="#2c3b8e" stroke-miterlimit="10"/></g><g clip-path="url(#m)"><path d="m84.1 61.2l1.6.3 1.5-.3 1.5.3 1.6-.3 1.5.3 1.5-.3 1.5.3 1.6-.3 1.5.3 1.5-.3 1.5.3 1.6-.3 1.5.3 1.5-.3 1.5.3 1.6-.3 1.5.3 1.5-.3 1.6.3 1.5-.3 1.5.3 1.6-.3 1.5.3 1.5-.3 1.5.3 1.6-.3 1.5.3 1.5-.3 1.6.3 1.5-.3 1.5.3 1.6-.3 1.5.3 1.5-.3 1.5.3 1.6-.3 1.5.3 1.6-.3 1.5.3" fill="#fff"/><path d="m84.1 61.2l1.6.3 1.5-.3 1.5.3 1.6-.3 1.5.3 1.5-.3 1.5.3 1.6-.3 1.5.3 1.5-.3 1.5.3 1.6-.3 1.5.3 1.5-.3 1.5.3 1.6-.3 1.5.3 1.5-.3 1.6.3 1.5-.3 1.5.3 1.6-.3 1.5.3 1.5-.3 1.5.3 1.6-.3 1.5.3 1.5-.3 1.6.3 1.5-.3 1.5.3 1.6-.3 1.5.3 1.5-.3 1.5.3 1.6-.3 1.5.3 1.6-.3 1.5.3" fill="none" stroke="#2c3b8e" stroke-miterlimit="10"/></g><g clip-path="url(#m)"><path d="m84.1 58.9l1.6.3 1.5-.3 1.5.3 1.6-.3 1.5.3 1.5-.3 1.5.3 1.6-.3 1.5.3 1.5-.3 1.5.3 1.6-.3 1.5.3 1.5-.3 1.5.3 1.6-.3 1.5.3 1.5-.3 1.6.3 1.5-.3 1.5.3 1.6-.3 1.5.3 1.5-.3 1.5.3 1.6-.3 1.5.3 1.5-.3 1.6.3 1.5-.3 1.5.3 1.6-.3 1.5.3 1.5-.3 1.5.3 1.6-.3 1.5.3 1.6-.3 1.5.3" fill="#fff"/><path d="m84.1 58.9l1.6.3 1.5-.3 1.5.3 1.6-.3 1.5.3 1.5-.3 1.5.3 1.6-.3 1.5.3 1.5-.3 1.5.3 1.6-.3 1.5.3 1.5-.3 1.5.3 1.6-.3 1.5.3 1.5-.3 1.6.3 1.5-.3 1.5.3 1.6-.3 1.5.3 1.5-.3 1.5.3 1.6-.3 1.5.3 1.5-.3 1.6.3 1.5-.3 1.5.3 1.6-.3 1.5.3 1.5-.3 1.5.3 1.6-.3 1.5.3 1.6-.3 1.5.3" fill="none" stroke="#2c3b8e" stroke-miterlimit="10"/></g><g clip-path="url(#m)"><path d="m84.1 56.5l1.6.3 1.5-.3 1.5.3 1.6-.3 1.5.3 1.5-.3 1.5.3 1.6-.3 1.5.3 1.5-.3 1.5.3 1.6-.3 1.5.3 1.5-.3 1.5.3 1.6-.3 1.5.3 1.5-.3 1.6.3 1.5-.3 1.5.3 1.6-.3 1.5.3 1.5-.3 1.5.3 1.6-.3 1.5.3 1.5-.3 1.6.3 1.5-.3 1.5.3 1.6-.3 1.5.3 1.5-.3 1.5.3 1.6-.3 1.5.3 1.6-.3 1.5.3" fill="#fff"/><path d="m84.1 56.5l1.6.3 1.5-.3 1.5.3 1.6-.3 1.5.3 1.5-.3 1.5.3 1.6-.3 1.5.3 1.5-.3 1.5.3 1.6-.3 1.5.3 1.5-.3 1.5.3 1.6-.3 1.5.3 1.5-.3 1.6.3 1.5-.3 1.5.3 1.6-.3 1.5.3 1.5-.3 1.5.3 1.6-.3 1.5.3 1.5-.3 1.6.3 1.5-.3 1.5.3 1.6-.3 1.5.3 1.5-.3 1.5.3 1.6-.3 1.5.3 1.6-.3 1.5.3" fill="none" stroke="#2c3b8e" stroke-miterlimit="10"/></g><g clip-path="url(#m)"><path d="m84.1 54.2l1.6.3 1.5-.3 1.5.3 1.6-.3 1.5.3 1.5-.3 1.5.3 1.6-.3 1.5.3 1.5-.3 1.5.3 1.6-.3 1.5.3 1.5-.3 1.5.3 1.6-.3 1.5.3 1.5-.3 1.6.3 1.5-.3 1.5.3 1.6-.3 1.5.3 1.5-.3 1.5.3 1.6-.3 1.5.3 1.5-.3 1.6.3 1.5-.3 1.5.3 1.6-.3 1.5.3 1.5-.3 1.5.3 1.6-.3 1.5.3 1.6-.3 1.5.3" fill="#fff"/><path d="m84.1 54.2l1.6.3 1.5-.3 1.5.3 1.6-.3 1.5.3 1.5-.3 1.5.3 1.6-.3 1.5.3 1.5-.3 1.5.3 1.6-.3 1.5.3 1.5-.3 1.5.3 1.6-.3 1.5.3 1.5-.3 1.6.3 1.5-.3 1.5.3 1.6-.3 1.5.3 1.5-.3 1.5.3 1.6-.3 1.5.3 1.5-.3 1.6.3 1.5-.3 1.5.3 1.6-.3 1.5.3 1.5-.3 1.5.3 1.6-.3 1.5.3 1.6-.3 1.5.3" fill="none" stroke="#2c3b8e" stroke-miterlimit="10"/></g><g clip-path="url(#m)"><path d="m84.1 51.8l1.6.3 1.5-.3 1.5.3 1.6-.3 1.5.3 1.5-.3 1.5.3 1.6-.3 1.5.3 1.5-.3 1.5.3 1.6-.3 1.5.3 1.5-.3 1.5.3 1.6-.3 1.5.3 1.5-.3 1.6.3 1.5-.3 1.5.3 1.6-.3 1.5.3 1.5-.3 1.5.3 1.6-.3 1.5.3 1.5-.3 1.6.3 1.5-.3 1.5.3 1.6-.3 1.5.3 1.5-.3 1.5.3 1.6-.3 1.5.3 1.6-.3 1.5.3" fill="#fff"/><path d="m84.1 51.8l1.6.3 1.5-.3 1.5.3 1.6-.3 1.5.3 1.5-.3 1.5.3 1.6-.3 1.5.3 1.5-.3 1.5.3 1.6-.3 1.5.3 1.5-.3 1.5.3 1.6-.3 1.5.3 1.5-.3 1.6.3 1.5-.3 1.5.3 1.6-.3 1.5.3 1.5-.3 1.5.3 1.6-.3 1.5.3 1.5-.3 1.6.3 1.5-.3 1.5.3 1.6-.3 1.5.3 1.5-.3 1.5.3 1.6-.3 1.5.3 1.6-.3 1.5.3" fill="none" stroke="#2c3b8e" stroke-miterlimit="10"/></g><g clip-path="url(#m)"><path d="m84.1 49.5l1.6.2 1.5-.2 1.5.2 1.6-.2 1.5.2 1.5-.2 1.5.2 1.6-.2 1.5.2 1.5-.2 1.5.2 1.6-.2 1.5.2 1.5-.2 1.5.2 1.6-.2 1.5.2 1.5-.2 1.6.2 1.5-.2 1.5.2 1.6-.2 1.5.2 1.5-.2 1.5.2 1.6-.2 1.5.2 1.5-.2 1.6.2 1.5-.2 1.5.2 1.6-.2 1.5.2 1.5-.2 1.5.2 1.6-.2 1.5.2 1.6-.2 1.5.2" fill="#fff"/><path d="m84.1 49.5l1.6.2 1.5-.2 1.5.2 1.6-.2 1.5.2 1.5-.2 1.5.2 1.6-.2 1.5.2 1.5-.2 1.5.2 1.6-.2 1.5.2 1.5-.2 1.5.2 1.6-.2 1.5.2 1.5-.2 1.6.2 1.5-.2 1.5.2 1.6-.2 1.5.2 1.5-.2 1.5.2 1.6-.2 1.5.2 1.5-.2 1.6.2 1.5-.2 1.5.2 1.6-.2 1.5.2 1.5-.2 1.5.2 1.6-.2 1.5.2 1.6-.2 1.5.2" fill="none" stroke="#2c3b8e" stroke-miterlimit="10"/></g><g clip-path="url(#m)"><path d="m84.1 47.1l1.6.3 1.5-.3 1.5.3 1.6-.3 1.5.3 1.5-.3 1.5.3 1.6-.3 1.5.3 1.5-.3 1.5.3 1.6-.3 1.5.3 1.5-.3 1.5.3 1.6-.3 1.5.3 1.5-.3 1.6.3 1.5-.3 1.5.3 1.6-.3 1.5.3 1.5-.3 1.5.3 1.6-.3 1.5.3 1.5-.3 1.6.3 1.5-.3 1.5.3 1.6-.3 1.5.3 1.5-.3 1.5.3 1.6-.3 1.5.3 1.6-.3 1.5.3" fill="#fff"/><path d="m84.1 47.1l1.6.3 1.5-.3 1.5.3 1.6-.3 1.5.3 1.5-.3 1.5.3 1.6-.3 1.5.3 1.5-.3 1.5.3 1.6-.3 1.5.3 1.5-.3 1.5.3 1.6-.3 1.5.3 1.5-.3 1.6.3 1.5-.3 1.5.3 1.6-.3 1.5.3 1.5-.3 1.5.3 1.6-.3 1.5.3 1.5-.3 1.6.3 1.5-.3 1.5.3 1.6-.3 1.5.3 1.5-.3 1.5.3 1.6-.3 1.5.3 1.6-.3 1.5.3" fill="none" stroke="#2c3b8e" stroke-miterlimit="10"/></g><use fill="none" height="100%" overflow="visible" stroke="#2c3b8e" stroke-miterlimit="10" width="100%" xlink:href="#n"/></g><path d="m193.60175 188.22009h4.41572v-8.55546h-11.86725c2.89781 2.62183 5.38166 5.51965 7.45153 8.55546z" fill="#fff" stroke="#2c3b8e" stroke-miterlimit="10" stroke-width="1.37991261"/><path d="m157.44803 168.90131c1.51791 0 3.03581.13799 4.55372.27598v-20.5607h-9.10743v20.5607c1.51791-.27598 3.03581-.27598 4.55371-.27598z" fill="#fff" stroke="#2c3b8e" stroke-miterlimit="10" stroke-width="1.37991261"/><path d="m128.60786 179.80262h-12.00524v8.55546h4.55371c2.06987-3.1738 4.55371-6.07162 7.45153-8.55546z" fill="#fff" stroke="#2c3b8e" stroke-miterlimit="10" stroke-width="1.37991261"/><g fill="#2c3b8e" transform="scale(1.3799127)"><path d="m97.7 113.9c.6-.3 1.1-.7 1.5-1.2h1.5v8h-1.7v-6.2c-.4.3-.9.6-1.4.9v-1.5z"/><path d="m102.4 118.6c0-1 .1-1.8 1.2-2.2l0 0c-.9-.2-1.1-.9-1.1-1.7 0-1.5.8-2.1 2.2-2.1 1.5 0 2.2.7 2.2 2.1 0 .8-.2 1.5-1.1 1.7l0 0c1 .4 1.2 1.2 1.2 2.2 0 1.5-.8 2.2-2.3 2.2-1.5 0-2.3-.7-2.3-2.2zm1.6-.1c0 .5.1 1.1.7 1.1.6 0 .7-.6.7-1.1 0-.5 0-1.4-.7-1.4-.7 0-.7.9-.7 1.4zm.1-3.7c0 .4.1 1.1.6 1.1.6 0 .6-.7.6-1.1 0-.4-.1-1-.6-1-.5 0-.6.6-.6 1z"/></g><g fill="#2c3b8e" transform="scale(1.3799127)"><path d="m121.6 118.6c0-1 .1-1.8 1.2-2.2l0 0c-.9-.2-1.1-.9-1.1-1.7 0-1.5.8-2.1 2.2-2.1 1.5 0 2.2.7 2.2 2.1 0 .8-.2 1.5-1.1 1.7l0 0c1 .4 1.2 1.2 1.2 2.2 0 1.5-.8 2.2-2.3 2.2-1.5 0-2.3-.7-2.3-2.2zm1.6-.1c0 .5.1 1.1.7 1.1.6 0 .7-.6.7-1.1 0-.5 0-1.4-.7-1.4-.7 0-.7.9-.7 1.4zm.1-3.7c0 .4.1 1.1.6 1.1.6 0 .6-.7.6-1.1 0-.4-.1-1-.6-1-.5 0-.6.6-.6 1z"/><path d="m126.7 120.7v-1.4c2.5-3.4 3-3.7 3-4.7 0-.4-.1-.8-.6-.8-.7 0-.7.6-.7 1.1h-1.6c-.1-1.5.7-2.3 2.2-2.3 1.4 0 2.3.6 2.3 2.1 0 1.8-2.1 3.8-3 4.8h3v1.2z"/></g></svg>