<?xml version="1.0" encoding="utf-8"?>
<!-- Generator: Adobe Illustrator 14.0.0, SVG Export Plug-In . SVG Version: 6.00 Build 43363)  -->
<svg version="1.2" baseProfile="tiny" id="Layer_1" xmlns:svg="http://www.w3.org/2000/svg"
	 xmlns="http://www.w3.org/2000/svg" xmlns:xlink="http://www.w3.org/1999/xlink" x="0px" y="0px" width="510px" height="580px"
	 viewBox="0 0 510 580" xml:space="preserve">
<path id="path2564" fill="#FFFFFF" d="M19.238,5.572v1.365v261.562C19.243,395.109,123.97,497.725,252,497.725
	s232.755-102.615,232.761-229.226V5.572H19.238z"/>
<path id="path2566" fill="#1A67B1" d="M20.603,6.936v261.563c0,125.837,104.106,227.862,231.398,227.862
	c127.292,0,231.398-102.025,231.398-227.862V6.936H20.603z"/>
<path id="path2568" fill="#FFFFFF" d="M64.688,224.454c11.8,0,14.055,6.992,23.415,7.004c9.357-0.012,11.613-7.004,23.414-7.004
	c11.801,0,14.056,6.992,23.414,7.004c9.359-0.012,11.614-7.004,23.414-7.004c11.801,0,14.057,6.992,23.414,7.004
	c9.359-0.012,11.613-7.004,23.415-7.004c11.802,0,14.056,6.992,23.414,7.004c6.648-0.009,9.724-3.532,15.173-5.577V26.924H40.59
	v204.5c0.23,0.009,0.445,0.033,0.684,0.033C50.631,231.445,52.888,224.454,64.688,224.454z"/>
<path id="path2570" fill="#FFFFFF" d="M298.828,224.454c11.803,0,14.057,6.992,23.414,7.004c9.359-0.012,11.613-7.004,23.414-7.004
	c11.804,0,14.057,6.992,23.414,7.004c9.358-0.012,11.613-7.004,23.414-7.004s14.056,6.992,23.414,7.004
	c9.357-0.012,11.613-7.004,23.414-7.004c11.8,0,14.056,6.992,23.414,7.004c0.239,0,0.455-0.024,0.685-0.033v-204.5H260.242v198.957
	c5.447,2.044,8.523,5.568,15.172,5.577C284.773,231.445,287.027,224.454,298.828,224.454z"/>
<path id="path2572" fill="#FFFFFF" d="M462.727,233.701c-9.358-0.012-11.614-7.004-23.414-7.004
	c-11.801,0-14.057,6.992-23.414,7.004c-9.358-0.012-11.613-7.004-23.414-7.004s-14.056,6.992-23.414,7.004
	c-9.357-0.012-11.61-7.004-23.414-7.004c-11.801,0-14.055,6.992-23.414,7.004c-9.357-0.012-11.611-7.004-23.414-7.004
	c-11.801,0-14.055,6.992-23.414,7.004c-9.357-0.012-11.611-7.004-23.414-7.004c-11.801,0-14.055,6.992-23.413,7.004
	c-9.358-0.012-11.613-7.004-23.414-7.004c-11.801,0-14.055,6.992-23.415,7.004c-9.357-0.012-11.613-7.004-23.414-7.004
	c-11.8,0-14.055,6.992-23.414,7.004c-9.357-0.012-11.613-7.004-23.414-7.004c-11.801,0-14.057,6.992-23.414,7.004
	c-9.359-0.012-11.614-7.004-23.415-7.004s-14.057,6.992-23.414,7.004c-0.239,0-0.454-0.024-0.684-0.033v6.302
	c0.23,0.009,0.445,0.033,0.684,0.033c9.357-0.012,11.613-7.004,23.414-7.004c11.8,0,14.055,6.992,23.415,7.004
	c9.357-0.012,11.613-7.004,23.414-7.004c11.801,0,14.056,6.992,23.414,7.004c9.359-0.012,11.614-7.004,23.414-7.004
	c11.801,0,14.057,6.992,23.414,7.004c9.359-0.012,11.613-7.004,23.415-7.004c11.802,0,14.056,6.992,23.414,7.004
	c9.358-0.012,11.612-7.004,23.413-7.004c11.801,0,14.055,6.992,23.414,7.004c9.359-0.012,11.613-7.004,23.414-7.004
	c11.803,0,14.057,6.992,23.414,7.004c9.359-0.012,11.613-7.004,23.414-7.004c11.804,0,14.057,6.992,23.414,7.004
	c9.358-0.012,11.613-7.004,23.414-7.004s14.056,6.992,23.414,7.004c9.357-0.012,11.613-7.004,23.414-7.004
	c11.8,0,14.056,6.992,23.414,7.004c0.239,0,0.455-0.024,0.685-0.033v-6.302C463.182,233.677,462.966,233.7,462.727,233.701z"/>
<path id="path2574" fill="#FFFFFF" d="M439.313,239.509c-11.801,0-14.057,6.992-23.414,7.004
	c-9.358-0.012-11.613-7.004-23.414-7.004s-14.056,6.992-23.414,7.004c-9.357-0.012-11.61-7.004-23.414-7.004
	c-11.801,0-14.055,6.992-23.414,7.004c-9.357-0.012-11.611-7.004-23.414-7.004c-11.801,0-14.055,6.992-23.414,7.004
	c-9.357-0.012-11.611-7.004-23.414-7.004c-11.801,0-14.055,6.992-23.413,7.004c-9.358-0.012-11.613-7.004-23.414-7.004
	c-11.801,0-14.055,6.992-23.415,7.004c-9.357-0.012-11.613-7.004-23.414-7.004c-11.8,0-14.055,6.992-23.414,7.004
	c-9.357-0.012-11.613-7.004-23.414-7.004c-11.801,0-14.057,6.992-23.414,7.004c-9.359-0.012-11.614-7.004-23.415-7.004
	s-14.057,6.992-23.414,7.004c-0.239,0-0.454-0.024-0.684-0.033v6.487c0.23,0.009,0.445,0.033,0.684,0.033
	c9.357-0.012,11.613-7.003,23.414-7.003c11.8,0,14.055,6.991,23.415,7.003c9.357-0.012,11.613-7.003,23.414-7.003
	c11.801,0,14.056,6.991,23.414,7.003c9.359-0.012,11.614-7.003,23.414-7.003c11.801,0,14.057,6.991,23.414,7.003
	c9.359-0.012,11.613-7.003,23.415-7.003c11.802,0,14.056,6.991,23.414,7.003c9.358-0.012,11.612-7.003,23.413-7.003
	c11.801,0,14.055,6.991,23.414,7.003c9.359-0.012,11.613-7.003,23.414-7.003c11.803,0,14.057,6.991,23.414,7.003
	c9.359-0.012,11.613-7.003,23.414-7.003c11.804,0,14.057,6.991,23.414,7.003c9.358-0.012,11.613-7.003,23.414-7.003
	s14.056,6.991,23.414,7.003c9.357-0.012,11.613-7.003,23.414-7.003c11.8,0,14.056,6.991,23.414,7.003
	c0.239,0,0.455-0.024,0.685-0.033v-6.487c-0.229,0.009-0.444,0.033-0.685,0.033C453.368,246.501,451.112,239.509,439.313,239.509z"
	/>
<path id="path2576" fill="#EE355A" d="M140.451,172.688c0.734-0.74,2.374-1.911,3.385-0.493c0.277,0.37,0.265,1.097,0,1.492
	c-0.599,0.913-1.893,0.58-2.59,1.061c-0.709,0.493-1.844,0.209-2.275,1.369c-0.049,0.148-0.906,0.16-0.98-0.012
	C137.09,174.365,139.402,173.749,140.451,172.688"/>
<path id="path2578" fill="#EE355A" d="M139.791,184.588c0.432-1.061-0.351-3.058,1.289-2.935c0.555,0.037,2.386,0.346,1.807,1.221
	c-1.239,1.875-0.013,4.008-1.566,5.143C140.364,188.718,139.235,185.932,139.791,184.588"/>
<path id="path2580" fill="#EE355A" d="M114.111,67.949c3.12,1.221,6.208,2.294,9.168,3.859c1.739,0.938,4.014,2.664,3.977,3.872
	c-0.049,2.232-1.67,4.735-2.842,7.214c-1.214,2.565-4.118,3.083-6.338,4.871c-0.302,0.247-0.758-0.173-0.684-0.308
	c0.623-1.073,2.213-3.33,0.647-3.897c-1.973-0.678-2.972,3.046-5.093,1.702c-0.413-0.271-1.375-0.37-1.172-0.505
	c1.702-1.196,3.952-2.491,2.46-3.971c-1.208-1.196-4.125-0.678-5.086,0.136c-1.431,1.233-2.867,3.194-5.167,3.65
	c0.327-1.492-0.278-3.65,1.301-4.205c0.66-0.221,1.868,0.469,2.676,0.062c1.011-0.505,0.29-1.776,0.468-2.713
	c0.999,0.209,0.604-0.999,1.215-1.208c-1.24-0.727-1.832,0.642-2.83,0.79c-1.264,0.21-1.819-1.246-2.448-1.319
	c-2.096-0.271-4.254,0.345-6.418-0.309c-0.314-0.099-0.629-0.542-0.364-0.69c0.401-0.234,1.184,0.099,1.479-0.173
	c1.677-1.615,3.798-1.245,5.715-1.344c0.863-0.049,1.794-0.58,2.83-0.642c0.302-0.012,0.629-0.505,0.364-0.666
	c-1.88-1.147-3.471-1.307-3.619-4.094c-0.068-1.196-2.707-1.332-4.396-1.221c0.265-0.9,1.134-1.504,1.714-1.825
	c1.696-0.95,3.034,0.345,4.525,1.59c1.16,1,2.676-1.603,4.18-0.851c0.69,0.346,1.295,0.567,2.041,0.789
	C113.076,66.729,113.452,67.678,114.111,67.949"/>
<path id="path2582" fill="#EE355A" d="M105.233,93.511c1.566-0.851,5.419-0.616,4.014,1.271c-1.665,2.244-5.111,2.479-8.077,3.119
	C101.004,95.46,103.402,94.523,105.233,93.511"/>
<path id="path2584" fill="#EE355A" d="M128.163,55.175c2.64,1.714,5.685,1.43,8.447,2.182c0.9,0.234,1.177,2.17,0.758,2.306
	c-4.292,1.431-8.99,0.481-13.083-1.208c-3.015-1.27-2.484-5.364-0.29-7.041c0.457-0.346,0.647,2.232,1.794,2.318
	C127.041,53.819,127.22,54.583,128.163,55.175"/>
<path id="path2586" fill="#EE355A" d="M117.693,105.534c0.808-0.123,1.468,0.346,1.48,0.839c0.049,1.43-1.023,2.454-0.672,4.02
	c-1.966-0.617-2.41-3.132-2.41-4.834C116.622,105.559,117.164,105.608,117.693,105.534"/>
<path id="path2588" fill="#EE355A" d="M107.188,100.923c1.856-0.161,2.405,1.369,3.65,1.813c-1.615,0.728-1.905,2.824-3.305,3.44
	c-1.695,0.765-2.374-1.813-2.047-2.947C105.689,102.488,105.689,101.083,107.188,100.923"/>
<path id="path2590" fill="#EE355A" d="M132.041,126.805c1.023-1.418,3.157-2.22,4.649-1.505c0.968,0.469,1.665-1.381,2.232-0.666
	c0.795,1.023-0.457,2.38-0.882,3.416c-2.084,4.895-4.828,9.815-4.119,14.958c0.253,1.837,2.195,3.711,3.866,5.414
	c0.277,0.271,0.086,0.986,0.086,1.504c-1.301-0.086-2.047-1.27-3.243-1.504c-0.24-0.05-0.542,0.333-0.357,0.703
	c0.672,1.294,1.77,2.232,2.793,3.23c-1.214,0.986-2.423-0.555-3.625,0.025c-0.302,0.135-0.592,0.419-0.364,0.764
	c0.783,1.134,2.737,2.343,1.782,2.922c-2.214,1.369-5.506-0.419-7.88,0.74c1.036,1.493,1.061,4.131-0.518,5.031
	c-1.381,0.777-1.856-1.406-2.842-2.01c-1.122-0.703-1.665,1.282-2.713,1.75c-0.771,0.333-1.517-0.604-2.405-0.345
	c0.204-1.147,2.072-0.715,1.973-2.01c-0.086-1.221,0.746-2.984-0.432-3.391c-2.448-0.851-4.1,2.651-6.775,3.378
	c-0.784,0.222-1.178-0.32-1.622-0.79c1.467-1.245,2.83-2.454,4.007-4.069c0.222-0.333-0.093-0.58-0.37-0.789
	c0.277-0.185,0.567-0.432,0.37-0.789c-0.469-0.814-1.456-0.543-1.899-0.284c-2.281,1.418-6.832,3.749-7.799,0.949
	c-0.179-0.53,1.486-1.517,2.386-2.368c0.327-0.32-0.191-1.146,0.493-1.528c-0.407-0.691-1.189-0.53-1.541-0.309
	c-1.362,0.913-2.651,2.096-4.026,1.356c-0.925-0.494-2.59-1.406-1.899-2.541c0.783-1.282,1.517-2.676,2.615-3.761
	c-1.819-0.938-2.602-2.306-1.437-3.909c1.917-2.626,5.161-1.171,7.892-2.145c-1.085-1.172-2.454-1.529-3.989-1.788
	c-0.795-0.136-1.899-1.233-1.794-1.8c0.302-1.542,1.351-2.676,3.003-3.145c2.744-0.776,5.53,0.198,7.133,2.763
	c1.313,2.071,0.82,4.106,1.178,6.35c0.253,1.653,2.244,2.602,3.749,2.578c1.893-0.05,4.975,1.554,5.29-0.568
	c0.192-1.183-2.071-0.961-3.23-1.615c-1.011-0.579-1.843-1.43-2.361-2.417c-0.443-0.851-1.276-2.047-0.734-2.614
	c1.073-1.109,2.854,0.506,4.217,0.086c1.153-0.345,2.275-1.048,3.243-1.887C128.606,132.046,130.124,129.444,132.041,126.805"/>
<path id="path2592" fill="#EE355A" d="M101.559,132.194c1.036-0.703,2.484-1.258,3.021-0.616c0.845,1.011-1.745,1.825-1.405,3.428
	c-1.474,0-3.397,0.505-4.205-0.247C97.73,133.587,100.375,132.995,101.559,132.194"/>
<path id="path2594" fill="#EE355A" d="M96.737,139.864c1.134-0.691,2.398-0.777,3.606-0.74c0.586,0.024,0.542,0.814,0.333,1.073
	c-0.53,0.678-0.863,1.233-0.721,2.072c-1.782,0.234-3.496-0.321-5.253-0.395C94.827,140.653,95.861,140.369,96.737,139.864"/>
<path id="path2596" fill="#EE355A" d="M95.522,148.754c1.289-0.617,2.676-0.826,4.026-1.233c-0.062,1.208,1.061,2.762-0.111,3.441
	c-1.362,0.789-3.12-0.087-4.735-0.21C94.765,150.073,94.339,149.346,95.522,148.754"/>
<path id="path2598" fill="#EE355A" d="M155.125,51.513c0.037,0.221-0.457,0.715-0.696,0.69c-1.061-0.111-1.881-0.999-2.831-1.504
	c0.266-0.284,0.494-0.642,0.82-0.765C153.718,49.478,154.909,50.206,155.125,51.513 M146.751,51.389
	c-0.66,2.441-3.564,1.11-5.635,0.074c-1.326-0.654-0.771-1.936,0.357-2.441C143.811,47.949,147.294,49.355,146.751,51.389z
	 M177.609,108.235c-0.493,1.998-1.578,4.242-0.641,6.622c0.703,1.813,1.942,4.217,4.075,4.007c-0.617-1.96-0.783-4.032-0.666-6.03
	c0.099-1.751,0.82-3.637,1.473-5.08c4.877-10.765,14.89-28.016-0.074-34.7c-3.409-1.529-7.238,0.124-10.192,1.837
	c-5.376,3.12-6.991,9.421-7.244,15.352c-0.431,10.099,1.542,20.149,1.523,30.248c0,2.256-1.061,4.575-3.403,5.585
	c-1.492,0.653-3.373,0.875-4.371-0.765c-0.783-1.282,0.906-2.146,0.567-3.662c-1.326-5.845-4.001-10.913-4.951-16.585
	c-0.505-2.997-0.136-6.387,2.25-9.248c0.493-0.58-0.592-1.208-0.327-1.961c-3.237-0.493-6.129-2.059-8.626-4.266
	c-0.382-0.346-1.695,0.037-2.201-0.074c-1.751-0.407-0.592-2.589,0.758-2.7c1.683-0.148,2.553,1.689,3.638,2.972
	c2.25,2.651,6.165,1.061,8.422,3.687c0.721,0.851,0.37,2.293,1.64,2.811c0.888-2.787,1.048-6.128-1.362-7.867
	c-0.919-0.678-2.337-0.715-3.04-1.837c-0.215-0.357,0.086-0.739,0.364-0.714c1.769,0.135,4.304,0.147,4.951,2.306
	c0.062,0.222,0.629-0.086,0.629-0.37c0-2.725-1.338-5.043-3.927-6.141c-0.24-0.099,0.056-0.58,0.382-0.679
	c1.196-0.333,2.374-0.801,3.606-0.037c0.309,0.197,0.518,0.419,0.407,0.814c1.338-0.346,1.326-1.443,1.123-2.405
	c-0.542-2.688-3.064-3.453-5.148-4.451c1.893-2.368,4.858-0.827,7.257-0.407c-0.037-3.391-2.904-4.439-5.642-5.253
	c1.992-1.418,5.277-1.467,6.856,0c1.88-5.462-5.037-5.549-8.471-6.042c2.386-1.085,5.783-3.428,8.107-1.271
	c0.277,0.259,0.74-0.146,0.678-0.308c-1.048-2.318-1.689-4.821-3.305-6.757c-0.407-0.469-1.344-1.344-2.226-0.876
	c-0.111,0.062,0.012,0.617-0.062,0.641c-3.071,0.95-7.251,4.02-9.625,0.469c-0.216-0.333,0.104-0.728,0.37-0.703
	c2.713,0.197,6.942,0.715,7.571-1.825c1.091-4.353-5.074-7.633-9.174-5.512c-1.72-2.639-5.481-3.28-8.434-2.639
	c-0.925,0.197-1.369,1.615-2.164,2.06c-2.7,1.467-5.136,0-7.966,0c-0.407,0-1.412,0.049-1.437,0.185
	c-0.228,2.269-0.48,4.822,0.198,6.708c1.073,2.911,5.154,1.172,8.046,1.948c0.315,0.075,1.264,0,1.184,0.604
	c-0.265,2.059,0.493,4.612-0.629,5.759c-2.194,2.244-5.974-1.258-8.878,0.099c-0.98,0.468-1.88,1.553-2.208,3.008
	c-0.382,1.628-3.058,1.172-3.132,3.243c2.577-0.099,5.062-0.938,7.664-0.813c-1.061,0.678-0.758,1.911-1.215,2.836
	c0.549,0,1.116,0.123,1.597-0.062c2.121-0.813,4.76-3.021,7.146-1.59c1.893,1.122,4.001-2.774,6.554-1.862
	c1.036,0.382,1.726,1.48,1.603,2.701c-0.037,0.309-0.457,0.617-0.709,0.37c-1.061-1.048-2.472-1.64-3.588-1.011
	c-2.183,1.233-4.205,2.207-6.566,2.503c-0.425,0.05-0.98-0.69-0.795-1.455c-2.614,1.517-4.507,3.699-6.388,6.116
	c-0.191,0.246,0.062,0.924-0.123,1.047c-1.591,0.962-0.999,2.651-1.554,4.131c2.232-0.012,4.076-2.01,6.462-1.208
	c-0.943,2.195-0.808,4.575-1.208,6.856c2.484-0.752,4.846-1.862,7.256-2.812c0.586,2.047,1.604,3.934,2.022,6.042
	c0.672-0.136,1.338,0.062,2.071-0.259c0.389-0.172,0.457,0.69,0.277,1.023c-0.29,0.505-1.122,0.592-1.43,0.962
	c-0.931,1.122-0.302,3.564-1.738,3.613c-0.845,0.037-1.43-2.479-2.701-1.565c-1.554,1.146-0.296,4.081-2.188,4.414
	c-0.882,0.148-1.134-2.454-1.868-2.22c-1.486,0.468-0.943,2.861-1.412,4.489c-0.104,0.333-0.481,1.134-1.048,0.776
	c-0.845-0.542-1.123-1.615-1.782-2.244c-0.493-0.456-1.313,0.543-1.905,0.53c-0.611,0-0.888-1.097-1.616-1.443
	c0.493-0.48,0.518-1.368,1.221-1.565c1.671-0.444,2.854,2.17,3.792,1.307c0.894-0.813,0.025-3.083,1.511-4.082
	c0.672-0.457,1.381,0.37,1.997,0.481c1.48,0.284,0.543-2.022,1.604-2.54c1.399-0.69,3.526,1.356,4.106-0.172
	c0.629-1.702-0.105-4.143-1.831-5.376c-1.036-0.74-1.517,1.208-2.324,1.27c-2.195,0.161-5,2.38-6.061,0.382
	c-0.697-1.282,0.493-3.514,0.431-5.438c-1.239,0.333-2.854,0.752-3.311,1.418c-2.423,3.502-6.276,7.46-10.407,7.35
	c-2.509-0.062-5.919-0.013-6.387,2.219c-0.414,1.936-0.654,4.069-1.461,6.042c-0.734,1.8,2.219,2.589,3.81,2.552
	c1.289-0.024,0.395-1.887,1.215-2.639c0.856,1.393,1.171,3.181,2.195,4.254c0.82,0.851,2.688,1.122,3.736,0.074
	c1.011-1.011,0.395-3.083,1.794-3.798c1.276-0.653,2.448,0.53,3.65,1.356c1.214,0.851,1.627-1.307,2.288-1.196
	c1.35,0.246-0.383,2.083,0.351,3.403c0.05,0.086-0.432,0.481-0.709,0.74c-0.746-0.863-2.059-1.702-2.589-1.036
	c-2.22,2.799-0.086,6.042,1.622,8.533c3.459,5.08,9.149,6.88,12.978,11.542c0.895,1.097,0.808,2.725,0.339,3.896
	c-1.677,4.18-3.41,8.101-4.242,12.578c-0.29,1.603,0.074,3.083,0.925,4.328c1.337,1.973,2.306,3.711,3.619,5.66
	c1.313,1.948,3.261,3.008,4.686,4.944c1.684,2.256,0.468,5.314,2.288,6.979c0.986,0.9,1.184-1.578,1.855-2.404
	c1.424-1.751,0.783-4.723,1.93-7.016c2.553,1.443-0.518,5.142,0.012,6.72c0.444,1.369,2.984-0.086,4.877,0.333
	c1.992,0.431,1.881-2.577,3.182-3.823c0.228,0.432,1.11,0.629,0.721,1.159c-1.615,2.257-2.096,4.723-3.298,7.041
	c-0.882,1.714-1.541,3.736-1.677,5.907c-0.05,0.863-1.579,0.567-2.109,0.258c-2.146-1.258-4.359-0.764-5.975,0.407
	c-1.313,0.937-4.094,2.688-1.701,4.032c0.74,0.419,2.361-0.345,2.016,0.419c-1.048,2.281-6.184,2.873-4.433,6.153
	c0.851,1.554,2.614,1.172,3.891,0.728c0.832-0.283,0.518-2.133,1.239-2.072c0.87,0.074,0.697,1.604,0.943,2.578
	c0.493,1.948,1.973,3.243,3.515,4.463c-0.623,0.765-2.349,0.124-2.226,1.184c0.278,2.417,1.492,6.486,4.008,4.883
	c1.246-0.79-1.116-2.836-0.672-4.883c0.142-0.58-0.938-0.136-1.11-0.79c-0.105-0.395,0.123-0.739,0.401-0.727
	c1.973,0.11,3.767-0.124,4.673-1.776c0.9-1.627-0.179-4.279,1.492-4.871c3.169-1.134,6.024-3.576,9.569-1.899
	c0.635-3.403-4.858-3.526-3.964-6.301c0.66-1.998,4.131-0.592,6.011,0.617c0.339,0.222,0.697-0.074,0.722-0.37
	c0.24-2.614-4.396-3.465-4.229-5.191c0.197-2.047,4.075-0.395,6.313-0.05c-0.081-2.799-2.904-3.44-4.396-5.29
	c-0.241-0.283,0.049-0.629,0.363-0.728c2.158-0.641,4.23-0.432,6.456-0.111c0.265,0.037,0.58-0.37,0.364-0.715
	c-1.868-2.848-5.469-2.848-8.027-4.858c2.614-2.922,6.363-2.282,9.68-2.109c0.561,0.024,0.537-0.826,0.32-1.048
	c-1.695-1.788-3.903-2.06-5.974-3.292c0.53-0.69,0.894-1.479,1.387-2.17c1.011-1.443,1.683-3.33,1.683-5.093
	c0.012-1.505-1.023-2.405-2.047-1.048c-1.375,1.788-1.467,4.648-3.878,5.376c-0.179,0.05-0.629-0.395-0.709-0.715
	c-0.198-0.789,0.167-1.727-0.185-2.343c-0.407-0.69-0.82-1.245-0.697-2.083c-0.666,0-1.338,0-2.01,0
	c0.296,1.455-0.389,2.836-1.005,3.921c-1.566,2.713-5.938,2.614-7.565,0.296c-1.948-2.774-4.082-7.448-0.832-9.408
	c2.306-1.381,5.715,0.357,8.521-0.999c4.408-2.133,5.783-7.115,5.882-11.566c0.154-6.991-0.943-13.996-1.375-20.987
	c-0.185-3.268-0.468-6.659,0.081-10.05c0.388-2.417,1.029-4.759,2.232-6.695c1.06-1.702,2.941-3.724,5.314-3.218
	c0.494,0.099,1.505,0.53,1.493,1.023c-0.025,3.588-0.302,7.349-3.108,10.037c-0.401,0.382-0.783-0.728-1.085-0.308
	c-0.457,0.629,0.191,1.319,0.759,1.467c1.941,0.518,4.353-0.777,4.796-1.714c0.432-0.95,1.036-2.047,1.227-4.057
	c0.197-0.69,1.159-2.034,1.413-0.912c0.431,1.936-1.893,5.918-1.893,5.918c-1.819,2.479-4.168,4.427-5.29,7.029
	c-1.073,2.491-1.831,5.685-0.82,8.25c0.401,0.987,1.653-0.123,2.146-0.875c1.529-2.269,1.276-4.18,5.314-8.212
	c0.074-0.074,0.506,0.345,0.314,0.703c-0.666,1.208-1.856,1.96-2.398,3.243C180.235,102.735,178.114,106.237,177.609,108.235z"/>
<path id="path2600" fill="none" d="M318.321,95.682l-0.784-0.271l2.048-5.709c1.109-3.243-0.63-6.782-3.879-7.892
	c-3.242-1.109-6.774,0.629-7.892,3.872l-2.016,5.524l-0.723-0.271c-2.929-1.073-6.178,0.419-7.263,3.354
	c-1.086,2.922,0.419,6.19,3.349,7.263l0.819,0.296l-1.992,5.685c-1.114,3.255,0.616,6.782,3.873,7.892
	c3.249,1.109,6.781-0.629,7.893-3.872l1.983-5.5l0.666,0.247c2.936,1.084,6.178-0.419,7.251-3.354
	C322.741,100.022,321.236,96.767,318.321,95.682z"/>
<path id="path2602" fill="none" d="M409.247,106.299l0.666-0.247l1.984,5.5c1.11,3.243,4.644,4.981,7.894,3.872
	c3.256-1.11,4.986-4.636,3.871-7.892l-1.991-5.685l0.819-0.296c2.93-1.073,4.435-4.341,3.349-7.263
	c-1.085-2.935-4.334-4.427-7.263-3.354l-0.723,0.271l-2.016-5.524c-1.115-3.243-4.648-4.981-7.893-3.872
	c-3.249,1.11-4.988,4.649-3.878,7.892l2.047,5.709l-0.783,0.271c-2.915,1.085-4.421,4.34-3.336,7.263
	C403.069,105.88,406.313,107.383,409.247,106.299z"/>
<path id="path2604" fill="#1A67B1" d="M428.479,136.719l-39.989-14.662l0.876-2.367l-8.692-0.493l-3.796-1.391l16.192-5.958
	l8.397-1.134c5.442,9.038,14.014,13.958,21.061,11.344c8.508-3.157,11.554-16.104,6.808-28.903
	c-4.761-12.812-15.507-20.63-24.015-17.485c-6.899,2.565-10.204,11.566-8.676,21.715l-7.108,4.748l-27.71,10.158l-27.71-10.158
	l-7.107-4.748c1.527-10.148-1.775-19.15-8.677-21.715c-8.508-3.145-19.254,4.674-24.014,17.485
	c-4.747,12.799-1.701,25.747,6.807,28.903c7.048,2.615,15.617-2.306,21.063-11.344l8.396,1.134l16.192,5.958l-3.795,1.391
	l-8.694,0.493l0.876,2.367l-39.989,14.662c-2.688,0.975-4.082,3.946-3.096,6.634c0.977,2.688,3.936,4.082,6.623,3.096l4.5-1.677
	l5.933,16.708l11.838-4.18l-1.652-4.661l-6.413,2.281l-4.291-12.072l6.338-2.331l1.729,4.698l-2.035,0.703l1.591,4.477l9.174-3.28
	l-1.579-4.464l-1.996,0.679l-1.701-4.698l6.57-2.441l4.279,12.072l-6.411,2.281l1.641,4.636l11.824-4.18l-5.905-16.721l6.548-2.417
	l0.739,2.133l7.103-5.019l15.307-5.632l15.308,5.632l7.103,5.019l0.739-2.133l6.548,2.417L385.62,151l11.825,4.18l1.641-4.636
	l-6.411-2.281l4.278-12.072l6.571,2.441l-1.701,4.698l-1.997-0.679l-1.579,4.464l9.175,3.28l1.592-4.477l-2.036-0.703l1.728-4.698
	l6.339,2.331l-4.291,12.072l-6.413-2.281l-1.651,4.661l11.837,4.18l5.932-16.708l4.502,1.677c2.688,0.986,5.646-0.407,6.621-3.096
	C432.561,140.665,431.168,137.694,428.479,136.719z M405.332,95.682l0.783-0.271l-2.047-5.709c-1.109-3.243,0.629-6.782,3.878-7.892
	c3.243-1.109,6.776,0.629,7.893,3.872l2.016,5.524l0.723-0.271c2.929-1.073,6.178,0.419,7.263,3.354
	c1.086,2.922-0.419,6.19-3.349,7.263l-0.819,0.296l1.991,5.685c1.115,3.255-0.615,6.782-3.872,7.892
	c-3.248,1.109-6.781-0.629-7.893-3.872l-1.984-5.5l-0.666,0.247c-2.935,1.084-6.178-0.419-7.251-3.354
	C400.911,100.022,402.417,96.767,405.332,95.682z M321.656,102.945c-1.072,2.935-4.315,4.438-7.251,3.354l-0.666-0.247l-1.983,5.5
	c-1.11,3.243-4.644,4.981-7.893,3.872c-3.257-1.11-4.988-4.636-3.873-7.892l1.992-5.685l-0.82-0.296
	c-2.929-1.073-4.434-4.341-3.348-7.263c1.085-2.935,4.334-4.427,7.264-3.354l0.721,0.271l2.017-5.524
	c1.116-3.243,4.648-4.981,7.892-3.872c3.249,1.11,4.988,4.649,3.879,7.892l-2.048,5.709l0.784,0.271
	C321.236,96.767,322.741,100.022,321.656,102.945z"/>
<path id="path2606" fill="#FFFFFF" d="M462.727,272.014c-9.358-0.012-11.614-7.004-23.414-7.004
	c-11.801,0-14.057,6.992-23.414,7.004c-9.358-0.012-11.613-7.004-23.414-7.004s-14.056,6.992-23.414,7.004
	c-9.357-0.012-11.61-7.004-23.414-7.004c-11.801,0-14.055,6.992-23.414,7.004c-9.357-0.012-11.611-7.004-23.414-7.004
	c-11.801,0-14.055,6.992-23.414,7.004c-6.647-0.009-9.725-3.532-15.172-5.577v33.771h200.685c1.441-9.226,2.279-18.646,2.44-28.225
	C463.151,271.991,462.95,272.013,462.727,272.014z"/>
<path id="path2608" fill="#FFFFFF" d="M260.242,421.636v19.367h109.564c15.077-9.986,28.775-21.832,40.762-35.198H291.039
	C282.941,414.092,272.236,419.819,260.242,421.636z"/>
<path id="path2610" fill="#FFFFFF" d="M306.588,367.665c0,0.987-0.029,1.967-0.081,2.94h129.571
	c6.415-11.139,11.816-22.91,16.077-35.199h-156.13C302.66,344.445,306.587,355.594,306.588,367.665z"/>
<path id="path2612" fill="#EE355A" d="M260.242,313.702c14.654,2.221,27.389,10.27,35.783,21.704h156.13
	c3.927-11.326,6.877-23.094,8.771-35.197H260.242V313.702z"/>
<path id="path2614" fill="#EE355A" d="M291.039,405.805h119.529c9.685-10.8,18.247-22.591,25.51-35.199H306.507
	C305.779,384.284,300.014,396.619,291.039,405.805z"/>
<path id="path2616" fill="#EE355A" d="M260.242,476.201c40.448-1.532,78.014-14.299,109.564-35.197H260.242V476.201z"/>
<rect id="rect2618" x="133.185" y="319.606" transform="matrix(0.7071 -0.7071 0.7071 0.7071 -193.8685 204.4014)" fill="#FFFFFF" width="33.223" height="33.222"/>
<polygon id="polygon2620" fill="#FFFFFF" points="102.818,359.688 79.332,383.177 102.818,406.667 126.306,383.177 "/>
<polygon id="polygon2622" fill="#FFFFFF" points="149.798,359.688 126.306,383.177 149.798,406.667 173.292,383.177 "/>
<polygon id="polygon2624" fill="#FFFFFF" points="102.818,312.706 79.332,336.195 102.818,359.688 126.306,336.195 "/>
<polygon id="polygon2626" fill="#FFFFFF" points="196.779,453.648 220.267,430.158 196.779,406.667 173.292,430.158 "/>
<path id="path2628" fill="#FFFFFF" d="M196.779,406.667l9.381-9.381c-5.525-8.534-8.746-18.698-8.746-29.621
	c0-2.337,0.164-4.634,0.449-6.894l-1.083-1.084l-23.487,23.489L196.779,406.667z"/>
<path id="path2630" fill="#FFFFFF" d="M126.306,430.158l-23.487-23.491l-4.454,4.456c8.967,9.334,26.354,23.237,24.867,22.11
	L126.306,430.158z"/>
<path id="path2632" fill="#FFFFFF" d="M69.586,373.434c2.414,4.041,4.959,7.992,7.635,11.854l2.11-2.109L69.586,373.434z"/>
<path id="path2634" fill="#FFFFFF" d="M173.292,430.158l-23.493-23.491l-23.493,23.491l15.894,15.892
	c5.656,3.396,12.266,6.849,9.709,5.49L173.292,430.158z"/>
<path id="path2636" fill="#FFFFFF" d="M220.267,430.158l23.494,23.491L223,474.407c6.823,0.925,13.749,1.528,20.761,1.794v-54.577
	c-4.093-0.625-8.039-1.698-11.783-3.176L220.267,430.158z"/>
<path id="path2638" fill="#FFFFFF" d="M184.838,465.591c-2.791-0.921,17.876,5.522,31.71,7.829l-19.769-19.771L184.838,465.591z"/>
<path id="path2640" fill="#FFFFFF" d="M196.779,359.688l1.466-1.468c1.959-11.222,7.334-21.268,15.031-29.015l-16.497-16.5
	l-23.487,23.49L196.779,359.688z"/>
<path id="path2642" fill="#FFFFFF" d="M55.838,312.706l-8.375,8.372c3.172,11.921,7.397,23.426,12.569,34.415l19.299-19.298
	L55.838,312.706z"/>
<path id="path2644" fill="#FFFFFF" d="M79.332,289.216l-19.302-19.3c1.386-0.262,2.908-0.43,4.659-0.43
	c11.8,0,14.055,6.992,23.415,7.004c1.743-0.002,3.239-0.248,4.596-0.644L79.332,289.216l23.487,23.49l23.487-23.49l-19.322-19.325
	c1.353-0.248,2.835-0.405,4.534-0.405c11.801,0,14.056,6.992,23.414,7.004c1.841-0.002,3.401-0.281,4.819-0.717l-13.444,13.442
	l23.493,23.49l23.493-23.49l-19.353-19.35c1.318-0.233,2.762-0.379,4.405-0.379c11.801,0,14.057,6.992,23.414,7.004
	c1.944-0.002,3.573-0.316,5.054-0.796l-13.521,13.522l23.487,23.49l23.487-23.49l-19.373-19.375c1.284-0.22,2.69-0.354,4.28-0.354
	c11.801,0,14.056,6.992,23.414,7.004c2.044-0.002,3.74-0.35,5.28-0.874l-13.601,13.599l23.494,23.49l-1.208,1.209
	c0.4-0.07,0.806-0.125,1.209-0.187v-47.291c-5.449,2.044-8.524,5.568-15.173,5.577c-9.358-0.012-11.613-7.004-23.414-7.004
	c-11.801,0-14.055,6.992-23.415,7.004c-9.357-0.012-11.613-7.004-23.414-7.004c-11.8,0-14.055,6.992-23.414,7.004
	c-9.357-0.012-11.613-7.004-23.414-7.004c-11.801,0-14.057,6.992-23.414,7.004c-9.359-0.012-11.614-7.004-23.415-7.004
	s-14.057,6.992-23.414,7.004c-0.224-0.001-0.425-0.023-0.641-0.031c0.04,2.361,0.173,5.339,0.138,4.482
	c0.17,0.005,0.327,0.024,0.502,0.024c1.658-0.002,3.086-0.231,4.391-0.594l-4.693,4.693c0.382,6.521,1.073,12.961,2.055,19.308
	l12.811,12.811L79.332,289.216z"/>
<path id="path2646" fill="#FFFFFF" d="M221.646,403.264c0-14.021,3.562-27.217,9.832-38.713c3.496,4.37,7.415,8.385,11.694,11.979
	c-3.376,9.107-5.226,18.968-5.226,29.239c0,3.926,0.286,7.784,0.808,11.572c-6.155-1.638-11.851-4.391-16.871-8.028
	C221.733,407.314,221.646,405.295,221.646,403.264z"/>
<path id="path2648" fill="#FFFFFF" d="M223.64,345.895c4.523-5.594,9.774-10.566,15.612-14.785
	c7.186,18.252,20.556,33.388,37.526,42.818c-4.975,4.028-10.439,7.483-16.294,10.278
	C244.345,375.994,231.295,362.418,223.64,345.895z"/>
<path id="path2650" fill="#FFFFFF" d="M241.942,329.248c5.295-3.51,11.023-6.41,17.093-8.607
	c8.226,14.332,20.533,26.012,35.34,33.453c-4.129,6.588-9.188,12.518-14.99,17.635C262.336,362.582,248.93,347.495,241.942,329.248z
	"/>
<path id="path2652" fill="#FFFFFF" d="M262.037,386.99c16.41-7.879,29.883-20.785,38.285-36.889c0.83,2.282,1.502,4.641,2.004,7.062
	c-6.281,21.345-21.115,39.055-40.557,49.105L262.037,386.99z"/>
<path id="path2654" fill="#FFFFFF" d="M298.705,346.195c-0.841,1.757-1.729,3.481-2.69,5.16
	c-14.153-7.063-25.958-18.147-33.905-31.759c1.441-0.456,2.901-0.87,4.377-1.247c8.369,2.452,15.855,6.965,21.864,12.969
	C292.629,335.6,296.143,340.634,298.705,346.195z"/>
<path id="path2656" fill="#FFFFFF" d="M260.113,316.909c-14.926,4.946-27.999,13.948-37.902,25.716
	c-1.779-4.33-3.184-8.85-4.196-13.506c9.065-7.995,20.948-12.854,33.982-12.854C254.759,316.266,257.469,316.49,260.113,316.909z"/>
<path id="path2658" fill="#FFFFFF" d="M215.346,331.643c1.15,4.76,2.679,9.379,4.601,13.793
	c-4.786,6.207-8.726,13.104-11.644,20.512c-1.914-5.739-3.205-11.762-3.785-17.989C207.064,341.831,210.764,336.306,215.346,331.643
	z"/>
<path id="path2660" fill="#FFFFFF" d="M202.227,354.779c0.953,5.488,2.43,10.801,4.386,15.871c-1.444,4.429-2.524,9.02-3.22,13.736
	c-1.803-5.242-2.795-10.863-2.795-16.723C200.597,363.214,201.163,358.896,202.227,354.779z"/>
<path id="path2662" fill="#FFFFFF" d="M205.836,390.288l0.081,0.007c0.541-6.848,1.934-13.456,4.073-19.718l0.011-0.005
	c-0.001-0.004-0.003-0.008-0.005-0.012c2.703-7.906,6.594-15.257,11.461-21.846c2.245,4.609,4.898,8.988,7.91,13.085
	c-6.942,12.231-10.905,26.397-10.905,41.464c0,1.14,0.026,2.272,0.072,3.401c-0.99-0.851-1.957-1.728-2.879-2.649
	C211.671,400.033,208.345,395.396,205.836,390.288z"/>
<path id="path2664" fill="#FFFFFF" d="M242.069,418.104c-0.617-4.026-0.942-8.146-0.942-12.336c0-9.512,1.648-18.648,4.665-27.126
	c4.076,3.154,8.449,5.941,13.066,8.307l-0.44,31.711c-2.104,0.262-4.244,0.413-6.418,0.413
	C248.6,419.073,245.283,418.734,242.069,418.104z"/>
<path id="path2666" fill="#FFFFFF" d="M288.348,404.016c-7.153,7.153-16.4,12.193-26.743,14.147l0.118-8.55l0.098,0.196
	c18.971-9.363,33.864-25.671,41.456-45.581c0.075,1.137,0.127,2.279,0.127,3.436C303.403,381.868,297.653,394.709,288.348,404.016z"
	/>
<path id="path2668" fill="#FFFFFF" d="M491.196,471.646l-1.526-0.964c-8.518-5.375-13.542-8.477-20.882-15.01
	c7.073-20.892,16.049-39.854,20.743-62.241l0.92-4.407l-3.21,3.154c-17.228,16.946-33.319,33.326-54.281,47.516
	c-2.087,1.418-3.376,2.479-4.229,3.593c-0.866,1.103-1.15,2.35-1.129,3.437c0.005,1.004,0.148,1.938,0.174,3.146l0.015,0.725
	l0.033,0.021c0.021,0.748,0.047,2.182,0.057,3.773c0.02,2.335,0.026,5.196,0.026,7.607c0,1.427-0.004,2.697-0.008,3.606
	c-0.002,0.268-0.004,0.503-0.006,0.702c-52.974,31.649-113.826,48.546-175.891,48.546c-62.067,0-122.92-16.896-175.896-48.546
	c-0.007-0.871-0.014-2.477-0.014-4.303c0-2.53,0.008-5.554,0.03-7.948c0.011-1.195,0.025-2.234,0.042-2.973
	c0.004-0.166,0.008-0.316,0.012-0.448l0.035-0.021l0.017-0.747c0.021-1.204,0.165-2.139,0.169-3.145
	c0.021-1.087-0.262-2.334-1.126-3.438c-0.854-1.114-2.145-2.175-4.229-3.591c-20.962-14.188-37.054-30.568-54.28-47.516
	l-3.214-3.157l0.923,4.41c4.693,22.389,13.666,41.349,20.743,62.24c-7.34,6.534-12.365,9.636-20.882,15.011l-1.528,0.964
	l1.346,1.205c8.467,7.57,25.54,18.635,29.042,20.886c-0.019,2.78-0.085,12.361-0.085,12.589c0.086,3.396,2.153,6.892,5.338,9.208
	c26.293,18.815,54.233,29.062,83.978,38.456c20.53,6.473,41.282,11.073,62.096,14.095c18.297,2.633,36.936,3.488,57.483,3.488
	c20.543,0,39.184-0.855,57.479-3.488c20.815-3.021,41.568-7.622,62.099-14.095c29.744-9.396,57.685-19.641,83.977-38.454
	c3.187-2.318,5.253-5.813,5.342-9.188c0-0.249-0.069-9.82-0.09-12.609c3.5-2.249,20.575-13.315,29.044-20.888L491.196,471.646z"/>
<path id="path2670" fill="#1A67B1" d="M488.942,471.837c-8.755-5.524-13.952-8.729-21.731-15.747
	c7.156-21.332,16.275-40.445,20.986-62.938c-17.215,16.932-33.374,33.388-54.473,47.672c-5.938,4.02-4.674,4.908-4.586,9.015
	c0.152,0.098,0.152,17.337,0.104,17.25c-53.337,32.026-114.676,49.129-177.241,49.129S128.097,499.115,74.76,467.089
	c-0.05,0.087-0.05-17.152,0.104-17.25c0.087-4.105,1.351-4.995-4.586-9.015c-21.098-14.284-37.258-30.74-54.472-47.672
	c4.71,22.491,13.829,41.604,20.987,62.938c-7.78,7.018-12.978,10.223-21.733,15.747c9.285,8.311,29.502,21.159,29.502,21.159
	s-0.092,13.084-0.092,13.329c0.049,2.8,1.893,6.03,4.772,8.103c26.104,18.682,53.88,28.879,83.591,38.264
	c20.457,6.447,41.136,11.035,61.882,14.045c18.207,2.621,36.776,3.475,57.287,3.475c20.509,0,39.08-0.854,57.286-3.475
	c20.747-3.01,41.428-7.598,61.884-14.045c29.711-9.385,57.485-19.582,83.592-38.264c2.879-2.071,4.723-5.303,4.771-8.103
	c0-0.245-0.094-13.329-0.094-13.329S479.658,480.146,488.942,471.837z"/>
<path id="path2672" fill="#FFFFFF" d="M63.736,445.929c2.552-0.16,4.371-1.912,0.043-4.068
	c-13.706-9.815-25.093-19.865-37.973-31.729c5.167,18.004,12.337,32.962,16.986,49.965c-6.048,4.551-10.66,8.46-18.237,12.739
	c8.249,7.509,20.13,14.451,20.13,14.451s0.179-37.695,0.124-37.72C44.697,444.806,57.146,446.348,63.736,445.929z"/>
<path id="path2674" fill="#FFFFFF" d="M53.778,449.862c-4.735-0.259-4.248,1.738,0.5,3.982c0.253,0,14.951,9.951,14.951,9.951
	s0-15.167,0-15.413C67.237,451.132,60.555,450.208,53.778,449.862z"/>
<path id="path2676" fill="#FFFFFF" d="M352.896,505.376c-33.111,10.514-66.814,15.128-100.895,15.128
	c-34.081,0-67.784-4.614-100.895-15.128c-35.975-11.431-69.491-26.968-100.071-48.521c-0.111,0.383-0.425,44.812-0.844,44.676
	c0.037,6.264,0.628,6.005,4.291,8.891c16.048,12.59,57.19,29.631,78.529,36.252c27.146,8.423,53.929,13.984,81.945,16.61
	c12.322,1.156,24.688,1.777,37.045,1.777c12.356,0,24.723-0.621,37.043-1.777c28.018-2.626,54.8-8.188,81.945-16.61
	c21.339-6.621,62.48-23.662,78.53-36.252c3.662-2.886,4.253-2.627,4.29-8.891c-0.418,0.136-0.733-44.293-0.844-44.676
	C422.387,478.408,388.87,493.945,352.896,505.376z"/>
<path id="path2678" fill="#FFFFFF" d="M461.211,460.096c4.648-17.003,11.818-31.961,16.985-49.965
	c-12.88,11.863-24.268,21.913-37.974,31.729c-4.327,2.156-2.508,3.908,0.044,4.068c6.591,0.419,19.039-1.123,18.927,3.639
	c-0.054,0.023,0.125,37.72,0.125,37.72s11.88-6.942,20.13-14.451C471.871,468.556,467.259,464.646,461.211,460.096z"/>
<path id="path2680" fill="#FFFFFF" d="M450.223,449.862c-6.774,0.346-13.459,1.271-15.449-1.479c0,0.246,0,15.413,0,15.413
	s14.697-9.951,14.951-9.951C454.472,451.601,454.959,449.604,450.223,449.862z"/>
<path id="path2682" fill="#1A67B1" d="M185.514,525.197c1.831,0.222,4.254,0.801,5.265-0.074l-0.05,6.264
	c0.401-3.884-4.346-5.276-5.925-4.401c-5.832,3.242,0.506,7.35,4.772,7.757c-0.376,0.185-0.135,1.121-0.135,1.121
	c-3.99-0.271-8.022,0.48-8.521,4.858c-0.13,1.061,0.918,2.737,1.8,3.812c2.386,2.91,7.769,1.381,7.275-1.702
	c-0.48-2.886-3.853-1.109-6.449-2.133c4.267-4.229,9.933,0.209,14.988,0.109c-1.091,1.346-1.708,2.121-4.144,1.556
	c-1.337-0.321-3.193,2.342-4.562,3.748c-3.533,3.698-13.219,2.133-15.339-3.773c-0.376-1.036-0.229-2.774,0.339-4.673
	c0.758-2.504,5.13-3.49,5.13-3.49s-4.119-0.519-3.927-4.391C176.234,525.369,181.395,524.703,185.514,525.197"/>
<path id="path2684" fill="#1A67B1" d="M311.301,522.518l-0.075,15.057l-2.273,0.196c-0.216-5.658,0.313-10.518-5.29-11.418
	l-12.121,1.136l-0.254,10.776l6.795-0.629c3.385-0.443,3.822-2.516,3.785-5.438c0.672,0,2.25-0.233,2.25-0.233l-0.037,14.045
	l-2.059,0.309c0.204-2.591-0.593-5.514-3.688-5.919l-6.93,0.604l-0.031,7.929c0.129,1.938,2.603,3.824,8.842,3.774v1.85
	c-9.482,1.468-19.674,2.33-29.305,3.07l-0.117-1.739c6.442-0.739,7.83-2.996,7.93-6.461l0.166-16.413
	c0.189-2.563-1.604-4.599-8.786-4.523l0.087-2.121C280.924,526.427,301.795,524.208,311.301,522.518"/>
<path id="path2686" fill="#1A67B1" d="M353.534,513.463c9.704-5.178,16.449-2.441,18.915-3.771c1.185-0.666,1.702-2.887,1.702-2.887
	l2.22-0.775l-0.013,15.239c0,0-2.257,0.691-2.257,0.63c-0.024-9.729-7.67-10.383-12.43-8.04c-2.677,1.295-4.267,4.734-4.438,6.831
	c-0.568,6.722-1.874,15.008,6.313,18.188c4.267,1.652,11.897-2.701,13.784-8.226c-0.049,0.013,1.11-0.309,1.11-0.26
	c-1.282,8.336-8.273,12.159-17.387,13.737c-3.206,0.555-7.473,0.961-10.629-0.617c-3.108-1.528-6.573-3.749-7.091-10.974
	C342.541,521.294,347.245,516.793,353.534,513.463"/>
<path id="path2688" fill="#1A67B1" d="M244.157,536.2c-4.865-6.667-13.142-8.149-21.925-9.535
	c-7.556-0.958-15.096-1.974-22.62-3.047c-0.008,0.524-0.015,1.053-0.022,1.579c7.375,1.902,8.123,3.252,8.301,6.782
	c0.031,6.051,0.061,12.101,0.091,18.15c-0.007,4.057-2.938,3.946-7.809,3.205c0.01,0.32,0.018,0.641,0.028,0.96
	c-0.04,0.088,30.915,5.96,38.603,2.924C246.521,554.273,248.984,542.776,244.157,536.2z M232.206,549.233
	c-1.147,4.402-5.342,6.714-12.161,5.352c-0.018-8.251-0.037-16.5-0.059-24.751c4.417,0.156,9.761,1.697,11.6,5.797
	C233.506,539.915,233.333,545.001,232.206,549.233z"/>
<path id="path2690" fill="#1A67B1" d="M145.019,513.189l-0.086,11.529c0,0,5.605,3.132,7.775,0.012
	c2.046-2.945,1.646-7.682-2.084-9.777C149.538,514.337,145.019,513.189,145.019,513.189 M126.708,502.992
	c0,0,18.552,7.57,23.348,8.902c8.194,2.257,12.929,4.031,14.735,7.94c2.491,5.34-1.159,10.346-6.399,10.68
	c6.098,2.17,5.696,6.917,5.388,15.562c-0.024,0.592,1.104,1.789,1.72,1.738c2.793-0.21,2.336-2.27,2.879-5.03l1.542,0.432
	c-0.53,4.624-2.423,6.979-6.325,6.474c-2.867-0.382-6.795-2.909-9.045-5.722c-2.966-3.699-1.375-7.251-2.096-11.405
	c-0.555-3.156-7.399-4.625-7.399-4.625l-0.037,9.139c0.191,3.724,3.059,5.905,5.734,7.25l0.037,1.518l-25.229-8.546l0.024-1.578
	c4.914,1.109,8.804,0.013,8.526-4.341l0.253-17.164c-0.067-5.217-4.18-8.2-7.657-9.89L126.708,502.992L126.708,502.992z"/>
<path id="path2692" fill="#1A67B1" d="M260.633,538.09c2.533,0.023,4.568,2.083,4.556,4.623c-0.013,2.527-2.083,4.574-4.624,4.563
	c-2.533-0.024-4.58-2.097-4.557-4.638C256.021,540.124,258.092,538.077,260.633,538.09"/>
<path id="path2694" fill="#1A67B1" d="M328.625,530.165c2.541,0.013,4.582,2.084,4.558,4.625c-0.012,2.54-2.084,4.587-4.618,4.562
	c-2.54-0.012-4.574-2.083-4.562-4.623C324.021,532.188,326.086,530.153,328.625,530.165"/>
</svg>
