<?xml version="1.0" encoding="UTF-8" standalone="no"?>
<!-- Created with Inkscape (http://www.inkscape.org/) -->
<svg
   xmlns:dc="http://purl.org/dc/elements/1.1/"
   xmlns:cc="http://creativecommons.org/ns#"
   xmlns:rdf="http://www.w3.org/1999/02/22-rdf-syntax-ns#"
   xmlns:svg="http://www.w3.org/2000/svg"
   xmlns="http://www.w3.org/2000/svg"
   xmlns:sodipodi="http://sodipodi.sourceforge.net/DTD/sodipodi-0.dtd"
   xmlns:inkscape="http://www.inkscape.org/namespaces/inkscape"
   id="svg4617"
   sodipodi:version="0.32"
   inkscape:version="0.46dev+devel"
   width="531.09845"
   height="686.9483"
   version="1.0"
   sodipodi:docname="Bigcrestold2.svg"
   inkscape:output_extension="org.inkscape.output.svg.inkscape"
   inkscape:export-filename="C:\Users\dan\Documents\Bigcrestold2.png"
   inkscape:export-xdpi="90"
   inkscape:export-ydpi="90">
  <metadata
     id="metadata4622">
    <rdf:RDF>
      <cc:Work
         rdf:about="">
        <dc:format></dc:format>
        <dc:type
           rdf:resource="" />
        <dc:title></dc:title>
        <dc:date></dc:date>
        <dc:creator>
          <cc:Agent>
            <dc:title></dc:title>
          </cc:Agent>
        </dc:creator>
        <dc:rights>
          <cc:Agent>
            <dc:title></dc:title>
          </cc:Agent>
        </dc:rights>
        <dc:publisher>
          <cc:Agent>
            <dc:title></dc:title>
          </cc:Agent>
        </dc:publisher>
        <dc:identifier></dc:identifier>
        <dc:source></dc:source>
        <dc:relation></dc:relation>
        <dc:language></dc:language>
        <dc:subject>
          <rdf:Bag />
        </dc:subject>
        <dc:coverage></dc:coverage>
        <dc:description></dc:description>
        <dc:contributor>
          <cc:Agent>
            <dc:title></dc:title>
          </cc:Agent>
        </dc:contributor>
        <cc:license
           rdf:resource="" />
      </cc:Work>
    </rdf:RDF>
  </metadata>
  <defs
     id="defs4620">
    <inkscape:perspective
       sodipodi:type="inkscape:persp3d"
       inkscape:vp_x="-50 : 600 : 1"
       inkscape:vp_y="0 : 1000 : 0"
       inkscape:vp_z="700 : 600 : 1"
       inkscape:persp3d-origin="300 : 400 : 1"
       id="perspective11" />
    <inkscape:perspective
       sodipodi:type="inkscape:persp3d"
       inkscape:vp_x="-50 : 600 : 1"
       inkscape:vp_y="0 : 1000 : 0"
       inkscape:vp_z="700 : 600 : 1"
       inkscape:persp3d-origin="300 : 400 : 1"
       id="perspective10" />
    <inkscape:perspective
       sodipodi:type="inkscape:persp3d"
       inkscape:vp_x="-50 : 600 : 1"
       inkscape:vp_y="0 : 1000 : 0"
       inkscape:vp_z="700 : 600 : 1"
       inkscape:persp3d-origin="300 : 400 : 1"
       id="perspective9" />
    <inkscape:perspective
       sodipodi:type="inkscape:persp3d"
       inkscape:vp_x="-50 : 600 : 1"
       inkscape:vp_y="0 : 1000 : 0"
       inkscape:vp_z="700 : 600 : 1"
       inkscape:persp3d-origin="300 : 400 : 1"
       id="perspective4624" />
  </defs>
  <sodipodi:namedview
     inkscape:window-height="1003"
     inkscape:window-width="1680"
     inkscape:pageshadow="2"
     inkscape:pageopacity="0.0"
     guidetolerance="10.0"
     gridtolerance="10.0"
     objecttolerance="10.0"
     borderopacity="1.0"
     bordercolor="#666666"
     pagecolor="#ffffff"
     id="base"
     showgrid="false"
     inkscape:zoom="1.6839347"
     inkscape:cx="388"
     inkscape:cy="202.87909"
     inkscape:window-x="-4"
     inkscape:window-y="-4"
     inkscape:current-layer="svg4617" />
  <path
     style="fill:#000000"
     d="M 248.04927,681.09541 C 194.8914,662.41235 151.62676,639.19587 114.35257,609.35168 C 101.83494,599.32923 80.22308,578.36765 69.14052,565.5 C 35.24772,526.14802 12.78584,481.16263 2.7404,432.51752 C 0.69353,422.60552 0.6682,420.27479 0.33587,211.25 L 0,0 L 265.54922,0 L 531.09843,0 L 530.77518,211.75 C 530.45298,422.81383 530.44511,423.53078 528.34509,433 C 516.07116,488.3446 492.83495,532.45524 453.45811,575.16228 C 429.96097,600.64664 396.90316,626.52009 364.37995,644.88135 C 351.23688,652.30138 320.57528,666.9529 306.54927,672.51549 C 295.39176,676.94046 266.30024,687.0663 265.08675,686.94728 C 264.79114,686.91829 257.12427,684.28495 248.04927,681.09541 z"
     id="path2519" />
  <path
     style="fill:#ffffff"
     d="M 275.11943,660.14529 C 313.20696,647.27089 355.47227,626.23742 384.54927,605.68716 C 416.94287,582.7929 446.28702,553.39588 465.96168,524.12808 C 484.88445,495.97881 498.37582,465.37047 505.84457,433.64443 L 508.46812,422.5 L 508.77771,221.75 L 509.08729,21 L 265.56828,21 L 22.04927,21 L 22.05517,216.75 C 22.06156,429.0195 21.82894,419.43342 27.51824,441.87757 C 36.08712,475.68161 55.18448,513.00183 79.54179,543.5424 C 89.84145,556.4567 113.76268,580.35507 126.84182,590.79723 C 162.6455,619.38226 202.15094,640.79688 252.54927,658.93914 C 258.59927,661.11701 264.25236,662.92164 265.11168,662.94945 C 265.97101,662.97725 270.4745,661.71538 275.11943,660.14529 z"
     id="path2517" />
  <path
     style="fill:#000000"
     d="M 251.54927,636.6487 C 178.44111,610.1862 127.4805,575.02985 89.38833,524.77824 C 66.44121,494.50614 51.31754,462.15613 42.74188,425 L 40.54927,415.5 L 40.28151,227.25 L 40.01376,39 L 265.54923,39 L 491.08469,39 L 490.78968,227.75 L 490.49467,416.5 L 488.22085,426.39968 C 468.70173,511.38141 405.66047,582.53008 314.05822,622.96048 C 298.67875,629.7485 271.0354,640.01218 266.55149,640.59921 C 264.68479,640.8436 259.01054,639.3494 251.54927,636.6487 z"
     id="path2515" />
  <path
     style="fill:#ffffff"
     d="M 299.04927,623.41411 C 314.03009,617.39827 342.36399,602.93201 356.25312,594.20791 C 418.36633,555.19308 461.85227,500.48417 479.50815,439.14286 C 485.81461,417.23253 486.04927,413.66217 486.04927,339.62166 C 486.04927,302.97975 485.85683,273 485.62163,273 C 485.38643,273 481.67393,272.52878 477.37163,271.95285 C 466.9354,270.55579 462.03907,268.87044 446.63786,261.37409 C 430.04303,253.29676 422.4205,251.50584 408.11967,252.32424 C 394.69757,253.09235 385.09198,255.46561 367.54927,262.34802 C 339.7481,273.25505 330.3463,272.82636 298.04927,259.17906 C 281.39254,252.14066 266.04061,250.3427 250.25711,253.58182 C 246.0178,254.45182 236.09845,257.85834 228.21412,261.15186 C 200.34337,272.79432 189.93842,272.92703 162.52347,261.98971 C 146.13287,255.4506 136.19175,253.05325 122.54927,252.34973 C 107.90134,251.59436 101.59892,253.1695 82.07026,262.46653 C 67.05385,269.6154 56.13583,273 48.09143,273 L 45.04927,273 L 45.05517,339.25 C 45.06161,411.67776 45.26353,414.96721 51.02982,436.58154 C 66.66917,495.20396 108.95389,550.78526 167.04927,589.08375 C 192.89064,606.11927 215.2102,617.20128 248.50653,629.52854 L 265.46378,635.8066 L 277.50653,631.51781 C 284.13004,629.15898 293.82427,625.51231 299.04927,623.41411 z"
     id="path2513" />
  <path
     style="fill:#000000"
     d="M 253.04927,524.37696 C 220.01057,520.16866 192.32755,504.36283 172.82855,478.57434 C 165.13066,468.39347 156.79355,451.20384 153.33786,438.38805 C 150.87875,429.26815 150.67162,426.98515 150.67162,409 C 150.67162,390.97024 150.87465,388.74603 153.36437,379.5 C 158.72498,359.59239 171.16839,338.67668 185.94383,324.73827 C 201.70654,309.86853 219.81307,300.41212 242.21164,295.35155 C 252.83507,292.95137 277.79118,292.97698 289.04927,295.39961 C 335.77192,305.45387 370.59894,341.13128 379.5012,388.06016 C 381.26434,397.35468 381.54623,418.34497 380.03311,427.66782 C 372.49843,474.0917 337.0168,511.74531 291.04927,522.09873 C 282.72776,523.97301 260.39135,525.31215 253.04927,524.37696 z"
     id="path2511" />
  <path
     style="fill:#ffffff"
     d="M 279.04927,521.96808 C 325.53641,515.95469 363.49434,482.72726 375.79724,437.27735 C 378.21172,428.35767 378.44388,425.87718 378.44388,409 C 378.44388,392.12282 378.21172,389.64233 375.79724,380.72265 C 363.49434,335.27274 325.53641,302.04531 279.04927,296.03192 C 268.40612,294.65517 261.30735,294.77706 249.43116,296.54051 C 204.08589,303.27363 167.28218,336.17398 155.51057,380.5 C 150.27228,400.22477 151.09341,424.94022 157.63737,444.51553 C 174.80469,495.86904 226.39379,528.77938 279.04927,521.96808 z"
     id="path2509" />
  <path
     style="fill:#000000"
     d="M 244.04927,510.11013 C 213.44151,503.39642 187.85463,483.77502 173.75088,456.20154 C 169.63613,448.15701 166.59052,440.21525 165.85254,435.60573 C 165.59002,433.96597 167.69893,433.08493 181.54927,429.04815 L 197.54927,424.38482 L 200.22817,435.2419 C 201.70157,441.2133 204.21718,448.8986 205.81841,452.32036 L 208.72975,458.54174 L 200.13951,464.34554 C 195.41488,467.53762 190.19927,471.30687 188.54927,472.72164 C 184.96544,475.79454 186.95083,474.5528 198.89659,466.25 C 203.84234,462.8125 208.34463,460 208.90168,460 C 209.45873,460 210.20587,460.91803 210.56199,462.04006 C 210.91811,463.1621 213.51257,465.90062 216.32746,468.12567 C 227.10929,476.64821 241.40658,481.78113 256.04927,482.38634 C 260.72427,482.57956 262.23822,482.55076 259.41361,482.32234 L 254.27794,481.90702 L 250.72326,472.62007 C 238.60653,440.96395 236.20322,407.44008 243.66159,374.11682 C 247.40414,357.39549 254.46851,337.73047 257.4388,335.76531 C 259.60024,334.3353 272.81226,334.90585 274.40437,336.49795 C 275.22824,337.32183 277.33457,341.70933 279.08511,346.24795 C 295.72255,389.38402 295.9995,432.43422 279.90828,474.20171 L 276.94114,481.90342 L 271.74521,482.32054 C 268.88744,482.54995 270.37427,482.57956 275.04927,482.38634 C 291.28865,481.71513 308.28213,474.93434 317.54927,465.42785 C 321.4863,461.38913 323.261,458.40675 325.89712,451.39935 C 329.3275,442.28062 333.04927,429.03747 333.04927,425.9499 C 333.04927,424.42848 334.94951,424.76711 348.79927,428.7566 C 357.46177,431.25188 364.88961,433.59028 365.30558,433.95304 C 365.72154,434.31581 364.99747,437.73727 363.69653,441.55631 C 352.25191,475.15299 325.72498,499.90677 291.2247,509.18389 C 280.01525,512.19811 255.74114,512.67471 244.04927,510.11013 z"
     id="path2507" />
  <path
     style="fill:#ffffff"
     d="M 343.54927,473.39034 C 337.30319,468.56196 325.13359,460 324.51681,460 C 324.12016,460 328.4652,463.3738 334.17245,467.49733 C 339.8797,471.62087 344.77427,474.98156 345.04927,474.96553 C 345.32427,474.94951 344.64927,474.24067 343.54927,473.39034 z"
     id="path2505" />
  <path
     style="fill:#ffffff"
     d="M 273.04927,427.5 C 273.04927,426.675 272.23927,426 271.24927,426 C 268.10252,426 267.04927,423.81827 267.04927,417.3 C 267.04927,412.85435 267.42529,411 268.32676,411 C 270.58223,411 273.80175,413.87765 274.45406,416.47667 C 275.82941,421.95649 277.04927,418.67715 277.04927,409.5 C 277.04927,403.83333 276.64576,400 276.04927,400 C 275.49927,400 275.04927,400.61431 275.04927,401.36514 C 275.04927,403.62087 271.04125,408 268.97669,408 C 267.27446,408 267.04927,407.25309 267.04927,401.60699 C 267.04927,394.36548 267.88083,393.52048 273.93351,394.6115 C 279.12052,395.54647 280.61287,396.53222 282.03344,399.96178 C 284.12131,405.00235 286.04927,403.82047 286.04927,397.5 L 286.04927,392 L 268.54927,392 C 257.54927,392 251.04927,392.37143 251.04927,393 C 251.04927,393.55 251.93344,394 253.01409,394 C 256.26576,394 257.04927,397.24928 257.04927,410.73426 C 257.04927,424.01303 256.5026,426 252.84927,426 C 251.85927,426 251.04927,426.675 251.04927,427.5 C 251.04927,428.74242 252.93816,429 262.04927,429 C 271.16038,429 273.04927,428.74242 273.04927,427.5 z"
     id="path2503" />
  <path
     style="fill:#000000"
     d="M 239.04927,478.63585 C 230.35514,476.01951 224.48124,473.1561 217.74909,468.25242 C 212.00724,464.07008 206.4644,453.91354 202.54769,440.3978 C 195.65076,416.59794 197.21193,395.97671 208.1044,367 C 210.84292,359.71486 212.18939,357.63429 217.52526,352.44286 C 224.98197,345.18799 235.50571,339.67236 246.40328,337.3075 C 250.60025,336.39672 254.29572,335.91312 254.61544,336.23284 C 254.93516,336.55255 254.53226,338.09911 253.72012,339.66962 C 250.84206,345.23517 245.17437,362.88996 242.66159,374.11682 C 234.92448,408.68544 237.67675,442.53164 250.92609,475.75 L 253.02009,481 L 249.78468,480.94642 C 248.0052,480.91695 243.17427,479.87719 239.04927,478.63585 z"
     id="path2501" />
  <path
     style="fill:#ffffff"
     d="M 217.04927,417 C 217.04927,416.45 216.59927,416 216.04927,416 C 215.49927,416 215.04927,415.1 215.04927,414 C 215.04927,412.39296 215.71594,412 218.44228,412 C 220.73698,412 222.0503,412.5603 222.49951,413.73092 C 222.86483,414.68293 222.68797,415.62043 222.1065,415.81426 C 219.20022,416.78302 221.67388,418 226.54927,418 C 231.62975,418 233.45946,416.98958 231.06207,415.50791 C 230.51911,415.17234 228.20384,410.87078 225.91703,405.94889 C 223.63023,401.027 221.21693,397 220.55415,397 C 219.89137,397 217.59413,401.10581 215.44918,406.12401 C 213.30423,411.14222 210.98677,415.46536 210.29927,415.731 C 207.68476,416.7412 209.21041,418 213.04927,418 C 215.24927,418 217.04927,417.55 217.04927,417 z"
     id="path2499" />
  <path
     style="fill:#ffffff"
     d="M 217.11956,409.25 C 217.15821,408.8375 217.51656,407.66987 217.91587,406.65526 C 218.56738,404.99988 218.76326,405.07687 219.82415,407.40526 C 220.87987,409.72231 220.79465,410 219.02783,410 C 217.93962,410 217.0809,409.6625 217.11956,409.25 z"
     id="path2497" />
  <path
     style="fill:#000000"
     d="M 280.05033,476.49752 C 286.48722,461.48086 291.5117,438.82486 292.61826,419.8272 C 294.01762,395.80244 288.2815,364.41505 278.41274,342.09628 C 277.09859,339.12424 276.2576,336.45834 276.54388,336.17205 C 276.83017,335.88577 280.47259,336.39114 284.63814,337.2951 C 295.72731,339.70154 305.58337,344.82334 313.34759,352.21425 C 319.43316,358.00722 320.23815,359.28396 323.61575,368.5 C 331.60412,390.29688 334.17747,406.99604 332.13309,423.77128 C 330.05286,440.84074 322.04989,461.38103 315.3172,466.93068 C 307.36111,473.48876 288.9626,481 280.85491,481 L 278.12034,481 L 280.05033,476.49752 z"
     id="path2495" />
  <path
     style="fill:#ffffff"
     d="M 321.58445,416.38499 C 322.9401,415.49673 324.04927,414.14673 324.04927,413.38499 C 324.04927,411.61628 323.11963,411.62809 321.12801,413.42209 C 315.7146,418.29835 310.04927,415.1824 310.04927,407.32874 C 310.04927,399.42637 315.25218,396.39373 320.04927,401.5 C 323.18704,404.84 324.04927,404.65223 324.04927,400.62891 L 324.04927,397.25781 L 317.61941,397.11839 C 310.07288,396.95475 306.43986,398.344 304.47427,402.14503 C 301.72366,407.46412 303.3777,413.95423 308.15934,416.60449 C 311.47215,418.44064 318.62563,418.32368 321.58445,416.38499 z"
     id="path2493" />
  <path
     style="fill:#000000"
     d="M 164.58222,431.22527 C 164.24587,430.34875 163.4638,424.98949 162.84429,419.3158 C 161.72739,409.08677 162.8672,389.86637 164.78748,386.54822 C 165.39248,385.5028 167.9161,385.92707 177.04927,388.60965 C 200.18117,395.40393 199.10608,394.93577 198.34338,397.88243 C 197.97074,399.32209 197.63963,405.55407 197.60756,411.73126 C 197.5398,424.78753 199.33838,422.95671 181.54927,428.07735 C 175.49927,429.81886 169.34428,431.59816 167.87152,432.03134 C 165.84061,432.62869 165.04604,432.43398 164.58222,431.22527 z"
     id="path2491" />
  <path
     style="fill:#000000"
     d="M 351.04927,428.45252 C 343.07427,426.10886 335.8236,423.89886 334.93667,423.5414 C 333.61216,423.00758 333.40345,421.69531 333.76839,416.19574 C 334.01277,412.51308 333.81296,406.28508 333.32438,402.35573 L 332.43604,395.21146 L 348.80721,390.47029 C 359.06263,387.50027 365.53069,386.08142 366.12146,386.67219 C 366.64016,387.19089 367.60223,392.42684 368.25939,398.30764 C 369.1807,406.55222 369.18444,411.41425 368.27576,419.5459 C 367.62759,425.34614 366.74898,430.68172 366.32328,431.40275 C 365.71283,432.43668 362.4852,431.81325 351.04927,428.45252 z"
     id="path2489" />
  <path
     style="fill:#000000"
     d="M 181.54927,389.02224 C 167.83023,384.9154 165.5925,383.96653 165.85254,382.3663 C 166.60206,377.75384 169.65141,369.8131 173.75088,361.79846 C 188.07603,333.79213 213.84657,314.26917 245.04927,307.78501 C 257.50529,305.19655 279.53917,305.692 291.2247,308.8233 C 309.33611,313.6765 324.12993,322.02611 337.40633,334.88816 C 346.68784,343.88001 352.35425,351.55491 357.79225,362.5 C 361.58246,370.1286 366.64951,383.8159 365.90206,384.40652 C 365.17437,384.98152 332.83051,394.1123 332.58243,393.81276 C 332.43997,393.64074 331.13431,389.30899 329.68097,384.18663 C 328.22762,379.06428 325.73589,371.51856 324.14378,367.41836 L 321.24903,359.96346 L 323.39915,358.83869 C 325.59636,357.68929 339.93906,347.48576 343.54927,344.5037 C 346.64069,341.95016 342.98626,343.99955 339.04927,347.02727 C 337.12427,348.50769 332.47227,351.81474 328.7115,354.37628 L 321.87373,359.03363 L 314.33559,351.99383 C 300.88871,339.43594 287.42359,334.64862 265.54927,334.64862 C 243.65963,334.64862 229.65474,339.67697 216.61826,352.21693 L 209.54927,359.01668 L 199.707,352.25834 C 186.77963,343.38157 184.87996,342.18158 188.04927,344.89434 C 189.42427,346.07128 194.8651,349.98478 200.13999,353.59102 L 209.73072,360.14783 L 205.93543,370.43753 C 203.84802,376.09687 201.38998,383.71361 200.47313,387.36362 C 199.55628,391.01363 198.52333,393.95768 198.1777,393.90595 C 197.83206,393.85422 190.34927,391.65655 181.54927,389.02224 z"
     id="path2487" />
  <path
     style="fill:#ffffff"
     d="M 71.59927,224.09736 C 72.16521,223.55963 74.58294,223.62128 77.57965,224.24985 C 84.5754,225.71722 89.71993,224.52934 93.72814,220.52113 C 96.34763,217.90164 97.04927,216.38082 97.04927,213.32251 C 97.04927,207.66261 94.77632,205.24274 85.41833,200.93979 C 78.39838,197.71191 77.04927,196.71342 77.04927,194.74578 C 77.04927,191.55867 78.84826,190 82.52676,190 C 86.31385,190 89.57566,192.18346 91.58066,196.0607 C 93.90127,200.54827 95.04927,199.59664 95.04927,193.18538 L 95.04927,187.37076 L 85.07195,187.43538 C 75.70508,187.49605 74.9357,187.65892 72.49725,190.09742 C 70.91951,191.67519 69.69183,194.24602 69.36989,196.64628 C 68.64015,202.08687 72.22417,206.1918 81.21348,210.21125 C 88.89616,213.64645 90.72155,216.49467 87.5128,220.04029 C 84.61462,223.24275 79.47885,222.62958 75.44927,218.6 C 73.57927,216.73 72.04927,214.255 72.04927,213.1 C 72.04927,211.9 71.40641,211 70.54927,211 C 69.35879,211 69.04927,212.44444 69.04927,218 C 69.04927,224.75371 69.57797,226.0179 71.59927,224.09736 z"
     id="path2485" />
  <path
     style="fill:#ffffff"
     d="M 129.94133,222.40469 C 131.6162,221.41532 133.31253,219.90702 133.71095,219.05292 C 134.10938,218.19881 134.68599,211.65 134.99231,204.5 C 135.51765,192.23801 135.677,191.44396 137.79927,190.51287 C 141.73576,188.78584 140.2503,188 133.04927,188 C 126.08287,188 123.79773,189.21808 128.53404,190.40682 C 131.81588,191.23051 132.36879,193.83622 131.87427,206.1483 C 131.49059,215.70095 131.32051,216.36993 128.70329,218.62117 C 125.08879,221.73024 119.14295,221.86469 116.45426,218.89815 C 114.85229,217.13065 114.49602,214.89648 114.21448,204.85278 C 113.86329,192.32395 114.48246,190 118.17171,190 C 119.20437,190 120.04927,189.55 120.04927,189 C 120.04927,188.39683 115.8826,188 109.54927,188 C 99.62467,188 96.10083,189.04317 101.47178,190.3912 C 103.86389,190.99158 103.8984,191.16833 104.22178,204.47469 C 104.52451,216.93124 104.72134,218.12218 106.82488,220.22508 C 108.07647,221.47629 110.55147,223.05556 112.32488,223.73458 C 116.59965,225.37134 126.13818,224.65127 129.94133,222.40469 z"
     id="path2483" />
  <path
     style="fill:#ffffff"
     d="M 176.04927,210.0651 C 176.04927,194.71711 176.86627,190 179.52452,190 C 180.36313,190 181.04927,189.55 181.04927,189 C 181.04927,188.4359 178.21594,188 174.54927,188 C 167.70338,188 166.39201,188.92387 170.54927,190.81805 C 172.91922,191.89787 173.04927,192.38245 173.04927,200.13355 C 173.04927,209.76378 173.65162,209.96551 161.83049,196.3762 L 154.54927,188.00586 L 147.79927,188.00293 C 140.57371,187.99979 139.57223,188.80218 143.54927,191.40804 C 145.99337,193.00948 146.04927,193.32325 146.04927,205.44127 C 146.04927,219.20604 145.69103,221 142.94228,221 C 141.90113,221 141.04927,221.675 141.04927,222.5 C 141.04927,223.69048 142.49371,224 148.04927,224 C 155.26662,224 157.13473,222.74339 152.52364,220.99026 C 149.12592,219.69845 148.92759,218.88274 149.2609,207.57098 L 149.54927,197.78432 L 161.84607,211.39216 C 168.60931,218.87647 174.57181,225 175.09607,225 C 175.65779,225 176.04927,218.86615 176.04927,210.0651 z"
     id="path2481" />
  <path
     style="fill:#ffffff"
     d="M 418.04927,208.50847 C 418.04927,193.09995 418.18061,191.93492 420.04927,190.76793 C 423.41407,188.66657 422.33038,188 415.54927,188 C 408.99764,188 406.92391,189.24975 411.54927,190.41064 C 413.97615,191.01975 414.04927,191.29241 414.04927,199.73334 C 414.04927,206.99474 413.83241,208.18711 412.73416,206.96429 C 412.01085,206.15893 407.90555,201.5625 403.61126,196.75 L 395.80348,188 L 388.92637,188 C 385.14397,188 382.04927,188.27274 382.04927,188.60608 C 382.04927,188.93942 383.17427,190.09708 384.54927,191.17866 C 386.99458,193.10214 387.04927,193.43942 387.04927,206.59733 C 387.04927,220.02618 387.04494,220.05115 384.54927,221 C 379.96242,222.74392 381.84654,224 389.04927,224 C 394.60483,224 396.04927,223.69048 396.04927,222.5 C 396.04927,221.65894 395.15689,221 394.01789,221 C 391.2022,221 390.93517,219.77019 391.26227,208.30909 L 391.54927,198.25338 L 403.54927,211.61819 C 410.14927,218.96883 416.11177,224.98682 416.79927,224.9915 C 417.74908,224.99796 418.04927,221.03956 418.04927,208.50847 z"
     id="path2479" />
  <path
     style="fill:#ffffff"
     d="M 208.64504,222.5274 C 218.20804,219.6875 223.37919,210.71222 221.04895,200.99866 C 220.3902,198.2527 218.77306,195.15176 217.22804,193.6719 C 212.39944,189.04693 208.21927,188 194.58139,188 C 182.22698,188 179.87934,188.57374 184.29927,190.51287 C 186.43578,191.45021 186.56385,192.13049 186.8383,204 C 187.17124,218.39915 186.82328,220.56433 184.06021,221.28689 C 182.95419,221.57612 182.04927,222.30489 182.04927,222.90638 C 182.04927,224.59735 202.66393,224.3036 208.64504,222.5274 z"
     id="path2477" />
  <path
     style="fill:#000000"
     d="M 197.71594,220.33333 C 197.34927,219.96667 197.04927,213.26481 197.04927,205.44032 C 197.04927,189.34821 197.44545,188.55897 203.9313,191.73072 C 212.55839,195.94959 213.01875,215.95909 204.57721,219.80531 C 201.67195,221.12904 198.73747,221.35487 197.71594,220.33333 z"
     id="path2475" />
  <path
     style="fill:#ffffff"
     d="M 258.96641,218.95078 C 260.34143,212.53927 260.32579,212 258.76488,212 C 258.05846,212 256.65667,213.3946 255.6498,215.09911 C 253.49284,218.75055 248.70169,221 243.08139,221 L 239.04927,221 L 239.04927,214 C 239.04927,207.75453 239.25703,207 240.97669,207 C 243.04125,207 247.04927,211.37913 247.04927,213.63486 C 247.04927,214.38569 247.49927,215 248.04927,215 C 248.64576,215 249.04927,211.16667 249.04927,205.5 C 249.04927,196.32285 247.82941,193.04351 246.45406,198.52333 C 245.80175,201.12235 242.58223,204 240.32676,204 C 239.42332,204 239.04927,202.12811 239.04927,197.60699 C 239.04927,190.36548 239.88083,189.52048 245.93351,190.6115 C 251.12052,191.54647 252.61287,192.53222 254.03344,195.96178 C 255.93095,200.54278 257.04927,199.62992 257.04927,193.5 L 257.04927,188 L 240.04927,188 C 230.22977,188 223.04927,188.39301 223.04927,188.93045 C 223.04927,189.4422 224.06177,190.0047 225.29927,190.18045 C 227.50196,190.49328 227.55509,190.81046 227.82609,205.26456 L 228.1029,220.02911 L 225.57609,220.9898 C 219.63508,223.24857 223.35212,224 240.46641,224 L 257.88354,224 L 258.96641,218.95078 z"
     id="path2473" />
  <path
     style="fill:#ffffff"
     d="M 282.04927,222.5 C 282.04927,221.675 281.19741,221 280.15626,221 C 279.1151,221 277.9901,220.2882 277.65626,219.41821 C 276.78901,217.1582 276.90416,207.9931 277.79927,208.03569 C 278.21177,208.05532 281.128,211.65532 284.27977,216.03569 L 290.01027,224 L 296.02977,224 C 300.5564,224 302.04927,223.64866 302.04927,222.58333 C 302.04927,221.80417 301.62545,221.01667 301.10745,220.83333 C 300.58945,220.65 297.73169,217.37251 294.75687,213.55002 L 289.34812,206.60005 L 292.42843,205.05002 C 299.04261,201.72174 299.64687,195.01392 293.72993,190.60215 C 291.22774,188.73647 289.28728,188.46358 276.47993,188.17623 C 262.53781,187.86341 259.5616,188.43435 264.29927,190.51287 C 266.48377,191.47126 266.54927,191.92211 266.54927,206 C 266.54927,220.27569 266.51446,220.50494 264.29927,220.81955 C 263.06177,220.9953 262.04927,221.7828 262.04927,222.56955 C 262.04927,223.71479 264.04314,224 272.04927,224 C 280.27149,224 282.04927,223.73333 282.04927,222.5 z"
     id="path2471" />
  <path
     style="fill:#000000"
     d="M 277.04927,198.53518 C 277.04927,193.39422 277.40763,191.88258 278.79927,191.15335 C 282.42482,189.25352 287.04927,193.07997 287.04927,197.97971 C 287.04927,200.88643 282.68125,205 279.59472,205 C 277.12994,205 277.04927,204.79511 277.04927,198.53518 z"
     id="path2469" />
  <path
     style="fill:#ffffff"
     d="M 337.40622,222.51218 C 337.72023,221.69388 338.27635,218.76888 338.64204,216.01218 C 339.4399,209.99766 338.15849,209.46918 335.03429,214.52424 C 332.23251,219.05761 328.0575,221.19094 322.74305,220.80475 L 318.54927,220.5 L 318.27032,206.63735 C 317.97971,192.19532 318.4945,190 322.17171,190 C 323.20437,190 324.04927,189.55 324.04927,189 C 324.04927,188.39683 319.8826,188 313.54927,188 C 303.09579,188 301.01571,188.63357 305.29927,190.51287 C 307.48377,191.47126 307.54927,191.92211 307.54927,206 C 307.54927,220.27569 307.51446,220.50494 305.29927,220.81955 C 304.06177,220.9953 303.04927,221.7828 303.04927,222.56955 C 303.04927,224.74149 336.57224,224.68551 337.40622,222.51218 z"
     id="path2467" />
  <path
     style="fill:#ffffff"
     d="M 353.04927,222.90638 C 353.04927,222.30489 352.14927,221.57741 351.04927,221.28975 C 348.83847,220.71161 348.50835,218.87923 350.08445,215.93426 C 350.92924,214.35577 352.21027,214 357.04927,214 C 361.88827,214 363.1693,214.35577 364.01409,215.93426 C 365.63993,218.97218 365.25372,221 363.04927,221 C 361.93816,221 361.04927,221.66667 361.04927,222.5 C 361.04927,223.72807 362.77149,224 370.54927,224 C 377.52063,224 380.04927,223.66477 380.04927,222.74055 C 380.04927,222.04785 379.25295,220.98378 378.27966,220.37595 C 377.30637,219.76813 373.16011,211.99542 369.06575,203.10328 C 363.97972,192.05743 361.16489,187.02512 360.18023,187.21787 C 359.38755,187.37304 355.63459,194.475 351.84032,203 C 348.04605,211.525 344.06586,219.24713 342.99546,220.16029 C 339.64408,223.01935 340.67941,224 347.04927,224 C 350.72502,224 353.04927,223.57636 353.04927,222.90638 z"
     id="path2465" />
  <path
     style="fill:#000000"
     d="M 354.14765,206.27049 C 355.26267,203.66926 356.34142,201.37452 356.54488,201.17106 C 356.74834,200.9676 358.07764,203.09588 359.49888,205.90057 L 362.08296,211 L 357.10165,211 L 352.12034,211 L 354.14765,206.27049 z"
     id="path2463" />
  <path
     style="fill:#ffffff"
     d="M 453.71506,221.24344 C 460.34346,217.74583 462.54927,213.81486 462.54927,205.5 C 462.54927,197.09516 460.38117,193.30727 453.72657,190.08583 C 450.02666,188.29473 447.55484,188 436.23355,188 C 423.9194,188 419.71979,188.94754 425.54927,190.41064 L 428.04927,191.0381 L 428.04927,205.54049 C 428.04927,220.03928 428.04865,220.04316 425.54927,221.18195 C 420.41549,223.52106 423.15558,224.1932 436.29927,223.81892 C 447.55705,223.49833 450.17562,223.1111 453.71506,221.24344 z"
     id="path2461" />
  <path
     style="fill:#000000"
     d="M 438.67956,218.75 C 438.34792,217.5125 438.07043,211.00986 438.06292,204.29969 C 438.04825,191.18665 438.67217,189.61735 443.4413,190.77179 C 450.68615,192.52552 454.5318,205.12272 450.6549,214.40143 C 448.05519,220.62341 439.96856,223.55989 438.67956,218.75 z"
     id="path2459" />
  <path
     style="fill:#ffffff"
     d="M 56.33746,170.47699 C 63.17897,169.60399 70.06591,167.0439 84.17648,160.12834 C 99.90199,152.42132 105.74323,150.87559 119.09481,150.88818 C 132.07039,150.90041 142.3628,152.93737 156.04927,158.20182 C 180.1485,167.47148 182.89224,168.2196 193.04927,168.29034 C 205.12598,168.37445 210.26626,167.12847 227.69202,159.89315 C 245.44089,152.52367 252.60786,150.8406 266.02528,150.89108 C 278.99703,150.93988 287.88989,153.08277 303.63961,159.95493 C 319.05825,166.68263 325.46851,168.25684 337.54927,168.2824 C 348.31243,168.30518 349.77543,167.91177 375.04927,158.19843 C 388.77493,152.92334 398.98386,150.90874 411.97687,150.91127 C 425.55816,150.91391 431.00897,152.40022 449.04927,161.02011 C 463.53101,167.93966 470.90082,170.34053 480.79927,171.3633 L 486.04927,171.90577 L 486.04927,167.51416 L 486.04927,163.12255 L 481.29927,162.5072 C 470.51157,161.1097 462.37888,158.44053 448.99869,151.90607 C 429.9036,142.58065 426.02033,141.65936 408.54927,142.3097 C 392.40071,142.9108 386.62773,144.25165 367.13408,151.92893 C 359.862,154.79292 350.68048,157.81895 346.7307,158.65344 C 334.54993,161.22692 321.897,159.00295 305.19758,151.35329 C 290.11243,144.44309 283.7161,142.81746 269.41654,142.25949 C 252.96883,141.61771 245.3419,143.13487 228.04927,150.48836 C 199.89625,162.4601 191.22955,162.67239 164.48251,152.04548 C 145.46008,144.48765 138.68337,142.88252 123.18798,142.26448 C 105.95228,141.57702 102.23769,142.43439 83.04927,151.52902 C 68.25972,158.53874 60.3119,161.16429 49.79927,162.5131 L 45.04927,163.12255 L 45.04927,167.60659 L 45.04927,172.09063 L 48.29927,171.5893 C 50.08677,171.31357 53.70395,170.81303 56.33746,170.47699 z"
     id="path2457" />
  <path
     style="fill:#ffffff"
     d="M 206.84143,151.41269 C 211.08074,150.53968 220.17427,147.42283 227.04927,144.48636 C 246.45385,136.19823 249.42748,135.5045 265.54927,135.5045 C 281.63534,135.5045 284.41829,136.15365 304.26138,144.53443 C 322.9553,152.42986 335.63187,154.54672 348.25005,151.88011 C 351.16462,151.26417 359.76541,148.31344 367.36291,145.32292 C 385.86272,138.04106 394.25372,135.98229 408.25799,135.28909 C 417.49507,134.83187 421.47824,135.0769 427.12717,136.44987 C 433.29899,137.94994 434.48288,137.99497 435.70184,136.776 C 437.55943,134.91841 442.00124,122.2621 442.02818,118.75 L 442.04927,116 L 422.98188,116 C 404.03861,116 403.91885,115.98627 404.58414,113.89013 C 405.48814,111.0419 411.04927,91.56926 411.04927,91.25211 C 411.04927,91.11345 402.26129,91 391.52041,91 L 371.99156,91 L 376.77041,81.99559 C 380.20395,75.52605 381.21191,72.77365 380.35089,72.21847 C 377.57709,70.42996 347.66277,61.65335 347.34686,62.53537 C 347.15684,63.06592 343.26106,69.575 338.68957,77 L 330.37778,90.5 L 305.46352,90.76793 L 280.54927,91.03587 L 273.17782,104.59592 C 269.12353,112.05395 265.20509,118.38671 264.47019,118.66872 C 261.81321,119.6883 153.12128,113.14392 150.32349,111.79591 C 147.19891,110.29044 146.28695,107.67756 146.14895,99.83532 L 146.04927,94.17064 L 138.79927,93.58056 C 134.81177,93.25601 122.54927,92.53923 111.54927,91.98771 C 100.54927,91.43619 89.41177,90.74783 86.79927,90.45803 C 83.75343,90.12016 82.04927,90.31652 82.04927,91.00535 C 82.04927,91.59618 88.23677,101.72638 95.79927,113.51691 L 109.54927,134.95423 L 119.04927,134.99025 C 131.13187,135.03607 143.60246,137.6213 157.54927,142.97156 C 181.17341,152.03422 183.59795,152.70612 193.34143,152.89043 C 196.52712,152.9507 202.60212,152.28571 206.84143,151.41269 z"
     id="path4628" />
  <path
     style="fill:#ff0000"
     d="M 224.64312,620.07802 C 211.47138,614.33831 192.64826,604.76037 181.64312,598.19794 L 173.64312,593.42749 L 173.38486,536.66876 L 173.1266,479.91003 L 182.88486,489.77854 C 196.88626,503.93814 213.29013,514.20362 230.39312,519.50906 L 236.14312,521.29273 L 236.14312,573.11011 C 236.14312,601.60967 236.03062,624.91486 235.89312,624.89943 C 235.75562,624.884 230.69312,622.71436 224.64312,620.07802 z M 295.14312,573.10202 L 295.14312,521.29273 L 300.89312,519.50906 C 317.90006,514.23342 334.28809,504.00045 348.39312,489.84921 L 358.14312,480.06728 L 358.14312,536.5228 L 358.14312,592.97832 L 351.89312,596.99807 C 345.38891,601.18132 306.80996,620.51659 299.39312,623.31039 L 295.14312,624.9113 L 295.14312,573.10202 z M 98.04224,526.67676 C 75.46704,498.46402 59.42986,467.6439 51.12367,436.50903 C 45.35738,414.8947 45.15546,411.60525 45.14902,339.17749 L 45.14312,272.92749 L 48.18528,272.92749 C 56.18227,272.92749 67.1668,269.53501 82.14312,262.4399 C 90.66812,258.40114 99.33062,254.6449 101.39312,254.0927 L 105.14312,253.0887 L 105.14312,394.0081 C 105.14312,471.51376 105.03062,534.92716 104.89312,534.92676 C 104.75562,534.92635 101.67272,531.21385 98.04224,526.67676 z M 426.14312,394.0081 L 426.14312,253.0887 L 429.89312,254.08792 C 431.95562,254.63748 440.16812,258.16215 448.14312,261.9205 C 456.11812,265.67886 464.21812,269.22124 466.14312,269.79246 C 468.85474,270.59711 483.40361,272.92749 485.71548,272.92749 C 485.95068,272.92749 486.14312,302.90724 486.14312,339.54915 C 486.14312,413.58966 485.90846,417.16002 479.602,439.07035 C 470.99582,468.97056 456.0414,497.59826 434.88293,524.67749 C 430.47804,530.31499 426.70958,534.92749 426.50858,534.92749 C 426.30758,534.92749 426.14312,471.51376 426.14312,394.0081 z M 173.14312,302.10968 L 173.14312,266.29124 L 179.89312,268.05172 C 193.47521,271.59409 207.01007,270.01051 223.81226,262.91318 C 229.21923,260.62925 234.20562,258.52499 234.89312,258.23705 C 235.86833,257.8286 236.14312,262.00817 236.14312,277.24954 L 236.14312,296.78557 L 230.39312,298.44229 C 214.12439,303.12971 196.97851,313.82358 182.89312,328.06802 L 173.14312,337.92811 L 173.14312,302.10968 z M 348.14312,327.96789 C 334.51609,313.99469 318.03831,303.66445 300.89312,298.34592 L 295.14312,296.56225 L 295.14312,277.13788 C 295.14312,262.00488 295.41928,257.82129 296.39312,258.20134 C 297.08062,258.46965 302.02509,260.56514 307.38082,262.85799 C 324.01415,269.97889 337.77691,271.60298 351.39312,268.05172 L 358.14312,266.29124 L 358.14312,302.10937 C 358.14312,321.80933 358.03062,337.87838 357.89312,337.81835 C 357.75562,337.75832 353.36812,333.32561 348.14312,327.96789 z"
     id="path4706" />
</svg>
