<?xml version="1.0" encoding="UTF-8" standalone="no"?>
<!-- Created with Inkscape (http://www.inkscape.org/) -->

<svg
   xmlns:dc="http://purl.org/dc/elements/1.1/"
   xmlns:cc="http://creativecommons.org/ns#"
   xmlns:rdf="http://www.w3.org/1999/02/22-rdf-syntax-ns#"
   xmlns:svg="http://www.w3.org/2000/svg"
   xmlns="http://www.w3.org/2000/svg"
   xmlns:sodipodi="http://sodipodi.sourceforge.net/DTD/sodipodi-0.dtd"
   xmlns:inkscape="http://www.inkscape.org/namespaces/inkscape"
   width="339"
   height="294"
   id="svg2"
   version="1.1"
   inkscape:version="0.48.4 r9939"
   sodipodi:docname="Dhaka_University_logo.svg">
  <defs
     id="defs4">
    <clipPath
       id="Clip1">
      <path
         id="path3058"
         d="m 0,0 370.916,0 0,460 L 0,460 0,0 z"
         inkscape:connector-curvature="0" />
    </clipPath>
    <clipPath
       id="Clip0">
      <path
         id="path3055"
         d="m 0,0 370.916,0 0,460 L 0,460 0,0 z"
         inkscape:connector-curvature="0" />
    </clipPath>
  </defs>
  <sodipodi:namedview
     id="base"
     pagecolor="#ffffff"
     bordercolor="#666666"
     borderopacity="1.0"
     inkscape:pageopacity="0.0"
     inkscape:pageshadow="2"
     inkscape:zoom="1.4"
     inkscape:cx="313.00552"
     inkscape:cy="51.104084"
     inkscape:document-units="px"
     inkscape:current-layer="layer1"
     showgrid="false"
     inkscape:window-width="1216"
     inkscape:window-height="1078"
     inkscape:window-x="722"
     inkscape:window-y="510"
     inkscape:window-maximized="0" />
  <metadata
     id="metadata7">
    <rdf:RDF>
      <cc:Work
         rdf:about="">
        <dc:format>image/svg+xml</dc:format>
        <dc:type
           rdf:resource="http://purl.org/dc/dcmitype/StillImage" />
        <dc:title></dc:title>
      </cc:Work>
    </rdf:RDF>
  </metadata>
  <g
     inkscape:label="Layer 1"
     inkscape:groupmode="layer"
     id="layer1"
     transform="translate(0,-758.36218)">
    <g
       id="g3472"
       transform="matrix(0.59817098,0,0,0.59817098,-8.7954507,751.22791)">
      <path
         d="m 581.285,150.551 -3.197,-8.401 C 577.66,141.041 567.38,114.699 538.559,86.186 l -1.915,-1.891 c 0,0 -30.176,-6.164 -37.458,-7.662 -0.323,-1.269 -0.655,-2.846 -0.655,-5.214 0,-0.521 0.104,-1.211 0.128,-1.786 2.799,-2.855 6.242,-7.354 6.837,-13.256 0.062,-0.485 0.09,-0.993 0.09,-1.497 0,-2.617 -0.793,-5.347 -2.39,-7.648 0.113,-1.064 0.466,-1.857 0.466,-2.981 0,-2.817 -0.503,-5.727 -1.554,-8.475 2.522,-2.627 6.522,-6.792 6.522,-6.792 l -12.328,-5.565 -7.254,-3.292 c -0.457,-0.347 -6.794,-4.38 -6.794,-4.38 -4.152,-2.178 -13.393,-4.843 -21.663,-0.948 -3.811,1.801 -8.513,5.789 -10.859,13.67 -1.71,2.558 -5.672,9.28 -5.672,17.017 0,1.731 0.242,3.38 0.627,4.971 -0.708,1.886 -1.354,3.896 -1.354,6.318 0,1.055 0.103,2.118 0.292,3.188 l -22.149,-18.461 -8.456,9.173 c -15.012,16.223 -31.027,24.769 -47.591,24.769 -27.811,0 -56.727,-28.078 -57.962,-29.303 -0.014,-0.019 -9.389,-9.962 -9.389,-9.962 0,0 -9.375,9.943 -9.389,9.962 -1.235,1.226 -30.152,29.303 -57.961,29.303 -16.562,0 -32.58,-8.546 -47.591,-24.769 l -8.456,-9.173 -24.075,20.066 c 0,0 3.196,8.677 3.196,8.681 1.118,3.039 3.509,10.274 5.615,21.532 -4.273,-2.619 -9.684,-5.853 -16.588,-9.896 0.009,-0.33 0.014,-0.34 0.014,-0.651 3.687,-3.648 4.731,-8.781 4.988,-12.416 1.164,-2.028 1.782,-4.062 1.891,-5.94 -0.081,0.741 -0.147,1.47 -0.147,1.47 l 1.525,-5.755 c 0.58,-1.902 0.874,-3.705 0.874,-5.394 0,-1.693 -0.394,-3.216 -0.983,-4.651 0.375,-2.382 0.546,-4.373 0.551,-4.525 v -0.009 c 0,-0.154 -0.186,-3.019 -0.309,-4.782 0.071,-0.864 0.152,-1.731 0.152,-2.529 0,-5.849 -1.753,-9.544 -3.188,-11.656 C 143.808,14.7 131.223,12.909 129.703,12.75 113.456,11.781 102.255,15.852 95.97,24.809 c -3.596,5.133 -4.812,10.896 -4.812,16.149 0,2.257 0.309,4.331 0.679,6.309 -0.219,0.318 -0.646,0.653 -0.813,0.95 l -1.268,12.268 0.789,-0.817 0.907,2.325 c 0.437,3.896 2.646,6.746 4.912,8.698 0.009,0.423 0.081,1.002 0.081,1.375 0,2.195 -0.214,3.639 -0.428,4.655 -3.226,0.943 -8.451,2.344 -13.007,3.508 -0.494,0.14 -21.762,5.237 -21.762,5.237 l -2.323,0.561 -1.796,1.63 c -31.98,29.762 -39.225,55.752 -39.505,56.842 l -2.337,8.698 c 0,0 1.396,0.378 2.275,0.623 -0.479,2.515 -1.724,8.969 -1.724,8.969 l 2.038,2.955 c 8.532,12.962 34.332,19.273 44.127,21.247 4.623,5.138 9.563,8.833 13.777,11.121 -5.815,22.582 -6.066,56.695 -6.076,58.325 0.029,1.648 0.038,3.216 0.038,4.698 0,19.201 -2.29,24.665 -2.47,25.055 -0.019,0.033 -0.081,0.113 -0.081,0.113 -2.181,3.934 -3.017,7.363 -3.017,10.247 0,0.569 0.299,0.879 0.361,1.401 -0.537,1.4 -1.069,2.816 -1.069,4.332 0,0.854 0.085,1.733 0.266,2.59 l 0.157,0.793 0.399,1.121 c 0,0 0.964,2.423 1.677,4.199 -0.598,4.465 -1.05,9.088 -1.05,14.006 0,25.639 6.793,54.487 7.15,55.979 0.931,3.694 1.226,7.358 1.226,10.503 0,5.141 -0.784,8.859 -0.789,8.917 l -0.167,1.159 -0.943,3.876 H 55.467 v 97.392 h 485.222 v -97.392 h -16.403 c -0.289,-1.534 -0.486,-2.723 -0.539,-3.33 l -0.02,-0.337 -0.071,-0.352 c -0.005,-0.063 -0.637,-3.99 -0.637,-9.265 0,-2.851 0.187,-6.1 0.756,-9.335 0.809,-3.344 7.648,-32.75 7.648,-53.619 0,-3.553 -0.187,-6.859 -0.656,-9.748 -0.181,-1.492 -2.261,-17.078 -6.66,-27.525 2.504,-0.461 5.378,-0.987 5.378,-0.987 l -1.158,-8.541 c -0.033,-0.237 -3.207,-23.738 -3.422,-33.422 l -0.009,-0.463 c 0,0 -5.254,-42.58 -6.29,-50.926 0.428,-0.24 0.855,-0.478 1.33,-0.687 l 2.741,-1.309 c 3.207,-1.454 6.988,-3.727 11.539,-9.363 8.864,-2.233 32.688,-9.121 43.211,-21.083 l 1.524,-1.743 0.498,-2.247 c 0.161,-0.696 0.343,-1.898 0.343,-3.682 0,-1.558 -0.166,-3.61 -0.584,-6.104 0.779,-0.301 2.077,-0.807 2.077,-0.807 z M 444.708,63.86 c 0.671,1.828 1.561,3.668 2.659,5.515 0.573,4.114 2.104,8.333 4.921,11.601 0.015,0.613 0.015,0.734 0.038,1.25 -2.659,1.682 -9.07,5.734 -15.646,9.89 2.12,-11.446 4.547,-18.798 5.676,-21.866 -0.002,-0.003 1.404,-3.819 2.352,-6.39 z m -15.019,294.86 c 0.767,-0.905 1.523,-1.872 2.274,-2.882 0.088,1.266 0.175,2.251 0.257,2.849 -0.062,-0.541 1.235,17.002 1.235,17.002 v -0.009 c 0,0.023 0.043,0.969 0.043,0.969 l -0.161,1.682 c 0,0 -0.114,1.008 -0.171,1.507 -0.011,0.058 -0.119,0.594 -0.144,0.751 -0.97,0.974 -10.065,10.171 -10.065,10.171 0,0 0.407,3.067 0.521,3.881 -1.521,1.438 -2.974,2.822 -3.031,2.884 -0.043,0.023 -1.392,1.184 -1.392,1.184 0.038,-0.033 -0.607,0.365 -0.607,0.365 0.037,-0.032 -5.653,2.766 -5.653,2.766 l -1.683,0.688 -4.236,2.171 c -0.335,0.233 -0.655,0.48 -0.967,0.736 H 337.78 c 3.821,-1.345 8.02,-2.587 12.625,-3.653 35,-7.737 61.682,-22.253 79.284,-43.062 z m -183.941,43.057 c 4.606,1.066 8.804,2.31 12.625,3.653 h -68.42 c -2.23,-2.154 -4.966,-3.313 -7.154,-3.691 -1.891,-0.47 -3.995,-1.249 -5.696,-2.203 l -2.475,-2.413 -1.326,-1.473 c 0,0 -6.1,-6.101 -9.672,-9.678 -0.038,-1.018 -0.124,-1.829 -0.124,-2.982 0,-2.313 0.062,-4.713 0.152,-6.424 l 0.28,-6.095 c 0,0 -0.974,-0.461 -1.696,-0.788 0.497,-4.258 0.907,-9.207 1.23,-14.834 0.984,1.374 1.981,2.674 2.993,3.869 17.604,20.811 44.286,35.327 79.283,43.059 z m -133.765,-0.541 -1.71,-3.098 c -0.333,-0.854 -0.503,-3.202 -0.503,-6.027 0,-2.338 0.128,-5.002 0.38,-7.436 l 1.017,-9.463 -2.271,-0.133 c 0.166,-1.17 2.888,-19.726 2.888,-19.726 2.618,-17.891 2.979,-33.981 2.988,-41.372 0.266,-0.195 0.655,-0.332 0.902,-0.533 -0.366,3.326 -0.152,6.576 -0.152,9.892 0,16.476 3.634,32.058 5.264,37.61 -0.138,-0.531 1.349,4.348 1.349,4.348 2.589,7.768 3.905,13.221 3.905,16.275 0,0.772 -0.081,1.381 -0.247,1.848 -2.124,6.049 -3.715,15.776 -4.588,22.009 h -6.814 c -1.295,-2.256 -2.408,-4.194 -2.408,-4.194 z m 361.225,4.196 c -0.492,-6.332 -1.53,-14.896 -3.699,-21.363 0.199,-4.563 1.164,-14.427 4.274,-20.888 l 0.386,-0.803 0.219,-0.859 c 0.266,-1.036 4.893,-19.373 4.893,-37.729 0.14,-3.592 0.314,-4.76 0.314,-14.922 1.786,21.482 4.113,51.308 6.067,57.037 l 0.397,3.243 c 0.617,4.923 1.174,10.527 1.478,14.888 -2.557,1.203 -4.361,3.146 -5.265,5.289 l -0.735,1.752 0.032,1.91 c 0.011,0.664 0.242,5.473 2.152,10.675 -0.232,0.633 -0.445,1.217 -0.645,1.771 h -9.868 z"
         id="path2594"
         inkscape:connector-curvature="0"
         style="fill:#d7af6b" />
      <path
         d="m 568.6,145.776 1.026,-0.404 c 0,0 -9.672,-25.29 -37.435,-52.755 l -39.52,-8.081 c 0,0 -4.57,-5.729 -2.767,-19.064 0,0 6.024,-4.499 6.591,-10.012 0,0 0.437,-3.667 -2.917,-4.499 0,0 3.818,-11.879 -3.197,-16.024 l 2.869,-2.997 c 0,0 -5.483,-1.96 -8.989,-4.14 -1.145,-0.715 -2.465,-2.062 -6.229,-4.043 -3.715,-1.955 -17.2,-5.632 -20.209,8.86 0,0 -7.838,10.604 -3.311,18.354 0,0 -5.521,4.972 1.188,14.998 0.11,0.166 0.21,0.312 0.313,0.467 0.077,1.153 0.746,8.597 5.201,10.347 0,0 0.451,9.506 0.022,10.51 l -26.402,16.686 c -1.177,9.269 -2,20.308 -2,33.083 0,33.475 5.7,69.351 16.916,106.633 0.053,0.164 5.222,17.357 5.222,41.346 0,17.252 -6.078,39.669 -14.643,56.878 0.301,7.532 0.605,13.743 0.852,15.54 0,0 0.879,11.533 1.297,17.601 0.147,2.338 0.058,2.313 -0.366,6.152 l -1.848,9.438 -2.826,-1.678 -4.922,4.982 0.546,4.054 -6.451,6.128 c -2.027,1.715 -1.848,1.715 -3.614,2.746 -1.801,1.035 -4.546,2.503 -7.073,3.435 -1.373,0.655 -2.783,1.008 -3.725,1.691 -0.716,0.497 -1.573,1.311 -2.15,2.47 h -91.29 c -5.682,3.574 -9.368,6.889 -11.365,8.907 l -9.318,9.345 -9.318,-9.345 c -1.997,-2.021 -5.683,-5.333 -11.366,-8.907 h -92.5 c -0.409,-3.256 -3.607,-3.818 -3.607,-3.818 -4.071,-0.975 -6.836,-2.237 -8.603,-3.235 -2.698,-1.501 -4.503,-4.038 -5.905,-5.506 -4.736,-4.932 -12.019,-12.005 -12.019,-12.005 -0.594,-4.692 -0.152,-13.785 -0.152,-13.785 l -2.257,-1.04 c 1.576,-8.96 2.325,-22.438 2.667,-34.815 -8.139,-16.975 -13.841,-38.523 -13.841,-55.232 0,-23.987 5.169,-41.181 5.222,-41.345 11.216,-37.283 16.916,-73.158 16.916,-106.633 0,-12.941 -0.844,-24.104 -2.045,-33.446 -10.165,-6.477 -27.57,-16.594 -27.57,-16.594 -0.138,-5.146 0.167,-10.146 0.167,-10.146 l 2.57,-1.967 c 2.798,-2.627 2.437,-9.09 2.437,-9.09 2.11,-1.363 1.943,-3.781 1.943,-3.781 l 1.53,-5.765 c 1.762,-5.789 -1.212,-5.302 -1.212,-5.302 0.77,-1.814 1.283,-6.13 1.378,-7.57 0.09,-1.426 -0.318,-4.226 -0.318,-4.226 0.76,-6.981 -1.82,-9.552 -1.82,-9.552 -1.82,-6.819 -11.648,-7.874 -11.648,-7.874 -33.577,-1.991 -29.51,22.299 -26.66,28.919 -4.708,1.064 -3.487,4.855 -3.487,4.855 1.582,3.06 1.819,5.152 1.819,5.152 0.352,3.128 4.698,4.991 4.698,4.991 1.648,14.389 -2.427,18.325 -2.427,18.325 -0.741,0.762 -17.425,5.004 -17.425,5.004 -1.81,0.594 -21.958,5.288 -21.958,5.288 -30.441,28.333 -36.935,52.563 -36.935,52.563 l 1.65,0.456 c -0.442,1.658 -2.565,13.472 -2.565,13.472 7.876,11.97 41.03,17.865 41.03,17.865 8.019,10.76 20.294,14.549 20.294,14.549 -7.81,19.931 -8.014,63.292 -8.014,63.292 0.513,28.559 -3.639,34.232 -3.639,34.232 -3.687,6.612 -0.903,8.493 -0.903,8.493 -2.441,1.748 -1.515,4.232 -1.515,4.232 l 2.418,6.057 c -4.542,26.205 5.753,69.373 5.753,69.373 3.036,11.972 0.465,23.478 0.465,23.478 0,1.372 -2.364,10.433 -2.811,12.133 H 64.512 v 79.292 H 531.644 V 414.48 H 516.91 c -0.922,-4.248 -1.989,-9.462 -2.177,-11.591 0,0 -1.8,-10.66 0.129,-21.639 0,0 9.947,-41.721 6.975,-60.379 0,0 -2.066,-16.362 -6.242,-25.901 -2.403,-6.622 -2.309,-10.218 -2.309,-10.242 l 6.065,-1.126 c 0,0 -3.254,-24.123 -3.487,-34.429 l -6.858,-55.543 c 4.261,-4.159 6.408,-4.492 8.788,-5.736 2.38,-1.244 5.78,-1.853 11.282,-9.744 0,0 30.841,-6.819 41.558,-18.998 -10e-4,0.002 0.86,-3.815 -2.034,-13.376 z M 109.066,414.481 c -2.084,-3.559 -4.883,-8.674 -6.694,-11.924 -2.736,-4.884 -1.216,-18.854 -1.216,-18.854 l -2.855,-0.162 c 0.423,-0.744 1.107,-6.379 4.522,-29.51 3.444,-23.438 2.865,-44.07 2.865,-44.07 0.233,-1.563 2.138,-2.28 2.128,-2.275 3.991,-1.673 3.749,-4.219 3.749,-4.219 l 0.038,-5.025 c 3.719,-2.941 12.118,-24.832 12.118,-24.832 3.368,13.641 0.313,23.473 0.313,23.473 -1.529,4.238 2.114,9.244 2.114,9.244 -5.454,20.752 1.8,46.898 3.311,52.086 0.921,3.996 7.748,19.844 4.86,28.029 -2.879,8.184 -4.86,25.742 -4.86,25.742 2.538,1.04 5.26,1.777 7.921,2.299 l -28.314,-0.002 0,0 z m 387.407,-21.782 c 0,0 -5.017,-1.871 -5.857,0.119 0,0 0.109,5.871 2.869,10.569 0,0 -3.367,8.661 -3.396,9.857 l -1.073,1.234 h -24.782 c 0.193,-0.13 0.317,-0.266 0.358,-0.408 0,0 -0.327,-19.411 -4.204,-28.788 0,0 0.219,-15.563 5.235,-26.019 0,0 8.166,-31.849 2.816,-51.749 0,0 -4.252,-13.221 -3.768,-18.266 l 7.872,-0.096 9.12,-0.047 c 0,0 5.835,16.065 6.8,17.291 0,0 4.622,55.915 6.563,61.605 0.002,0.006 2.71,21.288 1.447,24.698 z"
         id="path2596"
         inkscape:connector-curvature="0" />
      <polygon
         points="311.261,448.336 314.145,448.336 314.145,443.505 303.917,443.505 303.917,448.336 306.781,448.336 306.781,464.745 311.261,464.745 "
         id="polygon2598"
         style="fill:#d7af6b" />
      <path
         d="m 298.297,453.639 -2.029,-3.012 c -0.029,-0.038 -0.109,-0.119 -0.181,-0.209 -0.869,-1.25 -1.05,-1.664 -1.05,-2.291 0,-0.932 0.765,-1.479 2.057,-1.479 0.836,0 1.621,0.147 2.717,0.547 v -3.587 c -1.264,-0.305 -2.456,-0.45 -3.573,-0.45 -3.444,0 -5.572,1.715 -5.572,4.483 0,1.563 0.623,3.222 2.024,5.303 l 0.656,0.964 1.548,2.263 0.508,0.74 c 0.789,1.179 1.154,2.02 1.154,2.713 0,1.145 -1.088,1.872 -2.779,1.872 -0.945,0 -1.919,-0.187 -3.112,-0.548 v 3.641 c 0.941,0.337 2.238,0.518 3.439,0.518 4.153,0 6.903,-2.108 6.903,-5.325 0,-1.093 -0.294,-2.113 -1.012,-3.431 -0.482,-0.969 -0.624,-1.183 -1.698,-2.712 z"
         id="path2600"
         inkscape:connector-curvature="0"
         style="fill:#d7af6b" />
      <path
         d="m 284.026,455.805 c 1.202,-1.264 1.872,-3.102 1.872,-5.035 0,-2.912 -1.477,-5.331 -3.867,-6.318 -1.691,-0.724 -3.135,-0.945 -6.28,-0.945 h -2.969 v 21.24 h 4.347 v -7.292 l 4.475,7.292 h 4.955 l -4.855,-7.227 c 1.286,-0.694 1.671,-1.027 2.322,-1.715 z m -6.76,-0.917 h -0.109 v -8.029 c 1.406,0.033 1.919,0.152 2.613,0.538 1.002,0.617 1.549,1.771 1.549,3.292 -0.001,2.831 -1.336,4.199 -4.053,4.199 z"
         id="path2602"
         inkscape:connector-curvature="0"
         style="fill:#d7af6b" />
      <polygon
         points="334.914,451.581 330.215,451.581 330.215,448.336 335.427,448.336 335.427,443.505 325.773,443.505 325.773,464.745 330.215,464.745 330.215,456.525 334.914,456.525 "
         id="polygon2604"
         style="fill:#d7af6b" />
      <polygon
         points="260.087,451.581 255.389,451.581 255.389,448.336 260.591,448.336 260.591,443.505 250.948,443.505 250.948,464.745 255.389,464.745 255.389,456.525 260.087,456.525 "
         id="polygon2606"
         style="fill:#d7af6b" />
      <polygon
         points="481.068,459.924 475.929,459.924 475.929,443.505 471.497,443.505 471.497,464.745 481.068,464.745 "
         id="polygon2608"
         style="fill:#d7af6b" />
      <rect
         height="21.24"
         width="4.4790001"
         y="443.505"
         x="264.202"
         id="rect2610"
         style="fill:#d7af6b" />
      <polygon
         points="432.381,459.924 427.255,459.924 427.255,443.505 422.809,443.505 422.809,464.745 432.381,464.745 "
         id="polygon2612"
         style="fill:#d7af6b" />
      <path
         d="m 409.631,443.505 -5.521,21.24 h 4.472 l 0.503,-2.204 h 4.665 l 0.494,2.204 h 4.461 l -5.496,-21.24 h -3.578 z m 0,15.202 1.771,-6.854 1.807,6.854 h -3.578 z"
         id="path2614"
         inkscape:connector-curvature="0"
         style="fill:#d7af6b" />
      <polygon
         points="381.618,448.336 384.515,448.336 384.515,443.505 374.292,443.505 374.292,448.336 377.142,448.336 377.142,464.745 381.618,464.745 "
         id="polygon2616"
         style="fill:#d7af6b" />
      <path
         d="m 463.331,446.892 c 0.659,0 1.234,0.233 1.92,0.804 l 2.133,-2.804 c -1.416,-1.164 -2.784,-1.733 -4.413,-1.733 -4.438,0 -6.68,3.64 -6.68,10.988 0,7.313 2.242,10.96 6.68,10.96 1.629,0 2.997,-0.542 4.413,-1.743 l -2.133,-2.808 c -0.686,0.569 -1.261,0.85 -1.92,0.85 -0.902,0 -1.55,-0.546 -1.838,-1.478 -0.438,-1.325 -0.618,-3.249 -0.618,-5.781 0,-3.582 0.365,-5.844 1.098,-6.692 0.307,-0.354 0.822,-0.563 1.358,-0.563 z"
         id="path2618"
         inkscape:connector-curvature="0"
         style="fill:#d7af6b" />
      <path
         d="m 345.959,443.158 c -2.31,0 -4.08,0.986 -5.168,2.863 -1.121,1.919 -1.772,4.903 -1.772,8.124 0,3.188 0.651,6.147 1.772,8.104 1.05,1.861 2.858,2.854 5.168,2.854 2.322,0 4.129,-0.993 5.169,-2.854 1.164,-1.99 1.775,-4.917 1.775,-8.104 0,-3.221 -0.611,-6.133 -1.775,-8.124 -1.041,-1.875 -2.847,-2.863 -5.169,-2.863 z m 0.033,18.246 c -1.7,0 -2.375,-2.198 -2.375,-7.259 0,-5.055 0.707,-7.255 2.342,-7.255 1.663,0 2.381,2.163 2.381,7.255 -10e-4,5.033 -0.718,7.259 -2.348,7.259 z"
         id="path2620"
         inkscape:connector-curvature="0"
         style="fill:#d7af6b" />
      <path
         d="m 363.944,443.158 c -2.309,0 -4.086,0.986 -5.184,2.863 -1.111,1.919 -1.767,4.903 -1.767,8.124 0,3.188 0.654,6.147 1.767,8.104 1.063,1.861 2.875,2.854 5.184,2.854 2.306,0 4.114,-0.993 5.155,-2.854 1.158,-1.99 1.776,-4.917 1.776,-8.104 0,-3.221 -0.618,-6.133 -1.776,-8.124 -1.04,-1.875 -2.849,-2.863 -5.155,-2.863 z m 0.025,18.246 c -1.692,0 -2.39,-2.198 -2.39,-7.259 0,-5.055 0.729,-7.255 2.364,-7.255 1.658,0 2.381,2.163 2.381,7.255 0.002,5.033 -0.721,7.259 -2.355,7.259 z"
         id="path2622"
         inkscape:connector-curvature="0"
         style="fill:#d7af6b" />
      <polygon
         points="446.071,459.924 440.941,459.924 440.941,443.505 436.49,443.505 436.49,464.745 446.071,464.745 "
         id="polygon2624"
         style="fill:#d7af6b" />
      <polygon
         points="116.621,448.336 121.581,448.336 121.581,443.505 112.175,443.505 112.175,464.745 121.761,464.745 121.761,459.952 116.621,459.952 116.621,456.402 121.324,456.402 121.324,451.577 116.621,451.577 "
         id="polygon2626"
         style="fill:#d7af6b" />
      <path
         d="m 398.268,453.485 c 1.854,-1.269 2.65,-2.654 2.65,-4.518 0,-1.991 -1.131,-3.77 -2.897,-4.571 -1.492,-0.707 -2.604,-0.893 -5.354,-0.893 h -4.042 v 21.24 h 4.042 c 2.789,0 4.295,-0.237 5.748,-0.937 1.953,-0.937 3.255,-3.007 3.255,-5.269 0,-2.366 -1.056,-3.943 -3.402,-5.052 z m -5.311,-6.837 c 2.542,0.058 3.544,0.805 3.544,2.589 0,1.846 -1.083,2.742 -3.396,2.742 h -0.146 l -0.002,-5.331 0,0 z m 0,14.91 v -6.446 c 1.411,0.058 1.839,0.151 2.542,0.489 0.974,0.47 1.614,1.524 1.614,2.67 0,2.042 -1.439,3.171 -4.156,3.287 z"
         id="path2628"
         inkscape:connector-curvature="0"
         style="fill:#d7af6b" />
      <path
         d="m 511.91,453.485 c 1.848,-1.269 2.633,-2.654 2.633,-4.518 0,-1.991 -1.111,-3.77 -2.886,-4.571 -1.485,-0.707 -2.598,-0.893 -5.356,-0.893 h -4.033 v 21.24 h 4.033 c 2.798,0 4.304,-0.237 5.758,-0.937 1.941,-0.937 3.248,-3.007 3.248,-5.269 -10e-4,-2.366 -1.04,-3.943 -3.397,-5.052 z m -5.306,-6.837 c 2.532,0.058 3.53,0.805 3.53,2.589 0,1.846 -1.074,2.742 -3.394,2.742 h -0.138 l 0.002,-5.331 0,0 z m 0,14.91 v -6.446 c 1.401,0.058 1.829,0.151 2.532,0.489 0.969,0.47 1.62,1.524 1.62,2.67 0,2.042 -1.449,3.171 -4.152,3.287 z"
         id="path2630"
         inkscape:connector-curvature="0"
         style="fill:#d7af6b" />
      <path
         d="m 238.06,453.639 -2.029,-3.017 c -0.042,-0.033 -0.119,-0.124 -0.19,-0.22 -0.864,-1.24 -1.045,-1.648 -1.045,-2.285 0,-0.922 0.765,-1.479 2.057,-1.479 0.836,0 1.62,0.157 2.708,0.557 v -3.587 c -1.264,-0.305 -2.446,-0.461 -3.572,-0.461 -3.439,0 -5.563,1.715 -5.563,4.494 0,1.563 0.618,3.217 2.024,5.288 l 0.655,0.969 1.554,2.257 0.503,0.756 c 0.789,1.174 1.149,2.015 1.149,2.708 0,1.146 -1.083,1.866 -2.779,1.866 -0.936,0 -1.919,-0.186 -3.107,-0.542 v 3.641 c 0.941,0.332 2.233,0.521 3.43,0.521 4.161,0 6.902,-2.113 6.902,-5.325 0,-1.098 -0.285,-2.118 -1.007,-3.431 -0.47,-0.977 -0.617,-1.186 -1.69,-2.71 z"
         id="path2632"
         inkscape:connector-curvature="0"
         style="fill:#d7af6b" />
      <polygon
         points="95.092,464.745 99.548,464.745 99.548,456.525 103.59,456.525 103.59,464.745 108.075,464.745 108.075,443.505 103.59,443.505 103.59,451.577 99.548,451.577 99.548,443.505 95.092,443.505 "
         id="polygon2634"
         style="fill:#d7af6b" />
      <polygon
         points="88.199,448.336 91.083,448.336 91.083,443.505 80.85,443.505 80.85,448.336 83.719,448.336 83.719,464.745 88.199,464.745 "
         id="polygon2636"
         style="fill:#d7af6b" />
      <polygon
         points="136.782,443.505 132.298,443.505 136.782,464.745 140.607,464.745 142.916,452.607 145.229,464.745 149.063,464.745 153.543,443.505 149.101,443.505 146.858,455.976 144.616,443.505 141.219,443.505 138.982,455.976 "
         id="polygon2638"
         style="fill:#d7af6b" />
      <path
         d="m 213.623,444.293 c -1.663,-0.604 -3.031,-0.788 -6.356,-0.788 h -1.843 v 21.24 h 1.843 c 3.406,0 4.874,-0.19 6.356,-0.784 1.235,-0.479 2.28,-1.272 2.955,-2.199 1.454,-1.934 2.247,-4.637 2.247,-7.615 0,-4.91 -1.981,-8.667 -5.202,-9.854 z m -0.29,15.026 c -0.247,0.574 -0.684,1.088 -1.192,1.406 -0.608,0.37 -1.074,0.503 -2.271,0.607 V 446.91 c 1.905,0.185 2.888,0.755 3.463,2.048 0.589,1.269 0.94,3.221 0.94,5.188 0.001,1.916 -0.351,3.853 -0.94,5.173 z"
         id="path2640"
         inkscape:connector-curvature="0"
         style="fill:#d7af6b" />
      <path
         d="m 493.678,458.118 c 0,1.453 -0.038,1.934 -0.333,2.418 -0.28,0.531 -0.94,0.868 -1.695,0.868 -1.126,0 -1.839,-0.665 -1.962,-1.748 -0.028,-0.39 -0.058,-0.868 -0.058,-1.538 v -14.613 h -4.452 v 15.882 c 0,3.705 2.276,5.72 6.472,5.72 4.189,0 6.503,-2.015 6.503,-5.72 v -15.882 h -4.475 v 14.613 l 0,0 z"
         id="path2642"
         inkscape:connector-curvature="0"
         style="fill:#d7af6b" />
      <polygon
         points="222.953,443.505 222.696,451.04 225.257,451.04 227.599,444.061 227.599,443.505 "
         id="polygon2644"
         style="fill:#d7af6b" />
      <polygon
         points="201.318,459.924 196.178,459.924 196.178,443.505 191.742,443.505 191.742,464.745 201.318,464.745 "
         id="polygon2646"
         style="fill:#d7af6b" />
      <path
         d="m 162.82,443.158 c -2.309,0 -4.071,0.986 -5.164,2.863 -1.122,1.919 -1.777,4.903 -1.777,8.124 0,3.188 0.655,6.147 1.777,8.104 1.05,1.861 2.855,2.854 5.164,2.854 2.309,0 4.119,-0.993 5.173,-2.854 1.159,-1.99 1.767,-4.917 1.767,-8.104 0,-3.221 -0.608,-6.133 -1.767,-8.124 -1.055,-1.875 -2.864,-2.863 -5.173,-2.863 z m 0.043,18.246 c -1.701,0 -2.39,-2.198 -2.39,-7.259 0,-5.055 0.727,-7.255 2.347,-7.255 1.663,0 2.385,2.163 2.385,7.255 0,5.033 -0.722,7.259 -2.342,7.259 z"
         id="path2648"
         inkscape:connector-curvature="0"
         style="fill:#d7af6b" />
      <path
         d="m 185.1,455.805 c 1.192,-1.264 1.881,-3.102 1.881,-5.035 0,-2.912 -1.497,-5.331 -3.881,-6.318 -1.696,-0.724 -3.135,-0.945 -6.285,-0.945 h -2.959 v 21.24 h 4.347 v -7.292 l 4.479,7.292 h 4.945 l -4.85,-7.227 c 1.268,-0.694 1.668,-1.027 2.323,-1.715 z m -6.764,-0.917 h -0.104 v -8.029 c 1.411,0.033 1.915,0.152 2.604,0.538 1.012,0.617 1.548,1.771 1.548,3.292 -10e-4,2.831 -1.331,4.199 -4.048,4.199 z"
         id="path2650"
         inkscape:connector-curvature="0"
         style="fill:#d7af6b" />
      <path
         d="m 508.235,117.062 c 0,0 -0.053,0.157 -0.113,0.427 -0.356,1.401 -1.35,6.081 0.171,10.05 0.1,0.288 0.688,1.729 0.944,2.95 -20.789,-5.644 -41.416,6.644 -36.901,33.161 0,0 -2.799,11.544 -3.174,14.093 0,0 -11.013,0.784 -16.109,3.337 0,0 7.069,-14.725 11.781,-16.691 0,0 -11.179,0 -16.488,2.744 0,0 -3.093,-56.021 44.859,-77.698 0,0 14.944,3.625 35.249,7.594 0,0 1.776,3.154 0.395,5.703 0,0 3.131,-1.771 3.715,-1.771 0,0 21.811,28.667 23.396,39.857 0,0 -15.32,-0.186 -21.018,5.705 0,0 3.796,-7.463 9.807,-9.826 0,0 -10.429,0.042 -14.912,4.912 0,0 1.249,-6.401 2.939,-8.439 0,0 -4.252,1.002 -7.269,3.143 0,0 -2.76,-9.817 -8.242,-14.724 0,0 7.468,-11.39 6.879,-13.554 0,0 -5.924,2.024 -10.917,11.266 10e-4,-0.002 -1.952,-1.177 -4.992,-2.239"
         id="path2652"
         inkscape:connector-curvature="0"
         style="fill:#c52443" />
      <path
         d="m 469.189,186.902 c 0,0 -2.332,33.537 26.633,31.947 l -14.275,60.874 c 0,0 -22.38,-31.885 -16.232,-77.317 0,0 -6.727,13.432 -10.317,25.952 0,0 -3.373,-14.292 7.063,-38.132"
         id="path2654"
         inkscape:connector-curvature="0"
         style="fill:#c52443" />
      <path
         d="m 516.074,321.557 c 0,0 2.322,27.363 -4.975,52.07 0,0 2.147,-32.75 -7.116,-54.215"
         id="path2656"
         inkscape:connector-curvature="0"
         style="fill:#c52443" />
      <path
         d="m 516.511,141.128 -5.635,-0.42 c 0,0 -3.055,-3.779 -10.004,-5.831 v -1.475 c 10e-4,-10e-4 11.05,-0.404 15.639,7.726"
         id="path2658"
         inkscape:connector-curvature="0"
         style="fill:#ffffff" />
      <path
         d="m 491.201,140.674 c -0.119,0.594 -1.573,7.919 -1.765,8.897 0.898,0.516 7.222,4.202 7.806,4.535 0.89,-0.375 7.658,-3.152 8.613,-3.551 0.612,-1.883 0.821,-4.004 0.821,-5.494 0,-1.143 -0.076,-1.941 -0.085,-2.012 -2.618,-2.719 -8.632,-4.734 -8.693,-4.757 -3.519,0.204 -6.27,2.076 -6.697,2.382"
         id="path2660"
         inkscape:connector-curvature="0"
         style="fill:#ffffff" />
      <path
         d="m 486.843,140.285 c 0,0 -1.978,6.057 -1.786,10.318 0,0 -4.247,1.917 -7.098,5 0,0 -3.549,-10.199 5.614,-16.033"
         id="path2662"
         inkscape:connector-curvature="0"
         style="fill:#ffffff" />
      <path
         d="m 498.669,158.247 c 0,0 -2.557,4.712 -4.29,10.112 0,0 15.221,3.556 22.479,-9.996 l -8.143,-4.311 c 0,0 -4.646,1.453 -10.046,4.195"
         id="path2664"
         inkscape:connector-curvature="0"
         style="fill:#ffffff" />
      <path
         d="m 560.04,146.085 c 0,0 -14.906,-1.002 -24.241,6.886 -1.535,1.216 -2.285,2.38 -3.848,3.639 -1.658,1.406 -4.016,3.085 -4.016,3.085 l -9.653,6.884 c 0,0 4.907,0.86 7.588,2.675 0,0 24.584,-3.245 36.825,-13.68 0,0 -0.67,-5.657 -2.655,-9.489"
         id="path2666"
         inkscape:connector-curvature="0"
         style="fill:#ffffff" />
      <path
         d="m 515.964,168.85 c 0,0 2.665,3.658 5.849,5.629 0,0 -1.036,4.484 -4.347,6.157 -0.651,0.333 -5.924,2.617 -5.487,-0.855 0.152,-1.152 -1.307,-1.653 -2.788,-1.572 -0.685,0.031 -1.255,-0.154 -1.196,-0.836 0.128,-1.449 -1.185,-2.354 -2.827,-2.131 -0.708,0.103 -2.813,0.793 -3.431,-0.981 0,0 -0.778,-2.185 3.867,-3.727 0,0 4.859,-1.684 10.36,-1.684"
         id="path2668"
         inkscape:connector-curvature="0"
         style="fill:#ffffff" />
      <path
         d="m 469.632,64.136 7.672,0.71 0.176,2.798 c 0,0 -5.938,-2.468 -7.506,0.499 l 1.615,1.232 c 0,0 -2.6,1.143 -2.675,3 0,0 -0.504,4.506 5.625,2.91 0,0 9.034,-2.501 11.695,-11.548 0,0 1.082,-5.05 -4.607,-2.501 0,0 -1.691,-2.437 3.33,-6.021 0,0 4.322,-3.036 4.58,-7.302 0.118,-2.37 -0.2,-8.893 -4.129,-9.292 0,0 -4.434,-0.163 -6.736,4.359 0,0 4.606,1.62 6.193,5.147 l -2.851,0.167 c 0,0 -2.394,2.786 -5.99,2.042 -2.654,-0.613 -3.435,-3.644 -4.893,-3.629 0,0 -2.527,0.083 -2.509,5.223 0,0 0.091,5.473 -0.707,6.47 0,0 1.78,2.447 7.268,0.919 0,0 -2.052,2.399 -4.503,2.765 0.002,0 -1.095,0.802 -1.048,2.052"
         id="path2670"
         inkscape:connector-curvature="0"
         style="fill:#ffffff" />
      <path
         d="m 99.089,90.171 c 0,0 38.55,14.371 45.833,79.185 0,0 -6.875,-3.629 -13.739,-2.827 0,0 6.864,4.646 9.909,15.563 0,0 -5.254,-1.425 -15.363,-2.637 0,0 1.031,-10.843 -0.983,-12.881 0,0 7.463,-19.964 -8.275,-31.693 0,0 -12.712,-10.085 -30.085,-1.411 0,0 5.221,-11.558 0.166,-20.247 0,0 -0.784,6.66 -2.199,7.872 0,0 -5.264,-12.114 -13.131,-13.121 0,0 5.454,4.042 6.874,14.546 0,0 -5.054,3.021 -9.102,13.109 0,0 -3.435,-2.414 -6.247,-2.623 0,0 2.613,3.435 2.404,9.706 0,0 -8.865,-6.874 -15.743,-6.071 0,0 7.069,3.031 11.515,11.306 0,0 -11.107,-6.456 -18.983,-4.846 0,0 13.524,1.625 22.831,12.931 0,0 6.655,6.658 14.727,10.896 0,0 -6.855,3.041 -9.288,5.463 l -5.862,-1.216 c 0,0 1.012,-3.639 3.833,-6.057 0,0 -7.259,3.031 -9.496,4.238 0,0 -23.406,-5.036 -26.622,-14.34 0,0 7.216,-27.251 31.244,-54.507 0,0 3.634,0.271 3.843,2.423 0,0 0.171,-4.224 2.708,-5.704"
         id="path2672"
         inkscape:connector-curvature="0"
         style="fill:#2067b2" />
      <path
         d="m 97.118,312.742 c 0,0 -9.216,-0.326 -14.19,-3.244 0,0 -6.794,23.878 2.608,69.244 0,0 -1.121,-46.678 11.582,-66"
         id="path2674"
         inkscape:connector-curvature="0"
         style="fill:#2067b2" />
      <path
         d="m 116.139,36.315 c 4.347,-1.594 13.567,-3.844 22.574,1.335 0,0 -1.458,5.915 -10.161,4.921 0,-10e-4 -8.451,-0.808 -12.413,-6.256"
         id="path2676"
         inkscape:connector-curvature="0"
         style="fill:#2067b2" />
      <path
         d="m 114.495,48.856 c 5.435,4.85 10.898,-1.518 10.898,-1.518 1.591,0.979 1.316,5.098 1.962,7.501 0.746,2.886 0.342,4.237 0.342,4.237 -3.041,1.479 -7.387,-0.677 -7.387,-0.677 l -0.299,0.39 1.216,0.9 c -0.299,1.05 -1.368,1.356 -1.368,1.356 -7.411,2.618 -4.238,7.435 -4.238,7.435 1.368,-1.971 3.644,-2.506 3.644,-2.506 4.608,0.53 5.672,-0.687 5.672,-0.687 2.484,2.043 0.218,3.406 0.218,3.406 -2.494,-0.009 -1.648,1.29 -1.648,1.29 0.622,0.791 2.698,1.083 2.693,3.501 -0.062,1.972 -1.416,2.784 -1.416,2.784 -4.228,2.563 -9.71,-3.634 -9.71,-3.634 -6.028,-5.917 -6.028,-9.686 -6.028,-9.686 0,-3.036 4.964,-1.663 4.964,-1.663 1.202,-2.359 -1.492,-4.093 -1.492,-4.093 -4.147,-2.729 -5.772,-6.059 -5.772,-6.059 -0.969,-7.394 2.699,-10.806 3.041,-11.053 3.064,-2.413 6.959,3.321 6.959,3.321 -9.696,4.864 -4.831,5.605 -4.831,5.605 0,0 1.469,0.221 2.58,-0.15"
         id="path2678"
         inkscape:connector-curvature="0"
         style="fill:#ffffff" />
      <path
         d="m 126.149,185.313 c 0,0 1.207,35.947 -26.883,34.527 0,0 -18.964,43.213 -7.458,69.867 0,0 -8.066,-2.422 -9.881,-8.274 0,0 -3.04,22.408 17.164,23.021 0,0 -5.254,-4.854 -5.449,-6.664 0,0 8.161,2.755 14.228,-1.896 l -1.929,-3.354 c 0,0 29.491,-43.211 23.853,-90.47 0,0 9.273,9.492 11.501,29.081 0,0 5.568,-19.708 -6.267,-40.591 -0.001,0 -3.982,-3.541 -8.879,-5.247"
         id="path2680"
         inkscape:connector-curvature="0"
         style="fill:#ffffff" />
      <path
         d="m 74.486,177.135 c 0,0 1.083,-6.591 10.024,-6.368 0,0 15.216,0.812 18.926,8.644 0,0 1.093,2.724 -2.418,2.724 -3.544,0 -7.444,-4.392 -7.444,-4.392 -0.76,-0.691 -3.321,-2.855 -3.834,0.72 -0.085,0.58 -0.133,2.812 -4.323,2.617 0,0 0.998,3.307 -2.599,3.936 0,0 -3.382,0.603 -5.896,-3.494 0.001,-0.001 -2.783,-1.926 -2.436,-4.387"
         id="path2682"
         inkscape:connector-curvature="0"
         style="fill:#ffffff" />
      <path
         d="m 91.897,180.636 c 0,0 4.228,2.575 5.435,3.342 0,0 -1.482,3.173 -6.798,-0.915"
         id="path2684"
         inkscape:connector-curvature="0"
         style="fill:#ffffff" />
      <path
         d="m 81.99,152.827 c 0.314,0.835 0.833,1.932 1.657,3.086 2.623,-11.401 8.907,-17.483 13.974,-20.551 -4.938,0.682 -15.614,3.624 -16.006,16.287 0.006,0.024 0.007,0.035 0.014,0.061 0.069,0.268 0.184,0.65 0.361,1.117 z"
         id="path2686"
         inkscape:connector-curvature="0"
         style="fill:#d7af6b" />
      <path
         d="m 105.364,135.792 c -0.577,0.132 -15.159,3.873 -18.627,23.366 0.361,0.289 1.655,1.29 3.204,2.019 7.328,-14.611 15.512,-21.359 20.155,-24.075 -1.361,-0.576 -2.887,-1.051 -4.594,-1.39 l -0.025,0.056 -0.113,0.024 z"
         id="path2688"
         inkscape:connector-curvature="0"
         style="fill:#d7af6b" />
      <path
         d="m 93.436,162.028 c 3.274,0.786 6.587,0.959 10.054,0.963 6.583,-11.384 12.287,-16.361 15.556,-18.324 -1.055,-1.7 -2.652,-3.658 -5.005,-5.357 -2.335,1.168 -12.018,6.765 -20.605,22.718 z"
         id="path2690"
         inkscape:connector-curvature="0"
         style="fill:#d7af6b" />
      <path
         d="m 104.012,166.643 c -0.871,0.041 -1.721,0.062 -2.552,0.062 -6.41,0 -11.667,-1.216 -15.714,-3.622 3.49,4.5 9.75,9.014 20.489,7.641 -0.153,-0.265 -0.309,-0.536 -0.466,-0.812 -0.783,-1.398 -1.545,-2.695 -1.757,-3.269 z"
         id="path2692"
         inkscape:connector-curvature="0"
         style="fill:#d7af6b" />
      <path
         d="m 107.355,164.02 c -0.126,0.128 -0.178,0.223 -0.243,0.296 0.423,0.756 2.006,3.551 3.052,5.681 0.467,-0.112 0.928,-0.215 1.41,-0.348 0,0 2.631,-0.778 5.248,-2.965 -0.846,-4.135 -2.974,-8.331 -3.959,-10.627 -0.929,1.391 -4.356,6.514 -5.508,7.963 z"
         id="path2694"
         inkscape:connector-curvature="0"
         style="fill:#d7af6b" />
      <path
         d="m 114.987,153.028 c 1.367,2.122 3.582,5.937 4.837,10.247 2.017,-3.199 3.097,-7.84 1.104,-14.446 0,0 -0.075,-0.313 -0.262,-0.837 -1.576,0.891 -3.844,2.484 -5.679,5.036 z"
         id="path2696"
         inkscape:connector-curvature="0"
         style="fill:#d7af6b" />
      <path
         d="m 298.078,49.365 c -1.459,1.548 -2.621,2.781 -2.765,2.935 l -0.117,0.125 -0.137,0.137 c -1.314,1.304 -32.544,31.927 -64.332,31.927 -18.994,0 -37.24,-9.31 -54.23,-27.671 l -2.635,-2.859 -12.564,10.472 c 0.763,2.077 1.149,3.169 1.346,3.914 -0.089,-0.413 -0.207,-0.82 -0.354,-1.219 2.363,6.422 10.072,30.445 10.072,69.938 0,34.328 -5.82,71.081 -17.299,109.239 -0.058,0.193 -4.838,16.367 -4.838,38.74 0,21.559 10.817,53.258 23.148,67.835 16.322,19.296 41.33,32.776 74.328,40.067 l 0.044,0.01 0.044,0.011 c 27.638,6.396 42.359,18.96 47.405,24.063 l 2.886,2.896 2.913,-2.922 c 5.021,-5.076 19.74,-17.64 47.378,-24.036 l 0.044,-0.011 0.045,-0.01 c 32.998,-7.291 58.006,-20.771 74.327,-40.067 12.332,-14.577 23.147,-46.276 23.147,-67.835 0,-22.373 -4.78,-38.547 -4.828,-38.708 -11.488,-38.19 -17.31,-74.943 -17.31,-109.271 0,-39.493 7.709,-63.516 10.072,-69.938 -0.147,0.398 -0.266,0.806 -0.354,1.219 0.197,-0.745 0.584,-1.837 1.347,-3.914 L 422.298,53.96 419.674,56.807 C 402.671,75.18 384.426,84.49 365.432,84.49 333.647,84.49 302.412,53.867 301.1,52.563 l -0.123,-0.122 -0.133,-0.143 c -0.147,-0.155 -1.308,-1.387 -2.766,-2.933 l 0,0 z"
         id="path2698"
         inkscape:connector-curvature="0" />
      <path
         d="m 298.078,55.937 c -1.287,1.255 -9.414,9.033 -20.927,16.637 -16.515,10.908 -32.134,16.438 -46.424,16.438 -20.202,0 -39.47,-9.697 -57.274,-28.825 l -6.81,5.676 c 2.547,7.018 10.241,31.543 10.241,71.201 0,34.771 -5.885,71.961 -17.491,110.542 l -0.014,0.045 c -0.188,0.644 -4.633,16.15 -4.633,37.392 0,20.677 10.317,51.011 22.078,64.914 15.668,18.521 39.842,31.5 71.85,38.572 l 0.066,0.016 0.066,0.015 c 27.301,6.319 42.489,18.206 49.271,24.958 6.783,-6.752 21.969,-18.639 49.27,-24.958 l 0.065,-0.015 0.065,-0.016 c 32.01,-7.072 56.185,-20.051 71.852,-38.572 11.762,-13.903 22.077,-44.237 22.077,-64.914 0,-21.244 -4.444,-36.751 -4.633,-37.392 l -0.014,-0.045 c -11.606,-38.581 -17.491,-75.771 -17.491,-110.542 0,-39.658 7.694,-64.183 10.241,-71.201 l -6.811,-5.676 c -17.815,19.135 -37.077,28.825 -57.272,28.825 -14.29,0 -29.909,-5.531 -46.425,-16.438 -11.507,-7.603 -19.637,-15.383 -20.923,-16.637 l 0,0 z"
         id="path2700"
         inkscape:connector-curvature="0"
         style="fill:#d7af6b" />
      <path
         d="m 428.482,250.12 c -11.864,-39.444 -17.863,-77.477 -17.863,-113.056 0,-22.736 2.396,-40.607 5.075,-53.477 l 1.201,-5.791 -4.759,3.509 c -14.834,10.926 -30.407,16.352 -46.709,16.358 -27.224,0.059 -53.264,-18.18 -65.898,-28.8 l -1.452,-1.214 -1.452,1.214 c -12.635,10.62 -38.676,28.859 -65.898,28.8 -16.306,-0.006 -31.881,-5.435 -46.709,-16.354 l -4.758,-3.505 1.201,5.788 c 2.678,12.869 5.077,30.736 5.077,53.47 0,35.579 -6,73.612 -17.856,113.028 -0.232,0.814 -4.279,15.225 -4.281,34.951 0.092,18.645 9.49,46.707 20.03,59.326 14.521,17.156 37.18,29.097 67.112,35.711 l 0.121,0.025 0.099,0.024 c 21.968,5.087 36.759,13.651 45.935,20.728 l 1.381,1.065 1.381,-1.065 c 9.176,-7.074 23.965,-15.641 45.937,-20.729 l 0.115,-0.025 0.099,-0.021 c 29.938,-6.615 52.597,-18.555 67.116,-35.713 10.541,-12.619 19.94,-40.682 20.033,-59.326 -0.006,-19.725 -4.053,-34.135 -4.278,-34.921 z"
         id="path2702"
         inkscape:connector-curvature="0" />
      <path
         d="m 183.431,204.833 h 229.293 c 2.881,15.271 6.682,30.812 11.419,46.563 0.045,0.156 0.498,1.77 1.087,4.529 H 170.925 c 0.591,-2.768 1.047,-4.391 1.096,-4.558 4.733,-15.738 8.531,-31.269 11.41,-46.534 z"
         id="path2704"
         inkscape:connector-curvature="0"
         style="fill:#ffffff" />
      <path
         d="m 170.05,260.45 c -1.051,6.015 -2.129,14.613 -2.127,24.593 -0.092,17.146 9.458,45.328 18.961,56.404 13.656,16.149 35.323,27.74 64.632,34.215 l 0.138,0.033 0.123,0.025 c 21.579,4.993 36.596,13.301 46.299,20.509 V 260.45 H 170.05 z"
         id="path2706"
         inkscape:connector-curvature="0"
         style="fill:#c52443" />
      <path
         d="m 406.094,137.063 c 0,-19.994 1.83,-36.325 4.102,-48.892 -14.133,9.283 -29.155,14.022 -44.768,14.017 -28.19,-0.059 -53.874,-17.669 -67.351,-28.658 v 126.78 h 113.808 c -3.846,-21.713 -5.791,-42.859 -5.791,-63.247 z"
         id="path2708"
         inkscape:connector-curvature="0"
         style="fill:#c52443" />
      <polygon
         points="328.92,241.721 321.42,241.721 321.42,213.688 314.955,213.688 314.955,247.132 327.566,247.132 "
         id="polygon2710" />
      <polygon
         points="363.125,213.643 363.125,247.102 369.609,247.102 369.609,231.764 375.105,231.764 376.469,226.375 369.609,226.375 369.609,219.105 375.837,219.105 377.215,213.643 "
         id="polygon2712" />
      <path
         d="m 345.433,214.914 c -2.44,-0.945 -4.44,-1.226 -9.282,-1.226 h -2.703 v 33.444 h 2.703 c 4.96,0 7.126,-0.288 9.282,-1.233 1.791,-0.767 3.316,-1.993 4.333,-3.463 2.09,-3.045 3.254,-7.307 3.254,-12 0,-7.739 -2.892,-13.665 -7.587,-15.522 z m -0.422,23.67 c -0.371,0.91 -0.998,1.717 -1.734,2.233 -0.912,0.575 -1.601,0.76 -3.319,0.964 v -22.732 c 2.798,0.285 4.218,1.186 5.055,3.214 0.845,1.991 1.382,5.079 1.382,8.174 -0.002,3.035 -0.54,6.057 -1.384,8.147 z"
         id="path2714"
         inkscape:connector-curvature="0" />
      <rect
         height="7.1570001"
         width="6.322"
         y="239.94501"
         x="375.48099"
         id="rect2716" />
      <path
         d="m 395.624,218.966 c 0.939,0 1.786,0.382 2.789,1.283 l 3.092,-4.416 c -2.047,-1.853 -4.042,-2.748 -6.427,-2.748 -6.461,0 -9.734,5.729 -9.734,17.307 0,11.534 3.273,17.28 9.734,17.28 2.385,0 4.38,-0.855 6.427,-2.743 l -3.092,-4.414 c -1.003,0.886 -1.85,1.318 -2.789,1.318 -1.32,0 -2.275,-0.85 -2.708,-2.33 -0.632,-2.076 -0.883,-5.121 -0.883,-9.111 0,-5.642 0.521,-9.203 1.571,-10.525 0.47,-0.561 1.227,-0.901 2.02,-0.901 z"
         id="path2718"
         inkscape:connector-curvature="0" />
      <rect
         height="7.1570001"
         width="6.3330002"
         y="239.94501"
         x="406.103"
         id="rect2720" />
      <rect
         height="33.458"
         width="6.5219998"
         y="213.64301"
         x="285.84299"
         id="rect2722" />
      <polygon
         points="237.316,219.105 242.903,219.105 244.523,213.643 230.837,213.643 230.837,247.102 244.789,247.102 244.789,241.684 237.316,241.684 237.316,231.764 242.779,231.764 244.167,226.375 237.316,226.375 "
         id="polygon2724" />
      <polygon
         points="303.311,219.135 309.182,219.135 310.545,213.688 296.817,213.688 296.817,247.132 310.802,247.132 310.802,241.721 303.311,241.721 303.311,231.807 308.793,231.807 310.166,226.399 303.311,226.399 "
         id="polygon2726" />
      <polygon
         points="207.407,247.102 213.896,247.102 213.896,231.579 219.787,231.579 219.787,247.102 226.328,247.102 226.328,213.643 219.787,213.643 219.787,226.18 213.896,226.18 213.896,213.643 207.407,213.643 "
         id="polygon2728" />
      <polygon
         points="255.496,247.102 255.496,231.764 260.974,231.764 262.342,226.375 255.496,226.375 255.496,219.105 261.729,219.105 263.092,213.643 249.021,213.643 249.021,247.102 "
         id="polygon2730" />
      <polygon
         points="273.943,247.102 273.943,231.764 279.43,231.764 280.789,226.375 273.943,226.375 273.943,219.105 280.162,219.105 281.525,213.643 267.463,213.643 267.463,247.102 "
         id="polygon2732" />
      <path
         d="m 199.183,229.583 -2.959,-4.737 c -0.038,-0.06 -0.152,-0.19 -0.271,-0.326 -1.259,-1.952 -1.54,-2.613 -1.54,-3.615 0,-1.466 1.121,-2.321 3.036,-2.321 1.192,0 2.361,0.228 3.938,0.854 l 1.173,-5.223 c -1.857,-0.473 -4.755,-1.133 -6.375,-1.133 -5.036,0 -8.142,2.708 -8.142,7.066 0,2.463 0.917,5.073 2.974,8.345 l 0.936,1.518 2.266,3.561 0.741,1.192 c 1.159,1.848 1.687,3.181 1.687,4.261 0,1.819 -1.601,2.943 -4.066,2.943 -1.373,0 -2.784,-0.287 -4.537,-0.848 v 5.731 c 1.373,0.529 3.282,0.817 5.026,0.817 6.057,0 10.067,-3.313 10.067,-8.396 0,-1.717 -0.423,-3.328 -1.478,-5.409 -0.694,-1.505 -0.889,-1.847 -2.476,-4.28 z"
         id="path2734"
         inkscape:connector-curvature="0" />
      <path
         d="m 203.211,141.487 v 5.43 c 1.25,-0.618 2.738,-1.612 3.801,-2.576 l 0.378,-0.346 v 25.399 l 6.194,-0.002 v -35.539 h -3.648 c -1.2,3.027 -3.773,5.911 -6.725,7.634 z"
         id="path2736"
         inkscape:connector-curvature="0"
         style="fill:#d7af6b" />
      <path
         d="m 238.467,160.434 c -0.008,-3.756 -1.407,-6.307 -5.225,-9.528 l -0.207,-0.173 0.207,-0.174 c 1.069,-0.9 1.374,-1.188 1.994,-1.875 1.629,-1.868 2.504,-4.186 2.504,-6.479 -0.008,-4.894 -3.784,-8.342 -9.209,-8.352 -5.368,0.006 -9.305,3.572 -9.307,8.301 -0.002,2.918 1.79,6.078 4.935,8.562 l 0.241,0.19 -0.253,0.175 c -3.757,2.58 -5.762,5.921 -5.764,9.602 0.008,5.497 4.17,9.301 10.197,9.313 6.101,-0.017 9.871,-3.696 9.887,-9.562 z m -9.988,-21.66 c 2.108,0.004 3.727,1.488 3.731,3.431 0,1.703 -0.958,3.18 -3.133,5.033 l -0.118,0.1 -0.135,-0.073 c -2.396,-1.274 -3.857,-3.176 -3.864,-5.111 0.005,-1.928 1.51,-3.376 3.519,-3.38 z m -0.052,26.05 c -2.292,-0.004 -3.919,-1.727 -3.923,-4.141 0.002,-2.21 1.347,-4.337 3.837,-6.25 l 0.145,-0.112 0.139,0.119 c 2.684,2.259 3.701,3.898 3.696,6.092 -0.004,2.511 -1.606,4.288 -3.894,4.292 z"
         id="path2738"
         inkscape:connector-curvature="0"
         style="fill:#d7af6b" />
      <path
         d="m 260.505,158.322 c 0,-3.59 -1.647,-6.895 -4.31,-8.743 -1.994,-1.336 -3.047,-1.721 -6.375,-2.29 l -0.219,-0.039 1.107,-7.531 h 8.338 l 1.392,-5.274 h -15.02 l -2.547,18.145 c 0.903,-0.235 1.786,-0.314 2.801,-0.314 4.961,0.006 8.303,2.417 8.312,6.248 -0.006,3.381 -2.634,5.897 -6.148,5.903 -1.585,-0.002 -3.294,-0.507 -4.699,-1.35 l -2.321,4.957 c 2.148,1.358 4.399,1.964 7.189,1.964 7.269,-0.01 12.494,-4.929 12.5,-11.676 z"
         id="path2740"
         inkscape:connector-curvature="0"
         style="fill:#d7af6b" />
      <polygon
         points="273.711,169.392 281.702,134.443 265.641,134.443 264.258,139.719 274.742,139.719 267.16,169.392 "
         id="polygon2742"
         style="fill:#d7af6b" />
      <path
         d="m 352.378,284.365 c 1.389,-1.114 2.756,-2.076 4.063,-2.901 -13.268,2.323 -23.579,13.153 -25.121,26.649 0.017,0.086 0.036,0.188 0.063,0.312 0.096,0.424 0.266,1.063 0.556,1.841 0.514,1.383 1.401,3.191 2.925,5.063 3.008,-15.706 10.495,-25.347 17.514,-30.964 z"
         id="path2744"
         inkscape:connector-curvature="0"
         style="fill:#d7af6b" />
      <path
         d="m 364.693,329.179 c -1.283,0.062 -2.525,0.091 -3.729,0.091 -15.397,0.025 -24.163,-4.951 -28.854,-10.203 -0.026,-0.031 -0.056,-0.063 -0.084,-0.096 3.314,13.341 15.339,23.193 29.705,23.221 3.148,-0.006 6.184,-0.484 9.039,-1.369 -0.67,-3.846 -3.902,-8.879 -5.688,-11.139 -0.142,-0.188 -0.271,-0.356 -0.389,-0.505 z"
         id="path2746"
         inkscape:connector-curvature="0"
         style="fill:#d7af6b" />
      <path
         d="m 338.829,319.029 c 1.769,1.272 3.962,2.461 6.697,3.422 11.222,-22.649 23.937,-33.242 30.89,-37.684 -2.888,-1.586 -6.062,-2.722 -9.421,-3.309 -0.659,0.203 -1.581,0.521 -2.688,0.982 -2.402,1.008 -5.681,2.705 -9.096,5.449 -6.673,5.394 -13.937,14.699 -16.382,31.14 z"
         id="path2748"
         inkscape:connector-curvature="0"
         style="fill:#d7af6b" />
      <path
         d="m 367.047,324.926 0.395,0.459 c 0.048,0.057 1.968,2.293 3.926,5.467 1.442,2.381 2.965,5.243 3.66,8.291 3.226,-1.563 6.136,-3.674 8.605,-6.213 0.193,-0.95 0.286,-1.952 0.286,-2.994 0.055,-6.789 -4.084,-15.117 -6.729,-19.563 -3.474,4.061 -7.055,8.94 -10.143,14.553 z"
         id="path2750"
         inkscape:connector-curvature="0"
         style="fill:#d7af6b" />
      <path
         d="m 389.356,298.486 c -0.003,0 -0.005,0.002 -0.008,0.004 -1.718,1.389 -4.128,3.461 -6.85,6.164 -0.699,0.694 -1.419,1.432 -2.153,2.209 0.892,1.438 2.068,3.457 3.252,5.836 1.977,4.004 4.007,9.004 4.645,14.131 2.579,-4.486 4.06,-9.692 4.067,-15.252 -0.007,-4.684 -1.065,-9.125 -2.953,-13.092 z"
         id="path2752"
         inkscape:connector-curvature="0"
         style="fill:#d7af6b" />
      <path
         d="m 349.97,323.686 c 3.101,0.658 6.731,1.051 10.994,1.059 0.35,0 0.703,-0.002 1.061,-0.008 8.145,-15.787 20.02,-26.238 25.062,-30.228 -1.79,-2.651 -3.982,-5.006 -6.493,-6.979 -0.105,0.062 -0.214,0.123 -0.325,0.188 -1.964,1.144 -4.791,3.026 -8.129,5.951 -6.342,5.555 -14.536,14.858 -22.17,30.017 z"
         id="path2754"
         inkscape:connector-curvature="0"
         style="fill:#d7af6b" />
    </g>
  </g>
</svg>
