<?xml version="1.0" encoding="UTF-8" standalone="no"?>
<!-- Created with Inkscape (http://www.inkscape.org/) -->
<svg
   xmlns:svg="http://www.w3.org/2000/svg"
   xmlns="http://www.w3.org/2000/svg"
   version="1.0"
   width="370.89999"
   height="430.64999"
   viewBox="0 0 4818.899 2834.65"
   id="Layer_1"
   xml:space="preserve"><defs
   id="defs20" />

<g
   transform="matrix(12.992448,0,0,12.992448,-28890.778,-16986.45)"
   id="g3">
	<polygon
   points="2264.982,1280.107 2406.641,1226.022 2552.597,1284.4 2570.623,1422.627 2529.408,1540.247 2411.797,1608.927 2283.007,1539.381 2244.375,1437.218 2264.982,1280.107 "
   id="polygon5"
   style="fill:#ffffff;fill-rule:evenodd" />
	<path
   d="M 2368.859,1444.233 L 2368.859,1444.214 L 2368.879,1444.214 C 2368.886,1437.228 2371.974,1431.514 2376.514,1427.545 C 2380.944,1423.684 2386.795,1421.52 2392.486,1421.51 L 2392.486,1421.49 L 2392.506,1421.49 C 2397.081,1421.49 2400.887,1422.442 2404.253,1424.188 C 2407.532,1425.876 2410.235,1428.253 2412.738,1431.164 C 2414.837,1433.608 2417.795,1433.473 2417.804,1433.473 L 2418.116,1433.453 L 2442.652,1433.453 L 2419.368,1410.994 C 2414.739,1410.907 2409.798,1410.615 2404.712,1410.022 C 2398.825,1409.334 2392.654,1408.257 2386.451,1406.695 C 2356.085,1399.028 2324.901,1379.722 2320.346,1336.992 L 2331.153,1336.992 C 2335.674,1373.116 2362.717,1389.607 2389.066,1396.264 C 2394.797,1397.708 2400.496,1398.707 2405.935,1399.338 C 2411.477,1399.981 2416.651,1400.262 2421.279,1400.272 L 2421.279,1400.248 L 2421.561,1400.248 L 2423.713,1400.248 L 2425.286,1401.766 L 2459.688,1434.977 L 2469.285,1444.232 L 2455.973,1444.232 L 2418.116,1444.232 L 2418.116,1444.213 C 2416.554,1444.213 2409.471,1443.855 2404.578,1438.149 C 2402.933,1436.239 2401.251,1434.724 2399.328,1433.735 C 2397.495,1432.785 2395.289,1432.26 2392.507,1432.26 L 2392.487,1432.26 L 2392.487,1432.24 C 2389.332,1432.24 2386.07,1433.463 2383.591,1435.617 C 2381.221,1437.692 2379.615,1440.633 2379.615,1444.213 L 2379.634,1444.213 L 2379.634,1444.232 L 2368.859,1444.232 L 2368.859,1444.233 z M 2369.258,1310.346 C 2370.052,1307.135 2371.722,1304.253 2373.992,1301.988 C 2377.222,1298.755 2381.695,1296.757 2386.648,1296.747 L 2386.648,1296.727 L 2386.664,1296.727 L 2386.668,1296.727 L 2386.668,1296.747 C 2391.626,1296.751 2396.112,1298.762 2399.356,1302.013 C 2402.589,1305.241 2404.592,1309.717 2404.592,1314.665 L 2404.616,1314.665 L 2404.616,1314.679 L 2404.616,1314.683 L 2404.592,1314.683 C 2404.592,1317.237 2404.053,1319.661 2403.102,1321.859 L 2407.507,1321.857 L 2407.517,1320.607 L 2407.497,1320.607 L 2407.497,1320.556 L 2407.497,1320.544 L 2407.517,1320.544 C 2407.517,1312.81 2404.446,1303.154 2398.074,1295.404 C 2391.8,1287.763 2382.253,1282.047 2369.212,1282.047 L 2369.212,1282.069 L 2369.198,1282.069 L 2369.189,1282.069 L 2369.189,1282.047 C 2357.193,1282.047 2347.576,1286.493 2341,1294.182 C 2335.125,1301.044 2331.55,1310.546 2330.701,1321.882 L 2335.426,1321.882 C 2334.465,1319.681 2333.93,1317.247 2333.92,1314.693 L 2333.9,1314.693 L 2333.9,1314.679 L 2333.9,1314.674 L 2333.92,1314.674 C 2333.93,1309.716 2335.935,1305.231 2339.185,1301.988 C 2342.414,1298.755 2346.889,1296.757 2351.837,1296.747 L 2351.837,1296.727 L 2351.853,1296.727 L 2351.867,1296.727 L 2351.867,1296.747 C 2356.82,1296.751 2361.302,1298.762 2364.55,1302.013 C 2366.805,1304.269 2368.464,1307.14 2369.258,1310.346 L 2369.258,1310.346 z M 2372.502,1325.693 C 2370.987,1323.75 2369.867,1321.48 2369.257,1319.01 C 2368.631,1321.537 2367.473,1323.86 2365.899,1325.836 C 2367.089,1326.607 2368.117,1327.441 2369.009,1328.275 C 2370,1327.385 2371.156,1326.513 2372.502,1325.693 L 2372.502,1325.693 z M 2379.461,1314.673 L 2379.486,1314.673 L 2379.486,1314.678 L 2379.486,1314.692 L 2379.461,1314.692 C 2379.467,1316.671 2380.273,1318.468 2381.583,1319.776 C 2382.821,1321.012 2384.509,1321.808 2386.376,1321.876 L 2386.652,1321.872 L 2386.652,1321.856 L 2386.663,1321.856 L 2386.677,1321.856 L 2386.677,1321.872 L 2387.235,1321.862 C 2388.984,1321.721 2390.578,1320.943 2391.76,1319.761 C 2393.056,1318.465 2393.866,1316.666 2393.866,1314.682 L 2393.841,1314.682 L 2393.841,1314.678 L 2393.841,1314.664 L 2393.866,1314.664 C 2393.861,1312.691 2393.051,1310.894 2391.745,1309.586 C 2390.449,1308.286 2388.65,1307.481 2386.666,1307.481 L 2386.666,1307.501 L 2386.662,1307.501 L 2386.646,1307.501 L 2386.646,1307.481 C 2384.672,1307.481 2382.872,1308.289 2381.567,1309.596 C 2380.272,1310.895 2379.461,1312.699 2379.461,1314.673 L 2379.461,1314.673 z M 2344.655,1314.673 L 2344.674,1314.673 L 2344.674,1314.678 L 2344.674,1314.692 L 2344.655,1314.692 C 2344.655,1316.671 2345.462,1318.468 2346.775,1319.776 C 2348.007,1321.008 2349.692,1321.797 2351.551,1321.876 L 2351.551,1321.856 L 2351.847,1321.862 L 2351.847,1321.856 L 2351.853,1321.856 L 2351.871,1321.856 L 2351.871,1321.862 L 2352.298,1321.872 C 2354.103,1321.764 2355.738,1320.973 2356.95,1319.761 C 2358.251,1318.465 2359.056,1316.666 2359.056,1314.682 L 2359.031,1314.682 L 2359.031,1314.678 L 2359.031,1314.664 L 2359.056,1314.664 C 2359.056,1312.691 2358.241,1310.894 2356.935,1309.586 C 2355.637,1308.286 2353.84,1307.481 2351.866,1307.481 L 2351.866,1307.501 L 2351.852,1307.501 L 2351.836,1307.501 L 2351.836,1307.481 C 2349.864,1307.481 2348.066,1308.289 2346.754,1309.596 C 2345.458,1310.895 2344.655,1312.699 2344.655,1314.673 L 2344.655,1314.673 z M 2368.92,1360.753 L 2368.93,1360.753 L 2368.93,1360.778 C 2371.304,1360.778 2380.921,1359.674 2390.16,1354.01 C 2396.884,1349.891 2403.275,1343.249 2406.063,1332.631 L 2387.453,1332.631 C 2376.442,1332.631 2373.934,1338.945 2373.929,1338.965 L 2368.92,1351.706 L 2363.911,1338.965 C 2363.901,1338.945 2361.444,1332.631 2351.551,1332.631 L 2351.551,1332.611 L 2325.132,1332.611 L 2319.752,1332.611 L 2319.752,1327.25 L 2319.752,1327.222 L 2319.772,1327.222 C 2319.772,1310.894 2324.412,1297.044 2332.831,1287.199 C 2341.442,1277.131 2353.861,1271.324 2369.19,1271.324 L 2369.19,1271.297 L 2369.199,1271.297 L 2369.213,1271.297 L 2369.213,1271.324 C 2385.96,1271.324 2398.247,1278.714 2406.36,1288.584 C 2414.379,1298.344 2418.25,1310.631 2418.25,1320.545 L 2418.27,1320.543 L 2418.27,1320.555 L 2418.27,1320.606 L 2418.25,1320.606 C 2418.232,1343.282 2407.379,1356.062 2395.754,1363.186 C 2384.382,1370.145 2372.019,1371.504 2368.929,1371.508 L 2368.929,1371.524 L 2368.919,1371.524 L 2368.919,1360.753 L 2368.92,1360.753 z M 2405.5,1282.957 C 2414.962,1287.153 2431.039,1298.009 2452.732,1326.05 L 2452.742,1326.036 C 2482.363,1364.126 2518.008,1436.26 2518.115,1436.472 L 2521.956,1444.234 L 2513.293,1444.234 L 2503.241,1444.234 L 2501.484,1444.234 L 2500.058,1443.176 L 2449.744,1406.143 L 2474.988,1411.373 L 2504.29,1432.951 C 2494.132,1413.109 2467.267,1362.244 2444.242,1332.643 L 2444.242,1332.623 C 2433.678,1318.963 2424.944,1309.796 2417.95,1303.633 C 2415.418,1295.783 2411.117,1288.73 2405.5,1282.957 L 2405.5,1282.957 z"
   id="path7"
   style="fill:#005fab;fill-rule:evenodd" />
	<path
   d="M 2344.546,1456.458 L 2344.546,1477.889 L 2343.192,1477.889 C 2342.746,1473.786 2341.956,1470.527 2340.815,1468.09 C 2339.67,1465.655 2338.04,1463.725 2335.93,1462.309 C 2333.815,1460.882 2331.63,1460.164 2329.368,1460.164 C 2326.809,1460.164 2324.704,1461.124 2323.03,1463.045 C 2321.361,1464.967 2320.526,1467.159 2320.526,1469.604 C 2320.526,1471.487 2321.055,1473.194 2322.106,1474.737 C 2323.631,1477.007 2327.25,1480.035 2332.975,1483.818 C 2337.634,1486.913 2340.814,1489.28 2342.506,1490.93 C 2344.204,1492.578 2345.507,1494.53 2346.427,1496.781 C 2347.339,1499.021 2347.792,1501.37 2347.792,1503.825 C 2347.792,1508.491 2346.332,1512.526 2343.409,1515.903 C 2340.479,1519.28 2336.719,1520.978 2332.12,1520.978 C 2330.675,1520.978 2329.316,1520.832 2328.045,1520.549 C 2327.281,1520.395 2325.717,1519.822 2323.325,1518.853 C 2320.938,1517.873 2319.427,1517.378 2318.792,1517.378 C 2318.181,1517.378 2317.694,1517.61 2317.342,1518.085 C 2316.99,1518.541 2316.725,1519.512 2316.55,1520.978 L 2315.194,1520.978 L 2315.194,1499.769 L 2316.55,1499.769 C 2317.194,1504.202 2318.047,1507.51 2319.129,1509.713 C 2320.202,1511.915 2321.851,1513.738 2324.067,1515.194 C 2326.292,1516.658 2328.722,1517.378 2331.368,1517.378 C 2334.429,1517.378 2336.848,1516.378 2338.625,1514.369 C 2340.406,1512.361 2341.289,1509.994 2341.289,1507.258 C 2341.289,1505.744 2340.956,1504.201 2340.284,1502.65 C 2339.615,1501.108 2338.572,1499.662 2337.155,1498.333 C 2336.202,1497.421 2333.586,1495.5 2329.302,1492.579 C 2325.016,1489.669 2321.971,1487.311 2320.166,1485.556 C 2318.358,1483.799 2316.989,1481.86 2316.053,1479.734 C 2315.126,1477.601 2314.653,1475.262 2314.653,1472.72 C 2314.653,1468.285 2316.028,1464.463 2318.781,1461.271 C 2321.54,1458.06 2325.039,1456.459 2329.291,1456.459 C 2331.944,1456.459 2334.756,1457.274 2337.731,1458.903 C 2339.107,1459.661 2340.074,1460.048 2340.642,1460.048 C 2341.283,1460.048 2341.809,1459.806 2342.208,1459.34 C 2342.615,1458.865 2342.941,1457.896 2343.189,1456.459 L 2344.546,1456.459 L 2344.546,1456.458 z M 2507.084,1456.905 L 2508.276,1477.889 L 2507.084,1477.889 C 2505.54,1471.602 2503.338,1467.073 2500.486,1464.307 C 2497.624,1461.541 2494.189,1460.164 2490.181,1460.164 C 2486.825,1460.164 2483.787,1461.201 2481.091,1463.278 C 2478.384,1465.354 2476.239,1468.663 2474.687,1473.213 C 2473.134,1477.764 2472.359,1483.42 2472.359,1490.172 C 2472.359,1495.761 2473.086,1500.594 2474.562,1504.687 C 2476.026,1508.782 2478.238,1511.916 2481.198,1514.109 C 2484.146,1516.292 2487.523,1517.379 2491.306,1517.379 C 2494.596,1517.379 2497.506,1516.525 2500.02,1514.808 C 2501.951,1513.497 2504.026,1511.19 2506.248,1507.87 L 2507.811,1508.772 C 2505.666,1512.633 2503.26,1515.563 2500.572,1517.591 C 2497.177,1520.143 2493.16,1521.424 2488.484,1521.424 C 2480.073,1521.424 2473.562,1517.629 2468.953,1510.042 C 2465.51,1504.405 2463.793,1497.769 2463.793,1490.114 C 2463.793,1483.964 2464.918,1478.307 2467.18,1473.145 C 2469.44,1467.993 2472.565,1463.997 2476.522,1461.164 C 2480.501,1458.32 2484.828,1456.904 2489.514,1456.904 C 2493.18,1456.904 2496.77,1457.991 2500.33,1460.174 C 2501.378,1460.833 2502.115,1461.164 2502.572,1461.164 C 2503.241,1461.164 2503.824,1460.882 2504.318,1460.309 C 2504.968,1459.495 2505.424,1458.359 2505.705,1456.905 L 2507.084,1456.905 L 2507.084,1456.905 z M 2437.092,1461.165 L 2437.092,1485.409 L 2447.687,1485.409 C 2449.879,1485.409 2451.491,1484.838 2452.51,1483.712 C 2453.537,1482.587 2454.216,1480.307 2454.537,1476.882 L 2455.973,1476.882 L 2455.973,1497.858 L 2454.537,1497.858 C 2454.517,1495.471 2454.246,1493.715 2453.76,1492.599 C 2453.246,1491.474 2452.548,1490.63 2451.655,1490.067 C 2450.762,1489.505 2449.443,1489.223 2447.687,1489.223 L 2437.092,1489.223 L 2437.092,1508.636 C 2437.092,1511.781 2437.257,1513.857 2437.576,1514.876 C 2437.849,1515.632 2438.382,1516.292 2439.197,1516.845 C 2440.332,1517.573 2441.507,1517.941 2442.738,1517.941 L 2444.621,1517.941 L 2444.621,1519.621 L 2422.123,1519.621 L 2422.123,1517.941 L 2423.984,1517.941 C 2426.158,1517.941 2427.739,1517.195 2428.719,1515.69 C 2429.34,1514.72 2429.65,1512.363 2429.65,1508.636 L 2429.65,1468.8 C 2429.65,1465.647 2429.475,1463.579 2429.146,1462.571 C 2428.894,1461.794 2428.36,1461.145 2427.554,1460.592 C 2426.438,1459.863 2425.255,1459.487 2423.984,1459.487 L 2422.123,1459.487 L 2422.123,1457.808 L 2461.114,1457.808 L 2461.687,1471.381 L 2460.348,1471.381 C 2459.687,1468.489 2458.902,1466.375 2458.009,1465.026 C 2457.126,1463.677 2456.029,1462.687 2454.73,1462.087 C 2453.42,1461.476 2451.402,1461.166 2448.667,1461.166 L 2437.092,1461.166 L 2437.092,1461.165 z M 2420.579,1457.807 L 2420.579,1459.486 C 2419.289,1459.486 2418.24,1459.776 2417.434,1460.349 C 2416.621,1460.93 2415.853,1462.008 2415.117,1463.588 C 2414.631,1464.656 2413.858,1467.179 2412.804,1471.195 L 2399.028,1520.977 L 2397.514,1520.977 L 2386.181,1481.469 L 2374.995,1520.977 L 2373.628,1520.977 L 2358.939,1469.651 C 2357.842,1465.849 2357.144,1463.588 2356.852,1462.889 C 2356.363,1461.744 2355.693,1460.891 2354.847,1460.327 C 2354.008,1459.764 2352.866,1459.484 2351.424,1459.484 L 2351.424,1457.805 L 2369.755,1457.805 L 2369.755,1459.484 L 2368.873,1459.484 C 2367.574,1459.484 2366.584,1459.861 2365.899,1460.58 C 2365.216,1461.317 2364.872,1462.19 2364.872,1463.219 C 2364.872,1464.286 2365.408,1466.732 2366.486,1470.564 L 2376.281,1505.25 L 2384.549,1475.756 L 2383.053,1470.584 L 2381.88,1466.422 C 2381.371,1464.908 2380.789,1463.568 2380.152,1462.405 C 2379.833,1461.833 2379.447,1461.338 2378.978,1460.949 C 2378.367,1460.406 2377.751,1459.999 2377.141,1459.765 C 2376.675,1459.571 2375.94,1459.485 2374.943,1459.485 L 2374.943,1457.806 L 2394.298,1457.806 L 2394.298,1459.485 L 2392.975,1459.485 C 2391.602,1459.485 2390.602,1459.862 2389.966,1460.581 C 2389.331,1461.318 2389.021,1462.309 2389.021,1463.56 C 2389.021,1465.101 2389.559,1467.81 2390.663,1471.679 L 2400.207,1505.269 L 2409.639,1471.224 C 2410.71,1467.439 2411.258,1464.829 2411.258,1463.366 C 2411.258,1462.668 2411.069,1462.016 2410.73,1461.406 C 2410.366,1460.795 2409.924,1460.368 2409.376,1460.125 C 2408.452,1459.698 2407.247,1459.485 2405.754,1459.485 L 2405.755,1457.806 L 2420.579,1457.806 L 2420.579,1457.807 z"
   id="path9"
   style="fill:#005fab;fill-rule:evenodd" />
	<path
   d="M 2354.028,1537.249 L 2357.372,1537.374 C 2357.372,1537.374 2357.664,1533.251 2359.402,1531.523 C 2363.582,1528.206 2369.312,1531.281 2369.312,1531.281 C 2369.312,1531.281 2357.25,1546.688 2354.623,1549.317 C 2351.992,1551.946 2346.623,1551.83 2346.623,1551.83 C 2346.623,1551.83 2357.251,1558.04 2360.357,1559.952 C 2363.461,1561.863 2367.346,1560.845 2368.122,1560.077 C 2368.896,1559.292 2372.304,1555.769 2372.304,1555.769 L 2368.722,1556.128 C 2368.722,1556.128 2368.484,1557.923 2367.288,1558.641 C 2366.094,1559.349 2365.268,1559.174 2364.535,1558.757 C 2363.809,1558.33 2356.292,1553.974 2356.292,1553.974 L 2352.354,1552.432 C 2352.354,1552.432 2354.146,1552.063 2356.174,1551.103 C 2358.207,1550.151 2363.341,1543.826 2363.341,1543.826 L 2368.957,1546.455 L 2371.707,1546.088 L 2364.66,1542.39 L 2372.423,1532.474 C 2372.423,1532.474 2374.215,1533.552 2376.846,1534.863 C 2379.472,1536.182 2378.16,1539.519 2378.16,1539.519 L 2381.983,1537.607 C 2381.983,1537.607 2382.463,1535.707 2381.386,1535.23 C 2379.838,1534.337 2372.513,1530.08 2370.515,1529.487 C 2368.514,1528.895 2363.583,1526.858 2358.925,1529.372 C 2354.263,1531.873 2354.028,1537.249 2354.028,1537.249 L 2354.028,1537.249 z M 2455.691,1530.922 L 2456.884,1537.015 L 2465.48,1532.009 C 2465.48,1532.009 2463.695,1543.351 2463.103,1548.609 C 2462.501,1553.867 2465.48,1557.807 2465.48,1557.807 L 2468.351,1554.819 C 2468.351,1554.819 2464.529,1552.189 2464.888,1547.415 C 2465.246,1542.634 2467.643,1527.817 2467.643,1527.817 C 2467.643,1527.817 2462.501,1530.573 2459.872,1531.892 C 2457.243,1533.193 2455.691,1530.922 2455.691,1530.922 L 2455.691,1530.922 z M 2447.919,1553.867 C 2448.404,1558.04 2451.15,1560.077 2453.062,1560.077 C 2454.974,1560.077 2456.293,1557.807 2456.293,1555.421 C 2456.293,1553.025 2454.256,1550.036 2452.345,1550.036 C 2450.433,1550.036 2448.996,1551.598 2447.919,1553.869 L 2447.919,1553.867 L 2447.919,1553.867 z M 2446.019,1543.943 C 2445.66,1547.173 2447.329,1552.547 2447.329,1552.547 C 2447.329,1552.547 2449.716,1547.057 2452.112,1547.057 C 2456.05,1547.057 2457.845,1550.52 2457.845,1554.101 C 2457.845,1557.68 2456.408,1562.115 2452.345,1562.463 C 2448.279,1562.822 2444.699,1557.68 2444.699,1548.726 C 2444.699,1537.616 2449.589,1533.309 2452.752,1534.512 L 2452.702,1537.85 C 2450.2,1536.296 2446.969,1538.81 2446.019,1543.943 L 2446.019,1543.943 z M 2435.743,1555.293 C 2435.743,1555.293 2433.114,1558.515 2433.114,1561.027 C 2433.114,1565.218 2436.093,1566.761 2437.17,1566.761 C 2438.257,1566.761 2441.002,1565.218 2441.002,1561.754 C 2441.002,1556.972 2435.743,1555.293 2435.743,1555.293 L 2435.743,1555.293 z M 2437.888,1547.532 C 2437.888,1544.302 2436.451,1543.108 2435.143,1543.108 C 2433.832,1543.108 2432.397,1545.03 2432.397,1547.057 C 2432.397,1549.793 2435.976,1551.829 2435.976,1551.829 C 2435.977,1551.83 2437.888,1549.434 2437.888,1547.532 L 2437.888,1547.532 z M 2434.307,1554.702 C 2434.307,1554.702 2430.728,1552.315 2430.728,1548.609 C 2430.728,1544.893 2433.59,1541.323 2436.336,1540.721 C 2439.092,1540.129 2440.158,1543.225 2440.158,1545.621 C 2440.158,1548.008 2437.528,1552.432 2437.528,1552.432 C 2437.528,1552.432 2443.145,1555.42 2443.145,1559.834 C 2443.146,1566.888 2438.247,1568.673 2435.86,1568.673 C 2432.639,1568.673 2431.086,1564.132 2431.086,1561.871 C 2431.086,1558.167 2434.307,1554.702 2434.307,1554.702 L 2434.307,1554.702 z M 2415.078,1555.42 L 2419.734,1547.414 L 2427.497,1570.469 L 2431.445,1568.673 L 2432.639,1569.983 L 2422.005,1576.445 L 2421.159,1575.252 L 2424.876,1571.778 L 2418.783,1553.266 L 2416.261,1555.886 L 2415.078,1555.42 L 2415.078,1555.42 z M 2396.796,1573.213 L 2395.004,1576.804 L 2397.515,1578.356 L 2399.427,1574.766 L 2396.796,1573.213 L 2396.796,1573.213 z M 2399.303,1549.918 L 2403.247,1549.676 L 2397.626,1556.488 L 2402.646,1559.475 L 2399.66,1560.194 L 2396.317,1558.04 L 2389.269,1566.995 C 2389.269,1566.995 2387.712,1569.266 2388.192,1570.574 C 2388.667,1571.894 2394.762,1570.574 2394.762,1570.574 C 2394.762,1570.574 2386.459,1574.106 2384.607,1572.253 C 2383.173,1570.827 2384.862,1567.664 2386.515,1565.569 C 2388.18,1563.473 2393.805,1556.488 2393.805,1556.488 L 2390.222,1554.819 L 2393.331,1553.974 L 2395.482,1555.051 L 2399.303,1549.918 L 2399.303,1549.918 z M 2388.786,1553.14 L 2391.777,1551.103 C 2391.777,1551.103 2391.19,1547.571 2388.206,1547.571 C 2385.213,1547.571 2383.775,1548.009 2382.098,1549.676 C 2380.431,1551.355 2379.353,1553.14 2379.353,1555.051 C 2379.353,1556.972 2380.425,1558.999 2380.663,1559.951 C 2380.902,1560.911 2381.683,1562.755 2379.77,1563.947 C 2377.859,1565.151 2374.694,1565.336 2373.859,1563.055 C 2373.02,1560.784 2374.097,1557.806 2374.097,1557.806 L 2370.157,1562.939 C 2370.157,1562.939 2371.348,1566.159 2375.177,1566.159 C 2378.994,1566.159 2380.491,1565.266 2381.982,1563.772 C 2383.472,1562.278 2384.249,1561.143 2384.249,1559.232 C 2384.249,1556.845 2382.224,1556.36 2382.224,1553.499 C 2382.224,1551.945 2382.338,1551.112 2383.059,1550.395 C 2383.774,1549.676 2385.561,1548.841 2386.997,1549.201 C 2388.908,1549.56 2388.786,1553.14 2388.786,1553.14 L 2388.786,1553.14 z"
   id="path11"
   style="fill:#005fab;fill-rule:evenodd" />
	<path
   d="M 2441.284,1619.25 L 2442.768,1619.25 C 2443.708,1619.25 2444.32,1619.048 2444.32,1618.058 C 2444.32,1617.204 2443.553,1616.952 2442.768,1616.952 L 2441.284,1616.952 L 2441.284,1619.25 L 2441.284,1619.25 z M 2440.051,1615.981 L 2442.963,1615.981 C 2444.699,1615.981 2445.563,1616.68 2445.563,1618.115 C 2445.563,1619.339 2444.787,1620.22 2443.612,1620.22 L 2445.766,1623.578 L 2444.448,1623.578 L 2442.333,1620.22 L 2441.285,1620.22 L 2441.285,1623.578 L 2440.052,1623.578 L 2440.052,1615.981 L 2440.051,1615.981 z M 2442.545,1625.294 C 2445.533,1625.294 2447.774,1622.898 2447.774,1619.783 C 2447.774,1616.679 2445.534,1614.273 2442.545,1614.273 C 2439.537,1614.273 2437.286,1616.679 2437.286,1619.783 C 2437.286,1622.898 2439.537,1625.294 2442.545,1625.294 L 2442.545,1625.294 z M 2442.525,1613.303 C 2446.105,1613.303 2449.015,1616.213 2449.015,1619.783 C 2449.015,1623.353 2446.105,1626.264 2442.525,1626.264 C 2438.955,1626.264 2436.045,1623.353 2436.045,1619.783 C 2436.045,1616.213 2438.955,1613.303 2442.525,1613.303 L 2442.525,1613.303 z"
   id="path13"
   style="fill:#005fab;fill-rule:evenodd" />
	<path
   d="M 2408.992,1209.666 C 2408.901,1209.721 2325.948,1261.13 2252.815,1273.09 C 2252.815,1347.757 2234.864,1377.041 2234.864,1434.055 C 2234.864,1559.117 2355.14,1589.037 2379.074,1602.796 C 2392.203,1609.964 2408.9,1626.644 2408.991,1626.74 C 2409.085,1626.643 2425.779,1609.964 2438.907,1602.796 C 2462.841,1589.037 2583.119,1559.116 2583.119,1434.055 C 2583.119,1377.041 2565.161,1347.758 2565.161,1273.09 C 2492.045,1261.13 2409.078,1209.715 2408.992,1209.667 L 2408.992,1209.666 z M 2408.992,1596.15 L 2408.992,1596.15 L 2408.94,1596.178 C 2408.94,1596.178 2400.814,1588.524 2381.305,1577.697 C 2357.063,1564.239 2259.835,1537.81 2259.835,1429.798 C 2259.835,1380.559 2275.487,1355.258 2275.487,1290.778 C 2337.304,1280.768 2404.826,1238.733 2408.992,1236.109 C 2413.155,1238.734 2480.683,1280.764 2542.496,1290.778 C 2542.496,1355.258 2558.156,1380.559 2558.156,1429.798 C 2558.156,1537.821 2460.912,1564.239 2436.685,1577.697 C 2417.173,1588.524 2409.043,1596.188 2409.043,1596.188 L 2408.992,1596.15 L 2408.992,1596.15 z"
   id="path15"
   style="fill:#005fab;fill-rule:evenodd" />
	<path
   d="M 2408.992,1209.666 C 2408.992,1209.666 2325.948,1261.13 2252.815,1273.09 C 2252.815,1347.757 2234.864,1377.041 2234.864,1434.055 C 2234.864,1559.117 2355.14,1589.037 2379.074,1602.796 C 2392.203,1609.964 2408.9,1626.644 2408.991,1626.74 C 2409.085,1626.643 2425.779,1609.964 2438.907,1602.796 C 2462.841,1589.037 2583.119,1559.116 2583.119,1434.055 C 2583.119,1377.041 2565.161,1347.758 2565.161,1273.09 C 2492.045,1261.13 2408.992,1209.667 2408.992,1209.667 L 2408.992,1209.666 L 2408.992,1209.666 z M 2408.992,1596.15 L 2408.992,1596.15 L 2408.94,1596.178 C 2408.94,1596.178 2400.814,1588.524 2381.305,1577.697 C 2357.063,1564.239 2259.835,1537.81 2259.835,1429.798 C 2259.835,1380.559 2275.487,1355.258 2275.487,1290.778 C 2337.304,1280.768 2404.826,1238.733 2408.992,1236.109 C 2413.155,1238.734 2480.683,1280.764 2542.496,1290.778 C 2542.496,1355.258 2558.156,1380.559 2558.156,1429.798 C 2558.156,1537.821 2460.912,1564.239 2436.685,1577.697 C 2417.173,1588.524 2409.043,1596.188 2409.043,1596.188 L 2408.992,1596.15 L 2408.992,1596.15 z"
   id="path17"
   style="fill:none;stroke:#ffffff;stroke-width:1.7277" />
</g></svg>