<?xml version="1.0" encoding="UTF-8" ?>
<!DOCTYPE svg PUBLIC "-//W3C//DTD SVG 1.1//EN" "http://www.w3.org/Graphics/SVG/1.1/DTD/svg11.dtd">
<svg width="1000pt" height="943pt" viewBox="0 0 1000 943" version="1.1" xmlns="http://www.w3.org/2000/svg">
<path fill="#003a80" stroke="#003a80" stroke-width="0.09375" opacity="1.00" d=" M 405.0 47.1 C 439.2 38.3 471.9 23.0 499.8 1.4 C 541.2 33.0 592.2 51.2 644.0 55.1 C 678.6 58.0 713.3 58.9 748.0 59.0 C 785.1 60.0 822.1 58.2 859.2 58.5 C 859.3 225.3 859.2 392.2 859.3 559.0 C 859.6 578.7 855.3 598.3 848.6 616.8 C 837.3 649.2 816.3 678.3 788.8 698.8 C 763.5 718.0 733.3 729.8 702.4 736.2 C 661.4 744.6 621.6 758.0 583.8 775.7 C 580.2 777.3 576.4 778.8 573.4 781.4 C 577.6 781.9 581.8 781.7 586.0 781.4 C 650.7 779.4 715.5 776.0 779.9 769.1 C 779.2 760.1 778.6 751.0 778.0 742.0 C 777.5 739.0 780.1 736.4 783.0 736.3 C 850.1 729.7 916.7 717.6 981.4 698.3 C 984.5 697.4 988.9 695.6 991.3 698.8 C 993.1 700.7 992.5 703.4 991.6 705.6 C 981.8 729.1 971.7 752.5 961.9 776.0 C 960.5 778.3 962.1 780.6 963.3 782.6 C 974.8 800.9 986.2 819.2 997.6 837.4 C 1000.1 840.6 998.1 845.2 994.3 846.0 C 972.3 852.7 950.8 860.8 928.5 866.2 C 919.1 868.8 909.4 870.4 899.9 872.9 C 900.8 884.3 901.9 895.6 902.8 907.0 C 903.2 909.9 900.8 912.5 897.9 912.8 C 788.9 930.9 678.4 938.3 568.0 941.0 C 502.0 942.8 436.0 941.8 370.0 939.0 C 279.6 935.2 189.3 927.6 100.0 912.8 C 97.2 912.5 94.8 909.9 95.2 907.0 C 95.6 895.5 97.5 884.1 97.8 872.5 C 65.7 866.9 35.2 855.5 4.4 845.5 C 0.4 844.3 0.2 839.3 2.5 836.4 C 13.7 817.6 24.9 798.9 36.2 780.2 C 37.3 778.6 36.5 776.7 35.9 775.1 C 26.2 753.0 17.1 730.6 7.5 708.5 C 6.4 705.5 4.1 701.6 6.7 698.8 C 8.9 695.7 13.0 697.3 16.0 698.1 C 80.8 717.6 147.7 729.6 215.0 736.3 C 217.5 736.4 220.0 738.3 219.9 741.0 C 219.9 750.5 218.2 759.9 218.4 769.3 C 282.8 775.8 347.4 779.5 412.0 781.4 C 416.9 781.7 421.7 782.0 426.5 781.4 C 423.7 778.2 419.4 777.1 415.7 775.3 C 377.1 757.1 336.3 743.7 294.4 735.5 C 250.8 726.4 208.6 705.0 180.2 669.9 C 153.9 637.2 139.7 594.9 141.2 553.0 C 141.3 388.1 141.1 223.2 141.3 58.3 C 197.2 59.1 253.1 60.0 309.0 57.9 C 341.2 56.4 373.8 55.5 405.0 47.1 M 411.5 60.3 C 368.7 71.5 324.0 71.7 280.0 73.1 C 238.5 74.1 196.9 73.4 155.4 73.0 C 155.4 173.9 155.4 274.9 155.4 375.9 C 267.8 376.1 380.2 376.0 492.6 375.9 C 492.5 258.8 492.7 141.8 492.6 24.8 C 467.2 40.0 440.2 52.8 411.5 60.3 M 507.9 25.0 C 507.7 141.9 507.7 259.0 507.8 375.9 C 620.1 376.0 732.5 376.1 844.8 375.9 C 844.7 274.9 844.8 173.9 844.8 72.9 C 818.5 73.1 792.3 73.7 766.0 73.7 C 719.1 73.0 671.9 73.1 625.3 67.4 C 583.6 62.3 543.5 47.0 507.9 25.0 M 155.4 391.2 C 155.4 448.8 155.4 506.4 155.4 564.0 C 157.0 611.5 180.1 658.2 218.3 686.7 C 244.3 706.5 275.8 717.7 307.7 723.6 C 358.2 734.4 407.0 753.1 452.4 777.6 C 456.2 779.4 459.6 782.4 464.0 782.5 C 473.5 782.6 483.1 782.8 492.6 782.7 C 492.6 652.2 492.6 521.7 492.6 391.2 C 380.2 391.0 267.8 391.0 155.4 391.2 M 507.8 391.1 C 507.8 399.1 507.6 407.1 508.0 415.0 C 513.6 415.9 519.2 417.1 524.3 419.6 C 538.4 426.1 548.3 439.1 562.3 445.7 C 574.3 451.6 588.3 451.7 601.3 449.6 C 616.5 446.7 627.5 435.4 639.3 426.3 C 654.8 413.8 676.9 411.7 695.5 417.8 C 711.7 423.3 722.1 438.3 737.3 445.6 C 753.0 452.8 772.1 452.8 787.7 445.7 C 802.0 439.0 811.8 425.6 826.2 419.3 C 832.0 416.5 838.4 415.5 844.7 414.6 C 844.8 406.8 844.7 399.0 844.8 391.1 C 732.5 391.0 620.1 391.1 507.8 391.1 M 657.4 471.5 C 637.7 477.0 626.2 496.6 606.9 502.7 C 593.7 506.8 579.1 506.6 566.1 502.0 C 549.7 496.0 539.1 480.7 523.2 473.8 C 518.4 471.5 513.1 470.4 507.8 469.7 C 507.6 489.9 507.8 510.0 507.7 530.2 C 513.2 531.5 518.9 532.5 524.0 535.0 C 538.7 541.5 548.6 555.2 563.4 561.6 C 578.7 568.2 597.1 568.3 612.3 561.3 C 626.9 554.6 636.7 540.7 651.5 534.5 C 665.9 528.6 682.6 528.4 697.1 533.9 C 713.4 540.1 723.7 555.7 739.8 562.2 C 757.4 569.3 778.5 567.8 794.4 557.4 C 805.0 550.5 813.5 540.6 825.2 535.3 C 831.3 532.2 838.1 531.0 844.7 530.0 C 844.8 509.9 844.7 489.7 844.8 469.6 C 839.3 469.5 833.9 471.0 828.8 472.9 C 810.9 479.7 799.7 497.4 781.2 503.0 C 764.9 507.5 746.3 506.6 731.8 497.3 C 722.5 491.4 714.9 483.3 705.6 477.4 C 691.5 468.4 673.3 467.3 657.4 471.5 M 507.8 585.2 C 507.8 605.4 507.6 625.6 507.9 645.8 C 514.3 647.0 520.7 648.5 526.4 651.7 C 536.8 656.9 544.7 665.5 554.2 671.9 C 570.0 682.9 591.3 684.7 609.1 678.1 C 624.6 672.5 634.5 658.3 649.1 651.1 C 662.3 644.5 678.1 644.0 692.3 647.7 C 705.4 651.3 715.3 661.0 725.7 669.3 C 745.5 685.6 776.3 686.2 797.0 671.1 C 803.4 666.9 808.0 660.6 812.6 654.6 C 827.7 634.1 837.7 610.1 842.6 585.2 C 829.6 586.1 817.9 593.0 808.3 601.4 C 797.9 610.4 785.9 619.0 771.8 620.5 C 761.4 621.1 750.5 621.5 740.7 617.3 C 723.4 610.7 712.7 593.6 695.0 587.8 C 677.7 582.2 657.4 583.8 642.3 594.3 C 632.5 601.1 624.2 610.2 613.4 615.5 C 604.7 620.1 594.7 621.3 585.0 620.8 C 570.9 621.3 557.7 614.7 547.1 605.9 C 535.8 596.1 523.2 586.5 507.8 585.2 M 643.8 708.8 C 632.5 716.1 623.5 726.8 610.9 732.1 C 590.7 740.5 565.9 737.2 549.1 722.9 C 537.1 712.8 524.1 702.0 507.8 700.6 C 507.8 728.0 507.6 755.4 507.9 782.7 C 517.0 782.8 526.0 782.5 535.1 782.5 C 537.4 782.6 539.8 782.1 541.8 780.9 C 586.4 756.4 634.0 737.5 683.5 725.7 C 694.8 723.1 706.3 721.2 717.4 717.8 C 699.0 698.0 666.4 694.3 643.8 708.8 M 20.8 711.0 C 28.1 730.9 37.3 750.2 45.3 769.9 C 46.6 773.8 50.2 778.3 47.4 782.4 C 36.7 800.8 25.3 818.8 14.6 837.3 C 42.3 846.7 70.1 856.8 99.1 861.6 C 101.7 828.1 104.8 794.6 107.6 761.1 C 107.6 758.9 108.7 756.4 111.1 756.1 C 133.7 751.5 156.5 747.5 179.1 742.8 C 133.8 737.6 88.9 728.9 44.8 717.3 C 36.7 715.3 28.9 712.5 20.8 711.0 M 959.6 715.6 C 913.8 728.1 867.1 736.9 820.0 742.9 C 842.3 747.8 864.8 751.6 887.2 756.1 C 889.8 756.7 890.5 759.7 890.7 762.0 C 893.1 795.2 896.3 828.4 898.8 861.6 C 928.2 856.9 956.5 846.8 984.8 837.7 C 973.6 818.9 961.6 800.5 950.2 781.8 C 948.8 779.8 949.4 777.4 950.3 775.3 C 959.6 753.9 968.5 732.4 977.7 710.9 C 971.5 711.9 965.6 714.0 959.6 715.6 M 146.0 760.6 C 166.4 763.3 186.9 766.2 207.5 767.9 C 207.8 761.3 208.4 754.8 208.8 748.2 C 187.9 752.5 166.8 756.0 146.0 760.6 M 789.4 748.3 C 789.4 754.9 790.2 761.4 790.7 768.0 C 810.3 766.1 830.0 763.7 849.6 760.8 C 847.8 759.8 846.0 759.0 844.0 758.7 C 825.8 755.5 807.6 751.7 789.4 748.3 M 590.0 792.1 C 573.3 793.1 556.6 792.1 540.0 793.3 C 398.9 794.5 257.4 788.5 117.8 767.3 C 113.8 812.5 110.4 857.6 106.3 902.8 C 164.5 912.8 223.4 918.5 282.3 923.3 C 342.5 927.8 402.7 930.4 463.0 930.7 C 486.6 931.5 510.4 931.7 534.0 930.7 C 560.0 930.7 586.0 929.9 612.0 929.1 C 705.5 925.4 799.0 917.9 891.5 903.0 C 888.4 857.8 883.8 812.6 880.2 767.4 C 784.1 781.8 687.0 789.3 590.0 792.1 Z" />
<path fill="#ffffff" stroke="#ffffff" stroke-width="0.09375" opacity="1.00" d=" M 411.5 60.3 C 440.2 52.8 467.2 40.0 492.6 24.8 C 492.7 141.8 492.5 258.8 492.6 375.9 C 380.2 376.0 267.8 376.1 155.4 375.9 C 155.4 274.9 155.4 173.9 155.4 73.0 C 196.9 73.4 238.5 74.1 280.0 73.1 C 324.0 71.7 368.7 71.5 411.5 60.3 M 255.0 118.1 C 250.9 113.7 246.8 109.0 240.9 107.0 C 229.8 103.2 216.0 105.7 207.5 113.8 C 208.0 115.0 208.5 116.1 209.0 117.3 C 212.8 116.8 216.9 115.5 220.4 117.5 C 225.3 120.2 228.7 124.8 231.0 129.7 C 224.1 132.7 216.9 135.6 209.6 137.7 C 207.0 138.7 204.9 136.5 202.9 135.2 C 197.8 136.2 192.3 137.6 188.8 141.8 C 183.9 147.3 184.3 155.3 186.0 162.0 C 187.6 170.4 195.6 176.7 204.0 177.5 C 210.9 178.1 217.6 175.3 223.8 172.5 C 222.5 171.3 221.1 170.1 219.7 168.9 C 226.7 164.5 233.9 160.5 241.6 157.3 C 244.9 162.6 249.2 167.6 255.3 169.8 C 263.7 172.8 273.0 171.4 281.0 167.9 C 279.7 165.6 277.8 163.7 275.5 162.4 C 271.2 159.9 269.4 154.9 267.3 150.6 C 304.0 141.2 342.8 142.4 380.0 149.0 C 383.1 145.5 386.3 141.7 390.7 139.7 C 398.1 136.2 407.8 138.9 412.5 145.4 C 415.9 150.9 413.1 157.2 411.1 162.6 C 417.3 165.2 423.6 167.6 429.9 170.0 C 441.2 158.4 453.4 147.6 464.1 135.5 C 439.7 118.3 411.2 107.3 381.9 101.8 C 339.2 94.0 294.8 101.7 255.0 118.1 M 255.3 204.1 C 250.9 198.5 245.3 193.5 238.1 191.9 C 228.5 190.1 217.9 192.2 209.9 197.9 C 207.1 199.2 208.6 204.3 211.8 203.0 C 220.9 200.0 228.3 208.3 231.6 215.8 C 223.9 218.9 216.2 222.2 208.2 224.3 C 202.5 218.7 193.6 223.1 189.1 228.1 C 181.2 239.1 186.0 258.2 199.6 262.4 C 207.9 265.4 216.6 262.1 224.2 258.5 C 222.8 257.3 221.5 256.1 220.2 254.9 C 227.2 250.5 234.5 246.6 242.0 243.2 C 244.9 247.4 248.0 251.9 252.7 254.3 C 261.4 259.4 272.4 257.8 281.3 254.0 C 280.3 251.9 279.2 250.0 277.0 249.0 C 272.1 246.6 269.7 241.3 268.0 236.4 C 304.8 227.4 343.4 228.4 380.6 234.9 C 383.5 231.4 386.7 227.9 390.9 226.0 C 398.4 222.2 408.6 224.8 413.3 231.7 C 416.4 237.1 413.8 243.2 411.6 248.3 C 417.1 251.0 422.9 253.1 428.6 255.4 C 430.5 256.5 431.9 254.3 433.3 253.3 C 443.9 242.9 454.3 232.4 464.8 221.9 C 441.0 204.5 412.7 193.7 383.8 188.1 C 340.6 179.7 295.7 187.8 255.3 204.1 M 320.2 276.1 C 298.7 279.0 277.5 284.2 257.6 292.8 C 254.4 294.4 252.7 290.0 250.6 288.4 C 241.6 278.7 226.4 278.8 215.1 284.2 C 211.7 285.7 206.3 288.3 209.3 292.8 C 212.7 292.4 216.2 291.5 219.6 292.4 C 225.3 294.7 228.9 299.9 231.7 305.0 C 224.1 308.5 216.2 311.4 208.2 313.7 C 206.4 312.7 204.7 311.6 203.0 310.6 C 198.0 311.8 192.6 313.0 189.2 317.2 C 184.2 323.1 184.7 331.5 186.7 338.4 C 188.8 346.8 197.3 352.9 206.0 352.7 C 212.4 353.1 218.4 350.6 224.1 347.9 C 222.8 346.7 221.5 345.6 220.2 344.4 C 227.1 339.9 234.3 335.9 241.9 332.6 C 245.6 338.3 250.4 343.8 257.2 345.8 C 265.1 347.9 273.6 346.7 281.1 343.6 C 280.1 339.0 274.8 338.2 272.4 334.6 C 270.3 332.0 269.1 328.9 267.9 325.9 C 304.5 316.9 343.2 317.4 380.2 324.6 C 383.2 321.2 386.3 317.5 390.5 315.5 C 397.9 311.5 408.3 314.0 413.0 321.0 C 416.4 326.4 413.7 332.7 411.4 337.9 C 417.6 340.5 423.9 342.9 430.1 345.4 C 441.9 334.3 453.4 322.8 464.7 311.2 C 423.2 281.9 370.4 269.2 320.2 276.1 Z" />
<path fill="#ffffff" stroke="#ffffff" stroke-width="0.09375" opacity="1.00" d=" M 507.9 25.0 C 543.5 47.0 583.6 62.3 625.3 67.4 C 671.9 73.1 719.1 73.0 766.0 73.7 C 792.3 73.7 818.5 73.1 844.8 72.9 C 844.8 173.9 844.7 274.9 844.8 375.9 C 732.5 376.1 620.1 376.0 507.8 375.9 C 507.7 259.0 507.7 141.9 507.9 25.0 M 668.3 86.2 C 620.0 88.8 574.8 119.2 553.8 162.7 C 534.1 202.5 535.3 252.0 557.4 290.5 C 573.6 319.5 600.7 342.3 632.2 353.0 C 659.0 362.4 688.7 363.2 715.9 355.1 C 749.5 345.6 778.8 322.4 796.2 292.2 C 822.1 248.7 820.7 190.6 792.6 148.4 C 766.4 107.2 717.0 82.5 668.3 86.2 Z" />
<path fill="#003a80" stroke="#003a80" stroke-width="0.09375" opacity="1.00" d=" M 668.3 86.2 C 717.0 82.5 766.4 107.2 792.6 148.4 C 820.7 190.6 822.1 248.7 796.2 292.2 C 778.8 322.4 749.5 345.6 715.9 355.1 C 688.7 363.2 659.0 362.4 632.2 353.0 C 600.7 342.3 573.6 319.5 557.4 290.5 C 535.3 252.0 534.1 202.5 553.8 162.7 C 574.8 119.2 620.0 88.8 668.3 86.2 M 666.0 97.0 C 660.1 102.1 654.7 107.9 650.3 114.4 C 649.4 115.8 647.9 117.8 649.7 119.2 C 658.2 129.3 667.0 139.3 675.5 149.5 C 677.0 151.2 678.5 153.5 681.0 153.6 C 692.6 154.7 704.2 153.1 715.6 151.4 C 718.3 150.9 721.6 150.9 723.1 148.2 C 729.4 139.1 736.0 130.3 741.8 121.0 C 739.6 115.6 738.4 108.2 732.3 105.8 C 713.8 97.1 693.3 93.0 672.9 93.6 C 670.2 93.4 667.9 95.3 666.0 97.0 M 640.4 122.3 C 631.3 125.3 622.7 129.5 614.8 134.8 C 611.9 136.6 609.7 139.2 608.1 142.1 C 598.9 158.1 591.1 175.1 586.7 193.0 C 585.7 195.1 587.5 196.8 588.8 198.2 C 597.0 206.0 605.1 213.9 613.2 221.8 C 614.3 222.8 615.7 224.2 617.2 223.1 C 630.0 216.6 642.7 210.0 655.4 203.5 C 657.3 202.5 659.5 201.5 660.3 199.3 C 665.5 186.6 668.1 173.0 670.7 159.5 C 671.1 157.0 672.0 154.1 669.8 152.2 C 661.5 142.4 653.3 132.7 645.0 123.0 C 643.9 121.3 642.0 121.6 640.4 122.3 M 729.9 149.0 C 727.0 152.3 728.6 156.9 729.3 160.8 C 732.6 174.8 737.2 188.4 742.1 202.0 C 742.8 204.7 745.4 206.1 747.7 207.3 C 760.3 214.0 772.7 221.0 785.2 227.8 C 790.3 220.3 794.5 212.1 799.5 204.4 C 801.5 200.9 804.9 197.3 803.5 192.9 C 797.7 169.0 784.9 146.8 767.2 129.8 C 762.0 125.1 754.6 124.2 747.9 123.6 C 741.6 131.8 736.1 140.6 729.9 149.0 M 584.6 132.6 C 560.7 156.7 547.1 190.5 547.5 224.4 C 550.6 225.3 553.7 226.0 556.9 226.3 C 563.9 217.5 570.6 208.4 577.6 199.6 C 580.4 196.2 580.9 191.8 581.9 187.7 C 585.8 171.9 593.1 157.3 600.5 143.0 C 598.2 139.5 596.1 135.8 593.5 132.5 C 591.4 129.6 586.8 130.3 584.6 132.6 M 613.3 232.4 C 609.4 242.0 608.9 252.7 607.3 262.9 C 607.3 266.4 605.2 270.9 608.5 273.6 C 619.8 284.1 632.1 293.8 645.7 301.2 C 648.2 302.7 651.1 303.0 653.9 302.6 C 665.6 301.3 676.7 296.2 685.6 288.6 C 688.0 286.5 687.9 283.1 688.6 280.2 C 691.0 264.9 694.6 249.7 696.7 234.3 C 687.2 223.1 674.3 214.9 662.1 207.0 C 645.8 215.3 629.2 223.4 613.3 232.4 M 709.1 228.1 C 706.7 230.0 703.2 231.6 702.9 235.1 C 700.2 250.2 697.5 265.3 694.6 280.4 C 694.4 282.2 693.6 284.4 695.4 285.7 C 704.6 294.4 715.9 300.8 727.8 305.1 C 729.4 305.9 731.2 305.6 732.6 304.6 C 746.2 295.5 759.8 286.4 773.4 277.4 C 777.2 275.4 777.4 270.8 778.3 267.1 C 780.3 256.1 782.4 245.1 783.7 233.9 C 768.8 225.7 754.0 217.4 739.0 209.4 C 728.2 214.2 718.8 221.5 709.1 228.1 M 547.8 231.2 C 549.2 255.5 557.7 279.6 572.3 299.2 C 572.1 292.4 574.9 284.5 570.4 278.6 C 561.3 264.7 556.0 248.4 554.8 231.8 C 552.4 231.6 550.1 231.4 547.8 231.2 M 578.8 283.7 C 579.2 291.6 577.5 299.6 578.8 307.3 C 591.3 322.5 607.7 334.4 625.7 342.3 C 630.7 344.6 635.9 341.4 641.0 340.7 C 645.3 339.3 650.4 339.5 654.2 336.9 C 654.6 328.5 652.5 320.2 649.6 312.4 C 648.5 308.6 644.4 307.4 641.3 305.6 C 627.1 298.1 614.8 287.4 602.8 276.7 C 594.6 278.3 586.7 281.1 578.8 283.7 M 780.1 280.2 C 763.0 291.7 745.7 303.0 728.6 314.6 C 721.6 321.2 716.6 329.7 710.5 337.1 C 713.4 340.3 716.6 343.1 720.0 345.7 C 746.2 336.6 769.3 318.8 784.8 295.8 C 787.9 291.0 791.4 286.3 793.0 280.8 C 788.8 280.1 784.0 276.9 780.1 280.2 M 639.9 347.4 C 663.4 354.4 689.0 354.7 712.5 348.0 C 710.6 345.7 708.5 342.7 705.1 342.8 C 692.8 341.6 680.4 340.2 668.0 340.9 C 658.5 342.7 649.2 344.9 639.9 347.4 Z" />
<path fill="#ffffff" stroke="#ffffff" stroke-width="0.09375" opacity="1.00" d=" M 666.0 97.0 C 667.9 95.3 670.2 93.4 672.9 93.6 C 693.3 93.0 713.8 97.1 732.3 105.8 C 738.4 108.2 739.6 115.6 741.8 121.0 C 736.0 130.3 729.4 139.1 723.1 148.2 C 721.6 150.9 718.3 150.9 715.6 151.4 C 704.2 153.1 692.6 154.7 681.0 153.6 C 678.5 153.5 677.0 151.2 675.5 149.5 C 667.0 139.3 658.2 129.3 649.7 119.2 C 647.9 117.8 649.4 115.8 650.3 114.4 C 654.7 107.9 660.1 102.1 666.0 97.0 Z" />
<path fill="#003a80" stroke="#003a80" stroke-width="0.09375" opacity="1.00" d=" M 255.0 118.1 C 294.8 101.7 339.2 94.0 381.9 101.8 C 411.2 107.3 439.7 118.3 464.1 135.5 C 453.4 147.6 441.2 158.4 429.9 170.0 C 423.6 167.6 417.3 165.2 411.1 162.6 C 413.1 157.2 415.9 150.9 412.5 145.4 C 407.8 138.9 398.1 136.2 390.7 139.7 C 386.3 141.7 383.1 145.5 380.0 149.0 C 342.8 142.4 304.0 141.2 267.3 150.6 C 269.4 154.9 271.2 159.9 275.5 162.4 C 277.8 163.7 279.7 165.6 281.0 167.9 C 273.0 171.4 263.7 172.8 255.3 169.8 C 249.2 167.6 244.9 162.6 241.6 157.3 C 233.9 160.5 226.7 164.5 219.7 168.9 C 221.1 170.1 222.5 171.3 223.8 172.5 C 217.6 175.3 210.9 178.1 204.0 177.5 C 195.6 176.7 187.6 170.4 186.0 162.0 C 184.3 155.3 183.9 147.3 188.8 141.8 C 192.3 137.6 197.8 136.2 202.9 135.2 C 204.9 136.5 207.0 138.7 209.6 137.7 C 216.9 135.6 224.1 132.7 231.0 129.7 C 228.7 124.8 225.3 120.2 220.4 117.5 C 216.9 115.5 212.8 116.8 209.0 117.3 C 208.5 116.1 208.0 115.0 207.5 113.8 C 216.0 105.7 229.8 103.2 240.9 107.0 C 246.8 109.0 250.9 113.7 255.0 118.1 M 222.5 111.8 C 233.5 119.3 239.3 131.8 242.9 144.1 C 244.8 150.7 247.0 157.9 252.7 162.3 C 257.6 165.6 263.9 167.1 269.6 165.4 C 263.2 156.8 259.6 146.6 256.6 136.3 C 254.4 128.6 251.2 120.5 244.7 115.3 C 238.6 110.3 229.9 109.4 222.5 111.8 M 210.3 143.4 C 210.2 150.4 211.5 158.1 215.1 164.3 C 223.5 161.4 231.0 155.4 239.4 152.0 C 237.9 146.2 236.1 140.4 233.7 134.9 C 225.9 137.6 218.2 140.8 210.3 143.4 M 190.6 150.4 C 189.8 156.4 190.8 163.3 195.2 167.8 C 199.8 172.6 206.9 172.6 212.9 171.1 C 205.6 162.6 206.6 151.0 202.6 141.1 C 197.2 141.3 191.4 144.6 190.6 150.4 Z" />
<path fill="#ffffff" stroke="#ffffff" stroke-width="0.09375" opacity="1.00" d=" M 222.5 111.8 C 229.9 109.4 238.6 110.3 244.7 115.3 C 251.2 120.5 254.4 128.6 256.6 136.3 C 259.6 146.6 263.2 156.8 269.6 165.4 C 263.9 167.1 257.6 165.6 252.7 162.3 C 247.0 157.9 244.8 150.7 242.9 144.1 C 239.3 131.8 233.5 119.3 222.5 111.8 Z" />
<path fill="#ffffff" stroke="#ffffff" stroke-width="0.09375" opacity="1.00" d=" M 640.4 122.3 C 642.0 121.6 643.9 121.3 645.0 123.0 C 653.3 132.7 661.5 142.4 669.8 152.2 C 672.0 154.1 671.1 157.0 670.7 159.5 C 668.1 173.0 665.5 186.6 660.3 199.3 C 659.5 201.5 657.3 202.5 655.4 203.5 C 642.7 210.0 630.0 216.6 617.2 223.1 C 615.7 224.2 614.3 222.8 613.2 221.8 C 605.1 213.9 597.0 206.0 588.8 198.2 C 587.5 196.8 585.7 195.1 586.7 193.0 C 591.1 175.1 598.9 158.1 608.1 142.1 C 609.7 139.2 611.9 136.6 614.8 134.8 C 622.7 129.5 631.3 125.3 640.4 122.3 Z" />
<path fill="#ffffff" stroke="#ffffff" stroke-width="0.09375" opacity="1.00" d=" M 729.9 149.0 C 736.1 140.6 741.6 131.8 747.9 123.6 C 754.6 124.2 762.0 125.1 767.2 129.8 C 784.9 146.8 797.7 169.0 803.5 192.9 C 804.9 197.3 801.5 200.9 799.5 204.4 C 794.5 212.1 790.3 220.3 785.2 227.8 C 772.7 221.0 760.3 214.0 747.7 207.3 C 745.4 206.1 742.8 204.7 742.1 202.0 C 737.2 188.4 732.6 174.8 729.3 160.8 C 728.6 156.9 727.0 152.3 729.9 149.0 Z" />
<path fill="#ffffff" stroke="#ffffff" stroke-width="0.09375" opacity="1.00" d=" M 584.6 132.6 C 586.8 130.3 591.4 129.6 593.5 132.5 C 596.1 135.8 598.2 139.5 600.5 143.0 C 593.1 157.3 585.8 171.9 581.9 187.7 C 580.9 191.8 580.4 196.2 577.6 199.6 C 570.6 208.4 563.9 217.5 556.9 226.3 C 553.7 226.0 550.6 225.3 547.5 224.4 C 547.1 190.5 560.7 156.7 584.6 132.6 Z" />
<path fill="#ffffff" stroke="#ffffff" stroke-width="0.09375" opacity="1.00" d=" M 210.3 143.4 C 218.2 140.8 225.9 137.6 233.7 134.9 C 236.1 140.4 237.9 146.2 239.4 152.0 C 231.0 155.4 223.5 161.4 215.1 164.3 C 211.5 158.1 210.2 150.4 210.3 143.4 Z" />
<path fill="#ffffff" stroke="#ffffff" stroke-width="0.09375" opacity="1.00" d=" M 190.6 150.4 C 191.4 144.6 197.2 141.3 202.6 141.1 C 206.6 151.0 205.6 162.6 212.9 171.1 C 206.9 172.6 199.8 172.6 195.2 167.8 C 190.8 163.3 189.8 156.4 190.6 150.4 Z" />
<path fill="#003a80" stroke="#003a80" stroke-width="0.09375" opacity="1.00" d=" M 255.3 204.1 C 295.7 187.8 340.6 179.7 383.8 188.1 C 412.7 193.7 441.0 204.5 464.8 221.9 C 454.3 232.4 443.9 242.9 433.3 253.3 C 431.9 254.3 430.5 256.5 428.6 255.4 C 422.9 253.1 417.1 251.0 411.6 248.3 C 413.8 243.2 416.4 237.1 413.3 231.7 C 408.6 224.8 398.4 222.2 390.9 226.0 C 386.7 227.9 383.5 231.4 380.6 234.9 C 343.4 228.4 304.8 227.4 268.0 236.4 C 269.7 241.3 272.1 246.6 277.0 249.0 C 279.2 250.0 280.3 251.9 281.3 254.0 C 272.4 257.8 261.4 259.4 252.7 254.3 C 248.0 251.9 244.9 247.4 242.0 243.2 C 234.5 246.6 227.2 250.5 220.2 254.9 C 221.5 256.1 222.8 257.3 224.2 258.5 C 216.6 262.1 207.9 265.4 199.6 262.4 C 186.0 258.2 181.2 239.1 189.1 228.1 C 193.6 223.1 202.5 218.7 208.2 224.3 C 216.2 222.2 223.9 218.9 231.6 215.8 C 228.3 208.3 220.9 200.0 211.8 203.0 C 208.6 204.3 207.1 199.2 209.9 197.9 C 217.9 192.2 228.5 190.1 238.1 191.9 C 245.3 193.5 250.9 198.5 255.3 204.1 M 223.3 197.8 C 230.8 203.5 236.6 211.2 239.9 220.1 C 243.9 228.6 244.4 238.9 250.9 246.1 C 255.6 251.4 263.4 252.8 270.1 251.8 C 266.0 245.3 262.2 238.5 260.0 231.1 C 256.7 221.6 254.8 211.0 247.6 203.4 C 241.6 196.8 231.6 194.9 223.3 197.8 M 210.3 229.4 C 211.4 236.7 211.9 244.4 215.8 250.8 C 223.9 246.6 231.6 241.8 239.9 238.1 C 238.5 232.2 236.7 226.3 234.1 220.8 C 226.2 223.9 218.4 227.0 210.3 229.4 M 191.4 235.3 C 190.2 242.3 191.3 251.1 197.7 255.4 C 202.2 258.7 208.1 258.2 213.3 257.2 C 211.0 253.1 208.4 249.2 207.4 244.6 C 205.8 238.8 206.1 232.3 202.8 227.0 C 198.0 227.7 192.6 230.1 191.4 235.3 Z" />
<path fill="#ffffff" stroke="#ffffff" stroke-width="0.09375" opacity="1.00" d=" M 223.3 197.8 C 231.6 194.9 241.6 196.8 247.6 203.4 C 254.8 211.0 256.7 221.6 260.0 231.1 C 262.2 238.5 266.0 245.3 270.1 251.8 C 263.4 252.8 255.6 251.4 250.9 246.1 C 244.4 238.9 243.9 228.6 239.9 220.1 C 236.6 211.2 230.8 203.5 223.3 197.8 Z" />
<path fill="#ffffff" stroke="#ffffff" stroke-width="0.09375" opacity="1.00" d=" M 613.3 232.4 C 629.2 223.4 645.8 215.3 662.1 207.0 C 674.3 214.9 687.2 223.1 696.7 234.3 C 694.6 249.7 691.0 264.9 688.6 280.2 C 687.9 283.1 688.0 286.5 685.6 288.6 C 676.7 296.2 665.6 301.3 653.9 302.6 C 651.1 303.0 648.2 302.7 645.7 301.2 C 632.1 293.8 619.8 284.1 608.5 273.6 C 605.2 270.9 607.3 266.4 607.3 262.9 C 608.9 252.7 609.4 242.0 613.3 232.4 Z" />
<path fill="#ffffff" stroke="#ffffff" stroke-width="0.09375" opacity="1.00" d=" M 709.1 228.1 C 718.8 221.5 728.2 214.2 739.0 209.4 C 754.0 217.4 768.8 225.7 783.7 233.9 C 782.4 245.1 780.3 256.1 778.3 267.1 C 777.4 270.8 777.2 275.4 773.4 277.4 C 759.8 286.4 746.2 295.5 732.6 304.6 C 731.2 305.6 729.4 305.9 727.8 305.1 C 715.9 300.8 704.6 294.4 695.4 285.7 C 693.6 284.4 694.4 282.2 694.6 280.4 C 697.5 265.3 700.2 250.2 702.9 235.1 C 703.2 231.6 706.7 230.0 709.1 228.1 Z" />
<path fill="#ffffff" stroke="#ffffff" stroke-width="0.09375" opacity="1.00" d=" M 210.3 229.4 C 218.4 227.0 226.2 223.9 234.1 220.8 C 236.7 226.3 238.5 232.2 239.9 238.1 C 231.6 241.8 223.9 246.6 215.8 250.8 C 211.9 244.4 211.4 236.7 210.3 229.4 Z" />
<path fill="#ffffff" stroke="#ffffff" stroke-width="0.09375" opacity="1.00" d=" M 191.4 235.3 C 192.6 230.1 198.0 227.7 202.8 227.0 C 206.1 232.3 205.8 238.8 207.4 244.6 C 208.4 249.2 211.0 253.1 213.3 257.2 C 208.1 258.2 202.2 258.7 197.7 255.4 C 191.3 251.1 190.2 242.3 191.4 235.3 Z" />
<path fill="#ffffff" stroke="#ffffff" stroke-width="0.09375" opacity="1.00" d=" M 547.8 231.2 C 550.1 231.4 552.4 231.6 554.8 231.8 C 556.0 248.4 561.3 264.7 570.4 278.6 C 574.9 284.5 572.1 292.4 572.3 299.2 C 557.7 279.6 549.2 255.5 547.8 231.2 Z" />
<path fill="#003a80" stroke="#003a80" stroke-width="0.09375" opacity="1.00" d=" M 320.2 276.1 C 370.4 269.2 423.2 281.9 464.7 311.2 C 453.4 322.8 441.9 334.3 430.1 345.4 C 423.9 342.9 417.6 340.5 411.4 337.9 C 413.7 332.7 416.4 326.4 413.0 321.0 C 408.3 314.0 397.9 311.5 390.5 315.5 C 386.3 317.5 383.2 321.2 380.2 324.6 C 343.2 317.4 304.5 316.9 267.9 325.9 C 269.1 328.9 270.3 332.0 272.4 334.6 C 274.8 338.2 280.1 339.0 281.1 343.6 C 273.6 346.7 265.1 347.9 257.2 345.8 C 250.4 343.8 245.6 338.3 241.9 332.6 C 234.3 335.9 227.1 339.9 220.2 344.4 C 221.5 345.6 222.8 346.7 224.1 347.9 C 218.4 350.6 212.4 353.1 206.0 352.7 C 197.3 352.9 188.8 346.8 186.7 338.4 C 184.7 331.5 184.2 323.1 189.2 317.2 C 192.6 313.0 198.0 311.8 203.0 310.6 C 204.7 311.6 206.4 312.7 208.2 313.7 C 216.2 311.4 224.1 308.5 231.7 305.0 C 228.9 299.9 225.3 294.7 219.6 292.4 C 216.2 291.5 212.7 292.4 209.3 292.8 C 206.3 288.3 211.7 285.7 215.1 284.2 C 226.4 278.8 241.6 278.7 250.6 288.4 C 252.7 290.0 254.4 294.4 257.6 292.8 C 277.5 284.2 298.7 279.0 320.2 276.1 M 222.7 287.0 C 232.2 293.4 238.0 303.6 241.6 314.2 C 244.3 321.6 245.5 330.0 251.2 335.8 C 256.0 341.0 263.5 342.2 270.2 341.2 C 264.4 333.0 260.5 323.7 257.9 314.1 C 255.3 305.4 252.2 296.1 244.7 290.3 C 238.5 285.5 230.1 284.9 222.7 287.0 M 210.2 318.6 C 211.2 325.9 212.0 333.4 215.4 340.1 C 223.8 336.4 231.4 331.1 239.8 327.5 C 238.5 321.6 236.6 315.8 234.1 310.2 C 226.2 313.1 218.4 316.5 210.2 318.6 M 193.5 320.5 C 189.3 325.8 190.6 333.4 192.8 339.3 C 196.4 346.7 205.7 349.0 213.1 346.7 C 210.6 341.7 207.4 336.8 206.6 331.1 C 205.5 326.4 205.9 320.9 202.8 316.9 C 199.5 316.0 195.9 318.3 193.5 320.5 Z" />
<path fill="#ffffff" stroke="#ffffff" stroke-width="0.09375" opacity="1.00" d=" M 578.8 283.7 C 586.7 281.1 594.6 278.3 602.8 276.7 C 614.8 287.4 627.1 298.1 641.3 305.6 C 644.4 307.4 648.5 308.6 649.6 312.4 C 652.5 320.2 654.6 328.5 654.2 336.9 C 650.4 339.5 645.3 339.3 641.0 340.7 C 635.9 341.4 630.7 344.6 625.7 342.3 C 607.7 334.4 591.3 322.5 578.8 307.3 C 577.5 299.6 579.2 291.6 578.8 283.7 Z" />
<path fill="#ffffff" stroke="#ffffff" stroke-width="0.09375" opacity="1.00" d=" M 780.1 280.2 C 784.0 276.9 788.8 280.1 793.0 280.8 C 791.4 286.3 787.9 291.0 784.8 295.8 C 769.3 318.8 746.2 336.6 720.0 345.7 C 716.6 343.1 713.4 340.3 710.5 337.1 C 716.6 329.7 721.6 321.2 728.6 314.6 C 745.7 303.0 763.0 291.7 780.1 280.2 Z" />
<path fill="#ffffff" stroke="#ffffff" stroke-width="0.09375" opacity="1.00" d=" M 222.7 287.0 C 230.1 284.9 238.5 285.5 244.7 290.3 C 252.2 296.1 255.3 305.4 257.9 314.1 C 260.5 323.7 264.4 333.0 270.2 341.2 C 263.5 342.2 256.0 341.0 251.2 335.8 C 245.5 330.0 244.3 321.6 241.6 314.2 C 238.0 303.6 232.2 293.4 222.7 287.0 Z" />
<path fill="#ffffff" stroke="#ffffff" stroke-width="0.09375" opacity="1.00" d=" M 210.2 318.6 C 218.4 316.5 226.2 313.1 234.1 310.2 C 236.6 315.8 238.5 321.6 239.8 327.5 C 231.4 331.1 223.8 336.4 215.4 340.1 C 212.0 333.4 211.2 325.9 210.2 318.6 Z" />
<path fill="#ffffff" stroke="#ffffff" stroke-width="0.09375" opacity="1.00" d=" M 193.5 320.5 C 195.9 318.3 199.5 316.0 202.8 316.9 C 205.9 320.9 205.5 326.4 206.6 331.1 C 207.4 336.8 210.6 341.7 213.1 346.7 C 205.7 349.0 196.4 346.7 192.8 339.3 C 190.6 333.4 189.3 325.8 193.5 320.5 Z" />
<path fill="#ffffff" stroke="#ffffff" stroke-width="0.09375" opacity="1.00" d=" M 639.9 347.4 C 649.2 344.9 658.5 342.7 668.0 340.9 C 680.4 340.2 692.8 341.6 705.1 342.8 C 708.5 342.7 710.6 345.7 712.5 348.0 C 689.0 354.7 663.4 354.4 639.9 347.4 Z" />
<path fill="#ffffff" stroke="#ffffff" stroke-width="0.09375" opacity="1.00" d=" M 155.4 391.2 C 267.8 391.0 380.2 391.0 492.6 391.2 C 492.6 521.7 492.6 652.2 492.6 782.7 C 483.1 782.8 473.5 782.6 464.0 782.5 C 459.6 782.4 456.2 779.4 452.4 777.6 C 407.0 753.1 358.2 734.4 307.7 723.6 C 275.8 717.7 244.3 706.5 218.3 686.7 C 180.1 658.2 157.0 611.5 155.4 564.0 C 155.4 506.4 155.4 448.8 155.4 391.2 M 263.8 392.6 C 270.3 433.5 285.8 472.4 303.0 509.9 C 269.7 485.9 234.6 464.5 199.0 444.1 C 197.3 443.2 195.3 442.8 193.4 442.5 C 193.1 447.3 198.5 448.2 201.7 450.3 C 232.8 468.0 262.0 488.9 290.9 510.1 C 293.8 512.2 296.6 514.4 299.2 517.0 C 284.7 512.3 270.3 506.5 254.9 506.3 C 278.1 522.0 299.6 540.1 320.1 559.3 C 317.2 559.6 314.4 560.0 311.5 560.4 C 325.4 571.4 340.3 581.4 352.1 594.7 C 349.7 594.3 347.3 593.9 345.0 593.4 C 347.4 598.1 350.2 602.7 351.0 608.0 C 328.6 594.4 305.5 581.8 282.0 570.0 C 277.9 568.0 274.0 565.5 269.5 564.4 C 268.6 568.0 272.4 569.5 274.6 571.3 C 284.0 578.1 293.4 585.2 300.3 594.6 C 292.3 591.4 284.6 587.2 276.0 585.7 C 274.1 585.1 272.3 586.0 270.7 586.8 C 291.3 598.4 307.6 616.9 317.8 638.2 C 326.3 658.4 334.8 678.8 346.5 697.5 C 350.6 704.4 356.7 710.0 362.5 715.5 C 377.7 728.9 397.1 740.2 418.0 738.8 C 428.3 739.1 437.6 733.7 445.2 727.2 C 455.9 718.2 462.2 704.8 463.5 691.0 C 466.5 667.7 457.4 644.9 446.2 624.9 C 432.1 600.3 413.9 578.1 393.6 558.4 C 360.0 528.3 332.7 491.9 309.5 453.4 C 308.1 453.4 306.7 453.3 305.4 453.3 C 304.2 472.8 310.3 491.7 314.5 510.6 C 307.8 504.6 303.8 496.4 299.5 488.6 C 284.9 458.9 275.4 427.0 266.7 395.2 C 266.4 393.7 264.8 393.4 263.8 392.6 Z" />
<path fill="#ffffff" stroke="#ffffff" stroke-width="0.09375" opacity="1.00" d=" M 507.8 391.1 C 620.1 391.1 732.5 391.0 844.8 391.1 C 844.7 399.0 844.8 406.8 844.7 414.6 C 838.4 415.5 832.0 416.5 826.2 419.3 C 811.8 425.6 802.0 439.0 787.7 445.7 C 772.1 452.8 753.0 452.8 737.3 445.6 C 722.1 438.3 711.7 423.3 695.5 417.8 C 676.9 411.7 654.8 413.8 639.3 426.3 C 627.5 435.4 616.5 446.7 601.3 449.6 C 588.3 451.7 574.3 451.6 562.3 445.7 C 548.3 439.1 538.4 426.1 524.3 419.6 C 519.2 417.1 513.6 415.9 508.0 415.0 C 507.6 407.1 507.8 399.1 507.8 391.1 Z" />
<path fill="#003a80" stroke="#003a80" stroke-width="0.09375" opacity="1.00" d=" M 263.8 392.6 C 264.8 393.4 266.4 393.7 266.7 395.2 C 275.4 427.0 284.9 458.9 299.5 488.6 C 303.8 496.4 307.8 504.6 314.5 510.6 C 310.3 491.7 304.2 472.8 305.4 453.3 C 306.7 453.3 308.1 453.4 309.5 453.4 C 332.7 491.9 360.0 528.3 393.6 558.4 C 413.9 578.1 432.1 600.3 446.2 624.9 C 457.4 644.9 466.5 667.7 463.5 691.0 C 462.2 704.8 455.9 718.2 445.2 727.2 C 437.6 733.7 428.3 739.1 418.0 738.8 C 397.1 740.2 377.7 728.9 362.5 715.5 C 356.7 710.0 350.6 704.4 346.5 697.5 C 334.8 678.8 326.3 658.4 317.8 638.2 C 307.6 616.9 291.3 598.4 270.7 586.8 C 272.3 586.0 274.1 585.1 276.0 585.7 C 284.6 587.2 292.3 591.4 300.3 594.6 C 293.4 585.2 284.0 578.1 274.6 571.3 C 272.4 569.5 268.6 568.0 269.5 564.4 C 274.0 565.5 277.9 568.0 282.0 570.0 C 305.5 581.8 328.6 594.4 351.0 608.0 C 350.2 602.7 347.4 598.1 345.0 593.4 C 347.3 593.9 349.7 594.3 352.1 594.7 C 340.3 581.4 325.4 571.4 311.5 560.4 C 314.4 560.0 317.2 559.6 320.1 559.3 C 299.6 540.1 278.1 522.0 254.9 506.3 C 270.3 506.5 284.7 512.3 299.2 517.0 C 296.6 514.4 293.8 512.2 290.9 510.1 C 262.0 488.9 232.8 468.0 201.7 450.3 C 198.5 448.2 193.1 447.3 193.4 442.5 C 195.3 442.8 197.3 443.2 199.0 444.1 C 234.6 464.5 269.7 485.9 303.0 509.9 C 285.8 472.4 270.3 433.5 263.8 392.6 M 324.4 534.4 C 319.3 536.9 320.0 545.0 325.4 546.6 C 330.3 548.6 336.0 543.1 334.1 538.2 C 332.8 534.3 327.9 532.4 324.4 534.4 M 376.2 609.2 C 376.2 610.3 376.2 611.4 376.2 612.5 C 390.3 611.6 404.5 613.9 417.7 618.9 C 417.6 617.7 417.6 616.6 417.6 615.5 C 404.6 610.2 390.2 607.5 376.2 609.2 M 355.0 612.2 C 355.5 617.9 358.9 622.7 361.5 627.6 C 369.1 640.7 377.8 653.3 388.0 664.6 C 388.7 664.3 390.2 663.8 390.9 663.6 C 390.6 659.6 387.3 657.0 384.9 654.0 C 374.4 641.4 364.9 627.7 358.5 612.5 C 357.3 612.4 356.2 612.3 355.0 612.2 M 373.5 667.2 C 370.6 680.9 370.9 695.2 374.5 708.7 C 375.6 708.7 376.7 708.7 377.8 708.7 C 374.7 695.0 374.3 680.7 376.8 667.0 C 375.7 667.0 374.6 667.1 373.5 667.2 M 403.3 670.1 C 403.0 671.1 402.6 672.0 402.2 673.0 C 414.5 679.7 425.6 688.6 434.1 699.7 C 434.8 698.8 435.4 697.9 436.1 697.0 C 427.5 685.7 416.4 676.0 403.3 670.1 Z" />
<path fill="#ffffff" stroke="#ffffff" stroke-width="0.09375" opacity="1.00" d=" M 657.4 471.5 C 673.3 467.3 691.5 468.4 705.6 477.4 C 714.9 483.3 722.5 491.4 731.8 497.3 C 746.3 506.6 764.9 507.5 781.2 503.0 C 799.7 497.4 810.9 479.7 828.8 472.9 C 833.9 471.0 839.3 469.5 844.8 469.6 C 844.7 489.7 844.8 509.9 844.7 530.0 C 838.1 531.0 831.3 532.2 825.2 535.3 C 813.5 540.6 805.0 550.5 794.4 557.4 C 778.5 567.8 757.4 569.3 739.8 562.2 C 723.7 555.7 713.4 540.1 697.1 533.9 C 682.6 528.4 665.9 528.6 651.5 534.5 C 636.7 540.7 626.9 554.6 612.3 561.3 C 597.1 568.3 578.7 568.2 563.4 561.6 C 548.6 555.2 538.7 541.5 524.0 535.0 C 518.9 532.5 513.2 531.5 507.7 530.2 C 507.8 510.0 507.6 489.9 507.8 469.7 C 513.1 470.4 518.4 471.5 523.2 473.8 C 539.1 480.7 549.7 496.0 566.1 502.0 C 579.1 506.6 593.7 506.8 606.9 502.7 C 626.2 496.6 637.7 477.0 657.4 471.5 Z" />
<path fill="#ffffff" stroke="#ffffff" stroke-width="0.09375" opacity="1.00" d=" M 324.4 534.4 C 327.9 532.4 332.8 534.3 334.1 538.2 C 336.0 543.1 330.3 548.6 325.4 546.6 C 320.0 545.0 319.3 536.9 324.4 534.4 Z" />
<path fill="#ffffff" stroke="#ffffff" stroke-width="0.09375" opacity="1.00" d=" M 507.8 585.2 C 523.2 586.5 535.8 596.1 547.1 605.9 C 557.7 614.7 570.9 621.3 585.0 620.8 C 594.7 621.3 604.7 620.1 613.4 615.5 C 624.2 610.2 632.5 601.1 642.3 594.3 C 657.4 583.8 677.7 582.2 695.0 587.8 C 712.7 593.6 723.4 610.7 740.7 617.3 C 750.5 621.5 761.4 621.1 771.8 620.5 C 785.9 619.0 797.9 610.4 808.3 601.4 C 817.9 593.0 829.6 586.1 842.6 585.2 C 837.7 610.1 827.7 634.1 812.6 654.6 C 808.0 660.6 803.4 666.9 797.0 671.1 C 776.3 686.2 745.5 685.6 725.7 669.3 C 715.3 661.0 705.4 651.3 692.3 647.7 C 678.1 644.0 662.3 644.5 649.1 651.1 C 634.5 658.3 624.6 672.5 609.1 678.1 C 591.3 684.7 570.0 682.9 554.2 671.9 C 544.7 665.5 536.8 656.9 526.4 651.7 C 520.7 648.5 514.3 647.0 507.9 645.8 C 507.6 625.6 507.8 605.4 507.8 585.2 Z" />
<path fill="#ffffff" stroke="#ffffff" stroke-width="0.09375" opacity="1.00" d=" M 376.2 609.2 C 390.2 607.5 404.6 610.2 417.6 615.5 C 417.6 616.6 417.6 617.7 417.7 618.9 C 404.5 613.9 390.3 611.6 376.2 612.5 C 376.2 611.4 376.2 610.3 376.2 609.2 Z" />
<path fill="#ffffff" stroke="#ffffff" stroke-width="0.09375" opacity="1.00" d=" M 355.0 612.2 C 356.2 612.3 357.3 612.4 358.5 612.5 C 364.9 627.7 374.4 641.4 384.9 654.0 C 387.3 657.0 390.6 659.6 390.9 663.6 C 390.2 663.8 388.7 664.3 388.0 664.6 C 377.8 653.3 369.1 640.7 361.5 627.6 C 358.9 622.7 355.5 617.9 355.0 612.2 Z" />
<path fill="#ffffff" stroke="#ffffff" stroke-width="0.09375" opacity="1.00" d=" M 373.5 667.2 C 374.6 667.1 375.7 667.0 376.8 667.0 C 374.3 680.7 374.7 695.0 377.8 708.7 C 376.7 708.7 375.6 708.7 374.5 708.7 C 370.9 695.2 370.6 680.9 373.5 667.2 Z" />
<path fill="#ffffff" stroke="#ffffff" stroke-width="0.09375" opacity="1.00" d=" M 403.3 670.1 C 416.4 676.0 427.5 685.7 436.1 697.0 C 435.4 697.9 434.8 698.8 434.1 699.7 C 425.6 688.6 414.5 679.7 402.2 673.0 C 402.6 672.0 403.0 671.1 403.3 670.1 Z" />
<path fill="#ffffff" stroke="#ffffff" stroke-width="0.09375" opacity="1.00" d=" M 643.8 708.8 C 666.4 694.3 699.0 698.0 717.4 717.8 C 706.3 721.2 694.8 723.1 683.5 725.7 C 634.0 737.5 586.4 756.4 541.8 780.9 C 539.8 782.1 537.4 782.6 535.1 782.5 C 526.0 782.5 517.0 782.8 507.9 782.7 C 507.6 755.4 507.8 728.0 507.8 700.6 C 524.1 702.0 537.1 712.8 549.1 722.9 C 565.9 737.2 590.7 740.5 610.9 732.1 C 623.5 726.8 632.5 716.1 643.8 708.8 Z" />
<path fill="#ffffff" stroke="#ffffff" stroke-width="0.09375" opacity="1.00" d=" M 20.8 711.0 C 28.9 712.5 36.7 715.3 44.8 717.3 C 88.9 728.9 133.8 737.6 179.1 742.8 C 156.5 747.5 133.7 751.5 111.1 756.1 C 108.7 756.4 107.6 758.9 107.6 761.1 C 104.8 794.6 101.7 828.1 99.1 861.6 C 70.1 856.8 42.3 846.7 14.6 837.3 C 25.3 818.8 36.7 800.8 47.4 782.4 C 50.2 778.3 46.6 773.8 45.3 769.9 C 37.3 750.2 28.1 730.9 20.8 711.0 Z" />
<path fill="#ffffff" stroke="#ffffff" stroke-width="0.09375" opacity="1.00" d=" M 959.6 715.6 C 965.6 714.0 971.5 711.9 977.7 710.9 C 968.5 732.4 959.6 753.9 950.3 775.3 C 949.4 777.4 948.8 779.8 950.2 781.8 C 961.6 800.5 973.6 818.9 984.8 837.7 C 956.5 846.8 928.2 856.9 898.8 861.6 C 896.3 828.4 893.1 795.2 890.7 762.0 C 890.5 759.7 889.8 756.7 887.2 756.1 C 864.8 751.6 842.3 747.8 820.0 742.9 C 867.1 736.9 913.8 728.1 959.6 715.6 Z" />
<path fill="#ffffff" stroke="#ffffff" stroke-width="0.09375" opacity="1.00" d=" M 146.0 760.6 C 166.8 756.0 187.9 752.5 208.8 748.2 C 208.4 754.8 207.8 761.3 207.5 767.9 C 186.9 766.2 166.4 763.3 146.0 760.6 Z" />
<path fill="#ffffff" stroke="#ffffff" stroke-width="0.09375" opacity="1.00" d=" M 789.4 748.3 C 807.6 751.7 825.8 755.5 844.0 758.7 C 846.0 759.0 847.8 759.8 849.6 760.8 C 830.0 763.7 810.3 766.1 790.7 768.0 C 790.2 761.4 789.4 754.9 789.4 748.3 Z" />
<path fill="#ffffff" stroke="#ffffff" stroke-width="0.09375" opacity="1.00" d=" M 590.0 792.1 C 687.0 789.3 784.1 781.8 880.2 767.4 C 883.8 812.6 888.4 857.8 891.5 903.0 C 799.0 917.9 705.5 925.4 612.0 929.1 C 586.0 929.9 560.0 930.7 534.0 930.7 C 510.4 931.7 486.6 931.5 463.0 930.7 C 402.7 930.4 342.5 927.8 282.3 923.3 C 223.4 918.5 164.5 912.8 106.3 902.8 C 110.4 857.6 113.8 812.5 117.8 767.3 C 257.4 788.5 398.9 794.5 540.0 793.3 C 556.6 792.1 573.3 793.1 590.0 792.1 M 149.3 803.4 C 144.8 810.7 143.2 819.5 142.6 828.0 C 142.3 834.7 143.2 842.0 147.7 847.3 C 151.8 852.4 158.2 854.6 162.7 859.3 C 166.3 862.5 164.5 870.6 159.0 870.0 C 152.0 869.9 147.6 863.6 143.5 858.8 C 140.0 865.0 136.3 871.3 134.1 878.0 C 138.9 888.7 152.2 896.0 163.7 891.7 C 172.2 887.9 176.1 878.5 178.0 869.9 C 179.9 860.5 181.2 849.7 175.8 841.2 C 171.9 835.0 165.2 831.8 159.7 827.3 C 156.0 824.5 157.1 817.2 162.0 816.5 C 168.7 816.6 172.9 822.4 176.5 827.3 C 179.6 822.3 181.9 816.9 184.6 811.6 C 185.2 810.0 186.4 808.2 185.5 806.5 C 181.5 799.1 173.6 793.5 165.0 793.6 C 158.4 793.5 152.7 798.1 149.3 803.4 M 811.1 798.4 C 815.3 830.2 820.3 862.0 824.6 893.8 C 835.3 892.8 847.9 893.2 856.0 884.9 C 862.6 877.4 863.3 866.6 863.3 857.0 C 862.4 842.3 860.8 827.3 855.3 813.5 C 852.0 805.4 845.9 797.1 836.7 795.8 C 828.1 795.0 819.6 797.5 811.1 798.4 M 212.4 800.5 C 205.9 802.0 201.0 807.3 197.8 812.9 C 192.2 823.1 189.6 834.7 188.2 846.2 C 186.7 860.4 185.9 875.6 192.2 888.8 C 195.4 895.8 203.1 901.0 211.0 899.2 C 220.2 897.0 225.6 888.1 229.0 880.0 C 234.4 866.7 235.7 852.2 236.4 838.0 C 235.9 827.8 235.5 817.0 229.7 808.2 C 226.1 802.5 219.1 798.8 212.4 800.5 M 763.5 803.9 C 766.9 835.9 770.7 867.8 774.3 899.8 C 787.4 898.9 800.6 897.0 813.7 895.6 C 813.2 888.1 812.1 880.8 811.3 873.3 C 802.8 873.8 794.4 875.5 785.9 875.8 C 785.1 870.4 784.4 865.1 784.2 859.7 C 789.1 859.1 794.0 858.5 798.9 858.0 C 798.3 850.7 797.3 843.3 796.4 836.0 C 791.5 836.2 786.6 836.8 781.7 837.5 C 780.8 833.3 780.3 829.0 780.2 824.8 C 788.4 823.8 796.6 823.0 804.8 821.9 C 804.3 814.4 803.6 806.9 802.3 799.4 C 789.4 800.9 776.5 802.5 763.5 803.9 M 247.7 805.4 C 246.2 825.3 244.0 845.1 242.6 865.0 C 242.2 876.2 242.2 888.5 248.9 898.0 C 254.4 906.0 266.8 907.5 274.1 901.1 C 283.0 893.5 285.6 881.3 287.2 870.2 C 289.2 850.0 290.5 829.7 292.6 809.5 C 287.9 808.0 282.9 808.6 278.1 807.9 C 276.4 826.9 274.8 845.9 273.0 864.9 C 272.2 870.3 271.6 876.5 267.3 880.4 C 263.7 883.3 258.9 879.9 258.1 875.9 C 255.9 866.8 258.0 857.3 258.6 848.1 C 259.6 834.2 261.5 820.4 262.0 806.5 C 257.3 805.8 252.5 805.4 247.7 805.4 M 713.3 808.6 C 713.6 816.3 714.5 824.0 715.2 831.6 C 720.0 831.5 724.7 831.0 729.3 830.5 C 732.3 854.8 733.2 879.4 736.5 903.6 C 741.0 903.2 745.5 902.8 750.0 902.4 C 748.8 878.2 745.5 854.2 743.9 830.1 C 747.8 827.6 753.2 829.0 757.7 828.0 C 757.6 821.4 756.6 814.8 756.3 808.2 C 756.3 806.9 756.1 804.4 754.1 804.9 C 740.5 806.2 726.9 807.3 713.3 808.6 M 690.5 810.6 C 693.0 842.6 695.0 874.6 697.9 906.5 C 702.6 906.4 707.3 906.1 712.0 905.6 C 710.2 873.6 706.9 841.6 705.2 809.5 C 700.3 809.4 695.3 809.2 690.5 810.6 M 298.6 833.1 C 303.3 833.2 307.9 833.5 312.6 833.7 C 311.4 858.2 309.0 882.6 308.2 907.0 C 312.9 907.5 317.6 908.0 322.4 907.6 C 323.4 883.4 325.6 859.3 326.8 835.0 C 331.6 835.1 336.4 835.3 341.2 835.7 C 341.6 827.9 342.6 820.3 342.6 812.5 C 328.5 811.4 314.4 810.6 300.3 809.7 C 299.0 817.3 299.0 825.3 298.6 833.1 M 666.6 811.8 C 667.6 828.2 668.8 844.6 669.4 861.1 C 663.2 844.8 655.3 829.3 648.3 813.4 C 644.0 813.2 639.6 813.2 635.3 813.4 C 637.0 845.5 638.9 877.7 640.9 909.8 C 645.4 909.8 649.9 909.8 654.4 909.4 C 653.9 891.9 652.0 874.4 651.5 856.9 C 658.6 873.8 666.1 890.6 673.9 907.2 C 677.1 909.4 681.8 907.5 685.6 907.6 C 684.5 875.5 682.0 843.4 680.4 811.4 C 675.8 811.2 671.2 811.3 666.6 811.8 M 350.6 813.3 C 348.9 845.4 347.6 877.5 346.0 909.7 C 350.8 909.8 355.7 909.8 360.5 909.7 C 361.5 897.2 361.5 884.7 362.4 872.2 C 367.7 872.2 372.9 872.4 378.2 872.9 C 377.9 885.5 376.7 898.1 376.8 910.7 C 381.3 911.3 385.9 911.4 390.5 911.7 C 392.6 904.3 390.9 896.5 392.2 889.0 C 393.0 864.3 394.5 839.6 395.3 814.8 C 390.5 814.5 385.7 814.2 380.9 814.3 C 380.5 825.9 379.6 837.4 379.4 848.9 C 374.1 849.6 368.7 849.1 363.4 848.3 C 364.0 836.7 364.6 825.0 365.0 813.4 C 360.2 813.2 355.4 813.2 350.6 813.3 M 611.5 814.4 C 612.0 832.6 612.6 850.8 613.5 869.0 C 613.5 875.1 613.9 881.9 610.3 887.2 C 607.9 890.6 602.5 889.7 600.9 886.2 C 596.0 877.2 598.2 866.7 596.9 857.0 C 596.7 843.1 595.7 829.2 595.6 815.3 C 590.6 815.1 585.6 815.3 580.6 815.7 C 581.5 827.4 581.4 839.2 582.3 851.0 C 583.0 869.0 581.2 888.8 591.2 904.8 C 596.8 914.5 612.1 915.8 619.3 907.3 C 625.7 899.8 627.4 889.6 627.8 880.0 C 628.0 858.1 626.6 836.1 625.9 814.2 C 621.1 814.2 616.3 814.2 611.5 814.4 M 405.4 815.3 C 404.3 847.4 403.8 879.5 402.7 911.6 C 416.0 911.9 429.2 913.1 442.5 912.6 C 442.7 905.3 442.9 897.9 442.7 890.5 C 434.4 890.3 426.1 889.8 417.7 889.7 C 417.2 884.2 417.8 878.7 418.2 873.2 C 423.1 873.4 428.1 873.5 433.1 873.4 C 433.2 866.0 433.5 858.5 433.5 851.1 C 428.5 851.2 423.6 851.1 418.6 850.8 C 418.5 846.6 418.7 842.4 419.0 838.2 C 427.3 838.2 435.6 838.6 443.9 838.8 C 444.6 831.3 444.6 823.8 444.4 816.2 C 431.4 815.8 418.4 815.3 405.4 815.3 M 453.8 816.3 C 453.2 830.5 453.8 844.8 453.3 859.0 C 453.7 877.1 452.2 895.2 453.2 913.3 C 457.6 913.3 462.0 913.3 466.4 913.3 C 467.0 896.2 466.2 879.1 467.0 862.1 C 474.0 879.0 479.4 896.6 486.4 913.5 C 490.1 913.5 493.9 913.5 497.7 913.5 C 498.4 881.3 498.4 849.1 498.6 817.0 C 494.0 816.6 489.5 816.6 484.9 816.8 C 484.8 833.3 484.7 849.7 484.7 866.2 C 479.0 849.5 472.9 832.9 466.1 816.6 C 462.0 816.5 457.9 816.4 453.8 816.3 M 508.7 816.8 C 508.6 849.0 509.5 881.3 509.8 913.5 C 519.1 913.1 529.1 914.9 537.9 910.9 C 545.9 906.9 549.6 898.0 551.3 889.7 C 554.0 876.0 553.9 861.9 552.4 848.1 C 551.0 837.8 548.5 825.9 539.3 819.7 C 530.0 814.2 518.8 817.2 508.7 816.8 Z" />
<path fill="#003a80" stroke="#003a80" stroke-width="0.09375" opacity="1.00" d=" M 149.3 803.4 C 152.7 798.1 158.4 793.5 165.0 793.6 C 173.6 793.5 181.5 799.1 185.5 806.5 C 186.4 808.2 185.2 810.0 184.6 811.6 C 181.9 816.9 179.6 822.3 176.5 827.3 C 172.9 822.4 168.7 816.6 162.0 816.5 C 157.1 817.2 156.0 824.5 159.7 827.3 C 165.2 831.8 171.9 835.0 175.8 841.2 C 181.2 849.7 179.9 860.5 178.0 869.9 C 176.1 878.5 172.2 887.9 163.7 891.7 C 152.2 896.0 138.9 888.7 134.1 878.0 C 136.3 871.3 140.0 865.0 143.5 858.8 C 147.6 863.6 152.0 869.9 159.0 870.0 C 164.5 870.6 166.3 862.5 162.7 859.3 C 158.2 854.6 151.8 852.4 147.7 847.3 C 143.2 842.0 142.3 834.7 142.6 828.0 C 143.2 819.5 144.8 810.7 149.3 803.4 Z" />
<path fill="#003a80" stroke="#003a80" stroke-width="0.09375" opacity="1.00" d=" M 811.1 798.4 C 819.6 797.5 828.1 795.0 836.7 795.8 C 845.9 797.1 852.0 805.4 855.3 813.5 C 860.8 827.3 862.4 842.3 863.3 857.0 C 863.3 866.6 862.6 877.4 856.0 884.9 C 847.9 893.2 835.3 892.8 824.6 893.8 C 820.3 862.0 815.3 830.2 811.1 798.4 M 828.6 819.1 C 830.6 835.8 833.5 852.4 835.6 869.1 C 841.4 869.7 847.5 866.0 847.8 859.9 C 848.8 848.1 847.2 836.0 843.0 825.0 C 840.8 819.2 834.2 817.4 828.6 819.1 Z" />
<path fill="#003a80" stroke="#003a80" stroke-width="0.09375" opacity="1.00" d=" M 212.4 800.5 C 219.1 798.8 226.1 802.5 229.7 808.2 C 235.5 817.0 235.9 827.8 236.4 838.0 C 235.7 852.2 234.4 866.7 229.0 880.0 C 225.6 888.1 220.2 897.0 211.0 899.2 C 203.1 901.0 195.4 895.8 192.2 888.8 C 185.9 875.6 186.7 860.4 188.2 846.2 C 189.6 834.7 192.2 823.1 197.8 812.9 C 201.0 807.3 205.9 802.0 212.4 800.5 M 211.4 824.3 C 208.5 826.3 207.1 829.7 205.9 832.9 C 202.6 843.5 201.8 854.8 202.5 865.9 C 202.8 870.1 204.4 875.3 209.0 876.4 C 215.2 875.5 217.0 868.4 218.5 863.3 C 220.7 852.4 222.6 840.9 220.1 829.9 C 219.6 826.0 215.4 821.6 211.4 824.3 Z" />
<path fill="#003a80" stroke="#003a80" stroke-width="0.09375" opacity="1.00" d=" M 763.5 803.9 C 776.5 802.5 789.4 800.9 802.3 799.4 C 803.6 806.9 804.3 814.4 804.8 821.9 C 796.6 823.0 788.4 823.8 780.2 824.8 C 780.3 829.0 780.8 833.3 781.7 837.5 C 786.6 836.8 791.5 836.2 796.4 836.0 C 797.3 843.3 798.3 850.7 798.9 858.0 C 794.0 858.5 789.1 859.1 784.2 859.7 C 784.4 865.1 785.1 870.4 785.9 875.8 C 794.4 875.5 802.8 873.8 811.3 873.3 C 812.1 880.8 813.2 888.1 813.7 895.6 C 800.6 897.0 787.4 898.9 774.3 899.8 C 770.7 867.8 766.9 835.9 763.5 803.9 Z" />
<path fill="#003a80" stroke="#003a80" stroke-width="0.09375" opacity="1.00" d=" M 247.7 805.4 C 252.5 805.4 257.3 805.8 262.0 806.5 C 261.5 820.4 259.6 834.2 258.6 848.1 C 258.0 857.3 255.9 866.8 258.1 875.9 C 258.9 879.9 263.7 883.3 267.3 880.4 C 271.6 876.5 272.2 870.3 273.0 864.9 C 274.8 845.9 276.4 826.9 278.1 807.9 C 282.9 808.6 287.9 808.0 292.6 809.5 C 290.5 829.7 289.2 850.0 287.2 870.2 C 285.6 881.3 283.0 893.5 274.1 901.1 C 266.8 907.5 254.4 906.0 248.9 898.0 C 242.2 888.5 242.2 876.2 242.6 865.0 C 244.0 845.1 246.2 825.3 247.7 805.4 Z" />
<path fill="#003a80" stroke="#003a80" stroke-width="0.09375" opacity="1.00" d=" M 713.3 808.6 C 726.9 807.3 740.5 806.2 754.1 804.9 C 756.1 804.4 756.3 806.9 756.3 808.2 C 756.6 814.8 757.6 821.4 757.7 828.0 C 753.2 829.0 747.8 827.6 743.9 830.1 C 745.5 854.2 748.8 878.2 750.0 902.4 C 745.5 902.8 741.0 903.2 736.5 903.6 C 733.2 879.4 732.3 854.8 729.3 830.5 C 724.7 831.0 720.0 831.5 715.2 831.6 C 714.5 824.0 713.6 816.3 713.3 808.6 Z" />
<path fill="#003a80" stroke="#003a80" stroke-width="0.09375" opacity="1.00" d=" M 690.5 810.6 C 695.3 809.2 700.3 809.4 705.2 809.5 C 706.9 841.6 710.2 873.6 712.0 905.6 C 707.3 906.1 702.6 906.4 697.9 906.5 C 695.0 874.6 693.0 842.6 690.5 810.6 Z" />
<path fill="#003a80" stroke="#003a80" stroke-width="0.09375" opacity="1.00" d=" M 298.6 833.1 C 299.0 825.3 299.0 817.3 300.3 809.7 C 314.4 810.6 328.5 811.4 342.6 812.5 C 342.6 820.3 341.6 827.9 341.2 835.7 C 336.4 835.3 331.6 835.1 326.8 835.0 C 325.6 859.3 323.4 883.4 322.4 907.6 C 317.6 908.0 312.9 907.5 308.2 907.0 C 309.0 882.6 311.4 858.2 312.6 833.7 C 307.9 833.5 303.3 833.2 298.6 833.1 Z" />
<path fill="#003a80" stroke="#003a80" stroke-width="0.09375" opacity="1.00" d=" M 666.6 811.8 C 671.2 811.3 675.8 811.2 680.4 811.4 C 682.0 843.4 684.5 875.5 685.6 907.6 C 681.8 907.5 677.1 909.4 673.9 907.2 C 666.1 890.6 658.6 873.8 651.5 856.9 C 652.0 874.4 653.9 891.9 654.4 909.4 C 649.9 909.8 645.4 909.8 640.9 909.8 C 638.9 877.7 637.0 845.5 635.3 813.4 C 639.6 813.2 644.0 813.2 648.3 813.4 C 655.3 829.3 663.2 844.8 669.4 861.1 C 668.8 844.6 667.6 828.2 666.6 811.8 Z" />
<path fill="#003a80" stroke="#003a80" stroke-width="0.09375" opacity="1.00" d=" M 350.6 813.3 C 355.4 813.2 360.2 813.2 365.0 813.4 C 364.6 825.0 364.0 836.7 363.4 848.3 C 368.7 849.1 374.1 849.6 379.4 848.9 C 379.6 837.4 380.5 825.9 380.9 814.3 C 385.7 814.2 390.5 814.5 395.3 814.8 C 394.5 839.6 393.0 864.3 392.2 889.0 C 390.9 896.5 392.6 904.3 390.5 911.7 C 385.9 911.4 381.3 911.3 376.8 910.7 C 376.7 898.1 377.9 885.5 378.2 872.9 C 372.9 872.4 367.7 872.2 362.4 872.2 C 361.5 884.7 361.5 897.2 360.5 909.7 C 355.7 909.8 350.8 909.8 346.0 909.7 C 347.6 877.5 348.9 845.4 350.6 813.3 Z" />
<path fill="#003a80" stroke="#003a80" stroke-width="0.09375" opacity="1.00" d=" M 611.5 814.4 C 616.3 814.2 621.1 814.2 625.9 814.2 C 626.6 836.1 628.0 858.1 627.8 880.0 C 627.4 889.6 625.7 899.8 619.3 907.3 C 612.1 915.8 596.8 914.5 591.2 904.8 C 581.2 888.8 583.0 869.0 582.3 851.0 C 581.4 839.2 581.5 827.4 580.6 815.7 C 585.6 815.3 590.6 815.1 595.6 815.3 C 595.7 829.2 596.7 843.1 596.9 857.0 C 598.2 866.7 596.0 877.2 600.9 886.2 C 602.5 889.7 607.9 890.6 610.3 887.2 C 613.9 881.9 613.5 875.1 613.5 869.0 C 612.6 850.8 612.0 832.6 611.5 814.4 Z" />
<path fill="#003a80" stroke="#003a80" stroke-width="0.09375" opacity="1.00" d=" M 405.4 815.3 C 418.4 815.3 431.4 815.8 444.4 816.2 C 444.6 823.8 444.6 831.3 443.9 838.8 C 435.6 838.6 427.3 838.2 419.0 838.2 C 418.7 842.4 418.5 846.6 418.6 850.8 C 423.6 851.1 428.5 851.2 433.5 851.1 C 433.5 858.5 433.2 866.0 433.1 873.4 C 428.1 873.5 423.1 873.4 418.2 873.2 C 417.8 878.7 417.2 884.2 417.7 889.7 C 426.1 889.8 434.4 890.3 442.7 890.5 C 442.9 897.9 442.7 905.3 442.5 912.6 C 429.2 913.1 416.0 911.9 402.7 911.6 C 403.8 879.5 404.3 847.4 405.4 815.3 Z" />
<path fill="#003a80" stroke="#003a80" stroke-width="0.09375" opacity="1.00" d=" M 453.8 816.3 C 457.9 816.4 462.0 816.5 466.1 816.6 C 472.9 832.9 479.0 849.5 484.7 866.2 C 484.7 849.7 484.8 833.3 484.9 816.8 C 489.5 816.6 494.0 816.6 498.6 817.0 C 498.4 849.1 498.4 881.3 497.7 913.5 C 493.9 913.5 490.1 913.5 486.4 913.5 C 479.4 896.6 474.0 879.0 467.0 862.1 C 466.2 879.1 467.0 896.2 466.4 913.3 C 462.0 913.3 457.6 913.3 453.2 913.3 C 452.2 895.2 453.7 877.1 453.3 859.0 C 453.8 844.8 453.2 830.5 453.8 816.3 Z" />
<path fill="#003a80" stroke="#003a80" stroke-width="0.09375" opacity="1.00" d=" M 508.7 816.8 C 518.8 817.2 530.0 814.2 539.3 819.7 C 548.5 825.9 551.0 837.8 552.4 848.1 C 553.9 861.9 554.0 876.0 551.3 889.7 C 549.6 898.0 545.9 906.9 537.9 910.9 C 529.1 914.9 519.1 913.1 509.8 913.5 C 509.5 881.3 508.6 849.0 508.7 816.8 M 523.4 839.3 C 523.2 856.4 523.4 873.5 523.9 890.6 C 527.8 890.4 532.3 890.3 534.8 886.8 C 538.6 881.4 538.5 874.4 538.8 868.0 C 538.7 859.9 539.1 851.2 535.1 843.9 C 532.8 839.7 527.6 839.4 523.4 839.3 Z" />
<path fill="#ffffff" stroke="#ffffff" stroke-width="0.09375" opacity="1.00" d=" M 828.6 819.1 C 834.2 817.4 840.8 819.2 843.0 825.0 C 847.2 836.0 848.8 848.1 847.8 859.9 C 847.5 866.0 841.4 869.7 835.6 869.1 C 833.5 852.4 830.6 835.8 828.6 819.1 Z" />
<path fill="#ffffff" stroke="#ffffff" stroke-width="0.09375" opacity="1.00" d=" M 211.4 824.3 C 215.4 821.6 219.6 826.0 220.1 829.9 C 222.6 840.9 220.7 852.4 218.5 863.3 C 217.0 868.4 215.2 875.5 209.0 876.4 C 204.4 875.3 202.8 870.1 202.5 865.9 C 201.8 854.8 202.6 843.5 205.9 832.9 C 207.1 829.7 208.5 826.3 211.4 824.3 Z" />
<path fill="#ffffff" stroke="#ffffff" stroke-width="0.09375" opacity="1.00" d=" M 523.4 839.3 C 527.6 839.4 532.8 839.7 535.1 843.9 C 539.1 851.2 538.7 859.9 538.8 868.0 C 538.5 874.4 538.6 881.4 534.8 886.8 C 532.3 890.3 527.8 890.4 523.9 890.6 C 523.4 873.5 523.2 856.4 523.4 839.3 Z" />
</svg>
