<?xml version="1.0" encoding="UTF-8" standalone="no"?>
<!-- Created with Inkscape (http://www.inkscape.org/) -->
<svg
   xmlns:dc="http://purl.org/dc/elements/1.1/"
   xmlns:cc="http://creativecommons.org/ns#"
   xmlns:rdf="http://www.w3.org/1999/02/22-rdf-syntax-ns#"
   xmlns:svg="http://www.w3.org/2000/svg"
   xmlns="http://www.w3.org/2000/svg"
   xmlns:sodipodi="http://sodipodi.sourceforge.net/DTD/sodipodi-0.dtd"
   xmlns:inkscape="http://www.inkscape.org/namespaces/inkscape"
   width="429.89847"
   height="435.81509"
   id="svg2"
   sodipodi:version="0.32"
   inkscape:version="0.46dev+devel"
   sodipodi:docbase="C:\Documents and Settings\Utente Microsoft\Documenti"
   sodipodi:docname="steels.svg"
   inkscape:output_extension="org.inkscape.output.svg.inkscape"
   version="1.0">
  <defs
     id="defs4">
    <inkscape:perspective
       sodipodi:type="inkscape:persp3d"
       id="perspective2445"
       inkscape:vp_x="-50 : 600 : 1"
       inkscape:vp_y="0 : 1000 : 0"
       inkscape:vp_z="700 : 600 : 1"
       inkscape:persp3d-origin="300 : 400 : 1" />
  </defs>
  <sodipodi:namedview
     id="base"
     pagecolor="#ffffff"
     bordercolor="#666666"
     borderopacity="1.0"
     inkscape:pageopacity="0.0"
     inkscape:pageshadow="2"
     inkscape:zoom="0.98994951"
     inkscape:cx="74.633436"
     inkscape:cy="202.2798"
     inkscape:document-units="px"
     inkscape:current-layer="layer1"
     inkscape:window-width="1277"
     inkscape:window-height="740"
     inkscape:window-x="20"
     inkscape:window-y="71"
     showguides="true"
     inkscape:guide-bbox="true"
     showgrid="false">
    <sodipodi:guide
       orientation="vertical"
       position="581.84786"
       id="guide3239" />
    <sodipodi:guide
       orientation="horizontal"
       position="968.57141,948.57142"
       id="guide3241" />
  </sodipodi:namedview>
  <metadata
     id="metadata7">
    <rdf:RDF>
      <cc:Work
         rdf:about="">
        <dc:format>image/svg+xml</dc:format>
        <dc:type
           rdf:resource="http://purl.org/dc/dcmitype/StillImage" />
        <dc:title></dc:title>
        <dc:date></dc:date>
        <dc:creator>
          <cc:Agent>
            <dc:title></dc:title>
          </cc:Agent>
        </dc:creator>
        <dc:rights>
          <cc:Agent>
            <dc:title></dc:title>
          </cc:Agent>
        </dc:rights>
        <dc:publisher>
          <cc:Agent>
            <dc:title></dc:title>
          </cc:Agent>
        </dc:publisher>
        <dc:identifier></dc:identifier>
        <dc:source></dc:source>
        <dc:relation></dc:relation>
        <dc:language></dc:language>
        <dc:subject>
          <rdf:Bag />
        </dc:subject>
        <dc:coverage></dc:coverage>
        <dc:description></dc:description>
        <dc:contributor>
          <cc:Agent>
            <dc:title></dc:title>
          </cc:Agent>
        </dc:contributor>
        <cc:license
           rdf:resource="" />
      </cc:Work>
    </rdf:RDF>
  </metadata>
  <g
     inkscape:label="Livello 1"
     inkscape:groupmode="layer"
     id="layer1"
     transform="translate(-795.79083,-119.4237)">
    <path
       style="fill:#e6cb02;fill-opacity:1;stroke:none;stroke-width:2.3440001;stroke-miterlimit:4;stroke-dasharray:none;stroke-opacity:1"
       d="M 1007.9469,119.45253 C 920.00582,119.22944 836.17767,179.54252 808.03546,262.97556 C 779.40745,341.20854 802.15142,435.25137 864.00287,491.40023 C 926.08554,551.35733 1025.548,566.54854 1102.8899,528.59543 C 1181.0646,492.48356 1231.7567,406.37532 1225.1046,320.54286 C 1220.7366,235.51893 1160.3727,157.01526 1079.5648,130.71569 C 1056.5563,122.93693 1032.4143,119.04645 1007.9469,119.45253 z"
       id="path4446" />
    <path
       style="fill:#fcf006;fill-opacity:1;stroke:none;stroke-width:2.3440001;stroke-miterlimit:4;stroke-opacity:1"
       d="M 467.14285,298.79074 C 467.14285,353.99074 422.34285,398.79074 367.14285,398.79074 C 311.94285,398.79074 267.14285,353.99074 267.14285,298.79074 C 267.14285,243.59074 311.94285,198.79074 367.14285,198.79074 C 422.34285,198.79074 467.14285,243.59074 467.14285,298.79074 z"
       id="path2223"
       transform="matrix(2.125,0,0,2.125,230.49744,-300.49314)" />
    <path
       style="fill:#e6cb02;fill-opacity:1;stroke:none;stroke-width:2.3440001;stroke-miterlimit:4;stroke-dasharray:none;stroke-opacity:1"
       d="M 1007.35,500.03836 C 948.48581,499.17661 892.02055,464.25474 864.59272,412.33474 C 835.6169,359.56304 838.7555,290.7915 872.73953,241.09491 C 904.11548,193.14937 961.59183,163.91472 1018.9425,167.00441 C 1078.3478,168.9807 1134.7611,205.68132 1160.8019,259.00606 C 1188.5468,313.20149 1182.8837,382.75717 1146.4088,431.53374 C 1114.8144,475.43804 1061.4887,501.79825 1007.35,500.03836 z"
       id="path4440" />
    <path
       style="fill:#0653a1;fill-opacity:1;stroke:none;stroke-width:2.3440001;stroke-miterlimit:4;stroke-dasharray:none;stroke-opacity:1"
       d="M 1011.58,170.16954 C 922.51405,170.16954 849.93767,240.99387 847.36132,329.23204 C 847.31425,330.84404 847.26757,332.45249 847.26757,334.07579 C 847.26757,334.17013 847.26741,334.26274 847.26757,334.35704 C 847.26741,334.45134 847.26757,334.54395 847.26757,334.63829 C 847.26757,336.25262 847.31477,337.87889 847.36132,339.48204 C 849.92379,427.73264 922.50505,498.54453 1011.58,498.54454 C 1100.655,498.54455 1173.2062,427.73264 1175.7675,339.48204 C 1175.8141,337.87889 1175.8613,336.25262 1175.8613,334.63829 C 1175.8616,334.54403 1175.8611,334.45134 1175.8613,334.35704 C 1175.8611,334.26274 1175.8616,334.17005 1175.8613,334.07579 C 1175.8613,332.45249 1175.8146,330.84404 1175.7675,329.23204 C 1173.1923,240.99387 1100.646,170.16953 1011.58,170.16954 z"
       id="path2243" />
    <path
       id="path2265"
       d="M 1161.6589,271.23421 C 1130.7473,271.28087 1103.4092,298.55849 1103.1446,329.44608 C 1101.5107,359.98682 1126.6646,388.6479 1157.0394,391.06731 C 1187.8507,394.98978 1218.5756,371.22558 1222.5737,340.44849 C 1228.0762,309.79702 1205.7837,277.99235 1175.2825,272.40866 C 1170.8036,271.52236 1166.2377,271.083 1161.6589,271.23421 z"
       style="fill:#e6cb02;fill-opacity:1;stroke:none;stroke-width:2.3440001;stroke-miterlimit:4;stroke-dasharray:none;stroke-opacity:1" />
    <path
       style="fill:#e6cb02;fill-opacity:1;stroke:none;stroke-width:2.3440001;stroke-miterlimit:4;stroke-dasharray:none;stroke-opacity:1"
       d="M 928.70507,190.37936 L 928.79882,476.10257 L 1091.9238,476.10257 L 1091.9238,218.22311 L 1091.9238,190.37936 L 1050.4863,190.37936 L 1050.4863,218.22311 L 1032.6113,218.22311 L 1032.6113,190.37936 L 991.20507,190.37936 L 991.20507,218.22311 L 970.11132,218.22311 L 970.11132,190.37936 L 928.70507,190.37936 z"
       id="rect2276"
       sodipodi:nodetypes="cccccccccccccc" />
    <path
       style="fill:#fcf006;fill-opacity:1;stroke:none;stroke-width:2.3440001;stroke-miterlimit:4;stroke-dasharray:none;stroke-opacity:1"
       d="M 930.79882,474.09811 C 983.84049,474.09811 1036.8821,474.09811 1089.9238,474.09811 C 1089.9238,380.19186 1089.9238,286.28561 1089.9238,192.37936 C 1077.4446,192.37936 1064.9655,192.37936 1052.4863,192.37936 C 1052.4863,201.66061 1052.4863,210.94186 1052.4863,220.22311 C 1045.1946,220.22311 1037.903,220.22311 1030.6113,220.22311 C 1030.6113,210.94186 1030.6113,201.66061 1030.6113,192.37936 C 1018.1425,192.37936 1005.6738,192.37936 993.20507,192.37936 C 993.20507,201.66061 993.20507,210.94186 993.20507,220.22311 C 984.84049,220.22311 976.4759,220.22311 968.11132,220.22311 C 968.11132,210.94186 968.11132,201.66061 968.11132,192.37936 C 955.64257,192.37936 943.17382,192.37936 930.70507,192.37936 C 930.73632,286.28561 930.76757,380.19186 930.79882,474.09811 z"
       id="path2290" />
    <path
       style="fill:#fcf006;fill-opacity:1;fill-rule:evenodd;stroke:none;stroke-width:1px;stroke-linecap:butt;stroke-linejoin:miter;stroke-opacity:1"
       d="M 1091.9375,475.21875 L 1091.9375,476.09375 L 929,476.09375 L 929,476.15625 C 930.85527,477.23674 932.63068,478.42841 934.53125,479.4375 C 939.12746,481.87783 943.84483,484.08937 948.6875,486.09375 C 953.53017,488.09813 958.4995,489.89512 963.5625,491.4375 C 968.6255,492.97988 973.8053,494.28944 979.0625,495.34375 C 984.3197,496.39806 989.66849,497.17856 995.09375,497.71875 C 1000.519,498.25894 1006.0266,498.53125 1011.5938,498.53125 C 1017.1608,498.53125 1022.6375,498.25894 1028.0625,497.71875 C 1033.4875,497.17856 1038.8369,496.39806 1044.0938,495.34375 C 1049.3505,494.28944 1054.5312,492.97988 1059.5938,491.4375 C 1064.6562,489.89512 1069.5955,488.09813 1074.4375,486.09375 C 1079.2795,484.08937 1084.0296,481.87783 1088.625,479.4375 C 1090.4176,478.48559 1092.0914,477.35924 1093.8438,476.34375 L 1091.9375,475.21875 z"
       id="path3663" />
    <path
       style="fill:#e6cb02;fill-opacity:1;fill-rule:evenodd;stroke:none;stroke-width:1px;stroke-linecap:butt;stroke-linejoin:miter;stroke-opacity:1"
       d="M 930.48632,218.37936 L 930.48632,220.62936 L 950.17382,220.62936 L 950.17382,243.72311 L 930.48632,243.72311 L 930.48632,245.97311 L 935.89257,245.97311 L 935.89257,270.84811 L 930.48632,270.84811 L 930.48632,273.09811 L 950.17382,273.09811 L 950.17382,298.72311 L 930.48632,298.72311 L 930.48632,300.97311 L 935.89257,300.97311 L 935.89257,327.87936 L 930.48632,327.87936 L 930.48632,330.12936 L 950.17382,330.12936 L 950.17382,360.28561 L 929.23632,360.28561 L 929.23632,362.53561 L 935.89257,362.53561 L 935.89257,387.66061 L 930.48632,387.66061 L 930.48632,389.91061 L 950.17382,389.91061 L 950.17382,418.31686 L 930.48632,418.31686 L 930.48632,420.56686 L 935.89257,420.56686 L 935.89257,446.19186 L 930.48632,446.19186 L 930.48632,448.44186 L 950.17382,448.44186 L 950.17382,473.81686 L 930.48632,473.81686 L 930.48632,476.06686 L 1089.2363,476.06686 L 1089.2363,473.81686 L 1069.1113,473.81686 L 1069.1113,448.44186 L 1089.2363,448.44186 L 1089.2363,446.19186 L 1076.4238,446.19186 L 1076.4238,420.56686 L 1089.2363,420.56686 L 1089.2363,418.31686 L 1069.1113,418.31686 L 1069.1113,389.91061 L 1089.2363,389.91061 L 1089.2363,387.66061 L 1076.4238,387.66061 L 1076.4238,362.53561 L 1087.955,362.53561 L 1087.955,360.28561 L 1069.1113,360.28561 L 1069.1113,330.12936 L 1089.2363,330.12936 L 1089.2363,327.87936 L 1076.4238,327.87936 L 1076.4238,300.97311 L 1089.2363,300.97311 L 1089.2363,298.72311 L 1069.1113,298.72311 L 1069.1113,273.09811 L 1089.2363,273.09811 L 1089.2363,270.84811 L 1076.4238,270.84811 L 1076.4238,245.97311 L 1089.2363,245.97311 L 1089.2363,243.72311 L 1069.1113,243.72311 L 1069.1113,220.62936 L 1089.2363,220.62936 L 1089.2363,218.37936 L 930.48632,218.37936 z M 952.42382,220.62936 L 979.33007,220.62936 L 979.33007,243.72311 L 952.42382,243.72311 L 952.42382,220.62936 z M 981.58007,220.62936 L 1008.5175,220.62936 L 1008.5175,243.72311 L 981.58007,243.72311 L 981.58007,220.62936 z M 1010.7675,220.62936 L 1037.6738,220.62936 L 1037.6738,243.72311 L 1010.7675,243.72311 L 1010.7675,220.62936 z M 1039.9238,220.62936 L 1066.8613,220.62936 L 1066.8613,243.72311 L 1039.9238,243.72311 L 1039.9238,220.62936 z M 938.14257,245.97311 L 965.04882,245.97311 L 965.04882,270.84811 L 938.14257,270.84811 L 938.14257,245.97311 z M 967.29882,245.97311 L 994.23632,245.97311 L 994.23632,270.84811 L 967.29882,270.84811 L 967.29882,245.97311 z M 996.48632,245.97311 L 1023.3925,245.97311 L 1023.3925,270.84811 L 996.48632,270.84811 L 996.48632,245.97311 z M 1025.6425,245.97311 L 1052.5488,245.97311 L 1052.5488,270.84811 L 1025.6425,270.84811 L 1025.6425,245.97311 z M 1054.7988,245.97311 L 1074.1738,245.97311 L 1074.1738,270.84811 L 1054.7988,270.84811 L 1054.7988,245.97311 z M 952.42382,273.09811 L 979.33007,273.09811 L 979.33007,298.72311 L 952.42382,298.72311 L 952.42382,273.09811 z M 981.58007,273.09811 L 1008.5175,273.09811 L 1008.5175,298.72311 L 981.58007,298.72311 L 981.58007,273.09811 z M 1010.7675,273.09811 L 1037.6738,273.09811 L 1037.6738,298.72311 L 1010.7675,298.72311 L 1010.7675,273.09811 z M 1039.9238,273.09811 L 1066.8613,273.09811 L 1066.8613,298.72311 L 1039.9238,298.72311 L 1039.9238,273.09811 z M 938.14257,300.97311 L 965.04882,300.97311 L 965.04882,327.87936 L 938.14257,327.87936 L 938.14257,300.97311 z M 967.29882,300.97311 L 994.23632,300.97311 L 994.23632,327.87936 L 967.29882,327.87936 L 967.29882,300.97311 z M 996.48632,300.97311 L 1023.3925,300.97311 L 1023.3925,327.87936 L 996.48632,327.87936 L 996.48632,300.97311 z M 1025.6425,300.97311 L 1052.5488,300.97311 L 1052.5488,327.87936 L 1025.6425,327.87936 L 1025.6425,300.97311 z M 1054.7988,300.97311 L 1074.1738,300.97311 L 1074.1738,327.87936 L 1054.7988,327.87936 L 1054.7988,300.97311 z M 952.42382,330.12936 L 979.33007,330.12936 L 979.33007,360.28561 L 952.42382,360.28561 L 952.42382,330.12936 z M 981.58007,330.12936 L 1008.5175,330.12936 L 1008.5175,360.28561 L 981.58007,360.28561 L 981.58007,330.12936 z M 1010.7675,330.12936 L 1037.6738,330.12936 L 1037.6738,360.28561 L 1010.7675,360.28561 L 1010.7675,330.12936 z M 1039.9238,330.12936 L 1066.8613,330.12936 L 1066.8613,360.28561 L 1039.9238,360.28561 L 1039.9238,330.12936 z M 938.14257,362.53561 L 965.04882,362.53561 L 965.04882,387.66061 L 938.14257,387.66061 L 938.14257,362.53561 z M 967.29882,362.53561 L 994.23632,362.53561 L 994.23632,387.66061 L 967.29882,387.66061 L 967.29882,362.53561 z M 996.48632,362.53561 L 1023.3925,362.53561 L 1023.3925,387.66061 L 996.48632,387.66061 L 996.48632,362.53561 z M 1025.6425,362.53561 L 1052.5488,362.53561 L 1052.5488,387.66061 L 1025.6425,387.66061 L 1025.6425,362.53561 z M 1054.7988,362.53561 L 1074.1738,362.53561 L 1074.1738,387.66061 L 1054.7988,387.66061 L 1054.7988,362.53561 z M 952.42382,389.91061 L 979.33007,389.91061 L 979.33007,418.31686 L 952.42382,418.31686 L 952.42382,389.91061 z M 981.58007,389.91061 L 1008.5175,389.91061 L 1008.5175,418.31686 L 981.58007,418.31686 L 981.58007,389.91061 z M 1010.7675,389.91061 L 1037.6738,389.91061 L 1037.6738,418.31686 L 1010.7675,418.31686 L 1010.7675,389.91061 z M 1039.9238,389.91061 L 1066.8613,389.91061 L 1066.8613,418.31686 L 1039.9238,418.31686 L 1039.9238,389.91061 z M 938.14257,420.56686 L 965.04882,420.56686 L 965.04882,446.19186 L 938.14257,446.19186 L 938.14257,420.56686 z M 967.29882,420.56686 L 994.23632,420.56686 L 994.23632,446.19186 L 967.29882,446.19186 L 967.29882,420.56686 z M 996.48632,420.56686 L 1023.3925,420.56686 L 1023.3925,446.19186 L 996.48632,446.19186 L 996.48632,420.56686 z M 1025.6425,420.56686 L 1052.5488,420.56686 L 1052.5488,446.19186 L 1025.6425,446.19186 L 1025.6425,420.56686 z M 1054.7988,420.56686 L 1074.1738,420.56686 L 1074.1738,446.19186 L 1054.7988,446.19186 L 1054.7988,420.56686 z M 952.42382,448.44186 L 979.33007,448.44186 L 979.33007,473.81686 L 952.42382,473.81686 L 952.42382,448.44186 z M 981.58007,448.44186 L 1008.5175,448.44186 L 1008.5175,473.81686 L 981.58007,473.81686 L 981.58007,448.44186 z M 1010.7675,448.44186 L 1037.6738,448.44186 L 1037.6738,473.81686 L 1010.7675,473.81686 L 1010.7675,448.44186 z M 1039.9238,448.44186 L 1066.8613,448.44186 L 1066.8613,473.81686 L 1039.9238,473.81686 L 1039.9238,448.44186 z"
       id="path2296" />
    <g
       id="g2522"
       transform="translate(217.26757,36.941866)">
      <path
         id="path2225"
         d="M 780.76819,210.9097 C 765.23768,210.52676 750.64274,223.15267 751.83069,237.82626 C 750.99743,245.55573 754.96371,253.01237 761.95569,257.15988 C 774.12671,265.02686 786.93752,272.63272 800.95569,277.39071 C 791.07094,277.27852 781.18484,277.35476 771.29944,277.33282 C 776.5601,284.45351 778.91924,292.77361 778.778,301.35435 C 779.48733,305.09231 778.06195,302.58898 776.33069,301.15253 C 768.01853,295.90436 761.47318,288.46618 758.20161,279.55029 C 755.92249,274.53871 751.70517,265.49945 752.36194,276.08829 C 752.9789,285.74999 750.97761,295.90489 753.36194,305.32026 C 755.96324,309.71083 761.70351,304.93259 765.64319,307.20152 C 769.76863,308.27698 775.05573,311.20464 778.98694,308.35922 C 779.89335,317.15018 777.36941,326.71025 780.95569,335.07318 C 782.04829,336.58364 784.03194,337.12357 785.86194,337.35964 C 773.87767,335.64028 759.66216,339.83345 754.95569,351.02052 C 751.16095,360.38758 749.89966,373.26997 759.01819,380.3972 C 770.7665,391.78224 788.91882,395.12348 800.23694,406.64808 C 806.50207,412.83514 803.72355,423.66775 795.11194,426.58949 C 781.19459,432.55019 766.08905,421.70739 760.73174,409.9564 C 758.19705,405.15941 755.66657,400.36042 752.83069,395.7078 C 752.76178,407.36645 751.19763,419.453 753.36194,430.90192 C 755.15069,435.19309 760.62981,431.62731 764.01819,433.18838 C 780.25887,436.88707 800.08172,438.02367 812.89319,426.329 C 823.03406,417.00755 824.41295,399.60757 813.01819,390.55603 C 807.36807,385.50634 800.39664,381.84607 793.45569,378.54487 C 795.69668,380.37949 802.28958,381.0849 800.29944,376.75044 C 795.0986,370.56365 796.84693,361.79331 795.67444,354.43574 C 795.29692,351.49019 795.11321,348.2093 792.95569,345.83981 C 800.50064,349.97907 804.54603,357.34428 806.33069,365.11554 C 807.0121,368.53657 812.34729,368.7249 812.76819,365.02871 C 814.82474,356.28822 813.30538,347.21563 813.54944,338.34369 C 804.86791,338.21249 796.1756,338.15291 787.51819,337.47542 C 792.13006,337.87013 795.57271,334.50153 800.33069,335.33367 C 814.36993,335.16153 831.49921,336.3289 841.51819,325.4932 C 848.26782,317.57453 849.80075,305.78074 845.76819,296.4349 C 840.28,286.41445 829.14284,279.32685 817.17444,278.4037 C 821.31407,278.58365 821.87254,274.33986 819.79944,271.92057 C 809.28002,257.39633 790.51575,251.26616 775.04944,242.51495 C 765.91413,238.76142 764.78637,226.14394 772.48694,220.69228 C 783.04771,213.45749 797.61483,220.991 803.26819,230.3012 C 806.0143,234.03076 804.55155,240.84481 809.89319,242.63072 C 815.05423,240.90093 813.36447,234.10959 814.08069,230.0986 C 813.44763,224.02961 815.39467,216.48037 810.95569,211.43067 C 807.4363,209.10972 806.20265,214.83727 802.70569,213.39876 C 795.34483,212.88887 788.30335,210.39868 780.76819,210.9097 z M 802.95569,285.26308 C 806.55235,284.47052 802.41667,288.68815 803.61194,290.55956 C 803.3784,296.22135 796.80034,298.66185 794.83069,303.52582 C 795.2322,297.96169 793.79135,291.43244 796.39319,286.44972 C 798.42465,285.53054 800.68947,285.36929 802.95569,285.26308 z M 818.42444,288.56253 C 829.71863,296.48774 830.69987,313.34527 822.76819,323.64088 C 816.86759,330.47235 806.11852,328.84823 797.76819,328.79265 C 794.02202,328.15735 797.01452,321.81597 795.61194,319.21267 C 795.39314,315.05233 794.90969,309.25666 795.01819,305.98594 C 798.25433,310.47152 804.61576,306.30528 808.01819,303.9889 C 812.73729,300.39088 819.99272,294.49678 818.42444,288.56253 z M 779.76819,343.61123 C 778.58305,352.76463 779.23184,362.04742 779.04944,371.25136 C 771.46885,367.3912 762.63679,358.28828 768.14319,350.09436 C 770.69993,346.45595 775.27376,344.38362 779.76819,343.61123 z"
         style="fill:#e6cb02;fill-opacity:1" />
      <path
         sodipodi:nodetypes="cscccsssssscccsssssccccssssccscccssssccsssccssssccscccsccsssssssssssc"
         id="path2221"
         d="M 768.85433,432.13992 C 763.98849,431.08427 758.70688,430.68275 757.11741,431.24765 C 754.91197,432.03147 754.25868,428.73447 754.35939,417.32842 L 754.49134,402.38207 L 759.3895,411.62199 C 768.31512,428.45938 787.18524,435.20075 799.75578,426.04287 C 804.01787,422.93785 805.64628,419.84058 805.64628,414.83901 C 805.64628,406.76063 798.27963,400.06707 780.17705,391.69684 C 773.89704,388.79311 765.48928,383.53738 761.49314,380.01747 C 755.46671,374.70922 754.22743,372.0801 754.22743,364.60357 C 754.22743,347.00416 765.35684,337.57446 784.29802,339.12543 C 789.27686,339.5331 797.45517,339.93661 802.47202,340.02209 L 811.59356,340.17751 L 811.80617,353.16266 C 812.03022,366.84663 809.2676,370.49306 806.74269,359.84603 C 804.9578,352.3196 796.43795,343.90876 788.80046,342.13343 C 775.82194,339.11654 762.62288,347.33598 764.55459,357.23201 C 766.19859,365.65417 772.74199,371.13111 791.31404,379.63015 C 810.84177,388.56653 819.05989,396.60954 819.05989,406.78482 C 819.05989,427.65684 797.76384,438.41191 768.85433,432.13992 z M 789.43816,374.87166 L 781.05466,371.38523 L 781.05466,357.37863 C 781.05466,349.675 781.49219,343.37202 782.02692,343.37202 C 782.56167,343.37202 785.32998,344.19276 788.17874,345.19587 C 792.72705,346.79746 793.44157,348.6185 794.04158,360.13823 C 794.41739,367.35341 795.79635,374.45245 797.10592,375.91386 C 800.05604,379.20609 799.7658,379.16663 789.43816,374.87166 z M 786.08476,335.49381 C 781.22997,334.82602 781.05419,334.03111 781.04088,312.68773 C 781.03145,297.52744 780.01863,288.78307 777.82005,284.87961 L 774.61301,279.18566 L 795.15974,279.1972 C 821.26746,279.21187 830.37392,281.60057 838.99639,290.6959 C 844.24625,296.23363 845.88712,299.94402 845.88712,306.2774 C 845.88712,325.19894 834.23368,333.78823 809.14424,333.35914 C 800.57589,333.21258 793.01405,333.78863 792.34015,334.63922 C 791.66623,335.48979 788.85132,335.87437 786.08476,335.49381 z M 819.18372,328.81696 C 833.52395,321.70898 833.35699,294.58376 818.92439,286.68774 C 812.36348,283.09829 799.72354,282.27316 794.87935,285.11813 C 792.26727,286.65216 792.09822,300.70297 794.34658,329.39596 C 794.5291,331.72511 814.24378,331.26552 819.18372,328.81696 z M 796.70387,304.3529 C 796.70387,303.3906 798.71591,300.91686 801.17508,298.85567 C 803.63424,296.79448 805.64628,292.92314 805.64628,290.25265 C 805.64628,285.23729 807.21851,284.49691 813.28804,286.65402 C 818.74836,288.59463 817.50517,293.49938 809.88105,300.09549 C 803.18754,305.88648 796.70387,307.98128 796.70387,304.3529 z M 767.87594,305.92698 C 764.93118,304.83601 760.65559,304.492 758.37463,305.16249 C 754.58917,306.27524 754.23378,305.06002 754.30033,291.23072 L 754.37325,276.07987 L 758.82012,285.39724 C 761.39023,290.78229 766.53513,296.78473 771.01059,299.61961 C 781.4396,306.22563 779.45591,310.21709 767.87594,305.92698 z M 780.02333,265.7735 C 759.7725,254.7369 754.93967,250.47431 754.14822,242.95141 C 753.0997,232.98513 754.59006,227.34102 759.77818,221.63059 C 767.20883,213.45179 778.82518,210.8714 793.96723,214.03598 C 800.45434,215.39171 806.29834,215.69722 806.95388,214.71488 C 810.2254,209.81228 812.04585,214.33746 812.09069,227.48376 C 812.14012,241.96924 809.49954,245.16893 806.8201,233.87031 C 805.17289,226.92439 798.20438,220.33506 789.14289,217.15502 C 777.20157,212.96431 765.40544,219.69601 765.40544,230.70126 C 765.40544,239.40883 768.84579,242.41939 790.11437,252.32342 C 805.26994,259.38083 819.05989,270.54516 819.05989,275.75766 C 819.05989,276.50428 814.7843,277.0199 809.55858,276.9035 C 802.36728,276.74332 795.18652,274.03735 780.02333,265.7735 z"
         style="fill:#0653a1;fill-opacity:1" />
    </g>
    <g
       id="g4266"
       transform="translate(217.26757,33.513295)">
      <path
         id="path2249"
         d="M 639.39139,237.72092 C 608.47981,237.76758 581.14162,265.0452 580.87705,295.93279 C 579.24312,326.47353 604.39707,355.13461 634.77188,357.55402 C 665.58321,361.47649 696.30809,337.71229 700.30622,306.9352 C 705.80873,276.28373 683.51618,244.47906 653.01501,238.89537 C 648.53607,238.00907 643.97019,237.56971 639.39139,237.72092 z"
         style="fill:#e6cb02;fill-opacity:1;stroke:none;stroke-width:2.3440001;stroke-miterlimit:4;stroke-dasharray:none;stroke-opacity:1" />
      <path
         style="fill:#e6cb02;fill-opacity:1;stroke:none;stroke-width:2.3440001;stroke-miterlimit:4;stroke-dasharray:none;stroke-opacity:1"
         d="M 639.39139,237.72092 C 608.47981,237.76758 581.14162,265.0452 580.87705,295.93279 C 579.24312,326.47353 604.39707,355.13461 634.77188,357.55402 C 665.58321,361.47649 696.30809,337.71229 700.30622,306.9352 C 705.80873,276.28373 683.51618,244.47906 653.01501,238.89537 C 648.53607,238.00907 643.97019,237.56971 639.39139,237.72092 z"
         id="path2253" />
      <path
         sodipodi:type="arc"
         style="fill:#fcf006;fill-opacity:1;stroke:none;stroke-width:2.3440001;stroke-miterlimit:4;stroke-dasharray:none;stroke-opacity:1"
         id="path2255"
         sodipodi:cx="605.08136"
         sodipodi:cy="254.84674"
         sodipodi:rx="45.961941"
         sodipodi:ry="45.961941"
         d="M 651.0433,254.84674 A 45.961941,45.961941 0 1 1 559.11942,254.84674 A 45.961941,45.961941 0 1 1 651.0433,254.84674 z"
         transform="matrix(1.2527473,0,0,1.2527473,-117.07224,-21.480331)" />
      <path
         transform="matrix(1.2527473,0,0,1.2527473,-117.07224,-21.480331)"
         d="M 651.0433,254.84674 A 45.961941,45.961941 0 1 1 559.11942,254.84674 A 45.961941,45.961941 0 1 1 651.0433,254.84674 z"
         sodipodi:ry="45.961941"
         sodipodi:rx="45.961941"
         sodipodi:cy="254.84674"
         sodipodi:cx="605.08136"
         id="path4228"
         style="fill:#fcf006;fill-opacity:1;stroke:none;stroke-width:2.3440001;stroke-miterlimit:4;stroke-dasharray:none;stroke-opacity:1"
         sodipodi:type="arc" />
      <path
         id="path4246"
         d="M 600.78125,323.0625 C 595.79631,322.71069 596.24033,329.82753 595.4375,333.5625 C 595.72008,339.18894 602.07826,342.29993 605.90625,345.90625 C 608.95347,348.01506 612.30394,351.24344 615.59375,347.8125 C 618.80319,345.33823 624.40839,343.11477 625.32606,339.71931 C 621.8431,334.02803 620.42346,324.6561 612.46875,324.1875 C 608.66998,323.22376 604.71038,322.90252 600.78125,323.0625 z"
         style="fill:#e6cb02;fill-opacity:1;stroke:none;stroke-width:2.3440001;stroke-miterlimit:4;stroke-dasharray:none;stroke-opacity:1" />
      <path
         id="path4214"
         d="M 612.0517,347.51204 C 613.66,346.66362 615.3884,345.64676 617.208,344.41829 C 619.3665,342.96098 621.497,341.37694 623.2392,340.04329 C 621.7569,336.95048 620.9977,335.23086 620.1142,333.54329 C 619.2307,331.85572 618.2351,330.21695 616.333,327.29329 C 614.1395,326.64625 611.8346,325.97829 609.1142,325.54329 C 607.754,325.32579 606.2825,325.15023 604.6767,325.07454 C 603.0709,324.99885 601.3228,325.01173 599.3955,325.13704 C 598.929,326.20222 598.5342,327.45925 598.208,328.79329 C 597.8817,330.12733 597.6348,331.55097 597.4892,332.94954 C 597.4023,333.78422 597.4377,334.55623 597.4267,335.35579 C 601.5923,340.16971 606.5171,344.29111 612.0517,347.51204 z"
         style="fill:#000000;fill-opacity:1;stroke:none;stroke-width:2.3440001;stroke-miterlimit:4;stroke-dasharray:none;stroke-opacity:1" />
      <path
         id="path4248"
         d="M 593.78125,266.84375 C 587.87294,265.80682 587.26156,273.20576 585.0625,277.125 C 583.32879,281.54134 581.14741,287.40223 586.1875,290.46875 C 589.36786,293.43158 592.73963,296.20972 596.28125,298.78125 C 600.46411,294.47144 607.0962,291.03663 608.67443,285.18767 C 608.9116,279.11763 607.84968,273.15208 605.75,267.46875 C 601.80019,266.84544 597.77914,266.73371 593.78125,266.84375 z"
         style="fill:#e6cb02;fill-opacity:1;stroke:none;stroke-width:2.3440001;stroke-miterlimit:4;stroke-dasharray:none;stroke-opacity:1" />
      <path
         id="path4217"
         d="M 584.7705,285.16829 C 584.943,285.72624 585.0248,285.97988 585.208,286.57454 C 586.5186,288.08263 588.3891,289.84561 590.3642,291.54329 C 592.3393,293.24097 594.4307,294.90204 596.1767,296.23079 C 598.7689,293.98516 600.2194,292.77815 601.6142,291.48079 C 603.009,290.18343 604.3271,288.77423 606.6455,286.16829 C 606.691,283.88186 606.7247,281.50086 606.4267,278.76204 C 606.2777,277.39263 606.0585,275.92472 605.708,274.35579 C 605.3574,272.78686 604.8685,271.11935 604.2392,269.29329 C 601.9841,268.94392 598.3675,268.75181 594.8017,268.82454 C 593.5082,268.85092 592.2914,268.94644 591.083,269.04329 C 588.2187,274.00469 586.0561,279.41727 584.7705,285.16829 z"
         style="fill:#000000;fill-opacity:1;stroke:none;stroke-width:2.3440001;stroke-miterlimit:4;stroke-dasharray:none;stroke-opacity:1" />
      <path
         id="path4250"
         d="M 682.34375,271.34375 C 679.01275,271.38243 675.0761,271.44637 676.09375,275.8125 C 675.86185,282.23335 675.44755,289.59696 681.4375,293.65625 C 684.52934,296.13793 688.20739,301.08834 692.1875,297.65625 C 697.78924,294.21747 700.92064,286.72809 697.875,280.65625 C 697.11336,276.15981 694.58804,272.75028 689.9375,272.15625 C 687.4793,271.48614 684.90458,271.20089 682.34375,271.34375 z"
         style="fill:#e6cb02;fill-opacity:1;stroke:none;stroke-width:2.3440001;stroke-miterlimit:4;stroke-dasharray:none;stroke-opacity:1" />
      <path
         id="path4223"
         d="M 694.0205,275.85579 C 692.8875,275.39025 692.3826,275.08199 690.958,274.54329 C 688.9501,273.86286 686.9121,273.47689 684.8017,273.35579 C 682.6913,273.23469 680.5288,273.37458 678.2392,273.76204 C 677.9578,276.81465 677.969,279.25583 678.083,281.38704 C 678.1969,283.51825 678.3982,285.32449 678.5205,287.16829 C 679.2195,288.22423 680.002,289.22895 680.833,290.16829 C 681.6639,291.10763 682.5549,292.00426 683.458,292.82454 C 685.264,294.46511 687.1607,295.8625 688.8955,297.01204 C 690.6705,296.32962 691.9695,295.53824 692.958,294.66829 C 693.9464,293.79834 694.6146,292.84024 695.1455,291.85579 C 696.0162,290.24106 696.5868,288.51922 697.3955,286.85579 C 696.656,283.0236 695.4811,279.37634 694.0205,275.85579 z"
         style="fill:#000000;fill-opacity:1;stroke:none;stroke-width:2.3440001;stroke-miterlimit:4;stroke-dasharray:none;stroke-opacity:1" />
      <path
         id="path4252"
         d="M 676.8125,323.9375 C 668.9441,325.44648 659.36481,325.85039 655.1875,333.78125 C 653.0693,337.04252 649.30659,341.07243 653.1875,344.40625 C 656.60309,348.66351 662.9076,351.94137 668.04668,350.73239 C 673.06699,347.78052 680.37953,345.15775 679.38477,338.15887 C 679.79445,333.30189 679.9846,328.33737 678.71875,323.59375 L 677.73462,323.77122 L 676.8125,323.9375 z"
         style="fill:#e6cb02;fill-opacity:1;stroke:none;stroke-width:2.3440001;stroke-miterlimit:4;stroke-dasharray:none;stroke-opacity:1" />
      <path
         sodipodi:nodetypes="csscscsscsccc"
         id="path4226"
         d="M 676.8642,342.69954 C 677.1568,340.61426 677.4813,337.65038 677.6142,334.57454 C 677.6827,332.98915 677.7145,331.37024 677.6455,329.88704 C 677.5764,328.40384 677.4169,327.05078 677.1455,325.91829 C 673.7652,326.49803 671.6089,326.85363 669.458,327.32454 C 667.307,327.79545 665.1654,328.38847 661.833,329.41829 C 660.8652,330.23512 659.9508,331.10895 659.1142,332.04329 C 658.2776,332.97763 657.5117,333.95747 656.8017,334.94954 C 655.3818,336.93368 654.211,338.96809 653.2705,340.82454 C 654.1542,342.50841 655.1881,343.83195 656.2705,344.85579 C 657.3528,345.87963 658.492,346.60953 659.6142,347.13704 C 661.7771,348.0577 663.7603,348.79944 666.2392,349.41829 C 670.0278,347.55832 673.5995,345.31098 676.8642,342.69954 z"
         style="fill:#000000;fill-opacity:1;stroke:none;stroke-width:2.3440001;stroke-miterlimit:4;stroke-dasharray:none;stroke-opacity:1" />
      <path
         id="path4254"
         d="M 640.5625,238.1875 C 637.10011,239.90978 637.03714,245.52142 634.09375,248.34375 C 630.18727,252.16841 631.69284,254.42428 636.53125,255.25 C 642.83893,256.98401 649.75104,259.78601 655.75,255.71875 C 658.48994,253.86248 665.59127,251.8447 662.28125,248 C 659.68736,242.68818 654.93039,238.35542 648.60236,238.71281 C 645.99841,238.31521 643.23449,238.13276 640.5625,238.1875 z"
         style="fill:#e6cb02;fill-opacity:1;stroke:none;stroke-width:2.3440001;stroke-miterlimit:4;stroke-dasharray:none;stroke-opacity:1" />
      <path
         id="path3206"
         d="M 640.708,240.19954 C 640.5641,240.38714 640.4499,240.47232 640.3017,240.66829 C 639.6826,242.71766 638.6832,244.64033 637.5517,246.54329 C 636.4202,248.44625 635.1576,250.33838 633.9892,252.23079 C 636.8385,253.36189 639.6689,254.12667 642.2392,254.73079 C 644.8095,255.33491 647.1233,255.76543 648.9267,256.16829 C 651.3472,255.42279 653.603,254.56195 655.6455,253.54329 C 657.6879,252.52463 659.5219,251.35206 661.1142,250.01204 C 659.6162,247.2772 658.2487,245.30003 656.8642,243.85579 C 656.1719,243.13367 655.4613,242.53446 654.7392,242.04329 C 654.5686,241.92724 654.3816,241.86731 654.208,241.76204 C 649.9363,240.74998 645.5056,240.16829 640.9267,240.16829 C 640.852,240.16829 640.7826,240.19925 640.708,240.19954 z"
         style="fill:#000000;fill-opacity:1;stroke:none;stroke-width:2.3440001;stroke-miterlimit:4;stroke-dasharray:none;stroke-opacity:1" />
      <path
         id="path2526"
         d="M 672.3374,245.90547 C 672.2779,245.90547 672.2184,245.90547 672.3374,245.90547 z"
         style="fill:none;fill-rule:evenodd;stroke:#000000;stroke-width:1px;stroke-linecap:butt;stroke-linejoin:miter;stroke-opacity:1" />
    </g>
    <g
       id="g4283"
       transform="matrix(-1,0,0,1,1804.2125,33.513295)">
      <path
         style="fill:#e6cb02;fill-opacity:1;stroke:none;stroke-width:2.3440001;stroke-miterlimit:4;stroke-dasharray:none;stroke-opacity:1"
         d="M 639.39139,237.72092 C 608.47981,237.76758 581.14162,265.0452 580.87705,295.93279 C 579.24312,326.47353 604.39707,355.13461 634.77188,357.55402 C 665.58321,361.47649 696.30809,337.71229 700.30622,306.9352 C 705.80873,276.28373 683.51618,244.47906 653.01501,238.89537 C 648.53607,238.00907 643.97019,237.56971 639.39139,237.72092 z"
         id="path4285" />
      <path
         id="path4287"
         d="M 639.39139,237.72092 C 608.47981,237.76758 581.14162,265.0452 580.87705,295.93279 C 579.24312,326.47353 604.39707,355.13461 634.77188,357.55402 C 665.58321,361.47649 696.30809,337.71229 700.30622,306.9352 C 705.80873,276.28373 683.51618,244.47906 653.01501,238.89537 C 648.53607,238.00907 643.97019,237.56971 639.39139,237.72092 z"
         style="fill:#e6cb02;fill-opacity:1;stroke:none;stroke-width:2.3440001;stroke-miterlimit:4;stroke-dasharray:none;stroke-opacity:1" />
      <path
         transform="matrix(1.2527473,0,0,1.2527473,-117.07224,-21.480331)"
         d="M 651.0433,254.84674 A 45.961941,45.961941 0 1 1 559.11942,254.84674 A 45.961941,45.961941 0 1 1 651.0433,254.84674 z"
         sodipodi:ry="45.961941"
         sodipodi:rx="45.961941"
         sodipodi:cy="254.84674"
         sodipodi:cx="605.08136"
         id="path4289"
         style="fill:#fcf006;fill-opacity:1;stroke:none;stroke-width:2.3440001;stroke-miterlimit:4;stroke-dasharray:none;stroke-opacity:1"
         sodipodi:type="arc" />
      <path
         sodipodi:type="arc"
         style="fill:#fcf006;fill-opacity:1;stroke:none;stroke-width:2.3440001;stroke-miterlimit:4;stroke-dasharray:none;stroke-opacity:1"
         id="path4291"
         sodipodi:cx="605.08136"
         sodipodi:cy="254.84674"
         sodipodi:rx="45.961941"
         sodipodi:ry="45.961941"
         d="M 651.0433,254.84674 A 45.961941,45.961941 0 1 1 559.11942,254.84674 A 45.961941,45.961941 0 1 1 651.0433,254.84674 z"
         transform="matrix(1.2527473,0,0,1.2527473,-117.07224,-21.480331)" />
      <path
         style="fill:#e6cb02;fill-opacity:1;stroke:none;stroke-width:2.3440001;stroke-miterlimit:4;stroke-dasharray:none;stroke-opacity:1"
         d="M 600.78125,323.0625 C 595.79631,322.71069 596.24033,329.82753 595.4375,333.5625 C 595.72008,339.18894 602.07826,342.29993 605.90625,345.90625 C 608.95347,348.01506 612.30394,351.24344 615.59375,347.8125 C 618.80319,345.33823 624.40839,343.11477 625.32606,339.71931 C 621.8431,334.02803 620.42346,324.6561 612.46875,324.1875 C 608.66998,323.22376 604.71038,322.90252 600.78125,323.0625 z"
         id="path4293" />
      <path
         style="fill:#000000;fill-opacity:1;stroke:none;stroke-width:2.3440001;stroke-miterlimit:4;stroke-dasharray:none;stroke-opacity:1"
         d="M 612.0517,347.51204 C 613.66,346.66362 615.3884,345.64676 617.208,344.41829 C 619.3665,342.96098 621.497,341.37694 623.2392,340.04329 C 621.7569,336.95048 620.9977,335.23086 620.1142,333.54329 C 619.2307,331.85572 618.2351,330.21695 616.333,327.29329 C 614.1395,326.64625 611.8346,325.97829 609.1142,325.54329 C 607.754,325.32579 606.2825,325.15023 604.6767,325.07454 C 603.0709,324.99885 601.3228,325.01173 599.3955,325.13704 C 598.929,326.20222 598.5342,327.45925 598.208,328.79329 C 597.8817,330.12733 597.6348,331.55097 597.4892,332.94954 C 597.4023,333.78422 597.4377,334.55623 597.4267,335.35579 C 601.5923,340.16971 606.5171,344.29111 612.0517,347.51204 z"
         id="path4295" />
      <path
         style="fill:#e6cb02;fill-opacity:1;stroke:none;stroke-width:2.3440001;stroke-miterlimit:4;stroke-dasharray:none;stroke-opacity:1"
         d="M 593.78125,266.84375 C 587.87294,265.80682 587.26156,273.20576 585.0625,277.125 C 583.32879,281.54134 581.14741,287.40223 586.1875,290.46875 C 589.36786,293.43158 592.73963,296.20972 596.28125,298.78125 C 600.46411,294.47144 607.0962,291.03663 608.67443,285.18767 C 608.9116,279.11763 607.84968,273.15208 605.75,267.46875 C 601.80019,266.84544 597.77914,266.73371 593.78125,266.84375 z"
         id="path4297" />
      <path
         style="fill:#000000;fill-opacity:1;stroke:none;stroke-width:2.3440001;stroke-miterlimit:4;stroke-dasharray:none;stroke-opacity:1"
         d="M 584.7705,285.16829 C 584.943,285.72624 585.0248,285.97988 585.208,286.57454 C 586.5186,288.08263 588.3891,289.84561 590.3642,291.54329 C 592.3393,293.24097 594.4307,294.90204 596.1767,296.23079 C 598.7689,293.98516 600.2194,292.77815 601.6142,291.48079 C 603.009,290.18343 604.3271,288.77423 606.6455,286.16829 C 606.691,283.88186 606.7247,281.50086 606.4267,278.76204 C 606.2777,277.39263 606.0585,275.92472 605.708,274.35579 C 605.3574,272.78686 604.8685,271.11935 604.2392,269.29329 C 601.9841,268.94392 598.3675,268.75181 594.8017,268.82454 C 593.5082,268.85092 592.2914,268.94644 591.083,269.04329 C 588.2187,274.00469 586.0561,279.41727 584.7705,285.16829 z"
         id="path4299" />
      <path
         style="fill:#e6cb02;fill-opacity:1;stroke:none;stroke-width:2.3440001;stroke-miterlimit:4;stroke-dasharray:none;stroke-opacity:1"
         d="M 682.34375,271.34375 C 679.01275,271.38243 675.0761,271.44637 676.09375,275.8125 C 675.86185,282.23335 675.44755,289.59696 681.4375,293.65625 C 684.52934,296.13793 688.20739,301.08834 692.1875,297.65625 C 697.78924,294.21747 700.92064,286.72809 697.875,280.65625 C 697.11336,276.15981 694.58804,272.75028 689.9375,272.15625 C 687.4793,271.48614 684.90458,271.20089 682.34375,271.34375 z"
         id="path4301" />
      <path
         style="fill:#000000;fill-opacity:1;stroke:none;stroke-width:2.3440001;stroke-miterlimit:4;stroke-dasharray:none;stroke-opacity:1"
         d="M 694.0205,275.85579 C 692.8875,275.39025 692.3826,275.08199 690.958,274.54329 C 688.9501,273.86286 686.9121,273.47689 684.8017,273.35579 C 682.6913,273.23469 680.5288,273.37458 678.2392,273.76204 C 677.9578,276.81465 677.969,279.25583 678.083,281.38704 C 678.1969,283.51825 678.3982,285.32449 678.5205,287.16829 C 679.2195,288.22423 680.002,289.22895 680.833,290.16829 C 681.6639,291.10763 682.5549,292.00426 683.458,292.82454 C 685.264,294.46511 687.1607,295.8625 688.8955,297.01204 C 690.6705,296.32962 691.9695,295.53824 692.958,294.66829 C 693.9464,293.79834 694.6146,292.84024 695.1455,291.85579 C 696.0162,290.24106 696.5868,288.51922 697.3955,286.85579 C 696.656,283.0236 695.4811,279.37634 694.0205,275.85579 z"
         id="path4303" />
      <path
         style="fill:#e6cb02;fill-opacity:1;stroke:none;stroke-width:2.3440001;stroke-miterlimit:4;stroke-dasharray:none;stroke-opacity:1"
         d="M 676.8125,323.9375 C 668.9441,325.44648 659.36481,325.85039 655.1875,333.78125 C 653.0693,337.04252 649.30659,341.07243 653.1875,344.40625 C 656.60309,348.66351 662.9076,351.94137 668.04668,350.73239 C 673.06699,347.78052 680.37953,345.15775 679.38477,338.15887 C 679.79445,333.30189 679.9846,328.33737 678.71875,323.59375 L 677.73462,323.77122 L 676.8125,323.9375 z"
         id="path4305" />
      <path
         style="fill:#000000;fill-opacity:1;stroke:none;stroke-width:2.3440001;stroke-miterlimit:4;stroke-dasharray:none;stroke-opacity:1"
         d="M 676.8642,342.69954 C 677.1568,340.61426 677.4813,337.65038 677.6142,334.57454 C 677.6827,332.98915 677.7145,331.37024 677.6455,329.88704 C 677.5764,328.40384 677.4169,327.05078 677.1455,325.91829 C 673.7652,326.49803 671.6089,326.85363 669.458,327.32454 C 667.307,327.79545 665.1654,328.38847 661.833,329.41829 C 660.8652,330.23512 659.9508,331.10895 659.1142,332.04329 C 658.2776,332.97763 657.5117,333.95747 656.8017,334.94954 C 655.3818,336.93368 654.211,338.96809 653.2705,340.82454 C 654.1542,342.50841 655.1881,343.83195 656.2705,344.85579 C 657.3528,345.87963 658.492,346.60953 659.6142,347.13704 C 661.7771,348.0577 663.7603,348.79944 666.2392,349.41829 C 670.0278,347.55832 673.5995,345.31098 676.8642,342.69954 z"
         id="path4307"
         sodipodi:nodetypes="csscscsscsccc" />
      <path
         style="fill:#e6cb02;fill-opacity:1;stroke:none;stroke-width:2.3440001;stroke-miterlimit:4;stroke-dasharray:none;stroke-opacity:1"
         d="M 640.5625,238.1875 C 637.10011,239.90978 637.03714,245.52142 634.09375,248.34375 C 630.18727,252.16841 631.69284,254.42428 636.53125,255.25 C 642.83893,256.98401 649.75104,259.78601 655.75,255.71875 C 658.48994,253.86248 665.59127,251.8447 662.28125,248 C 659.68736,242.68818 654.93039,238.35542 648.60236,238.71281 C 645.99841,238.31521 643.23449,238.13276 640.5625,238.1875 z"
         id="path4309" />
      <path
         style="fill:#000000;fill-opacity:1;stroke:none;stroke-width:2.3440001;stroke-miterlimit:4;stroke-dasharray:none;stroke-opacity:1"
         d="M 640.708,240.19954 C 640.5641,240.38714 640.4499,240.47232 640.3017,240.66829 C 639.6826,242.71766 638.6832,244.64033 637.5517,246.54329 C 636.4202,248.44625 635.1576,250.33838 633.9892,252.23079 C 636.8385,253.36189 639.6689,254.12667 642.2392,254.73079 C 644.8095,255.33491 647.1233,255.76543 648.9267,256.16829 C 651.3472,255.42279 653.603,254.56195 655.6455,253.54329 C 657.6879,252.52463 659.5219,251.35206 661.1142,250.01204 C 659.6162,247.2772 658.2487,245.30003 656.8642,243.85579 C 656.1719,243.13367 655.4613,242.53446 654.7392,242.04329 C 654.5686,241.92724 654.3816,241.86731 654.208,241.76204 C 649.9363,240.74998 645.5056,240.16829 640.9267,240.16829 C 640.852,240.16829 640.7826,240.19925 640.708,240.19954 z"
         id="path4311" />
      <path
         style="fill:none;fill-rule:evenodd;stroke:#000000;stroke-width:1px;stroke-linecap:butt;stroke-linejoin:miter;stroke-opacity:1"
         d="M 672.3374,245.90547 C 672.2779,245.90547 672.2184,245.90547 672.3374,245.90547 z"
         id="path4313" />
    </g>
    <g
       id="g4454"
       transform="translate(218.57143,30.938364)">
      <path
         sodipodi:nodetypes="ccccccccccccccccccccccccccccccccccc"
         id="path4450"
         d="M 890.09375,424.86834 C 880.84753,433.25403 871.32375,448.56285 858.75,452.55584 C 843.96398,457.85618 827.85598,456.68437 812.45032,459.34009 C 801.33129,460.87352 790.10935,462.43457 779.16568,459.15453 C 763.32348,455.27075 746.89185,452.32288 730.51122,455.04866 C 712.389,457.17868 694.06515,456.62181 676.0625,459.93084 C 665.6612,462.23237 652.86393,461.70508 645.15625,470.11834 C 641.4996,474.04111 644.76917,479.69791 649.375,480.93084 C 660.97653,485.37055 673.91781,483.73605 686.125,483.21209 C 694.78343,480.81522 701.36851,473.29993 709.96875,471.02459 C 714.08428,469.85537 717.79305,473.52486 716.25,477.64959 C 714.63391,487.43201 704.96129,493.40353 695.46875,493.14959 C 680.55314,494.26703 664.13129,491.46995 651.13241,500.52187 C 644.98109,504.34047 637.70729,507.61489 633.375,513.52459 C 632.19794,519.87156 639.57072,523.95665 645.18455,523.13254 C 660.15097,524.4808 671.5845,509.79145 686.71875,512.30584 C 703.44083,513.8731 719.97628,525.15146 736.90625,519.02459 C 747.84474,515.50981 753.67194,504.6899 763.03125,498.93084 C 772.19909,496.51502 781.97293,500.21521 791.10548,501.62864 C 807.47253,504.73868 822.65802,511.26514 838.15625,517.02459 C 850.87364,520.74684 863.55179,513.2348 874.25,508.30584 C 872.55895,514.17708 880.86495,516.02881 884.4375,518.36834 C 891.42937,521.60005 899.99449,525.35711 907.28125,524.02459 C 911.89532,521.5969 911.98415,513.76764 907.35424,511.62215 C 903.29139,509.62689 909.17243,511.69911 910.96875,512.21209 C 918.75065,514.7595 924.6186,503.3254 918.375,498.27459 C 910.09056,493.22253 900.1166,490.28888 890.34375,490.14959 C 883.11443,489.6177 876.9603,494.46374 870.15625,494.99334 C 867.359,494.60807 865.39664,490.86004 868.5625,488.99334 C 880.33648,477.34148 897.64249,476.24895 913.25,474.14959 C 916.53161,472.9908 920.12604,471.52451 922.89286,469.38619 C 909.64751,462.25604 893.48248,437.23972 890.09375,424.86834 z M 897.72257,454.26446 C 898.09238,455.33342 901.99197,457.69674 899.22257,458.01446 C 898.29847,457.30152 895.71732,455.18328 897.72257,454.26446 z"
         style="fill:#e6cb02;fill-opacity:1" />
      <path
         sodipodi:nodetypes="cccccccccccccccccccccccccccccccccccccccccccsccccc"
         id="path4416"
         d="M 889.12373,429.98988 C 895.45374,444.47547 904.78165,459.09901 919.26079,469.17463 C 917.21111,470.60956 914.61816,471.43717 912.50519,472.30904 C 901.48039,474.06427 889.93679,474.29005 879.68299,479.2394 C 874.27169,482.03035 868.07729,485.07673 865.02449,490.51698 C 863.89109,494.05025 868.18219,497.52331 871.57299,497.06933 C 877.69769,496.26423 882.83679,490.33245 898.05379,492.70635 C 904.51979,494.72195 911.64859,495.88973 917.20539,499.88873 C 919.46259,501.93203 919.41349,505.37974 917.86729,508.121 C 913.89949,512.21381 911.05569,509.87633 907.85209,509.24481 C 897.88144,506.32077 890.29527,504.26207 881.29219,504.28321 C 873.11459,505.00007 866.43759,510.52375 858.80469,513.10212 C 851.68119,516.28341 843.23399,516.98992 835.85739,514.21685 C 826.01119,510.43206 816.33329,506.03068 806.11039,503.37904 C 793.50529,500.02132 780.99909,496.82376 767.94739,495.98793 C 759.26289,495.60866 754.52579,504.04206 748.51939,509.06405 C 727.72859,529.01049 710.54559,512.81502 685.77719,510.15826 C 676.20029,509.42121 666.95349,514.18838 658.55849,518.51778 C 651.42239,521.56369 648.45349,521.63922 640.22049,520.59091 C 637.17129,520.02611 633.76319,515.45287 635.79589,513.23499 C 642.05269,507.89658 648.43249,504.21075 655.67959,500.3455 C 664.61829,495.18577 675.26539,495.55912 685.28329,495.6045 C 694.23439,495.22897 704.48119,495.73211 711.65259,489.72945 C 715.80399,485.4665 719.32599,479.43219 718.21699,473.33284 C 716.88739,468.52834 710.59739,468.09997 706.11709,469.99955 C 699.67829,473.54576 692.31099,479.12205 685.50509,481.30369 C 677.93709,482.0674 670.14229,481.7408 661.69889,481.65478 C 656.43889,481.03903 650.45259,480.39374 646.39059,476.60902 C 643.82549,473.35635 647.66859,469.84317 650.31559,468.2427 C 656.85519,464.63663 664.62089,464.03299 671.86239,462.54511 C 684.00819,460.75605 694.06389,459.44034 706.88719,458.65952 C 720.99439,459.13 738.82439,454.98383 751.85889,456.22707 C 766.15989,457.37519 779.54059,462.43533 794.11589,463.39262 C 811.17889,461.60858 828.06089,459.42877 845.10819,457.88129 C 857.02379,456.56387 869.03199,451.65793 877.99769,442.33475 C 882.63109,437.60684 884.81843,434.10782 888.64573,430.00563 C 888.80503,429.98726 888.96423,429.91638 889.12373,429.98988 z M 898.37362,452.23803 C 895.54392,451.96943 893.92092,455.33071 895.80852,457.3413 C 896.89862,459.07324 900.04312,461.91598 901.54442,459.05814 C 903.02962,457.44841 902.27532,455.91707 900.65212,454.64791 C 899.82942,454.02831 899.31342,452.52172 898.37362,452.23803 z M 884.9848,506.62627 C 889.95418,506.81255 897.34666,508.19623 902.49283,510.60106 C 905.02492,511.78432 906.45427,513.1058 907.87229,514.8782 C 909.69188,517.58332 908.81328,521.97642 905.42069,522.56488 C 898.46509,522.5128 891.70599,519.85547 885.33919,516.58459 C 883.19335,515.44987 873.93093,512.22546 876.87394,507.66094 C 877.99014,506.03026 882.72636,506.59003 884.9848,506.62627 z"
         style="fill:#fcf006;fill-opacity:1" />
    </g>
    <path
       transform="matrix(-0.4692492,0.9641649,-0.9584702,-0.4709984,1805.1899,-478.15267)"
       style="font-size:42.1727066px;font-style:normal;font-weight:normal;fill:#e7b901;fill-opacity:1;stroke:none;stroke-width:1px;stroke-linecap:butt;stroke-linejoin:miter;stroke-opacity:1;font-family:Bitstream Vera Sans"
       d="M 1004.7525,510.27828 L 998.79423,510.22715 C 998.64891,508.21005 998.08273,506.67989 997.09571,505.63665 C 996.1087,504.5934 994.6937,503.9742 992.8507,503.77904 C 990.89852,503.57232 989.38381,503.82952 988.30658,504.55065 C 987.22939,505.27177 986.63224,506.18523 986.51512,507.29103 C 986.43997,508.00091 986.58419,508.62705 986.94779,509.16944 C 987.31142,509.71181 987.99248,510.22223 988.99096,510.7007 C 989.67485,511.0216 991.24633,511.62976 993.70539,512.52519 C 996.86923,513.67468 999.04427,514.90585 1000.2305,516.21869 C 1001.8986,518.06569 1002.6069,520.17691 1002.3553,522.55233 C 1002.1934,524.08131 1001.6085,525.46543 1000.6007,526.70471 C 999.59287,527.94393 998.2364,528.8253 996.53128,529.34882 C 994.82618,529.87228 992.82005,530.01188 990.51289,529.7676 C 986.74502,529.36858 983.99633,528.24233 982.2668,526.38883 C 980.53732,524.53528 979.7708,522.22463 979.96722,519.45688 L 986.05679,519.83252 C 986.15285,521.40261 986.5917,522.57073 987.37336,523.33686 C 988.15505,524.10295 989.39913,524.57636 991.10558,524.75708 C 992.86667,524.94354 994.28381,524.72777 995.35699,524.10978 C 996.04779,523.71354 996.43438,523.12636 996.51677,522.34823 C 996.59195,521.63832 996.35594,520.99901 995.80874,520.43031 C 995.11219,519.7077 993.32639,518.84216 990.45132,517.83369 C 987.57628,516.82519 985.47167,515.87412 984.13748,514.9805 C 982.80333,514.08684 981.80523,512.95269 981.14319,511.57804 C 980.4812,510.20337 980.25066,508.56725 980.45157,506.66966 C 980.63374,504.94953 981.28213,503.38922 982.39675,501.98872 C 983.51141,500.58822 984.98111,499.6153 986.80585,499.06997 C 988.63064,498.52464 990.84676,498.39003 993.45424,498.66613 C 997.24944,499.06801 1000.0712,500.25377 1001.9196,502.22342 C 1003.7679,504.19306 1004.7122,506.87801 1004.7525,510.27828 L 1004.7525,510.27828 z M 967.63182,494.3276 L 960.52171,518.37993 L 969.11183,520.91925 L 967.66412,525.81661 L 944.6584,519.01589 L 946.10611,514.11853 L 954.67648,516.65202 L 961.78659,492.59969 L 967.63182,494.3276 z M 941.68772,501.66818 C 940.28107,504.40267 938.69153,506.48732 936.91909,507.92216 C 935.6054,508.9754 934.14112,509.77368 932.52625,510.31698 C 930.91142,510.86024 929.34029,511.07094 927.81285,510.94908 C 925.77621,510.79678 923.6653,510.1586 921.48011,509.03455 C 917.52488,506.99991 914.99117,504.14503 913.87898,500.46991 C 912.76686,496.79477 913.33485,492.77204 915.58295,488.40172 C 917.81228,484.06803 920.7345,481.28336 924.34963,480.04771 C 927.9648,478.81208 931.7439,479.20843 935.68694,481.23677 C 939.67884,483.29024 942.22641,486.14068 943.32967,489.78808 C 944.43294,493.43548 943.88563,497.3955 941.68772,501.66818 L 941.68772,501.66818 z M 936.00854,498.97832 C 937.5722,495.93862 938.05556,493.27335 937.45862,490.98251 C 936.8617,488.69167 935.48286,486.99049 933.3221,485.87898 C 931.16137,484.76747 928.98789,484.63358 926.80164,485.4773 C 924.61544,486.32102 922.72166,488.29935 921.12031,491.41229 C 919.53785,494.4886 919.03173,497.13059 919.60196,499.33825 C 920.17224,501.54589 921.57437,503.2243 923.80833,504.37351 C 926.04235,505.52268 928.23702,505.68291 930.39235,504.8542 C 932.54773,504.02546 934.41979,502.06683 936.00854,498.97832 L 936.00854,498.97832 z M 894.69841,467.62599 L 891.24729,462.47539 C 894.01037,460.46498 896.71424,459.49179 899.35889,459.5558 C 902.00357,459.61984 904.59219,460.66213 907.12474,462.68267 C 910.25826,465.18267 911.97972,468.3079 912.28914,472.05837 C 912.59856,475.80883 911.27211,479.54056 908.30977,483.25356 C 905.17622,487.18117 901.72847,489.42243 897.96653,489.97737 C 894.20462,490.53227 890.67105,489.49123 887.36581,486.85426 C 884.47915,484.55117 882.81504,481.82732 882.37346,478.68271 C 882.10517,476.81781 882.45615,474.72698 883.4264,472.4102 L 889.04174,475.04627 C 888.34476,476.49223 888.15638,477.9225 888.4766,479.3371 C 888.79689,480.75169 889.59016,481.96412 890.85641,482.97441 C 892.60562,484.36995 894.52568,484.87445 896.61658,484.48791 C 898.70753,484.10136 900.87457,482.5023 903.11771,479.69074 C 905.49786,476.70746 906.6565,474.1546 906.59364,472.03215 C 906.53081,469.90971 905.64089,468.16355 903.92389,466.79369 C 902.65762,465.78342 901.24734,465.31683 899.69305,465.39393 C 898.13879,465.47103 896.47392,466.21505 894.69841,467.62599 L 894.69841,467.62599 z M 891.59672,449.92077 L 868.54274,469.41011 L 864.60765,464.75528 L 874.84513,456.10074 L 856.6577,455.35127 L 851.3666,449.09242 L 867.68443,450.18204 L 874.02175,429.13131 L 879.11344,435.15427 L 873.65169,450.63819 L 880.69511,451.15529 L 887.66163,445.26594 L 891.59672,449.92077 z M 863.48047,430.5479 L 860.08128,425.65411 C 861.64408,424.37059 862.56633,423.02469 862.848,421.61642 C 863.1297,420.20816 862.81804,418.69538 861.91301,417.07808 C 860.95438,415.36495 859.86966,414.2769 858.65883,413.81392 C 857.44803,413.35097 856.35744,413.39099 855.38704,413.93398 C 854.7641,414.28259 854.33622,414.76193 854.1034,415.37199 C 853.87062,415.98208 853.84723,416.83286 854.03324,417.92433 C 854.16622,418.66796 854.57726,420.30211 855.26636,422.82677 C 856.15506,426.07353 856.40605,428.56021 856.01932,430.28681 C 855.47477,432.71526 854.16023,434.51272 852.0757,435.67919 C 850.73396,436.43 849.26622,436.75186 847.67245,436.64476 C 846.07874,436.53764 844.57583,435.93923 843.16372,434.84953 C 841.75167,433.75981 840.47916,432.20265 839.34619,430.17804 C 837.49598,426.87156 836.82805,423.97715 837.34242,421.49478 C 837.85685,419.01242 839.30056,417.05223 841.67355,415.61419 L 844.88365,420.80258 C 843.65731,421.78773 842.95712,422.8206 842.78307,423.90118 C 842.60908,424.98177 842.94105,426.27081 843.779,427.7683 C 844.64381,429.31372 845.63837,430.34604 846.76265,430.86528 C 847.48508,431.20041 848.1877,431.17692 848.87054,430.7948 C 849.49352,430.4462 849.87914,429.88432 850.02741,429.10917 C 850.21508,428.12321 849.89039,426.16545 849.05332,423.23588 C 848.21631,420.30632 847.77732,418.0389 847.73636,416.43361 C 847.69545,414.82833 848.04495,413.35852 848.78486,412.02417 C 849.52482,410.68985 850.72739,409.55677 852.39259,408.62493 C 853.90208,407.78027 855.55035,407.40852 857.3374,407.50968 C 859.12447,407.61088 860.76751,408.24886 862.26651,409.42363 C 863.76554,410.59843 865.15525,412.32991 866.43567,414.61807 C 868.29933,417.94851 868.96088,420.93695 868.42031,423.58339 C 867.87975,426.22985 866.23314,428.55135 863.48047,430.5479 L 863.48047,430.5479 z M 828.31379,407.00795 L 824.53366,395.54833 C 823.7854,393.27988 823.32194,391.55714 823.14325,390.3801 C 822.96463,389.20308 823.03001,388.07565 823.3394,386.99781 C 823.64886,385.92 824.20548,384.92326 825.00926,384.00758 C 825.81311,383.09194 826.83428,382.42984 828.07278,382.02128 C 829.41563,381.57834 830.76698,381.53373 832.12682,381.88743 C 833.48671,382.24116 834.65122,382.94482 835.62033,383.99841 C 835.55254,382.08374 835.97656,380.45493 836.89239,379.11199 C 837.80826,377.7691 839.09404,376.82456 840.74974,376.27837 C 842.05347,375.84835 843.42131,375.73324 844.85328,375.93304 C 846.28527,376.1329 847.54265,376.63607 848.62543,377.44255 C 849.70822,378.24909 850.58808,379.39358 851.26502,380.87603 C 851.68756,381.80639 852.52038,384.11201 853.76349,387.7929 L 856.9824,397.55118 L 828.31379,407.00795 z M 831.17595,399.6455 L 837.80533,397.4587 L 836.55388,393.6649 C 835.80992,391.40948 835.31503,390.01875 835.0692,389.49268 C 834.62505,388.54058 834.02587,387.8745 833.27166,387.49444 C 832.5175,387.11441 831.67759,387.07706 830.75193,387.38238 C 829.86543,387.67482 829.22577,388.15687 828.83293,388.82852 C 828.44015,389.5002 828.3442,390.33775 828.54507,391.34119 C 828.66914,391.93634 829.18055,393.59628 830.07933,396.32103 L 831.17595,399.6455 z M 842.57691,395.88472 L 850.24273,393.35603 L 848.47523,387.99778 C 847.78716,385.91185 847.292,384.60794 846.98973,384.08603 C 846.54947,383.2772 845.93698,382.70225 845.15227,382.36116 C 844.36759,382.02011 843.46679,382.0173 842.44988,382.35272 C 841.58945,382.63657 840.92818,383.08599 840.46607,383.70098 C 840.004,384.31601 839.76615,385.06304 839.75253,385.94208 C 839.73895,386.82115 840.1665,388.57743 841.03518,391.21091 L 842.57691,395.88472 z M 847.56905,366.22891 L 817.6012,369.8687 L 816.05441,357.13338 C 815.66547,353.93083 815.652,351.57117 816.01399,350.0544 C 816.37604,348.53766 817.1923,347.2596 818.46276,346.22022 C 819.73328,345.18088 821.25434,344.55361 823.02594,344.33841 C 825.27458,344.06532 827.21166,344.50076 828.8372,345.64471 C 830.46277,346.78871 831.62607,348.65262 832.32709,351.23644 C 832.93137,349.83549 833.63831,348.65368 834.44792,347.69102 C 835.25756,346.72839 836.73983,345.38327 838.89475,343.65565 L 844.29671,339.28646 L 845.17563,346.5229 L 839.18597,351.68948 C 837.0443,353.52613 835.70499,354.76745 835.16806,355.41347 C 834.63115,356.05951 834.28915,356.71644 834.14207,357.38425 C 833.99502,358.05208 834.0059,359.08102 834.17472,360.47106 L 834.32368,361.69758 L 846.83414,360.1781 L 847.56905,366.22891 z M 829.54028,362.27855 L 828.99654,357.80177 C 828.644,354.89903 828.30121,353.10142 827.96816,352.40891 C 827.63515,351.71644 827.144,351.20219 826.49469,350.86617 C 825.84543,350.53018 825.07106,350.41679 824.17159,350.52602 C 823.16315,350.64852 822.38157,351.01657 821.82686,351.63017 C 821.27219,352.2438 820.97267,353.05115 820.92828,354.0522 C 820.91975,354.5511 821.06444,356.02705 821.36235,358.48007 L 821.93588,363.20215 L 829.54028,362.27855 z M 844.84129,333.89889 L 814.65692,333.42547 L 814.75251,327.33094 L 844.93688,327.80436 L 844.84129,333.89889 z M 815.14509,315.23478 L 816.82956,304.22252 C 817.20945,301.73919 817.689,299.8752 818.26821,298.63055 C 819.05168,296.95889 820.19704,295.59949 821.7043,294.55235 C 823.2116,293.50526 824.96837,292.80184 826.97461,292.44208 C 828.98088,292.08238 831.38174,292.11632 834.1772,292.54389 C 836.63343,292.91963 838.70368,293.54878 840.38797,294.43133 C 842.44505,295.50985 844.03945,296.84392 845.17118,298.43356 C 846.02911,299.63417 846.60709,301.16691 846.90512,303.03177 C 847.12238,304.42602 847.06079,306.2359 846.72037,308.4614 L 844.98608,319.79935 L 815.14509,315.23478 z M 821.11486,309.98177 L 840.87994,313.0051 L 841.56805,308.50656 C 841.82544,306.82386 841.91623,305.59479 841.84041,304.81935 C 841.7456,303.80495 841.45574,302.93082 840.97081,302.19695 C 840.48589,301.46313 839.60623,300.79042 838.33183,300.17883 C 837.05744,299.56729 835.26677,299.08506 832.95982,298.73216 C 830.65289,298.37931 828.85083,298.31198 827.55365,298.53017 C 826.2565,298.74841 825.20584,299.17098 824.40164,299.79789 C 823.59749,300.42484 822.98713,301.28279 822.57056,302.37174 C 822.2519,303.18405 821.9047,304.8183 821.52897,307.2745 L 821.11486,309.98177 z M 845.09996,270.51438 L 840.33084,268.74648 L 844.89732,256.42785 L 856.17331,260.60783 C 856.88803,262.23442 857.26516,264.34709 857.30471,266.94585 C 857.34425,269.54466 856.93218,272.00898 856.06852,274.33882 C 854.97103,277.29943 853.39324,279.65005 851.33512,281.39071 C 849.27701,283.13139 846.8875,284.12697 844.16658,284.37745 C 841.44568,284.62795 838.72722,284.24978 836.01119,283.24295 C 833.06349,282.15025 830.67305,280.56136 828.83987,278.47627 C 827.00673,276.3912 825.92011,273.93133 825.57999,271.09666 C 825.31315,268.93338 825.68075,266.50016 826.68277,263.79699 C 827.98546,260.28293 829.73994,257.81113 831.94623,256.38158 C 834.15256,254.95209 836.66077,254.43609 839.47088,254.83355 L 838.42853,260.90383 C 836.89043,260.78755 835.51513,261.13057 834.30263,261.93288 C 833.09016,262.73525 832.17854,263.96023 831.56775,265.60784 C 830.64206,268.10505 830.69767,270.38403 831.73457,272.44479 C 832.7715,274.50558 834.84748,276.11333 837.96253,277.26806 C 841.32216,278.51348 844.11863,278.70095 846.35196,277.83047 C 848.58528,276.96002 850.15048,275.31481 851.04755,272.89483 C 851.49132,271.69774 851.70136,270.41033 851.67768,269.0326 C 851.65399,267.65492 851.46733,266.41078 851.11768,265.3002 L 847.52636,263.96891 L 845.09996,270.51438 z M 863.83809,255.13865 L 838.20766,239.18869 L 850.03413,220.18441 L 854.36998,222.88263 L 845.76396,236.71187 L 851.44601,240.24784 L 859.45363,227.38018 L 863.77199,230.06752 L 855.76437,242.93518 L 862.74018,247.27627 L 871.65084,232.9575 L 875.9692,235.64484 L 863.83809,255.13865 z"
       id="text2721" />
    <path
       transform="scale(1.0501974,0.952202)"
       style="font-size:41.24700165px;font-style:normal;font-weight:normal;fill:#e7b901;fill-opacity:1;stroke:none;stroke-width:1px;stroke-linecap:butt;stroke-linejoin:miter;stroke-opacity:1;font-family:Bitstream Vera Sans"
       d="M 806.85124,362.54245 L 801.19186,362.54245 L 801.19186,341.21404 C 799.12413,343.14752 796.68717,344.57747 793.88099,345.50389 L 793.88099,340.36816 C 795.35793,339.88482 796.96242,338.96844 798.69448,337.61903 C 800.42652,336.26967 801.61479,334.69538 802.25929,332.89617 L 806.85124,332.89617 L 806.85124,362.54245 z M 821.40144,355.71494 L 826.87956,355.11074 C 827.01382,356.22517 827.36292,357.05091 827.92685,357.58798 C 828.49076,358.12505 829.23595,358.39359 830.1624,358.39358 C 831.33052,358.39359 832.3241,357.85652 833.14314,356.78237 C 833.96216,355.70824 834.48581,353.4794 834.71408,350.09584 C 833.29083,351.74735 831.51178,352.57309 829.37694,352.57308 C 827.0541,352.57309 825.05016,351.67686 823.36511,349.88437 C 821.68005,348.09192 820.83752,345.75902 820.83752,342.88568 C 820.83752,339.89153 821.72704,337.47807 823.50609,335.6453 C 825.28513,333.81257 827.55089,332.8962 830.30339,332.89617 C 833.29754,332.8962 835.75463,334.05425 837.67468,336.37034 C 839.59468,338.68648 840.55469,342.49632 840.55472,347.79987 C 840.55469,353.19744 839.5544,357.09119 837.55383,359.48115 C 835.55323,361.87111 832.94844,363.06609 829.73946,363.06609 C 827.43005,363.06609 825.56373,362.45182 824.1405,361.22327 C 822.71726,359.99473 821.80425,358.15862 821.40144,355.71494 L 821.40144,355.71494 z M 834.21057,343.3489 C 834.21056,341.52288 833.79097,340.10636 832.95181,339.09933 C 832.11263,338.09235 831.14255,337.58884 830.04156,337.58882 C 828.99427,337.58884 828.12489,338.00172 827.43342,338.82744 C 826.74193,339.65321 826.39619,341.00595 826.3962,342.88568 C 826.39619,344.79229 826.77214,346.19203 827.52405,347.08489 C 828.27594,347.97779 829.21581,348.42423 830.34367,348.42421 C 831.43122,348.42423 832.3476,347.99457 833.09279,347.13524 C 833.83797,346.27595 834.21056,345.01383 834.21057,343.3489 L 834.21057,343.3489 z"
       id="text2751" />
    <path
       transform="scale(1.0501974,0.952202)"
       style="font-size:41.24700165px;font-style:normal;font-weight:normal;fill:#e7b901;fill-opacity:1;stroke:none;stroke-width:1px;stroke-linecap:butt;stroke-linejoin:miter;stroke-opacity:1;font-family:Bitstream Vera Sans"
       d="M 1088.2199,346.6116 C 1086.7563,345.99399 1085.6923,345.14475 1085.0276,344.06387 C 1084.363,342.98304 1084.0307,341.79813 1084.0307,340.50914 C 1084.0307,338.30718 1084.7994,336.48785 1086.3368,335.05116 C 1087.8741,333.61453 1090.0593,332.8962 1092.8924,332.89617 C 1095.6985,332.8962 1097.877,333.61453 1099.4278,335.05116 C 1100.9786,336.48785 1101.754,338.30718 1101.754,340.50914 C 1101.754,341.87869 1101.3982,343.09717 1100.6866,344.16457 C 1099.975,345.23202 1098.9747,346.04769 1097.6857,346.6116 C 1099.3238,347.26953 1100.5691,348.22954 1101.4217,349.49164 C 1102.2743,350.75377 1102.7006,352.21057 1102.7006,353.86205 C 1102.7006,356.58769 1101.8312,358.8031 1100.0925,360.5083 C 1098.3537,362.21349 1096.0409,363.06609 1093.1542,363.06609 C 1090.4688,363.06609 1088.2333,362.36119 1086.4475,360.95138 C 1084.3395,359.28646 1083.2855,357.00392 1083.2855,354.10373 C 1083.2855,352.50596 1083.6816,351.03909 1084.4738,349.70311 C 1085.266,348.36716 1086.5147,347.33666 1088.2199,346.6116 L 1088.2199,346.6116 z M 1089.388,340.91194 C 1089.388,342.03981 1089.7069,342.91926 1090.3446,343.5503 C 1090.9824,344.18138 1091.8316,344.4969 1092.8924,344.49689 C 1093.9665,344.4969 1094.8258,344.17802 1095.4703,343.54023 C 1096.1148,342.90248 1096.437,342.01967 1096.437,340.8918 C 1096.437,339.83111 1096.1181,338.98187 1095.4804,338.34407 C 1094.8426,337.70633 1094.0001,337.38744 1092.9528,337.38742 C 1091.8652,337.38744 1090.9992,337.70969 1090.3547,338.35414 C 1089.7102,338.99865 1089.388,339.85125 1089.388,340.91194 L 1089.388,340.91194 z M 1088.8643,353.55995 C 1088.8643,355.11746 1089.2638,356.33258 1090.0627,357.20531 C 1090.8616,358.07806 1091.8585,358.51443 1093.0535,358.51442 C 1094.2216,358.51443 1095.1883,358.09484 1095.9537,357.25566 C 1096.719,356.4165 1097.1016,355.20473 1097.1017,353.62037 C 1097.1016,352.23742 1096.7123,351.12636 1095.9335,350.28718 C 1095.1548,349.44802 1094.1679,349.02843 1092.9729,349.02842 C 1091.59,349.02843 1090.5595,349.50508 1089.8814,350.45837 C 1089.2034,351.41168 1088.8643,352.44554 1088.8643,353.55995 L 1088.8643,353.55995 z M 1131.4496,340.24732 L 1125.9715,340.85152 C 1125.8372,339.7237 1125.4881,338.89124 1124.9242,338.35414 C 1124.3603,337.8171 1123.6285,337.54856 1122.7289,337.54854 C 1121.5339,337.54856 1120.5236,338.08563 1119.6978,339.15975 C 1118.8721,340.23391 1118.3518,342.46947 1118.137,345.86642 C 1119.5468,344.20152 1121.299,343.36906 1123.3936,343.36904 C 1125.7567,343.36906 1127.7807,344.26865 1129.4658,346.06782 C 1131.1509,347.86702 1131.9934,350.18984 1131.9934,353.03631 C 1131.9934,356.05733 1131.1072,358.48086 1129.3349,360.30689 C 1127.5626,362.13293 1125.2867,363.04595 1122.5074,363.04595 C 1119.5266,363.04595 1117.0763,361.8879 1115.1562,359.57178 C 1113.2362,357.25567 1112.2762,353.45926 1112.2762,348.18253 C 1112.2762,342.77157 1113.2765,338.8711 1115.2771,336.48111 C 1117.2777,334.09118 1119.8757,332.8962 1123.0713,332.89617 C 1125.3136,332.8962 1127.1698,333.5239 1128.6401,334.77927 C 1130.1103,336.0347 1131.0468,337.85738 1131.4496,340.24732 L 1131.4496,340.24732 z M 1118.6204,352.59322 C 1118.6203,354.4327 1119.0433,355.85257 1119.8892,356.85286 C 1120.7351,357.85316 1121.7018,358.35331 1122.7894,358.3533 C 1123.8366,358.35331 1124.7094,357.94379 1125.4076,357.12475 C 1126.1058,356.30573 1126.4549,354.96305 1126.4549,353.09673 C 1126.4549,351.17671 1126.0789,349.77026 1125.327,348.87737 C 1124.5751,347.9845 1123.6352,347.53806 1122.5074,347.53805 C 1121.4198,347.53806 1120.5001,347.96436 1119.7482,348.81695 C 1118.9963,349.66956 1118.6203,350.92832 1118.6204,352.59322 L 1118.6204,352.59322 z"
       id="text2755" />
    <path
       style="font-size:31.71983337px;font-style:normal;font-weight:normal;fill:#e7b901;fill-opacity:1;stroke:none;stroke-width:1px;stroke-linecap:butt;stroke-linejoin:miter;stroke-opacity:1;font-family:Bitstream Vera Sans"
       d="M 1132.1294,488.40512 L 1135.4573,484.79526 C 1136.7693,485.82253 1138.0169,486.32344 1139.2,486.29795 C 1140.3831,486.27249 1141.544,485.75108 1142.6829,484.73372 C 1143.8893,483.65607 1144.5703,482.58887 1144.7259,481.53213 C 1144.8816,480.47542 1144.6543,479.6054 1144.0439,478.92208 C 1143.652,478.48343 1143.1898,478.22506 1142.6574,478.14699 C 1142.1251,478.06894 1141.4365,478.20239 1140.592,478.54734 C 1140.0177,478.78738 1138.7769,479.41045 1136.8696,480.41654 C 1134.4172,481.71241 1132.4621,482.35932 1131.0041,482.35727 C 1128.9534,482.35391 1127.2724,481.61829 1125.9612,480.15043 C 1125.1171,479.20562 1124.5955,478.0827 1124.3965,476.78164 C 1124.1974,475.48062 1124.4098,474.16472 1125.0335,472.83391 C 1125.6573,471.50315 1126.6819,470.20096 1128.1077,468.92736 C 1130.436,466.84744 1132.6444,465.79222 1134.733,465.76166 C 1136.8218,465.73116 1138.6567,466.54154 1140.2381,468.19282 L 1136.6396,471.7033 C 1135.6276,470.89325 1134.6716,470.51492 1133.7713,470.56833 C 1132.8711,470.62177 1131.8936,471.11949 1130.8391,472.06146 C 1129.7509,473.03362 1129.0986,474.01832 1128.8822,475.01552 C 1128.7419,475.65655 1128.8866,476.21748 1129.3161,476.69833 C 1129.708,477.137 1130.2289,477.3466 1130.879,477.32714 C 1131.7056,477.30163 1133.2221,476.69009 1135.4286,475.49252 C 1137.6351,474.29499 1139.3802,473.53611 1140.6641,473.21587 C 1141.9479,472.89566 1143.1926,472.91374 1144.3983,473.27005 C 1145.604,473.62641 1146.7305,474.39086 1147.7779,475.56343 C 1148.7275,476.62637 1149.3215,477.88557 1149.56,479.34103 C 1149.7984,480.79651 1149.5793,482.23222 1148.9027,483.64813 C 1148.2261,485.06406 1147.0822,486.49171 1145.471,487.93109 C 1143.1257,490.02611 1140.8406,491.09304 1138.6152,491.13187 C 1136.3898,491.17073 1134.2279,490.26182 1132.1294,488.40512 L 1132.1294,488.40512 z M 1158.5202,474.68029 L 1143.3681,460.62591 L 1138.3487,466.03733 L 1135.2636,463.17568 L 1148.7064,448.68303 L 1151.7916,451.54469 L 1146.7836,456.94366 L 1161.9356,470.99804 L 1158.5202,474.68029 z M 1168.2252,464.02141 L 1148.4705,448.90524 L 1159.6788,434.25771 L 1163.0206,436.81488 L 1154.8645,447.47375 L 1159.244,450.82488 L 1166.8329,440.90715 L 1170.1613,443.45402 L 1162.5723,453.37175 L 1167.9489,457.4859 L 1176.3937,446.44973 L 1179.7221,448.99659 L 1168.2252,464.02141 z M 1181.432,446.44885 L 1160.2752,433.36736 L 1169.9746,417.68001 L 1173.5538,419.89299 L 1166.4955,431.30853 L 1171.1857,434.20858 L 1177.7534,423.5868 L 1181.318,425.79083 L 1174.7505,436.41263 L 1180.5087,439.97301 L 1187.8169,428.15339 L 1191.3816,430.35743 L 1181.432,446.44885 z M 1192.8558,427.51377 L 1170.7381,416.58371 L 1172.9632,412.08108 L 1191.3237,421.15439 L 1196.8563,409.95867 L 1200.6136,411.81543 L 1192.8558,427.51377 z M 1193.5254,407.93641 L 1194.824,403.20149 C 1196.4612,403.51151 1197.7995,403.38354 1198.8387,402.81759 C 1199.8779,402.25166 1200.6699,401.25532 1201.2144,399.82859 C 1201.791,398.31732 1201.9058,397.05657 1201.5589,396.04636 C 1201.2119,395.03617 1200.6104,394.36772 1199.7545,394.04104 C 1199.2048,393.83135 1198.6756,393.81404 1198.1668,393.98916 C 1197.6582,394.16431 1197.1079,394.59902 1196.516,395.29331 C 1196.116,395.7703 1195.2999,396.89359 1194.0677,398.66319 C 1192.4843,400.94054 1191.0445,402.41306 1189.7485,403.08078 C 1187.9253,404.01952 1186.0942,404.13801 1184.2553,403.43627 C 1183.0717,402.98458 1182.0926,402.22658 1181.3183,401.16226 C 1180.5441,400.09795 1180.1283,398.8315 1180.0713,397.36288 C 1180.0143,395.89429 1180.3265,394.26696 1181.0081,392.48089 C 1182.1213,389.56403 1183.5985,387.61246 1185.4398,386.62614 C 1187.2813,385.63988 1189.2835,385.51707 1191.4465,386.25773 L 1189.8619,391.02873 C 1188.591,390.77383 1187.568,390.8768 1186.7928,391.33768 C 1186.0176,391.79858 1185.3781,392.68955 1184.8739,394.01058 C 1184.3535,395.37392 1184.2263,396.5482 1184.492,397.53343 C 1184.6618,398.16727 1185.048,398.59914 1185.6503,398.829 C 1186.1998,399.03874 1186.7589,398.98569 1187.3273,398.6699 C 1188.0499,398.26763 1189.1163,397.02795 1190.5265,394.95085 C 1191.9365,392.87377 1193.1383,391.39822 1194.1317,390.52418 C 1195.125,389.65017 1196.2391,389.09459 1197.4737,388.85744 C 1198.7084,388.62033 1200.0602,388.78206 1201.5291,389.34263 C 1202.8608,389.85081 1203.9666,390.6966 1204.8469,391.87999 C 1205.7271,393.06343 1206.1917,394.43939 1206.241,396.00789 C 1206.2902,397.57644 1205.9296,399.36997 1205.1593,401.38852 C 1204.0382,404.32653 1202.4981,406.32377 1200.5392,407.38021 C 1198.5802,408.43665 1196.2423,408.62205 1193.5254,407.93641 L 1193.5254,407.93641 z"
       id="text2861" />
    <path
       style="font-size:29.92904663px;font-style:normal;font-weight:normal;fill:#e7b901;fill-opacity:1;stroke:none;stroke-width:1px;stroke-linecap:butt;stroke-linejoin:miter;stroke-opacity:1;font-family:Bitstream Vera Sans"
       d="M 822.83644,406.35977 L 845.88442,397.13045 L 849.05239,404.17965 C 850.25279,406.85092 850.92005,408.63836 851.05409,409.54198 C 851.26842,410.92707 850.9855,412.27199 850.20534,413.57673 C 849.42506,414.88145 848.11786,415.90106 846.28373,416.63555 C 844.86866,417.20214 843.57022,417.43612 842.38806,417.33747 C 841.20589,417.2388 840.17192,416.92616 839.28599,416.39955 C 838.39995,415.87292 837.69446,415.25943 837.16952,414.55909 C 836.47806,413.59849 835.68552,412.12389 834.79188,410.13529 L 833.50466,407.27108 L 824.81057,410.75254 L 822.83644,406.35977 z M 843.9596,403.08452 L 837.41938,405.70348 L 838.49987,408.10763 C 839.27792,409.839 839.91867,410.94829 840.42199,411.43549 C 840.92543,411.92267 841.50833,412.22916 842.17093,412.35495 C 842.83341,412.48072 843.50536,412.40721 844.18666,412.1344 C 845.02513,411.79864 845.61236,411.28913 845.94845,410.60588 C 846.28443,409.92264 846.36051,409.19756 846.17669,408.43067 C 846.0458,407.86433 845.62464,406.78968 844.9133,405.2067 L 843.9596,403.08452 z M 844.6874,447.68485 L 841.96911,443.17255 L 845.83206,438.72529 L 840.88523,430.51348 L 834.92019,431.47142 L 832.26944,427.07124 L 858.85314,423.39083 L 861.49537,427.777 L 844.6874,447.68485 z M 848.6969,435.42578 L 855.06756,428.26014 L 845.32021,429.82044 L 848.6969,435.42578 z M 847.96441,452.18235 L 868.06586,438.09443 L 874.40812,446.15802 C 876.00304,448.18578 876.9814,449.78566 877.34319,450.95769 C 877.70488,452.12971 877.64131,453.31536 877.15248,454.51467 C 876.66354,455.71396 875.82494,456.73003 874.63659,457.56288 C 873.12827,458.61995 871.55357,459.07434 869.91261,458.92606 C 868.27165,458.77776 866.6682,457.96063 865.10238,456.47467 C 865.24204,457.66179 865.21773,458.73962 865.02947,459.70816 C 864.8412,460.67669 864.32515,462.16604 863.48141,464.17621 L 861.38225,469.24143 L 857.77838,464.65954 L 859.97372,458.8242 C 860.76324,456.745 861.21876,455.38166 861.34053,454.73417 C 861.46218,454.08666 861.43903,453.50728 861.27088,452.99602 C 861.10272,452.48477 860.67243,451.78907 859.98026,450.90893 L 859.36944,450.13235 L 850.9779,456.01353 L 847.96441,452.18235 z M 862.57796,447.88367 L 864.80744,450.71821 C 866.253,452.55614 867.23802,453.64611 867.76225,453.98811 C 868.28649,454.33012 868.85151,454.48961 869.45732,454.46659 C 870.06312,454.44356 870.66764,454.22064 871.271,453.79781 C 871.9475,453.32372 872.35956,452.77052 872.5075,452.13819 C 872.65521,451.50586 872.53975,450.84062 872.16078,450.14246 C 871.96211,449.79979 871.25195,448.85187 870.0304,447.2987 L 867.6787,444.30883 L 862.57796,447.88367 z M 865.28329,473.40076 L 883.41352,457.10301 L 886.8996,460.5585 L 878.84859,467.79577 L 893.94244,467.53954 L 898.62973,472.18578 L 885.0671,472.08965 L 880.85287,488.83374 L 876.34217,484.36262 L 880.1045,472.00941 L 874.24802,471.93135 L 868.76936,476.85626 L 865.28329,473.40076 z"
       id="text3651" />
    <path
       transform="scale(1.0411645,0.960463)"
       style="font-size:30.57797813px;font-style:normal;font-weight:normal;fill:#e7b901;fill-opacity:1;stroke:none;stroke-width:1px;stroke-linecap:butt;stroke-linejoin:miter;stroke-opacity:1;font-family:Bitstream Vera Sans"
       d="M 932.61061,539.4502 L 932.61061,517.56186 L 947.61591,517.56186 L 947.61591,521.26466 L 937.03008,521.26466 L 937.03008,526.4456 L 946.16764,526.4456 L 946.16764,530.1484 L 937.03008,530.1484 L 937.03008,539.4502 L 932.61061,539.4502 z M 959.23766,539.4502 L 959.23766,535.25468 L 963.43318,535.25468 L 963.43318,539.4502 L 959.23766,539.4502 z M 989.74669,531.40257 L 994.03178,532.76126 C 993.37482,535.15017 992.28239,536.92443 990.75451,538.08404 C 989.22659,539.24365 987.28809,539.82346 984.93902,539.82346 C 982.03251,539.82346 979.64361,538.83057 977.7723,536.8448 C 975.90099,534.85902 974.96534,532.14414 974.96534,528.70012 C 974.96534,525.05706 975.90597,522.2277 977.78723,520.21205 C 979.66849,518.19643 982.142,517.18861 985.20777,517.18859 C 987.88532,517.18861 990.06021,517.97994 991.73246,519.56257 C 992.72782,520.49824 993.47435,521.842 993.97206,523.59384 L 989.59738,524.63899 C 989.33857,523.50427 988.79858,522.60844 987.9774,521.95147 C 987.15621,521.29454 986.15834,520.96606 984.98381,520.96605 C 983.36133,520.96606 982.04495,521.54836 981.03465,522.71293 C 980.02434,523.87754 979.51918,525.76378 979.51919,528.37165 C 979.51918,531.13881 980.01687,533.10965 981.01225,534.28419 C 982.00762,535.45874 983.30161,536.04601 984.89422,536.04601 C 986.06876,536.04601 987.07906,535.67274 987.92515,534.92621 C 988.7712,534.17968 989.37838,533.00514 989.74669,531.40257 L 989.74669,531.40257 z M 1005.8028,539.4502 L 1005.8028,535.25468 L 1009.9984,535.25468 L 1009.9984,539.4502 L 1005.8028,539.4502 z"
       id="text3659" />
  </g>
</svg>
