<?xml version="1.0" standalone="no"?>
<!DOCTYPE svg PUBLIC "-//W3C//DTD SVG 20010904//EN"
 "http://www.w3.org/TR/2001/REC-SVG-20010904/DTD/svg10.dtd">
<svg version="1.0" xmlns="http://www.w3.org/2000/svg"
 width="220" height="208" viewBox="0 0 2180.000000 2064.000000"
 preserveAspectRatio="xMidYMid meet">
<metadata>
Created by potrace 1.13, written by Peter Selinger 2001-2015
</metadata>
<g transform="translate(0.000000,2064.000000) scale(0.100000,-0.100000)"
fill="#000000" stroke="none">
<path d="M13975 19990 c-950 -77 -1804 -452 -2392 -1051 -208 -212 -345 -421
-471 -719 -168 -399 -241 -779 -229 -1193 6 -206 21 -330 63 -514 224 -1002
1014 -1977 2304 -2845 521 -351 975 -603 1840 -1023 1288 -626 1624 -801 2010
-1049 461 -295 791 -597 1008 -922 166 -247 277 -546 317 -849 29 -225 14
-624 -30 -794 -81 -312 -372 -752 -833 -1258 -228 -251 -448 -468 -862 -851
l-45 -42 112 45 c333 133 711 332 1045 551 954 624 1546 1400 1722 2257 79
379 73 803 -14 1227 -31 148 -104 398 -150 508 -159 388 -534 814 -1105 1258
-403 313 -859 615 -1600 1056 -933 556 -1110 663 -1260 759 -207 132 -381 232
-868 501 -810 446 -1216 712 -1516 994 -43 41 -81 74 -85 74 -3 0 18 -25 46
-55 29 -31 62 -72 75 -91 15 -21 29 -32 36 -28 7 4 9 4 5 -1 -15 -16 276 -325
414 -441 77 -64 214 -163 243 -175 6 -2 89 -51 185 -108 264 -156 473 -277
720 -416 380 -213 797 -447 945 -530 72 -40 191 -107 265 -150 74 -43 151 -87
170 -98 70 -40 290 -174 485 -296 110 -68 209 -129 220 -135 11 -6 70 -41 130
-77 61 -36 211 -126 335 -199 609 -360 971 -609 1200 -826 30 -29 67 -62 81
-73 40 -31 197 -213 260 -300 100 -141 180 -320 197 -447 19 -142 -26 -138
-150 14 -313 384 -586 628 -1038 927 -178 117 -271 175 -735 455 -115 69 -277
168 -360 220 -151 93 -210 131 -450 288 -71 47 -152 99 -180 117 -27 18 -81
52 -120 77 -118 76 -305 191 -410 253 -55 32 -136 79 -180 105 -44 26 -116 66
-160 90 -44 23 -108 58 -142 76 -286 154 -290 156 -479 269 -152 92 -349 220
-504 330 -132 93 -284 212 -521 410 -79 67 -175 145 -213 175 -235 188 -418
359 -517 485 -158 202 -281 485 -210 485 25 0 78 -36 126 -85 53 -55 67 -59
27 -7 -253 324 -377 722 -342 1097 22 237 95 490 206 714 171 344 444 539 884
632 124 26 449 37 611 20 372 -39 776 -160 1124 -336 319 -161 565 -335 1085
-767 693 -576 1032 -826 1489 -1098 187 -111 191 -112 221 -54 19 38 26 252
10 341 -20 116 -59 183 -265 453 -107 141 -158 230 -181 319 -26 103 1 194
116 397 108 187 142 268 148 345 4 54 1 73 -18 110 -40 79 -119 176 -229 281
-184 176 -366 295 -716 468 -354 174 -641 289 -1170 465 -429 143 -710 209
-1050 245 -138 15 -547 21 -680 10z m660 -120 c287 -25 610 -100 1060 -248
566 -187 889 -324 1181 -503 192 -117 368 -243 452 -323 126 -119 77 -200 -98
-162 -94 20 -212 78 -410 202 -215 135 -350 209 -605 334 -194 95 -605 280
-621 280 -3 0 -20 7 -37 15 -112 51 -389 136 -555 170 -356 71 -1073 87 -1422
30 -172 -27 -272 -57 -830 -246 -19 -7 -44 -15 -55 -20 -33 -13 -72 -19 -78
-13 -12 13 16 51 56 76 58 37 194 108 237 124 19 7 60 22 90 34 151 58 387
131 554 171 170 41 308 59 561 74 286 16 375 17 520 5z"/>
<path d="M9797 13609 c-600 -63 -1221 -328 -1777 -757 -434 -335 -750 -656
-1590 -1612 -759 -865 -1135 -1243 -1618 -1629 -657 -524 -1307 -836 -2057
-986 -222 -44 -385 -65 -573 -72 -85 -3 -148 -9 -140 -13 7 -4 121 -33 253
-64 1406 -327 2638 -482 3376 -426 750 58 1438 374 2164 996 83 70 260 239
395 374 322 321 517 539 1090 1215 642 759 1001 1133 1360 1420 226 180 355
251 608 334 230 76 669 179 947 221 44 7 86 16 92 19 23 12 -254 232 -472 376
-534 353 -1059 552 -1594 605 -118 11 -350 11 -464 -1z m574 -125 c301 -51
813 -267 890 -375 l22 -32 -22 -18 c-36 -30 -170 -24 -524 21 -477 60 -506 62
-1052 69 -280 3 -516 10 -522 14 -55 35 79 140 274 213 128 48 322 93 508 117
86 11 339 6 426 -9z m-6076 -4575 c29 -46 -275 -181 -335 -149 -12 7 -18 16
-13 23 24 40 147 97 268 122 78 17 73 17 80 4z"/>
<path d="M12550 12049 c-524 -36 -1099 -246 -1613 -591 -482 -323 -909 -735
-1722 -1663 -121 -137 -293 -333 -383 -435 -1102 -1241 -1911 -1850 -2877
-2163 -367 -119 -701 -185 -1070 -209 l-180 -12 75 -18 c1101 -260 1988 -411
2715 -462 794 -56 1262 -3 1779 204 539 214 1023 552 1580 1100 337 332 507
520 1111 1230 511 600 659 765 929 1036 335 334 611 557 811 655 233 114 756
253 1239 330 l80 12 -50 45 c-77 70 -257 208 -389 298 -570 389 -1146 605
-1712 644 -161 11 -157 11 -323 -1z m570 -143 c243 -56 560 -182 738 -292 82
-52 110 -90 87 -120 -12 -17 -27 -19 -132 -18 -68 1 -215 14 -348 32 -506 68
-734 83 -1261 81 -230 -1 -338 3 -353 10 -35 19 -25 47 32 90 157 118 451 208
792 245 22 2 108 2 190 0 114 -2 175 -9 255 -28z m-6143 -4573 c6 -17 -75 -69
-164 -104 -75 -30 -172 -44 -189 -26 -22 22 97 91 221 128 66 20 126 21 132 2z"/>
<path d="M15130 10520 c-374 -34 -798 -158 -1161 -340 -295 -148 -662 -402
-944 -653 -356 -317 -604 -579 -1305 -1377 -846 -963 -1252 -1362 -1810 -1777
-748 -556 -1572 -863 -2470 -919 l-115 -7 70 -18 c138 -36 595 -138 840 -188
1093 -221 1941 -315 2601 -289 313 12 572 58 859 153 794 262 1477 786 2406
1845 74 85 276 322 449 525 548 646 798 922 1081 1191 259 247 520 449 683
528 229 111 801 263 1235 327 l84 13 -54 48 c-73 66 -304 241 -416 316 -486
326 -991 531 -1478 601 -162 24 -418 33 -555 21z m605 -144 c138 -33 202 -54
390 -128 266 -105 435 -207 435 -263 0 -18 -8 -25 -45 -35 -54 -15 -136 -10
-405 26 -533 70 -736 84 -1261 84 -357 0 -378 1 -400 19 l-24 19 47 46 c109
104 410 210 716 251 164 22 407 13 547 -19z m-6152 -4573 c-17 -47 -188 -128
-278 -133 -79 -5 -93 10 -44 49 25 19 137 68 174 75 11 2 31 9 45 14 14 6 44
11 67 11 36 1 41 -2 36 -16z"/>
<path d="M2032 7089 c-114 -22 -228 -106 -274 -201 -51 -105 -59 -217 -33
-458 18 -170 19 -281 2 -323 -47 -110 -160 -165 -273 -132 -119 34 -218 184
-271 408 -15 64 -30 117 -33 117 -6 0 -165 -113 -184 -131 -19 -17 80 -235
156 -346 142 -206 333 -308 515 -274 173 32 307 158 342 319 15 73 14 203 -5
357 -21 186 -22 291 0 340 33 77 89 115 168 115 130 -1 230 -122 294 -357 16
-57 32 -103 35 -103 5 0 149 102 177 126 8 6 -72 185 -116 258 -99 167 -220
264 -357 286 -68 11 -83 11 -143 -1z"/>
<path d="M19744 7023 c-360 -304 -507 -600 -436 -880 80 -315 402 -610 741
-679 172 -34 333 -6 469 83 128 83 276 263 352 426 31 68 86 246 77 252 -1 1
-37 30 -81 63 -43 34 -83 62 -87 62 -5 0 -9 -10 -9 -22 0 -56 -45 -202 -90
-294 -66 -136 -160 -238 -267 -291 -67 -33 -86 -38 -167 -41 -189 -8 -358 68
-535 241 -77 75 -111 123 -158 223 -46 97 -56 199 -27 290 41 132 180 288 372
418 56 39 102 73 102 77 0 6 -138 115 -166 132 -6 4 -47 -23 -90 -60z"/>
<path d="M2472 5573 l-400 -678 83 -84 83 -84 478 295 c264 162 480 294 482
293 2 -2 -130 -215 -292 -474 -163 -259 -296 -474 -296 -479 0 -9 153 -162
163 -162 9 0 1359 759 1372 771 6 6 -16 35 -60 79 l-70 70 -503 -281 c-277
-155 -505 -280 -506 -278 -2 2 131 218 295 479 164 261 299 480 299 485 0 6
-35 45 -77 87 l-78 77 -480 -295 c-577 -356 -524 -325 -498 -283 38 61 550
933 562 958 12 22 8 28 -65 102 -43 44 -81 79 -85 79 -3 0 -186 -305 -407
-677z"/>
<path d="M18527 5608 l-307 -303 539 -545 540 -545 85 84 85 84 -240 246 -239
246 188 182 187 181 -67 69 -68 68 -185 -185 -185 -185 -168 168 -167 167 223
222 223 222 -63 63 c-34 35 -65 63 -68 63 -3 0 -144 -136 -313 -302z"/>
<path d="M17485 4700 c-50 -39 -90 -76 -89 -82 3 -33 440 -1568 446 -1568 4 0
46 30 93 66 61 47 84 71 81 83 -22 66 -116 414 -114 416 138 108 482 365 488
365 6 0 91 -49 190 -110 100 -60 185 -110 190 -110 9 0 212 152 208 155 -2 1
-309 188 -683 415 -374 227 -689 419 -700 426 -18 12 -29 6 -110 -56z m723
-612 c-4 -9 -360 -280 -364 -276 -1 2 -39 133 -84 292 -45 159 -84 296 -87
303 -3 7 117 -60 266 -149 149 -90 270 -166 269 -170z"/>
<path d="M4009 4163 c-376 -239 -688 -438 -692 -443 -5 -4 32 -37 82 -74 l91
-67 190 121 189 120 250 -181 249 -181 -54 -206 c-30 -114 -54 -212 -54 -218
0 -7 47 -46 104 -87 l103 -75 11 36 c6 21 99 379 207 796 l197 759 -23 18
c-13 10 -56 41 -95 68 l-70 49 -685 -435z m561 90 c0 -15 -148 -584 -153 -589
-3 -3 -89 55 -192 130 l-186 135 63 40 c35 22 151 96 258 165 193 123 210 133
210 119z"/>
<path d="M5220 3315 c-194 -372 -351 -677 -349 -679 15 -12 181 -97 184 -94 1
1 117 221 255 488 139 267 256 488 259 492 4 4 36 -292 71 -658 l65 -665 100
-53 c55 -29 103 -50 106 -47 7 6 699 1331 702 1343 1 5 -39 30 -90 58 l-92 49
-142 -272 c-288 -554 -374 -715 -377 -712 -2 2 -30 277 -62 612 -32 334 -62
632 -65 661 l-7 53 -99 49 c-54 28 -101 50 -103 50 -2 0 -163 -304 -356 -675z"/>
<path d="M16127 3802 c-69 -33 -99 -52 -102 -67 -2 -11 -21 -184 -41 -385 -20
-201 -38 -367 -40 -369 -1 -1 -142 92 -313 208 -170 116 -316 211 -323 210 -7
0 -64 -26 -127 -58 l-114 -58 74 -51 c41 -29 231 -159 423 -290 l350 -238 138
-285 c81 -166 144 -283 151 -281 38 9 207 98 203 106 -2 6 -65 137 -140 291
l-135 280 52 518 c29 284 50 517 47 516 -3 0 -49 -22 -103 -47z"/>
<path d="M7081 3224 c-124 -33 -218 -113 -274 -232 -27 -59 -31 -77 -31 -152
0 -76 4 -93 34 -160 38 -81 97 -165 234 -330 136 -164 166 -241 132 -338 -23
-63 -55 -100 -113 -129 -46 -22 -63 -25 -116 -20 -121 10 -225 66 -372 201
-47 43 -88 77 -90 74 -2 -2 -22 -52 -43 -110 -45 -123 -52 -105 69 -187 101
-67 229 -127 330 -153 64 -16 104 -19 184 -16 90 3 109 7 167 36 177 87 275
265 246 446 -17 110 -65 186 -290 462 -103 126 -121 160 -125 239 -5 72 15
110 78 152 37 24 53 28 113 28 61 0 81 -5 146 -37 72 -35 109 -61 219 -156 35
-30 52 -40 56 -30 2 7 20 55 39 106 l34 93 -41 30 c-117 85 -274 160 -387 185
-81 17 -130 17 -199 -2z"/>
<path d="M14525 3099 c-203 -66 -481 -156 -617 -200 l-246 -79 30 -91 c20 -61
34 -89 43 -85 7 2 120 39 250 81 154 50 240 73 244 66 4 -6 96 -288 205 -628
110 -340 202 -622 206 -626 7 -8 204 48 222 63 6 4 -170 563 -397 1262 -5 14
35 29 245 97 145 48 250 87 250 94 0 21 -51 167 -58 166 -4 0 -173 -54 -377
-120z"/>
<path d="M8125 2897 c-8 -20 -362 -1472 -360 -1475 1 -1 200 -51 443 -110
l440 -108 21 82 c12 46 21 88 21 93 0 5 -144 45 -320 88 -176 42 -320 82 -320
88 0 5 25 117 57 248 41 170 61 237 71 237 12 0 442 -103 482 -115 13 -4 20
14 37 82 12 49 19 91 15 94 -4 4 -115 33 -247 64 -132 32 -243 60 -247 64 -3
3 17 103 46 221 47 191 55 215 72 212 10 -2 147 -35 303 -73 156 -38 285 -68
287 -67 8 9 41 174 36 179 -4 4 -178 48 -387 98 -209 51 -395 96 -413 101 -23
6 -34 5 -37 -3z"/>
<path d="M13297 2756 c-53 -13 -100 -26 -103 -29 -3 -3 66 -336 155 -740 89
-404 161 -738 161 -741 0 -10 31 -7 137 16 l103 23 -6 30 c-3 16 -76 352 -162
745 -120 547 -161 715 -172 717 -8 1 -59 -9 -113 -21z"/>
<path d="M12176 2609 c-203 -30 -363 -111 -466 -235 -197 -239 -223 -661 -60
-991 99 -201 251 -322 450 -359 193 -37 455 1 635 91 131 66 123 53 112 173
-6 56 -14 102 -19 102 -5 0 -29 -14 -54 -30 -62 -44 -199 -107 -269 -125 -85
-23 -228 -30 -297 -16 -182 38 -327 194 -382 411 -23 88 -31 277 -17 368 48
304 235 447 561 429 58 -4 148 -16 200 -27 52 -12 111 -24 130 -27 l36 -5 -11
110 c-6 61 -13 113 -15 115 -3 3 -54 10 -115 16 -125 13 -332 13 -419 0z"/>
<path d="M9787 2559 c-22 -36 -742 -1411 -745 -1425 -2 -7 20 -14 60 -18 35
-3 86 -9 113 -12 l50 -5 98 191 c55 105 106 194 114 197 13 5 461 -37 573 -54
35 -5 36 -7 53 -71 10 -37 36 -133 58 -214 l41 -148 124 0 c70 0 124 4 124 9
0 8 -397 1473 -416 1532 -5 17 -26 21 -165 35 -63 6 -68 5 -82 -17z m159 -632
c45 -161 80 -294 78 -296 -2 -2 -105 7 -229 19 -158 17 -225 27 -223 35 6 26
283 544 288 539 3 -3 42 -137 86 -297z"/>
</g>
</svg>
