<?xml version="1.0" encoding="UTF-8" standalone="no"?>
<!-- Created with Inkscape (http://www.inkscape.org/) -->

<svg
   xmlns:dc="http://purl.org/dc/elements/1.1/"
   xmlns:cc="http://creativecommons.org/ns#"
   xmlns:rdf="http://www.w3.org/1999/02/22-rdf-syntax-ns#"
   xmlns:svg="http://www.w3.org/2000/svg"
   xmlns="http://www.w3.org/2000/svg"
   xmlns:sodipodi="http://sodipodi.sourceforge.net/DTD/sodipodi-0.dtd"
   xmlns:inkscape="http://www.inkscape.org/namespaces/inkscape"
   version="1.1"
   width="278.487"
   height="290.87247"
   viewBox="0 0 222.78961 232.69796"
   id="svg2"
   style="fill-rule:evenodd"
   inkscape:version="0.48.2 r9819"
   sodipodi:docname="Walton_and_Hersham_FC.svg">
  <sodipodi:namedview
     pagecolor="#ffffff"
     bordercolor="#666666"
     borderopacity="1"
     objecttolerance="10"
     gridtolerance="10"
     guidetolerance="10"
     inkscape:pageopacity="0"
     inkscape:pageshadow="2"
     inkscape:window-width="1024"
     inkscape:window-height="718"
     id="namedview3368"
     showgrid="false"
     fit-margin-top="0"
     fit-margin-left="0"
     fit-margin-right="0"
     fit-margin-bottom="0"
     inkscape:zoom="0.42656978"
     inkscape:cx="542.38785"
     inkscape:cy="412.36794"
     inkscape:window-x="-8"
     inkscape:window-y="-8"
     inkscape:window-maximized="1"
     inkscape:current-layer="svg2" />
  <metadata
     id="metadata134">
    <rdf:RDF>
      <cc:Work
         rdf:about="">
        <dc:format>image/svg+xml</dc:format>
        <dc:type
           rdf:resource="http://purl.org/dc/dcmitype/StillImage" />
      </cc:Work>
    </rdf:RDF>
  </metadata>
  <defs
     id="defs132" />
  <g
     id="g4"
     transform="matrix(0.41045275,0,0,0.41045275,-10.771553,-56.42908)">
    <g
       id="g6">
      <g
         id="g8">
        <path
           d="m 165.092,140.938 c 43.898,20.398 85.801,35.874 134.598,37.193 50.309,1.361 96.1,-14.959 141.383,-35.367 l 7.508,-3.384 4.979,6.561 c 17.292,22.786 38.666,44.297 63.462,58.852 l 10.696,6.278 -8.098,9.393 c -25.697,29.809 -40.279,69.562 -35.962,109.06 2.113,19.324 8.807,35.904 17.231,53.209 7.004,14.388 14.518,28.353 20.325,43.31 6.932,17.85 10.889,35.653 11.517,54.832 2.189,66.803 -55.658,120.44 -112.722,144.726 -16.669,7.094 -33.642,13.184 -50.413,19.968 -12.952,5.239 -26.056,11.093 -37.429,19.308 -9.982,7.21 -17.905,15.778 -24.506,26.169 l -8.489,13.364 -8.826,-13.145 c -15.052,-22.416 -30.678,-34.043 -55.2,-44.391 -11.131,-4.698 -22.444,-8.77 -33.398,-13.921 -44.631,-20.987 -96.979,-49.684 -119.8327,-95.685 -8.6296,-17.371 -12.5241,-35.887 -12.5839,-55.237 -0.096,-30.957 9.3683,-53.478 23.8109,-80.03 14.7827,-27.176 26.5897,-47.936 27.1737,-80.027 0.708,-38.979 -10.348,-73.829 -35.2929,-104.137 l -7.3952,-8.985 9.7916,-6.289 C 112.296,186.586 134.332,167.256 152.592,143.94 l 5.058,-6.46 7.442,3.458 z"
           inkscape:connector-curvature="0"
           id="path10"
           style="fill:#2c2c2b;stroke:none" />
        <path
           d="m 300.782,560.439 0.289,3.138 0,52.602 -2.216,11.418 0,57.79 c -28.612,-42.535 -59.554,-46.205 -92.707,-61.793 -33.821,-15.903 -62.377,-32.252 -83.751,-51.332 2.361,-2.116 4.862,-4.369 6.872,-4.491 2.42,-0.148 3.168,3.688 7.123,3.361 3.722,-0.309 3.963,-4.309 7.957,-4.642 3.715,-0.31 7.858,6.199 11.911,6.204 3.688,0.003 7.282,-0.726 10.989,-0.489 6.564,0.42 13.808,1.012 20.348,0.701 l 0.71,-0.033 0.303,-0.645 c 1.265,-2.691 3.492,-7.563 5.612,-10.113 2.507,2.174 4.496,5.801 7.088,7.784 l 0.285,0.219 0.359,0.022 c 1.977,0.122 3.597,-1.351 4.923,-2.793 1.079,1.099 2.151,1.646 3.687,2.493 0.7,0.386 3.135,0.406 3.954,0.246 l 0.826,-0.16 0.119,-0.833 c 0.411,-2.884 1.153,-5.721 1.554,-8.676 0.44,-3.255 2.725,-6.795 3.359,-10.228 0.591,-3.202 0.775,-6.326 1.126,-9.542 0.094,-0.864 0.378,-3.69 1.213,-4.2 0.067,-0.04 0.138,-0.067 0.215,-0.084 0.316,-0.069 0.668,-0.095 0.966,0.054 1.393,0.7 2.604,6.812 3.036,8.328 0.905,3.172 1.727,6.343 2.842,9.453 0.707,1.968 2.08,4.035 2.592,5.943 0.343,1.282 0.612,2.559 0.838,3.866 0.129,0.745 0.244,1.67 0.51,2.371 l 0.277,0.729 0.779,0.033 c 4.775,0.196 13.346,3.717 17.881,5.639 l 0.515,0.219 0.496,-0.261 c 1.414,-0.743 4.211,-3.814 5.045,-4.201 1.66,0.488 3.083,3.436 6.299,3.234 2.005,-0.128 3.671,-0.944 4.888,-2.551 0.646,-0.853 0.897,-1.589 1.296,-2.4 4.203,-0.701 7.732,-2.151 11.828,-3.076 5.769,-1.303 11.787,-2.479 17.764,-3.304 z"
           inkscape:connector-curvature="0"
           id="path12"
           style="fill:#0094a2;stroke:none" />
        <path
           d="m 296.639,405.413 0,130.436 2.216,3.67 1.71,18.564 c -6.078,0.835 -12.198,2.028 -18.067,3.354 -4.218,0.952 -7.879,2.495 -12.25,3.137 l -0.572,0.085 -0.285,0.503 c -1.206,2.137 -1.443,4.053 -4.534,4.248 -1.956,0.123 -3.67,-2.772 -5.793,-3.22 -1.879,-0.397 -4.244,2.894 -6.054,4.175 -4.684,-1.975 -12.255,-5.016 -17.271,-5.524 -0.085,-0.428 -0.147,-0.895 -0.206,-1.237 -0.238,-1.377 -0.522,-2.725 -0.885,-4.076 -0.558,-2.083 -1.907,-4.06 -2.649,-6.128 -1.096,-3.058 -1.903,-6.184 -2.793,-9.304 -0.755,-2.65 -1.623,-8.473 -4.25,-9.792 -0.798,-0.399 -1.668,-0.438 -2.528,-0.25 -0.763,0.165 -0.305,-0.014 -0.944,0.375 -1.813,1.107 -2.123,4.05 -2.332,5.962 -0.344,3.154 -0.521,6.231 -1.1,9.368 -0.636,3.443 -2.906,6.854 -3.378,10.34 -0.355,2.624 -0.981,5.152 -1.405,7.707 -0.607,0.008 -1.348,-0.017 -1.643,-0.079 -1.6,-0.878 -2.607,-1.327 -3.788,-2.887 l -0.868,-1.146 -0.957,1.074 c -0.728,0.818 -2.306,2.76 -3.594,2.992 -2.65,-2.213 -4.646,-6.116 -7.649,-8.214 l -0.794,-0.554 -0.699,0.669 c -2.456,2.344 -4.909,7.519 -6.502,10.914 -6.259,0.233 -13.14,-0.33 -19.375,-0.729 -3.804,-0.243 -7.387,0.487 -11.137,0.484 -2.907,-0.003 -7.194,-6.606 -12.111,-6.195 -4.79,0.399 -5.682,4.452 -7.955,4.641 -2.658,0.22 -3.305,-3.594 -7.071,-3.365 -3.219,0.197 -5.866,2.935 -8.447,5.304 C 94.6766,546.889 79.7878,518.771 79.6733,481.999 79.5736,449.86 91,427.506 103.062,405.413 l 193.577,0 z"
           inkscape:connector-curvature="0"
           id="path14"
           style="fill:#85d1e7;stroke:none" />
        <path
           d="m 522.011,474.291 c 0.177,2.265 0.307,4.571 0.384,6.924 0.275,8.404 -0.502,16.567 -2.163,24.459 l -73.405,0 c 3.239,-22.108 22.357,-40.127 47.25,-40.127 11.49,0 20.892,3.254 27.934,8.744 z m -214.55,31.383 0,-0.724 c 0,-23.297 13.859,-40.489 40.448,-40.489 26.589,0 40.448,17.306 40.448,40.489 l 0,0.724 -80.896,0 z"
           inkscape:connector-curvature="0"
           id="path16"
           style="fill:#85d1e7;stroke:none" />
        <path
           d="m 520.232,505.674 c -10.841,51.531 -59.698,91.44 -104.273,110.411 -24.292,10.338 -45.27,17.278 -63.327,25.476 l -50.822,0 0,-13.964 2.216,-11.418 0,-51.726 3.435,0 0,-58.779 80.896,0 0,58.779 57.982,0 0,-52.116 c 0,-2.252 0.167,-4.477 0.488,-6.663 l 73.405,0 z"
           inkscape:connector-curvature="0"
           id="path18"
           style="fill:#008bc8;stroke:none" />
        <path
           d="m 473.811,297.083 c -0.293,2.265 -0.531,4.507 -0.716,6.719 -4.381,-0.699 -9.109,-2.214 -13.139,-2.195 -3.561,0.017 -5.358,2.087 -8.895,2.108 -3.739,0.021 -9.886,0.661 -14.383,0.339 -2.043,-0.146 -3.699,-2.006 -5.384,-1.998 -3.794,0.02 -9.335,2.681 -13.098,2.705 -2.018,0.012 -5,-1.73 -7.078,-1.857 -3.33,-0.201 -6.27,0.317 -12.861,-1.091 0.944,-1.492 1.957,-2.955 3.013,-4.398 1.157,0.178 2.316,0.306 3.469,0.342 2.33,0.073 4.561,-0.002 6.885,-0.184 1.572,-0.123 6.056,2.558 7.368,3.649 0.692,0.537 0.577,0.54 1.326,0.127 4.328,-2.383 7.588,-6.419 10.573,-10.316 2.541,2.505 4.79,5.312 7.416,7.738 0.762,0.704 0.636,0.695 1.484,0.097 1.543,-1.089 4.031,-3.69 5.821,-3.99 1.549,-0.259 3.006,3.667 6.049,3.362 l 0.211,-0.022 0.189,-0.092 c 5.768,-2.817 9.064,-8.05 13.668,-11.905 0.03,2.451 0.33,5.528 1.525,6.507 1.86,1.523 4.471,3.052 6.557,4.355 z m -343.676,6.589 c -0.113,-1.492 -0.247,-2.991 -0.4,-4.499 2.818,-3.231 5.28,-5.981 7.651,-9.599 2.513,4.885 6.26,11.524 11.776,11.867 4.903,0.306 7.097,-6.191 10.789,-6.131 2.08,0.034 3.297,2.46 4.512,3.858 1.264,1.457 2.855,2.87 4.82,2.191 2.369,-0.816 3.39,-3.81 4.189,-6.259 0.68,-2.084 1.31,-4.179 1.957,-6.273 0.808,1.366 1.581,2.734 2.55,3.904 1.373,1.657 2.893,2.673 4.086,3.836 2.096,2.045 5.385,4.059 7.746,5.726 0.256,0.181 0.507,0.362 0.753,0.544 -0.102,0.373 -0.201,0.746 -0.299,1.12 -4.166,-0.722 -10.207,-2.206 -12.576,-2.192 -2.616,0.017 -6.441,1.855 -9.115,1.98 -3.163,0.148 -7.183,-1.188 -10.305,-1.081 -2.791,0.096 -5.807,1.44 -8.493,1.646 -4.534,0.347 -10.046,-1.042 -14.45,-1.035 -1.626,0.002 -3.394,0.194 -5.191,0.397 z"
           inkscape:connector-curvature="0"
           id="path20"
           style="fill:#0094a2;stroke:none" />
        <path
           d="m 473.095,303.802 c -0.8,9.577 -0.616,18.621 0.283,26.845 3.059,27.985 14.63,49.443 25.77,71.811 l -394.471,0 c 12.598,-23.005 25.359,-46.185 25.979,-80.297 0.109,-5.978 -0.035,-12.158 -0.521,-18.489 1.797,-0.203 3.565,-0.395 5.191,-0.397 4.404,-0.007 9.916,1.382 14.45,1.035 2.686,-0.206 5.702,-1.55 8.493,-1.646 3.122,-0.107 7.142,1.229 10.305,1.081 2.674,-0.125 6.499,-1.963 9.115,-1.98 2.369,-0.014 8.41,1.47 12.576,2.192 -0.641,2.463 -1.18,4.98 -1.625,7.563 -1.168,6.781 3.096,7.224 8.516,7.934 3.93,0.515 7.869,1.795 11.576,3.168 5.872,2.176 17.503,8.06 23.561,6.831 6.627,-1.344 13.285,-3.688 19.478,-6.362 12.301,-5.31 24.264,-10.38 37.993,-9.957 11.478,0.355 20.774,2.759 31.422,6.365 17.215,5.827 30.898,9.256 49.257,5.658 7.231,-1.416 17.755,-5.322 22.493,-11.081 2.84,-3.451 2.195,-6.954 4.121,-10.283 0.385,-0.665 0.786,-1.325 1.2,-1.98 6.591,1.408 9.531,0.89 12.861,1.091 2.078,0.127 5.06,1.869 7.078,1.857 3.763,-0.024 9.304,-2.685 13.098,-2.705 1.685,-0.008 3.341,1.852 5.384,1.998 4.497,0.322 10.644,-0.318 14.383,-0.339 3.537,-0.021 5.334,-2.091 8.895,-2.108 4.03,-0.019 8.758,1.496 13.139,2.195 z"
           inkscape:connector-curvature="0"
           id="path22"
           style="fill:#008bc8;stroke:none" />
        <g
           id="g24">
          <path
             d="m 475.239,342.53 c 0.704,3.447 1.532,6.801 2.465,10.078 -10.478,1.818 -19.762,0.067 -29.943,-3.686 -11.45,-4.221 -21.928,-9.905 -34.535,-9.441 -9.125,0.336 -18.382,4.094 -26.794,7.39 -9.905,3.881 -20.063,7.841 -30.846,8.048 -5.02,0.096 -9.861,-0.755 -14.625,-2.299 -6.798,-2.202 -13.127,-5.634 -19.769,-8.249 -7.705,-3.033 -14.984,-4.586 -23.305,-4.505 -20.536,0.199 -38.549,16.572 -59.676,16.608 -14.329,0.025 -29.539,-8.048 -43.204,-12.177 -5.354,-1.619 -10.881,-2.841 -16.489,-3.024 -8.993,-0.292 -19.404,4.384 -27.655,7.667 -8.059,3.208 -16.487,6.332 -25.168,6.821 0.977,-3.423 1.835,-6.954 2.552,-10.613 16.156,-2.25 33.213,-14.778 50.608,-14.211 2.708,0.088 5.406,0.375 8.078,0.817 3.746,0.621 7.433,1.545 11.066,2.643 7.389,2.233 14.485,5.19 21.76,7.736 5.774,2.02 12.268,4.01 18.434,3.999 10.775,-0.018 22.951,-6.23 32.849,-10.202 8.592,-3.448 17.397,-6.315 26.745,-6.406 9.654,-0.094 18.247,1.703 27.193,5.224 6.403,2.521 12.657,5.924 19.168,8.034 3.675,1.19 7.365,1.871 11.239,1.797 9.291,-0.178 18.723,-3.988 27.272,-7.337 9.7,-3.801 19.644,-7.708 30.186,-8.096 14.796,-0.545 25.22,5.18 38.492,10.072 8.194,3.02 15.536,4.606 23.902,3.312 z"
             inkscape:connector-curvature="0"
             id="path26"
             style="fill:#ffffff;stroke:none" />
          <path
             d="m 484.185,370.995 c 1.356,3.269 2.786,6.486 4.265,9.673 l -0.074,0.016 c -16.807,3.708 -28.037,1.91 -43.581,-4.538 -9.647,-4.001 -17.104,-7.166 -27.826,-7.351 -6.138,-0.106 -11.728,0.989 -17.557,2.816 -6.557,2.055 -12.896,4.718 -19.487,6.731 -8.626,2.635 -17.06,4.046 -26.096,4.164 -5.876,0.077 -11.293,-0.986 -16.834,-2.869 -6.034,-2.049 -11.778,-4.853 -17.816,-6.915 -7.242,-2.471 -14.2,-3.62 -21.867,-3.546 -20.662,0.2 -39.374,13.707 -60.253,13.735 -14.839,0.02 -26.182,-5.19 -39.942,-9.288 -6.191,-1.844 -12.417,-3.157 -18.91,-3.037 -4.045,0.075 -7.977,0.827 -11.852,1.958 -8.036,2.346 -15.667,6.128 -23.621,8.806 -9.486,3.195 -18.536,4.583 -28.436,2.983 1.602,-3.22 3.15,-6.495 4.611,-9.85 21.284,1.816 37.65,-13.842 59.108,-14.238 7.591,-0.139 14.812,1.309 22.052,3.466 12.411,3.697 23.716,8.876 36.976,8.858 11.925,-0.016 25.323,-5.962 36.689,-9.478 7.653,-2.368 15.43,-4.178 23.478,-4.256 8.836,-0.085 16.96,1.251 25.308,4.1 6.044,2.063 11.786,4.867 17.8,6.91 4.419,1.501 8.686,2.381 13.375,2.32 8.056,-0.105 15.518,-1.364 23.209,-3.713 6.558,-2.003 12.879,-4.661 19.414,-6.709 6.9,-2.163 13.568,-3.415 20.83,-3.289 12.207,0.211 20.636,3.587 31.61,8.139 12.954,5.373 21.843,7.084 35.427,4.402 z"
             inkscape:connector-curvature="0"
             id="path28"
             style="fill:#ffffff;stroke:none" />
        </g>
        <path
           d="m 93.0086,211.265 c 23.6964,-15.219 47.2904,-34.854 67.7254,-60.948 54.367,25.263 93.985,36.944 138.676,38.152 50.649,1.37 95.767,-13.677 145.912,-36.276 19.25,25.365 41.777,47.027 66.465,61.519 -22.881,26.541 -33.85,55.157 -37.62,80.81 -1.819,-1.118 -3.902,-2.383 -5.415,-3.622 -0.702,-0.852 -0.68,-5.776 -0.608,-7.034 0.156,-2.73 0.412,-2.587 -1.846,-1.044 -5.413,3.696 -9.163,10.08 -15.051,13.068 -1.621,-0.109 -2.981,-3.853 -6.025,-3.344 -2.321,0.389 -4.182,2.335 -6.027,3.81 -2.634,-2.56 -4.937,-5.46 -7.64,-7.958 -0.953,-1.074 -0.777,-0.886 -1.742,0.152 -2.807,3.681 -5.945,7.877 -9.971,10.342 -2.162,-1.577 -6.291,-3.842 -8.403,-3.675 -2.238,0.175 -4.381,0.248 -6.626,0.178 -0.635,-0.02 -1.275,-0.07 -1.919,-0.144 2.578,-3.356 5.32,-6.613 7.88,-9.859 l 1.282,-1.626 -2.052,-0.278 c -3.202,-0.432 -6.465,-0.279 -9.652,0.207 -4.063,0.618 -8.036,1.775 -11.922,3.091 -3.098,1.048 -6.207,2.29 -9.334,3.212 -1.354,0.399 -2.54,0.686 -3.693,0.874 7.859,-11.365 13.337,-23.783 16.763,-37.192 l 0.304,-1.19 -1.201,-0.257 c -4.652,-0.999 -9.472,-0.736 -14.137,0.017 -3.29,0.531 -6.757,1.552 -9.988,1.933 -2.334,0.277 -7.733,0.913 -11.682,1.817 1.442,-2.208 2.965,-4.353 4.658,-6.35 2.468,-2.912 1.934,-5.17 0.908,-8.573 -0.6,-1.989 -1.998,-3.022 -3.995,-3.266 -0.474,-0.059 -2.021,-0.022 -2.722,-0.078 0.052,-0.167 0.125,-0.346 0.164,-0.435 1.685,-3.923 7.515,-6.286 6.537,-11.358 -0.971,-5.032 -12.172,-1.056 -12.729,-3.018 -0.889,-3.131 2.579,-5.704 1.707,-10.11 -0.167,-0.841 0.025,-0.364 -0.427,-1.045 -2.436,-3.667 -14.747,-0.247 -18.237,0.523 -1.527,0.337 -3.053,0.675 -4.584,0.991 -4.42,0.912 -8.636,0.431 -12.639,-1.679 -3.781,-1.995 -12.92,6.871 -16.821,10.571 -0.449,-1.425 -1.409,-3.005 -2.622,-2.795 -4.395,1.517 -8.457,3.006 -12.719,4.868 -8.378,3.662 -16.531,8.41 -22.205,15.001 -12.752,14.818 -20.033,32.739 -28.267,50.19 -1.131,2.396 -4.132,9.153 -7.087,9.622 -0.845,0.134 -1.639,-0.233 -2.316,-0.709 -0.484,-0.34 -0.884,-0.756 -1.144,-1.291 -1.674,-3.425 3.79,-13.521 5.264,-16.757 7.22,-15.85 14.239,-36.662 15.134,-54.243 0.407,-8.006 -0.161,-18.694 -5.861,-24.989 -3.438,-3.796 -8.155,-5.291 -13.174,-4.902 -8.242,0.64 -17.152,6.472 -16.983,15.529 0.002,0.09 0.008,0.175 0.017,0.256 -3.164,3.803 -6.427,7.634 -8.641,12.078 -0.638,1.281 -0.46,2.915 0.45,4.021 1.234,1.498 3.195,1.504 4.888,0.89 5.31,-1.925 9.432,-4.376 14.105,-7.478 1.487,0.734 2.825,0.897 4.402,0.034 2.099,-1.148 2.853,-4.218 4.258,-4.523 1.175,-0.255 1.847,0.933 2.021,1.802 0.644,3.225 -0.243,10.148 -0.472,11.924 -0.402,3.121 -0.958,6.313 -1.738,9.364 -2.128,8.32 -5.852,15.077 -10.789,22.02 -4.826,6.783 -10.085,13.056 -14.41,20.218 -3.548,5.877 -6.212,11.866 -8.148,18.188 -2.587,-1.825 -5.464,-3.601 -7.529,-5.616 -1.119,-1.091 -3.062,-2.522 -4.569,-4.485 -1.331,-1.732 -2.053,-3.979 -2.103,-5.427 -0.239,-4.015 -2.103,-2.908 -2.623,-0.491 -1.005,2.866 -1.761,5.777 -2.78,8.642 -0.627,1.77 -1.36,5.287 -3.215,5.925 -0.956,0.33 -1.602,-0.756 -2.179,-1.421 -1.834,-2.113 -3.018,-4.62 -6.258,-4.672 -4.941,-0.08 -7.222,6.351 -10.68,6.136 -4.956,-0.309 -8.81,-8.629 -10.767,-12.441 -1.102,-2.15 -0.826,-2.139 -2.065,-0.067 -2.234,3.732 -4.524,6.462 -7.094,9.411 -3.248,-27.08 -13.157,-56.511 -36.3744,-84.72 z"
           inkscape:connector-curvature="0"
           id="path30"
           style="fill:#85d1e7;stroke:none" />
        <g
           id="g32">
          <path
             d="m 489.671,530.659 c -5.84,1.081 -12.803,0.198 -18.301,-1.89 l -1.105,-0.419 0.839,-2.211 1.105,0.42 c 5.091,1.933 11.62,2.777 17.033,1.777 l 1.162,-0.215 0.429,2.324 -1.162,0.214 z"
             inkscape:connector-curvature="0"
             id="path34"
             style="fill:#2c2c2b;stroke:none" />
          <path
             d="m 372.172,512.261 c -6.156,-0.829 -8.012,0.231 -13.45,2.062 -2.929,0.986 -5.38,1.075 -8.406,0.38 l -1.152,-0.265 0.53,-2.304 1.151,0.265 c 2.601,0.597 4.609,0.53 7.123,-0.317 1.908,-0.642 3.634,-1.422 5.619,-1.892 2.952,-0.7 5.906,-0.675 8.9,-0.272 l 1.171,0.158 -0.315,2.342 -1.171,-0.157 z"
             inkscape:connector-curvature="0"
             id="path36"
             style="fill:#2c2c2b;stroke:none" />
          <path
             d="m 401.964,575.721 c -5.757,1.143 -6.156,-2.296 -12.55,0.481 l -1.084,0.47 -0.942,-2.168 1.084,-0.471 c 7.31,-3.174 7.673,0.433 13.031,-0.63 l 1.16,-0.231 0.46,2.319 -1.159,0.23 z"
             inkscape:connector-curvature="0"
             id="path38"
             style="fill:#2c2c2b;stroke:none" />
          <path
             d="m 379.657,520.009 c -3.58,-0.301 -6.582,-0.835 -10.285,-0.777 l -1.182,0.019 -0.037,-2.364 1.182,-0.019 c 3.796,-0.059 6.856,0.478 10.52,0.786 l 1.178,0.099 -0.198,2.355 -1.178,-0.099 z"
             inkscape:connector-curvature="0"
             id="path40"
             style="fill:#2c2c2b;stroke:none" />
          <path
             d="m 366.881,582.667 c -3.038,-0.277 -5.821,-0.245 -8.872,-0.03 l -1.179,0.082 -0.165,-2.358 1.179,-0.082 c 3.176,-0.224 6.087,-0.254 9.252,0.034 l 1.177,0.108 -0.215,2.354 -1.177,-0.108 z"
             inkscape:connector-curvature="0"
             id="path42"
             style="fill:#2c2c2b;stroke:none" />
          <path
             d="m 356.32,579.603 c -1.954,-0.062 -4.254,0.227 -6.204,0.47 l -1.173,0.147 -0.293,-2.347 1.173,-0.146 c 2.084,-0.26 4.483,-0.553 6.572,-0.487 l 1.182,0.038 -0.076,2.363 -1.181,-0.038 z"
             inkscape:connector-curvature="0"
             id="path44"
             style="fill:#2c2c2b;stroke:none" />
          <path
             d="m 460.366,573.629 c -4.064,0.307 -5.758,-2.848 -9.907,-2.768 -2.674,0.051 -5.307,2.636 -8.957,2.367 l -1.179,-0.087 0.175,-2.358 1.179,0.087 c 2.912,0.215 5.807,-2.317 8.736,-2.373 3.378,-0.064 4.472,1.061 7.241,2.294 0.842,0.375 1.608,0.551 2.533,0.481 l 1.179,-0.089 0.178,2.357 -1.178,0.089 z"
             inkscape:connector-curvature="0"
             id="path46"
             style="fill:#2c2c2b;stroke:none" />
          <path
             d="m 478.755,553.96 c -5.744,-1.486 -9.999,4.35 -16.658,1.155 l -1.066,-0.512 1.023,-2.131 1.065,0.511 c 5.429,2.605 9.871,-2.956 16.228,-1.312 l 1.144,0.297 -0.592,2.288 -1.144,-0.296 z"
             inkscape:connector-curvature="0"
             id="path48"
             style="fill:#2c2c2b;stroke:none" />
          <path
             d="m 476.387,544.999 c -3.412,-0.032 -6.505,2.108 -10.068,1.668 -4.371,-0.54 -7.222,-3.354 -11.363,-3.712 l -1.177,-0.102 0.204,-2.355 1.177,0.102 c 4.543,0.393 7.249,3.203 11.449,3.721 2.912,0.359 6.437,-1.717 9.8,-1.686 l 1.182,0.011 -0.022,2.364 -1.182,-0.011 z"
             inkscape:connector-curvature="0"
             id="path50"
             style="fill:#2c2c2b;stroke:none" />
          <path
             d="m 482.507,521.479 c -7.078,0.854 -13.918,-4.489 -21.127,-2.37 l -1.134,0.333 -0.667,-2.268 1.134,-0.333 c 2.145,-0.63 4.317,-0.716 6.527,-0.452 4.759,0.567 10.464,3.288 14.984,2.744 l 1.174,-0.142 0.282,2.347 -1.173,0.141 z"
             inkscape:connector-curvature="0"
             id="path52"
             style="fill:#2c2c2b;stroke:none" />
        </g>
        <g
           id="g54">
          <path
             d="m 214.284,220.017 c -1.684,-2.174 -1.226,-4.388 -2.096,-4.927 -1.461,-0.903 -3.508,-1.279 -5.122,-1.542 -3.016,3.618 -6.172,7.321 -8.272,11.538 -0.222,0.445 -0.157,1.077 0.16,1.463 0.529,0.643 1.999,0.616 2.665,0.375 4.873,-1.766 8.417,-4.096 12.665,-6.907 z"
             inkscape:connector-curvature="0"
             id="path56"
             style="fill:#ffffff;stroke:none" />
          <path
             d="m 294.043,222.096 c -1.633,0.445 -3.233,1.147 -4.884,1.771 -10.093,3.82 -20.822,9.012 -27.63,16.923 -12.576,14.611 -19.8,32.442 -27.922,49.656 -2.116,4.484 -6.401,14.407 -12.9,9.838 -0.813,-0.571 -1.473,-1.292 -1.91,-2.188 -1.208,-2.473 -0.357,-5.594 0.516,-8.037 1.293,-3.62 3.124,-7.231 4.722,-10.736 7.09,-15.565 14.045,-36.116 14.924,-53.384 0.577,-11.34 -1.241,-28.597 -16.491,-27.414 -6.838,0.531 -14.695,5.224 -14.803,12.765 0.559,0.021 2.219,0.458 2.539,0.457 0.416,0 2.263,0.45 3.183,-0.705 0.92,-1.155 0.512,-2.591 1.714,-4.11 1.345,-1.7 4.15,-1.54 5.471,-0.092 0.48,0.526 1.144,2.674 -0.039,4.323 -0.903,1.259 -3.001,1.757 -4.208,2.601 -0.826,0.578 -1.021,1.647 -0.995,1.941 0.111,1.285 0.247,2.562 1.721,3.375 1.604,0.886 2.149,0.785 3.471,-0.735 1.177,-1.353 2.234,-3.233 3.742,-3.717 1.451,-0.464 3.324,0.391 4.093,1.616 2.89,4.598 -0.33,19.933 -1.475,24.407 -2.202,8.608 -6.043,15.619 -11.153,22.803 -4.787,6.73 -10.024,12.97 -14.312,20.072 -5.393,8.931 -8.675,18.112 -10.447,28.396 -0.165,0.957 -0.389,2.596 0.27,3.432 0.958,1.214 4.794,1.569 6.223,1.757 4.115,0.539 8.209,1.857 12.091,3.295 5.137,1.903 17.073,7.785 22.269,6.73 6.453,-1.308 12.981,-3.611 19.011,-6.215 12.689,-5.478 24.832,-10.587 39.003,-10.149 11.747,0.362 21.213,2.799 32.107,6.487 16.8,5.687 30.125,9.09 48.044,5.579 6.642,-1.301 16.777,-4.984 21.124,-10.265 2.327,-2.828 2.048,-6.764 3.899,-9.963 3.481,-6.021 8.166,-11.517 12.548,-16.975 -2.287,-0.118 -4.592,0.052 -6.851,0.397 -7.608,1.159 -13.765,4.118 -20.944,6.234 -3.746,1.103 -6.395,1.421 -10.244,1.156 -4.802,-0.329 -7.838,0.325 -12.448,1.906 -6.291,2.159 -12.565,5.026 -18.443,8.123 l -1.046,0.55 -1.101,-2.091 1.045,-0.551 c 5.985,-3.153 12.371,-6.068 18.778,-8.266 4.909,-1.685 8.252,-2.38 13.377,-2.029 0.95,0.065 1.815,0.093 2.638,0.079 8.066,-11.229 13.695,-23.523 17.238,-36.829 -3.979,-0.651 -8.089,-0.37 -12.05,0.27 -3.33,0.538 -6.807,1.559 -10.087,1.947 -2.578,0.305 -10.605,1.264 -13.842,2.437 -1.451,2.345 -2.858,4.715 -4.323,7.012 -5.912,9.272 -16.546,26.389 -26.079,31.938 l -1.022,0.595 -1.189,-2.043 1.022,-0.595 c 9.039,-5.262 19.657,-22.356 25.275,-31.166 3.57,-5.598 6.741,-11.501 11.054,-16.588 1.858,-2.192 1.225,-3.786 0.447,-6.362 -0.204,-0.679 -0.543,-1.166 -1.22,-1.42 -0.256,-0.095 -0.528,-0.149 -0.798,-0.182 -1.349,-0.165 -3.411,0.3 -4.388,-0.802 -0.766,-0.865 -0.462,-2.043 -0.055,-2.991 0.608,-1.414 1.591,-2.61 2.634,-3.725 1.495,-1.599 4.228,-3.796 3.754,-6.252 -0.438,-2.269 -11.389,1.736 -12.682,-2.819 -1.208,-4.258 2.399,-6.573 1.661,-10.297 -0.523,-2.648 -18.477,1.918 -20.451,2.325 -4.957,1.023 -9.731,0.463 -14.218,-1.903 -1.379,-0.727 -7.303,4.117 -8.333,4.985 -2.414,2.035 -4.66,4.193 -6.984,6.32 l -1.355,1.374 c -0.678,-2.244 -1.278,-4.551 -2.286,-4.276 z m -49.225,66.883 -8.816,12.32 -1.922,-1.375 8.816,-12.32 1.922,1.375 z m 8.576,-11.624 -4.411,5.892 -1.893,-1.416 4.411,-5.892 1.893,1.416 z m 9.615,8.411 c -6.05,6.446 -12.327,12.753 -17.779,19.725 l -0.727,0.932 -1.863,-1.456 0.729,-0.931 c 5.498,-7.033 11.814,-13.388 17.916,-19.888 l 0.809,-0.862 1.724,1.618 -0.809,0.862 z m 10.186,-14.42 c -1.761,2.031 -3.523,4.07 -5.23,6.146 l -0.751,0.913 -1.826,-1.501 0.751,-0.913 c 1.72,-2.093 3.495,-4.146 5.27,-6.193 l 0.774,-0.893 1.786,1.548 -0.774,0.893 z m -0.355,29.302 c -2.532,2.584 -5.327,5.237 -8.085,7.574 l -0.902,0.764 -1.527,-1.804 0.902,-0.764 c 2.702,-2.29 5.443,-4.893 7.924,-7.424 l 0.828,-0.845 1.688,1.656 -0.828,0.843 z m 36.615,-65.146 c -4.44,5.712 -9.707,10.06 -17.218,10.612 l -1.178,0.086 -0.174,-2.357 1.179,-0.087 c 6.802,-0.5 11.514,-4.545 15.525,-9.705 l 0.725,-0.933 1.866,1.451 -0.725,0.933 z m 1.836,10.432 c -4.438,5.709 -10.295,9.458 -17.626,9.997 l -1.179,0.087 -0.173,-2.358 1.179,-0.087 c 6.657,-0.489 11.908,-3.913 15.933,-9.09 l 0.726,-0.933 1.866,1.451 -0.726,0.933 z m 0.37,12.728 c -5.25,6.085 -9.671,8.773 -18.089,8.727 l -1.182,-0.007 0.014,-2.364 1.182,0.007 c 7.708,0.043 11.492,-2.351 16.286,-7.907 l 0.772,-0.896 1.79,1.545 -0.773,0.895 z m 26.671,10.819 c -5.976,1.15 -9.832,2.913 -14.976,5.927 l -1.02,0.597 -1.195,-2.04 1.02,-0.597 c 5.377,-3.15 9.482,-5.007 15.725,-6.208 l 1.161,-0.223 0.446,2.321 -1.161,0.223 z m 7.04,-15.238 c -5.899,1.135 -9.906,3.284 -14.825,6.508 l -0.988,0.648 -1.296,-1.977 0.988,-0.647 c 5.185,-3.399 9.46,-5.657 15.675,-6.853 l 1.161,-0.223 0.446,2.321 -1.161,0.223 z m -1.123,-10.124 c -5.976,1.149 -9.832,2.912 -14.976,5.926 l -1.02,0.597 -1.195,-2.04 1.02,-0.597 c 5.377,-3.15 9.482,-5.007 15.725,-6.207 l 1.161,-0.224 0.446,2.321 -1.161,0.224 z m 0.883,-13.208 c -4.992,1.263 -7.966,3.07 -12.102,5.99 l -0.966,0.681 -1.363,-1.931 0.965,-0.681 c 4.38,-3.092 7.6,-5.013 12.886,-6.35 l 1.146,-0.291 0.58,2.293 -1.146,0.289 z m -7.729,-6.556 c -3.271,1.035 -6.41,2.379 -9.327,4.197 l -1.002,0.625 -1.251,-2.006 1.003,-0.626 c 3.085,-1.923 6.403,-3.349 9.864,-4.443 l 1.127,-0.357 0.713,2.254 -1.127,0.356 z m -13.867,60.852 c -3.353,0.954 -6.854,2.281 -9.602,4.479 l -0.923,0.739 -1.477,-1.846 0.924,-0.738 c 3.011,-2.409 6.756,-3.862 10.431,-4.908 l 1.137,-0.323 0.647,2.274 -1.137,0.323 z m -7.762,11.788 c -2.37,0.433 -5.151,1.519 -7.249,2.686 l -1.032,0.575 -1.15,-2.065 1.033,-0.575 c 2.325,-1.294 5.347,-2.466 7.972,-2.947 l 1.163,-0.212 0.425,2.325 -1.162,0.213 z m 60.417,12.689 c 3.045,0.168 6.36,-0.807 8.764,-2.697 l 0.928,-0.732 1.462,1.858 -0.929,0.731 c -2.855,2.246 -6.736,3.4 -10.355,3.201 l -1.18,-0.065 0.129,-2.36 1.181,0.064 z m 0.121,-9.616 c 4.441,-0.066 7.898,-0.055 11.581,-3.088 l 0.912,-0.751 1.502,1.824 -0.912,0.752 c -4.166,3.432 -8.008,3.552 -13.048,3.627 l -1.182,0.017 -0.035,-2.363 1.182,-0.018 z m -66.729,-23.57 c -4.744,4.993 -10.549,6.949 -17.318,6.432 l -1.178,-0.089 0.179,-2.357 1.179,0.09 c 6.059,0.462 11.173,-1.229 15.424,-5.704 l 0.814,-0.857 1.714,1.629 -0.814,0.856 z m -5.887,15.102 c -2.042,2.327 -5.108,3.853 -8.139,4.358 l -1.166,0.195 -0.389,-2.332 1.166,-0.194 c 2.49,-0.415 5.071,-1.672 6.753,-3.587 l 0.779,-0.888 1.776,1.559 -0.78,0.889 z"
             inkscape:connector-curvature="0"
             id="path58"
             style="fill:#ffffff;stroke:none" />
        </g>
        <g
           id="g60">
          <path
             d="m 171.381,538.36 -0.447,1.448 -1.13,-0.349 c -10.69,-3.306 -21.961,-8.987 -30.975,-15.566 l -0.306,-0.223 -0.119,-0.36 c -3.276,-9.892 -6.828,-19.118 -11.379,-28.478 l -0.084,-0.174 -0.025,-0.192 c -0.974,-7.596 1.636,-13.815 4.475,-20.718 l 0.105,-0.254 0.207,-0.183 c 0.971,-0.855 1.93,-1.535 2.964,-2.213 -2.431,-4.432 -5.033,-8.407 -7.871,-12.619 l -0.202,-0.299 0,-0.361 c 0,-7.61 0.689,-15.207 0.689,-22.815 l 0,-0.699 0.611,-0.337 c 5.505,-3.031 8.02,-8.882 9.483,-14.714 l 0.281,-1.118 1.124,0.253 c 4.412,0.989 8.819,1.247 13.161,-0.186 3.213,-1.061 5.854,-2.873 8.813,-4.42 0.866,-0.453 1.749,-0.873 2.66,-1.229 7.569,-2.965 18.53,-3.987 24.417,2.793 3.446,0.195 7.073,0.024 10.45,0.496 l 0.838,0.118 0.159,0.831 c 0.65,3.389 2.646,6.124 5.99,7.2 l 1.001,0.322 -0.203,1.031 c -0.704,3.57 1.813,6.874 5.192,7.832 l 1.146,0.324 -0.333,1.143 c -2.415,8.288 -2.06,10.572 7.157,11.135 l 0.864,0.053 0.21,0.84 c 0.674,2.692 -0.279,5.97 -1.866,8.244 0.094,0.486 0.272,0.93 0.531,1.372 0.847,1.444 2.233,2.654 3.166,4.163 1.577,2.553 1.898,5.384 1.645,8.33 l -0.073,0.86 -0.842,0.192 c -5.734,1.303 -14.139,4.529 -13.816,11.718 0.01,0.207 0.034,0.413 0.075,0.616 0.728,3.614 9.252,8.587 12.115,10.465 l 0.509,0.335 0.023,0.609 c 0.195,5.155 -1.776,8.858 -1.287,14.014 l 0.042,0.449 -0.266,0.362 c -1.043,1.42 -1.676,2.831 -2.123,4.525 -0.36,1.367 -0.572,2.812 -1.161,4.104 -0.314,0.691 -0.722,1.307 -1.248,1.854 l -0.144,0.152 -0.189,0.092 c -1.968,0.965 -5.262,1.749 -6.537,3.569 -1.132,1.613 -1.913,3.871 -1.686,5.85 l 0.188,1.65 -1.62,-0.362 c -1.867,-0.417 -3.786,-0.283 -5.683,-0.367 -2.294,0.79 -3.499,3.581 -5.105,3.724 -2.325,0.207 -3.337,-4.429 -6.156,-3.822 -2.346,1.695 -5.375,5.888 -7.305,8.124 l -0.773,0.895 -1.216,-1.051 -8.121,1.022 z"
             inkscape:connector-curvature="0"
             id="path62"
             style="fill:#2c2c2b;stroke:none" />
          <path
             d="m 194.794,530.709 c 0.386,-0.358 1.045,-1.127 1.273,-1.356 1.008,-1.016 2.116,-1.805 3.505,-2.211 l 0.194,-0.056 0.201,0.011 c 1.672,0.091 3.214,0.012 4.819,0.189 0.128,-2.111 0.957,-4.265 2.136,-5.947 1.721,-2.453 4.683,-3.032 7.235,-4.239 0.276,-0.316 0.492,-0.663 0.668,-1.049 0.503,-1.106 0.714,-2.542 1.027,-3.729 0.484,-1.834 1.173,-3.411 2.24,-4.952 -0.199,-2.529 0.009,-4.524 0.569,-7.04 0.485,-2.182 0.788,-3.881 0.763,-6.057 -3.951,-2.54 -11.705,-7.113 -12.617,-11.639 -0.065,-0.322 -0.104,-0.649 -0.119,-0.977 -0.37,-8.22 7.912,-12.203 14.791,-13.924 0.311,-7.79 -4.979,-7.82 -5.454,-13.023 l -0.043,-0.464 0.286,-0.367 c 1.146,-1.479 2.033,-3.814 1.875,-5.807 -9.606,-0.793 -10.993,-4.348 -8.643,-13.011 -3.658,-1.529 -6.199,-5.169 -5.89,-9.166 -3.36,-1.415 -5.56,-4.281 -6.462,-7.811 -3.239,-0.354 -6.724,-0.19 -9.976,-0.41 l -0.518,-0.035 -0.324,-0.405 c -5.074,-6.326 -15.39,-5.088 -22.051,-2.479 -0.832,0.326 -1.637,0.71 -2.428,1.123 -3.107,1.624 -5.777,3.451 -9.167,4.569 -4.395,1.451 -8.837,1.36 -13.303,0.483 -1.621,5.904 -4.356,11.508 -9.736,14.757 -0.038,7.261 -0.666,14.511 -0.686,21.772 3.006,4.469 5.751,8.695 8.312,13.482 l 0.517,0.966 -0.924,0.589 c -1.221,0.776 -2.306,1.482 -3.393,2.411 -2.587,6.283 -5.062,12.156 -4.234,19.068 4.5,9.281 8.037,18.438 11.291,28.231 8.753,6.33 19.654,11.803 29.975,14.994 l 1.129,0.349 -0.028,0.091 7.365,-0.761 -0.04,-0.036 0.773,-0.894 c 2.193,-2.54 5.254,-6.828 7.927,-8.648 l 0.158,-0.108 0.184,-0.052 c 1.257,-0.36 2.487,-0.214 3.623,0.43 1.387,0.787 2.438,2.486 3.2,3.138 z"
             inkscape:connector-curvature="0"
             id="path64"
             style="fill:#0093a2;stroke:none" />
          <g
             id="g66">
            <path
               d="m 167.929,572.345 c 0.631,-11.761 1.262,-25.072 1.894,-36.834 1.377,0.172 3.27,0 5.163,-0.516 l 0.66,-4.458 c 0.304,-2.053 -0.049,-3.589 -0.035,-5.17 -3.121,-2.655 -8.485,-5.372 -11.04,-8.689 -2.115,-2.748 -2.31,-9.179 -3.182,-12.665 -2.696,-0.401 -5.909,-0.114 -8.606,-0.516 -0.689,-1.205 -0.861,-2.926 -0.689,-4.131 2.41,0.402 9.813,0.288 9.983,1.205 0.382,2.064 0.24,7.054 1.905,8.45 1.479,1.24 2.665,5.3 4.589,6.526 2.473,1.576 5.202,2.336 7.62,3.441 0.517,-4.303 -1.033,-9.295 -0.688,-16.179 l 5.68,-1.033 c 0.803,5.795 0.573,11.934 0.344,18.417 0.706,0.635 4.22,0.235 5.701,-1.538 0.972,-1.164 3.35,-2.607 4.133,-4.357 1.496,-3.343 0.784,-7.372 3.247,-7.014 0.688,2.237 1.184,6.72 -0.861,9.81 -3.299,4.986 -12.357,8.542 -12.048,13.942 l 2.41,42.17 -16.18,-0.861 z"
               inkscape:connector-curvature="0"
               id="path68"
               style="fill:#c47150;stroke:none" />
            <path
               d="m 180.838,469.59 c 2.396,6.898 -4.755,7.706 -2.926,9.982 2.007,2.497 2.263,4.686 2.092,7.47 -0.03,0.502 2.676,1.487 3.76,-0.068 1.168,-1.677 3.752,-2.338 5.37,-7.552 -0.752,-0.893 -3.226,2.433 -4.256,2.7 -1.029,0.267 -1.654,-0.796 -2.146,-4.271 1.464,-2.296 3.1,-3.215 3.876,-7.575 -1.579,-0.458 -4.535,-0.744 -5.77,-0.686 z"
               inkscape:connector-curvature="0"
               id="path70"
               style="fill:#c47150;stroke:none" />
            <path
               d="m 166.552,463.393 c -0.526,3.378 -0.882,5.377 -1.753,8.583 0.326,2.51 1.14,4.512 4.507,7.941 l -1.663,1.83 c -3.254,-2.177 -5.648,-5.731 -6.838,-8.079 -2.444,-0.499 -5.233,-0.31 -9.571,-0.98 l 0.379,-1.913 c 3.141,-0.012 7.143,-0.196 9.768,-0.379 1.496,-1.587 2.647,-3.689 3.627,-6.136 l 1.544,-0.867 z"
               inkscape:connector-curvature="0"
               id="path72"
               style="fill:#c47150;stroke:none" />
            <path
               d="m 168.102,436.37 c 2.658,5.018 8.081,11.443 10.486,16.611 1.444,3.1 0.853,4.808 1.416,7.991 -0.525,0.749 -1.394,0.639 -1.92,1.388 -0.521,-3.093 -0.923,-6.045 -2.075,-8.266 -1.481,-2.856 -3.012,-5.535 -5.113,-8.124 -8.147,-1.058 -11.131,-3.148 -14.114,-5.926 0.388,-0.364 1.809,-0.728 2.197,-1.092 2.702,2.716 6.093,4.056 10.171,4.191 -0.827,-1.986 -1.998,-4.316 -2.827,-6.301 0.594,-0.157 1.186,-0.314 1.779,-0.472 z"
               inkscape:connector-curvature="0"
               id="path74"
               style="fill:#c47150;stroke:none" />
            <path
               d="m 175.158,424.666 c 0.809,5.052 5.389,9.259 5.336,15.147 0.614,-0.014 1.744,0.488 2.358,0.474 1.473,-4.676 3.191,-5.207 6.248,-8.908 -0.268,-0.502 -0.535,-1.521 -0.803,-2.023 -2.03,1.77 -3.543,3.541 -5.401,4.796 -2.007,-3.448 -4.358,-6.035 -6.192,-11.032 -0.688,0.515 -0.859,1.031 -1.546,1.546 z"
               inkscape:connector-curvature="0"
               id="path76"
               style="fill:#c47150;stroke:none" />
          </g>
        </g>
        <g
           id="g78">
          <path
             d="m 443.975,551.74 0,10.349 -22.25,0 0,-10.349 22.25,0 z m -24.613,10.349 -28.641,0 0,-10.349 28.641,0 0,10.349 z m 85.839,-147.136 c 1.233,2.65 2.437,5.33 3.6,8.052 l -208.698,0 0,-8.052 205.098,0 z m 15.408,47.566 c 0.451,2.823 0.828,5.713 1.122,8.677 -7.463,-5.162 -16.926,-8.013 -27.654,-8.013 -12.28,0 -23.608,4.337 -32.375,11.598 l -2.159,0 0,-12.262 61.066,0 z m -63.43,12.262 -21.442,0 0,-12.262 21.442,0 0,12.262 z m -23.806,0 -25.931,0 0,-12.262 25.931,0 0,12.262 z m -28.295,0 -22.123,0 0,-12.262 22.123,0 0,12.262 z m -24.487,0 -0.408,0 c -6.125,-6.676 -14.721,-10.96 -25.255,-12.262 l 25.663,0 0,12.262 z m -39.722,-12.262 c -22.225,2.737 -35.772,18.67 -35.772,42.431 l 0,57.139 -4.994,0 0,-99.57 40.766,0 z m 118.179,14.626 c -3.403,3.254 -6.34,6.985 -8.692,11.092 l -4.416,0 0,-11.092 13.108,0 z m -15.472,11.092 -21.579,0 0,-11.092 21.579,0 0,11.092 z m -23.943,0 -22.122,0 0,-11.092 22.122,0 0,11.092 z m -24.486,0 -7.059,0 c -1.428,-4.133 -3.416,-7.848 -5.917,-11.092 l 12.976,0 0,11.092 z m 53.94,2.364 c -1.655,3.302 -2.946,6.82 -3.815,10.508 l -9.535,0 0,-10.508 13.35,0 z m -15.713,10.508 -27.429,0 0,-10.508 27.429,0 0,10.508 z m -29.793,0 -12.984,0 c -0.242,-3.724 -0.836,-7.235 -1.765,-10.508 l 14.749,0 0,10.508 z m 41.196,2.364 c -0.527,2.869 -0.802,5.83 -0.802,8.864 l 0,0.18 -21.434,0 0,-9.044 22.236,0 z m -24.6,9.044 -29.456,0 0,-7.567 c 0,-0.496 -0.007,-0.988 -0.02,-1.477 l 29.476,0 0,9.044 z m 23.798,2.364 0,9.923 -8.238,0 0,-9.923 8.238,0 z m -10.602,9.923 -28.108,0 0,-9.923 28.108,0 0,9.923 z m -30.472,0 -12.18,0 0,-9.923 12.18,0 0,9.923 z m 41.074,2.364 0,9.337 -21.57,0 0,-9.337 21.57,0 z m -23.934,9.337 -29.32,0 0,-9.337 29.32,0 0,9.337 z m 23.934,2.364 0,10.507 -7.966,0 0,-10.507 7.966,0 z m -10.33,10.507 -42.924,0 0,-10.507 42.924,0 0,10.507 z"
             inkscape:connector-curvature="0"
             id="path80"
             style="fill:#dadbdc;stroke:none" />
          <path
             d="m 517.966,449.672 c 0.856,3.396 1.611,6.885 2.245,10.483 l -25.027,0 0,-10.483 22.782,0 z m -25.145,10.483 -21.579,0 0,-10.483 21.579,0 0,10.483 z m -23.943,0 -21.442,0 0,-10.483 21.442,0 0,10.483 z m -23.806,0 -23.211,0 0,-10.483 23.211,0 0,10.483 z m -25.574,0 -24.436,0 0,-10.483 24.436,0 0,10.483 z m -26.799,0 -22.939,0 0,-10.483 22.939,0 0,10.483 z m -25.303,0 -67.293,0 0,-10.483 67.293,0 0,10.483 z"
             inkscape:connector-curvature="0"
             id="path82"
             style="fill:#dadbdc;stroke:none" />
          <path
             d="m 382.683,447.308 -33.346,0 c 2.229,-7.935 7.802,-15.894 16.86,-15.894 3.042,0 6.518,1.799 8.829,3.655 3.89,3.125 6.351,7.487 7.657,12.239 z"
             inkscape:connector-curvature="0"
             id="path84"
             style="fill:#dadbdc;stroke:none" />
          <path
             d="m 512.069,431.086 c 1.978,5.202 3.768,10.586 5.283,16.222 l -16.837,0 c 1.288,-5.754 5.031,-14.64 11.554,-16.222 z"
             inkscape:connector-curvature="0"
             id="path86"
             style="fill:#dadbdc;stroke:none" />
          <path
             d="m 479.615,447.308 -26.38,0 c 1.549,-6.354 5.909,-15.894 13.481,-15.894 2.931,0 5.865,2.117 7.741,4.206 2.897,3.227 4.518,7.429 5.158,11.688 z"
             inkscape:connector-curvature="0"
             id="path88"
             style="fill:#dadbdc;stroke:none" />
          <path
             d="m 433.403,447.308 -28.505,0 c 1.732,-6.947 6.002,-16.468 14.404,-16.468 3.022,0 5.904,1.453 8.053,3.514 3.492,3.348 5.24,8.263 6.048,12.954 z"
             inkscape:connector-curvature="0"
             id="path90"
             style="fill:#dadbdc;stroke:none" />
          <path
             d="m 509.797,425.369 c 0.479,1.157 0.951,2.321 1.412,3.495 -7.357,1.999 -11.557,11.338 -13.033,18.069 l -0.082,0.375 -16.09,0 c -0.67,-4.84 -2.497,-9.601 -5.788,-13.268 -2.351,-2.618 -5.854,-4.99 -9.5,-4.99 -9.102,0 -14.202,10.692 -15.909,18.258 l -15.008,0 c -0.865,-5.336 -2.83,-10.846 -6.808,-14.66 -2.593,-2.487 -6.051,-4.172 -9.689,-4.172 -9.863,0 -14.862,10.534 -16.812,18.725 l -0.026,0.107 -17.337,0 c -1.389,-5.479 -4.167,-10.505 -8.621,-14.082 -2.751,-2.209 -6.704,-4.176 -10.309,-4.176 -10.433,0 -16.907,9.025 -19.307,18.258 l -46.787,0 0,-21.939 209.694,0 z"
             inkscape:connector-curvature="0"
             id="path92"
             style="fill:#ffffff;stroke:none" />
          <path
             d="m 300.103,406.761 201.174,0 c 0.947,1.931 1.887,3.872 2.814,5.828 l -203.988,0 0,-5.828 z"
             inkscape:connector-curvature="0"
             id="path94"
             style="fill:#ffffff;stroke:none" />
        </g>
        <path
           d="m 341.518,647.001 c -15.548,8.258 -28.682,18.432 -39.708,34.19 l 0,-34.19 39.708,0 z"
           inkscape:connector-curvature="0"
           id="path96"
           style="fill:#ffffff;stroke:none" />
        <g
           id="g98">
          <path
             d="m 221.999,508.121 c 6.297,-4.032 12.459,-6.433 20.253,-9.514 5.799,-10.511 14.946,-16.995 24.33,-17.943 15.729,-1.589 32.469,10.765 50.315,23.208 16.079,11.21 37.944,18.875 57.16,25.223 13.705,4.527 25.368,3.303 37.963,-4.392 2.899,1.993 4.575,6.022 4.213,9.647 4.032,-1.493 9.289,1.09 11.011,3.81 -11.055,10.873 -24.648,20.07 -45.127,18.621 0.228,4.807 9.514,7.024 9.379,14.274 -12.189,-1.495 -25.737,-4.261 -33.574,-7.206 -5.958,7.136 -12.572,11.212 -22.154,13.051 1.512,12.658 -2.768,13.867 -3.215,17.769 -0.472,4.137 -0.524,6.921 -1,11.044 -3.625,1.631 -5.618,2.175 -9.243,3.806 0.476,-4.281 0.527,-9.006 0.824,-13.167 0.382,-5.352 -2.251,-10.551 -2.726,-16.056 -1.677,0.317 -3.216,0.543 -4.622,0.544 0.302,3.289 0.515,4.99 -0.232,6.999 -1.77,4.758 -5.723,7.846 -6.292,11.928 -0.63,4.514 0.09,7.136 -0.544,11.655 -3.081,0 -5.618,-0.272 -8.699,-0.272 1.268,-11.055 0.634,-20.479 1.631,-31.534 -14,-3.245 -23.364,-15.895 -32.356,-29.879 -8.448,-13.137 -16.979,-28.004 -26.634,-38.626 -8.79,-0.454 -14.181,-0.635 -20.661,-2.99 z"
             inkscape:connector-curvature="0"
             id="path100"
             style="fill:#2c2c2b;stroke:none" />
          <path
             d="m 228.024,507.363 c 4.826,0.996 9.691,1.126 14.758,1.387 l 0.972,0.05 0.655,0.721 c 10.385,11.424 18.522,25.95 26.874,38.937 6.691,10.407 15.212,23.173 27.373,27.781 7.884,2.985 16.814,3.175 23.881,1.249 l 0.226,2.605 c 0.482,5.584 3.145,10.596 2.729,16.427 -0.222,3.104 -0.301,6.216 -0.499,9.322 1.455,-0.576 2.914,-1.136 4.356,-1.746 0.322,-3.229 0.487,-6.469 0.856,-9.696 0.073,-0.643 0.225,-1.266 0.445,-1.875 0.639,-1.775 1.73,-3.253 2.327,-5.109 1.017,-3.162 0.832,-6.99 0.444,-10.235 l -0.262,-2.188 2.163,-0.415 c 8.832,-1.695 15.041,-5.364 20.786,-12.244 l 1.069,-1.28 c -14.759,-5.642 -29.384,-8.301 -40.815,-15.944 -11.166,-7.465 -13.997,-14.544 -18.924,-21.417 -7.185,-10.025 -15.902,-21.307 -21.341,-24 -7.526,-3.724 -10.863,-2.608 -16.311,-4.077 -4.211,-1.136 -7.044,-2.61 -9.177,-4.319 -2.492,2.513 -4.613,5.416 -6.287,8.452 l -0.411,0.744 -0.79,0.312 c -5.154,2.038 -10.24,4.009 -15.097,6.558 z m 32.17,-10.388 c 2.027,0 3.67,1.643 3.67,3.67 0,2.027 -1.643,3.67 -3.67,3.67 -2.027,0 -3.67,-1.643 -3.67,-3.67 0,-2.027 1.643,-3.67 3.67,-3.67 z m 43.776,83.246 c -0.828,9.537 -0.482,19.085 -1.34,28.624 1.316,0.052 2.631,0.126 3.947,0.172 0.184,-3.179 -0.11,-6.328 0.344,-9.577 0.671,-4.81 4.778,-8.018 6.418,-12.425 0.655,-1.763 0.261,-4.134 0.093,-5.959 l -0.012,-0.129 c -3.326,0.127 -6.357,-0.1 -9.45,-0.706 z"
             inkscape:connector-curvature="0"
             id="path102"
             style="fill:#e85b43;stroke:none" />
          <path
             d="m 324.352,587.771 c 0.722,2.825 1.359,5.673 1.14,8.749 -0.222,3.104 -0.301,6.216 -0.499,9.322 1.455,-0.576 2.914,-1.136 4.356,-1.746 0.322,-3.229 0.487,-6.469 0.856,-9.696 0.073,-0.643 0.225,-1.266 0.445,-1.875 0.597,-1.661 1.591,-3.06 2.205,-4.754 l -8.503,0 z m -11.323,0 -9.513,0 c -0.275,7.025 -0.254,14.052 -0.886,21.074 1.316,0.052 2.631,0.126 3.947,0.172 0.184,-3.179 -0.11,-6.328 0.344,-9.577 0.631,-4.531 4.312,-7.64 6.108,-11.669 z"
             inkscape:connector-curvature="0"
             id="path104"
             style="fill:#c3886f;stroke:none" />
          <path
             d="m 228.024,507.363 c 4.826,0.996 9.691,1.126 14.758,1.387 l 0.972,0.05 0.002,0.002 c 1.884,-0.91 3.697,-2.121 5.7,-3.672 -1.775,-1.978 -3.403,-3.509 -5.539,-4.648 l -0.006,0.011 -0.79,0.312 c -5.154,2.038 -10.24,4.009 -15.097,6.558 z"
             inkscape:connector-curvature="0"
             id="path106"
             style="fill:#c3886f;stroke:none" />
          <path
             d="m 357.177,561.054 0.006,-0.008 1.57,0.59 c 7.639,2.87 17.057,4.662 25.111,5.951 1.528,0.244 3.059,0.474 4.592,0.687 -1.65,-3.096 -5.881,-5.13 -7.771,-8.349 -0.953,-1.628 -0.448,-2.885 -1.96,-4.215 -10.083,-8.88 -21.483,-16.478 -33.084,-23.188 l -1.023,-0.591 1.184,-2.046 1.023,0.591 c 11.902,6.881 23.581,14.69 33.887,23.836 l 1.572,0.111 c 17.082,1.209 29.741,-5.149 41.653,-16.362 -1.905,-1.432 -4.922,-2.22 -6.883,-1.494 l -1.498,0.555 c -1.127,0.864 -2.288,1.695 -3.499,2.482 -6.509,4.228 -13.325,6.438 -21.108,6.646 l -1.182,0.032 -0.063,-2.363 1.181,-0.031 c 9.842,-0.263 16.543,-3.596 22.861,-8.42 l 0.135,-1.353 c 0.22,-2.207 -0.569,-4.802 -2.119,-6.511 -12.509,7.191 -24.493,8.345 -38.446,3.736 -19.296,-6.374 -41.055,-13.875 -57.771,-25.529 -8.294,-5.783 -16.772,-11.978 -25.707,-16.717 -6.927,-3.674 -15.027,-6.886 -23.018,-6.078 -6.292,0.636 -11.828,3.857 -16.211,8.281 2.133,1.709 4.966,3.183 9.177,4.319 5.448,1.469 8.785,0.353 16.311,4.077 5.439,2.693 14.156,13.975 21.341,24 4.927,6.873 7.758,13.952 18.924,21.417 11.431,7.643 26.056,10.302 40.815,15.944 z"
             inkscape:connector-curvature="0"
             id="path108"
             style="fill:#c3886f;stroke:none" />
          <path
             d="m 282.469,564.01 c 4.59,5.287 9.902,9.847 16.187,12.229 7.884,2.985 16.814,3.175 23.881,1.249 l 0.226,2.605 c 0.295,3.423 1.411,6.631 2.133,9.944 2.308,0.127 4.759,-0.064 7.167,-0.491 0.344,-0.678 0.67,-1.373 0.914,-2.13 1.017,-3.162 0.832,-6.99 0.444,-10.235 l -0.262,-2.188 2.163,-0.415 c 8.832,-1.695 15.041,-5.364 20.786,-12.244 l 1.069,-1.28 c -14.759,-5.642 -29.384,-8.301 -40.815,-15.944 -11.166,-7.465 -13.997,-14.544 -18.924,-21.417 -0.616,-0.86 -1.244,-1.73 -1.88,-2.601 -0.451,3.398 -0.191,6.291 0.599,10.097 0.81,3.905 4.519,8.606 4.556,12.203 0.038,3.736 -1.62,6.912 -3.412,10.127 -2.567,4.601 -7.736,0.403 -11.792,4.825 -1.403,1.53 -2.349,3.523 -3.04,5.666 z m 20.99,25.355 c 2.597,0.402 5.426,0.515 8.61,0.236 0.493,-0.828 0.933,-1.682 1.27,-2.586 0.655,-1.763 0.261,-4.134 0.093,-5.959 l -0.012,-0.129 c -3.326,0.127 -6.357,-0.1 -9.45,-0.706 -0.265,3.047 -0.409,6.095 -0.511,9.144 z"
             inkscape:connector-curvature="0"
             id="path110"
             style="fill:#ffffff;stroke:none" />
        </g>
        <g
           id="g112">
          <path
             d="m 299.69,347.188 c 35.531,0 64.371,28.84 64.371,64.371 0,35.53 -28.84,64.37 -64.371,64.37 -35.53,0 -64.37,-28.84 -64.37,-64.37 0,-35.531 28.84,-64.371 64.37,-64.371 z"
             inkscape:connector-curvature="0"
             id="path114"
             style="fill:#2c2c2b;stroke:none" />
          <path
             d="m 301.515,391.983 17.919,12.535 17.993,-5.846 1.619,-19.608 -20.934,-15.517 -16.597,9.01 0,19.426 z m 15.24,-39.435 c 14.093,4.07 26.103,13.052 34.058,24.974 l -10.02,0.141 -21.542,-15.968 -2.496,-9.147 z m 44.271,55.845 c 0.053,1.048 0.08,2.104 0.08,3.166 0,14.401 -4.961,27.644 -13.265,38.118 l -3.559,-10.386 8.268,-25.668 8.476,-5.23 z m -37.862,59.93 c -7.232,2.995 -15.159,4.651 -23.474,4.651 -6.952,0 -13.634,-1.157 -19.866,-3.287 l 8.241,-8.862 26.744,-0.068 8.355,7.566 z M 253.59,452.127 c -9.53,-10.821 -15.315,-25.019 -15.315,-40.568 0,-1.143 0.033,-2.277 0.095,-3.404 l 11.031,6.442 9.836,25.431 -5.647,12.099 z m -4.977,-74.673 c 8.142,-12.17 20.52,-21.266 35.021,-25.185 l -2.462,9.081 -19.889,16.188 -12.67,-0.084 z m 71.396,29.165 -6.139,19.968 11.234,14.058 17.426,-2.985 7.695,-23.893 -11.955,-13.082 -18.261,5.934 z m -7.899,21.244 -22.467,10e-4 -11.419,18.653 9.205,12.142 26.577,-0.068 9.186,-16.858 -11.082,-13.87 z m -24.385,-1.018 -6.814,-20.194 -18.504,-6.013 -10.562,14.248 9.477,24.503 15.239,5.692 11.164,-18.236 z m -24.774,-47.861 0.162,19.598 18.305,5.947 17.922,-12.537 0,-19.498 -17.284,-9.06 -19.105,15.55 z"
             inkscape:connector-curvature="0"
             id="path116"
             style="fill:#ffffff;stroke:none" />
        </g>
        <g
           id="g118">
          <path
             d="m 131.694,644.572 -0.202,18.633 -0.908,0.208 c -26.444,6.051 -49.3291,18.362 -71.5717,33.457 l -2.1275,1.443 0.2896,-2.555 c 1.5077,-13.309 5.462,-25.077 9.6092,-37.653 -11.8453,-1.887 -24.9958,-2.388 -36.9208,-1.803 l -3.6197,0.178 2.8196,-2.278 c 18.996,-15.347 40.6602,-28.513 64.4474,-34.769 -2.3217,-7.105 -6.0367,-13.712 -11.566,-19.333 l -1.5904,-1.616 1.5491,-1.657 c 15.5993,-16.679 48.7412,-21.099 70.5762,-20.947 22.11,0.154 43.989,3.719 65.316,9.437 27.085,7.261 54.471,17.838 82.808,18.316 7.789,0.132 15.311,-0.754 22.906,-2.438 6.934,-1.537 13.73,-3.659 20.49,-5.816 7.735,-2.47 15.43,-4.961 23.268,-7.094 22.264,-6.061 44.148,-8.762 67.221,-9.097 22.62,-0.327 60.985,6.022 78.426,20.922 l 1.402,1.197 -0.819,1.651 c -3.54,7.137 -6.419,13.331 -8.618,19.511 21.885,7.204 48.555,22.465 62.226,39.269 l 1.928,2.369 -3.02,-0.454 c -5.093,-0.766 -10.211,-1.411 -15.331,-1.968 -8.018,-0.87 -16.683,-1.721 -24.831,-1.719 5.322,11.272 10.572,25.692 11.948,37.837 l 0.29,2.555 -2.128,-1.444 c -22.383,-15.19 -46.937,-30.42 -73.612,-36.524 l -0.908,-0.208 -0.18,-16.221 c -9.926,-1.592 -19.982,-2.391 -30.242,-2.161 -24.433,0.55 -48.432,5.912 -72.084,11.644 -10.719,2.598 -21.449,5.319 -32.263,7.486 -9.132,1.83 -18.752,3.378 -28.084,3.34 -15.533,-0.064 -31.915,-3.629 -46.988,-7.202 -17.464,-4.14 -34.772,-8.847 -52.404,-12.262 -13.709,-2.655 -27.7,-4.572 -41.684,-4.634 -8.57,-0.037 -17.246,0.826 -25.818,2.4 z"
             inkscape:connector-curvature="0"
             id="path120"
             style="fill:#2c2c2b;stroke:none" />
          <path
             d="m 83.6291,598.442 c 11.555,11.748 17.3979,29.43 14.8843,53.213 20.5676,-8.017 40.9686,-11.926 59.0086,-11.847 49.882,0.221 102.254,23.938 141.076,24.098 33.166,0.137 82.125,-21.338 132.368,-22.469 19.66,-0.441 40.566,2.66 66.344,11.034 0.41,-21.951 5.914,-34.121 14.069,-50.564 -15.878,-13.563 -52.272,-20.711 -76.857,-20.355 -73.429,1.065 -94.536,25.111 -133.959,24.445 -28.489,-0.481 -55.864,-11.02 -83.381,-18.397 -21.401,-5.737 -42.977,-9.205 -64.719,-9.356 -19.326,-0.134 -53.2677,3.554 -68.8339,20.198 z"
             inkscape:connector-curvature="0"
             id="path122"
             style="fill:#ffffff;stroke:none" />
          <path
             d="m 33.3643,653.797 c 11.563,-0.349 23.9874,0.301 35.1722,2.201 l 1.3541,0.23 -0.4292,1.304 c -3.9758,12.081 -7.8717,23.379 -9.6143,35.925 21.0089,-13.947 43.2889,-25.369 66.8769,-31.525 -9.427,-3.591 -20.215,-5.801 -29.6813,-6.559 l -1.1783,-0.094 0.0045,-0.056 -0.1146,0.045 0.4086,-3.861 c 1.0511,-9.944 0.715,-20.216 -1.9635,-29.711 -22.3217,5.852 -42.7655,17.916 -60.8351,32.101 z m 95.7947,6.551 0.166,-15.322 c -9.812,1.956 -19.463,4.825 -28.639,8.325 9.351,1.054 19.574,3.404 28.473,6.997 z"
             inkscape:connector-curvature="0"
             id="path124"
             style="fill:#ffffff;stroke:none" />
          <path
             d="m 463.629,646.356 0.15,13.461 c 8.915,-3.187 19.759,-5.335 28.898,-6.337 -9.609,-2.979 -19.268,-5.428 -29.048,-7.124 z m 3.558,14.798 c 24.473,6.521 47.073,20.277 67.916,34.326 -1.837,-11.925 -7.092,-25.69 -12.184,-36.164 l -0.81,-1.667 1.853,-0.032 c 8.777,-0.147 18.247,0.771 26.975,1.719 4.11,0.446 8.217,0.95 12.311,1.526 -13.885,-15.511 -38.715,-29.437 -59.135,-36.156 -2.737,8.335 -4.235,16.849 -4.439,27.809 l -0.06,3.19 -1.096,-0.356 -0.402,0.026 c -8.943,0.574 -20.91,2.555 -30.929,5.779 z"
             inkscape:connector-curvature="0"
             id="path126"
             style="fill:#ffffff;stroke:none" />
        </g>
        <path
           d="m 113.03,610.652 0.534,20.681 -3.158,0.93 -12.3461,-25.589 3.6611,-1.079 8.531,18.556 -0.484,-20.926 2.74,-0.807 9.006,18.372 -1.118,-20.696 3.634,-1.071 1.056,28.915 -3.325,0.98 -8.731,-18.266 z m 27.743,5.065 -7.329,0.278 -1.822,9.779 -3.669,0.139 6.224,-29.776 3.317,-0.125 10.579,29.138 -3.98,0.151 -3.32,-9.584 z m -6.761,-2.983 5.693,-0.216 -3.613,-10.39 -2.08,10.606 z m 22.591,9.357 10.551,0 0,3.576 -14.131,0 0,-29.914 3.58,0 0,26.338 z m 20.866,-20.865 -1.032,25.366 -3.62,-0.365 1.032,-25.367 -7.388,-0.745 0.146,-3.602 18.424,1.857 -0.147,3.602 -7.415,-0.746 z m 15.713,29.244 c -3.218,-0.319 -5.347,-2.175 -6.565,-5.124 -1.473,-3.539 -1.465,-7.728 -0.995,-11.471 0.466,-3.707 1.634,-7.326 4.038,-10.244 1.921,-2.322 4.377,-3.92 7.48,-3.615 3.161,0.314 5.253,2.149 6.466,5.037 1.46,3.478 1.468,7.572 1.006,11.256 -0.472,3.743 -1.629,7.416 -3.986,10.413 -1.872,2.387 -4.312,4.057 -7.444,3.748 z m 0.548,-3.615 c 1.879,0.186 3.421,-1.236 4.504,-2.599 1.925,-2.431 2.728,-6.112 3.105,-9.119 0.327,-2.594 0.139,-5.165 -0.586,-7.677 -0.597,-2.067 -1.75,-3.591 -3.989,-3.812 -2.162,-0.214 -3.751,0.888 -4.978,2.6 -1.665,2.312 -2.447,5.214 -2.797,8.006 -0.362,2.889 -0.478,6.462 0.724,9.184 0.784,1.774 1.993,3.217 4.017,3.417 z m 19.573,-15.505 -4.701,20.817 -3.531,-1.043 6.362,-28.227 3.36,0.992 6.145,24.099 4.717,-20.893 3.542,1.045 -6.373,28.224 -3.255,-0.961 -6.266,-24.053 z m 37.337,28.899 c -0.436,0.23 -0.89,0.422 -1.359,0.58 -0.69,0.232 -1.408,0.382 -2.134,0.455 -0.761,0.071 -1.528,0.064 -2.285,-0.017 -0.807,-0.08 -1.598,-0.257 -2.368,-0.511 -1.048,-0.345 -2.028,-0.852 -2.891,-1.544 -0.817,-0.664 -1.486,-1.462 -1.984,-2.389 -0.508,-0.95 -0.788,-1.982 -0.882,-3.051 -0.111,-1.184 0.053,-2.363 0.383,-3.502 0.299,-1.035 0.715,-2.073 1.324,-2.967 0.511,-0.748 1.115,-1.435 1.83,-1.992 0.664,-0.521 1.391,-0.954 2.167,-1.289 0.579,-0.246 1.167,-0.47 1.763,-0.674 -0.144,-0.38 -0.272,-0.766 -0.386,-1.156 -0.175,-0.61 -0.311,-1.232 -0.406,-1.86 -0.101,-0.65 -0.136,-1.312 -0.113,-1.97 0.025,-0.678 0.128,-1.344 0.317,-1.996 0.285,-0.982 0.729,-1.919 1.409,-2.692 0.586,-0.662 1.28,-1.215 2.083,-1.593 0.76,-0.352 1.564,-0.55 2.402,-0.584 0.803,-0.031 1.598,0.067 2.363,0.32 0.732,0.24 1.416,0.593 2.029,1.061 0.6,0.459 1.093,1.019 1.462,1.678 0.386,0.685 0.594,1.439 0.67,2.219 0.083,0.887 -0.044,1.777 -0.29,2.629 -0.265,0.931 -0.657,1.834 -1.252,2.602 -0.522,0.684 -1.143,1.275 -1.863,1.744 -0.698,0.461 -1.446,0.831 -2.233,1.116 -0.587,0.211 -1.182,0.404 -1.783,0.572 0.259,0.69 0.519,1.378 0.782,2.064 0.359,0.923 0.72,1.843 1.086,2.762 0.367,0.921 0.737,1.839 1.11,2.756 0.259,0.631 0.52,1.261 0.783,1.89 0.234,-0.219 0.464,-0.441 0.693,-0.665 0.348,-0.344 0.686,-0.699 1.015,-1.062 0.311,-0.345 0.613,-0.698 0.904,-1.059 0.306,-0.386 0.611,-0.772 0.909,-1.165 l 0.224,-0.293 3.866,1.277 -0.444,0.577 c -0.794,1.03 -1.678,1.99 -2.616,2.889 -0.992,0.95 -2.036,1.849 -3.113,2.703 l 3.403,6.955 -5.327,-1.759 -1.248,-3.059 z m -3.021,-17.83 c 0.439,-0.143 0.874,-0.302 1.3,-0.481 0.513,-0.215 1.007,-0.475 1.467,-0.785 0.416,-0.285 0.784,-0.626 1.1,-1.017 0.315,-0.398 0.529,-0.859 0.671,-1.345 0.147,-0.509 0.254,-1.057 0.237,-1.586 -0.018,-0.384 -0.082,-0.778 -0.239,-1.129 -0.128,-0.284 -0.307,-0.535 -0.549,-0.731 -0.244,-0.198 -0.514,-0.354 -0.813,-0.453 -0.358,-0.119 -0.723,-0.162 -1.097,-0.127 -0.372,0.04 -0.712,0.145 -1.036,0.33 -0.34,0.199 -0.627,0.462 -0.866,0.776 -0.281,0.367 -0.473,0.799 -0.602,1.241 -0.129,0.449 -0.198,0.907 -0.218,1.371 -0.016,0.495 0.006,0.987 0.066,1.476 0.064,0.5 0.164,0.992 0.291,1.478 0.087,0.33 0.183,0.658 0.288,0.982 z m 1.717,14.583 c -0.758,-1.741 -1.463,-3.504 -2.117,-5.287 -0.641,-1.749 -1.309,-3.489 -2.01,-5.216 -0.302,0.136 -0.603,0.274 -0.902,0.413 -0.469,0.223 -0.915,0.489 -1.332,0.802 -0.439,0.323 -0.818,0.717 -1.148,1.15 -0.374,0.491 -0.623,1.067 -0.794,1.657 -0.201,0.696 -0.304,1.42 -0.294,2.146 0.008,0.679 0.128,1.347 0.381,1.979 0.246,0.617 0.622,1.148 1.099,1.61 0.538,0.521 1.21,0.867 1.917,1.101 0.446,0.147 0.914,0.235 1.38,0.286 0.505,0.053 1.011,0.056 1.516,0.011 0.496,-0.045 0.985,-0.141 1.459,-0.292 0.293,-0.093 0.578,-0.211 0.845,-0.36 z m 26.663,-7.462 11.507,0.709 0.542,-13.702 3.833,0.236 -1.241,31.409 -3.833,-0.236 0.559,-14.152 -11.507,-0.708 -0.559,14.152 -3.839,-0.236 1.241,-31.41 3.839,0.237 -0.542,13.701 z m 24.682,-8.884 0.109,9.267 8.77,0 0.041,3.562 -8.77,0 0.129,11.038 11.495,0 0.042,3.694 -15.337,0 -0.365,-31.255 14.843,0 0.042,3.694 -10.999,0 z m 29.528,10.538 8.799,12.768 -4.462,0.633 -7.991,-11.954 c -0.945,0.227 -2.514,0.403 -3.542,0.539 l 1.391,12.851 -3.817,0.542 -3.374,-31.182 7.467,-1.057 c 2.402,-0.34 4.899,-0.105 6.813,1.525 1.859,1.587 2.673,3.854 2.93,6.229 0.217,2.004 -0.142,3.906 -1.117,5.671 -0.762,1.377 -1.763,2.605 -3.097,3.435 z m -8.786,-12.714 1.21,11.187 2.14,-0.302 c 1.743,-0.248 3.44,-0.875 4.57,-2.287 1.023,-1.273 1.373,-2.761 1.198,-4.374 -0.152,-1.403 -0.569,-3.108 -1.787,-3.981 -1.254,-0.913 -3.266,-0.819 -4.717,-0.613 l -2.614,0.37 z m 22.076,17.006 c 0.89,0.963 1.927,1.755 3.06,2.409 1.16,0.658 2.406,0.915 3.736,0.823 1.324,-0.091 2.597,-0.484 3.499,-1.503 0.91,-1.028 1.036,-2.398 0.87,-3.711 -0.16,-1.27 -0.588,-2.561 -1.653,-3.355 -1.234,-0.913 -2.867,-1.583 -4.32,-2.09 l -1.479,-0.599 c -2.035,-0.676 -3.913,-1.679 -5.533,-3.094 -1.716,-1.5 -2.568,-3.508 -2.849,-5.737 -0.287,-2.275 0.142,-4.423 1.707,-6.148 1.539,-1.69 3.563,-2.474 5.821,-2.63 1.614,-0.112 3.282,0.024 4.779,0.676 1.406,0.613 2.645,1.519 3.736,2.59 l 0.287,0.282 -1.866,3.201 -0.473,-0.426 c -0.805,-0.725 -1.699,-1.343 -2.648,-1.866 -1.023,-0.563 -2.188,-0.714 -3.341,-0.635 -1.232,0.086 -2.368,0.468 -3.248,1.364 -0.798,0.817 -1.088,1.792 -0.945,2.922 0.174,1.387 0.762,2.522 1.935,3.309 1.121,0.76 2.327,1.411 3.612,1.873 l 2.566,1.034 c 1.963,0.7 4.347,1.767 5.745,3.372 1.257,1.458 1.846,3.319 2.084,5.201 0.317,2.516 -0.032,5.018 -1.776,6.956 -1.612,1.802 -3.706,2.676 -6.104,2.841 -0.931,0.065 -1.876,0.059 -2.806,-0.056 -0.862,-0.112 -1.704,-0.32 -2.512,-0.642 -0.816,-0.324 -1.585,-0.747 -2.3,-1.257 -0.781,-0.558 -1.502,-1.204 -2.167,-1.895 l -0.302,-0.314 2.459,-3.354 0.426,0.459 z m 21.317,-13.796 11.383,-2.639 -2.142,-13.399 3.779,-0.876 4.912,30.729 -3.778,0.874 -2.213,-13.839 -11.383,2.639 2.212,13.841 -3.784,0.876 -4.912,-30.728 3.784,-0.877 2.142,13.399 z m 33.852,-1.056 -7.295,1.982 -0.529,10.737 -3.641,0.99 2.284,-32.791 3.281,-0.891 14.371,28.266 -3.894,1.057 -4.577,-9.35 z m -7.16,-1.532 5.699,-1.548 -5.014,-10.212 -0.685,11.76 z m 21.149,-9.955 0.84,19.11 -3.838,0.093 -1.338,-30.466 3.811,-0.092 8.434,24.649 6.159,-25.003 3.79,-0.092 1.338,30.466 -3.837,0.093 -0.838,-19.07 -4.694,19.204 -3.347,0.082 -6.48,-18.974 z m 42.021,-6.476 -0.824,9.238 8.72,1.355 -0.318,3.552 -8.719,-1.355 -1.309,14.689 -3.822,-0.595 2.779,-31.162 14.777,2.297 -0.327,3.684 -10.957,-1.703 z m 3.02,26.284 c 0,-0.707 0.224,-1.351 0.648,-1.914 0.456,-0.612 1.086,-0.937 1.85,-0.937 0.752,0 1.379,0.323 1.834,0.918 0.438,0.569 0.659,1.215 0.659,1.933 0,0.711 -0.222,1.365 -0.659,1.925 -0.456,0.596 -1.082,0.918 -1.834,0.918 -0.742,0 -1.359,-0.312 -1.822,-0.889 -0.455,-0.568 -0.676,-1.227 -0.676,-1.954 z m 28.961,2.758 c -2.455,2.686 -5.504,4.202 -9.174,3.688 -3.416,-0.479 -5.674,-2.426 -6.786,-5.68 -1.251,-3.657 -1.056,-7.676 -0.292,-11.413 0.793,-3.873 2.303,-7.597 5.011,-10.534 2.324,-2.513 5.201,-3.867 8.641,-3.384 2.888,0.404 5.172,1.773 6.435,4.449 l 0.165,0.35 -2.913,2.586 -0.289,-0.64 c -0.819,-1.813 -2.207,-2.81 -4.172,-3.085 -2.167,-0.304 -3.937,0.712 -5.383,2.264 -2.022,2.176 -3.082,5.246 -3.667,8.104 -0.614,3 -0.857,6.305 0.019,9.278 0.617,2.097 1.783,3.733 4.052,4.05 2.536,0.356 4.628,-0.899 6.322,-2.696 l 0.452,-0.48 1.849,2.848 -0.27,0.295 z m 0.394,4.581 c 0,-0.706 0.224,-1.351 0.649,-1.914 0.456,-0.611 1.085,-0.936 1.85,-0.936 0.752,0 1.378,0.323 1.834,0.918 0.437,0.569 0.659,1.215 0.659,1.932 0,0.712 -0.222,1.366 -0.659,1.926 -0.457,0.596 -1.082,0.918 -1.834,0.918 -0.742,0 -1.359,-0.312 -1.822,-0.89 -0.455,-0.567 -0.677,-1.227 -0.677,-1.954 z"
           inkscape:connector-curvature="0"
           id="path128"
           style="fill:#e2202d;stroke:none" />
      </g>
    </g>
  </g>
</svg>
