<?xml version="1.0" encoding="UTF-8" standalone="no"?>
<!-- Created with Inkscape (http://www.inkscape.org/) -->

<svg
   xmlns:dc="http://purl.org/dc/elements/1.1/"
   xmlns:cc="http://creativecommons.org/ns#"
   xmlns:rdf="http://www.w3.org/1999/02/22-rdf-syntax-ns#"
   xmlns:svg="http://www.w3.org/2000/svg"
   xmlns="http://www.w3.org/2000/svg"
   xmlns:sodipodi="http://sodipodi.sourceforge.net/DTD/sodipodi-0.dtd"
   xmlns:inkscape="http://www.inkscape.org/namespaces/inkscape"
   width="84.666664mm"
   height="84.666664mm"
   viewBox="0 0 299.99999 299.99999"
   id="svg3632"
   version="1.1"
   inkscape:version="0.91 r13725"
   sodipodi:docname="evros.svg">
  <defs
     id="defs3634" />
  <sodipodi:namedview
     id="base"
     pagecolor="#ffffff"
     bordercolor="#666666"
     borderopacity="1.0"
     inkscape:pageopacity="0.0"
     inkscape:pageshadow="2"
     inkscape:zoom="0.35"
     inkscape:cx="232.75031"
     inkscape:cy="509.17888"
     inkscape:document-units="px"
     inkscape:current-layer="layer1"
     showgrid="false"
     fit-margin-top="0"
     fit-margin-left="0"
     fit-margin-right="0"
     fit-margin-bottom="0"
     inkscape:window-width="1280"
     inkscape:window-height="744"
     inkscape:window-x="-4"
     inkscape:window-y="-4"
     inkscape:window-maximized="1" />
  <metadata
     id="metadata3637">
    <rdf:RDF>
      <cc:Work
         rdf:about="">
        <dc:format>image/svg+xml</dc:format>
        <dc:type
           rdf:resource="http://purl.org/dc/dcmitype/StillImage" />
        <dc:title></dc:title>
      </cc:Work>
    </rdf:RDF>
  </metadata>
  <g
     inkscape:label="Layer 1"
     inkscape:groupmode="layer"
     id="layer1"
     transform="translate(-142.24969,-741.54109)">
    <g
       id="g3642"
       transform="matrix(0.5291666,0,0,0.5291666,134.74976,668.79105)">
      <path
         inkscape:connector-curvature="0"
         id="path3644"
         style="fill:#003d8f;fill-rule:evenodd"
         d="M 297.6377,137.4804 A 283.4646,283.4646 0 0 1 581.1023,420.9449 283.4646,283.4646 0 1 1 297.6377,137.4804 Z" />
      <path
         inkscape:connector-curvature="0"
         id="path3646"
         style="fill:#ffffff;fill-rule:evenodd"
         d="M 297.6377,141.8711 A 279.0738,279.0738 0 0 1 576.7115,420.9449 279.0738,279.0738 0 1 1 297.6377,141.8711 Z" />
      <path
         inkscape:connector-curvature="0"
         id="path3648"
         style="fill:#003d8f;fill-rule:evenodd"
         d="M 297.6377,196.7557 A 224.1892,224.1892 0 0 1 521.8269,420.9449 224.1892,224.1892 0 1 1 297.6377,196.7557 Z" />
      <path
         inkscape:connector-curvature="0"
         id="path3650"
         style="fill:#ffffff;fill-rule:evenodd"
         d="M 297.6377,199.8293 A 221.1157,221.1157 0 0 1 518.7534,420.9449 221.1157,221.1157 0 1 1 297.6377,199.8293 Z" />
      <path
         inkscape:connector-curvature="0"
         id="path3652"
         style="fill:#003d8f;fill-rule:evenodd"
         d="m 143.5247,312.6144 c 68.8648,-12.1238 117.2106,-47.6859 155.0371,-96.0212 38.9575,49.5472 89.302,84.6505 154.1255,95.3995 0.2178,24.7534 0.1396,48.0016 -3.0274,71.8246 -13.3115,100.1226 -61.6718,197.9673 -150.7052,248.8726 -50.4472,-27.0608 -82.9016,-66.9645 -111.8214,-119.4956 -23.8778,-43.3738 -36.1421,-87.807 -40.8442,-133.9364 -2.1374,-20.9668 -3.1596,-43.7772 -2.7644,-66.6435 z" />
      <path
         inkscape:connector-curvature="0"
         id="path3654"
         style="fill:#ffffff;fill-rule:evenodd"
         d="m 440.6316,312.8221 c -58.0328,-12.515 -104.7984,-45.0128 -142.0637,-91.2849 -37.422,46.7248 -82.5675,77.9001 -140.6226,91.2849 l 282.6863,0 z m -292.9546,2.1537 c -0.3727,0.0707 -0.7438,0.144 -1.1174,0.2134 -0.2556,19.848 0.5194,39.8194 2.3789,59.5884 l 298.6902,0 c 2.0145,-19.5705 2.1594,-39.2012 2.0167,-58.882 l -301.9684,0 0,-0.9198 z m 55.2605,219.2151 c 10.9396,17.6167 22.8034,33.8392 36.3674,48.4622 l 0,-204.802 -36.3674,0 0,156.3398 z m 75.1642,82.1851 c 6.5686,4.533 13.4884,8.8021 20.8056,12.7938 6.7157,-3.899 13.1908,-8.0702 19.4314,-12.4887 l 0,-238.83 -40.237,0 0,238.5249 z m 79.0338,-33.3062 c 14.8149,-15.5455 27.765,-32.7507 38.9197,-51.1445 l 0,-154.0742 -38.9197,0 0,205.2187 z" />
      <g
         id="g3656">
        <path
           inkscape:connector-curvature="0"
           id="path3658"
           style="fill:#003d8f;fill-rule:evenodd"
           d="m 122.5504,571.9313 5.9209,18.3423 19.2741,-0.0371 -15.6149,11.2991 5.9913,18.3193 -15.5714,-11.359 -15.5713,11.359 5.9913,-18.3193 -15.6149,-11.2991 19.2741,0.0371 5.9208,-18.3423 z" />
        <path
           inkscape:connector-curvature="0"
           id="path3660"
           style="fill:#003d8f;fill-rule:evenodd"
           d="m 473.8117,571.9313 5.9208,18.3423 19.2742,-0.0371 -15.6149,11.2991 5.9913,18.3193 -15.5714,-11.359 -15.5713,11.359 5.9913,-18.3193 -15.6149,-11.2991 19.2741,0.0371 5.9208,-18.3423 z" />
      </g>
      <g
         id="g3662">
        <path
           inkscape:connector-curvature="0"
           id="path3664"
           style="fill:#003d8f;fill-rule:evenodd"
           d="m 264.0635,660.2788 0,19.2812 c 0,0.8294 0.0299,1.3286 0.1019,1.4968 0.1076,0.2946 0.2928,0.4988 0.562,0.6252 0.2692,0.1199 0.7658,0.1862 1.4893,0.1862 l 2.4694,0 0,3.3958 -15.0998,0 0,-3.3958 2.4878,0 c 0.8729,0 1.4353,-0.0602 1.6803,-0.1682 0.2455,-0.1141 0.4308,-0.2946 0.5506,-0.5471 0.1252,-0.2524 0.1849,-0.7815 0.1849,-1.5929 l 0,-13.7515 -4.9036,0 0,-3.4199 c 1.3997,-0.1383 2.4755,-0.2885 3.2237,-0.4387 1.1179,-0.2226 2.3078,-0.5291 3.5701,-0.9137 0.7056,-0.2103 1.3572,-0.4628 1.9614,-0.7574 l 1.722,0 z" />
        <path
           inkscape:connector-curvature="0"
           id="path3666"
           style="fill:#003d8f;fill-rule:evenodd"
           d="m 275.9405,685.6847 0,-3.4319 c 2.2424,-0.0961 4.0308,-0.3064 5.3581,-0.6432 1.3335,-0.3363 2.4461,-0.7934 3.3431,-1.3822 0.8909,-0.5893 1.6149,-1.2804 2.1585,-2.0856 0.5506,-0.8053 0.9396,-1.7309 1.1605,-2.7711 -1.0283,0.7276 -2.0035,1.2382 -2.93,1.539 -0.9211,0.3003 -1.9139,0.4505 -2.9782,0.4505 -1.7049,0 -3.2294,-0.3605 -4.5813,-1.0696 -1.3454,-0.7091 -2.3737,-1.6588 -3.0736,-2.8492 -0.6994,-1.196 -1.0524,-2.5782 -1.0524,-4.165 0,-2.6204 0.9207,-4.7724 2.7508,-6.461 1.8358,-1.6949 4.324,-2.5366 7.4634,-2.5366 3.2351,0 5.7646,0.8654 7.5886,2.6024 2.1352,2.0316 3.2057,4.8263 3.2057,8.3846 0,2.3921 -0.3588,4.4356 -1.0885,6.1247 -0.7236,1.6948 -1.8542,3.1855 -3.3849,4.4838 -1.5367,1.298 -3.3431,2.2538 -5.4182,2.8729 -2.0689,0.613 -4.9154,0.9256 -8.5216,0.9375 z m 7.6905,-12.3394 c 0.8553,0 1.6087,-0.1923 2.2608,-0.5647 0.6516,-0.3789 1.1596,-0.9198 1.5244,-1.6408 0.3592,-0.7153 0.5445,-1.5328 0.5445,-2.4465 0,-1.3401 -0.4004,-2.4281 -1.2018,-3.2755 -0.8017,-0.8413 -1.8059,-1.2681 -3.0204,-1.2681 -1.2377,0 -2.2665,0.4268 -3.0735,1.2681 -0.8136,0.8474 -1.2202,1.9534 -1.2202,3.3299 0,1.3822 0.3947,2.494 1.1842,3.3357 0.7833,0.8413 1.7884,1.2619 3.002,1.2619 z" />
        <path
           inkscape:connector-curvature="0"
           id="path3668"
           style="fill:#003d8f;fill-rule:evenodd"
           d="m 301.1172,670.4364 -3.5398,0.3188 c -0.1261,-0.6134 -0.1915,-1.1904 -0.1915,-1.7432 0,-1.6891 0.3943,-3.1613 1.1899,-4.4118 0.7952,-1.2501 2.0211,-2.2836 3.6716,-3.1012 1.6509,-0.8114 3.4867,-1.2202 5.5082,-1.2202 1.8595,0 3.5398,0.3548 5.041,1.0639 1.5012,0.7091 2.6314,1.629 3.391,2.7587 0.753,1.124 1.1364,2.3082 1.1364,3.5521 0,1.2562 -0.2692,2.4343 -0.8075,3.5223 -0.5923,1.2202 -1.5671,2.404 -2.9181,3.5398 -1.3458,1.1421 -4.0672,2.9634 -8.1515,5.4758 l 5.885,0 c 0.9567,0 1.5666,-0.0483 1.8239,-0.1502 0.2569,-0.0962 0.4782,-0.2946 0.6634,-0.5892 0.1853,-0.2947 0.3469,-0.7996 0.4725,-1.5144 l 0.1436,-0.8114 3.3967,0 -1.597,9.0032 -2.3082,0 -0.2151,-0.8654 -16.1343,0 0,-3.3958 c 2.3736,-1.5508 5.3817,-3.8406 9.0239,-6.8698 1.866,-1.5508 3.1095,-2.8852 3.7317,-4.0149 0.4544,-0.8237 0.6814,-1.683 0.6814,-2.5906 0,-1.0397 -0.4307,-1.9231 -1.2856,-2.6507 -0.861,-0.7209 -2.0092,-1.0818 -3.4446,-1.0818 -1.0586,0 -1.9855,0.1984 -2.7692,0.5892 -0.7833,0.3965 -1.3932,0.9554 -1.8358,1.683 -0.4421,0.7271 -0.6696,1.4963 -0.6696,2.3078 0,0.2946 0.036,0.6911 0.1076,1.196 z" />
        <path
           inkscape:connector-curvature="0"
           id="path3670"
           style="fill:#003d8f;fill-rule:evenodd"
           d="m 336.228,671.6144 c 1.8116,0.7214 3.2052,1.6949 4.1861,2.9269 0.7715,0.9498 1.1596,2.1278 1.1596,3.5403 0,2.1458 -0.843,3.9126 -2.5234,5.301 -1.8836,1.5328 -4.4074,2.3021 -7.571,2.3021 -2.1106,0 -3.9407,-0.3184 -5.484,-0.9678 -1.5425,-0.6428 -2.6911,-1.4722 -3.4503,-2.4882 -0.7596,-1.0156 -1.1363,-2.0676 -1.1363,-3.1434 0,-1.1297 0.4127,-2.2059 1.25,-3.2215 0.8369,-1.0217 2.141,-1.8933 3.917,-2.6085 -1.4832,-0.667 -2.5958,-1.5328 -3.3369,-2.5906 -0.7421,-1.0577 -1.1122,-2.2178 -1.1122,-3.4858 0,-1.2562 0.3468,-2.3921 1.0406,-3.4138 0.6933,-1.0218 1.7756,-1.8573 3.2408,-2.5124 1.4656,-0.6494 3.1517,-0.9739 5.0538,-0.9739 2.4096,0 4.4667,0.5229 6.1835,1.575 1.7221,1.0516 2.5774,2.4821 2.5774,4.2854 0,1.0577 -0.2933,2.0254 -0.8733,2.897 -0.5858,0.8773 -1.6264,1.737 -3.1214,2.5782 z m -3.3252,-1.4963 0.6459,-0.7214 c 0.4185,-0.4448 0.6999,-0.7873 0.843,-1.0398 0.209,-0.3367 0.3592,-0.6494 0.4426,-0.9378 0.0896,-0.2885 0.1313,-0.577 0.1313,-0.8716 0,-0.6371 -0.3289,-1.196 -0.9862,-1.6825 -0.6643,-0.487 -1.5789,-0.7333 -2.7631,-0.7333 -1.1306,0 -2.0096,0.2283 -2.6371,0.6788 -0.6221,0.4509 -0.9334,0.98 -0.9334,1.575 0,0.5291 0.1857,0.9796 0.5563,1.3585 0.5023,0.5045 1.4235,1.0336 2.7508,1.5864 l 1.9499,0.7877 z m -2.9304,4.7719 c -1.1187,0.5892 -1.9438,1.2202 -2.4759,1.8933 -0.5322,0.6792 -0.8013,1.3282 -0.8013,1.9473 0,0.493 0.1853,0.9857 0.5444,1.4726 0.3649,0.487 0.9146,0.8777 1.6505,1.1781 0.7355,0.3007 1.5969,0.4509 2.5892,0.4509 0.9809,0 1.8481,-0.1383 2.5959,-0.4149 0.7473,-0.2762 1.2794,-0.6191 1.5903,-1.0218 0.317,-0.4026 0.4724,-0.8412 0.4724,-1.3102 0,-0.5888 -0.1971,-1.0757 -0.5918,-1.4603 -0.5743,-0.5651 -1.5609,-1.1302 -2.9603,-1.6949 l -2.6134,-1.0401 z" />
      </g>
      <g
         id="g3672">
        <path
           inkscape:connector-curvature="0"
           id="path3674"
           style="fill:#003d8f;fill-rule:evenodd"
           d="m 60.2174,533.8801 -2.5998,-5.8393 16.6085,-16.764 c 0.8826,-0.8966 1.3774,-1.5675 1.4788,-2.0087 0.1006,-0.4422 -0.0478,-1.1008 -0.4514,-1.9741 l 3.5974,-1.6018 5.4806,12.3091 -3.5978,1.6017 -0.3509,-0.7367 c -0.3034,-0.681 -0.6142,-1.1227 -0.9146,-1.3168 -0.3003,-0.1945 -0.5826,-0.2288 -0.8439,-0.1124 -0.2226,0.0988 -0.63,0.4175 -1.2228,0.9717 l -2.0285,1.8186 3.5297,7.9275 3.0604,-0.2028 c 0.6485,-0.0523 1.063,-0.1146 1.2351,-0.1914 0.1976,-0.0879 0.3508,-0.2402 0.4448,-0.4576 0.1032,-0.2134 0.1133,-0.5001 0.0448,-0.8588 -0.0426,-0.2331 -0.278,-0.8299 -0.703,-1.7853 l 3.5974,-1.6017 4.4851,10.0737 -3.5973,1.6017 c -0.2867,-0.6432 -0.5563,-1.095 -0.8044,-1.3431 -0.2389,-0.245 -0.5216,-0.4167 -0.829,-0.5084 -0.3109,-0.0984 -0.8184,-0.1243 -1.5346,-0.0874 l -24.0846,1.0863 z m 14.3661,-5.4349 -2.3161,-5.2022 -6.0356,5.7238 8.3517,-0.5216 z" />
        <path
           inkscape:connector-curvature="0"
           id="path3676"
           style="fill:#003d8f;fill-rule:evenodd"
           d="m 46.3276,499.6 c -1.3857,-4.533 -1.1034,-8.4965 0.843,-11.9051 1.946,-3.4085 4.8791,-5.7119 8.7987,-6.9106 4.1124,-1.2571 7.8937,-0.977 11.3427,0.8399 3.4406,1.8125 5.859,5.002 7.2509,9.5548 0.8601,2.8131 1.0744,5.4226 0.6459,7.8349 -0.4308,2.4057 -1.4982,4.6125 -3.1974,6.6116 -1.7062,2.0013 -4.0443,3.4599 -7.0239,4.3706 -4.1528,1.2698 -7.9679,0.9488 -11.4441,-0.9546 -3.4687,-1.906 -5.8748,-5.0555 -7.2158,-9.4415 z m 4.3188,-1.2983 c 0.6178,2.0197 2.0215,3.4415 4.2011,4.2766 2.1866,0.8334 4.8162,0.7802 7.8889,-0.1594 2.8465,-0.8702 4.9742,-2.2064 6.3802,-3.9987 1.3962,-1.7975 1.7633,-3.7901 1.0911,-5.9898 -0.6766,-2.213 -2.1063,-3.6712 -4.2959,-4.3719 -2.1809,-0.6964 -4.6986,-0.6121 -7.5315,0.2542 -3.2935,1.0068 -5.5623,2.4298 -6.7943,4.2643 -1.2303,1.8411 -1.5447,3.7449 -0.9396,5.7247 z m 7.1587,3.7225 -0.8479,-2.7732 0.8066,-0.2464 c 0.5598,-0.1712 0.8878,-0.4101 0.9967,-0.7205 0.1028,-0.3082 0.0536,-0.8031 -0.1523,-1.4762 l -0.4791,-1.5666 c -0.2301,-0.7534 -0.472,-1.2114 -0.7174,-1.3699 -0.2516,-0.1563 -0.6507,-0.1506 -1.211,0.0206 l -0.8066,0.2464 -0.8478,-2.7728 8.1655,-2.4966 0.8478,2.7728 -0.6063,0.1857 c -0.5735,0.1752 -0.9414,0.4263 -1.1034,0.7526 -0.1629,0.3266 -0.1401,0.8303 0.0654,1.5034 l 0.479,1.5666 c 0.2182,0.7131 0.4716,1.1605 0.7561,1.3286 0.2845,0.1678 0.739,0.1528 1.366,-0.0386 l 0.6063,-0.1857 0.8479,2.7732 -8.1655,2.4966 z" />
        <path
           inkscape:connector-curvature="0"
           id="path3678"
           style="fill:#003d8f;fill-rule:evenodd"
           d="m 46.4185,466.2179 15.4581,3.0916 c 0.6262,0.1198 1.0428,0.1668 1.2426,0.1352 0.4062,-0.0646 0.6529,-0.2872 0.7403,-0.6749 0.0935,-0.3886 0.0483,-1.1653 -0.137,-2.3354 l 3.8894,-0.616 1.7185,10.85 -3.8893,0.616 c -0.1572,-0.9914 -0.4022,-1.6443 -0.7329,-1.9517 -0.338,-0.3065 -0.9413,-0.5497 -1.8256,-0.7412 l -23.5451,-5.1846 -0.9932,-6.2713 20.3749,-11.9354 c 1.0709,-0.6358 1.7159,-1.1544 1.9298,-1.5412 0.2129,-0.3934 0.2459,-1.0762 0.0935,-2.0404 l 3.8893,-0.616 2.1081,13.3084 -3.8898,0.616 -0.1484,-0.8026 c -0.2104,-1.3286 -0.6538,-1.9429 -1.3282,-1.8358 -0.2824,0.0448 -0.7588,0.2468 -1.4332,0.6222 l -13.5218,7.3071 z" />
        <path
           inkscape:connector-curvature="0"
           id="path3680"
           style="fill:#003d8f;fill-rule:evenodd"
           d="m 35.0012,446.3607 0,-13.906 3.9451,0 0,1.2895 c 0,0.7039 0.0698,1.1851 0.209,1.4499 0.1467,0.2577 0.3486,0.4391 0.6134,0.5506 0.2652,0.1045 0.8435,0.1602 1.7286,0.1602 l 4.9629,0 0,-10.3718 -5.3321,0 c -0.6551,0 -1.0942,0.0417 -1.3243,0.1185 -0.3275,0.1116 -0.5576,0.2929 -0.6762,0.5577 -0.1255,0.2577 -0.1813,0.8294 -0.1813,1.7145 l 0,1.0806 -3.9451,0 0,-13.9477 3.9451,0 0,1.164 c 0,0.7877 0.0628,1.3106 0.1884,1.5684 0.1321,0.2647 0.3205,0.4391 0.5712,0.5436 0.2582,0.1045 0.8505,0.1536 1.7914,0.1536 l 15.4393,0 c 0.948,0 1.5684,-0.0628 1.8472,-0.1954 0.2788,-0.1255 0.4742,-0.3275 0.5927,-0.5923 0.1116,-0.2652 0.1743,-0.8715 0.1743,-1.8265 l 0,-0.8154 3.9381,0 0,13.9477 -3.9381,0 0,-0.9203 c 0,-0.8571 -0.0698,-1.4358 -0.2094,-1.7422 -0.1322,-0.307 -0.3346,-0.523 -0.5923,-0.6345 -0.2577,-0.1186 -0.8645,-0.1743 -1.8125,-0.1743 l -6.029,0 0,10.3718 6.029,0 c 0.948,0 1.5407,-0.0417 1.7708,-0.1185 0.3416,-0.1392 0.5646,-0.3482 0.6762,-0.634 0.1115,-0.2859 0.1672,-0.8646 0.1672,-1.7357 l 0,-0.962 3.9381,0 0,13.906 -3.9381,0 0,-0.941 c 0,-0.7877 -0.0698,-1.3383 -0.2094,-1.6522 -0.1322,-0.3135 -0.3275,-0.5295 -0.5712,-0.6411 -0.2442,-0.1185 -0.7807,-0.1743 -1.6106,-0.1743 l -15.4809,0 c -0.9691,0 -1.5961,0.0558 -1.8889,0.1743 -0.2929,0.1116 -0.5089,0.2925 -0.6415,0.5366 -0.1392,0.2511 -0.202,0.7249 -0.202,1.4287 l 0,1.269 -3.9451,0 z" />
        <path
           inkscape:connector-curvature="0"
           id="path3682"
           style="fill:#003d8f;fill-rule:evenodd"
           d="m 34.0374,408.684 0.2345,-2.6802 0.9835,-0.2011 1.4007,-16.0122 -0.9278,-0.4312 0.2367,-2.7078 10.2581,-2.6432 0.9879,3.8999 c -1.726,0.6959 -2.8553,1.2057 -3.3866,1.5227 -1.0564,0.6353 -1.9064,1.3936 -2.5576,2.2814 -0.4988,0.663 -0.7754,1.3454 -0.8355,2.0329 -0.0286,0.3263 0.0276,0.5621 0.1769,0.6942 0.1418,0.1383 0.4913,0.2253 1.0468,0.2736 l 16.3178,1.4278 c 0.9655,0.0844 1.5719,0.1094 1.8209,0.0611 0.2494,-0.0479 0.454,-0.1489 0.6068,-0.2964 0.1598,-0.1475 0.27,-0.3684 0.3438,-0.649 0.0733,-0.2805 0.1677,-1.0353 0.2757,-2.2709 l 3.9231,0.3434 -1.21,13.8322 -3.9232,-0.3433 0.0729,-0.8334 c 0.0808,-0.9238 0.0694,-1.5122 -0.0189,-1.7857 -0.0957,-0.2674 -0.2801,-0.4795 -0.5594,-0.6441 -0.2801,-0.1572 -0.8852,-0.2802 -1.8019,-0.3605 l -16.6858,-1.4595 c -0.4725,-0.0413 -0.7754,-0.0119 -0.9102,0.0882 -0.1274,0.0936 -0.2099,0.3175 -0.2411,0.6714 -0.0619,0.7087 0.1335,1.5161 0.5853,2.4303 0.4518,0.9141 1.1346,1.7501 2.0334,2.5146 0.3578,0.3042 1.3699,0.9738 3.0423,2.0087 l -1.6448,3.6066 -9.6443,-4.3705 z" />
        <path
           inkscape:connector-curvature="0"
           id="path3684"
           style="fill:#003d8f;fill-rule:evenodd"
           d="m 38.1915,379.6017 2.411,-13.6742 3.8854,0.6854 -0.2191,1.2422 c -0.1287,0.7275 -0.1515,1.2189 -0.0689,1.4744 0.0891,0.256 0.2581,0.4628 0.5124,0.6279 0.2537,0.1651 0.7723,0.3135 1.5481,0.45 l 15.5275,2.7381 c 0.8444,0.1489 1.395,0.1963 1.6523,0.1427 0.256,-0.047 0.4637,-0.1804 0.6064,-0.389 0.2142,-0.252 0.3705,-0.6564 0.4702,-1.2193 l 0.2626,-1.4894 3.8779,0.6841 -2.411,13.6737 -3.8783,-0.6836 0.1949,-1.1052 c 0.1392,-0.7894 0.1695,-1.322 0.1019,-1.5819 -0.0742,-0.2609 -0.2213,-0.4707 -0.4492,-0.624 -0.2336,-0.1616 -0.7113,-0.3025 -1.452,-0.4329 L 45.1808,377.373 c -0.8716,-0.1537 -1.4578,-0.2003 -1.7528,-0.1322 -0.2942,0.0615 -0.5405,0.216 -0.7324,0.458 -0.1427,0.1664 -0.2714,0.6173 -0.3987,1.3383 l -0.2204,1.2496 -3.885,-0.685 z" />
        <path
           inkscape:connector-curvature="0"
           id="path3686"
           style="fill:#003d8f;fill-rule:evenodd"
           d="m 41.2936,360.2477 4.0597,-13.2782 3.7726,1.1535 -0.2688,0.8799 c -0.259,0.8461 -0.378,1.3787 -0.3438,1.6004 0.051,0.3583 0.1814,0.6459 0.4009,0.8584 0.2169,0.22 0.6832,0.4356 1.4033,0.6556 l 7.2391,2.2129 -5.2698,-10.897 c -0.2367,-0.4878 -0.4071,-0.7877 -0.5028,-0.9045 -0.1045,-0.1119 -0.1989,-0.1848 -0.2854,-0.2112 -0.187,-0.0571 -0.3425,-0.0246 -0.4803,0.094 -0.1405,0.1242 -0.2968,0.4922 -0.4843,1.1051 l -0.3342,1.0938 -3.7725,-1.1535 3.7681,-12.3253 3.7726,1.1535 -0.1265,0.4131 c -0.1752,0.5735 -0.2687,0.9748 -0.2761,1.2132 -0.0158,0.2428 0.036,0.5506 0.1312,0.9295 0.0958,0.3789 0.2894,0.89 0.5744,1.5311 l 3.6943,8.3236 13.0042,-4.6033 c 1.1144,-0.4027 1.805,-0.7311 2.0742,-0.9915 0.3618,-0.3481 0.663,-0.9049 0.9036,-1.6913 l 0.1611,-0.5264 3.766,1.1512 -4.2042,13.7515 -3.7659,-1.1513 0.1668,-0.5466 c 0.3078,-1.0068 0.4461,-1.6277 0.4185,-1.8696 -0.0281,-0.242 -0.1089,-0.3833 -0.2556,-0.4281 -0.1532,-0.0466 -0.5875,0.039 -1.2966,0.2599 l -8.2757,2.703 2.2674,5.2197 2.753,0.8417 c 0.6797,0.2081 1.1666,0.2841 1.4652,0.2367 0.3008,-0.0536 0.5427,-0.177 0.7315,-0.3886 0.18,-0.2077 0.3868,-0.6692 0.6108,-1.4024 l 0.3407,-1.1131 3.766,1.1513 -4.0597,13.2785 -3.766,-1.1517 0.3038,-0.9932 c 0.2341,-0.7661 0.3245,-1.3005 0.2859,-1.6035 -0.0474,-0.299 -0.1901,-0.5462 -0.429,-0.7433 -0.1875,-0.1739 -0.7043,-0.3904 -1.5508,-0.649 l -14.8781,-4.5488 c -0.8066,-0.2463 -1.3647,-0.3513 -1.6725,-0.3218 -0.31,0.0364 -0.5739,0.1598 -0.7934,0.3771 -0.2125,0.2191 -0.4241,0.6718 -0.6301,1.3453 l -0.3402,1.1131 -3.7726,-1.1534 z" />
        <path
           inkscape:connector-curvature="0"
           id="path3688"
           style="fill:#003d8f;fill-rule:evenodd"
           d="m 57.7173,312.437 c 1.9086,-4.0939 4.6994,-6.8298 8.3793,-8.2059 3.6698,-1.373 7.4652,-1.149 11.3756,0.6745 2.6279,1.2254 4.6876,2.8935 6.18,5.0046 1.5016,2.1075 2.3201,4.4425 2.4738,6.9988 0.1541,2.5559 -0.4453,5.276 -1.7915,8.1625 -1.7791,3.816 -4.2827,6.4478 -7.5148,7.9016 -3.8963,1.7594 -7.9595,1.6492 -12.1922,-0.3245 -3.9355,-1.8353 -6.5563,-4.6265 -7.8657,-8.367 -1.3023,-3.7379 -0.9831,-7.6878 0.9555,-11.8446 z m 4.1409,1.8389 c -0.9159,1.9644 -0.9106,3.8665 0.0224,5.7093 1.1701,2.3223 3.2197,4.1625 6.1444,5.5262 2.9186,1.3607 5.5522,1.766 7.885,1.2 2.0074,-0.4944 3.4551,-1.7032 4.3508,-3.6237 0.9045,-1.9398 0.8996,-3.8261 -0.0176,-5.6689 -1.0981,-2.1809 -3.1047,-3.9473 -6.0167,-5.3054 -2.0535,-0.9576 -3.9073,-1.4678 -5.5771,-1.5315 -1.6641,-0.0606 -3.0744,0.2433 -4.2375,0.9234 -1.1544,0.6771 -2.0084,1.6018 -2.5537,2.7706 z" />
        <path
           inkscape:connector-curvature="0"
           id="path3690"
           style="fill:#003d8f;fill-rule:evenodd"
           d="m 84.0281,295.0026 -13.1355,0.62 -3.3088,-2.1488 10.8083,-16.6432 10.6506,1.7475 -0.6318,3.9029 c -3.499,-0.2941 -5.9214,-0.122 -7.2592,0.505 -1.3423,0.6331 -2.6073,1.8643 -3.7915,3.6882 l -1.6136,2.4848 10.8421,-0.5059 3.8099,11.1925 2.5247,-3.8875 c 1.4617,-2.2508 2.2336,-4.1678 2.3109,-5.7462 0.0777,-1.5785 -0.6134,-3.4073 -2.0764,-5.4797 l 3.0928,-2.4461 6.804,8.8733 -11.8485,18.2449 -3.3028,-2.1449 -3.8752,-12.2568 z" />
        <path
           inkscape:connector-curvature="0"
           id="path3692"
           style="fill:#003d8f;fill-rule:evenodd"
           d="m 117.5076,250.5237 -13.0124,-1.8977 -2.8378,-2.7402 13.7848,-14.2753 10.1221,3.7475 -1.3651,3.7111 c -3.3787,-0.9568 -5.7893,-1.2496 -7.2224,-0.8896 -1.4384,0.3653 -2.915,1.3326 -4.4255,2.8971 l -2.0579,2.1308 10.7394,1.5723 1.6044,11.7141 3.2197,-3.3343 c 1.8643,-1.9306 2.9875,-3.665 3.3651,-5.2 0.3772,-1.5346 0.0478,-3.4617 -0.9928,-5.7747 l 3.5026,-1.8117 4.9861,10.0088 -15.1121,15.6491 -2.833,-2.7359 -1.4652,-12.7714 z" />
        <path
           inkscape:connector-curvature="0"
           id="path3694"
           style="fill:#003d8f;fill-rule:evenodd"
           d="m 120.3125,226.3179 11.1503,-8.7118 2.4286,3.1087 -0.8347,0.6525 c -0.5937,0.4636 -0.9269,0.7947 -1.0068,0.9989 -0.0804,0.2134 -0.036,0.4175 0.1225,0.6208 0.2191,0.2802 0.7152,0.5647 1.4893,0.8527 l 6.7605,2.573 -0.6951,-7.6478 c -0.0522,-0.6665 -0.0856,-1.0384 -0.0913,-1.1135 -0.0505,-0.155 -0.119,-0.2876 -0.2134,-0.4084 -0.1414,-0.1813 -0.3047,-0.266 -0.4997,-0.2555 -0.1897,0.007 -0.5106,0.1958 -0.9611,0.5475 l -1.1425,0.8927 -2.429,-3.1087 8.948,-6.991 2.4285,3.1091 c -0.7758,0.6152 -1.2518,1.1377 -1.4375,1.5565 -0.1814,0.4251 -0.2327,1.1285 -0.1669,2.13 l 0.833,13.3954 3.1284,4.0043 c 0.5537,0.7087 0.9576,1.1355 1.2145,1.2716 0.2507,0.1396 0.5247,0.173 0.8316,0.1019 0.2968,-0.0725 0.7684,-0.3526 1.4112,-0.8545 l 0.7907,-0.6182 2.4246,3.1034 -10.9413,8.5484 -2.4246,-3.1034 0.5932,-0.4632 c 0.7745,-0.6051 1.2259,-1.0464 1.3629,-1.3129 0.1321,-0.2718 0.1585,-0.5664 0.0856,-0.8979 -0.0795,-0.3275 -0.3965,-0.8584 -0.9673,-1.589 l -2.742,-3.5095 -13.0726,-4.4259 c -1.0266,-0.3394 -1.7858,-0.4624 -2.2846,-0.3649 -0.3525,0.0808 -0.9009,0.4211 -1.6641,1.0173 l -2.4289,-3.1086 z" />
        <path
           inkscape:connector-curvature="0"
           id="path3696"
           style="fill:#003d8f;fill-rule:evenodd"
           d="m 161.1282,205.6 3.1942,15.4375 c 0.1348,0.6231 0.2543,1.0248 0.3614,1.1965 0.2178,0.3482 0.5194,0.4887 0.9102,0.4176 0.3943,-0.0659 1.0915,-0.411 2.0962,-1.0389 l 2.0869,3.3401 -9.3159,5.8213 -2.0869,-3.3397 c 0.8509,-0.5321 1.3563,-1.0125 1.5104,-1.4375 0.1497,-0.4307 0.1379,-1.0806 -0.0312,-1.9697 l -4.4276,-23.6992 5.3852,-3.365 18.9475,14.0917 c 1.0037,0.7376 1.733,1.1284 2.1726,1.1745 0.4452,0.0422 1.0867,-0.1941 1.9143,-0.7113 l 2.087,3.3396 -11.4266,7.1403 -2.0869,-3.3401 0.6806,-0.45 c 1.1411,-0.7126 1.5332,-1.3607 1.171,-1.9399 -0.1515,-0.2423 -0.5234,-0.6019 -1.1324,-1.0761 l -12.01,-9.5917 z" />
        <path
           inkscape:connector-curvature="0"
           id="path3698"
           style="fill:#003d8f;fill-rule:evenodd"
           d="m 188.4734,190.051 1.0147,15.7313 c 0.0466,0.6357 0.1089,1.0502 0.1914,1.2351 0.1669,0.3754 0.4461,0.5563 0.8431,0.54 0.3995,-0.0101 1.1381,-0.2546 2.2204,-0.7363 l 1.6017,3.5974 -10.0355,4.468 -1.6017,-3.5973 c 0.9167,-0.4084 1.484,-0.8137 1.6957,-1.2132 0.2081,-0.4057 0.2871,-1.0512 0.2432,-1.9548 l -1.0863,-24.0847 5.8011,-2.583 16.8022,16.5918 c 0.8908,0.8702 1.5587,1.3585 1.9881,1.4652 0.4347,0.1036 1.103,-0.0409 1.9947,-0.4378 l 1.6018,3.5974 -12.3091,5.4805 -1.6017,-3.5978 0.7367,-0.3508 c 1.229,-0.5475 1.7072,-1.1341 1.4292,-1.7585 -0.1159,-0.2612 -0.4347,-0.6687 -0.9717,-1.2228 l -10.558,-11.1697 z" />
        <path
           inkscape:connector-curvature="0"
           id="path3700"
           style="fill:#003d8f;fill-rule:evenodd"
           d="m 217.8472,170.1398 c 4.3196,-1.3203 8.2204,-1.0775 11.7049,0.7363 3.4762,1.809 5.8494,4.7789 7.1108,8.9054 0.8479,2.7727 0.9862,5.4199 0.4158,7.9411 -0.5615,2.526 -1.7488,4.6968 -3.5455,6.5216 -1.7963,1.8248 -4.2191,3.1996 -7.265,4.1308 -4.0263,1.2308 -7.657,1.1311 -10.9,-0.2977 -3.9148,-1.7185 -6.5519,-4.8118 -7.917,-9.2777 -1.2698,-4.1527 -0.9489,-7.9679 0.9545,-11.444 1.9061,-3.4687 5.0556,-5.8749 9.4415,-7.2158 z m 1.4046,4.3082 c -2.0733,0.6336 -3.4832,1.9104 -4.2279,3.8366 -0.9427,2.4237 -0.9392,5.1776 0.004,8.2639 0.9414,3.0797 2.4026,5.308 4.3842,6.663 1.7106,1.1605 3.578,1.4279 5.6044,0.8083 2.0465,-0.6257 3.445,-1.8915 4.2011,-3.8059 0.8856,-2.2757 0.8562,-4.9488 -0.0835,-8.0215 -0.6625,-2.1668 -1.5236,-3.8858 -2.5936,-5.1697 -1.0683,-1.2768 -2.238,-2.122 -3.5218,-2.5308 -1.2755,-0.4048 -2.5344,-0.4211 -3.7673,-0.0439 z" />
        <path
           inkscape:connector-curvature="0"
           id="path3702"
           style="fill:#003d8f;fill-rule:evenodd"
           d="m 237.4673,164.7642 23.2557,-3.6835 4.6094,8.4725 -3.448,1.8445 c -0.9445,-1.4169 -1.8823,-2.4825 -2.8127,-3.189 -0.9309,-0.7065 -1.8868,-1.1267 -2.8677,-1.2606 -0.9738,-0.1348 -2.4078,-0.0562 -4.2875,0.2415 l -3.4701,0.5493 2.7667,17.466 c 0.158,0.9985 0.4136,1.5864 0.7657,1.7634 0.346,0.1782 0.984,0.1971 1.8999,0.0522 l 1.1499,-0.1822 0.6161,3.8893 -13.7212,2.1735 -0.616,-3.8898 0.9084,-0.1436 c 0.9985,-0.1585 1.6317,-0.393 1.9162,-0.692 0.2845,-0.299 0.3657,-0.8553 0.2349,-1.6812 l -2.5612,-16.1721 c -0.1475,-0.9295 -0.3872,-1.5056 -0.7187,-1.7282 -0.3315,-0.2226 -1.027,-0.2467 -2.0944,-0.0777 l -0.9085,0.144 -0.6169,-3.8963 z" />
        <path
           inkscape:connector-curvature="0"
           id="path3704"
           style="fill:#003d8f;fill-rule:evenodd"
           d="m 282.9513,158.0573 c 4.5058,-0.3149 8.252,0.7995 11.2395,3.3506 2.98,2.5444 4.6239,5.9723 4.9251,10.2765 0.202,2.8927 -0.2582,5.5026 -1.3814,7.8314 -1.1152,2.335 -2.7604,4.1827 -4.9216,5.5565 -2.1607,1.3739 -4.8307,2.1686 -8.0078,2.3908 -4.1998,0.2937 -7.7155,-0.6204 -10.5541,-2.742 -3.4279,-2.555 -5.301,-6.1625 -5.6268,-10.8211 -0.303,-4.3319 0.8676,-7.9771 3.5047,-10.9356 2.6371,-2.9515 6.2472,-4.5871 10.8224,-4.9071 z m 0.3991,4.5137 c -2.1625,0.151 -3.823,1.0779 -4.9822,2.7872 -1.4639,2.1493 -2.0799,4.8338 -1.8547,8.0531 0.2244,3.2123 1.1473,5.7124 2.7728,7.4784 1.4059,1.5157 3.1653,2.1958 5.279,2.0483 2.1348,-0.1493 3.7822,-1.0679 4.9493,-2.7636 1.3752,-2.018 1.9477,-4.6292 1.7234,-7.8344 -0.1581,-2.2604 -0.6103,-4.1291 -1.3642,-5.6202 -0.7535,-1.485 -1.7032,-2.5712 -2.8624,-3.2588 -1.1512,-0.6815 -2.3745,-0.98 -3.661,-0.89 z" />
        <path
           inkscape:connector-curvature="0"
           id="path3706"
           style="fill:#003d8f;fill-rule:evenodd"
           d="m 310.9121,173.2752 -6.9106,-11.1881 0.2749,-3.9354 19.7962,1.3844 3.6355,10.1624 -3.7198,1.3396 c -1.4393,-3.203 -2.7645,-5.2382 -3.9614,-6.1045 -1.2044,-0.8667 -2.8944,-1.376 -5.0639,-1.5279 l -2.9549,-0.2064 5.6987,9.2373 -7.9424,8.7587 4.6239,0.3231 c 2.677,0.1875 4.728,-0.0671 6.1466,-0.7644 1.4182,-0.6977 2.6823,-2.1883 3.7853,-4.4729 l 3.6391,1.5192 -4.4619,10.2529 -21.7018,-1.5174 0.2748,-3.9284 8.8417,-9.3322 z" />
        <path
           inkscape:connector-curvature="0"
           id="path3708"
           style="fill:#003d8f;fill-rule:evenodd"
           d="m 362.991,177.2906 2.3275,1.5763 -3.9126,5.9297 0.429,7.0709 -2.8039,0.2015 -1.9276,-8.4254 5.8876,-6.353 z m 7.2584,1.9446 2.3473,1.5816 -3.9333,5.9245 0.4496,7.0766 -2.8237,0.1962 -1.9073,-8.4201 5.8674,-6.3588 z" />
        <path
           inkscape:connector-curvature="0"
           id="path3710"
           style="fill:#003d8f;fill-rule:evenodd"
           d="m 379.2667,171.1145 22.3358,8.1295 -0.0276,9.5732 -3.9315,-0.0211 c -0.0883,-1.5899 -0.3711,-2.9541 -0.8492,-4.0851 -0.4786,-1.1311 -1.1451,-2.0114 -1.9947,-2.6323 -0.8558,-0.6226 -1.9127,-1.1635 -3.1768,-1.6237 l -4.0873,-1.4876 -2.4316,6.6814 1.3422,0.4887 c 1.009,0.3671 1.7164,0.5427 2.1247,0.5208 0.4,-0.0176 0.739,-0.1537 1.0037,-0.4136 0.2718,-0.2569 0.5704,-0.8527 0.9116,-1.7897 l 0.3692,-1.0152 3.4191,1.2444 -4.1198,11.3181 -3.4187,-1.2444 0.4171,-1.146 c 0.2863,-0.7859 0.3992,-1.3826 0.3469,-1.8094 -0.0522,-0.4272 -0.2195,-0.7627 -0.4953,-1.0037 -0.2731,-0.2481 -0.9563,-0.5713 -2.057,-0.9717 l -1.2049,-0.4386 -2.2366,6.1439 c -0.2358,0.6486 -0.3552,1.0578 -0.3399,1.2189 0.0132,0.1682 0.0997,0.3184 0.2543,0.4637 0.1611,0.1475 0.5466,0.3324 1.1556,0.5541 l 2.2468,0.8176 c 1.6768,0.6103 3.1798,0.8829 4.5066,0.8246 1.3203,-0.0611 2.6323,-0.4663 3.9249,-1.2049 1.2923,-0.7389 2.4492,-1.7567 3.4679,-3.0472 l 3.0722,2.483 -7.1297,8.6648 -23.1411,-8.4229 1.3466,-3.7005 0.6687,0.2433 c 0.8971,0.3266 1.5236,0.4803 1.8727,0.4588 0.353,-0.0123 0.6569,-0.1541 0.8983,-0.4294 0.137,-0.1726 0.3676,-0.7047 0.6916,-1.5956 l 5.3093,-14.5862 c 0.2885,-0.7929 0.4176,-1.3317 0.4013,-1.6122 -0.0232,-0.2828 -0.1269,-0.5287 -0.3108,-0.7359 -0.1862,-0.2016 -0.6169,-0.4251 -1.298,-0.6731 l -1.1859,-0.4317 1.3493,-3.7071 z" />
        <path
           inkscape:connector-curvature="0"
           id="path3712"
           style="fill:#003d8f;fill-rule:evenodd"
           d="m 407.7917,186.657 1.791,-3.5153 14.4334,7.3545 c 2.2046,1.1232 3.8046,2.267 4.8092,3.4279 0.998,1.1583 1.5903,2.3908 1.7765,3.6984 0.1932,1.3106 -0.0128,2.5435 -0.5985,3.6926 -0.4272,0.8382 -1.0064,1.5447 -1.7488,2.1128 -0.7434,0.5678 -1.5974,0.9695 -2.5625,1.2057 -0.9651,0.2354 -2.1001,0.2516 -3.3923,0.0707 1.0314,0.9089 1.7765,1.7028 2.2173,2.3895 0.6534,0.9738 1.0099,2.0553 1.0789,3.2404 0.0654,1.1912 -0.1862,2.3459 -0.7623,3.4761 -0.6867,1.348 -1.7264,2.375 -3.1192,3.0968 -1.3861,0.7254 -2.9752,1.0033 -4.7662,0.8338 -1.7879,-0.1602 -4.1141,-0.9699 -6.9769,-2.4285 l -13.322,-6.7877 1.7879,-3.5091 1.0064,0.5129 c 0.6647,0.3385 1.1495,0.5071 1.4428,0.5159 0.2959,0.002 0.5458,-0.0738 0.7468,-0.2376 0.2099,-0.1668 0.5002,-0.6133 0.8769,-1.3523 l 7.2149,-14.1602 c 0.3829,-0.7517 0.5769,-1.2554 0.5818,-1.5105 0.0114,-0.2524 -0.0712,-0.5058 -0.2468,-0.7442 -0.173,-0.2446 -0.5976,-0.5313 -1.2623,-0.8698 l -1.006,-0.5128 z m 5.8573,11.5038 2.7824,1.4177 c 1.4534,0.7408 2.588,1.1697 3.413,1.2852 0.8189,0.1124 1.5337,0.0145 2.1313,-0.2986 0.6072,-0.3165 1.0691,-0.7929 1.3949,-1.4327 0.3421,-0.6709 0.4654,-1.3273 0.3767,-1.9675 -0.0952,-0.6428 -0.4083,-1.225 -0.9343,-1.7435 -0.5291,-0.5274 -1.6088,-1.2031 -3.2299,-2.029 l -2.782,-1.4173 -3.1521,6.1857 z m -1.9021,3.7326 -2.8004,5.4963 c -0.3895,0.7798 -0.5892,1.2487 -0.6059,1.4046 -0.0264,0.2055 0.0127,0.3741 0.1207,0.5155 0.105,0.1313 0.465,0.3618 1.0859,0.6784 l 1.8507,0.9431 c 1.0805,0.5506 2.0254,0.9067 2.8443,1.0656 0.8092,0.1621 1.6237,0.0527 2.44,-0.3214 0.8197,-0.3806 1.4542,-1.0112 1.9064,-1.8994 0.3833,-0.7517 0.5322,-1.474 0.4439,-2.1756 -0.0816,-0.699 -0.407,-1.3656 -0.9791,-1.993 -0.5655,-0.6248 -1.5737,-1.3027 -3.0147,-2.0369 l -3.2918,-1.6772 z" />
        <path
           inkscape:connector-curvature="0"
           id="path3714"
           style="fill:#003d8f;fill-rule:evenodd"
           d="m 438.4437,198.8005 12.3275,8.6318 c 1.5644,1.0955 2.749,2.1629 3.5583,3.2061 0.8079,1.0336 1.3585,2.1427 1.6434,3.3037 0.2907,1.1653 0.3219,2.3358 0.1076,3.5042 -0.2204,1.1649 -0.6797,2.2472 -1.3717,3.2351 -1.3993,1.9983 -3.3356,3.1355 -5.8155,3.4073 -2.4773,0.2819 -5.0674,-0.5278 -7.7625,-2.4149 l -3.985,-2.7904 -3.0586,4.3684 c -0.3798,0.5423 -0.584,0.9181 -0.6042,1.117 -0.0509,0.2797 -0.009,0.5471 0.1291,0.7881 0.1335,0.2468 0.4456,0.5423 0.937,0.8861 l 1.1872,0.8316 -2.2586,3.2259 -11.3738,-7.9644 2.2586,-3.2259 0.7881,0.5519 c 0.6911,0.4839 1.1838,0.7522 1.4784,0.8053 0.2907,0.0588 0.5682,0.0149 0.8171,-0.1344 0.2547,-0.1449 0.6222,-0.5598 1.0977,-1.239 l 8.9835,-12.8299 c 0.5001,-0.7139 0.786,-1.2197 0.8545,-1.5121 0.0685,-0.2925 0.0478,-0.5542 -0.0764,-0.8022 -0.1221,-0.2389 -0.4571,-0.5502 -0.9998,-0.93 l -1.1245,-0.7877 2.2626,-3.2316 z m 5.8941,9.8112 -4.6375,6.623 1.9925,1.3954 c 1.2163,0.8514 2.195,1.3497 2.9414,1.4985 0.7416,0.1445 1.4665,0.0817 2.1783,-0.194 0.7065,-0.2797 1.315,-0.7724 1.8151,-1.4863 0.7473,-1.0674 0.9265,-2.2103 0.5401,-3.4081 -0.2889,-0.9001 -1.0332,-1.7704 -2.2376,-2.6134 l -2.5923,-1.8151 z" />
        <path
           inkscape:connector-curvature="0"
           id="path3716"
           style="fill:#003d8f;fill-rule:evenodd"
           d="m 473.7942,225.4173 c 3.409,2.9633 5.2698,6.4004 5.578,10.3166 0.3082,3.9064 -0.9532,7.4928 -3.784,10.749 -1.902,2.1888 -4.0737,3.7084 -6.5141,4.5611 -2.4395,0.8624 -4.9098,1.006 -7.4094,0.4492 -2.4992,-0.5563 -4.9489,-1.8823 -7.3528,-3.9719 -3.1776,-2.7622 -5.0169,-5.8946 -5.524,-9.4019 -0.6169,-4.2305 0.609,-8.1058 3.6729,-11.6303 2.8487,-3.2773 6.2542,-5.027 10.2107,-5.2549 3.9521,-0.2217 7.661,1.1741 11.1227,4.1831 z m -2.9093,3.474 c -1.636,-1.4222 -3.4661,-1.9412 -5.4942,-1.5521 -2.555,0.4847 -4.8887,1.9473 -7.0059,4.3828 -2.1124,2.4303 -3.2277,4.8505 -3.3273,7.2487 -0.0778,2.0659 0.6854,3.791 2.2845,5.1811 1.6153,1.4042 3.4296,1.9197 5.4537,1.546 2.3996,-0.4544 4.6507,-1.8963 6.7587,-4.3214 1.4863,-1.7102 2.4879,-3.3514 3.0095,-4.9391 0.5168,-1.5825 0.6138,-3.0222 0.2801,-4.328 -0.3324,-1.2962 -0.9857,-2.3719 -1.9591,-3.218 z" />
        <path
           inkscape:connector-curvature="0"
           id="path3718"
           style="fill:#003d8f;fill-rule:evenodd"
           d="m 481.9733,254.5637 3.0244,-12.7978 2.9773,-2.5884 13.0195,14.9769 -4.6155,9.7568 -3.5776,-1.6835 c 1.2474,-3.2825 1.7492,-5.6583 1.5157,-7.1174 -0.2389,-1.4643 -1.0736,-3.02 -2.5006,-4.6612 l -1.9433,-2.2358 -2.5023,10.5616 -11.8094,0.5773 3.041,3.4986 c 1.7607,2.025 3.3906,3.2953 4.8869,3.8055 1.496,0.5093 3.4441,0.349 5.8393,-0.4861 l 1.4995,3.6474 -10.4053,4.0944 -14.2722,-16.4184 2.9721,-2.5835 12.8505,-0.3464 z" />
        <path
           inkscape:connector-curvature="0"
           id="path3720"
           style="fill:#003d8f;fill-rule:evenodd"
           d="m 491.3217,285.2459 -0.7697,-2.7034 6.8127,-2.0219 4.2125,-5.6984 2.2775,1.6479 -3.9394,7.6935 -8.5936,1.0823 z m -4.3223,-6.1725 -0.7693,-2.703 6.8128,-2.0219 4.2129,-5.6979 2.277,1.6474 -3.9394,7.693 -8.594,1.0824 z" />
        <path
           inkscape:connector-curvature="0"
           id="path3722"
           style="fill:#003d8f;fill-rule:evenodd"
           d="m 521.989,315.2344 6.4351,-11.4682 3.5754,-1.6677 8.3868,17.9855 -7.1258,8.1062 -2.9756,-2.6041 c 2.104,-2.8114 3.2417,-4.9568 3.4191,-6.4237 0.1743,-1.4736 -0.1998,-3.1991 -1.1188,-5.1697 l -1.2518,-2.685 -5.3168,9.4626 -11.5108,-2.7003 1.9592,4.201 c 1.1341,2.4325 2.3508,4.1028 3.6487,5.0051 1.2975,0.9023 3.2145,1.2856 5.7471,1.1424 l 0.4355,3.9192 -11.1306,1.0683 -9.1938,-19.7163 3.5688,-1.6645 12.4483,3.2092 z" />
        <path
           inkscape:connector-curvature="0"
           id="path3724"
           style="fill:#003d8f;fill-rule:evenodd"
           d="m 549.4761,344.2451 c 1.3203,4.3196 1.0774,8.2204 -0.7364,11.7049 -1.809,3.4761 -4.7789,5.8493 -8.9053,7.1108 -2.7728,0.8479 -5.42,0.9862 -7.9412,0.4158 -2.526,-0.5616 -4.6968,-1.7488 -6.5216,-3.5455 -1.8248,-1.7963 -3.1995,-4.2191 -4.1308,-7.265 -1.2307,-4.0263 -1.1311,-7.657 0.2977,-10.9001 1.7185,-3.9148 4.8118,-6.5519 9.2777,-7.917 4.1528,-1.2698 7.9679,-0.9488 11.4441,0.9546 3.4687,1.906 5.8748,5.0555 7.2158,9.4415 z m -4.3083,1.4046 c -0.6336,-2.0733 -1.9104,-3.4832 -3.8366,-4.2279 -2.4237,-0.9427 -5.1776,-0.9392 -8.2639,0.004 -3.0797,0.9414 -5.308,2.4026 -6.663,4.3842 -1.1604,1.7106 -1.4278,3.578 -0.8083,5.6043 0.6257,2.0466 1.8915,3.445 3.8059,4.2011 2.2757,0.8857 4.9488,0.8562 8.0215,-0.0834 2.1668,-0.6626 3.8858,-1.5236 5.1697,-2.5936 1.2768,-1.0683 2.122,-2.238 2.5308,-3.5219 0.4049,-1.2755 0.4211,-2.5343 0.0439,-3.7672 z" />
        <path
           inkscape:connector-curvature="0"
           id="path3726"
           style="fill:#003d8f;fill-rule:evenodd"
           d="m 553.6749,361.7914 2.4571,13.9346 -3.8854,0.6849 -0.1839,-1.0432 c -0.1309,-0.7416 -0.2666,-1.1917 -0.4093,-1.3576 -0.1506,-0.1713 -0.3517,-0.2283 -0.6055,-0.1836 -0.3503,0.0619 -0.8342,0.3667 -1.4524,0.9146 l -5.4459,4.7614 7.0792,2.9769 c 0.6134,0.267 0.9572,0.4119 1.0262,0.4417 0.1607,0.0286 0.31,0.0303 0.4606,0.003 0.2265,-0.0399 0.378,-0.144 0.4601,-0.3214 0.0834,-0.1708 0.0672,-0.5427 -0.032,-1.1056 l -0.2521,-1.4278 3.8854,-0.685 1.9719,11.1824 -3.8854,0.685 c -0.1787,-0.9739 -0.4167,-1.6395 -0.6994,-2.0005 -0.2898,-0.3591 -0.8874,-0.735 -1.802,-1.1473 l -12.2186,-5.553 -5.0046,0.8821 c -0.8852,0.1563 -1.452,0.3127 -1.6927,0.4756 -0.2414,0.1558 -0.3995,0.3819 -0.4803,0.6862 -0.0755,0.2964 -0.0496,0.8444 0.0918,1.6474 l 0.1743,0.9884 -3.8779,0.6836 -2.4115,-13.6737 3.8784,-0.6841 0.1309,0.7416 c 0.1703,0.9678 0.3481,1.5737 0.5189,1.8196 0.1779,0.2445 0.4259,0.4061 0.7531,0.497 0.3262,0.0839 0.944,0.0531 1.8568,-0.108 l 4.3859,-0.7732 10.0452,-9.4648 c 0.7816,-0.7468 1.2466,-1.3593 1.3945,-1.8458 0.094,-0.3491 0.0514,-0.9928 -0.1167,-1.9469 l 3.8853,-0.685 z" />
        <path
           inkscape:connector-curvature="0"
           id="path3728"
           style="fill:#003d8f;fill-rule:evenodd"
           d="m 531.6891,405.9867 3.5126,-0.0615 0.0254,1.4499 c 0.0132,0.7525 0.1682,1.2658 0.4659,1.5464 0.2981,0.2806 0.8162,0.418 1.5482,0.4053 l 1.0243,-0.0176 c -0.0544,-5.8972 0.6376,-9.8063 2.0677,-11.7348 1.4305,-1.9209 3.2957,-2.9018 5.5956,-2.9418 2.1536,-0.0377 3.974,0.8092 5.4612,2.5471 1.4876,1.7374 2.3302,5.6896 2.5352,11.856 l 0.7737,-0.0137 c 0.7183,-0.0123 1.2311,-0.1681 1.5328,-0.4592 0.3016,-0.2907 0.4461,-0.8093 0.4329,-1.5623 l -0.025,-1.4494 3.5332,-0.0619 0.2398,13.744 -3.5333,0.0615 -0.0254,-1.4494 c -0.0128,-0.732 -0.1682,-1.2452 -0.4663,-1.5328 -0.2973,-0.2876 -0.8229,-0.4251 -1.5689,-0.4119 l -0.7732,0.0136 c 0.0773,6.0149 -0.5861,9.9583 -1.9894,11.8165 -1.4042,1.8647 -3.2277,2.8171 -5.4582,2.8561 -2.1879,0.0382 -4.079,-0.8562 -5.6724,-2.6897 -1.5939,-1.8336 -2.4356,-5.737 -2.5401,-11.7098 l -1.0239,0.018 c -0.732,0.0128 -1.2452,0.1612 -1.5333,0.4523 -0.288,0.2911 -0.425,0.8158 -0.4118,1.5618 l 0.0254,1.4494 -3.5126,0.0614 -0.2401,-13.7435 z m 18.3907,9.9965 -7.7146,0.1348 c 0.0509,2.9132 0.4395,4.8237 1.1596,5.7382 0.7271,0.9142 1.683,1.3577 2.8606,1.3375 2.537,-0.0444 3.7638,-2.4501 3.6944,-7.2105 z m -0.1199,-6.8782 c -0.1567,-2.9813 -0.6085,-4.9115 -1.3414,-5.7769 -0.7402,-0.8725 -1.6544,-1.3027 -2.7416,-1.2834 -1.1288,0.0193 -2.0201,0.4878 -2.6731,1.4055 -0.6463,0.9176 -0.9686,2.8474 -0.9589,5.7892 l 7.715,-0.1344 z" />
        <path
           inkscape:connector-curvature="0"
           id="path3730"
           style="fill:#003d8f;fill-rule:evenodd"
           d="m 551.7531,446.6895 -14.007,-7.2329 c -0.569,-0.2876 -0.9563,-0.4474 -1.1574,-0.472 -0.4079,-0.05 -0.7065,0.0957 -0.897,0.4444 -0.1972,0.3477 -0.368,1.1069 -0.512,2.2827 l -3.9091,-0.4799 1.3388,-10.9036 3.9091,0.4799 c -0.1225,0.9963 -0.0672,1.6914 0.1664,2.0786 0.2401,0.3873 0.753,0.7873 1.5504,1.2154 l 21.2038,11.4735 -0.7741,6.3025 -22.8754,5.8569 c -1.2048,0.3157 -1.9675,0.6366 -2.2797,0.9497 -0.3131,0.3192 -0.533,0.9664 -0.652,1.935 l -3.9087,-0.4799 1.6422,-13.3734 3.9086,0.4799 -0.0786,0.8123 c -0.1637,1.3352 0.0927,2.0478 0.7711,2.1308 0.2836,0.0352 0.7969,-0.0281 1.5486,-0.2028 l 15.012,-3.2971 z" />
        <path
           inkscape:connector-curvature="0"
           id="path3732"
           style="fill:#003d8f;fill-rule:evenodd"
           d="m 556.4262,467.7191 -2.8869,13.5815 -3.8591,-0.8202 0.2626,-1.2338 c 0.1532,-0.7227 0.1936,-1.2131 0.1199,-1.4709 -0.08,-0.259 -0.242,-0.4715 -0.49,-0.6454 -0.2481,-0.1739 -0.7614,-0.3403 -1.5315,-0.5041 l -15.4226,-3.2781 c -0.8387,-0.1783 -1.3875,-0.245 -1.6466,-0.2002 -0.2573,0.0382 -0.4693,0.1642 -0.6191,0.3675 -0.223,0.2441 -0.3938,0.6428 -0.5124,1.2022 l -0.3143,1.4792 -3.8521,-0.8189 2.8865,-13.5815 3.8521,0.8189 -0.2332,1.0977 c -0.1668,0.7842 -0.2151,1.315 -0.1572,1.5771 0.0654,0.2635 0.2051,0.4782 0.4272,0.6393 0.2279,0.1695 0.7004,0.3272 1.4363,0.4835 l 15.4774,3.29 c 0.8659,0.1839 1.4498,0.2511 1.7471,0.1932 0.2959,-0.0514 0.548,-0.1972 0.7477,-0.4325 0.1485,-0.1612 0.2933,-0.6073 0.4453,-1.3234 l 0.2639,-1.2413 3.859,0.8202 z" />
        <path
           inkscape:connector-curvature="0"
           id="path3734"
           style="fill:#003d8f;fill-rule:evenodd"
           d="m 548.6927,500.0136 c -1.3958,4.2955 -3.8322,7.3515 -7.3167,9.1658 -3.4753,1.8098 -7.2694,2.05 -11.3734,0.7165 -2.7574,-0.8957 -5.0051,-2.3007 -6.7434,-4.2138 -1.7475,-1.9091 -2.8443,-4.1269 -3.3084,-6.6454 -0.4646,-2.5177 -0.2011,-5.2909 0.7833,-8.3201 1.301,-4.0039 3.4652,-6.9211 6.4957,-8.7582 3.6531,-2.2213 7.6996,-2.6068 12.1409,-1.1636 4.13,1.3418 7.0713,3.7928 8.8268,7.3462 1.7484,3.5508 1.9126,7.5104 0.4952,11.8726 z m -4.3345,-1.3207 c 0.67,-2.0615 0.4329,-3.9491 -0.7175,-5.6641 -1.445,-2.162 -3.7031,-3.7387 -6.7723,-4.7363 -3.0626,-0.995 -5.726,-1.0757 -7.9723,-0.2301 -1.9324,0.7355 -3.222,2.112 -3.8766,4.1269 -0.6613,2.0356 -0.4272,3.9073 0.7078,5.6246 1.3558,2.0307 3.5626,3.5398 6.6186,4.5326 2.155,0.7003 4.0571,0.9809 5.7221,0.8404 1.6592,-0.1423 3.0221,-0.6161 4.0935,-1.4332 1.0634,-0.8123 1.7984,-1.8345 2.1967,-3.0608 z" />
        <path
           inkscape:connector-curvature="0"
           id="path3736"
           style="fill:#003d8f;fill-rule:evenodd"
           d="m 542.3134,517.5912 -5.755,12.9264 -3.6039,-1.6044 0.4307,-0.9681 c 0.3065,-0.6876 0.4452,-1.1368 0.4198,-1.3541 -0.029,-0.2266 -0.1638,-0.386 -0.3996,-0.4909 -0.3249,-0.1449 -0.8966,-0.1629 -1.7155,-0.054 l -7.1767,0.9018 4.2038,6.4268 c 0.3591,0.5642 0.5633,0.8764 0.6037,0.94 0.1172,0.1133 0.2402,0.1985 0.3802,0.2609 0.2099,0.0935 0.3939,0.0917 0.5612,-0.009 0.1642,-0.0952 0.3591,-0.4127 0.5914,-0.9348 l 0.5897,-1.3246 3.6039,1.6048 -4.6182,10.3732 -3.6039,-1.6049 c 0.396,-0.9071 0.5712,-1.5921 0.5383,-2.0491 -0.0391,-0.4602 -0.3245,-1.1056 -0.8523,-1.9592 l -7.0243,-11.4362 -4.6424,-2.0667 c -0.8215,-0.3658 -1.3787,-0.5533 -1.6693,-0.5528 -0.2872,-0.006 -0.5445,0.0935 -0.782,0.3003 -0.2279,0.2037 -0.5129,0.6722 -0.8448,1.4169 l -0.4079,0.9172 -3.5978,-1.6017 5.6474,-12.6845 3.5978,1.6018 -0.3065,0.688 c -0.3996,0.8975 -0.591,1.499 -0.587,1.7985 0.0109,0.302 0.126,0.5747 0.3464,0.8333 0.2235,0.252 0.7526,0.5717 1.5995,0.9484 l 4.069,1.8117 13.6201,-2.2297 c 1.0657,-0.1822 1.7941,-0.4298 2.1884,-0.7499 0.2731,-0.2371 0.598,-0.7947 0.9919,-1.6795 l 3.6039,1.6044 z" />
      </g>
      <g
         id="g3738">
        <path
           inkscape:connector-curvature="0"
           id="path3740"
           style="fill:#003d8f;fill-rule:evenodd"
           d="m 260.8315,266.1136 4.7732,0 12.5413,33.5727 c 0.6125,1.6904 1.2351,2.8105 1.8679,3.3514 0.6226,0.5502 1.4722,0.8255 2.5299,0.8255 l 0.6327,0 0,2.4175 -14.3898,0 0,-2.4175 c 0.4649,-0.0395 0.9194,-0.0593 1.3637,-0.0593 0.9291,0 1.5324,-0.0979 1.8284,-0.2849 0.5536,-0.3636 0.8403,-0.8255 0.8403,-1.3858 0,-0.4026 -0.2766,-1.3857 -0.8105,-2.9681 l -2.6683,-7.7739 -14.6462,0 -3.1328,8.6981 c -0.3258,0.9041 -0.4944,1.5232 -0.4944,1.8771 0,0.3833 0.1088,0.7174 0.3064,1.0024 0.2077,0.285 0.4742,0.501 0.8303,0.6485 0.346,0.1475 0.8992,0.2165 1.6799,0.2165 0.5142,0 0.9392,0.01 1.265,0.0294 l 0,2.4175 -12.0667,0 0,-2.4175 c 1.117,0 1.9271,-0.1085 2.4114,-0.3341 0.494,-0.2165 0.9291,-0.5704 1.2944,-1.0617 0.3658,-0.4914 0.8501,-1.5232 1.4433,-3.0955 l 12.6006,-33.2583 z m -5.07,22.457 12.4816,0 -6.2555,-17.2777 -6.2261,17.2777 z" />
        <path
           inkscape:connector-curvature="0"
           id="path3742"
           style="fill:#003d8f;fill-rule:evenodd"
           d="m 289.3047,306.2807 0,-5.9064 5.5939,0 0,5.9064 -5.5939,0 z" />
        <path
           inkscape:connector-curvature="0"
           id="path3744"
           style="fill:#003d8f;fill-rule:evenodd"
           d="m 329.6879,284.6 -11.218,17.3664 10.1137,0 c 4.1629,0 7.2479,-0.7961 9.2544,-2.3688 2.0159,-1.5724 3.7243,-4.0984 5.1531,-7.5675 l 2.3574,0.9238 -4.1102,13.3268 -28.0351,0 0,-2.4175 11.8924,-18.2309 -11.279,-17.0713 0,-2.4474 23.8024,0 4.338,10.5949 -2.2085,1.2088 c -1.5162,-3.204 -3.1811,-5.4547 -4.9778,-6.7521 -1.7963,-1.2971 -4.5309,-1.946 -8.1941,-1.946 l -7.1337,0 10.245,15.3808 z" />
        <path
           inkscape:connector-curvature="0"
           id="path3746"
           style="fill:#003d8f;fill-rule:evenodd"
           d="m 349.4617,306.2807 0,-5.9064 5.5934,0 0,5.9064 -5.5934,0 z" />
        <path
           inkscape:connector-curvature="0"
           id="path3748"
           style="fill:#003d8f;fill-rule:evenodd"
           d="m 198.7548,325.8017 26.9734,0 3.1179,10.565 -2.0949,0.9537 c -0.5198,-1.73 -1.088,-3.0863 -1.7133,-4.0786 -0.6169,-0.9831 -1.3558,-1.8283 -2.2248,-2.5163 -0.8605,-0.6876 -1.7295,-1.1495 -2.6147,-1.3858 -0.8764,-0.2257 -2.468,-0.3438 -4.7661,-0.3438 l -8.0382,0 0,14.7126 3.9947,0 c 1.47,0 2.5906,-0.295 3.3374,-0.9045 0.7552,-0.5993 1.2747,-1.3559 1.5592,-2.2603 0.227,-0.6683 0.3324,-1.8376 0.3324,-3.5087 l 0,-0.6683 2.3306,0 0,17.6219 -2.3306,0 0,-1.5236 c 0,-1.3462 -0.0808,-2.3095 -0.2433,-2.9089 -0.1703,-0.5896 -0.479,-1.1596 -0.9172,-1.6807 -0.447,-0.5305 -0.926,-0.8944 -1.4375,-1.0811 -0.5199,-0.1967 -1.3963,-0.2849 -2.631,-0.2849 l -3.9947,0 0,13.0713 c 0,1.3563 0.0487,2.1914 0.1541,2.4865 0.0979,0.2946 0.2683,0.5111 0.5115,0.6485 0.2358,0.1374 0.8852,0.1967 1.9491,0.1967 l 4.969,0 c 2.7767,0 4.9449,-0.4031 6.5041,-1.2088 1.567,-0.8061 2.9391,-2.0443 4.1326,-3.715 0.9339,-1.2975 1.827,-3.1451 2.6875,-5.5236 l 2.1599,0.9238 -3.7107,12.58 -27.9964,0 0,-2.4175 0.9502,0 c 1.1122,0 1.8024,-0.0887 2.0707,-0.2556 0.414,-0.2555 0.7306,-0.6586 0.9497,-1.2189 0.1625,-0.3833 0.2437,-1.2184 0.2437,-2.4961 l 0,-27.646 c 0,-1.2483 -0.1054,-2.0839 -0.3087,-2.5063 -0.2112,-0.4228 -0.5682,-0.7468 -1.0718,-0.973 -0.2678,-0.1378 -1.218,-0.2063 -2.8338,-0.2063 l 0,-2.4474 z" />
        <path
           inkscape:connector-curvature="0"
           id="path3750"
           style="fill:#003d8f;fill-rule:evenodd"
           d="m 241.7641,325.8017 15.7765,0 c 3.8485,0 6.4874,0.2164 7.9165,0.6388 2.1107,0.6094 3.7757,1.7199 5.0095,3.3317 1.2263,1.6119 1.8432,3.5579 1.8432,5.8182 0,1.6316 -0.3245,3.096 -0.9743,4.393 -0.6494,1.2975 -1.5996,2.4079 -2.8338,3.322 -0.7956,0.5994 -1.8674,1.1105 -3.2316,1.5333 1.73,0.3833 3.045,0.8452 3.946,1.3761 1.3646,0.8057 2.4443,1.9556 3.232,3.459 0.7956,1.4942 1.1934,3.1846 1.1934,5.0617 0,1.8279 -0.3894,3.5183 -1.1692,5.0713 -0.7715,1.5526 -1.8758,2.8303 -3.2883,3.8327 -1.4208,0.9928 -3.0775,1.6316 -4.9615,1.9166 -1.8916,0.2753 -3.8319,0.4127 -5.8297,0.4127 l -16.6287,0 0,-2.4175 1.1206,0 c 1.0796,0 1.8107,-0.2064 2.2085,-0.6095 0.5765,-0.5506 0.8606,-1.4744 0.8606,-2.7618 l 0,-27.9015 c 0,-1.3072 -0.0891,-2.1919 -0.2599,-2.6731 -0.1787,-0.4817 -0.4382,-0.8259 -0.7877,-1.042 -0.3491,-0.2063 -1.0231,-0.3143 -2.0215,-0.3143 l -1.1206,0 0,-2.4474 z m 8.6393,3.1942 0,14.7126 6.065,0 c 2.8338,0 4.7824,-0.1572 5.8217,-0.4817 1.6404,-0.5207 2.8825,-1.4054 3.7515,-2.6537 0.8605,-1.2479 1.2992,-2.8501 1.2992,-4.8057 0,-1.651 -0.3978,-3.027 -1.1776,-4.1374 -0.7873,-1.1008 -1.8428,-1.8578 -3.1583,-2.2608 -0.8527,-0.2455 -2.6305,-0.3733 -5.3264,-0.3733 l -7.2751,0 z m 0,17.4841 0,13.1793 c 0,1.3269 0.0483,2.1128 0.1383,2.3684 0.1295,0.3442 0.3816,0.58 0.7631,0.7174 0.2679,0.0984 1.031,0.1476 2.2815,0.1476 l 3.2395,0 c 3.1991,0 5.4889,-0.2161 6.861,-0.6486 1.3725,-0.4325 2.5414,-1.3466 3.5078,-2.742 0.9659,-1.3857 1.4533,-3.0665 1.4533,-5.0222 0,-1.6513 -0.3978,-3.1156 -1.1771,-4.3929 -0.7878,-1.2777 -1.8758,-2.1919 -3.2641,-2.7618 -1.3888,-0.5699 -3.849,-0.8452 -7.3809,-0.8452 l -6.4224,0 z" />
        <path
           inkscape:connector-curvature="0"
           id="path3752"
           style="fill:#003d8f;fill-rule:evenodd"
           d="m 286.2997,325.8017 13.1051,0 c 3.9785,0 6.7231,0.3047 8.2252,0.9238 1.892,0.7275 3.4507,1.9754 4.6766,3.7444 1.2347,1.7594 1.8433,4.0101 1.8433,6.7324 0,2.3293 -0.4628,4.3341 -1.4046,6.0245 -1.1206,2.0343 -2.4927,3.4793 -4.1006,4.3245 -1.6074,0.8549 -4.1409,1.2874 -7.5995,1.2874 l -6.0654,0 0,10.3095 c 0,1.5333 0.0729,2.5063 0.2107,2.9089 0.195,0.5506 0.4549,0.9436 0.7877,1.16 0.3329,0.2257 1.0068,0.3342 2.022,0.3342 l 1.1447,0 0,2.4175 -12.8452,0 0,-2.4175 0.7793,0 c 1.0964,0 1.8433,-0.1085 2.2415,-0.3342 0.3895,-0.2164 0.6819,-0.5602 0.8685,-1.0322 0.1787,-0.4716 0.2683,-1.3559 0.2683,-2.663 l 0,-27.4696 c 0,-1.2676 -0.0812,-2.1229 -0.252,-2.5453 -0.1625,-0.4325 -0.4382,-0.7569 -0.8281,-0.9532 -0.3899,-0.2064 -1.1531,-0.3047 -2.2982,-0.3047 l -0.7793,0 0,-2.4474 z m 8.6801,3.1354 0,16.8452 5.1152,0 c 2.5822,0 4.3925,-0.2753 5.4318,-0.8356 1.0393,-0.5502 1.9004,-1.5135 2.5823,-2.8896 0.6818,-1.3756 1.023,-2.9778 1.023,-4.8254 0,-2.0145 -0.3978,-3.6953 -1.1855,-5.0516 -0.7956,-1.3563 -1.8757,-2.27 -3.2395,-2.7517 -0.9502,-0.3245 -2.8097,-0.4913 -5.5622,-0.4913 l -4.1651,0 z" />
        <path
           inkscape:connector-curvature="0"
           id="path3754"
           style="fill:#003d8f;fill-rule:evenodd"
           d="m 343.5342,325.1136 c 3.0283,0 5.7646,0.8848 8.209,2.6441 2.6467,1.9065 4.677,4.3732 6.0979,7.4002 1.4208,3.0371 2.1269,6.5458 2.1269,10.5357 0,6.1817 -1.5834,11.2237 -4.7579,15.1253 -3.1666,3.892 -7.2101,5.838 -12.1304,5.838 -5.4809,0 -9.8326,-2.339 -13.0317,-7.027 -2.6147,-3.8134 -3.9302,-8.3833 -3.9302,-13.7005 0,-3.9508 0.7389,-7.4986 2.2169,-10.6437 1.4775,-3.135 3.5644,-5.6118 6.2761,-7.4397 2.7118,-1.8182 5.6918,-2.7324 8.9234,-2.7324 z m 0,3.106 c -2.4764,0 -4.5958,0.6876 -6.3741,2.0637 -1.7782,1.366 -3.1991,3.3906 -4.2704,6.054 -1.0723,2.6735 -1.6079,5.9657 -1.6079,9.8775 0,3.7444 0.5277,6.9185 1.5833,9.5134 1.0555,2.6042 2.4685,4.5994 4.2467,5.9754 1.7778,1.3858 3.7752,2.0738 5.9921,2.0738 2.2086,0 4.1572,-0.6784 5.8542,-2.0246 1.6966,-1.3563 3.1016,-3.4893 4.2138,-6.3982 1.1043,-2.8992 1.6646,-6.1326 1.6646,-9.6808 0,-3.6167 -0.5603,-6.9185 -1.6646,-9.9064 -0.958,-2.5748 -2.2164,-4.4716 -3.7835,-5.7001 -1.5754,-1.2286 -3.524,-1.8477 -5.8542,-1.8477 z" />
        <path
           inkscape:connector-curvature="0"
           id="path3756"
           style="fill:#003d8f;fill-rule:evenodd"
           d="m 385.61,344.2881 -10.3934,17.3664 9.3704,0 c 3.8568,0 6.7148,-0.7961 8.5743,-2.3689 1.8674,-1.5723 3.4502,-4.0983 4.774,-7.5674 l 2.184,0.9238 -3.8081,13.3268 -25.9745,0 0,-2.4175 11.0182,-18.2309 -10.4496,-17.0713 0,-2.4474 22.0527,0 4.0193,10.5949 -2.0461,1.2087 c -1.4046,-3.2039 -2.9475,-5.4546 -4.6121,-6.7521 -1.6645,-1.297 -4.198,-1.946 -7.5916,-1.946 l -6.6094,0 9.4919,15.3809 z" />
      </g>
    </g>
  </g>
</svg>
