<?xml version="1.0" encoding="utf-8"?>
<!-- Generator: Adobe Illustrator 13.0.0, SVG Export Plug-In . SVG Version: 6.00 Build 14948)  -->
<!DOCTYPE svg PUBLIC "-//W3C//DTD SVG 1.0//EN" "http://www.w3.org/TR/2001/REC-SVG-20010904/DTD/svg10.dtd">
<svg version="1.0" id="Calque_1" xmlns="http://www.w3.org/2000/svg" xmlns:xlink="http://www.w3.org/1999/xlink" x="0px" y="0px"
	 width="408.094px" height="405.162px" viewBox="0 0 408.094 405.162" enable-background="new 0 0 408.094 405.162"
	 xml:space="preserve">
<linearGradient id="SVGID_1_" gradientUnits="userSpaceOnUse" x1="13.0435" y1="187.645" x2="382.2825" y2="232.9819">
	<stop  offset="0" style="stop-color:#707173"/>
	<stop  offset="1" style="stop-color:#D9DADB"/>
</linearGradient>
<path fill-rule="evenodd" clip-rule="evenodd" fill="url(#SVGID_1_)" d="M203.479,396.471c102.139,0,185.443-83.305,185.443-185.443
	S305.618,25.585,203.479,25.585c-102.138,0-185.443,83.305-185.443,185.443S101.341,396.471,203.479,396.471z"/>
<linearGradient id="SVGID_2_" gradientUnits="userSpaceOnUse" x1="378.6182" y1="300.2651" x2="56.9252" y2="136.3544">
	<stop  offset="0" style="stop-color:#707173"/>
	<stop  offset="1" style="stop-color:#D9DADB"/>
</linearGradient>
<path fill-rule="evenodd" clip-rule="evenodd" fill="url(#SVGID_2_)" d="M203.479,393.023c100.24,0,181.996-81.756,181.996-181.996
	c0-100.24-81.756-181.996-181.996-181.996c-100.24,0-181.997,81.756-181.997,181.996
	C21.482,311.268,103.239,393.023,203.479,393.023z"/>
<g>
	<defs>
		<path id="SVGID_3_" d="M203.478,33.325c98.126,0,177.703,79.577,177.703,177.703c0,98.126-79.577,177.703-177.703,177.703
			c-98.125,0-177.703-79.577-177.703-177.703C25.775,112.902,105.353,33.325,203.478,33.325z"/>
	</defs>
	<radialGradient id="SVGID_4_" cx="128.8428" cy="207.4736" r="151.4771" gradientUnits="userSpaceOnUse">
		<stop  offset="0" style="stop-color:#009EE0"/>
		<stop  offset="1" style="stop-color:#006EB0"/>
	</radialGradient>
	<use xlink:href="#SVGID_3_"  overflow="visible" fill-rule="evenodd" clip-rule="evenodd" fill="url(#SVGID_4_)"/>
	<clipPath id="SVGID_5_">
		<use xlink:href="#SVGID_3_"  overflow="visible"/>
	</clipPath>
	<g clip-path="url(#SVGID_5_)">
		<path fill-rule="evenodd" clip-rule="evenodd" fill="#1F549E" d="M232.352,102.301c18.448,0,36.493,7.173,52.901,18.906
			c10.154,7.261,22.908-9.594,43.811-9.018c22.486,0.619,24.877,16.462,50.42,18.234c48.765,3.383,20.417,80.342,20.417,103.238
			c0,64.057-84.491,168.998-150.087,168.998c-17.423,0-43.117-18.332-59.142-27.985c-14.191-8.549,26.572-2.78,23.103-15.438
			c-2.743-10.007-7.142-36.994-12.171-39.041c-3.301-1.343-11.731,0.007-51.379-8.39c-2.712-0.573,12.543,31.718,7.532,28.007
			c-8.352-6.185-37.31-50.178-39.057-53.695c-6.155-12.382,1.541-19.052,1.541-29.097
			C120.241,192.963,166.756,102.301,232.352,102.301z"/>
	</g>
</g>
<g>
	<defs>
		<path id="SVGID_6_" d="M234.055,92.124c27.35,7.175,50.968,23.734,67.181,46.003c-4.357-1.726-8.714-4.476-12.903-8.099
			c5.9,20.9,4.844,41.319-1.767,56.055c12.727,7.505,24.451,21.489,32.011,39.401c0.229-9.547,2.13-17.715,5.559-23.469
			c0.135,2.333,0.212,4.681,0.212,7.047c0,26.518-8.624,51.082-23.198,71.048c0.295-4.677,1.565-9.669,3.717-14.771
			c-18.055,12.069-37.8,17.375-53.857,15.641c-3.079,13.856-12.132,28.678-25.87,41.104v-70.379h17.658l17.947-58.475
			l-24.781-19.583l-0.208,0.255l-1.808-1.722l-6.251-2.065l-1.532-0.325l-1.025-0.333v-57.573
			c8.688-3.754,18.725-6.286,29.524-7.209C245.651,101.504,238.466,97.167,234.055,92.124L234.055,92.124z M225.141,323.109v4.869
			c7.711-1.406,15.171-3.547,22.305-6.348C241.326,320.246,233.61,320.789,225.141,323.109L225.141,323.109z M225.141,186.392
			l0.924,0.532l0.33,0.177l0.759-1.83l-0.378,0.036l-0.089-0.875l-1.276-0.27l-0.27,0.046V186.392z M225.141,322.083
			c-0.563,0.509-1.132,1.015-1.71,1.516c0.573-0.171,1.143-0.335,1.71-0.49v4.869c-1.971,0.36-3.958,0.671-5.961,0.934v-77.208
			h5.961V322.083L225.141,322.083z M219.18,114.764c1.905-1.026,3.896-1.988,5.961-2.88v57.573l-0.732-0.237l-2.15,1.08
			l-1.078,0.314l-1.513-0.127l-0.488-0.231V114.764L219.18,114.764z M225.141,184.209v2.183l-0.096-0.056l-0.542-0.117l-0.652,0.732
			l-0.723-0.545l0.613-1.959L225.141,184.209L225.141,184.209z M219.18,217.248v-3.468l0.037,0.012l1.361,1.162l0.305,0.804
			l-0.064,1.617l-0.729,0.716l-0.613-0.13L219.18,217.248L219.18,217.248z M219.18,174.829v-2.275l0.878-0.747l1.036,0.491
			l-0.028,1.431l0.443,0.562l-1.146,0.423l-0.908,0.284L219.18,174.829z M219.18,328.912c-4.837,0.632-9.762,0.978-14.757,1.016
			v-78.224h14.757V328.912L219.18,328.912z M204.422,120.513c1,0.789,1.96,1.599,2.879,2.431c3.431-3.033,7.424-5.781,11.878-8.18
			v55.491l-1.671-0.793l-2.318,1.959l-3.429,0.508l-3.212,1.717l1.595,1.827l2.848,1.401l1.068,1.142l0.808,1.231l0.396,1.132
			l-0.758-0.713l-1.374-1.352l-1.917-0.785l-1.303-0.174l-1.011,1.769l2.191,1.802l0.025,2.549l-1.516-1.814l-1.079-2.055
			l-1.975-0.981l-0.899,0.18l0.271,2.236l1.838,1.721l-1.223,0.71l-1.981-2.222l-0.133-0.403v-19.21l3.049-0.396l4.66,0.443
			l4.134-1.155l2.289-0.426l0.322,0.04l-9.846-7.781l-4.608,2.94V120.513L204.422,120.513z M219.18,172.554l-0.987,0.839
			l0.079,0.876l0.908,0.56V172.554L219.18,172.554z M219.18,213.78v3.468l-0.708-1.702l-0.995-1.25l0.213-1.003L219.18,213.78
			L219.18,213.78z M204.422,212.009v-6.973l0.912,1.153l1.583,1.402l1.111,0.237l1.576,1.201l-0.043,1.973l-0.399,4.447
			l-0.012,1.433l-2.717-2.011l-1.938-2.868L204.422,212.009L204.422,212.009z M204.422,203.488l0.219,1.547l1.742,1.106l2.445,0.519
			l2.17,1.877l0.673,1.402l0.435,1.878l1.09,1.172l1.282,0.273l1.448,0.308l0.144-1.955l0.524,0.658l-0.019-1.763l-2.222-0.7
			l-1.113-0.507l-1.041-3.16l0.113-1.79l-1.056-1.334l-3.22-0.907l-2.152-1.202l-1.461-1.475V203.488z M204.422,329.928
			c-0.314,0.003-0.628,0.005-0.943,0.005c-11.98,0-23.56-1.768-34.499-5.042v-1.601c3.792-0.653,7.933-0.786,12.311-0.413
			c-4.533-3.572-8.648-7.405-12.311-11.405v-82.301l8.618,22.533h26.825V329.928L204.422,329.928z M168.98,105.507v72.408l8.29-5.29
			l-1.518,1.072l-2.287,3.224l-2.195,1.244l-0.931,2.28l-1.089,1.202l-0.269,0.152v5.704l0.906,0.918l2.487,5.654l0.76-1.825
			l2.97,1.646l0.48,1.81l-2.013,0.17l-2.187-0.56l2.242,4.258l0.848,2.76l0.732,1.485l1.271-0.226l0.541-0.721l0.751,0.082
			l2.79,1.507l3.932-0.081l2.479,0.801l2.789-0.104l1.964,0.918l1.461-0.932l1.269,1.608l1.407,1.414l2.44,0.637l-0.533,1.603
			l-2.306,0.448l-5.099-2.302l-2.541-1.033l-1.181-0.148l-0.726-1.095l-0.498-0.703l-1.44,0.019l-1.567,0.039l-3.272,1.658
			l-1.609-0.812l-2.977,3.635l-0.771,1.857l1.158,2.981l3.017,1.863l1.319,2.861l-1.483,3.396l0.253,2.902l1.044,1.359l1.703,0.83
			l0.743-2.19l1.673-1.675l0.817,1.608l1.53,1.663l0.679,3.558l0.089,2.388l0.971,0.206l0.523-1.188l0.949-2.944l2.036-0.71
			l1.132,2.348l1.609,1.725l1.735,1.165l0.087-4.834l-1.016-6.402l-1.378-2.497l-0.356-2.626l0.814,0.465l1.402,1.071l1.45,1.245
			l0.254,1.389l1.086-0.136l1.594-1.195l1.898-0.083l-0.215-1.538l-1.159-0.847l-1.372-1.13l-0.73-2.034l-0.564-1.287l0.349-1.634
			l3.085,0.271l2.918-0.217v-6.973l-0.518-0.654l-1.41-0.13l-0.767-2.416l-1.961-0.343l-1.483-1.058l-1.834-0.669l-2.389-1.366
			l-0.809-1.412l2.124-0.214l1.278,0.272l1.05-0.172l0.723-0.589l-0.222-0.742l-0.663-2.224l0.646-1.744l1.871,0.498l0.786,1.307
			l-0.48,1.336l0.865,0.358l1.081-0.542l-0.338-1.668l-0.856-2.194l-1.338-1.804l-2.023-2.036l-0.566-3.163l-1.245-1.702
			l-0.118-2.57l0.354-2.973l0.807-2.872l1.843-0.256l1.04-0.472l-0.787,1.462l0.171,0.704l2.432,1.836l1.958,1.649l0.78,2.372
			v-19.21l-0.362,0.047l-2.221,0.07l-0.333-0.147l-1.396,0.248l-3.221,2.364l-4.194-0.413l-2.726,0.72l14.454-9.223v-34.789
			C195.371,113.373,183.053,108.044,168.98,105.507L168.98,105.507z M204.422,199.435v4.053l-0.022-0.16l-1.884-1.721l-1.007-1.079
			l-1.333-1.412l-1.599-0.057l-0.518-0.11l0.958-1.03l2.203-1.511l1.298,0.171l0.305,0.907l1.261,1.606L204.422,199.435
			L204.422,199.435z M168.98,206.238v-3.878l0.753-0.309l0.22,2.157l1.42,1.342l-0.721,1.674l-1.091-0.828L168.98,206.238z
			 M168.98,324.891c-1.015-0.304-2.024-0.62-3.027-0.949c0.981-0.256,1.991-0.474,3.027-0.652V324.891L168.98,324.891z
			 M168.98,311.472c-10.119-11.052-16.776-23.377-19.208-34.983c-14.707,1.409-32.412-3.013-49.056-13.06
			c5.386,7.799,8.64,15.468,9.282,22.103c-17.102-20.857-27.39-47.5-27.39-76.471c0-0.073,0.002-0.145,0.002-0.217
			c2.557,3.985,4.496,8.824,5.77,14.284c7.512-20.377,20.368-36.276,34.378-44.311c-5.885-13.552-7.15-31.757-2.739-50.691
			c-5.767,7.548-12.069,13.02-18.196,15.674c14.989-23.24,37.722-41.051,64.5-49.743c-2.999,3.656-6.996,6.989-11.787,9.883
			c4.97,0.194,9.803,0.729,14.444,1.566v72.408l-5.496,3.507l0.595,0.637l0.619,2.115l0.748,1.866l-0.27,0.783l-1.248,0.06
			l-1.249-1.699l-0.904-2.67l-8.552,5.457l15.758,41.202V311.472L168.98,311.472z M168.98,181.799l-1.675,0.945l-0.191-0.157
			l0.215,0.046l0.327,0.562l0.436,3.407l0.888,0.901V181.799L168.98,181.799z M168.98,202.36l-0.484,0.199l-1.798,1.25l-0.112,0.148
			l0.916,1.05l0.445,0.953l1.033,0.278V202.36z"/>
	</defs>
	<radialGradient id="SVGID_7_" cx="186.5562" cy="222.9189" r="49.9882" gradientUnits="userSpaceOnUse">
		<stop  offset="0" style="stop-color:#FFFFFF"/>
		<stop  offset="1" style="stop-color:#D9DADB"/>
	</radialGradient>
	<use xlink:href="#SVGID_6_"  overflow="visible" fill-rule="evenodd" clip-rule="evenodd" fill="url(#SVGID_7_)"/>
	<clipPath id="SVGID_8_">
		<use xlink:href="#SVGID_6_"  overflow="visible"/>
	</clipPath>
	<g clip-path="url(#SVGID_8_)">
		<linearGradient id="SVGID_9_" gradientUnits="userSpaceOnUse" x1="85.3584" y1="241.5322" x2="108.8157" y2="238.652">
			<stop  offset="0" style="stop-color:#FFFFFF"/>
			<stop  offset="1" style="stop-color:#D9DADB"/>
		</linearGradient>
		<path fill-rule="evenodd" clip-rule="evenodd" fill="url(#SVGID_9_)" d="M77.769,168.49c12.953-7.704,27.973,18.62,33.542,58.783
			c5.569,40.166-0.419,78.985-13.373,86.689c-12.953,7.704-27.973-18.62-33.542-58.785C58.828,215.013,64.816,176.194,77.769,168.49
			z"/>
		<linearGradient id="SVGID_10_" gradientUnits="userSpaceOnUse" x1="142.3511" y1="108.0625" x2="176.5321" y2="151.8122">
			<stop  offset="0" style="stop-color:#FFFFFF"/>
			<stop  offset="1" style="stop-color:#D9DADB"/>
		</linearGradient>
		<path fill-rule="evenodd" clip-rule="evenodd" fill="url(#SVGID_10_)" d="M205.357,65.908
			c16.204,22.728,1.75,60.831-32.277,85.088c-34.027,24.258-74.76,25.498-90.963,2.77c-16.202-22.728-1.749-60.831,32.278-85.088
			C148.421,44.42,189.155,43.18,205.357,65.908z"/>
		<radialGradient id="SVGID_11_" cx="278.0801" cy="190.6084" r="31.0749" gradientUnits="userSpaceOnUse">
			<stop  offset="0" style="stop-color:#FFFFFF"/>
			<stop  offset="0.3518" style="stop-color:#FDFDFD"/>
			<stop  offset="0.5905" style="stop-color:#F6F6F7"/>
			<stop  offset="0.7953" style="stop-color:#EBECEC"/>
			<stop  offset="0.9806" style="stop-color:#DCDCDD"/>
			<stop  offset="1" style="stop-color:#D9DADB"/>
		</radialGradient>
		<path fill-rule="evenodd" clip-rule="evenodd" fill="url(#SVGID_11_)" d="M329.477,119.714
			c12.674,28.187,1.369,75.441-25.246,105.524c-26.615,30.083-58.475,31.621-71.148,3.434
			c-12.673-28.186-1.368-75.439,25.247-105.523C284.944,93.066,316.805,91.528,329.477,119.714z"/>
		<radialGradient id="SVGID_12_" cx="232.2837" cy="299.459" r="25.8248" gradientUnits="userSpaceOnUse">
			<stop  offset="0" style="stop-color:#FFFFFF"/>
			<stop  offset="1" style="stop-color:#D9DADB"/>
		</radialGradient>
		<path fill-rule="evenodd" clip-rule="evenodd" fill="url(#SVGID_12_)" d="M237.433,347.91c23.631,0,42.905-18.445,42.905-41.06
			c0-22.615-19.274-41.06-42.905-41.06c-23.631,0-42.905,18.445-42.905,41.06C194.528,329.465,213.801,347.91,237.433,347.91z"/>
	</g>
</g>
<g>
	<path fill-rule="evenodd" clip-rule="evenodd" d="M350.885,239.422v-5.994l17.038,3.005l-1.025,5.813L350.885,239.422
		L350.885,239.422z M350.885,209.014v-5.906l18.321-0.64l0.206,5.899L350.885,209.014L350.885,209.014z M350.885,188.14v-6.815
		l6.785-3.999l-6.785-0.187v-5.83l13.357,0.561l1.834,7.356L350.885,188.14L350.885,188.14z M350.885,151.093V136.92l1.789,3.365
		c0.561,1.056,0.921,2.164,1.079,3.325c0.159,1.161,0.088,2.28-0.213,3.357c-0.301,1.078-0.841,2.097-1.619,3.057
		C351.616,150.402,351.27,150.758,350.885,151.093z M350.885,136.92v14.173c-0.596,0.519-1.287,0.986-2.073,1.404
		c-1.125,0.597-2.207,0.944-3.249,1.039c-0.8,0.072-1.577,0.024-2.327-0.148v-5.409c0.867,0.115,1.709-0.045,2.525-0.479
		c0.886-0.471,1.499-1.125,1.841-1.962c0.341-0.837,0.313-1.63-0.085-2.379l-2.391-4.496l-1.89,1.004v-6.685l4.331-2.302
		L350.885,136.92L350.885,136.92z M350.885,171.308v5.83l-6.786-0.187l1.82,7.299l4.966-2.927v6.815l-7.649,4.488v-21.641
		L350.885,171.308L350.885,171.308z M350.885,203.108v5.906l-7.649,0.267v-5.906L350.885,203.108L350.885,203.108z M350.885,233.428
		v5.994l-7.649-1.348v-5.994L350.885,233.428L350.885,233.428z M343.236,301.109v-7.183l3.375,2.362L343.236,301.109z
		 M343.236,132.982v6.685l-4.6,2.446l2.39,4.497c0.381,0.715,1.044,1.161,1.989,1.335c0.074,0.014,0.147,0.026,0.221,0.035v5.409
		c-0.226-0.053-0.45-0.116-0.672-0.191c0.137,1.326-0.144,2.709-0.841,4.151c-0.697,1.44-2.017,2.678-3.958,3.71
		c-2.896,1.539-5.583,1.887-8.064,1.043c-0.156-0.053-0.31-0.11-0.463-0.173v-7.562c0.514,0.825,1.213,1.365,2.097,1.623
		c0.982,0.286,2.053,0.121,3.21-0.495c1.159-0.616,1.872-1.389,2.142-2.319c0.271-0.93,0.151-1.872-0.354-2.825l-2.908-5.468
		l-4.187,2.226v-6.685L343.236,132.982L343.236,132.982z M343.236,170.987v21.641l-7.023,4.122l-1.541-6.176l5.266-3.042
		l-2.674-10.725l-6.063-0.158l-1.554-6.232L343.236,170.987L343.236,170.987z M343.236,203.375v5.906l-1.121,0.039l0.466,13.36
		l-5.899,0.205l-0.672-19.258L343.236,203.375L343.236,203.375z M343.236,232.08v5.994L340,237.503l-2.321,13.164l-5.813-1.024
		l3.346-18.978L343.236,232.08L343.236,232.08z M343.236,293.926v7.183l-0.275,0.394l-13.723-1.932v-6.011l3.985,0.56l-3.985-2.791
		v-7.205L343.236,293.926L343.236,293.926z M329.238,312.734v-7.206l7.316,5.123l-3.386,4.834L329.238,312.734L329.238,312.734z
		 M329.238,116.814v-11.771l11,13.584l-4.586,3.715l-5.245-6.476L329.238,116.814z M329.238,105.044v11.771l-20.057,16.242
		l-1.132-1.398v-5.951l18.316-14.833l-5.316-6.565l4.586-3.715L329.238,105.044L329.238,105.044z M329.238,140.425v6.685
		l-3.017,1.604l2.852,5.365c0.053,0.1,0.108,0.196,0.165,0.288v7.562c-2.278-0.93-4.215-2.895-5.811-5.896l-5.189-9.759
		L329.238,140.425L329.238,140.425z M329.238,284.124v7.205l-13.221-9.258l3.385-4.835L329.238,284.124L329.238,284.124z
		 M329.238,293.56l-19.361-2.72l-1.827,2.609v4.448l21.188,14.836v-7.206l-10.649-7.457l10.649,1.499V293.56L329.238,293.56z
		 M308.05,339.841v-6.971c1.501-1.425,2.196-3.245,2.088-5.458c-0.081-1.649-0.777-3.419-2.088-5.311v-8.652
		c0.859,0.731,1.708,1.563,2.546,2.492c1.755,1.95,3.087,3.918,3.993,5.906c0.907,1.986,1.414,3.905,1.522,5.754
		c0.107,1.85-0.183,3.603-0.87,5.261c-0.688,1.657-1.749,3.131-3.182,4.422l-0.172,0.154
		C310.717,338.492,309.438,339.292,308.05,339.841L308.05,339.841z M308.05,104.07c1.314-1.81,2.292-3.6,2.931-5.368
		c0.739-2.042,1.09-3.996,1.054-5.86c-0.037-1.864-0.469-3.598-1.298-5.2c-0.664-1.284-1.56-2.441-2.687-3.473V104.07z
		 M308.05,84.168v19.902c-0.204,0.28-0.415,0.56-0.634,0.841c-0.545,0.698-1.103,1.35-1.669,1.954V96.399
		c0.381-0.999,0.584-1.938,0.607-2.819c0.029-1.067-0.173-2.05-0.607-2.952v-8.212c0.421,0.259,0.834,0.546,1.239,0.862l0.183,0.143
		C307.476,83.662,307.77,83.912,308.05,84.168L308.05,84.168z M308.05,125.708v5.951l-2.304-2.844v-1.241L308.05,125.708
		L308.05,125.708z M308.05,293.45v4.448l-2.09-1.464L308.05,293.45L308.05,293.45z M308.05,313.449v8.652
		c-0.507-0.732-1.106-1.48-1.798-2.249c-0.169-0.188-0.338-0.37-0.506-0.547v-7.563C306.522,312.233,307.291,312.802,308.05,313.449
		L308.05,313.449z M308.05,332.87v6.971c-0.28,0.111-0.564,0.212-0.853,0.302c-0.478,0.149-0.962,0.269-1.451,0.357v-6.174
		c0.79-0.298,1.508-0.737,2.153-1.316C307.95,332.963,308,332.917,308.05,332.87z M305.746,82.416v8.212
		c-0.462-0.961-1.188-1.829-2.177-2.602c-1.764-1.377-3.746-1.8-5.948-1.269c-0.225,0.054-0.451,0.122-0.677,0.201v-6.047
		C300.187,80.297,303.121,80.799,305.746,82.416L305.746,82.416z M305.746,96.399v10.465c-1.111,1.183-2.261,2.184-3.453,3.004
		c-1.781,1.226-3.564,2.053-5.349,2.485v-6.172c1.937-0.72,3.893-2.344,5.865-4.869C304.194,99.54,305.172,97.903,305.746,96.399
		L305.746,96.399z M305.746,127.573v1.241l-0.606-0.75L305.746,127.573L305.746,127.573z M305.746,311.742v7.563
		c-2.313-2.445-4.477-3.874-6.494-4.285c-0.793-0.162-1.563-0.185-2.308-0.068v-5.787c0.842-0.048,1.698-0.004,2.567,0.132
		c1.843,0.289,3.705,0.973,5.588,2.056C305.316,311.476,305.531,311.606,305.746,311.742L305.746,311.742z M305.746,334.327v6.174
		c-1.271,0.231-2.577,0.258-3.919,0.079c-1.604-0.214-3.231-0.744-4.882-1.591v-7.06c0.571,0.492,1.14,0.916,1.704,1.272
		c1.203,0.76,2.36,1.236,3.47,1.431c1.109,0.194,2.157,0.148,3.142-0.143C305.425,334.441,305.587,334.387,305.746,334.327z
		 M296.945,80.912v6.047c-1.987,0.698-4.014,2.371-6.083,5.019c-1.139,1.459-1.979,2.848-2.518,4.164
		c-0.54,1.316-0.808,2.539-0.808,3.666c0.001,1.126,0.23,2.149,0.687,3.07c0.456,0.919,1.095,1.7,1.916,2.341
		c1.702,1.33,3.669,1.74,5.902,1.233c0.301-0.068,0.602-0.158,0.904-0.271v6.172l-0.055,0.013c-1.803,0.427-3.58,0.447-5.332,0.057
		c-1.752-0.389-3.388-1.178-4.908-2.366l-0.182-0.142c-0.139-0.108-0.275-0.218-0.408-0.33V88.537l0.15-0.194
		c3.254-4.165,6.783-6.645,10.588-7.441l-0.036,0.045L296.945,80.912L296.945,80.912z M296.945,309.165v5.787
		c-1.287,0.2-2.5,0.816-3.644,1.846c-1.664,1.498-2.425,3.376-2.283,5.638c0.141,2.261,1.463,4.782,3.967,7.563
		c0.659,0.731,1.312,1.375,1.96,1.931v7.06c-0.263-0.134-0.526-0.277-0.79-0.428c-1.923-1.098-3.775-2.636-5.556-4.614
		c-2.134-2.37-3.647-4.732-4.539-7.086v-9.864c0.678-1.641,1.73-3.104,3.157-4.389l0.172-0.155c1.461-1.315,3.054-2.243,4.776-2.781
		C295.075,309.388,296.001,309.219,296.945,309.165L296.945,309.165z M286.061,355.645v-2.199l0.952,1.649L286.061,355.645z
		 M286.061,88.537v21.047c-1.294-1.093-2.318-2.366-3.07-3.819c-0.829-1.602-1.283-3.34-1.362-5.212
		c-0.079-1.874,0.256-3.852,1.002-5.936C283.356,92.596,284.499,90.57,286.061,88.537L286.061,88.537z M286.061,316.998v9.864
		c-0.586-1.548-0.903-3.093-0.952-4.634l0.038,0.043C285.1,320.346,285.404,318.587,286.061,316.998L286.061,316.998z
		 M286.061,353.445l-15.655-27.116l-5.112,2.951l16.608,28.766l4.159-2.401V353.445L286.061,353.445z M263.203,93.357v-6.168
		c0.502-0.139,1.008-0.336,1.514-0.593c2.044-1.032,3.818-3.24,5.325-6.624c1.521-3.418,2.044-6.205,1.568-8.359
		c-0.477-2.155-1.825-3.727-4.046-4.715c-1.463-0.651-2.917-0.801-4.362-0.448v-5.983c2.191-0.296,4.368,0.036,6.528,0.998
		l0.212,0.094c1.796,0.8,3.292,1.877,4.483,3.231c1.191,1.354,2.031,2.931,2.518,4.732c0.486,1.8,0.618,3.78,0.396,5.941
		c-0.223,2.159-0.875,4.456-1.958,6.887c-1.066,2.396-2.324,4.413-3.771,6.049c-1.446,1.636-2.992,2.879-4.638,3.731
		C265.756,92.759,264.5,93.168,263.203,93.357z M263.203,60.467v5.983c-0.574,0.139-1.145,0.358-1.716,0.656
		c-2.008,1.048-3.774,3.281-5.296,6.7c-0.753,1.691-1.231,3.242-1.436,4.649c-0.205,1.408-0.17,2.659,0.103,3.751
		c0.273,1.093,0.743,2.031,1.409,2.813c0.664,0.782,1.473,1.385,2.424,1.809c1.484,0.661,2.987,0.781,4.511,0.361v6.168
		c-0.458,0.067-0.921,0.106-1.39,0.118c-1.794,0.046-3.572-0.323-5.335-1.108l-0.21-0.095c-1.728-0.769-3.187-1.83-4.378-3.184
		c-1.193-1.354-2.053-2.931-2.583-4.729c-0.53-1.799-0.685-3.799-0.463-6.002c0.221-2.204,0.873-4.521,1.956-6.953
		c2.149-4.828,4.975-8.089,8.473-9.782l-0.023,0.052C260.572,61.046,261.89,60.644,263.203,60.467L263.203,60.467z M236.127,374.976
		v-3.112l1.327,2.925L236.127,374.976L236.127,374.976z M236.127,345.259v-4.31l20.614-7.098l1.921,5.581l-7.879,2.712l8.893,25.826
		l-6.074,2.091l-8.892-25.825l-7.988,2.75L236.127,345.259L236.127,345.259z M236.127,56.875v-5.994l6.466,1.14l-1.024,5.813
		L236.127,56.875z M236.127,50.881v5.994l-6.697-1.181l-1.275,7.237l7.807,1.377l-1.025,5.813l-7.808-1.377l-2.442,13.849
		l-2.374-0.418V62.065l2.33-13.209L236.127,50.881L236.127,50.881z M236.127,340.949v4.31l-1.327-3.852L236.127,340.949
		L236.127,340.949z M236.127,371.864l-12.98-28.607l-0.834,0.117v12.285l3.725,8.169l-3.725,0.524v6.662l6.363-0.895l2.475,5.555
		l4.977-0.699V371.864z M222.313,62.065v20.109l-3.439-0.607L222.313,62.065L222.313,62.065z M222.313,343.375v12.285l-1.934-4.241
		l-1.791,13.458l3.725-0.523v6.662l-4.583,0.644l-0.79,6.014l-6.362,0.894l5.062-34.253L222.313,343.375L222.313,343.375z
		 M187.663,369.605v-11.432l0.645,0.09c2.828,0.397,4.456-0.795,4.886-3.579c0.386-3.023-0.835-4.734-3.662-5.13l-1.869-0.263
		v-5.961l2.863,0.403c3.018,0.424,5.3,1.651,6.846,3.68s2.11,4.669,1.692,7.922c-0.328,2.331-1.099,4.208-2.312,5.635
		c-1.213,1.427-2.814,2.429-4.805,3.007l4.385,14.115l-6.303-0.886L187.663,369.605z M187.663,343.33v5.961l-4.377-0.615
		l-1.224,8.709l5.601,0.789v11.432l-1.781-5.722l-4.642-0.653l-1.756,12.493l-5.845-0.821l4.624-32.894L187.663,343.33
		L187.663,343.33z M135.102,341.228v-13.839c0.665,1.296,1.122,2.654,1.374,4.074c0.35,1.976,0.297,4.023-0.158,6.141
		C136.051,338.836,135.646,340.043,135.102,341.228L135.102,341.228z M135.102,99.709v-5.428l2.551,3.642L135.102,99.709
		L135.102,99.709z M135.102,69.798l10.96,24.616l5.392-2.4l-13.511-30.345l-2.841,1.266V69.798L135.102,69.798z M173.703,60.121
		c-1.134-0.965-2.241-1.601-3.32-1.906c-1.08-0.305-2.221-0.319-3.424-0.041c-2.255,0.521-3.807,1.819-4.654,3.896
		c-0.848,2.077-0.902,4.711-0.164,7.907c0.338,1.466,0.839,2.777,1.501,3.929c0.662,1.154,1.417,2.108,2.264,2.863
		s1.783,1.292,2.807,1.609c1.023,0.317,2.062,0.355,3.114,0.113c1.015-0.235,2.002-0.76,2.962-1.575
		c0.959-0.816,1.72-1.724,2.281-2.724l5.547,2.164c-1.74,4.639-4.903,7.487-9.488,8.545c-1.918,0.442-3.78,0.437-5.587-0.016
		c-1.807-0.454-3.465-1.289-4.973-2.505c-1.509-1.215-2.826-2.762-3.953-4.64c-1.125-1.878-1.962-4.001-2.509-6.37
		s-0.751-4.627-0.614-6.776c0.137-2.15,0.61-4.091,1.417-5.821c0.808-1.731,1.935-3.199,3.378-4.404
		c1.444-1.204,3.182-2.041,5.211-2.509c4.999-1.154,9.211,0.111,12.635,3.794L173.703,60.121L173.703,60.121z M150.712,333.561
		l17.235,5.934l-1.922,5.581l-11.654-4.013l-2.393,6.949l7.277,2.506l-1.921,5.581l-7.277-2.506l-2.656,7.714l11.654,4.014
		l-1.922,5.581l-17.235-5.934L150.712,333.561z M135.102,62.935v6.863l-2.55-5.728L135.102,62.935L135.102,62.935z M135.102,94.281
		v5.428l-2.664,1.865l-19.121-10.173v-6.738l12.497,6.644l-12.049-17.207l4.836-3.386L135.102,94.281L135.102,94.281z
		 M135.102,327.388v13.839c-0.392,0.851-0.856,1.689-1.392,2.514c-1.429,2.2-3.037,3.951-4.824,5.251
		c-1.787,1.3-3.669,2.16-5.643,2.58c-1.976,0.42-3.981,0.428-6.019,0.024c-1.33-0.263-2.632-0.705-3.908-1.324v-6.94l0.603,0.392
		c1.262,0.82,2.582,1.355,3.96,1.606c1.377,0.25,2.721,0.237,4.027-0.041c1.308-0.278,2.545-0.819,3.713-1.626
		c1.167-0.806,2.17-1.856,3.011-3.149c0.862-1.328,1.423-2.687,1.684-4.081c0.262-1.395,0.248-2.737-0.041-4.029
		c-0.288-1.291-0.832-2.506-1.633-3.647c-0.8-1.141-1.831-2.12-3.093-2.94l-2.184-1.418l-10.048,15.472v-10.836l8.313-12.801
		l8.008,5.201c1.909,1.24,3.438,2.727,4.589,4.463C134.549,326.384,134.841,326.881,135.102,327.388L135.102,327.388z
		 M113.316,311.197v-3.17l1.581,1.696L113.316,311.197L113.316,311.197z M113.316,104.029l5.138,7.337l4.834-3.385l-9.972-14.243
		V104.029z M113.316,84.664v6.738l-2.607-1.387l2.607,3.723v10.291l-7.559-10.795V80.646L113.316,84.664L113.316,84.664z
		 M113.316,308.027v3.17l-2.735,2.551l-4.823-5.173v-8.655L113.316,308.027L113.316,308.027z M113.316,329.033v10.836l-1.582,2.436
		l1.582,1.027v6.94c-0.679-0.33-1.35-0.709-2.013-1.14l-5.546-3.602v-4.858L113.316,329.033L113.316,329.033z M105.758,125.066
		v-8.997l1.9-2.186l4.455,3.873L105.758,125.066z M86.07,282.886l-6.427,3.563l3.844,6.934l-5.163,2.861l-3.844-6.934l-12.298,6.817
		l-2.862-5.162l29.052-16.104l8.837,15.944l-5.162,2.861L86.07,282.886L86.07,282.886z M105.758,80.646v12.588l-6.355-9.077
		l5.593-3.917L105.758,80.646L105.758,80.646z M105.758,116.069v8.997l-5.604,6.446L75.085,109.72l11.959-13.757l4.454,3.873
		l-8.086,9.302l5.546,4.822l5.05-5.809l4.455,3.872l-5.049,5.809l6.158,5.353L105.758,116.069L105.758,116.069z M105.758,299.921
		v8.655l-3.583-3.842l-5.375,5.013l5.249,5.628l-4.317,4.026l-5.249-5.629l-5.967,5.564l8.406,9.015l-4.317,4.026l-12.431-13.331
		l24.292-22.654L105.758,299.921L105.758,299.921z M105.758,340.672v4.858l-2.219-1.441L105.758,340.672L105.758,340.672z
		 M57.964,222.017l0.779,11.141l14.027-0.981l0.412,5.888l-33.135,2.317l-0.412-5.888l13.22-0.925l-0.779-11.141l-13.22,0.924
		l-0.412-5.888l33.135-2.317l0.412,5.888L57.964,222.017L57.964,222.017z M38.53,201.177l2.537-18.051l5.845,0.822l-1.715,12.207
		l7.278,1.022l1.071-7.622l5.845,0.821l-1.071,7.622l8.08,1.136l1.715-12.207l5.845,0.822L71.423,205.8L38.53,201.177L38.53,201.177
		z M44.714,168.018l1.922-5.581l25.825,8.892l4.352-12.639l5.581,1.922l-6.273,18.22L44.714,168.018L44.714,168.018z
		 M56.801,137.079l2.952-5.111l23.654,13.657l6.684-11.577l5.111,2.951l-9.635,16.688L56.801,137.079z"/>
	
		<path fill-rule="evenodd" clip-rule="evenodd" fill="none" stroke="#000000" stroke-width="0.1512" stroke-miterlimit="22.9256" d="
		M86.07,282.886l-6.427,3.563l3.844,6.934l-5.163,2.861l-3.844-6.934l-12.298,6.817l-2.862-5.162l29.052-16.104l8.837,15.944
		l-5.162,2.861L86.07,282.886L86.07,282.886z M57.964,222.017l0.779,11.141l14.027-0.981l0.412,5.888l-33.135,2.317l-0.412-5.888
		l13.22-0.925l-0.779-11.141l-13.22,0.924l-0.412-5.888l33.135-2.317l0.412,5.888L57.964,222.017L57.964,222.017z M38.53,201.177
		l2.537-18.051l5.845,0.822l-1.715,12.207l7.278,1.022l1.071-7.622l5.845,0.821l-1.071,7.622l8.08,1.136l1.715-12.207l5.845,0.822
		L71.423,205.8L38.53,201.177L38.53,201.177z M44.714,168.018l1.922-5.581l25.825,8.892l4.352-12.639l5.581,1.922l-6.273,18.22
		L44.714,168.018L44.714,168.018z M56.801,137.079l2.952-5.111l23.654,13.657l6.684-11.577l5.111,2.951l-9.635,16.688
		L56.801,137.079L56.801,137.079z M75.085,109.72l11.959-13.757l4.454,3.873l-8.086,9.302l5.546,4.822l5.05-5.809l4.455,3.872
		l-5.049,5.809l6.158,5.353l8.086-9.302l4.455,3.873l-11.959,13.757L75.085,109.72L75.085,109.72z M110.709,90.015l12.579,17.966
		l-4.834,3.385L99.402,84.157l5.593-3.917l20.818,11.067l-12.049-17.207l4.836-3.386l19.052,27.209l-5.215,3.651L110.709,90.015
		L110.709,90.015z M132.551,64.071l5.392-2.401l13.511,30.345l-5.392,2.4L132.551,64.071L132.551,64.071z M173.703,60.121
		c-1.134-0.965-2.241-1.601-3.32-1.906c-1.08-0.305-2.221-0.319-3.424-0.041c-2.255,0.521-3.807,1.819-4.654,3.896
		c-0.848,2.077-0.902,4.711-0.164,7.907c0.338,1.466,0.839,2.777,1.501,3.929c0.662,1.154,1.417,2.108,2.264,2.863
		s1.783,1.292,2.807,1.609c1.023,0.317,2.062,0.355,3.114,0.113c1.015-0.235,2.002-0.76,2.962-1.575
		c0.959-0.816,1.72-1.724,2.281-2.724l5.547,2.164c-1.74,4.639-4.903,7.487-9.488,8.545c-1.918,0.442-3.78,0.437-5.587-0.016
		c-1.807-0.454-3.465-1.289-4.973-2.505c-1.509-1.215-2.826-2.762-3.953-4.64c-1.125-1.878-1.962-4.001-2.509-6.37
		s-0.751-4.627-0.614-6.776c0.137-2.15,0.61-4.091,1.417-5.821c0.808-1.731,1.935-3.199,3.378-4.404
		c1.444-1.204,3.182-2.041,5.211-2.509c4.999-1.154,9.211,0.111,12.635,3.794L173.703,60.121L173.703,60.121z M229.43,55.694
		l-1.275,7.237l7.807,1.377l-1.025,5.813l-7.808-1.377l-2.442,13.849l-5.813-1.025l5.769-32.711l17.95,3.166l-1.024,5.813
		L229.43,55.694L229.43,55.694z M267.564,66.898c-2.044-0.91-4.07-0.841-6.078,0.208c-2.008,1.048-3.774,3.281-5.296,6.7
		c-0.753,1.691-1.231,3.242-1.436,4.649c-0.205,1.408-0.17,2.659,0.103,3.751c0.273,1.093,0.743,2.031,1.409,2.813
		c0.664,0.782,1.473,1.385,2.424,1.809c1.974,0.879,3.982,0.801,6.025-0.232c2.044-1.032,3.818-3.24,5.325-6.624
		c1.521-3.418,2.044-6.205,1.568-8.359C271.134,69.458,269.786,67.886,267.564,66.898L267.564,66.898z M256.268,92.272
		c-1.728-0.769-3.187-1.83-4.378-3.184c-1.193-1.354-2.053-2.931-2.583-4.729c-0.53-1.799-0.685-3.799-0.463-6.002
		c0.221-2.204,0.873-4.521,1.956-6.953c2.149-4.828,4.975-8.089,8.473-9.782l-0.023,0.052c3.534-1.678,7.029-1.748,10.482-0.21
		l0.212,0.094c1.796,0.8,3.292,1.877,4.483,3.231c1.191,1.354,2.031,2.931,2.518,4.732c0.486,1.8,0.618,3.78,0.396,5.941
		c-0.223,2.159-0.875,4.456-1.958,6.887c-1.066,2.396-2.324,4.413-3.771,6.049c-1.446,1.636-2.992,2.879-4.638,3.731
		c-1.646,0.85-3.366,1.298-5.16,1.344c-1.794,0.046-3.572-0.323-5.335-1.108L256.268,92.272L256.268,92.272z M303.569,88.026
		c-1.764-1.377-3.746-1.8-5.948-1.269c-2.203,0.531-4.456,2.271-6.76,5.22c-1.139,1.459-1.979,2.848-2.518,4.164
		c-0.54,1.316-0.808,2.539-0.808,3.666c0.001,1.126,0.23,2.149,0.687,3.07c0.456,0.919,1.095,1.7,1.916,2.341
		c1.702,1.33,3.669,1.74,5.902,1.233c2.232-0.507,4.489-2.22,6.769-5.14c2.304-2.948,3.486-5.525,3.543-7.731
		C306.413,91.374,305.485,89.523,303.569,88.026L303.569,88.026z M286.469,109.915c-1.49-1.164-2.649-2.547-3.478-4.149
		c-0.829-1.602-1.283-3.34-1.362-5.212c-0.079-1.874,0.256-3.852,1.002-5.936c0.748-2.085,1.941-4.176,3.58-6.274
		c3.254-4.165,6.783-6.645,10.588-7.441l-0.036,0.045c3.835-0.773,7.243,0.004,10.221,2.332l0.183,0.143
		c1.55,1.211,2.74,2.618,3.569,4.22c0.829,1.602,1.262,3.336,1.298,5.2c0.036,1.865-0.314,3.818-1.054,5.86
		c-0.738,2.041-1.927,4.112-3.565,6.209c-1.615,2.067-3.323,3.72-5.122,4.958c-1.799,1.238-3.601,2.07-5.403,2.498
		s-3.58,0.447-5.332,0.057c-1.752-0.389-3.388-1.178-4.908-2.366L286.469,109.915L286.469,109.915z M330.408,115.868l-21.227,17.189
		l-4.042-4.992l21.227-17.189l-5.316-6.565l4.586-3.715l14.603,18.033l-4.586,3.715L330.408,115.868L330.408,115.868z
		 M345.126,138.663l-6.489,3.45l2.39,4.497c0.381,0.715,1.044,1.161,1.989,1.335c0.945,0.175,1.86,0.026,2.746-0.444
		c0.886-0.471,1.499-1.125,1.841-1.962c0.341-0.837,0.313-1.63-0.085-2.379L345.126,138.663L345.126,138.663z M333.425,144.884
		l-7.204,3.831l2.852,5.365c0.525,0.988,1.279,1.625,2.262,1.911c0.982,0.286,2.053,0.121,3.21-0.495
		c1.159-0.616,1.872-1.389,2.142-2.319c0.271-0.93,0.151-1.872-0.354-2.825L333.425,144.884L333.425,144.884z M352.674,140.286
		c0.561,1.056,0.921,2.164,1.079,3.325c0.159,1.161,0.088,2.28-0.213,3.357c-0.301,1.078-0.841,2.097-1.619,3.057
		c-0.778,0.959-1.815,1.784-3.109,2.472c-1.125,0.597-2.207,0.944-3.249,1.039c-1.041,0.095-2.042-0.018-2.999-0.339
		c0.137,1.326-0.144,2.709-0.841,4.151c-0.697,1.44-2.017,2.678-3.958,3.71c-2.896,1.539-5.583,1.887-8.064,1.043
		c-2.479-0.845-4.572-2.867-6.274-6.068l-5.189-9.759l29.329-15.594L352.674,140.286L352.674,140.286z M344.1,176.952l1.82,7.299
		l11.751-6.926L344.1,176.952L344.1,176.952z M366.077,179.226l-29.863,17.524l-1.541-6.176l5.266-3.042l-2.674-10.725l-6.063-0.158
		l-1.554-6.232l34.595,1.453L366.077,179.226L366.077,179.226z M369.206,202.468l0.206,5.899l-27.297,0.953l0.466,13.36
		l-5.899,0.205l-0.672-19.258L369.206,202.468L369.206,202.468z M367.923,236.433l-1.025,5.813L340,237.503l-2.321,13.164
		l-5.813-1.024l3.346-18.978L367.923,236.433L367.923,236.433z M102.466,296.391l12.431,13.332l-4.316,4.026l-8.406-9.015
		l-5.375,5.013l5.249,5.628l-4.317,4.026l-5.249-5.629l-5.967,5.564l8.406,9.015l-4.317,4.026l-12.431-13.331L102.466,296.391
		L102.466,296.391z M123.365,324.397l-11.63,17.908l2.184,1.418c1.262,0.82,2.582,1.355,3.96,1.606
		c1.377,0.25,2.721,0.237,4.027-0.041c1.308-0.278,2.545-0.819,3.713-1.626c1.167-0.806,2.17-1.856,3.011-3.149
		c0.862-1.328,1.423-2.687,1.684-4.081c0.262-1.395,0.248-2.737-0.041-4.029c-0.288-1.291-0.832-2.506-1.633-3.647
		c-0.8-1.141-1.831-2.12-3.093-2.94L123.365,324.397L123.365,324.397z M103.539,344.089l18.091-27.857l8.008,5.201
		c1.909,1.24,3.438,2.727,4.589,4.463c1.149,1.735,1.899,3.591,2.249,5.566c0.35,1.976,0.297,4.023-0.158,6.141
		c-0.457,2.12-1.325,4.166-2.607,6.139c-1.429,2.2-3.037,3.951-4.824,5.251c-1.787,1.3-3.669,2.16-5.643,2.58
		c-1.976,0.42-3.981,0.428-6.019,0.024c-2.038-0.403-4.012-1.225-5.92-2.464L103.539,344.089L103.539,344.089z M150.712,333.561
		l17.235,5.934l-1.922,5.581l-11.654-4.013l-2.393,6.949l7.277,2.506l-1.921,5.581l-7.277-2.506l-2.656,7.714l11.654,4.014
		l-1.922,5.581l-17.235-5.934L150.712,333.561L150.712,333.561z M183.286,348.675l-1.224,8.709l6.246,0.878
		c2.828,0.397,4.456-0.795,4.886-3.579c0.386-3.023-0.835-4.734-3.662-5.13L183.286,348.675L183.286,348.675z M185.881,363.883
		l-4.642-0.653l-1.756,12.493l-5.845-0.821l4.624-32.894l12.263,1.724c3.018,0.424,5.3,1.651,6.846,3.68s2.11,4.669,1.692,7.922
		c-0.328,2.331-1.099,4.208-2.312,5.635c-1.213,1.427-2.814,2.429-4.805,3.007l4.385,14.115l-6.303-0.886L185.881,363.883
		L185.881,363.883z M218.588,364.876l7.45-1.047l-5.659-12.411L218.588,364.876L218.588,364.876z M223.147,343.257l14.307,31.532
		l-6.303,0.886l-2.475-5.555l-10.946,1.538l-0.79,6.014l-6.362,0.894l5.062-34.253L223.147,343.257L223.147,343.257z
		 M250.783,342.145l8.893,25.826l-6.074,2.091l-8.892-25.825l-7.988,2.75l-1.922-5.58l21.941-7.555l1.921,5.581L250.783,342.145
		L250.783,342.145z M265.294,329.28l5.112-2.951l16.607,28.766l-5.111,2.951L265.294,329.28L265.294,329.28z M293.301,316.797
		c-1.664,1.498-2.425,3.376-2.283,5.638c0.141,2.261,1.463,4.782,3.967,7.563c1.24,1.376,2.461,2.443,3.664,3.204
		c1.203,0.76,2.36,1.236,3.47,1.431c1.109,0.194,2.157,0.148,3.142-0.143c0.983-0.29,1.864-0.783,2.639-1.48
		c1.605-1.446,2.351-3.312,2.239-5.599c-0.112-2.287-1.407-4.806-3.886-7.56c-2.504-2.78-4.836-4.392-7-4.832
		C297.09,314.579,295.106,315.171,293.301,316.797L293.301,316.797z M311.886,337.439c-1.405,1.265-2.968,2.167-4.689,2.705
		c-1.721,0.539-3.512,0.684-5.37,0.437c-1.859-0.248-3.749-0.921-5.672-2.019s-3.775-2.636-5.556-4.614
		c-3.537-3.927-5.367-7.834-5.491-11.72l0.038,0.043c-0.096-3.912,1.262-7.133,4.071-9.662l0.172-0.155
		c1.461-1.315,3.054-2.243,4.776-2.781c1.721-0.538,3.504-0.663,5.346-0.375c1.843,0.289,3.705,0.973,5.588,2.056
		c1.882,1.081,3.715,2.611,5.496,4.589c1.755,1.95,3.087,3.918,3.993,5.906c0.907,1.986,1.414,3.905,1.522,5.754
		c0.107,1.85-0.183,3.603-0.87,5.261c-0.688,1.657-1.749,3.131-3.182,4.422L311.886,337.439L311.886,337.439z M318.589,298.072
		l17.965,12.579l-3.386,4.834l-27.209-19.052l3.917-5.593l23.347,3.279l-17.207-12.048l3.385-4.835l27.209,19.052l-3.65,5.214
		L318.589,298.072z"/>
</g>
<g>
	<defs>
		<path id="SVGID_13_" d="M350.359,237.167v-5.994l17.038,3.005l-1.024,5.812L350.359,237.167L350.359,237.167z M350.359,206.758
			v-5.906l18.321-0.64l0.206,5.899L350.359,206.758L350.359,206.758z M350.359,185.885v-6.816l6.785-3.999l-6.785-0.187v-5.83
			l13.357,0.561l1.834,7.356L350.359,185.885L350.359,185.885z M350.359,148.838v-14.173l1.789,3.366
			c0.561,1.056,0.921,2.164,1.079,3.325c0.159,1.161,0.088,2.28-0.213,3.357c-0.301,1.078-0.84,2.097-1.618,3.057
			C351.089,148.146,350.744,148.503,350.359,148.838z M350.359,134.665v14.173c-0.596,0.518-1.287,0.986-2.073,1.404
			c-1.124,0.597-2.207,0.944-3.249,1.039c-0.8,0.073-1.576,0.024-2.327-0.149v-5.408c0.867,0.115,1.709-0.046,2.525-0.479
			c0.886-0.47,1.499-1.125,1.841-1.962c0.341-0.837,0.313-1.63-0.085-2.379l-2.391-4.496l-1.89,1.004v-6.685l4.331-2.302
			L350.359,134.665L350.359,134.665z M350.359,169.053v5.83l-6.786-0.187l1.82,7.299l4.966-2.926v6.816l-7.649,4.488v-21.641
			L350.359,169.053L350.359,169.053z M350.359,200.853v5.906l-7.649,0.267v-5.906L350.359,200.853L350.359,200.853z
			 M350.359,231.173v5.994l-7.649-1.348v-5.995L350.359,231.173L350.359,231.173z M342.71,298.853v-7.183l3.375,2.362
			L342.71,298.853z M342.71,130.727v6.685l-4.6,2.446l2.391,4.497c0.38,0.715,1.043,1.161,1.988,1.334
			c0.074,0.014,0.147,0.026,0.221,0.036v5.408c-0.226-0.052-0.45-0.116-0.672-0.19c0.137,1.326-0.144,2.709-0.841,4.151
			c-0.696,1.441-2.017,2.678-3.958,3.709c-2.896,1.54-5.583,1.887-8.064,1.044c-0.155-0.053-0.31-0.111-0.462-0.173v-7.562
			c0.513,0.825,1.212,1.365,2.096,1.623c0.982,0.286,2.052,0.121,3.21-0.495c1.159-0.616,1.873-1.389,2.143-2.319
			c0.271-0.93,0.151-1.872-0.355-2.825l-2.908-5.467l-4.186,2.226v-6.685L342.71,130.727L342.71,130.727z M342.71,168.731v21.641
			l-7.023,4.122l-1.541-6.176l5.266-3.042l-2.674-10.726l-6.064-0.158l-1.554-6.232L342.71,168.731L342.71,168.731z M342.71,201.12
			v5.906l-1.121,0.039l0.466,13.36l-5.899,0.206l-0.672-19.258L342.71,201.12L342.71,201.12z M342.71,229.824v5.995l-3.237-0.572
			l-2.321,13.165l-5.813-1.025l3.346-18.978L342.71,229.824L342.71,229.824z M342.71,291.67v7.183l-0.275,0.395l-13.722-1.932
			v-6.011l3.984,0.56l-3.984-2.792v-7.204L342.71,291.67L342.71,291.67z M328.713,310.479v-7.206l7.316,5.122l-3.386,4.835
			L328.713,310.479L328.713,310.479z M328.713,114.559v-11.771l11,13.584l-4.587,3.715l-5.245-6.476L328.713,114.559z
			 M328.713,102.789v11.771l-20.058,16.242l-1.132-1.398v-5.95l18.316-14.833l-5.316-6.565l4.586-3.715L328.713,102.789
			L328.713,102.789z M328.713,138.169v6.685l-3.018,1.604l2.853,5.365c0.053,0.099,0.107,0.196,0.166,0.288v7.562
			c-2.278-0.931-4.216-2.895-5.812-5.896l-5.189-9.76L328.713,138.169L328.713,138.169z M328.713,281.869v7.204l-13.222-9.257
			l3.385-4.835L328.713,281.869L328.713,281.869z M328.713,291.305l-19.362-2.72l-1.827,2.61v4.447l21.189,14.837v-7.206
			l-10.65-7.457l10.65,1.5V291.305L328.713,291.305z M307.523,337.586v-6.971c1.501-1.425,2.196-3.245,2.088-5.458
			c-0.081-1.649-0.777-3.419-2.088-5.311v-8.652c0.859,0.732,1.708,1.563,2.546,2.493c1.755,1.949,3.086,3.918,3.993,5.905
			c0.907,1.987,1.414,3.905,1.522,5.755c0.107,1.849-0.183,3.604-0.87,5.261c-0.688,1.657-1.749,3.131-3.182,4.421l-0.172,0.154
			C310.191,336.236,308.912,337.037,307.523,337.586L307.523,337.586z M307.523,101.814c1.314-1.811,2.292-3.601,2.931-5.369
			c0.739-2.042,1.09-3.996,1.054-5.86c-0.037-1.865-0.469-3.599-1.298-5.2c-0.664-1.284-1.56-2.441-2.687-3.473V101.814z
			 M307.523,81.913v19.902c-0.204,0.28-0.415,0.56-0.634,0.841c-0.545,0.698-1.102,1.35-1.669,1.953V94.143
			c0.381-0.999,0.583-1.938,0.606-2.818c0.029-1.067-0.173-2.05-0.606-2.951V80.16c0.42,0.259,0.833,0.546,1.238,0.863l0.183,0.143
			C306.949,81.407,307.243,81.656,307.523,81.913L307.523,81.913z M307.523,123.453v5.95l-2.303-2.844v-1.241L307.523,123.453
			L307.523,123.453z M307.523,291.195v4.447l-2.09-1.463L307.523,291.195L307.523,291.195z M307.523,311.193v8.652
			c-0.507-0.731-1.106-1.48-1.798-2.248c-0.169-0.188-0.338-0.371-0.505-0.548v-7.562
			C305.996,309.978,306.764,310.547,307.523,311.193L307.523,311.193z M307.523,330.615v6.971c-0.28,0.111-0.564,0.212-0.853,0.302
			c-0.478,0.149-0.962,0.268-1.45,0.357v-6.174c0.79-0.298,1.508-0.736,2.152-1.316
			C307.424,330.708,307.474,330.662,307.523,330.615z M305.22,80.16v8.213c-0.462-0.962-1.188-1.83-2.177-2.603
			c-1.763-1.377-3.746-1.8-5.948-1.269c-0.225,0.054-0.451,0.122-0.677,0.201v-6.047C299.66,78.042,302.594,78.543,305.22,80.16
			L305.22,80.16z M305.22,94.143v10.465c-1.111,1.183-2.262,2.185-3.453,3.004c-1.781,1.226-3.564,2.054-5.349,2.485v-6.172
			c1.937-0.72,3.893-2.344,5.865-4.869C303.668,97.284,304.646,95.647,305.22,94.143L305.22,94.143z M305.22,125.318v1.241
			l-0.607-0.749L305.22,125.318L305.22,125.318z M305.22,309.487v7.562c-2.313-2.444-4.478-3.873-6.493-4.284
			c-0.794-0.162-1.563-0.185-2.309-0.069v-5.786c0.842-0.048,1.698-0.004,2.567,0.131c1.843,0.289,3.705,0.973,5.588,2.056
			C304.79,309.221,305.005,309.351,305.22,309.487L305.22,309.487z M305.22,332.071v6.174c-1.271,0.231-2.578,0.258-3.919,0.08
			c-1.604-0.215-3.231-0.745-4.882-1.591v-7.06c0.571,0.491,1.14,0.915,1.704,1.271c1.203,0.76,2.359,1.237,3.469,1.431
			c1.109,0.195,2.157,0.148,3.142-0.142C304.899,332.187,305.061,332.131,305.22,332.071z M296.418,78.656v6.047
			c-1.987,0.699-4.014,2.371-6.083,5.018c-1.14,1.46-1.98,2.848-2.519,4.165c-0.54,1.316-0.808,2.539-0.807,3.666
			c0.001,1.126,0.229,2.149,0.686,3.07c0.456,0.919,1.095,1.7,1.916,2.341c1.702,1.33,3.669,1.74,5.902,1.233
			c0.301-0.068,0.602-0.158,0.904-0.271v6.172l-0.055,0.013c-1.802,0.427-3.58,0.446-5.332,0.057
			c-1.752-0.39-3.388-1.179-4.907-2.366l-0.183-0.142c-0.139-0.108-0.275-0.219-0.408-0.331V86.282l0.15-0.194
			c3.254-4.164,6.783-6.645,10.588-7.442l-0.036,0.045L296.418,78.656L296.418,78.656z M296.418,306.91v5.786
			c-1.286,0.201-2.5,0.817-3.644,1.846c-1.664,1.497-2.424,3.376-2.283,5.637c0.141,2.262,1.463,4.782,3.967,7.563
			c0.658,0.731,1.312,1.375,1.96,1.932v7.06c-0.263-0.135-0.526-0.278-0.79-0.428c-1.923-1.098-3.775-2.636-5.556-4.615
			c-2.134-2.369-3.647-4.731-4.539-7.085v-9.864c0.678-1.641,1.73-3.104,3.157-4.389l0.172-0.155
			c1.462-1.316,3.054-2.244,4.776-2.782C294.549,307.133,295.475,306.963,296.418,306.91L296.418,306.91z M285.534,353.389v-2.2
			l0.953,1.65L285.534,353.389z M285.534,86.282v21.047c-1.294-1.093-2.318-2.365-3.069-3.818c-0.829-1.602-1.283-3.34-1.362-5.213
			c-0.079-1.873,0.256-3.852,1.003-5.936C282.83,90.341,283.972,88.315,285.534,86.282L285.534,86.282z M285.534,314.742v9.864
			c-0.586-1.548-0.903-3.093-0.952-4.634l0.038,0.043C284.573,318.09,284.878,316.333,285.534,314.742L285.534,314.742z
			 M285.534,351.189l-15.655-27.116l-5.112,2.951l16.608,28.767l4.159-2.402V351.189L285.534,351.189z M262.676,91.102v-6.168
			c0.502-0.139,1.008-0.336,1.514-0.592c2.044-1.032,3.818-3.241,5.325-6.625c1.522-3.418,2.045-6.205,1.567-8.359
			c-0.476-2.155-1.824-3.727-4.044-4.715c-1.464-0.652-2.918-0.801-4.363-0.449v-5.982c2.191-0.296,4.368,0.036,6.528,0.998
			l0.212,0.094c1.796,0.8,3.292,1.877,4.483,3.232c1.192,1.354,2.031,2.93,2.518,4.731c0.486,1.8,0.618,3.78,0.396,5.94
			c-0.223,2.159-0.875,4.456-1.958,6.888c-1.067,2.396-2.324,4.413-3.771,6.049s-2.993,2.879-4.638,3.731
			C265.23,90.503,263.973,90.913,262.676,91.102z M262.676,58.211v5.982c-0.574,0.14-1.145,0.358-1.716,0.656
			c-2.008,1.048-3.774,3.282-5.296,6.7c-0.753,1.692-1.232,3.242-1.436,4.65c-0.205,1.408-0.17,2.659,0.103,3.751
			s0.743,2.03,1.409,2.813c0.665,0.782,1.473,1.385,2.424,1.809c1.484,0.661,2.987,0.781,4.511,0.361v6.168
			c-0.458,0.066-0.921,0.105-1.39,0.118c-1.794,0.045-3.572-0.324-5.335-1.108l-0.21-0.094c-1.728-0.769-3.187-1.83-4.378-3.184
			c-1.193-1.354-2.053-2.931-2.583-4.729c-0.529-1.798-0.684-3.799-0.463-6.002c0.22-2.204,0.872-4.521,1.955-6.953
			c2.149-4.828,4.975-8.089,8.473-9.783l-0.023,0.053C260.046,58.791,261.364,58.389,262.676,58.211L262.676,58.211z
			 M235.601,372.72v-3.111l1.328,2.925L235.601,372.72L235.601,372.72z M235.601,343.003v-4.309l20.614-7.099l1.921,5.582
			l-7.879,2.712l8.893,25.826l-6.074,2.092l-8.892-25.826l-7.988,2.75L235.601,343.003L235.601,343.003z M235.601,54.619v-5.993
			l6.466,1.14l-1.024,5.812L235.601,54.619z M235.601,48.626v5.993l-6.697-1.181l-1.276,7.237l7.807,1.377l-1.025,5.813
			l-7.808-1.377l-2.442,13.848l-2.374-0.418V59.81l2.33-13.209L235.601,48.626L235.601,48.626z M235.601,338.694v4.309l-1.327-3.853
			L235.601,338.694L235.601,338.694z M235.601,369.609l-12.98-28.607l-0.834,0.117v12.287l3.726,8.168l-3.726,0.524v6.662
			l6.363-0.894l2.475,5.554l4.977-0.699V369.609z M221.787,59.81v20.109l-3.439-0.606L221.787,59.81L221.787,59.81z
			 M221.787,341.119v12.287l-1.934-4.242l-1.791,13.457l3.725-0.523v6.662l-4.583,0.643l-0.79,6.015l-6.362,0.894l5.062-34.254
			L221.787,341.119L221.787,341.119z M187.136,367.349v-11.432l0.645,0.091c2.828,0.397,4.457-0.796,4.886-3.58
			c0.386-3.023-0.835-4.734-3.662-5.131l-1.869-0.263v-5.96l2.863,0.403c3.017,0.424,5.299,1.65,6.845,3.68
			c1.546,2.028,2.11,4.669,1.692,7.922c-0.328,2.33-1.099,4.208-2.312,5.635c-1.213,1.427-2.814,2.429-4.804,3.006l4.385,14.116
			l-6.303-0.886L187.136,367.349z M187.136,341.074v5.96l-4.377-0.615l-1.224,8.71l5.601,0.788v11.432l-1.781-5.722l-4.642-0.652
			l-1.756,12.492l-5.845-0.821l4.624-32.893L187.136,341.074L187.136,341.074z M134.575,338.972v-13.839
			c0.665,1.295,1.122,2.654,1.374,4.074c0.35,1.975,0.297,4.023-0.158,6.141C135.524,336.581,135.12,337.788,134.575,338.972
			L134.575,338.972z M134.575,97.454v-5.428l2.551,3.642L134.575,97.454L134.575,97.454z M134.575,67.543l10.96,24.616l5.392-2.4
			l-13.51-30.345l-2.842,1.265V67.543L134.575,67.543z M173.176,57.865c-1.134-0.965-2.241-1.601-3.32-1.905
			c-1.08-0.306-2.221-0.319-3.424-0.042c-2.255,0.521-3.807,1.819-4.654,3.896c-0.847,2.076-0.902,4.711-0.164,7.906
			c0.338,1.467,0.839,2.777,1.501,3.93s1.417,2.107,2.264,2.862c0.848,0.754,1.783,1.291,2.807,1.61
			c1.023,0.317,2.062,0.354,3.114,0.112c1.015-0.234,2.002-0.759,2.962-1.575c0.959-0.816,1.72-1.724,2.281-2.724l5.547,2.164
			c-1.74,4.639-4.903,7.487-9.489,8.545c-1.917,0.442-3.78,0.437-5.587-0.017c-1.807-0.454-3.465-1.289-4.973-2.504
			c-1.508-1.216-2.826-2.763-3.953-4.641c-1.126-1.878-1.962-4.001-2.509-6.369c-0.547-2.368-0.752-4.627-0.615-6.776
			c0.137-2.15,0.61-4.091,1.417-5.821c0.808-1.731,1.935-3.199,3.378-4.404c1.444-1.204,3.182-2.041,5.211-2.509
			c4.999-1.154,9.211,0.111,12.635,3.794L173.176,57.865L173.176,57.865z M150.186,331.305l17.235,5.935l-1.922,5.581l-11.654-4.013
			l-2.393,6.949l7.277,2.506l-1.921,5.581l-7.278-2.505l-2.656,7.714l11.654,4.013l-1.922,5.58l-17.235-5.934L150.186,331.305z
			 M134.575,60.679v6.864l-2.55-5.729L134.575,60.679L134.575,60.679z M134.575,92.026v5.428l-2.664,1.865L112.79,89.146v-6.738
			l12.497,6.644l-12.049-17.207l4.836-3.386L134.575,92.026L134.575,92.026z M134.575,325.133v13.839
			c-0.391,0.851-0.855,1.689-1.392,2.515c-1.429,2.2-3.037,3.95-4.824,5.25c-1.788,1.301-3.669,2.161-5.643,2.581
			c-1.975,0.419-3.98,0.428-6.019,0.024c-1.33-0.263-2.633-0.706-3.908-1.325v-6.939l0.603,0.392
			c1.262,0.819,2.581,1.354,3.96,1.605c1.377,0.25,2.721,0.237,4.027-0.041c1.308-0.278,2.545-0.819,3.713-1.625
			c1.167-0.806,2.17-1.856,3.011-3.15c0.862-1.327,1.423-2.687,1.684-4.081c0.262-1.395,0.249-2.738-0.04-4.029
			c-0.288-1.292-0.833-2.507-1.633-3.648c-0.801-1.141-1.832-2.12-3.093-2.94l-2.184-1.418l-10.048,15.473v-10.837l8.313-12.8
			l8.008,5.201c1.909,1.239,3.438,2.727,4.589,4.462C134.023,324.128,134.315,324.626,134.575,325.133L134.575,325.133z
			 M112.79,308.942v-3.17l1.582,1.695L112.79,308.942L112.79,308.942z M112.79,101.773l5.138,7.337l4.834-3.385l-9.972-14.243
			V101.773z M112.79,82.409v6.738l-2.607-1.387l2.607,3.723v10.291l-7.559-10.795V78.391L112.79,82.409L112.79,82.409z
			 M112.79,305.771v3.17l-2.735,2.551l-4.823-5.172v-8.655L112.79,305.771L112.79,305.771z M112.79,326.777v10.837l-1.582,2.436
			l1.582,1.027v6.939c-0.679-0.329-1.35-0.708-2.013-1.139l-5.546-3.602v-4.858L112.79,326.777L112.79,326.777z M105.231,122.811
			v-8.997l1.9-2.186l4.455,3.873L105.231,122.811z M85.544,280.631l-6.427,3.563l3.844,6.934l-5.163,2.862l-3.844-6.935
			l-12.298,6.817l-2.861-5.162l29.051-16.104l8.837,15.943l-5.162,2.861L85.544,280.631L85.544,280.631z M105.231,78.391v12.587
			l-6.355-9.077l5.593-3.916L105.231,78.391L105.231,78.391z M105.231,113.813v8.997l-5.604,6.446L74.56,107.465l11.958-13.757
			l4.454,3.873l-8.086,9.302l5.546,4.822l5.05-5.809l4.455,3.872l-5.049,5.809l6.158,5.353L105.231,113.813L105.231,113.813z
			 M105.231,297.666v8.655l-3.583-3.842l-5.375,5.013l5.249,5.628l-4.317,4.025l-5.249-5.629l-5.967,5.565l8.406,9.015l-4.316,4.025
			L77.647,316.79l24.292-22.653L105.231,297.666L105.231,297.666z M105.231,338.417v4.858l-2.219-1.441L105.231,338.417
			L105.231,338.417z M57.438,219.761l0.779,11.141l14.028-0.98l0.412,5.888l-33.135,2.316l-0.412-5.888l13.22-0.925l-0.779-11.141
			l-13.22,0.925l-0.411-5.889l33.135-2.317l0.411,5.888L57.438,219.761L57.438,219.761z M38.004,198.922l2.537-18.051l5.845,0.822
			l-1.715,12.206l7.278,1.023l1.071-7.622l5.845,0.822l-1.071,7.622l8.08,1.136l1.715-12.207l5.845,0.821l-2.536,18.051
			L38.004,198.922L38.004,198.922z M44.188,165.762l1.922-5.581l25.825,8.892l4.352-12.639l5.581,1.921l-6.273,18.22L44.188,165.762
			L44.188,165.762z M56.275,134.824l2.952-5.112l23.654,13.657l6.684-11.576l5.111,2.951l-9.635,16.688L56.275,134.824z"/>
	</defs>
	<use xlink:href="#SVGID_13_"  overflow="visible" fill-rule="evenodd" clip-rule="evenodd" fill="#B1B3B4"/>
	<clipPath id="SVGID_14_">
		<use xlink:href="#SVGID_13_"  overflow="visible"/>
	</clipPath>
	<g clip-path="url(#SVGID_14_)">
		<g>
			<radialGradient id="SVGID_15_" cx="201.9497" cy="77.6396" r="85.2848" gradientUnits="userSpaceOnUse">
				<stop  offset="0" style="stop-color:#FFFFFF"/>
				<stop  offset="0.2044" style="stop-color:#F4F4F5"/>
				<stop  offset="0.5997" style="stop-color:#D6D7D8"/>
				<stop  offset="1" style="stop-color:#B1B3B4"/>
			</radialGradient>
			<path fill-rule="evenodd" clip-rule="evenodd" fill="url(#SVGID_15_)" d="M201.95,155.279
				c79.416,0,144.188-41.535,144.188-92.461C346.138,11.892,317.791,0,204.339,0S57.762,11.892,57.762,62.818
				C57.762,113.744,122.534,155.279,201.95,155.279z"/>
			<radialGradient id="SVGID_16_" cx="79.8247" cy="201.3574" r="63.2173" gradientUnits="userSpaceOnUse">
				<stop  offset="0" style="stop-color:#FFFFFF"/>
				<stop  offset="0.2044" style="stop-color:#F4F4F5"/>
				<stop  offset="0.5997" style="stop-color:#D6D7D8"/>
				<stop  offset="1" style="stop-color:#B1B3B4"/>
			</radialGradient>
			<path fill-rule="evenodd" clip-rule="evenodd" fill="url(#SVGID_16_)" d="M49.765,293.819
				c60.522,0,109.884-41.536,109.884-92.461c0-50.926-49.362-92.461-109.884-92.461S0.902,150.432,0.902,201.358
				C0.902,252.283-10.757,293.819,49.765,293.819z"/>
			<radialGradient id="SVGID_17_" cx="189.5938" cy="331.7573" r="69.262" gradientUnits="userSpaceOnUse">
				<stop  offset="0" style="stop-color:#FFFFFF"/>
				<stop  offset="0.2044" style="stop-color:#F4F4F5"/>
				<stop  offset="0.5997" style="stop-color:#D6D7D8"/>
				<stop  offset="1" style="stop-color:#B1B3B4"/>
			</radialGradient>
			<path fill-rule="evenodd" clip-rule="evenodd" fill="url(#SVGID_17_)" d="M189.594,405.162
				c63.173,0,114.698-3.423,114.698-54.349s-51.524-92.461-114.698-92.461S74.896,299.888,74.896,350.813
				S126.42,405.162,189.594,405.162z"/>
			<radialGradient id="SVGID_18_" cx="314.022" cy="211.8945" r="66.8529" gradientUnits="userSpaceOnUse">
				<stop  offset="0" style="stop-color:#FFFFFF"/>
				<stop  offset="0.2044" style="stop-color:#F4F4F5"/>
				<stop  offset="0.5997" style="stop-color:#D6D7D8"/>
				<stop  offset="1" style="stop-color:#B1B3B4"/>
			</radialGradient>
			<path fill-rule="evenodd" clip-rule="evenodd" fill="url(#SVGID_18_)" d="M314.022,304.356c46.283,0,84.033-41.535,84.033-92.461
				c0-50.926-37.75-92.461-84.033-92.461c-46.284,0-84.034,41.536-84.034,92.461C229.989,262.821,267.738,304.356,314.022,304.356z"
				/>
		</g>
	</g>
</g>
</svg>
