<?xml version="1.0" encoding="utf-8"?>
<!-- Generator: Adobe Illustrator 16.0.0, SVG Export Plug-In . SVG Version: 6.00 Build 0)  -->
<!DOCTYPE svg PUBLIC "-//W3C//DTD SVG 1.1//EN" "http://www.w3.org/Graphics/SVG/1.1/DTD/svg11.dtd" [
	<!ENTITY ns_extend "http://ns.adobe.com/Extensibility/1.0/">
	<!ENTITY ns_ai "http://ns.adobe.com/AdobeIllustrator/10.0/">
	<!ENTITY ns_graphs "http://ns.adobe.com/Graphs/1.0/">
	<!ENTITY ns_vars "http://ns.adobe.com/Variables/1.0/">
	<!ENTITY ns_imrep "http://ns.adobe.com/ImageReplacement/1.0/">
	<!ENTITY ns_sfw "http://ns.adobe.com/SaveForWeb/1.0/">
	<!ENTITY ns_custom "http://ns.adobe.com/GenericCustomNamespace/1.0/">
	<!ENTITY ns_adobe_xpath "http://ns.adobe.com/XPath/1.0/">
]>
<svg version="1.1" id="Layer_1" xmlns:x="&ns_extend;" xmlns:i="&ns_ai;" xmlns:graph="&ns_graphs;"
	 xmlns="http://www.w3.org/2000/svg" xmlns:xlink="http://www.w3.org/1999/xlink" x="0px" y="0px" width="247.617px" height="300px"
	 viewBox="0 0 247.617 300" enable-background="new 0 0 247.617 300" xml:space="preserve">
<metadata>
	<sfw  xmlns="&ns_sfw;">
		<slices></slices>
		<sliceSourceBounds  height="300.001" width="247.618" x="169.613" y="354.072" bottomLeftOrigin="true"></sliceSourceBounds>
	</sfw>
</metadata>
<g>
	<g>
		<path fill-rule="evenodd" clip-rule="evenodd" fill="#FFFFFF" d="M247.616,176.187c0,68.379-55.437,123.812-123.81,123.812
			c-68.385,0-123.809-55.433-123.809-123.812c0-68.38,55.423-123.8,123.809-123.8C192.179,52.387,247.616,107.807,247.616,176.187"
			/>
		<path fill-rule="evenodd" clip-rule="evenodd" fill="#E21E26" d="M42.44,94.819C20.692,116.56,8.725,145.445,8.725,176.187
			c0,30.738,11.967,59.643,33.715,81.374c21.723,21.742,50.63,33.706,81.368,33.706c30.732,0,59.623-11.963,81.37-33.706
			c21.73-21.731,33.691-50.636,33.691-81.374c0-30.742-11.961-59.627-33.691-81.368c-21.747-21.745-50.638-33.699-81.37-33.699
			C93.07,61.12,64.163,73.074,42.44,94.819 M43.382,256.622c-21.492-21.476-33.316-50.052-33.316-80.435
			c0-30.372,11.824-58.931,33.316-80.423c21.477-21.487,50.04-33.308,80.426-33.308c30.37,0,58.938,11.821,80.424,33.308
			c21.475,21.493,33.306,50.052,33.306,80.423c0,30.383-11.831,58.958-33.306,80.435c-21.486,21.479-50.054,33.306-80.424,33.306
			C93.421,289.927,64.859,278.101,43.382,256.622"/>
		<path fill-rule="evenodd" clip-rule="evenodd" fill="#E21E26" d="M123.808,64.773c-61.552,0-111.42,49.881-111.42,111.415
			c0,61.547,49.868,111.433,111.42,111.433c61.528,0,111.412-49.886,111.412-111.433C235.22,114.654,185.336,64.773,123.808,64.773
			 M123.808,263.771c-48.38,0-87.581-39.223-87.581-87.583c0-48.372,39.201-87.568,87.581-87.568
			c48.372,0,87.561,39.196,87.561,87.568C211.369,224.549,172.18,263.771,123.808,263.771"/>
		<path fill-rule="evenodd" clip-rule="evenodd" fill="#E21E26" d="M38.514,176.187c0,47.027,38.267,85.305,85.294,85.305
			c47.027,0,85.277-38.278,85.277-85.305c0-47.025-38.25-85.292-85.277-85.292C76.78,90.896,38.514,129.162,38.514,176.187
			 M39.842,176.187c0-46.29,37.659-83.961,83.966-83.961c46.287,0,83.947,37.671,83.947,83.961c0,46.285-37.66,83.97-83.947,83.97
			C77.5,260.157,39.842,222.472,39.842,176.187"/>
		<path fill-rule="evenodd" clip-rule="evenodd" fill="#E21E26" d="M153.324,216.88c-1.295-0.116-1.343-0.379-1.343-2.042v-4.912
			c0-1.651,0.065-1.798,1.47-2.037l0.41-0.083c0.16-0.11,0.145-0.523-0.084-0.565c-0.574,0.042-1.628,0.061-2.693,0.061
			c-1.061,0-2.227-0.018-2.707-0.061c-0.207,0.042-0.213,0.455-0.058,0.565l0.407,0.083c1.401,0.238,1.471,0.386,1.471,2.037v4.912
			c0,1.663-0.053,1.869-1.471,2.042l-0.653,0.079c-0.157,0.11-0.143,0.512,0.091,0.588c0.445-0.077,1.859-0.079,2.92-0.079
			c1.065,0,2.367,0.002,2.938,0.079c0.212-0.077,0.244-0.478,0.074-0.588L153.324,216.88"/>
		<path fill-rule="evenodd" clip-rule="evenodd" fill="#E21E26" d="M160.49,206.975c-2.5,0-4.707,1.903-4.707,4.662
			c0,1.966,1.32,3.554,3.169,3.554c0.96,0,1.719-0.326,2.338-0.827c0.04-0.187,0.024-0.375-0.151-0.433
			c-0.353,0.15-0.668,0.2-1.152,0.2c-1.612,0-2.494-1.979-2.494-3.471c0-1.664,0.961-2.906,2.441-2.906
			c2.344,0,2.867,2.52,2.867,4.113c0,4.363-2.565,7.054-3.826,7.994c-0.941,0.733-2.07,1.36-3.436,1.831
			c-0.163,0.144-0.039,0.441,0.117,0.523c1.729-0.297,3.904-1.19,5.581-2.725c2.503-2.319,3.544-5.035,3.544-7.495
			C164.781,209.062,163.385,206.975,160.49,206.975"/>
		<path fill-rule="evenodd" clip-rule="evenodd" fill="#E21E26" d="M175.958,214.883c-0.567,1.167-1.104,1.187-2.405,1.187h-2.864
			c-0.406,0-0.472-0.136-0.456-0.333l1.883-2.044c1.438-1.576,2.162-2.484,2.162-3.93c0-1.633-1.197-2.788-3.119-2.788
			c-1.891,0-3.278,1.509-3.84,2.701c0,0.231,0.236,0.428,0.483,0.345c0.627-1.006,1.423-1.638,2.454-1.638
			c1.313,0,2.121,0.839,2.121,2.317c0,1.528-1.219,2.903-2.483,4.246c-0.95,1.015-1.72,1.643-2.415,2.187
			c-0.082,0.144,0.014,0.341,0.139,0.414c0.51-0.073,1.34-0.078,2.143-0.078h2.373c1.371,0,2.383,0.005,3.284,0.078
			c0.286-0.691,0.696-1.548,1.12-2.462C176.446,214.865,176.166,214.765,175.958,214.883"/>
		<path fill-rule="evenodd" clip-rule="evenodd" fill="#E21E26" d="M184.058,206.922c-0.26,0.163-0.412,0.236-1.311,0.359
			l-1.682,0.248c-0.778,0.125-1.252,0.188-1.568,0.275c-0.313,0.108-0.743,0.83-1.063,1.578c-0.317,0.719-0.526,1.523-0.526,1.919
			c0,0.851,0.869,1.323,1.906,2.063c1.021,0.754,1.963,1.827,1.963,3.342c0,2.651-2.523,4.437-3.836,4.84
			c-0.199,0.17-0.097,0.563,0.176,0.663c1.77-0.523,5.326-2.72,5.326-6.059c0-1.893-1.109-3.258-2.672-4.338
			c-0.313-0.226-0.745-0.511-1.14-0.777c-0.656-0.443-0.806-0.724-0.656-1.157c0.097-0.389,0.227-0.566,0.935-0.662l3.053-0.449
			c0.762-0.089,1.211-1.014,1.371-1.53C184.357,207.085,184.278,206.953,184.058,206.922"/>
		<path fill-rule="evenodd" clip-rule="evenodd" fill="#E21E26" d="M79.548,209.292c0-5.179-0.016-11.752,0.593-16.508
			c0.208-1.535,0.3-3.12,0.5-4.472c0.13-0.982,0.171-1.452,0.54-2.116c4.57,0.077,8.436,1.39,12.751,1.854
			c1.856-1.951,4.412-3.168,6.634-4.786c1.549-1.11,3.477-2.433,4.779-3.455c0.178-0.17,0.261-0.314,0.268-0.532
			c0.02-0.205-0.149-1.686-0.523-2.376c-1.487,0.04-4.824,1.402-6.916,2.119c-3.569,1.225-7.276,1.961-10.629,2.929
			c-2.515,0.718-5.516,1.753-7.697,2.114c-1.963-0.097-4.161-2.042-4.774-3.444c-1.017-2.315,2.548-11.136,1.842-14.877
			c3.439-3.454,5.091-5.729,6.646-6.375c-2.471,3.986-3.66,7.822-3.783,12.634c4.143-0.549,9.133-0.78,13.291-2.343
			c6.701-2.55,9.371-5.584,11.736-8.704c1.641,9.06,4.885,11.993,7.242,19.209c4.986,0.21,8.67-13.895,8.764-13.895
			c2.104,8.259,4.941,9.894,6.047,15.141c1.982-0.293,3.807-4.569,4.975-4.803c0.219,0.945,0.322,1.335,0.604,2.124
			c8.503-0.686,14.885-7.386,14.977-7.386c-3.78,9.165,4.584,21.196,5.487,22.023c3.236-1.36,7.247-7.237,7.978-7.976
			c1.566,3.486,3.636,6.736,6.637,8.75c1.433,1.009,2.648,1.638,4.141,2.573c1.495-1.351,2.582-6.042,3.364-6.937
			c3.722,4.097,11.54,8.512,17.163,6.455c0,0-0.939-13.651-9.831-18.896c1.257,0.15,3.085,0.646,4.288,0.892
			c1.996,0.373,11.301-1.208,14.616-5.053c-2.648-4.02-7.894-9.598-19.458-10.28c2.87-0.924,9.477-9.096,9.977-13.557
			c-2.615-2.38-6.973-2.738-10.17-3.42c1.025-6.976-4.639-11.352-5.361-11.968c-0.25-0.701-0.68-10.758-13.575-13.979
			c-0.366-0.095-3.436-7.364-11.175-10.91c-11.922-5.479-21.07-1.334-23.068-0.801c-18.35-2.835-22.762,5.694-23.993,6.928
			c-0.578,0.559-7.358-0.723-13.817,6.458c-1.737-0.168-9.109-4.15-11.652-3.526c-1.037,2.873,0.313,13.93,0.887,15.999
			c-6.182,1.38-16.422-2.652-18.714-0.596c-0.769,4.504,3.31,9.813,3.31,9.889c-4.714-0.483-13.727,0.065-16.559,2.22
			c-0.599,0.583,1.037,4.243,3.417,6.58c2.563,2.523,6.733,4.665,12.184,5.108c0,0.084-9.826,6.014-13.105,10.325
			c0.964,0.608,7.908,2.623,8.617,2.853c3.825,1.226,14.559-2.362,14.737-2.362c-0.593,2.924-2.598,10.721-2.65,12.209
			c0.083,2.27,4.509,5.374,6.092,6.375c0.027,5.027-0.496,19.641-0.496,19.641c-0.013,2.237-0.338,5.403,0.268,7.177
			c2.164,0.413,10.351-1.733,10.666-1.513c0.779,1.137,0.849,4.894,1.297,6.343c1.428,0.325,2.46,1.044,4.012,1.21
			c0.425,1.287-0.667,3.453,0.049,4.616c0.557,1.638,3.195,2.071,4.726,2.693c0,2.935,0.112,5.844,0.112,8.768
			c0.771,1.578,6.566,3.687,8.163,4.608c0-0.089,12.671-12.258,12.68-12.281c2.372,2.392,4.042,4.243,5.704,6.954
			c-1.908,5.481-9.016,15.332-9.471,15.951c-0.301,0.538,1.629,1.898,1.855,2.254c2.516-2.974,3.473-4.355,5.754-8.241
			c2.266-3.903,3.489-5.907,5.439-10.697c-2.135-2.748-4.602-5.358-6.627-7.86c1.07-3.105,2.473-4.008,4.136-6.983
			c-0.719-0.469-1.192-0.837-2.153-0.724c-6.055,7.144-10.862,11.678-17.53,17.865c-0.856-0.641-3.654-1.612-4.599-2.094
			c-0.336-1.843,0.363-7.815-0.273-8.834c-0.725-1.861-3.227-1.659-4.707-2.696c-0.098-0.04-0.391-0.24-0.476-0.294
			c0.226-6.528-0.042-4.828-4.147-6.872c-0.187-0.09-0.381-0.761-0.347-1.284c0.019-2.019-0.147-5.631-0.686-7.18
			c-1.845,0.073-9.369,2.342-10.587,2.99c-0.177,0.041-0.268,0.036-0.314-0.05l-0.074-0.275V209.292 M187.97,150.858
			c-0.548,1.648-1.756,2.407-2.926,3.442c-9.053,8.088-11.913,6.032-21.785,4.785C169.214,149.099,183.078,147.902,187.97,150.858
			 M153.46,131.418c3.182,9.254-1.631,20.933-18.697,23.614c0-0.081,14.88-6.776,15.523-16.4c-1.625-0.601-4.66-1.165-4.592-1.081
			C147.435,134.859,151.358,131.923,153.46,131.418 M81.333,121.199c2.9,0.543,10.887,4.649,12.643,6.447
			c1.657,1.711,2.306,4.693,2.933,7.29c0.884,3.57,0.919,7.815-0.341,9.832c-4.377-0.465-12.723-8.627-14.138-13.794
			C81.027,125.821,81.181,123.763,81.333,121.199 M51.813,147.622c1.911-2.402,14.108-2.24,16.242-0.935
			c1.645,1.018,5.248,3.633,7.338,4.286c-0.911,1.623-6.169,3.358-9.792,3.279C60.544,154.165,54.129,151.336,51.813,147.622
			 M70.413,165.905c-1.492,0.714-3.542,0.756-5.075,0.964c-2.901,0.406-5.949-0.886-8.208-1.417c0-0.268,10.333-7.86,16.425-10.097
			c1.294-0.494,7.044-0.764,8.235-0.097C80.929,158.087,73.117,164.622,70.413,165.905 M79.973,150.74
			c-5.124-1.707-14.602-10.04-15.792-15.03c3.777,0.168,6.326,0.709,9.311,1.551c4.542,0.609,7.122,0.761,11.505,4.183
			c2.182,1.724,4.579,6.098,4.807,7.851C88.275,150.485,83.08,151.777,79.973,150.74 M93.94,166.026
			c-2.796,1.417-6.665,1.25-10.911,2.347c3.888-17.796,17.348-18.788,20.532-18.81C103.602,154.044,101.873,162.07,93.94,166.026
			 M102.693,141.93c-4.52-7.372-4.6-13.474-0.805-21.9c4.652,0.633,14.205,15.19,5.324,26.313
			C105.427,145.445,103.834,143.794,102.693,141.93 M113.332,175.802c-1.063-4.515-4.016-7.771-5.16-12.538
			c-0.339-1.407-0.898-3.93-0.176-6.017c0.918-2.696,2.527-5.424,4.09-7.377C118.033,152.473,120.22,169.998,113.332,175.802
			 M112.988,144.914c0.611-7.918,9.453-15.338,21.64-16.683c-0.278,7.467-7.243,14.962-13.396,16.683
			C118.642,145.217,113.423,145.174,112.988,144.914 M127.624,177.682c-0.909-4.242-7.196-14.504-5.37-20.378
			c0.489-1.578,1.007-3.234,1.705-4.933c2.699,1.193,6.093,6.851,6.781,9.043C132.777,168.047,128.992,177.135,127.624,177.682
			 M130.312,150.858c-2.393-0.554-4.713-1.625-6.145-2.655c6.297-6.659,16.285-10.834,22.097-8.497
			c-1.349,3.885-5.523,7.758-9.444,9.393C135.773,149.527,132.091,151.267,130.312,150.858 M133.827,175.779
			c0.656-4.779,1.891-12.134,5.222-14.366c2.166-1.483,6.689-2.788,9.062-3.101C149.788,163.117,142.673,175.219,133.827,175.779
			 M153.484,189.051c-0.809-1.696-2.26-3.695-3.02-5.439c-1.724-3.912-0.781-11.758,0.894-15.363
			c1.216-2.633,3.956-3.74,5.579-5.901C162.558,167.744,155.54,188.144,153.484,189.051 M146.264,155.111
			c4.642-2.374,7.067-7.048,11.157-9.839c6.853-4.676,12.789-3.663,14.082-2.384c-1.486,2.805-5.826,7.938-8.771,10.348
			C157.411,156.344,147.763,156.639,146.264,155.111 M170.707,192.572c-2.574-0.804-5.137-3.877-6.381-5.6
			c-4.066-6.035-2.395-13.569,0.798-19.119c1.001,0.817,2.161,2.32,3.19,3.708C173.445,178.711,172.23,183.061,170.707,192.572
			 M189.85,194.52c-8.702-0.333-14.071-8.51-14.094-17.384c2.522,0.3,5.411,2.069,6.854,3.607
			C185.681,183.996,188.85,189.277,189.85,194.52 M171.716,167.641c5.426-6.758,25.934,2.052,25.934,5.045
			c-3.604,1.565-6.189,1.606-9.102,1.872C181.871,175.175,172.635,168.883,171.716,167.641"/>
		<path fill-rule="evenodd" clip-rule="evenodd" fill="#FFFFFF" d="M58.254,100.669c2.202,2.25,1.934,5.603-0.281,7.737
			c-2.347,2.292-5.55,2.341-7.75,0.071c-2.206-2.26-1.924-5.605,0.283-7.755C52.854,98.449,56.069,98.399,58.254,100.669
			 M60.364,98.615c-3.313-3.419-8.259-3.354-11.808,0.099c-3.375,3.291-3.751,8.398-0.441,11.808
			c3.331,3.416,8.264,3.356,11.813-0.103C63.314,107.13,63.677,102.021,60.364,98.615"/>
		<polygon fill-rule="evenodd" clip-rule="evenodd" fill="#FFFFFF" points="77.153,97.32 67.962,91.125 69.971,102.019 
			67.178,102.536 64.18,86.131 64.871,85.672 78.72,94.955 		"/>
		<polygon fill-rule="evenodd" clip-rule="evenodd" fill="#FFFFFF" points="84.142,86.244 86.724,91.925 84.173,93.092 
			81.591,87.406 73.255,81.667 74.988,79.488 81.591,84.046 82.508,76.076 85.276,76.179 		"/>
		<polygon fill-rule="evenodd" clip-rule="evenodd" fill="#FFFFFF" points="108.724,85.717 105.31,75.374 101.66,82.578 
			101.174,82.685 94.69,77.868 96.259,88.66 93.497,89.043 91.183,73.111 92.205,72.623 100.526,78.868 105.212,69.554 
			106.33,69.542 111.384,84.835 		"/>
		<polygon fill-rule="evenodd" clip-rule="evenodd" fill="#FFFFFF" points="125.763,84.222 125.599,71.349 118.742,71.445 
			118.916,84.308 116.097,84.333 115.904,68.777 128.355,68.604 128.567,84.175 		"/>
		<polygon fill-rule="evenodd" clip-rule="evenodd" fill="#FFFFFF" points="134.248,84.859 136.298,69.426 139.091,69.807 
			137.025,85.235 		"/>
		<path fill-rule="evenodd" clip-rule="evenodd" fill="#FFFFFF" d="M151.265,83.339l-4.217-1.16l3.404-4.18L151.265,83.339z
			 M154.968,88.841l-2.494-16.564l-0.813-0.218L141.037,85.01l2.21,1.81l1.925-2.354l6.534,1.791l0.44,3.021L154.968,88.841z"/>
		<polygon fill-rule="evenodd" clip-rule="evenodd" fill="#FFFFFF" points="166.623,94.937 163.562,84.859 160.218,91.885 
			157.687,90.69 164.363,76.608 166.904,77.83 164.628,82.589 171.664,80.089 174.834,81.581 166.423,84.595 170.081,96.573 		"/>
		<path fill-rule="evenodd" clip-rule="evenodd" fill="#FFFFFF" d="M185.658,98.146c-1.818,2.573-5.145,2.909-7.66,1.108
			c-2.672-1.906-3.289-5.045-1.45-7.61c1.823-2.565,5.168-2.893,7.671-1.1C186.892,92.445,187.497,95.6,185.658,98.146
			 M188.058,99.853c2.768-3.867,1.824-8.73-2.205-11.59c-3.827-2.746-8.932-2.2-11.692,1.675c-2.763,3.863-1.816,8.72,2.21,11.59
			C180.201,104.266,185.289,103.735,188.058,99.853"/>
		<polygon fill-rule="evenodd" clip-rule="evenodd" fill="#FFFFFF" points="184.957,107.748 186.057,106.671 193.729,104.972 
			194.697,98.535 196.23,97.021 203.208,104.09 201.262,106.015 197.096,101.793 196.275,107.34 189.744,108.763 194.138,113.208 
			192.207,115.113 		"/>
		<polygon fill-rule="evenodd" clip-rule="evenodd" fill="#FFFFFF" points="32.265,119.129 33.037,119.547 37.394,127.089 
			44.595,126.343 45.711,126.989 41.012,135.396 39.707,134.67 43.274,128.262 36.436,128.958 32.406,121.962 28.668,128.669 
			27.35,127.937 		"/>
		<polygon fill-rule="evenodd" clip-rule="evenodd" fill="#FFFFFF" points="28.491,140.702 22.88,138.576 23.477,136.938 
			29.115,139.062 39.683,136.735 40.107,138.447 30.555,140.526 36.334,148.42 34.873,149.434 		"/>
		<path fill-rule="evenodd" clip-rule="evenodd" fill="#FFFFFF" d="M17.684,179.729l0.082-9.533l10.773,4.849L17.684,179.729z
			 M16.626,182.093L32.01,175.4l0.01-0.641l-15.21-6.926l-0.525,0.536l-0.121,13.178L16.626,182.093z"/>
		<polygon fill-rule="evenodd" clip-rule="evenodd" fill="#FFFFFF" points="16.837,187.944 32.236,185.697 33.376,193.396 
			31.885,193.622 31.005,187.653 26.605,188.305 27.415,193.818 25.917,194.021 25.117,188.508 18.578,189.474 19.589,196.328 
			18.097,196.539 		"/>
		<polygon fill-rule="evenodd" clip-rule="evenodd" fill="#FFFFFF" points="19.361,202.213 20.221,201.954 28.677,204.056 
			33.146,198.337 34.36,197.969 37.179,207.18 35.749,207.619 33.602,200.599 29.364,206.012 21.508,204.064 23.757,211.42 
			22.329,211.849 		"/>
		<polygon fill-rule="evenodd" clip-rule="evenodd" fill="#FFFFFF" points="31.262,231.59 42.192,224.616 32.01,223.819 
			31.626,223.093 36.816,214.303 24.84,219.255 24.156,217.646 39.101,211.435 39.6,212.534 33.738,222.449 45.22,223.351 
			45.85,224.382 32.197,233.074 		"/>
		<path fill-rule="evenodd" clip-rule="evenodd" fill="#FFFFFF" d="M51.755,245.053c-2.94,2.462-6.928,1.839-9.335-1.014
			c-2.57-3.045-2.335-6.904,0.599-9.372c2.922-2.47,6.931-1.848,9.317,1.029C54.908,238.723,54.695,242.585,51.755,245.053
			 M52.87,246.386c3.649-3.054,3.944-7.983,0.751-11.774c-3.029-3.604-8.106-4.348-11.731-1.294
			c-3.637,3.071-3.938,7.991-0.759,11.79C44.155,248.712,49.232,249.462,52.87,246.386"/>
		<polygon fill-rule="evenodd" clip-rule="evenodd" fill="#FFFFFF" points="50.86,254.902 51.414,254.236 59.641,251.373 
			60.269,244.15 61.074,243.161 68.48,249.346 67.516,250.498 61.888,245.799 61.303,252.63 53.661,255.297 59.56,260.23 
			58.593,261.355 		"/>
		<path fill-rule="evenodd" clip-rule="evenodd" fill="#FFFFFF" d="M90.906,269.846c-1.168,2.738-4.566,3.41-7.976,2.275
			l4.155-9.657C90.449,264.215,92.095,267.113,90.906,269.846 M92.529,270.523c1.467-3.45-0.531-7.317-4.829-9.484l0.29-0.67
			l-1.646-0.706l-0.292,0.696c-4.304-1.53-8.67-0.446-10.158,3.026c-1.476,3.439,0.519,7.296,4.792,9.465l-0.474,1.112l1.626,0.711
			l0.479-1.126C86.664,275.052,91.048,273.975,92.529,270.523 M81.3,271.42c-3.318-1.729-4.966-4.62-3.785-7.347
			c1.176-2.738,4.57-3.439,7.925-2.284L81.3,271.42z"/>
		<polygon fill-rule="evenodd" clip-rule="evenodd" fill="#FFFFFF" points="95.416,279.328 99.345,264.268 101.048,264.719 
			97.114,279.782 		"/>
		<polygon fill-rule="evenodd" clip-rule="evenodd" fill="#FFFFFF" points="114.398,283.325 111.001,270.22 104.333,282.039 
			102.879,281.117 111.196,266.438 111.82,266.516 116.063,282.923 		"/>
		<path fill-rule="evenodd" clip-rule="evenodd" fill="#FFFFFF" d="M130.066,278.308l-6.383,0.212l2.941-7.657L130.066,278.308z
			 M133.991,282.691l-7.157-15.468l-0.635,0.017l-6.146,15.856l1.596,0.659l1.458-3.72l7.633-0.247l1.662,3.589L133.991,282.691z"/>
		<polygon fill-rule="evenodd" clip-rule="evenodd" fill="#FFFFFF" points="170.425,272.962 160.826,263.432 161.133,276.994 
			159.382,276.951 159.064,260.085 159.633,259.831 171.652,271.76 		"/>
		<path fill-rule="evenodd" clip-rule="evenodd" fill="#FFFFFF" d="M185.445,261.591l3.053-2.037l0.83,1.238l-4.928,3.301
			l-1.163-1.753c1.286-2.04,2.336-5.634,0.784-7.965c-2.016-3.021-6.098-3.116-8.965-1.205c-2.873,1.909-4.336,5.716-2.317,8.737
			c1.554,2.328,5.289,2.738,7.657,2.325l1.168,1.741l-4.935,3.29l-0.832-1.238l3.069-2.041c-2.868,0.19-5.955-0.659-7.578-3.091
			c-2.643-3.973-0.619-8.813,2.838-11.11c3.457-2.319,8.716-2.337,11.35,1.616C187.135,255.863,186.712,259.034,185.445,261.591"/>
		<polygon fill-rule="evenodd" clip-rule="evenodd" fill="#FFFFFF" points="220.315,222.161 207.861,215.59 204.047,222.843 
			216.498,229.396 215.679,230.939 201.904,223.691 207.36,213.339 221.126,220.614 		"/>
		<polygon fill-rule="evenodd" clip-rule="evenodd" fill="#FFFFFF" points="224.189,212.911 209.399,208.02 211.843,200.638 
			213.257,201.111 211.371,206.836 215.602,208.222 217.347,202.93 218.781,203.413 217.033,208.7 223.304,210.782 225.494,204.2 
			226.909,204.668 		"/>
		<polygon fill-rule="evenodd" clip-rule="evenodd" fill="#FFFFFF" points="228.281,198.587 213.025,195.434 213.393,193.701 
			228.64,196.869 		"/>
		<path fill-rule="evenodd" clip-rule="evenodd" fill="#FFFFFF" d="M219.593,180.341c1.617,0.137,2.759,1.954,2.599,3.72
			l-0.224,2.513l-5.863-0.522l0.246-2.757C216.535,181.283,217.71,180.173,219.593,180.341 M219.737,178.598
			c-2.681-0.251-4.606,1.563-4.885,4.536l-0.401,4.516l15.521,1.388l0.15-1.749l-6.666-0.595l0.227-2.505
			C223.94,181.473,222.192,178.806,219.737,178.598"/>
		<path fill-rule="evenodd" clip-rule="evenodd" fill="#FFFFFF" d="M225.817,167.024l0.325,6.359l-7.713-2.762L225.817,167.024z
			 M230.106,162.998l-15.315,7.498l0.027,0.619l15.981,5.796l0.644-1.591l-3.76-1.373l-0.416-7.63l3.553-1.751L230.106,162.998z"/>
		<polygon fill-rule="evenodd" clip-rule="evenodd" fill="#FFFFFF" points="229.205,157.669 213.886,160.442 213.573,158.712 
			228.89,155.953 		"/>
		<path fill-rule="evenodd" clip-rule="evenodd" fill="#FFFFFF" d="M222.089,137.404l-1.205-3.472l1.42-0.496l1.946,5.596
			l-1.984,0.709c-1.647-1.756-4.867-3.706-7.517-2.78c-3.415,1.2-4.552,5.114-3.415,8.366c1.139,3.288,4.444,5.646,7.881,4.446
			c2.655-0.93,3.982-4.429,4.171-6.829l1.986-0.709l1.949,5.616l-1.423,0.501l-1.218-3.492c-0.523,2.806-2.111,5.602-4.887,6.558
			c-4.507,1.573-8.662-1.618-10.027-5.539c-1.4-3.925-0.078-9.005,4.402-10.583C216.97,134.335,219.924,135.527,222.089,137.404"/>
		<polygon fill-rule="evenodd" clip-rule="evenodd" fill="#FFFFFF" points="219.382,127.519 218.613,127.972 209.896,127.747 
			206.783,134.292 205.673,134.911 200.914,126.531 202.226,125.797 205.859,132.181 208.814,125.985 216.892,126.183 
			213.103,119.504 214.402,118.766 		"/>
		<polygon fill-rule="evenodd" clip-rule="evenodd" fill="#FFFFFF" points="17.256,159.792 17.293,159.792 29.757,153.796 
			18.841,150.704 19.396,149.044 34.662,153.405 20.317,160.409 32.522,162.756 32.186,164.48 16.915,161.501 		"/>
		<path fill-rule="evenodd" clip-rule="evenodd" fill="#FFFFFF" d="M151.759,271.447c0.796,3.743-1.639,6.964-5.287,7.741
			c-3.886,0.834-7.18-1.175-7.973-4.925c-0.787-3.744,1.639-6.967,5.279-7.738C147.662,265.694,150.956,267.708,151.759,271.447
			 M153.477,271.107c-0.999-4.67-5.202-7.245-10.034-6.216c-4.607,0.985-7.65,5.093-6.646,9.734
			c0.976,4.652,5.179,7.242,10.038,6.216C151.423,279.854,154.455,275.733,153.477,271.107"/>
		<polygon fill-rule="evenodd" clip-rule="evenodd" fill="#FFFFFF" points="149.884,272.646 140.707,274.599 140.386,273.063 
			149.566,271.128 		"/>
		<polygon fill-rule="evenodd" clip-rule="evenodd" fill="#FFFFFF" points="202.787,248.15 202.757,248.134 189.064,246.198 
			196.414,254.832 195.037,255.892 184.789,243.795 200.591,245.938 191.748,237.206 192.994,235.973 204.018,246.914 		"/>
		<polygon fill-rule="evenodd" clip-rule="evenodd" fill="#E7C569" points="27.18,28.178 35.822,38.844 48.638,33.925 
			41.158,45.438 49.8,56.11 36.539,52.555 29.062,64.069 28.342,50.357 15.081,46.806 27.899,41.887 		"/>
		<polygon fill-rule="evenodd" clip-rule="evenodd" fill="#E7C569" points="91.762,-0.003 97.564,12.441 111.191,10.769 
			101.15,20.132 106.949,32.574 94.943,25.918 84.903,35.279 87.523,21.805 75.512,15.15 89.142,13.474 		"/>
		<polygon fill-rule="evenodd" clip-rule="evenodd" fill="#E7C569" points="155.855,-0.003 158.474,13.474 172.101,15.15 
			160.091,21.805 162.714,35.279 152.67,25.918 140.66,32.574 146.464,20.132 136.425,10.769 150.05,12.441 		"/>
		<polygon fill-rule="evenodd" clip-rule="evenodd" fill="#E7C569" points="220.435,28.178 219.716,41.885 232.535,46.807 
			219.271,50.359 218.554,64.071 211.078,52.556 197.812,56.108 206.454,45.439 198.975,33.925 211.793,38.844 		"/>
	</g>
</g>
</svg>
