<?xml version="1.0" encoding="utf-8"?>
<!-- Generator: Adobe Illustrator 16.0.0, SVG Export Plug-In . SVG Version: 6.00 Build 0)  -->
<!DOCTYPE svg PUBLIC "-//W3C//DTD SVG 1.1//EN" "http://www.w3.org/Graphics/SVG/1.1/DTD/svg11.dtd">
<svg version="1.1" id="Layer_1" xmlns="http://www.w3.org/2000/svg" xmlns:xlink="http://www.w3.org/1999/xlink" x="0px" y="0px"
	 width="221.781px" height="221.782px" viewBox="0 0 221.781 221.782" enable-background="new 0 0 221.781 221.782"
	 xml:space="preserve">
<path fill="#006A34" d="M0,110.891c0,61.146,49.746,110.891,110.892,110.891c61.146,0,110.89-49.745,110.89-110.891
	S172.037,0,110.892,0C49.746,0,0,49.746,0,110.891z"/>
<path fill="#FFFFFF" d="M3.991,110.891c0-58.945,47.956-106.9,106.9-106.9c58.944,0,106.899,47.955,106.899,106.9
	c0,58.944-47.955,106.899-106.899,106.899C51.947,217.791,3.991,169.835,3.991,110.891z"/>
<path fill="#006A34" d="M38.184,110.891c0,40.091,32.616,72.707,72.708,72.707c40.09,0,72.706-32.616,72.706-72.707
	s-32.616-72.708-72.706-72.708C70.8,38.184,38.184,70.8,38.184,110.891z"/>
<path fill="#FFFFFF" d="M42.175,110.891c0-37.891,30.826-68.716,68.716-68.716c37.89,0,68.715,30.826,68.715,68.716
	c0,37.89-30.825,68.716-68.715,68.716C73.001,179.607,42.175,148.781,42.175,110.891z"/>
<path fill="#006A34" d="M170.461,125.114c0.915-6.15-2.158-13.109-8.274-15.678c2.905-4.187,4.268-8.881,4.174-13.256
	c-0.18-8.352-5.667-15.539-15.865-15.803c-5.944-0.154-11.884,3.042-15.416,9.328c-2.222,3.952-4.349,8.946-7.547,12.704
	c-7.359,8.644-9.922,2.513-5.333-4.736c2.651-4.186,6.033-7.523,9-10.848c6.962-7.804,9.788-16.609,3.395-25.791
	c-3.283-4.716-8.561-7.931-14.636-7.89c-5.362,0.037-10.678,2.35-12.851,7.524c-4.063-2.818-8.573-4.675-13.051-4.575
	c-10.146,0.228-16.115,8.752-16.131,17.426c-0.009,4.866,1.855,9.779,5.905,13.3c4.534,3.941,10.484,6.778,14.507,11.253
	c9.279,10.322,0.676,12.27-7.785,3.01c-5.829-6.379-9.482-14.381-19.542-14.356c-9.335,0.024-17.24,6.437-17.092,16.382
	c0.078,5.188,2.315,10.435,7.131,12.971c-3.162,3.802-5.406,8.133-5.695,12.603c-0.606,9.363,6.757,16.208,15.113,17.425
	c11.16,1.624,15.63-5.609,21.341-13.168c3.971-5.256,8.563-10.706,12.074-10.395c1.991,0.176,3.098,2.756,3.559,8.085
	c0.954,11.044,1.125,22.566,1.125,31.958c4.58,0.716,7.827,5.065,11.593,7.575c-2.338-9.141-5.938-19.407-5.941-29.863
	c-0.002-3.208,0.279-6.535,0.771-10.396c0.422-3.321,0.737-7.353,5.117-7.509c7.724-0.274,13.086,5.167,18.355,10.47
	c3.953,3.979,9.819,6.228,15.47,6.229C161.671,139.092,169.008,134.875,170.461,125.114L170.461,125.114z"/>
<path fill="#006A34" d="M204.477,147.802l-7.7-2.599l-0.058-8.229l-4.816,6.623l-7.735-2.487l4.724,6.692l-4.724,6.692l7.735-2.487
	l4.816,6.623l0.058-8.229L204.477,147.802L204.477,147.802z M17.306,147.802l7.699-2.599l0.059-8.229l4.815,6.624l7.735-2.487
	l-4.722,6.691l4.722,6.692l-7.735-2.487l-4.815,6.623l-0.059-8.229L17.306,147.802L17.306,147.802z"/>
<g>
	<path fill="#006A34" d="M213.493,103.183h-4.778c0,0-6.397,5.333-6.99,5.828c-0.638-0.446-8.345-5.828-8.345-5.828h-5.066v10.475
		h4.178c0,0,0-4.164,0-5.657c1.415,1.056,7.594,5.666,7.594,5.666h3.323c0,0,5.161-4.384,6.56-5.573c0,1.561,0,5.564,0,5.564h4.08
		v-10.475H213.493z"/>
	<path fill="#006A34" d="M199.705,58.743l-2.582-3.688c0,0-7.472,1.267-10.651,1.807c2.51-1.759,7.996-5.6,7.996-5.6l-2.438-3.481
		l-0.454,0.317L170.95,62.541l2.438,3.482c0,0,5.869-4.109,8.605-6.025c-1.839,2.965-6.021,9.716-6.021,9.716l2.633,3.761
		c0,0,7.437-12.074,7.691-12.488C186.774,60.906,199.705,58.743,199.705,58.743z"/>
	<polygon fill="#006A34" points="179.655,34.297 179.264,34.689 161.459,52.494 164.477,55.511 182.673,37.314 	"/>
	<path fill="#006A34" d="M132.972,25.397c-0.597-4.267-2.135-15.281-2.135-15.281l-3.775-0.802l-0.116,0.542l-5.235,24.63
		l4.003,0.851c0,0,2.155-10.137,3.036-14.282c0.584,4.313,2.08,15.37,2.08,15.37l3.825,0.813l5.351-25.171l-4.019-0.854
		C135.986,11.211,133.844,21.295,132.972,25.397z"/>
	<path fill="#006A34" d="M110.368,8.277l-3.711,0.129c0,0,0.3,8.587,0.334,9.571c-0.803,0.027-3.734,0.13-4.538,0.158
		c-0.035-0.984-0.334-9.571-0.334-9.571l-4.264,0.148l0.898,25.718l4.265-0.148c0,0-0.382-10.931-0.417-11.938
		c0.803-0.028,3.735-0.13,4.538-0.158c0.035,1.007,0.417,11.938,0.417,11.938l4.264-0.149l-0.896-25.718L110.368,8.277z"/>
	<path fill="#006A34" d="M31.014,45.812l-2.038,2.912c0,0,8.444,5.912,11.88,8.318c-4.161-1.118-14.899-4.006-14.899-4.006
		l-2.214,3.163l21.08,14.761l2.347-3.353c0,0-8.489-5.944-11.96-8.375c4.198,1.147,14.96,4.091,14.96,4.091l2.244-3.204
		l-21.08-14.76L31.014,45.812z"/>
	<path fill="#006A34" d="M8.105,99.097l-0.437,12.512l25.718,0.897l0.148-4.264c0,0-20.473-0.714-21.524-0.751
		c0.028-0.803,0.131-3.734,0.159-4.538c1.051,0.037,21.524,0.751,21.524,0.751l0.149-4.265L8.125,98.542L8.105,99.097z"/>
	<path fill="#006A34" d="M13.601,76.405l-0.94,3.279l23.157,12.603l1.192-4.158c0,0-3.709-2.029-4.354-2.382
		c0.188-0.652,1.043-3.638,1.229-4.287c0.731,0.038,4.963,0.256,4.963,0.256l1.192-4.155l-26.316-1.584L13.601,76.405z
		 M29.948,81.145c-0.212,0.74-0.578,2.014-0.79,2.754c-0.766-0.394-4.056-2.085-6.573-3.379
		C25.404,80.759,29.09,81.071,29.948,81.145z"/>
	<path fill="#006A34" d="M49.104,28.764l-2.651,2.147l11.741,23.605l3.361-2.722c0,0-1.875-3.79-2.201-4.449
		c0.528-0.427,2.941-2.382,3.465-2.806c0.577,0.449,3.92,3.057,3.92,3.057l3.359-2.721L49.45,28.483L49.104,28.764z M59.776,42.021
		c-0.599,0.484-1.628,1.319-2.227,1.804c-0.401-0.762-2.126-4.036-3.446-6.539C56.275,39.1,59.116,41.47,59.776,42.021z"/>
	<path fill="#006A34" d="M80.011,15.56c-1.903-1.491-4.056-1.718-6.397-0.675c-2.345,1.043-3.62,2.803-3.791,5.229
		c-0.16,2.331,0.681,5.526,2.569,9.767c1.89,4.245,3.699,7,5.53,8.424c1.913,1.482,4.071,1.704,6.414,0.661
		c2.341-1.042,3.613-2.792,3.781-5.2c0.162-2.316-0.678-5.503-2.565-9.744C83.655,19.764,81.842,16.995,80.011,15.56z M80.691,23.79
		c-0.807,0.358-4.414,1.965-5.221,2.324c-0.861-2.15-1.347-3.82-1.41-4.92c-0.006-0.103-0.009-0.202-0.009-0.299
		c0-1.099,0.408-1.794,1.27-2.178c0.928-0.413,1.773-0.187,2.661,0.711C78.751,20.214,79.666,21.7,80.691,23.79z M83.903,32.942
		c0,1.069-0.406,1.75-1.265,2.132c-0.937,0.417-1.799,0.177-2.715-0.754c-0.796-0.803-1.718-2.284-2.735-4.348
		c0.809-0.359,4.42-1.968,5.225-2.326c0.906,2.24,1.417,3.945,1.482,5.025C83.9,32.764,83.903,32.855,83.903,32.942z"/>
	<path fill="#006A34" d="M159.868,20.554l-0.301,0.327l-17.53,19.093l3.747,2.163c0,0,2.866-3.108,3.364-3.649
		c0.588,0.34,3.276,1.892,3.86,2.23c-0.213,0.7-1.448,4.754-1.448,4.754l3.743,2.161l7.903-25.152L159.868,20.554z M156.656,29.98
		c-0.915,2.678-2.109,6.179-2.388,6.993c-0.667-0.386-1.813-1.047-2.481-1.433C152.354,34.894,154.792,32.109,156.656,29.98z"/>
	<path fill="#006A34" d="M199.319,90.404c4.381-1.594,7.27-3.209,8.828-4.936c1.62-1.795,1.998-3.926,1.121-6.335
		c-0.878-2.412-2.545-3.807-4.953-4.146c-2.314-0.322-5.559,0.293-9.922,1.882h-0.001c-4.365,1.59-7.241,3.202-8.79,4.929
		c-1.61,1.806-1.983,3.942-1.105,6.352c0.877,2.407,2.532,3.799,4.924,4.135C191.721,92.606,194.958,91.991,199.319,90.404z
		 M195.923,80.887c3.236-1.178,5.599-1.766,7.021-1.749c1.275,0.011,2.031,0.466,2.383,1.43c0.348,0.955,0.063,1.782-0.895,2.605
		c-1.084,0.921-3.279,1.988-6.524,3.169c-3.328,1.211-5.718,1.819-7.101,1.806c-1.228-0.014-1.961-0.465-2.309-1.42
		c-0.352-0.964-0.053-1.807,0.941-2.656C190.542,83.123,192.724,82.052,195.923,80.887L195.923,80.887z"/>
</g>
<path fill="#006A34" d="M83.615,209.689l-3.598-0.964l4.891-18.253l-3.089-0.854l0.823-3.07l0,0
	c1.846,0.309,3.932-0.432,4.801-2.781l0,0l2.91,0.779L83.615,209.689L83.615,209.689z M117.222,186.85
	c1.879-0.132,3.476,0.743,4.775,2.618c1.301,1.875,2.119,5.261,2.461,10.155c0.34,4.877,0.001,8.337-1.025,10.374
	c-1.025,2.044-2.479,3.126-4.349,3.257c-1.886,0.132-3.479-0.73-4.779-2.588c-1.298-1.857-2.118-5.266-2.464-10.216
	c-0.34-4.858,0-8.306,1.027-10.344C113.894,188.069,115.347,186.981,117.222,186.85L117.222,186.85z M117.509,190.962
	c-0.733,0.051-1.28,0.621-1.642,1.711c-0.362,1.09-0.407,3.61-0.131,7.561c0.276,3.949,0.672,6.438,1.181,7.455
	c0.509,1.022,1.13,1.512,1.863,1.461c0.74-0.053,1.292-0.623,1.648-1.713c0.354-1.09,0.395-3.604,0.12-7.54
	c-0.276-3.95-0.666-6.438-1.171-7.469C118.875,191.398,118.248,190.91,117.509,190.962L117.509,190.962z M132.364,196.394
	c-0.994-0.353-1.798-0.934-2.41-1.732s-1.029-1.823-1.248-3.065c-0.354-2.009-0.113-3.699,0.717-5.071
	c0.835-1.373,2.128-2.221,3.896-2.532c1.868-0.329,3.405,0.056,4.609,1.155c1.198,1.1,1.961,2.559,2.282,4.383
	c0.22,1.242,0.175,2.359-0.138,3.358c-0.313,0.993-0.838,1.802-1.57,2.423c1.195,0.383,2.161,1.053,2.886,2.01
	c0.729,0.955,1.229,2.197,1.499,3.73c0.279,1.581,0.252,3.02-0.068,4.32c-0.326,1.301-0.902,2.359-1.738,3.162
	c-0.834,0.803-1.839,1.311-3.02,1.52c-1.852,0.326-3.504-0.105-4.953-1.29c-1.454-1.185-2.391-2.961-2.81-5.333
	c-0.269-1.527-0.224-2.896,0.136-4.099C130.79,198.136,131.437,197.152,132.364,196.394L132.364,196.394z M132.246,191.333
	c0.175,0.993,0.522,1.723,1.047,2.182s1.121,0.629,1.78,0.513c0.669-0.117,1.171-0.481,1.512-1.093
	c0.342-0.612,0.425-1.418,0.25-2.41c-0.171-0.969-0.516-1.681-1.039-2.134c-0.523-0.459-1.11-0.631-1.764-0.516
	c-0.68,0.12-1.188,0.485-1.528,1.103C132.164,189.596,132.077,190.376,132.246,191.333L132.246,191.333z M133.836,202.324
	c0.243,1.373,0.695,2.384,1.36,3.033c0.658,0.649,1.365,0.905,2.105,0.774c0.746-0.132,1.31-0.6,1.686-1.395
	c0.381-0.797,0.449-1.905,0.199-3.32c-0.214-1.219-0.646-2.135-1.282-2.752c-0.642-0.616-1.341-0.86-2.097-0.727
	c-0.74,0.13-1.31,0.598-1.701,1.402C133.722,200.144,133.628,201.14,133.836,202.324L133.836,202.324z M93.597,205.965l3.642-0.215
	l0,0c0.003,1.927,0.619,2.944,1.846,3.052c0.827,0.072,1.544-0.344,2.157-1.253c0.612-0.91,1.118-2.822,1.528-5.737
	c-0.525,0.682-1.095,1.171-1.711,1.486c-0.61,0.316-1.271,0.44-1.98,0.378c-1.476-0.13-2.713-1.013-3.712-2.65
	c-1-1.64-1.388-3.733-1.165-6.282c0.238-2.723,1.025-4.811,2.352-6.27c1.332-1.459,2.875-2.112,4.626-1.959
	c1.96,0.172,3.485,1.323,4.575,3.447c1.096,2.126,1.437,5.519,1.03,10.178c-0.416,4.749-1.375,8.101-2.884,10.064
	c-1.502,1.959-3.306,2.849-5.414,2.664c-1.465-0.127-2.625-0.756-3.485-1.892C94.14,209.842,93.67,208.171,93.597,205.965
	L93.597,205.965z M102.961,195.886c0.142-1.623-0.03-2.893-0.51-3.807c-0.485-0.921-1.081-1.41-1.791-1.472
	c-0.688-0.06-1.293,0.251-1.813,0.926c-0.519,0.676-0.854,1.846-1.001,3.517c-0.146,1.666,0.001,2.908,0.434,3.728
	c0.428,0.819,1.011,1.259,1.743,1.322c0.7,0.062,1.332-0.253,1.897-0.949C102.487,198.456,102.832,197.365,102.961,195.886
	L102.961,195.886z"/>
<g>
	<path fill="#006A34" d="M174.128,35.572l-3.221-2.703l2.703-3.22l3.22,2.702L174.128,35.572z"/>
</g>
<g>
	<path fill="#006A34" d="M184.114,45.671l-2.703-3.22l3.221-2.703l2.702,3.221L184.114,45.671z"/>
</g>
</svg>
