<?xml version="1.0" encoding="UTF-8" standalone="no"?>
<!-- Generator: Adobe Illustrator 12.0.0, SVG Export Plug-In . SVG Version: 6.00 Build 51448)  -->

<svg
   xmlns:i="http://ns.adobe.com/AdobeIllustrator/10.0/"
   xmlns:dc="http://purl.org/dc/elements/1.1/"
   xmlns:cc="http://creativecommons.org/ns#"
   xmlns:rdf="http://www.w3.org/1999/02/22-rdf-syntax-ns#"
   xmlns:svg="http://www.w3.org/2000/svg"
   xmlns="http://www.w3.org/2000/svg"
   xmlns:sodipodi="http://sodipodi.sourceforge.net/DTD/sodipodi-0.dtd"
   xmlns:inkscape="http://www.inkscape.org/namespaces/inkscape"
   version="1.1"
   id="Layer_1"
   width="202.93"
   height="239.915"
   viewBox="0 0 202.93 239.915"
   overflow="visible"
   enable-background="new 0 0 202.93 239.915"
   xml:space="preserve"
   inkscape:version="0.48.1 "
   sodipodi:docname="PAOK_emblem_2010[1].svg"><metadata
     id="metadata3068"><rdf:RDF><cc:Work
         rdf:about=""><dc:format>image/svg+xml</dc:format><dc:type
           rdf:resource="http://purl.org/dc/dcmitype/StillImage" /><dc:title></dc:title></cc:Work></rdf:RDF></metadata><defs
     id="defs3066" /><sodipodi:namedview
     pagecolor="#ffffff"
     bordercolor="#666666"
     borderopacity="1"
     objecttolerance="10"
     gridtolerance="10"
     guidetolerance="10"
     inkscape:pageopacity="0"
     inkscape:pageshadow="2"
     inkscape:window-width="800"
     inkscape:window-height="549"
     id="namedview3064"
     showgrid="false"
     inkscape:zoom="64"
     inkscape:cx="87.612954"
     inkscape:cy="170.83757"
     inkscape:window-x="-4"
     inkscape:window-y="-4"
     inkscape:window-maximized="1"
     inkscape:current-layer="Layer_1" /><g
     i:extraneous="self"
     id="g3054"><path
       clip-rule="evenodd"
       d="M201.086,26.686c-3.141,16.447-0.391,66.846-20.534,115.372    c-6.22,15.932-14.566,31.208-25.849,44.124c-16.412,22.072-30.156,33.729-52.773,51.554    c-18.347-13.47-37.292-29.481-53.704-51.554c-11.283-12.916-19.629-28.192-25.849-44.124C2.233,93.532,4.983,43.133,1.843,26.686    c15.626-8.252,63.199-24.397,99.825-24.507C138.938,2.068,180.071,15.695,201.086,26.686L201.086,26.686z"
       id="path3056"
       fill-rule="evenodd"
       fill="#FFFFFF" /><path
       clip-rule="evenodd"
       d="M202.93,24.96c-3.199,16.751-0.398,68.083-20.915,117.507    c-6.334,16.226-14.836,31.784-26.326,44.94c-16.716,22.48-30.715,34.354-53.75,52.507c-18.686-13.719-37.982-30.026-54.698-52.507    c-11.492-13.156-19.992-28.715-26.327-44.94C0.397,93.043,3.198,41.712,0,24.96C15.915,16.556,64.368,0.112,101.672,0    C139.632-0.113,181.525,13.767,202.93,24.96L202.93,24.96z"
       id="path3058"
       fill-rule="evenodd" /><path
       clip-rule="evenodd"
       d="M197.254,28.953c-3.019,15.917-0.376,64.686-19.743,111.642    c-5.98,15.415-14.007,30.198-24.855,42.696c-15.78,21.357-28.996,32.64-50.743,49.887c-17.641-13.034-35.858-28.529-51.639-49.887    c-10.851-12.498-18.873-27.281-24.855-42.696C6.049,93.638,8.694,44.869,5.673,28.953c15.026-7.985,60.77-23.608,95.988-23.714    C137.497,5.13,177.05,18.317,197.254,28.953L197.254,28.953z"
       id="path3060"
       fill-rule="evenodd"
       fill="#FFFFFF" /><path
       d="M 123.6875 12.9375 C 121.24793 12.96623 119.04562 13.560625 117.125 14.75 C 114.049 16.657 111.965 19.88 110.875 24.375 C 110.093 27.594 110.0875 30.39975 110.8125 32.84375 C 111.5375 35.28775 112.77025 37.273 114.53125 38.75 C 116.29425 40.226 118.693 41.3175 121.75 42.0625 C 124.758 42.7925 127.42575 42.8435 129.71875 42.1875 C 132.01275 41.5315 133.933 40.301 135.5 38.5 C 137.067 36.699 138.25025 34.18675 139.03125 30.96875 C 140.10725 26.53775 139.718 22.805 137.875 19.75 C 136.03 16.697 132.85575 14.595 128.34375 13.5 C 126.69263 13.099125 125.15124 12.920262 123.6875 12.9375 z M 79.71875 13.53125 L 70.46875 14.8125 L 64 43.28125 L 72.625 42.0625 L 73.34375 37.40625 L 82.9375 36.0625 L 84.9375 40.3125 L 93.78125 39.09375 L 79.71875 13.53125 z M 124.9375 19.78125 C 125.51845 19.74157 126.117 19.78375 126.75 19.9375 C 128.514 20.3675 129.79325 21.304 130.53125 22.75 C 131.27025 24.195 131.3175 26.2215 130.6875 28.8125 C 129.9375 31.8925 128.93025 33.924 127.65625 34.875 C 126.38225 35.823 124.83025 36.063 123.03125 35.625 C 121.28025 35.199 120.0345 34.2735 119.3125 32.8125 C 118.5905 31.3505 118.575 29.2155 119.25 26.4375 C 119.935 23.6325 120.931 21.74625 122.25 20.78125 C 123.07562 20.17625 123.96925 19.847383 124.9375 19.78125 z M 161.25 19.9375 L 150.5 46.0625 L 158.4375 49.3125 L 161.0625 42.9375 L 166.9375 40.25 L 167.9375 53.21875 L 177.6875 57.21875 L 174.59375 36.9375 L 188 30.9375 L 177.46875 26.59375 L 165.125 33.0625 L 169.15625 23.1875 L 161.25 19.9375 z M 75.96875 21.1875 L 80.375 30.46875 L 74.34375 31.3125 L 75.96875 21.1875 z M 36.875 22.65625 L 12.125 32.9375 L 22.625 58.28125 L 30.59375 54.96875 L 22.6875 35.84375 L 31.46875 32.1875 L 39.40625 51.3125 L 47.375 48 L 36.875 22.65625 z M 102.65625 35.25 C 101.10325 35.25 99.84375 36.5095 99.84375 38.0625 C 99.84375 39.6155 101.10325 40.875 102.65625 40.875 C 104.21125 40.875 105.46975 39.6145 105.46875 38.0625 C 105.46875 36.5095 104.21125 35.25 102.65625 35.25 z M 141.65625 39.3125 C 140.10325 39.3125 138.84375 40.57 138.84375 42.125 C 138.84375 43.677 140.10325 44.9375 141.65625 44.9375 C 143.21025 44.9375 144.46875 43.677 144.46875 42.125 C 144.46875 40.571 143.21025 39.3125 141.65625 39.3125 z M 55.21875 40.8125 C 53.66575 40.8125 52.40625 42.073 52.40625 43.625 C 52.40625 45.178 53.66575 46.4375 55.21875 46.4375 C 56.77075 46.4375 58.03025 45.178 58.03125 43.625 C 58.03125 42.072 56.77075 40.8125 55.21875 40.8125 z M 102.4375 44.78125 C 46.087502 44.78125 9.25 70.78125 9.25 70.78125 L 9.25 75.1875 C 9.25 75.1875 46.088502 49.21875 102.4375 49.21875 C 158.7875 49.21875 193.9385 75.1875 193.9375 75.1875 L 193.9375 70.78125 C 193.9375 70.78125 158.7875 44.78125 102.4375 44.78125 z M 184.03125 54.6875 C 182.47825 54.6875 181.21875 55.947 181.21875 57.5 C 181.21875 59.052 182.47825 60.3125 184.03125 60.3125 C 185.58725 60.3125 186.84375 59.052 186.84375 57.5 C 186.84375 55.947 185.58725 54.6875 184.03125 54.6875 z M 53.6875 180.28125 C 53.668363 180.32181 53.645715 180.3661 53.625 180.40625 C 53.596 180.45725 53.56725 180.5195 53.53125 180.5625 C 53.65785 180.5625 53.727154 180.52397 53.78125 180.46875 C 53.742908 180.41167 53.725613 180.33849 53.6875 180.28125 z M 120.9375 197.125 C 120.23208 197.09223 119.48025 197.2295 118.6875 197.5625 C 117.1785 198.1935 116.14475 199.19125 115.59375 200.53125 C 115.04675 201.87025 115.229 203.614 116.125 205.75 C 116.998 207.83 118.05275 209.12325 119.34375 209.65625 C 120.63075 210.19125 122.00125 210.18275 123.40625 209.59375 C 124.71925 209.04575 125.62425 208.22725 126.15625 207.15625 C 126.69225 206.08525 126.71975 204.94 126.21875 203.75 C 125.74775 202.626 124.965 201.878 123.875 201.5 C 122.782 201.123 121.6785 201.18725 120.5625 201.65625 C 119.5755 202.06925 118.892 202.72025 118.5 203.65625 C 118.042 202.27325 117.911 201.30575 118.125 200.71875 C 118.336 200.13075 118.71825 199.70675 119.28125 199.46875 C 119.70625 199.29275 120.11475 199.273 120.46875 199.375 C 120.82375 199.474 121.127 199.705 121.375 200.125 L 123.84375 198.8125 C 123.26075 197.9475 122.526 197.42175 121.625 197.21875 C 121.3995 197.167 121.17264 197.13592 120.9375 197.125 z M 84.3125 197.53125 C 83.6865 198.09425 82.79425 198.43875 81.65625 198.59375 C 80.51925 198.74675 79.52125 198.754 78.65625 198.625 L 77.84375 200.65625 C 79.48575 200.89725 81.00125 200.84025 82.40625 200.53125 L 79.0625 208.875 L 82.0625 210.09375 L 86.75 198.5 L 84.3125 197.53125 z M 93.5625 200.25 C 92.667984 200.32711 91.86025 200.61775 91.1875 201.15625 C 90.2905 201.87525 89.7905 202.87525 89.6875 204.15625 C 89.5915 205.38925 89.92725 206.42 90.65625 207.25 C 91.38525 208.081 92.284 208.54 93.375 208.625 C 94.378 208.707 95.24575 208.43425 95.96875 207.78125 C 95.74775 209.22025 95.42 210.1315 95 210.5625 C 94.58 210.9925 94.1105 211.19725 93.5625 211.15625 C 93.1295 211.12125 92.77625 210.97275 92.53125 210.71875 C 92.28325 210.46875 92.148 210.106 92.125 209.625 L 89.53125 209.6875 C 89.63725 210.7485 90.001 211.545 90.625 212.125 C 91.251 212.702 92.1045 213.038 93.1875 213.125 C 94.6935 213.242 95.94875 212.85525 96.96875 211.90625 C 97.98775 210.95825 98.59925 209.312 98.78125 207 C 98.96325 204.73 98.6355 203.063 97.8125 202 C 96.9925 200.939 95.87175 200.362 94.46875 200.25 C 94.14575 200.22475 93.860672 200.2243 93.5625 200.25 z M 106.65625 200.40625 C 105.33525 200.51125 104.24425 200.89525 103.40625 201.53125 C 102.56825 202.16525 102.1255 203.1275 102.0625 204.4375 L 104.875 204.46875 C 104.872 203.77575 105.051 203.2605 105.375 202.9375 C 105.7 202.6115 106.13175 202.422 106.71875 202.375 C 107.31275 202.329 107.79325 202.4305 108.15625 202.6875 C 108.51725 202.9425 108.73925 203.32075 108.78125 203.84375 C 108.81825 204.31875 108.6645 204.82475 108.3125 205.34375 C 108.0545 205.71675 107.314 206.43925 106.125 207.53125 C 104.643 208.87825 103.6645 209.97 103.1875 210.75 C 102.7095 211.534 102.44825 212.32125 102.40625 213.15625 L 112.28125 212.375 L 112.125 210.1875 L 106.53125 210.625 C 106.66025 210.402 106.81325 210.1785 107.03125 209.9375 C 107.25025 209.6945 107.79 209.1925 108.625 208.4375 C 109.46 207.6865 110.03175 207.10875 110.34375 206.71875 C 110.81575 206.12775 111.14775 205.5815 111.34375 205.0625 C 111.54275 204.5445 111.63775 204.02375 111.59375 203.46875 C 111.51675 202.49675 111.03825 201.713 110.15625 201.125 C 109.27425 200.538 108.10725 200.29025 106.65625 200.40625 z M 93.84375 202.25 C 93.958 202.23684 94.0645 202.24025 94.1875 202.25 C 94.7035 202.291 95.139 202.539 95.5 203 C 95.859 203.464 96.03375 204.093 95.96875 204.875 C 95.91275 205.587 95.6905 206.0985 95.3125 206.4375 C 94.9325 206.7785 94.47675 206.94925 93.96875 206.90625 C 93.43875 206.86525 93.0085 206.62875 92.6875 206.21875 C 92.3655 205.80875 92.2465 205.19 92.3125 204.375 C 92.3765 203.57 92.5835 203.0145 92.9375 202.6875 C 93.2015 202.44075 93.501 202.28947 93.84375 202.25 z M 121.625 203.28125 C 121.88362 203.2765 122.123 203.3355 122.375 203.4375 C 122.876 203.6405 123.306 204.116 123.625 204.875 C 123.931 205.61 123.97625 206.19425 123.78125 206.65625 C 123.58825 207.11725 123.244 207.4825 122.75 207.6875 C 122.237 207.9035 121.71925 207.88225 121.15625 207.65625 C 120.59225 207.42725 120.14875 206.94275 119.84375 206.21875 C 119.56875 205.55975 119.533 204.986 119.75 204.5 C 119.964 204.016 120.32875 203.68275 120.84375 203.46875 C 121.11025 203.35675 121.36638 203.286 121.625 203.28125 z "
       id="path3062" /></g><path
     style="fill:#000000;fill-opacity:1"
     d="m 99.650217,198.18492 -1.602513,-0.0887 -1.346484,-0.31495 -1.346483,-0.31496 -0.771238,-0.36074 -0.771244,-0.36074 -0.549424,-0.50624 -0.549426,-0.50615 -0.261615,-0.60787 -0.261613,-0.60788 -0.399512,-0.0622 c -2.188632,-0.34109 -2.932956,-0.48687 -3.87061,-0.75804 l -1.089881,-0.31513 -1.11391,-0.54463 -1.113901,-0.54463 -0.827691,-0.68245 -0.827689,-0.68237 -0.3281,-0.49555 -0.328098,-0.49555 -0.195706,0.0759 c -0.107631,0.042 -0.833614,0.20939 -1.61329,0.37244 l -1.417605,0.2964 -1.869729,0.14824 -1.869741,0.14825 -1.821514,-0.14806 -1.821522,-0.14797 -1.239529,-0.25052 -1.239537,-0.25052 -1.468919,-0.48887 -1.46892,-0.48879 -1.489548,-0.77093 c -1.844163,-0.95454 -3.270235,-1.90067 -4.63293,-3.07364 l -1.047793,-0.90199 -0.827689,-1.02976 -0.8277,-1.02985 -0.492312,-0.99914 -0.492322,-0.99915 -0.113503,-0.51565 -0.113502,-0.51566 1.913913,-0.9348 c 3.901242,-1.90542 6.613017,-3.78864 9.218222,-6.40165 l 1.362009,-1.36601 0.755684,-0.99786 c 1.002391,-1.3235 1.777366,-2.6152 2.368278,-3.9473 0.458187,-1.03287 1.116754,-3.06881 1.116754,-3.4524 l 0,-0.1763 1.016976,-1.0272 1.016978,-1.0272 0.423853,-0.72331 c 0.233122,-0.39784 0.610231,-0.95765 0.838013,-1.24417 0.625967,-0.7872 1.318467,-1.98082 1.622024,-2.79589 l 0.271634,-0.72934 0.119465,-0.99567 c 0.06575,-0.54764 0.254583,-1.57786 0.419721,-2.28938 0.436516,-1.88093 0.651351,-3.28048 0.812776,-5.29503 l 0.142909,-1.7835 -0.06967,-0.58832 -0.06975,-0.5884 0.06812,0 c 0.03749,0 1.185909,1.04429 2.552034,2.32063 9.531087,8.90472 15.494115,14.30183 16.454116,14.89252 0.18097,0.11132 0.709419,0.45625 1.174346,0.76636 l 0.845331,0.564 0.88045,0 0.88045,0 0.92452,-0.60266 c 0.50849,-0.3315 1.11868,-0.73373 1.35596,-0.89376 1.04328,-0.70366 7.46142,-6.53472 16.97807,-15.42509 0.9674,-0.90381 1.75865,-1.59687 1.75829,-1.5402 -3.6e-4,0.0567 0.0265,0.86853 0.0599,1.80415 l 0.0605,1.70116 0.25066,1.68717 c 0.13784,0.92794 0.36347,2.1585 0.50138,2.73457 0.1379,0.57598 0.32977,1.61021 0.42638,2.29834 l 0.17566,1.25102 0.26693,0.71308 c 0.32144,0.85866 0.94187,1.93868 1.49199,2.59691 0.22207,0.26578 0.62564,0.86342 0.89683,1.32817 l 0.49307,0.84496 1.01697,1.03606 1.01698,1.03607 0,0.16323 c 0,0.0896 0.14222,0.65467 0.3161,1.25524 l 0.31609,1.0919 0.49177,1.10891 c 0.57443,1.29527 1.33934,2.56467 2.37585,3.94283 l 0.74136,0.9857 1.48505,1.48355 1.48505,1.48363 1.44024,1.07673 c 2.19808,1.64321 5.4583,3.53575 7.6402,4.43491 l 0.45159,0.18617 -0.11772,0.53439 -0.11773,0.53439 -0.4923,0.99915 -0.49232,0.99914 -0.8277,1.0293 -0.8277,1.0293 -0.98616,0.85483 -0.98616,0.85483 -1.29433,0.85747 -1.29431,0.85748 -1.34434,0.67469 -1.34432,0.67477 -1.42925,0.47517 -1.42924,0.47508 -1.25981,0.25015 -1.25982,0.25006 -1.6885,0.14943 -1.68849,0.14944 -1.9948,-0.15063 -1.99482,-0.15052 -1.46689,-0.31322 c -0.8068,-0.17228 -1.52797,-0.32272 -1.60259,-0.33433 l -0.13567,-0.021 -0.51881,0.65257 -0.51884,0.65248 -0.75731,0.55724 -0.75728,0.55724 -1.00696,0.48038 -1.00695,0.48038 -1.09443,0.31714 c -0.9376,0.27172 -2.20698,0.52105 -3.83608,0.75356 l -0.39951,0.0567 -0.2616,0.60787 -0.26164,0.60788 -0.52962,0.48796 -0.52962,0.48796 -0.62018,0.31413 -0.62013,0.31413 -0.90103,0.24019 c -0.49556,0.13216 -1.34478,0.3229 -1.88716,0.4238 l -0.98617,0.18362 -1.47923,0.0448 -1.47923,0.0448 -1.602516,-0.0887 z m -4.60339,-6.31428 0.728078,-1.12289 0.779949,-1.60181 0.779951,-1.60171 0.50633,-1.47861 0.506339,-1.47851 0.06839,-3.14192 c 0.03758,-1.72803 0.09663,-3.57597 0.131151,-4.10634 l 0.06271,-0.9645 -0.115343,0.0713 c -0.187329,0.11571 -1.714413,3.80665 -2.374395,5.73885 -1.230604,3.60274 -2.070575,7.87742 -2.077542,10.57269 l -9.15e-4,0.40772 0.138648,-0.0859 c 0.07626,-0.0475 0.466289,-0.59097 0.866733,-1.20862 z m 13.791463,-0.86963 -0.14222,-1.60857 -0.24752,-1.2938 c -0.38343,-2.00414 -0.9029,-3.96093 -1.57008,-5.91415 -0.65999,-1.9322 -2.18705,-5.62314 -2.37439,-5.73885 l -0.11533,-0.0713 0.0626,0.9645 c 0.0346,0.53037 0.0937,2.37831 0.13161,4.10634 l 0.0688,3.14192 0.43661,1.29371 c 0.77137,2.28572 2.24355,5.22575 3.39333,6.77674 l 0.41103,0.55441 0.0437,-0.30115 c 0.0241,-0.1657 -0.0202,-1.0251 -0.0984,-1.90981 z m -21.502023,-6.47742 c 0.986052,-1.20826 2.061018,-2.75157 2.928292,-4.20422 l 0.699842,-1.17225 0.671852,-1.48536 0.671852,-1.48546 0.551666,-1.66725 0.551673,-1.66734 0.305578,-1.45841 c 0.334198,-1.59513 0.639291,-3.65017 0.756148,-5.09331 l 0.0748,-0.92411 -0.252269,0.3081 c -0.138748,0.16935 -0.770203,1.08423 -1.403231,2.03301 -3.256107,4.88 -5.743356,9.77444 -7.232008,14.231 l -0.596773,1.78661 -0.30758,1.41692 c -0.16916,0.77933 -0.341861,1.69421 -0.383766,2.03301 l -0.07617,0.6161 1.143728,-1.17234 c 0.62905,-0.64489 1.482406,-1.58745 1.896355,-2.0947 z m 31.313883,2.74334 c -0.0356,-0.18635 -0.0996,-0.58831 -0.14203,-0.89321 -0.0425,-0.30499 -0.2679,-1.29161 -0.50099,-2.19259 l -0.42379,-1.63819 -0.55829,-1.53947 c -0.30706,-0.84669 -0.97218,-2.46413 -1.47808,-3.59424 l -0.91979,-2.05486 -0.94671,-1.72912 c -0.52069,-0.95098 -1.32917,-2.36231 -1.79664,-3.13626 -0.95253,-1.57713 -3.27906,-5.06142 -3.37961,-5.06142 l -0.0652,0 0.0811,0.89322 c 0.1559,1.71596 0.32845,2.87833 0.69961,4.71292 l 0.37394,1.84822 0.55746,1.66331 0.55747,1.66341 0.67019,1.47851 c 1.42218,3.13763 3.58456,6.26913 6.18962,8.96376 0.50774,0.52516 0.97343,0.95491 1.03485,0.95491 l 0.1117,0 -0.0649,-0.3389 z m -66.638392,-9.75616 c 1.485991,-4.62537 2.478837,-9.44935 2.892595,-14.05461 l 0.182648,-2.03301 -6.95e-4,-2.27951 -7.05e-4,-2.27941 -0.177727,-1.66332 c -0.220331,-2.06208 -0.485547,-3.86038 -0.817733,-5.54463 -0.639336,-3.24145 -2.073875,-8.42215 -3.254334,-11.75271 -0.3095,-0.8732 -0.5434,-1.60702 -0.519781,-1.6306 0.132477,-0.13243 3.541486,2.50435 5.506359,4.25888 2.378711,2.12422 3.230083,3.16111 4.369084,5.32144 l 0.673362,1.27717 0.485161,1.41691 c 0.60876,1.77793 0.93215,3.16459 1.249963,5.35974 l 0.249744,1.72501 0.131516,2.34613 0.131517,2.34604 -0.128837,2.04088 -0.128838,2.04087 -0.25898,1.52412 c -1.005199,5.91579 -3.845209,10.22164 -8.18582,12.41094 -1.043403,0.52626 -2.361868,1.00947 -2.754422,1.00947 l -0.235171,0 0.591094,-1.8398 z m 98.231812,1.54871 c -1.10014,-0.38816 -2.47685,-1.09904 -3.44272,-1.77757 l -0.80126,-0.5629 -0.8708,-0.87631 c -2.47097,-2.48661 -4.01489,-5.72551 -4.72699,-9.91629 l -0.25963,-1.52787 -0.13025,-2.08346 -0.13024,-2.08346 0.13412,-2.29971 0.13415,-2.29979 0.24917,-1.72501 c 0.31684,-2.19341 0.64018,-3.58044 1.24941,-5.35974 l 0.48515,-1.41691 0.67337,-1.27717 c 1.19852,-2.2732 1.98945,-3.21869 4.67281,-5.58594 1.95936,-1.72858 5.08032,-4.11657 5.21026,-3.9867 0.0256,0.0256 -0.20602,0.74351 -0.51493,1.59523 -1.716,4.73157 -3.22021,10.784 -3.92293,15.78483 l -0.27703,1.97141 0.003,3.69641 0.003,3.69633 0.21953,1.72501 c 0.62688,4.92552 1.87508,10.40279 3.20803,14.077 l 0.18996,0.5237 -0.27189,0 c -0.14954,0 -0.63642,-0.13124 -1.08195,-0.28844 z M 64.378731,168.42792 c 0.18144,-0.59288 0.81124,-4.60535 1.118829,-7.12798 0.04132,-0.33889 0.124695,-1.47549 0.18529,-2.52591 l 0.110174,-1.9098 -0.124867,-1.47705 -0.124878,-1.47696 -0.29498,-1.16238 -0.29498,-1.16228 -0.37861,-0.80867 c -0.208231,-0.44483 -0.464817,-0.90391 -0.57019,-1.02035 l -0.19159,-0.21158 0.807638,-2.37776 0.807637,-2.37776 0.255167,-1.26209 c 0.140348,-0.69406 0.333302,-1.93248 0.4288,-2.75202 0.09549,-0.81946 0.197535,-1.51389 0.226767,-1.54313 0.08961,-0.0896 1.259169,2.75111 1.920159,4.66375 1.112767,3.21989 1.829414,6.27324 2.176019,9.27113 l 0.1851,1.60107 0,2.01794 0,2.01792 -0.189982,1.2789 c -0.104495,0.70339 -0.298938,1.70856 -0.43211,2.23363 l -0.242119,0.95473 -0.536643,1.109 -0.536641,1.1089 -0.511112,0.67761 -0.511122,0.67771 -0.618919,0.51611 -0.618928,0.5162 -0.643962,0.30627 c -0.354177,0.16844 -0.829766,0.34374 -1.056862,0.38962 l -0.412889,0.0832 0.06985,-0.22812 z m 73.256249,-0.053 c -1.64655,-0.66783 -2.92736,-2.01153 -3.90445,-4.09646 l -0.47197,-1.00709 -0.25454,-0.98571 c -0.13997,-0.54207 -0.33771,-1.54011 -0.43939,-2.21782 l -0.18488,-1.23211 -7.2e-4,-2.00704 -7.7e-4,-2.00706 0.1296,-1.19647 c 0.21136,-1.95185 0.5885,-3.994 1.11185,-6.02053 l 0.49194,-1.90497 0.74833,-2.11847 c 0.69651,-1.97168 1.50665,-3.94602 1.72268,-4.19827 l 0.0927,-0.10849 0.0637,0.41649 c 0.0351,0.22913 0.15255,1.08186 0.26095,1.8951 0.22777,1.70856 0.65042,3.54553 1.11984,4.86684 0.18056,0.50825 0.48572,1.38821 0.67814,1.95551 l 0.34985,1.03131 -0.48089,0.87841 -0.48092,0.8785 -0.3078,1.06577 -0.30782,1.06586 -0.13909,1.01532 -0.13909,1.01541 7.4e-4,1.86163 7.3e-4,1.86156 0.13496,1.417 c 0.21792,2.28801 0.86165,6.55081 1.17685,7.79316 l 0.0859,0.3389 -0.22907,-0.009 c -0.12599,0 -0.49846,-0.11598 -0.8277,-0.24951 z m -36.6926,-9.94754 c -2.496647,-2.03593 -4.644796,-3.88533 -7.455646,-6.41856 l -1.972313,-1.77756 -3.458517,-3.46016 -3.458515,-3.46016 -1.475147,-1.66332 c -6.182635,-6.9716 -10.1273,-12.86335 -12.293849,-18.36201 l -0.559601,-1.4203 -0.318224,-1.23174 c -0.321232,-1.24335 -0.713695,-3.27262 -0.646021,-3.34025 0.103481,-0.10337 1.648084,-1.06623 2.733273,-1.70372 7.036368,-4.13357 15.484971,-6.74914 24.284114,-7.51796 l 2.095583,-0.18307 3.205013,0 3.20502,9.2e-4 2.15721,0.18069 c 9.70229,0.81241 18.91323,3.875 26.11765,8.68399 l 0.78574,0.52452 -0.08,0.69434 c -0.0439,0.38194 -0.27575,1.44287 -0.51483,2.35774 l -0.43468,1.66341 -0.56423,1.41691 c -2.45966,6.17691 -6.90169,12.51843 -14.44563,20.6227 l -2.0501,2.20246 -2.59385,2.47967 c -4.13977,3.95754 -11.32143,10.22547 -11.65544,10.17246 -0.0276,0 -0.3006,-0.21222 -0.60688,-0.46201 z m 3.21948,-5.854 2.63801,-2.13474 0.0312,-19.97433 0.0312,-19.97433 -0.5859,-0.0923 -0.58589,-0.0923 -3.02012,-0.009 -3.020112,-0.009 -1.694953,0.10501 -1.694956,0.10502 0.0064,19.73222 0.0064,19.73222 1.973677,1.84821 c 1.528586,1.43136 3.110064,2.83154 3.264964,2.89077 0.006,0 1.19941,-0.95591 2.65029,-2.13008 z m -17.146789,-25.52884 0,-14.84948 -0.338988,0.0832 c -0.878119,0.21478 -4.326676,1.31921 -5.236743,1.67721 l -1.019191,0.40077 -0.03155,10.05274 -0.03155,10.05275 1.50033,1.77573 c 2.094255,2.47857 4.972742,5.65687 5.123287,5.65687 0.01891,0 0.03438,-6.68224 0.03438,-14.84948 z m 31.546909,12.44686 c 0.79356,-0.88096 2.09121,-2.36926 2.8837,-3.30734 l 1.44087,-1.70555 0,-10.06508 0,-10.06499 -0.40062,-0.15811 c -0.69759,-0.27519 -3.93818,-1.34681 -4.89998,-1.62036 -0.5085,-0.14459 -1.0216,-0.29082 -1.14025,-0.32491 l -0.2157,-0.0622 0,14.87955 0,14.87964 0.44457,-0.42463 c 0.24451,-0.23351 1.09387,-1.14537 1.88741,-2.02634 z m -45.183849,15.55872 c 0.03695,-0.1169 0.134212,-0.69169 0.21617,-1.27726 l 0.149007,-1.06467 -0.150827,-1.4628 -0.150828,-1.46279 -0.41395,-1.63407 c -0.808853,-3.19292 -2.197372,-6.41609 -4.413168,-10.24413 l -0.9899,-1.7102 0.07837,-1.80909 0.07836,-1.80919 0.243353,-1.42285 0.243355,-1.42276 0.377254,-1.15689 c 0.207484,-0.6363 0.449312,-1.28512 0.537394,-1.44187 l 0.160136,-0.28488 0.210864,0.75804 c 0.115973,0.41695 0.403445,1.16374 0.638826,1.65957 l 0.427958,0.90135 0.847249,1.28493 c 0.753515,1.14282 2.39186,3.35817 4.670648,6.31584 l 0.759459,0.9857 -0.1226,4.37403 -0.122609,4.37404 -0.178544,1.2067 -0.178541,1.20661 -0.377604,1.12655 -0.377594,1.12654 -0.454238,0.86397 -0.45423,0.86406 -0.660439,0.68401 -0.66044,0.684 0.06721,-0.21249 z m 55.686819,-0.40169 c -1.31934,-1.43062 -2.24292,-3.67595 -2.59538,-6.30952 l -0.12874,-0.96195 -0.12018,-4.31234 -0.12019,-4.31234 0.76087,-0.98579 c 3.44843,-4.4679 5.07774,-6.79658 5.87196,-8.39254 l 0.49751,-0.99969 0.21128,-0.75959 0.21126,-0.75959 0.0955,0.096 c 0.0525,0.053 0.29212,0.68365 0.5325,1.40211 l 0.43704,1.30623 0.25085,1.46609 0.25084,1.46599 0.071,1.84821 0.071,1.84821 -0.82621,1.35531 -0.8262,1.35532 -1.08914,2.21781 -1.08913,2.21782 -0.61413,1.66341 -0.61412,1.6634 -0.37239,1.54012 -0.37239,1.54021 -0.14402,1.23211 -0.14404,1.23211 0.0803,1.0059 c 0.0441,0.55331 0.13243,1.18724 0.19599,1.40878 0.0636,0.22163 0.0969,0.42152 0.0741,0.44437 -0.023,0.0229 -0.27291,-0.20948 -0.55571,-0.51612 z m -71.141506,-15.2764 c -0.897942,-0.25737 -1.231189,-0.41521 -2.11238,-1.00079 l -0.834593,-0.5545 -0.754056,-0.82256 c -3.109358,-3.3918 -5.308971,-9.66166 -6.64523,-18.94183 -0.444703,-3.08836 -0.705145,-5.64526 -0.871261,-8.55339 -0.118952,-2.08264 -0.101345,-2.51476 0.08267,-2.02972 0.158792,0.41859 1.341647,2.18244 2.139464,3.19036 l 0.780215,0.9857 1.874275,1.8526 1.874273,1.85251 0.704552,1.08039 0.704549,1.08039 0.464498,1.07144 c 0.812867,1.87499 1.315038,3.72923 2.156617,7.96325 l 0.561679,2.82569 0.674339,4.38225 c 0.370892,2.41021 0.710904,4.70105 0.75559,5.09067 l 0.08128,0.70851 -0.540867,-0.011 -0.540865,-0.011 -0.554719,-0.15894 z m 85.596416,-0.52754 c 0.20087,-1.7516 1.48514,-9.76685 1.93514,-12.07734 1.10496,-5.67351 1.89239,-8.05711 3.44879,-10.43935 l 0.64371,-0.98534 1.99307,-1.97178 1.99308,-1.97178 0.95859,-1.29261 c 0.52723,-0.71088 1.15276,-1.63965 1.39009,-2.06382 0.23732,-0.42417 0.46042,-0.7712 0.49581,-0.7712 l 0.0645,0 -0.0799,1.26291 c -0.8419,13.30233 -3.09679,22.48846 -6.73892,27.45355 -1.30307,1.77637 -2.83195,2.90136 -4.61017,3.39216 l -0.61634,0.17018 -0.47924,0 -0.47924,0 0.0813,-0.7085 z m -81.122954,-1.04776 c -2.067071,-8.04687 -2.773999,-11.16028 -3.364014,-14.81585 l -0.258534,-1.60181 -0.0726,-1.78907 -0.0726,-1.78908 0.210646,-1.04484 0.210637,-1.04475 0.38973,-0.79414 0.389726,-0.79405 0.636302,-0.68702 0.6363,-0.68693 0.550331,-0.27474 0.550331,-0.27474 0.726112,0 0.726119,0 0.516536,0.23434 0.516535,0.23443 0.581062,0.53302 0.581063,0.53294 0.270502,0.6161 c 0.581391,1.32405 1.005519,3.36968 1.160306,5.59636 l 0.102187,1.47001 -0.09895,1.52476 -0.09893,1.52485 -0.201136,1.10261 c -0.316111,1.73296 -1.091124,4.5995 -1.897071,7.01684 -0.78271,2.3476 -2.147921,5.93973 -2.324553,6.11622 l -0.105135,0.10511 -0.261002,-1.01605 z m 77.624464,0.46246 c -1.43234,-3.21933 -3.28774,-9.0493 -3.94359,-12.39129 l -0.25554,-1.30212 -0.10369,-1.49177 -0.10373,-1.49176 0.10087,-1.55328 0.10087,-1.55318 0.20053,-1.06979 c 0.1103,-0.58832 0.36867,-1.59843 0.57417,-2.24469 l 0.3736,-1.17499 0.67198,-0.65586 0.67196,-0.65594 0.51719,-0.23462 0.51721,-0.2347 0.73961,0 0.73961,0 0.62829,0.36019 0.62829,0.36019 0.57373,0.63785 0.57373,0.63776 0.3604,0.75658 0.36039,0.75667 0.21109,1.04475 0.21108,1.04484 -0.0726,1.78907 -0.0725,1.78908 -0.25852,1.60181 c -0.57762,3.57879 -1.89133,9.38189 -3.24948,14.35421 l -0.42069,1.5402 -0.27409,-0.6161 z M 57.641787,113.03306 c -0.430474,-1.36546 -0.87864,-4.8248 -1.217382,-9.39661 l -0.146072,-1.97141 -4.48e-4,-4.928441 -4.57e-4,-4.928529 0.210325,-2.150641 c 0.456131,-4.663853 1.018394,-7.168562 1.975826,-8.801535 l 0.335862,-0.57287 0.634215,-0.501034 c 0.34882,-0.27565 0.967509,-0.669293 1.374876,-0.874842 l 0.740668,-0.373719 0.579427,-0.0091 0.579425,-0.0091 0.432888,0.330031 0.432896,0.330031 0.139351,0.422067 0.139343,0.421976 -0.187256,0.448023 c -0.102994,0.246404 -0.275623,0.874843 -0.383629,1.396714 l -0.196364,0.948691 0,1.170509 0,1.17051 0.203998,0.985706 0.204,0.985706 0.398278,1.002711 c 0.776236,1.95423 2.171101,4.045829 3.891621,5.835363 l 0.888205,0.923923 -0.47013,0.406164 -0.47013,0.406255 -0.743484,0.36202 -0.743485,0.362108 -1.232698,0.324182 -1.232699,0.324182 -0.55471,0.282962 c -0.305092,0.155648 -0.788143,0.484308 -1.073431,0.730346 l -0.518719,0.447292 -0.379551,0.770652 -0.379542,0.770657 -0.139141,0.83919 -0.139134,0.83929 0.145891,1.09529 0.145879,1.0952 0.375464,1.03716 0.375464,1.03717 0.42571,0.70667 c 0.234137,0.38862 0.410888,0.71773 0.392783,0.73135 -0.0181,0.0137 -0.380776,0.20775 -0.805919,0.43139 l -0.772992,0.40653 -0.793758,0.84103 -0.793756,0.84102 -0.487513,1.01944 -0.487512,1.01943 -0.153279,0.7393 c -0.08429,0.40662 -0.189615,0.78162 -0.234017,0.83335 l -0.08074,0.0939 -0.204446,-0.64845 z m 87.157703,-0.37216 -0.21395,-0.89239 -0.44497,-0.90345 -0.44495,-0.90345 -0.80378,-0.85163 -0.80379,-0.85163 -0.78698,-0.38725 c -0.43283,-0.21304 -0.78696,-0.40653 -0.78696,-0.43011 0,-0.0238 0.16858,-0.31668 0.37467,-0.65147 0.20605,-0.33478 0.50612,-0.93205 0.6668,-1.32725 l 0.29213,-0.71865 0.19608,-0.94878 0.19607,-0.94887 -0.002,-0.89852 -0.002,-0.89842 -0.16464,-0.6161 c -0.2153,-0.805566 -0.57236,-1.484182 -1.10663,-2.103298 l -0.43285,-0.50149 -0.71817,-0.381853 -0.71816,-0.381853 -1.15565,-0.324182 -1.15566,-0.324181 -0.81665,-0.415301 c -0.44916,-0.22849 -1.00536,-0.57543 -1.23598,-0.771017 l -0.4193,-0.355714 0.89379,-0.916976 c 0.49159,-0.504232 1.24483,-1.382822 1.67388,-1.95222 l 0.78007,-1.035334 0.62074,-1.120881 0.62076,-1.120881 0.43389,-1.325243 0.43389,-1.325156 0.10005,-1.041732 0.10005,-1.041824 -0.0899,-1.02135 -0.0899,-1.021443 -0.32348,-1.022539 -0.3235,-1.022538 0.223,-0.448024 0.22298,-0.448115 0.3383,-0.247043 0.3383,-0.247135 0.60231,0.0091 0.60231,0.0091 0.8776,0.46091 0.8776,0.461002 0.5329,0.468862 0.53291,0.468861 0.37926,0.717185 0.37926,0.717185 0.32891,1.047307 0.32889,1.047308 0.29209,1.725008 0.29209,1.725014 0.21579,2.279417 0.21581,2.279418 0.004,4.682034 0.004,4.682122 -0.15775,2.27942 c -0.18885,2.72872 -0.56422,6.28129 -0.82606,7.8182 -0.18759,1.10105 -0.51078,2.16289 -0.65781,2.16115 -0.0416,-4.5e-4 -0.17197,-0.40241 -0.28966,-0.8933 z m -75.933087,0.40671 -0.336219,-0.26532 -0.258469,-0.57854 c -0.448358,-1.00344 -2.572991,-6.29472 -3.269714,-8.14293 l -0.668532,-1.77345 0,-0.60449 0,-0.6045 0.176273,-0.33277 c 0.09695,-0.18297 0.415908,-0.55752 0.708802,-0.832343 l 0.53252,-0.499571 1.66414,-0.754931 c 3.793783,-1.721171 6.897601,-2.885097 11.219585,-4.207415 5.033843,-1.540206 10.579848,-2.621512 16.639353,-3.244194 l 1.540874,-0.158389 4.992404,3.65e-4 4.99245,3.66e-4 1.47923,0.157932 c 9.53811,1.01797 17.41744,3.152798 27.48912,7.447861 l 2.58866,1.103973 0.22883,0.203539 c 0.12585,0.111957 0.34,0.421337 0.47587,0.687387 l 0.247,0.48376 -0.059,0.56355 -0.059,0.56355 -1.99352,5.05173 -1.99352,5.05174 -0.3402,0.34255 -0.3402,0.34255 -0.45699,0.074 -0.45702,0.074 -2.9268,-1.41993 c -4.10552,-1.99161 -6.95144,-3.10591 -10.56951,-4.13823 -3.12599,-0.89184 -6.68435,-1.58334 -9.92322,-1.92836 l -1.78741,-0.19038 -3.0201,-0.0759 -3.02011,-0.0759 -2.52703,0.14523 c -4.363526,0.25079 -8.918963,0.80237 -12.388598,1.4999 -1.545051,0.31066 -4.721068,1.11028 -6.101849,1.53628 -0.576291,0.17776 -1.241943,0.37938 -1.479235,0.44811 -0.2373,0.0686 -1.429929,0.51666 -2.650301,0.99558 l -2.218851,0.87082 -1.787407,0.91917 c -0.98308,0.50551 -2.009293,1.03241 -2.28049,1.17069 l -0.493081,0.25162 -0.616349,0.053 -0.616348,0.053 -0.33621,-0.26524 z m 65.551457,-1.29353 0.30257,-0.30243 0,-0.4875 0,-0.48751 -0.37927,-0.31897 -0.37926,-0.31898 -0.28927,0 -0.28926,0 -0.37925,0.31898 -0.37928,0.31897 0,0.48778 0,0.48778 0.32618,0.30216 0.32618,0.30215 0.41904,0 0.41906,0 0.30256,-0.30243 z m -60.810849,-1.65564 0.08999,-0.0823 -1.600352,-3.74779 -1.600345,-3.74788 0.09278,-0.0823 c 0.05102,-0.0448 0.801447,-0.37647 1.667596,-0.73657 l 1.574797,-0.65457 0.107879,0.11388 c 0.08557,0.0905 2.069248,4.6898 3.011701,6.98311 0.104443,0.25408 0.21777,0.46201 0.25185,0.46201 0.0341,0 0.522276,-0.19714 1.084896,-0.43806 0.56262,-0.24092 1.23096,-0.52654 1.485204,-0.63475 0.254244,-0.10821 0.462257,-0.23342 0.462257,-0.27821 0,-0.0448 -0.920105,-2.2403 -2.044696,-4.87899 -1.124581,-2.638608 -2.073529,-4.866844 -2.108767,-4.951568 -0.03521,-0.085 -0.116915,-0.154002 -0.181488,-0.154002 -0.196912,0 -9.34801,3.89228 -9.48739,4.03532 l -0.08999,0.0923 0.535051,1.23211 c 0.294275,0.6777 1.240223,2.89552 2.102093,4.92853 0.86188,2.03301 1.588282,3.73316 1.614242,3.77804 l 0.04718,0.0813 1.447779,-0.61921 c 0.796291,-0.34054 1.488267,-0.65613 1.537746,-0.70137 z m 57.785139,0.57397 c 0,-0.0841 -0.28006,-1.81092 -0.62235,-3.83836 l -0.62236,-3.68628 0.0542,-0.13526 0.0542,-0.13536 2.53355,-1.10891 2.53351,-1.10891 -0.0856,-0.0786 c -0.13909,-0.12768 -3.83973,-1.584897 -4.02472,-1.584897 -0.0931,0 -1.18334,0.525253 -2.42248,1.167307 -1.23914,0.64206 -2.27716,1.14319 -2.30675,1.11366 -0.0295,-0.0292 0.25844,-0.82622 0.64004,-1.770337 0.3816,-0.944213 0.69382,-1.770981 0.69382,-1.837426 l 0,-0.120734 -1.48215,-0.591698 -1.48213,-0.591698 -0.10832,0.114153 c -0.0816,0.08591 -2.66738,6.39516 -3.97456,9.69785 -0.0745,0.18855 -0.11432,0.35736 -0.0884,0.37527 0.15615,0.10694 3.08708,1.21173 3.11704,1.17499 0.0201,-0.0247 0.24626,-0.58 0.50258,-1.23403 l 0.46607,-1.18924 1.11247,-0.50652 c 0.61185,-0.27848 1.13987,-0.47901 1.1734,-0.44556 0.0336,0.0338 0.16298,1.15169 0.28768,2.48488 0.12471,1.33319 0.24724,2.44439 0.27232,2.46952 0.0598,0.0594 3.56609,1.4936 3.68623,1.5074 0.0508,0.009 0.0924,-0.0576 0.0924,-0.14139 z m -47.39263,-4.44112 0.326472,-0.28067 0.01308,-0.4621 0.01308,-0.4621 -0.316421,-0.31623 -0.316432,-0.31632 -0.463501,-0.0128 -0.4635,-0.0128 -0.292392,0.33971 -0.292392,0.33982 0,0.42992 0,0.43002 0.302568,0.30243 0.30257,0.30243 0.43018,0 0.430172,0 0.326471,-0.28068 z m 33.92541,-0.65019 0.27737,-0.31504 0,-0.37217 0,-0.37225 -0.36034,-0.36019 -0.36032,-0.3602 -0.38878,0 -0.38876,0 -0.36032,0.3602 -0.36033,0.36019 0.002,0.28671 c 9.1e-4,0.15766 0.0714,0.42417 0.15651,0.59224 l 0.1547,0.30563 0.30574,0.15967 0.30575,0.15958 0.3698,-0.0649 0.3698,-0.0649 0.27738,-0.31505 z m -29.489265,-0.24777 c 0.809587,-0.10611 1.488196,-0.20921 1.508011,-0.22895 0.01984,-0.0201 0.09632,-0.39044 0.169992,-0.82357 l 0.133957,-0.78756 0.140322,-0.13655 0.140311,-0.13654 1.768343,-0.21104 1.768354,-0.21112 0.07168,0.0713 c 0.03941,0.0393 0.224845,0.41759 0.412103,0.84048 l 0.34048,0.76882 0.161661,-2.7e-4 c 0.08888,-10e-5 0.86893,-0.0795 1.73336,-0.17558 l 1.571687,-0.17538 0,-0.0905 c 0,-0.0786 -5.269114,-10.212679 -5.364675,-10.317785 -0.01993,-0.02193 -0.859584,0.06215 -1.865853,0.186357 l -1.829582,0.226296 -0.692427,2.893962 c -0.38084,1.591662 -0.996164,4.15532 -1.367394,5.69699 l -0.67497,2.80312 0.201356,0 c 0.110741,0 0.863736,-0.0868 1.67333,-0.19294 z m 2.357937,-4.573 c -0.05258,-0.053 0.59468,-3.712878 0.669796,-3.787731 l 0.07223,-0.0722 0.759814,1.719251 c 0.417902,0.945492 0.759826,1.76942 0.759826,1.83093 l 0,0.11169 -1.115905,0.11379 c -0.613742,0.0631 -1.129344,0.10035 -1.145785,0.0841 z m 21.369318,4.08997 0.55556,-0.0695 0.6395,-0.29613 0.63949,-0.29612 0.57025,-0.52544 0.57025,-0.52534 0.31191,-0.53202 c 0.41533,-0.70841 0.62957,-1.45575 0.78605,-2.742151 l 0.12972,-1.066227 -0.13576,-0.855558 -0.13572,-0.85565 -0.29428,-0.645165 -0.29428,-0.64507 -0.59472,-0.59444 -0.59473,-0.59444 -0.67856,-0.331859 -0.67857,-0.331859 -0.86073,-0.182244 -0.86075,-0.182243 -0.826,0 -0.82599,0 -0.65324,0.136637 -0.65322,0.136637 -0.70906,0.373535 -0.70905,0.373536 -0.50388,0.546366 -0.50388,0.546365 -0.30138,0.658049 -0.30137,0.65796 -0.17851,0.842123 -0.1785,0.842123 -3.9e-4,0.800904 -3.8e-4,0.800901 0.17801,0.75439 0.17801,0.75447 0.27513,0.47764 c 0.43709,0.75895 0.69495,1.05379 1.35512,1.54962 l 0.61842,0.46447 0.82224,0.25993 0.82225,0.25993 0.92452,0.0896 c 0.50848,0.0493 1.0632,0.074 1.2327,0.0548 0.16949,-0.0192 0.55816,-0.0658 0.86372,-0.10419 z m -2.20454,-2.52253 c -0.47973,-0.11927 -0.9512,-0.44419 -1.26989,-0.87512 l -0.22216,-0.30042 -0.12387,-0.66079 -0.12389,-0.660704 0.072,-0.69461 c 0.0395,-0.382035 0.15531,-0.959658 0.25718,-1.283657 l 0.18515,-0.589139 0.32205,-0.382493 0.32206,-0.382584 0.40242,-0.168077 0.40243,-0.168077 0.417,0 c 0.55466,0 1.18797,0.221087 1.54867,0.540699 l 0.29362,0.260204 0.22757,0.492808 0.22757,0.492899 0.003,0.867348 0.003,0.86744 -0.19122,0.733723 c -0.10515,0.40361 -0.2874,0.89843 -0.40498,1.09968 l -0.21377,0.36586 -0.36608,0.21368 -0.36607,0.21369 -0.49245,0.0603 -0.49244,0.0603 -0.41631,-0.10355 z m -7.40815,1.7782 0.29266,-0.31139 0,-0.44391 0,-0.44382 -0.33968,-0.29201 -0.33971,-0.2921 -0.43018,0 -0.43017,0 -0.30257,0.30243 -0.30257,0.30243 0,0.44245 0,0.44245 0.30257,0.30243 0.30257,0.30243 0.47721,0 0.47718,0 0.29269,-0.31139 z m -49.141926,6.57869 c -0.533697,-0.4218 -1.448017,-1.25451 -2.031822,-1.85059 l -1.061471,-1.08368 -0.787576,-1.1133 c -2.078384,-2.93802 -3.13615,-5.79387 -3.422215,-9.239774 l -0.107138,-1.290601 0.105794,-1.42002 0.105794,-1.420112 0.200461,-0.985706 c 0.424711,-2.0884 1.019582,-3.562983 2.087618,-5.17494 l 0.653098,-0.985706 0.90393,-0.88837 c 1.353342,-1.330178 2.656603,-2.232805 4.215121,-2.919464 0.812065,-0.357815 2.310089,-0.841209 2.382489,-0.768823 0.02606,0.02559 -0.06857,0.341455 -0.21028,0.700824 -0.690651,1.751423 -2.241033,7.948354 -2.839324,11.348926 l -0.230909,1.312447 -0.144061,1.952674 -0.14407,1.952768 0.07927,2.156217 c 0.123514,3.36081 0.499006,6.51754 1.134346,9.53654 0.09841,0.46749 0.156944,0.87201 0.130117,0.89878 -0.02679,0.0265 -0.485447,-0.2963 -1.019144,-0.71809 z m 95.118796,0.73226 c 2.6e-4,-0.021 0.14234,-0.75886 0.31576,-1.63983 0.1734,-0.88096 0.42287,-2.40572 0.55432,-3.38832 l 0.23905,-1.78661 0.14792,-2.61795 0.14793,-2.617949 -0.15199,-2.248891 -0.15202,-2.24898 -0.23092,-1.293711 c -0.60811,-3.406604 -2.16691,-9.628486 -2.83625,-11.320867 -0.14419,-0.364579 -0.23791,-0.687115 -0.20823,-0.716728 0.0296,-0.03016 0.57253,0.119272 1.2064,0.330946 l 1.15245,0.384777 0.80126,0.43861 c 0.44068,0.241285 1.10634,0.639772 1.47923,0.885627 l 0.67798,0.447018 1.03217,0.986529 1.03216,0.986438 0.52827,0.739302 c 0.29055,0.406621 0.77956,1.23833 1.08672,1.848216 l 0.55844,1.108908 0.32214,1.108908 0.32213,1.108908 0.18995,1.23211 0.18995,1.232111 -0.0663,2.217813 -0.0662,2.217908 -0.18371,0.800812 c -0.63673,2.775885 -1.73894,5.163235 -3.40277,7.370365 l -0.72865,0.96651 -1.10998,1.11795 c -1.10915,1.11714 -2.84972,2.55379 -2.84718,2.35007 z M 130.18401,93.525127 c -5.73115,-2.94734 -16.37362,-5.146968 -26.83572,-5.54646 l -2.09556,-0.08043 -2.527042,0.14203 c -4.562256,0.256365 -8.761851,0.771108 -13.218708,1.619994 l -2.555891,0.486867 -2.683093,0.672127 -2.6831,0.672126 -1.977334,0.663261 c -1.08754,0.364762 -2.459974,0.870365 -3.049869,1.123623 -0.589887,0.253259 -1.120111,0.441809 -1.178255,0.419051 -0.372896,-0.146142 -2.649361,-2.932625 -3.826116,-4.683499 l -0.884036,-1.31528 -0.615115,-1.287044 -0.615114,-1.28713 -0.258924,-1.023453 -0.258936,-1.023453 0.05249,-0.99969 0.05249,-0.99969 0.300804,-0.538414 0.300805,-0.538414 0.473705,-0.380574 0.473705,-0.380664 1.014828,0 1.014817,0 1.038503,0.518398 1.038501,0.51849 1.109422,0.836457 1.109428,0.836365 2.785475,2.724516 2.785466,2.724612 0.57138,0.218071 0.57137,0.218071 0.38865,-0.160857 0.38864,-0.160948 0.22375,-0.505517 0.223749,-0.505602 0.08321,-0.811506 0.0832,-0.811505 -0.113263,-0.20226 -0.113265,-0.202351 -0.423278,0.312209 -0.423276,0.312118 -0.0865,-0.218711 c -0.04755,-0.120277 -0.09034,-0.520135 -0.09514,-0.888552 l -0.0091,-0.669751 0.25867,-0.921455 0.25867,-0.921455 -0.04344,-0.955637 -0.04344,-0.955637 -0.08667,-0.08683 -0.08668,-0.08683 -0.837383,0.336977 c -0.460556,0.185351 -0.89946,0.361746 -0.975345,0.391906 l -0.137962,0.05484 -0.08485,-1.886049 -0.08485,-1.885957 -0.177947,-0.5545 -0.177949,-0.554408 -0.470293,-0.544904 -0.470286,-0.544903 -0.128993,0.07952 -0.129001,0.07951 -0.157091,0.560806 c -0.08642,0.308371 -0.201986,0.588499 -0.256877,0.622407 l -0.0998,0.06215 -0.632762,-0.834903 -0.632762,-0.834903 -0.407486,-0.862505 -0.407484,-0.862504 -0.0812,-0.548376 -0.0812,-0.548285 -0.132952,-0.160126 -0.13296,-0.160126 -0.219059,0 -0.219058,0 -0.623617,0.419417 -0.62362,0.419507 -0.365884,-0.647998 -0.365854,-0.647906 -0.712276,-0.634563 -0.712277,-0.634563 -1.053396,-0.538414 C 67.827033,68.238847 67.075648,67.9111 66.73666,67.806543 l -0.616349,-0.190012 -2.28049,-0.06946 -2.280489,-0.06946 -0.92146,-0.186723 C 60.131067,67.18825 59.271264,66.958389 58.727197,66.780075 L 57.737981,66.455894 56.881432,66.0118 56.024893,65.567707 55.355895,64.9453 l -0.66899,-0.622406 0.388905,-0.770013 0.388906,-0.770103 0.454209,-0.502495 0.454201,-0.502496 0.689336,-0.467948 c 0.83677,-0.567935 1.395805,-0.812602 2.516784,-1.101413 l 0.855112,-0.220265 0.205518,-0.630176 0.205515,-0.630084 0.421669,-0.540973 c 0.231914,-0.297586 0.586704,-0.67889 0.788416,-0.847333 l 0.36675,-0.306359 1.113262,-0.443728 c 0.612298,-0.244028 1.583052,-0.562177 2.157221,-0.706857 l 1.043951,-0.263129 1.787509,-0.06398 1.787507,-0.06398 1.028407,0.209663 c 2.066158,0.421244 3.589619,1.079661 5.627954,2.432323 l 1.109428,0.736286 1.263513,-0.0457 1.263512,-0.0457 0,0.149067 c 0,0.315499 -0.283239,0.867623 -0.765576,1.492589 -0.276061,0.357633 -0.480233,0.670755 -0.453708,0.695798 0.02651,0.02468 0.915454,0.272543 1.975406,0.54993 1.059942,0.277478 2.056391,0.552306 2.214325,0.610708 l 0.287152,0.106203 -0.456214,0.295574 c -0.250916,0.162594 -0.456899,0.329392 -0.457729,0.370703 -8.69e-4,0.04113 0.650254,0.225108 1.446892,0.408449 0.796628,0.183432 1.531618,0.363208 1.633314,0.399584 l 0.184908,0.0658 -0.400629,0.194582 c -0.220338,0.107025 -0.399329,0.226114 -0.397756,0.264683 0.0018,0.03839 0.914867,0.730071 2.029537,1.536733 l 2.026666,1.466632 -0.05403,0.08774 c -0.02972,0.04844 -0.305094,0.157658 -0.611934,0.243571 -0.306838,0.08591 -0.557891,0.192845 -0.557891,0.237721 0,0.04478 1.300865,0.96633 2.890822,2.047637 l 2.890811,1.966111 -0.08641,0.07769 c -0.04754,0.04296 -0.377659,0.171825 -0.7336,0.287258 -0.355942,0.115433 -0.647164,0.224194 -0.647164,0.241651 0,0.01737 0.484166,0.415029 1.075927,0.883434 1.244803,0.985158 3.275063,2.7693 3.354249,2.947614 l 0.05413,0.12174 -0.945005,0.130696 c -0.519755,0.0722 -0.97368,0.159303 -1.008738,0.194399 l -0.06373,0.06398 1.324449,0.939825 1.324447,0.939826 0.541589,0.551849 0.541587,0.551849 -0.757309,0.08591 -0.757308,0.08591 0,0.08774 c 0,0.04844 0.804335,0.661707 1.787406,1.362898 0.983074,0.70119 1.787414,1.308334 1.787414,1.349097 0,0.04113 -0.25965,0.143583 -0.57701,0.228399 l -0.576979,0.154276 0.912989,0.918622 0.91299,0.918713 0.90101,-0.893305 0.90102,-0.893396 -0.34331,-0.148519 c -0.18881,-0.08134 -0.44037,-0.150895 -0.55902,-0.154002 l -0.21571,-0.0091 0,-0.0924 c 10e-6,-0.09642 0.8324,-0.723217 2.55784,-1.926172 0.55932,-0.389987 1.01695,-0.753469 1.01695,-0.80785 l 0,-0.0988 -0.77042,-0.08865 -0.77044,-0.08865 0.71642,-0.668654 c 0.39405,-0.367777 1.24028,-1.037253 1.88047,-1.487744 l 1.16403,-0.819092 -0.065,-0.06489 c -0.0357,-0.03564 -0.49029,-0.123842 -1.01002,-0.195679 l -0.945,-0.130696 0.0541,-0.121923 c 0.0762,-0.17155 1.94983,-1.828103 3.19748,-2.826879 0.57629,-0.461368 1.09438,-0.881515 1.1513,-0.933611 l 0.10352,-0.09487 -0.65821,-0.213501 c -0.36204,-0.117443 -0.69551,-0.248322 -0.74105,-0.290821 l -0.0829,-0.07769 2.88678,-1.971413 c 1.58773,-1.084322 2.88699,-2.005777 2.88719,-2.04782 2.4e-4,-0.04204 -0.25063,-0.14669 -0.55747,-0.232511 -0.30684,-0.08591 -0.58237,-0.195679 -0.61227,-0.244119 l -0.0544,-0.08774 1.1978,-0.868902 c 0.6588,-0.477819 1.57862,-1.146838 2.04405,-1.486648 l 0.84623,-0.617837 -0.4695,-0.240737 -0.46949,-0.240829 0.23962,-0.06855 c 0.13176,-0.03747 0.89138,-0.218803 1.68802,-0.402874 0.79663,-0.183981 1.44773,-0.368418 1.4469,-0.409637 -8.8e-4,-0.04113 -0.20028,-0.203814 -0.44319,-0.361198 -0.2429,-0.157292 -0.4181,-0.309558 -0.38931,-0.338348 0.0289,-0.02833 1.05917,-0.318241 2.28979,-0.643245 l 2.23744,-0.590967 -0.50782,-0.6108 c -0.49398,-0.594165 -0.84327,-1.241067 -0.84329,-1.561775 l -3e-5,-0.158024 1.32517,0 1.32516,0 1.17106,-0.761786 c 0.64409,-0.419051 1.64829,-0.990368 2.23155,-1.269583 l 1.0605,-0.507796 1.09671,-0.31358 1.09674,-0.31358 1.70072,-0.0658 1.7007,-0.0658 0.94959,0.152631 c 1.17549,0.188916 2.80672,0.653665 3.78479,1.078291 l 0.73961,0.321074 0.53392,0.502953 c 0.72388,0.681814 1.02045,1.115488 1.25537,1.835781 l 0.1986,0.60888 0.89495,0.227211 0.89497,0.227119 0.78716,0.387336 0.78714,0.387337 0.72593,0.656589 0.72592,0.656681 0.46333,0.88124 0.46333,0.881333 -0.4754,0.490705 -0.47538,0.490796 -0.815,0.486684 c -1.44082,0.860403 -3.38587,1.466267 -5.47469,1.705451 l -1.1065,0.126675 -1.56886,0 -1.56887,0 -0.8121,0.305446 c -0.44666,0.168077 -1.20663,0.512823 -1.68885,0.766082 l -0.87673,0.460544 -0.69793,0.645805 -0.6979,0.645804 -0.29717,0.590327 c -0.16344,0.32473 -0.30328,0.605682 -0.31073,0.624418 -0.007,0.01919 -0.30426,-0.161405 -0.65956,-0.400406 l -0.646,-0.434497 -0.24044,0 -0.24044,0 -0.17861,0.427277 c -0.0982,0.234979 -0.1786,0.554865 -0.1786,0.710787 l 0,0.28351 -0.46541,0.925934 -0.46539,0.926024 -0.59108,0.767727 -0.59108,0.767818 -0.0977,-0.06032 c -0.0538,-0.0329 -0.16836,-0.312757 -0.25476,-0.621128 l -0.15711,-0.560806 -0.12898,-0.07951 -0.129,-0.07952 -0.47029,0.544903 -0.47029,0.544904 -0.17794,0.554408 -0.17795,0.5545 -0.0848,1.885957 -0.0848,1.886049 -0.13797,-0.05484 c -0.0758,-0.03016 -0.51478,-0.206555 -0.97533,-0.391906 l -0.83739,-0.336977 -0.0866,0.08683 -0.0866,0.08683 -0.0434,0.955637 -0.0434,0.955638 0.25869,0.921454 0.25866,0.921455 -0.009,0.669751 c -0.005,0.368417 -0.0472,0.766995 -0.0943,0.88581 l -0.0855,0.215878 -0.45757,-0.310747 -0.45759,-0.310747 -0.0786,0.312666 -0.0786,0.312666 0.086,0.706217 0.086,0.706309 0.21947,0.501856 0.21947,0.501768 0.38864,0.160948 0.38864,0.160857 0.5822,-0.222184 0.58223,-0.222275 2.77463,-2.72324 2.77463,-2.723328 1.10944,-0.833532 1.10942,-0.833532 1.02814,-0.51328 1.02814,-0.513372 0.7779,-0.04935 0.77788,-0.04935 0.44165,0.145685 0.44167,0.145685 0.43619,0.50935 0.4362,0.509351 0.18213,0.612993 0.18213,0.612993 0,0.770469 0,0.770468 -0.18444,0.876397 -0.18444,0.876397 -0.43256,1.044565 c -0.70758,1.70847 -1.78806,3.50029 -3.26375,5.412386 -0.91257,1.182482 -2.32921,2.778714 -2.44597,2.756048 -0.0462,-0.0091 -0.65515,-0.310107 -1.35353,-0.669293 z M 66.83543,60.594852 c 0.121805,-0.106202 0.309244,-0.377923 0.41652,-0.603854 l 0.195047,-0.410916 0.75442,-0.209571 0.75442,-0.209663 -0.492961,-0.08774 c -0.271123,-0.04844 -0.881256,-0.09048 -1.355848,-0.09432 l -0.862884,-0.0091 -0.431305,0.215511 -0.431296,0.215421 -0.16191,0.340816 -0.1619,0.340816 0.0811,0.255269 0.0811,0.25536 0.368452,0.154825 0.36845,0.154917 0.328582,-0.05849 0.328584,-0.05849 0.221473,-0.193029 z m 70.88185,-0.05484 0.22331,-0.258742 -0.0791,-0.315133 c -0.10771,-0.428922 -0.29568,-0.632735 -0.76416,-0.828414 l -0.39664,-0.165792 -0.77442,0.0091 c -0.42592,0 -0.99627,0.04844 -1.26746,0.0999 l -0.49309,0.09268 0.69439,0.207469 0.69442,0.207469 0.19702,0.414938 c 0.23472,0.494452 0.43729,0.677427 0.9025,0.815344 l 0.34688,0.10282 0.24653,-0.06032 0.24653,-0.06032 0.2233,-0.258743 z"
     id="path3047"
     inkscape:connector-curvature="0" /></svg>