<?xml version="1.0" encoding="utf-8"?>
<!-- Generator: Adobe Illustrator 14.0.0, SVG Export Plug-In . SVG Version: 6.00 Build 43363)  -->
<!DOCTYPE svg PUBLIC "-//W3C//DTD SVG 1.1//EN" "http://www.w3.org/Graphics/SVG/1.1/DTD/svg11.dtd">
<svg version="1.1" id="Ñëîé_1" xmlns="http://www.w3.org/2000/svg" xmlns:xlink="http://www.w3.org/1999/xlink" x="0px" y="0px"
	 width="316" height="316" viewBox="0 0 518.639 518.639" enable-background="new 0 0 518.639 518.639"
	 xml:space="preserve">
<g>
	<path fill="#006097" d="M509.343,259.319c0,138.082-111.942,250.024-250.023,250.024c-138.083,0-250.025-111.942-250.025-250.024
		C9.295,121.236,121.237,9.295,259.32,9.295C397.401,9.295,509.343,121.236,509.343,259.319z"/>
	<path fill="#A58E5C" d="M2.145,259.319c0,141.806,115.368,257.174,257.175,257.174c141.806,0,257.174-115.368,257.174-257.174
		c0-141.807-115.368-257.174-257.174-257.174C117.513,2.145,2.145,117.513,2.145,259.319z M16.445,259.319
		c0-133.922,108.953-242.875,242.875-242.875s242.874,108.953,242.874,242.875c0,133.921-108.952,242.874-242.874,242.874
		S16.445,393.24,16.445,259.319z"/>
	<path d="M0,259.319c0,142.988,116.331,259.319,259.32,259.319s259.319-116.331,259.319-259.319C518.639,116.33,402.309,0,259.32,0
		S0,116.33,0,259.319z M4.29,259.319C4.29,118.696,118.696,4.29,259.32,4.29c140.623,0,255.029,114.406,255.029,255.03
		c0,140.624-114.406,255.029-255.029,255.029C118.696,514.349,4.29,399.943,4.29,259.319z"/>
	<path d="M14.3,259.319c0,135.104,109.916,245.019,245.02,245.019c135.104,0,245.02-109.915,245.02-245.019
		c0-135.104-109.915-245.02-245.02-245.02C124.216,14.3,14.3,124.215,14.3,259.319z M18.59,259.319
		c0-132.738,107.991-240.729,240.73-240.729s240.729,107.991,240.729,240.729c0,132.739-107.99,240.729-240.729,240.729
		S18.59,392.059,18.59,259.319z"/>
	<circle fill="#D4212A" cx="259.32" cy="259.319" r="151.214"/>
	<path fill="#A58E5C" d="M100.955,259.319c0,87.322,71.042,158.364,158.365,158.364c87.322,0,158.364-71.042,158.364-158.364
		c0-87.323-71.042-158.365-158.364-158.365C171.997,100.954,100.955,171.997,100.955,259.319z M115.255,259.319
		c0-79.438,64.627-144.065,144.064-144.065c79.438,0,144.064,64.627,144.064,144.065c0,79.438-64.626,144.063-144.064,144.063
		C179.882,403.383,115.255,338.757,115.255,259.319z"/>
	<path d="M98.81,259.319c0,88.505,72.004,160.509,160.51,160.509c88.506,0,160.51-72.004,160.51-160.509
		c0-88.506-72.004-160.51-160.51-160.51C170.814,98.81,98.81,170.813,98.81,259.319z M103.1,259.319
		c0-86.14,70.08-156.22,156.22-156.22c86.14,0,156.219,70.08,156.219,156.22c0,86.14-70.079,156.219-156.219,156.219
		C173.18,415.538,103.1,345.459,103.1,259.319z"/>
	<path d="M113.11,259.319c0,80.62,65.59,146.209,146.21,146.209s146.21-65.589,146.21-146.209
		c0-80.621-65.59-146.209-146.21-146.209S113.11,178.699,113.11,259.319z M117.4,259.319c0-78.254,63.665-141.92,141.92-141.92
		c78.256,0,141.919,63.666,141.919,141.92c0,78.255-63.663,141.919-141.919,141.919C181.065,401.238,117.4,337.574,117.4,259.319z"
		/>
	<path fill="#A58E5C" d="M259.254,219.349c-5.908-5.216-12.92-9.21-20.634-11.583l-0.048-0.019
		c-13.083,14.104-21.092,32.979-21.092,53.689c0,43.571,35.448,79.02,79.021,79.02c43.571,0,79.018-35.448,79.018-79.02
		c0-43.571-35.446-79.018-79.018-79.018c-13.432,0-26.091,3.369-37.177,9.305l0.064,0.037c7.748,4.158,14.726,9.571,20.661,15.965
		l0.031,0.022c5.197-1.592,10.71-2.449,16.421-2.449c30.954,0,56.138,25.183,56.138,56.138s-25.184,56.139-56.138,56.139
		c-30.956,0-56.141-25.184-56.141-56.139c0-16.707,7.336-31.733,18.956-42.023L259.254,219.349z"/>
	<path d="M258.311,189.832l-3.528,1.889l3.59,1.93c7.517,4.034,14.279,9.26,20.104,15.534l0.914,0.985l1.318-0.372
		c5.101-1.562,10.413-2.354,15.792-2.354c29.771,0,53.993,24.22,53.993,53.993s-24.222,53.995-53.993,53.995
		c-29.773,0-53.996-24.223-53.996-53.995c0-15.425,6.646-30.156,18.233-40.417l1.816-1.609l-1.88-1.668
		c-6.271-5.536-13.478-9.582-21.424-12.026l-1.286-0.396l-0.965,0.969c-13.97,15.061-21.664,34.646-21.664,55.147
		c0,44.755,36.411,81.164,81.166,81.164c44.754,0,81.163-36.409,81.163-81.164c0-44.753-36.409-81.163-81.163-81.163
		C283.195,180.272,269.989,183.579,258.311,189.832z M296.5,184.563c42.388,0,76.874,34.484,76.874,76.873
		c0,42.388-34.486,76.875-76.874,76.875c-42.39,0-76.875-34.487-76.875-76.875c0-18.948,6.984-37.04,19.617-51.161
		c6.155,2.06,11.801,5.19,16.854,9.303c-11.355,10.968-17.881,26.049-17.881,41.858c0,32.138,26.146,58.284,58.285,58.284
		c32.138,0,58.283-26.146,58.283-58.284s-26.146-58.283-58.283-58.283c-5.357,0-10.637,0.811-15.75,2.249
		c-5.001-5.23-10.645-9.72-16.809-13.44C274.092,187.196,285.229,184.563,296.5,184.563z"/>
	<path fill="#A58E5C" d="M40.763,182.367c-0.975,0.669-1.644,1.698-1.86,2.861l-11.838,63.616c-0.451,2.422,1.146,4.748,3.568,5.199
		l5.447,1.014c1.162,0.216,2.36-0.037,3.339-0.707c0.975-0.668,1.644-1.698,1.86-2.861c0,0,3.345-17.973,4.515-24.261
		c7.247,1.348,43.855,8.161,43.855,8.161c1.162,0.216,2.365-0.04,3.339-0.707c0.975-0.67,1.644-1.7,1.86-2.862l1.144-6.151
		c0.052-0.276,0.077-0.55,0.077-0.82c0-2.106-1.5-3.979-3.645-4.379c0,0-36.609-6.812-43.855-8.16
		c1.173-6.303,4.548-24.437,4.548-24.437c0.05-0.271,0.076-0.544,0.076-0.815c0-0.895-0.27-1.775-0.782-2.522
		c-0.669-0.976-1.698-1.645-2.861-1.861l-5.448-1.014C42.939,181.444,41.737,181.696,40.763,182.367z"/>
	<path d="M39.547,180.6c-1.453,0.998-2.431,2.501-2.753,4.236l-11.838,63.616c-0.077,0.408-0.114,0.817-0.114,1.222
		c0,1.321,0.397,2.61,1.161,3.722c0.998,1.454,2.503,2.432,4.237,2.756l5.449,1.014c1.731,0.322,3.486-0.047,4.943-1.045
		c1.455-1,2.434-2.504,2.756-4.24c0,0,3.027-16.267,4.123-22.152c3.821,0.711,41.747,7.769,41.747,7.769
		c1.707,0.318,3.507-0.061,4.944-1.045c1.456-1.002,2.434-2.506,2.756-4.238l1.144-6.152c0-0.002,0.113-1.213,0.113-1.213
		c0-3.177-2.27-5.905-5.397-6.487c0,0-33.047-6.149-41.746-7.768c0.655-3.521,4.155-22.328,4.155-22.328l0.112-1.208
		c0-1.339-0.4-2.63-1.157-3.735c-0.998-1.456-2.503-2.434-4.238-2.757l-5.448-1.014C42.783,179.232,40.98,179.613,39.547,180.6z
		 M36.473,252.949l-5.448-1.014c-1.255-0.233-2.085-1.444-1.852-2.697l11.838-63.617c0.113-0.608,0.456-1.136,0.965-1.485
		l0.003-0.002c0.499-0.343,1.13-0.477,1.729-0.365l5.449,1.014c0.608,0.113,1.135,0.456,1.484,0.965
		c0.266,0.388,0.407,0.841,0.407,1.31l-0.04,0.424l-4.941,26.544l45.964,8.553c1.096,0.205,1.892,1.159,1.892,2.27l-0.041,0.427
		l-1.144,6.153c-0.113,0.608-0.457,1.135-0.967,1.486c-0.501,0.343-1.133,0.477-1.73,0.365l-45.965-8.553l-4.907,26.37
		c-0.113,0.608-0.456,1.136-0.965,1.485C37.696,252.931,37.08,253.062,36.473,252.949z M39.546,180.601l0.003-0.001L39.546,180.601z
		"/>
	<path fill="#A58E5C" d="M90.078,107.517c-0.001,0-0.001,0-0.002,0c-5,1.582-9.796,5.796-14.661,12.885l-22.903,33.371
		c-0.669,0.976-0.923,2.177-0.707,3.339c0.217,1.163,0.886,2.192,1.86,2.861l45.024,30.9c2.03,1.394,4.806,0.877,6.201-1.153
		l3.54-5.158c0.512-0.748,0.782-1.629,0.782-2.524c0-0.271-0.025-0.544-0.075-0.815c-0.217-1.162-0.886-2.192-1.861-2.86
		c0,0-10.228-7.02-14.967-10.273c3.82-5.565,16.896-24.619,16.896-24.619c4.925-7.176,7.35-12.959,7.41-17.681
		c0-0.058,0-0.117,0-0.175c0-5.27-3.089-10.064-9.186-14.248C101.251,107.128,95.414,105.833,90.078,107.517z M88.749,126.526
		c2.563-3.733,4.247-4.47,4.853-4.614c1.122-0.265,3.032,0.451,5.237,1.965c2.353,1.615,2.975,2.767,2.975,3.151
		c-0.001,0.074-0.067,1.758-3.517,6.786c0,0-14.031,20.446-17.91,26.095c-3.318-2.278-6.572-4.511-9.89-6.788
		C74.392,147.445,88.749,126.526,88.749,126.526z"/>
	<path d="M89.432,105.471L89.432,105.471c-5.478,1.732-10.641,6.219-15.786,13.718l-22.904,33.371
		c-0.998,1.456-1.369,3.211-1.047,4.945c0.323,1.734,1.301,3.239,2.755,4.237l45.024,30.901c3,2.06,7.119,1.294,9.182-1.707
		l3.541-5.159c0.758-1.106,1.159-2.398,1.159-3.737l-0.112-1.207c-0.323-1.736-1.302-3.24-2.755-4.238
		c0,0-10.448-7.171-13.199-9.059c2.092-3.047,15.683-22.851,15.683-22.851c5.173-7.538,7.72-13.709,7.786-18.867v-0.202
		c0-6.02-3.404-11.409-10.118-16.017C101.893,104.967,95.43,103.578,89.432,105.471z M99.902,189.104l-45.023-30.9
		c-0.509-0.349-0.852-0.876-0.965-1.484c-0.113-0.608,0.016-1.224,0.367-1.734l22.904-33.371
		c4.583-6.678,9.011-10.621,13.538-12.053h0.002c4.674-1.476,9.886-0.271,15.489,3.574c5.478,3.76,8.255,7.958,8.255,12.479v0.175
		c-0.054,4.255-2.355,9.65-7.033,16.468l-18.11,26.386l16.736,11.487c0.509,0.349,0.852,0.876,0.965,1.484
		c0,0.001,0.039,0.423,0.039,0.423c0,0.47-0.14,0.923-0.406,1.311l-3.54,5.157C102.398,189.558,100.955,189.827,99.902,189.104z"/>
	<path d="M93.108,119.825c-1.288,0.306-3.394,1.505-6.128,5.487l-19.465,28.364l13.427,9.215l19.124-27.863
		c3.348-4.88,3.876-7.082,3.892-7.959c0-1.89-2.124-3.736-3.905-4.959C97.231,120.171,94.895,119.403,93.108,119.825z
		 M94.106,123.998c0.223-0.023,1.428,0.212,3.518,1.648c1.14,0.782,1.665,1.324,1.918,1.633c-0.24,0.694-0.938,2.293-3.015,5.321
		c0,0-14.586,21.252-16.696,24.326c-1.867-1.281-4.488-3.08-6.353-4.36c2.116-3.083,17.038-24.826,17.038-24.826
		C92.805,124.407,94.093,124,94.106,123.998z"/>
	<path fill="#A58E5C" d="M124.402,72.736l-5.023,3.73c-0.95,0.706-1.58,1.759-1.753,2.93c-0.172,1.169,0.127,2.36,0.832,3.31
		l32.563,43.837c0.705,0.949,1.758,1.58,2.928,1.752s2.36-0.127,3.31-0.832l5.022-3.731c1.977-1.468,2.389-4.261,0.92-6.238
		L130.64,73.657C129.172,71.68,126.379,71.268,124.402,72.736z"/>
	<path d="M123.124,71.013l-5.024,3.731c-1.415,1.051-2.337,2.591-2.595,4.337c-0.256,1.747,0.181,3.487,1.232,4.903l32.563,43.838
		c1.051,1.415,2.592,2.337,4.336,2.595c1.746,0.257,3.486-0.18,4.903-1.232l5.021-3.731c1.417-1.052,2.338-2.592,2.596-4.338
		c0.257-1.745-0.181-3.485-1.233-4.901l-32.562-43.838C130.192,69.456,126.048,68.843,123.124,71.013z M128.918,74.935
		l32.562,43.838c0.369,0.497,0.522,1.106,0.433,1.718c-0.09,0.611-0.413,1.151-0.909,1.52l-5.022,3.73
		c-0.497,0.369-1.107,0.522-1.718,0.433c-0.611-0.091-1.151-0.414-1.519-0.91l-32.563-43.837c-0.369-0.496-0.521-1.107-0.433-1.719
		c0.091-0.61,0.414-1.15,0.91-1.519l5.023-3.731l0,0C126.706,73.697,128.158,73.912,128.918,74.935z"/>
	<path fill="#A58E5C" d="M236.743,27.633l-10.585,2.61c-0.805,0.199-1.538,0.618-2.119,1.21c0,0-28.688,29.302-30.363,31.013
		c-0.924,0.228-2.118,0.522-4.185,1.032c-1.402-5.685-4.561-18.492-4.561-18.492c-0.59-2.391-3.006-3.851-5.396-3.261l-6.075,1.497
		c-1.149,0.283-2.138,1.011-2.75,2.023c-0.611,1.013-0.796,2.227-0.512,3.374l13.099,53.106c0.283,1.148,1.011,2.137,2.023,2.749
		c1.011,0.611,2.225,0.796,3.374,0.513l6.075-1.499c1.147-0.283,2.137-1.011,2.748-2.023c0.423-0.701,0.643-1.5,0.643-2.306
		c0-0.357-0.043-0.715-0.129-1.067c0,0-3.617-14.665-5.075-20.575c2.143-0.528,3.374-0.833,4.364-1.077
		c2.384,0.85,42.516,15.17,42.516,15.17c0.824,0.294,1.717,0.34,2.567,0.13l10.585-2.611c1.913-0.472,3.29-2.144,3.385-4.112
		c0.004-0.073,0.006-0.145,0.006-0.218c0-1.882-1.187-3.573-2.976-4.204c0,0-32.504-11.458-42.39-14.943
		c7.241-7.387,29.984-30.588,29.984-30.588c0.839-0.855,1.275-1.983,1.275-3.123c0-0.756-0.193-1.518-0.587-2.208
		C240.696,28.02,238.678,27.155,236.743,27.633z"/>
	<path d="M236.229,25.55l-10.585,2.61c-1.191,0.294-2.276,0.914-3.137,1.792c0,0-26.346,26.91-29.937,30.578
		c-0.528,0.13-1.031,0.254-1.51,0.372c-0.809-3.279-4.046-16.41-4.046-16.41c-0.423-1.712-1.486-3.157-2.996-4.07
		c-1.51-0.913-3.285-1.182-4.997-0.76l-6.075,1.498c-1.713,0.421-3.16,1.486-4.072,2.997c-0.913,1.509-1.182,3.284-0.759,4.997
		l13.099,53.105c0.423,1.713,1.487,3.159,2.997,4.071c1.51,0.913,3.285,1.182,4.997,0.76l6.075-1.499
		c1.713-0.423,3.158-1.487,4.07-2.996c0.623-1.034,0.952-2.213,0.952-3.416l-0.191-1.58c0-0.001-3.275-13.277-4.562-18.494
		c0.105-0.026,1.095-0.271,1.655-0.409c1.181,0.422,41.909,14.953,41.909,14.953c1.222,0.438,2.537,0.504,3.801,0.193l10.586-2.611
		c2.812-0.694,4.874-3.199,5.013-6.091l0.008-0.322c0-2.794-1.771-5.296-4.407-6.227c0,0-29.444-10.38-39.215-13.824
		c4.002-4.083,27.626-28.183,27.626-28.183c1.217-1.24,1.888-2.883,1.888-4.624c0-1.144-0.3-2.274-0.868-3.271
		C242.091,26.137,239.082,24.846,236.229,25.55z M190.005,65.581l4.776-1.178l30.79-31.449c0.302-0.308,0.682-0.525,1.099-0.628
		l10.586-2.61c1-0.248,2.054,0.205,2.563,1.099c0.2,0.35,0.305,0.746,0.305,1.146c0,0.61-0.234,1.186-0.661,1.62
		c0,0.001-32.342,32.994-32.342,32.994l45.566,16.062c0.923,0.326,1.544,1.203,1.544,2.181c-0.052,1.128-0.774,2.005-1.76,2.248
		l-10.585,2.611c-0.442,0.109-0.903,0.086-1.331-0.067c-0.001,0-43.125-15.387-43.125-15.387l-7.073,1.745l5.588,22.658
		c0,0,0.068,0.553,0.068,0.553c0,0.422-0.116,0.836-0.335,1.199c-0.318,0.526-0.825,0.899-1.425,1.048l-6.074,1.498
		c-0.601,0.149-1.221,0.054-1.75-0.265c-0.529-0.32-0.902-0.827-1.05-1.427L172.28,48.125c-0.149-0.6-0.054-1.223,0.265-1.75
		c0.32-0.529,0.826-0.901,1.426-1.05l6.076-1.498c1.239-0.306,2.495,0.454,2.8,1.691c0,0.001,5.075,20.576,5.075,20.576
		L190.005,65.581z M236.229,25.55L236.229,25.55L236.229,25.55z M258.514,85.14L258.514,85.14L258.514,85.14z"/>
	<path fill="#A58E5C" d="M310.875,37.046l-44.37,44.536c-1.122,1.125-1.559,2.763-1.149,4.297c0.41,1.535,1.606,2.736,3.139,3.153
		l6.68,1.813c1.554,0.422,3.213-0.028,4.344-1.173c0,0,6.641-6.74,9.186-9.322c4.138,1.124,31.575,8.576,35.712,9.699
		c0.888,3.515,3.208,12.689,3.208,12.689c0.395,1.56,1.601,2.787,3.154,3.209l7.014,1.905c1.533,0.416,3.171-0.013,4.302-1.131
		c1.131-1.117,1.581-2.75,1.183-4.288l-15.743-60.863c-0.4-1.55-1.603-2.766-3.147-3.187l-9.182-2.494
		C313.659,35.471,312.007,35.911,310.875,37.046z M315.139,53.943c1.741,6.81,3.407,13.322,5.111,19.992
		c-6.619-1.798-13.014-3.534-19.632-5.332C305.463,63.712,310.195,58.936,315.139,53.943z"/>
	<path d="M309.357,35.533l-44.371,44.535c-1.654,1.661-2.306,4.099-1.703,6.364c0.606,2.266,2.388,4.055,4.649,4.669l6.68,1.815
		c2.296,0.623,4.758-0.043,6.434-1.738c0-0.001,6.06-6.15,8.307-8.43c2.178,0.592,31.111,8.45,33.291,9.042
		c0.503,1.989,2.9,11.474,2.9,11.474c0.585,2.308,2.375,4.129,4.672,4.753l7.014,1.905c2.264,0.614,4.704-0.028,6.372-1.676
		c1.668-1.649,2.339-4.083,1.752-6.351L329.61,41.034c-0.592-2.29-2.378-4.099-4.661-4.719l-9.184-2.495
		C313.482,33.201,311.028,33.857,309.357,35.533z M314.642,37.96l9.182,2.495c0.799,0.217,1.426,0.851,1.633,1.653l15.744,60.862
		c0.205,0.795-0.027,1.647-0.615,2.227c-0.582,0.577-1.438,0.802-2.231,0.586l-7.013-1.905c-0.806-0.218-1.433-0.857-1.638-1.666
		l-3.516-13.904l-38.132-10.356l-10.064,10.215c-0.586,0.593-1.45,0.828-2.255,0.609l-6.679-1.814
		c-0.792-0.215-1.417-0.841-1.629-1.636c-0.212-0.792,0.016-1.646,0.596-2.23l44.371-44.535l0,0
		C312.981,37.973,313.842,37.744,314.642,37.96z"/>
	<path d="M313.615,52.434l-17.11,17.275l26.736,7.261l-6.961-27.227L313.615,52.434z M308.091,64.107c0,0,3.377-3.41,5.908-5.965
		c1.098,4.297,3.009,11.772,3.262,12.758c-3.714-1.008-8.815-2.395-12.528-3.402C306.384,65.831,308.091,64.107,308.091,64.107z"/>
	<path fill="#A58E5C" d="M413.975,91.609l-60.593,16.755c-1.532,0.424-2.722,1.63-3.125,3.167c-0.402,1.537,0.043,3.174,1.169,4.292
		l4.907,4.881c1.137,1.129,2.79,1.563,4.333,1.136c0,0,37.339-10.33,48.664-13.462c-3.099,11.33-13.3,48.62-13.3,48.62
		c-0.105,0.389-0.158,0.784-0.158,1.176c0,1.171,0.463,2.313,1.316,3.161l5.153,5.125c1.125,1.121,2.763,1.556,4.297,1.145
		c1.536-0.412,2.735-1.608,3.149-3.142l16.427-60.683c0.418-1.546-0.024-3.196-1.161-4.327l-6.748-6.71
		C417.171,91.616,415.517,91.183,413.975,91.609z"/>
	<path d="M413.402,89.542l-60.592,16.755c-2.259,0.625-4.033,2.422-4.627,4.689c-0.595,2.271,0.069,4.704,1.73,6.359l4.907,4.88
		c1.68,1.669,4.138,2.312,6.417,1.683c0,0,33.821-9.356,45.029-12.457c-1.704,6.229-12.305,44.979-12.305,44.979
		c-0.001,0.002-0.234,1.743-0.234,1.743c0,1.745,0.71,3.452,1.948,4.683l5.153,5.125c1.66,1.653,4.1,2.303,6.366,1.695
		c2.264-0.606,4.052-2.389,4.663-4.653l16.426-60.682c0.62-2.284-0.039-4.742-1.719-6.408l-6.747-6.709
		C418.142,89.556,415.683,88.911,413.402,89.542z M416.793,94.266l6.748,6.71c0.589,0.584,0.819,1.444,0.603,2.244l-16.426,60.684
		c-0.214,0.792-0.84,1.417-1.634,1.63c-0.794,0.212-1.647-0.015-2.229-0.593l-5.154-5.125c-0.44-0.438-0.683-1.021-0.683-1.641
		l0.082-0.612l14.296-52.259l-52.302,14.469c-0.798,0.221-1.661-0.006-2.249-0.591l-4.907-4.879
		c-0.441-0.439-0.681-1.035-0.681-1.645c0-0.195,0.024-0.392,0.074-0.584c0.209-0.793,0.831-1.423,1.623-1.642l60.592-16.756
		C415.345,93.456,416.206,93.682,416.793,94.266z"/>
	<path fill="#A58E5C" d="M411.424,175.67c-0.824,0.843-1.269,1.966-1.269,3.114c0,0.398,0.054,0.8,0.164,1.194l1.854,6.668
		c0.432,1.551,1.666,2.75,3.229,3.134c0,0,9.188,2.264,12.707,3.131c1.149,4.13,8.769,31.522,9.917,35.653
		c-2.566,2.56-9.266,9.241-9.266,9.241c-0.85,0.849-1.31,1.989-1.31,3.157c0,0.398,0.053,0.8,0.163,1.194l1.947,7.001
		c0.426,1.531,1.634,2.721,3.171,3.121c1.538,0.401,3.171-0.049,4.29-1.175l44.265-44.641c1.129-1.136,1.559-2.791,1.13-4.334
		l-2.55-9.167c-0.43-1.543-1.652-2.737-3.205-3.129l-60.957-15.373C414.166,174.072,412.534,174.532,411.424,175.67z
		 M444.296,197.147c6.681,1.664,13.204,3.289,20.023,4.987c-4.963,4.977-9.709,9.736-14.572,14.611
		C447.91,210.138,446.133,203.754,444.296,197.147z"/>
	<path d="M409.888,174.172c-1.21,1.24-1.877,2.878-1.877,4.612l0.243,1.772l1.853,6.665c0.639,2.294,2.472,4.073,4.783,4.642
		c0,0,9.498,2.341,11.489,2.831c0.597,2.147,8.681,31.206,9.246,33.237c-1.452,1.448-8.379,8.355-8.379,8.355
		c-1.251,1.249-1.939,2.91-1.939,4.676l0.243,1.773l1.945,6.997c0.629,2.26,2.428,4.031,4.696,4.623
		c2.265,0.59,4.696-0.075,6.353-1.739l44.266-44.643c1.666-1.678,2.309-4.138,1.674-6.419l-2.55-9.167
		c-0.633-2.279-2.452-4.055-4.747-4.634l-60.957-15.372C413.955,171.807,411.522,172.496,409.888,174.172z M433.275,250.204
		c-0.795-0.206-1.426-0.828-1.646-1.621l-1.948-7.001c-0.001-0.004-0.084-0.62-0.084-0.62c0-0.619,0.242-1.201,0.68-1.64
		l10.152-10.125l-10.589-38.069l-13.925-3.431c-0.81-0.2-1.451-0.823-1.674-1.626l-1.855-6.668c-0.001-0.002-0.085-0.62-0.085-0.62
		c0-0.607,0.233-1.182,0.657-1.615l0.002-0.002c0.573-0.587,1.424-0.827,2.221-0.626l60.957,15.373
		c0.804,0.203,1.44,0.825,1.662,1.623l2.55,9.168c0.223,0.799-0.001,1.658-0.585,2.249L435.5,249.593
		C434.921,250.177,434.068,250.41,433.275,250.204z M409.888,174.173l0.001-0.002L409.888,174.173z"/>
	<path d="M442.229,197.722l6.438,23.144l19.846-19.897l-27.27-6.792L442.229,197.722z M449.089,206.372c0,0-0.938-3.365-1.74-6.253
		c4.063,1.012,11.975,2.982,12.778,3.182c-2.786,2.795-6.573,6.592-9.3,9.325C450.025,209.737,449.089,206.372,449.089,206.372z"/>
	<g>
		<g>
			<path fill="#A58E5C" d="M201.943,422.771l-45.351,43.537c-1.146,1.102-1.62,2.728-1.244,4.271
				c0.375,1.544,1.544,2.77,3.068,3.222l6.637,1.962c1.543,0.456,3.215,0.043,4.37-1.077c0,0,6.79-6.59,9.391-9.114
				c4.11,1.214,31.376,9.274,35.488,10.491c0.81,3.533,2.924,12.756,2.924,12.756c0.359,1.569,1.537,2.824,3.082,3.28l6.968,2.06
				c1.524,0.45,3.172,0.056,4.327-1.035c1.155-1.092,1.642-2.714,1.278-4.262l-14.384-61.198c-0.366-1.558-1.541-2.801-3.077-3.255
				l-9.126-2.697C204.759,421.258,203.099,421.665,201.943,422.771z M205.831,439.757c1.588,6.848,3.107,13.396,4.663,20.104
				c-6.576-1.944-12.932-3.824-19.507-5.769C195.938,449.31,200.774,444.64,205.831,439.757z"/>
		</g>
		<g>
			<path d="M200.459,421.224l-45.352,43.538c-1.692,1.624-2.398,4.047-1.844,6.325c0.554,2.277,2.295,4.105,4.543,4.771l6.639,1.962
				c2.281,0.675,4.76,0.063,6.471-1.594c0,0,6.196-6.014,8.492-8.242c2.166,0.64,30.917,9.141,33.083,9.781
				c0.458,1.998,2.644,11.532,2.644,11.532c0.531,2.321,2.279,4.183,4.564,4.859l6.968,2.059c2.249,0.665,4.704,0.076,6.407-1.532
				c1.705-1.613,2.43-4.031,1.893-6.313l-14.383-61.197c-0.541-2.303-2.287-4.15-4.557-4.82l-9.125-2.697
				C204.636,418.986,202.167,419.586,200.459,421.224z M205.688,423.77l9.125,2.696c0.795,0.236,1.407,0.882,1.596,1.688
				l14.384,61.198c0.188,0.801-0.069,1.646-0.664,2.213c-0.597,0.563-1.457,0.77-2.245,0.537l-6.968-2.06
				c-0.801-0.237-1.413-0.89-1.599-1.702c0-0.001-3.205-13.979-3.205-13.979l-37.892-11.202l-10.292,9.988
				c-0.599,0.581-1.467,0.796-2.267,0.559l-6.638-1.962c-0.788-0.233-1.397-0.874-1.592-1.671c-0.044-0.181-0.065-0.363-0.065-0.546
				c0-0.623,0.251-1.23,0.711-1.671c0,0,45.349-43.534,45.35-43.536C204.027,423.745,204.893,423.535,205.688,423.77z"/>
			<path d="M204.341,438.215l-17.493,16.892l26.566,7.854l-6.35-27.376L204.341,438.215z M204.598,443.931
				c0.815,3.518,2.45,10.563,2.975,12.829c-2.874-0.85-9.574-2.831-12.448-3.681C197.9,450.398,201.758,446.673,204.598,443.931z"/>
		</g>
	</g>
	<g>
		<g>
			<path fill="#A58E5C" d="M311.113,421.959l-25.624,5.931c-9.353,2.164-15.45,5.457-18.641,10.067
				c-3.24,4.68-3.928,11.183-2.043,19.325l3.833,16.557c1.879,8.126,5.425,13.535,10.539,16.075
				c4.881,2.426,11.677,2.581,20.777,0.475l25.622-5.93c9.139-2.115,15.044-5,18.052-8.818c3.48-4.383,4.184-10.814,2.138-19.651
				l-3.832-16.558c-2.026-8.753-5.784-14.517-11.173-17.13C326.17,420.073,319.743,419.961,311.113,421.959z M286.697,476.809
				L286.697,476.809c-0.607-0.282-2.138-1.474-3.278-6.405l-3.933-16.991c-0.816-3.528-0.719-6.156,0.273-7.398
				c0.719-0.896,2.833-2.612,8.917-4.02l25.6-5.926c6.966-1.611,9.166-0.725,9.537-0.531c0.313,0.164,1.936,1.263,3.233,6.868
				l3.932,16.991c1.308,5.646,0.316,7.207,0.199,7.368c-0.142,0.191-1.596,1.927-8.956,3.629l-25.6,5.924
				C289.995,477.853,287.472,477.172,286.697,476.809z"/>
		</g>
		<g>
			<path d="M310.628,419.868l-25.623,5.931c-9.896,2.291-16.414,5.868-19.921,10.938c-3.598,5.197-4.395,12.272-2.369,21.029
				l3.833,16.558c2.031,8.78,5.959,14.672,11.674,17.512c5.346,2.656,12.613,2.867,22.216,0.644l25.623-5.93
				c9.632-2.229,15.93-5.363,19.252-9.581c3.912-4.924,4.746-11.947,2.543-21.463l-3.833-16.558
				c-2.179-9.415-6.326-15.665-12.324-18.575C326.648,417.921,319.757,417.756,310.628,419.868z M329.826,424.231
				c4.774,2.317,8.146,7.594,10.019,15.684l3.832,16.559c1.888,8.158,1.324,13.991-1.728,17.833
				c-2.7,3.426-8.213,6.062-16.855,8.063l-25.623,5.93c-8.595,1.99-14.92,1.891-19.338-0.306c-4.512-2.241-7.677-7.166-9.404-14.637
				l-3.833-16.558c-1.742-7.53-1.165-13.458,1.717-17.62c2.874-4.152,8.552-7.161,17.362-9.2l25.623-5.93l0,0
				C319.73,422.165,325.692,422.226,329.826,424.231z"/>
			<path d="M313.792,433.978l-25.601,5.926c-5.121,1.186-8.521,2.79-10.106,4.771c-1.454,1.816-1.686,4.92-0.689,9.223l3.933,16.99
				c0.995,4.301,2.495,6.947,4.459,7.866v-0.001c1.483,0.695,4.651,1.199,11.318-0.345l25.599-5.924
				c7.26-1.678,9.506-3.506,10.199-4.446c0.792-1.084,1.457-3.539,0.164-9.125l-3.932-16.99c-1.311-5.664-3.078-7.632-4.331-8.286
				C323.713,433.065,320.83,432.35,313.792,433.978z M285.508,469.92l-3.933-16.991c-0.369-1.595-0.496-2.81-0.496-3.696
				c0-1.073,0.186-1.667,0.354-1.879c0.243-0.304,1.761-1.89,7.726-3.27l25.601-5.926c5.856-1.355,7.789-0.795,8.011-0.722
				c0.156,0.146,1.207,1.228,2.185,5.453l3.934,16.991c0.484,2.09,0.611,3.497,0.611,4.4c0,0.82-0.092,1.15-0.13,1.271
				c-0.355,0.262-2.165,1.487-7.633,2.751l-25.6,5.924c-6.408,1.483-8.356,0.714-8.509,0.647
				C287.595,474.853,286.471,474.08,285.508,469.92z"/>
		</g>
	</g>
	<path fill="#A58E5C" d="M259.259,331.117c-7.737-4.152-14.705-9.554-20.634-15.934l-0.049-0.063
		c-5.201,1.595-10.72,2.453-16.436,2.453c-30.955,0-56.139-25.184-56.139-56.139s25.184-56.138,56.139-56.138
		s56.139,25.183,56.139,56.138c0,16.711-7.339,31.74-18.964,42.032l0.077,0.062c5.91,5.216,12.921,9.21,20.638,11.581l0.037,0.018
		c13.083-14.107,21.092-32.982,21.092-53.692c0-43.571-35.448-79.018-79.019-79.018s-79.019,35.447-79.019,79.018
		c0,43.571,35.448,79.02,79.019,79.02c13.426,0,26.081-3.365,37.164-9.298L259.259,331.117z"/>
	<path d="M140.977,261.436c0,44.755,36.409,81.164,81.164,81.164c13.3,0,26.501-3.302,38.177-9.552l3.528-1.888l-3.572-1.933
		c-7.504-4.028-14.259-9.243-20.077-15.505l-0.915-0.984l-1.334,0.332c-5.105,1.565-10.423,2.36-15.806,2.36
		c-29.772,0-53.994-24.223-53.994-53.995s24.222-53.993,53.994-53.993c29.772,0,53.995,24.22,53.995,53.993
		c0,15.427-6.649,30.162-18.241,40.426l-1.817,1.608l1.896,1.668c6.273,5.537,13.483,9.582,21.428,12.022l1.287,0.396l0.952-0.971
		c13.971-15.063,21.665-34.648,21.665-55.15c0-44.753-36.411-81.163-81.165-81.163C177.386,180.272,140.977,216.682,140.977,261.436
		z M145.266,261.436c0-42.388,34.486-76.873,76.875-76.873c42.389,0,76.875,34.484,76.875,76.873
		c0,18.947-6.984,37.039-19.617,51.163c-6.153-2.06-11.8-5.19-16.855-9.304c11.355-10.971,17.882-26.052,17.882-41.859
		c0-32.138-26.147-58.283-58.285-58.283c-32.138,0-58.285,26.145-58.285,58.283s26.146,58.284,58.285,58.284
		c5.355,0,10.634-0.812,15.748-2.25c5.001,5.231,10.646,9.722,16.809,13.441c-10.15,4.767-21.286,7.399-32.557,7.399
		C179.752,338.311,145.266,303.823,145.266,261.436z"/>
</g>
</svg>
